<svg xmlns="http://www.w3.org/2000/svg" version="1.1" width="635" height="451">
<g  fill="#f5fff5" stroke="#000000" style="stroke-width:1">
<rect x="26" y="307" width="133" height="143" />
<line x1="26" y1="320" x2="159" y2="320" />
<polygon points="139,328 151,333 151,323 139,328 " style="fill:#ffffff" />
<polygon points="139,342 146,346 153,342 146,338 139,342 " style="fill:#ffffff" />
<polygon points="139,356 146,360 153,356 146,352 139,356 " style="fill:#000000" />
<polygon points="139,370 147,375 143,370 147,365 139,370 " style="fill:#ffffff" />
<circle cx="139" cy="384" r="5" style="fill:#ffffff" />
<circle cx="139" cy="398" r="5" style="fill:#ffffff" />
<circle cx="146" cy="398" r="2" style="fill:#ffffff" />
<circle cx="139" cy="412" r="5" style="fill:#ffffff" />
<circle cx="139" cy="412" r="2" style="fill:#ffffff" />
<circle cx="139" cy="426" r="5" style="fill:#ffffff" />
<circle cx="139" cy="426" r="2" style="fill:#000000" />
<circle cx="139" cy="440" r="5" style="fill:#000000" />
<circle cx="139" cy="440" r="2" style="fill:#000000" />
</g>
<g font-size="10.000000" stroke="none">
<text x="27" y="316">Relations Key</text>
<text x="27" y="330">Generalization</text>
<text x="27" y="344">Aggregation(reference)</text>
<text x="27" y="358">Composition(owned)</text>
<text x="27" y="372">Const</text>
<text x="27" y="386">Method Variable</text>
<text x="27" y="400">Method Parameter</text>
<text x="27" y="414">Public</text>
<text x="27" y="428">Protected</text>
<text x="27" y="442">Private</text>
</g>
<g  fill="#f5fff5" stroke="#000000" style="stroke-width:1">
<rect x="28" y="66" width="82" height="44" />
<line x1="28" y1="87" x2="110" y2="87" />
<line x1="28" y1="99" x2="110" y2="99" />
</g>
<g font-size="10.000000" stroke="none">
<text x="29" y="75">World</text>
<text x="29" y="84">examples/simple</text>
<text x="29" y="96">-Mary mary</text>
<text x="29" y="108">+World()</text>
</g>
<g  fill="#f5fff5" stroke="#000000" style="stroke-width:1">
<rect x="55" y="240" width="82" height="44" />
<line x1="55" y1="261" x2="137" y2="261" />
<line x1="55" y1="273" x2="137" y2="273" />
</g>
<g font-size="10.000000" stroke="none">
<text x="56" y="249">Mary</text>
<text x="56" y="258">examples/simple</text>
<text x="56" y="270">+Lamb lamb</text>
<text x="56" y="282">+showLocation()</text>
</g>
<g  fill="#f5fff5" stroke="#000000" style="stroke-width:1">
<rect x="508" y="143" width="126" height="71" />
<line x1="508" y1="164" x2="634" y2="164" />
<line x1="508" y1="185" x2="634" y2="185" />
</g>
<g font-size="10.000000" stroke="none">
<text x="509" y="152">Location</text>
<text x="509" y="161">examples/simple</text>
<text x="509" y="173">-int mX</text>
<text x="509" y="182">-int mY</text>
<text x="509" y="194">+setPosition(Location loc)</text>
<text x="509" y="203">+getLocationString()</text>
<text x="509" y="212">+Location(int x, int y)</text>
</g>
<g  fill="#f5fff5" stroke="#000000" style="stroke-width:1">
<rect x="282" y="30" width="101" height="62" />
<line x1="282" y1="51" x2="383" y2="51" />
<line x1="282" y1="63" x2="383" y2="63" />
</g>
<g font-size="10.000000" stroke="none">
<text x="283" y="39">MoveableThing</text>
<text x="283" y="48">examples/simple</text>
<text x="283" y="60">-Location mLocation</text>
<text x="283" y="72">+move(Location loc)</text>
<text x="283" y="81">+getLocation()</text>
<text x="283" y="90">+getLocationString()</text>
</g>
<g  fill="#f5fff5" stroke="#000000" style="stroke-width:1">
<rect x="334" y="195" width="129" height="62" />
<line x1="334" y1="216" x2="463" y2="216" />
<line x1="334" y1="228" x2="463" y2="228" />
</g>
<g font-size="10.000000" stroke="none">
<text x="335" y="204">Lamb</text>
<text x="335" y="213">examples/simple</text>
<text x="335" y="225">+MoveableThing mFleece</text>
<text x="335" y="237">+move(Location loc)</text>
<text x="335" y="246">+follows(Mammal leader)</text>
<text x="335" y="255">+showLocation()</text>
</g>
<g  fill="#f5fff5" stroke="#000000" style="stroke-width:1">
<rect x="195" y="189" width="82" height="26" />
<line x1="195" y1="210" x2="277" y2="210" />
<line x1="195" y1="213" x2="277" y2="213" />
</g>
<g font-size="10.000000" stroke="none">
<text x="196" y="198">Mammal</text>
<text x="196" y="207">examples/simple</text>
</g>
<g  fill="#f5fff5" stroke="#000000" style="stroke-width:1">
<rect x="377" y="287" width="110" height="17" />
<line x1="377" y1="299" x2="487" y2="299" />
<line x1="377" y1="302" x2="487" y2="302" />
</g>
<g font-size="10.000000" stroke="none">
<text x="378" y="296">std::basic_string&lt;char&gt;</text>
</g>
<g  fill="#f5f5ff" stroke="#000000" style="stroke-width:1">
<line x1="72" y1="110" x2="93" y2="240" />
<circle cx="74" cy="123" r="5" style="fill:#ffffff" />
<circle cx="76" cy="139" r="5" style="fill:#000000" />
<circle cx="76" cy="139" r="2" style="fill:#000000" />
<polygon points="72,110 69,118 74,123 77,116 72,110 " style="fill:#000000" />
<line x1="110" y1="95" x2="508" y2="167" />
<circle cx="123" cy="97" r="5" style="fill:#ffffff" />
<line x1="110" y1="84" x2="282" y2="66" />
<circle cx="123" cy="82" r="5" style="fill:#ffffff" />
<line x1="110" y1="105" x2="334" y2="200" />
<circle cx="122" cy="110" r="5" style="fill:#ffffff" />
<line x1="121" y1="240" x2="296" y2="92" />
<circle cx="131" cy="230" r="5" style="fill:#ffffff" />
<line x1="137" y1="258" x2="334" y2="233" />
<circle cx="166" cy="254" r="5" style="fill:#ffffff" />
<circle cx="166" cy="254" r="2" style="fill:#ffffff" />
<polygon points="137,258 145,261 150,257 144,253 137,258 " style="fill:#000000" />
<line x1="137" y1="245" x2="206" y2="215" />
<circle cx="178" cy="226" r="5" style="fill:#ffffff" />
<circle cx="178" cy="226" r="2" style="fill:#ffffff" />
<polygon points="206,215 193,215 197,225 206,215 " style="fill:#ffffff" />
<line x1="137" y1="266" x2="377" y2="290" />
<circle cx="150" cy="267" r="5" style="fill:#ffffff" />
<line x1="508" y1="148" x2="382" y2="85" />
<circle cx="394" cy="91" r="5" style="fill:#ffffff" />
<circle cx="408" cy="98" r="5" style="fill:#000000" />
<circle cx="408" cy="98" r="2" style="fill:#000000" />
<polygon points="382,85 386,92 394,91 390,85 382,85 " style="fill:#000000" />
<line x1="508" y1="195" x2="462" y2="209" />
<circle cx="475" cy="204" r="5" style="fill:#ffffff" />
<circle cx="490" cy="200" r="5" style="fill:#000000" />
<circle cx="490" cy="200" r="2" style="fill:#000000" />
<line x1="530" y1="213" x2="441" y2="287" />
<circle cx="519" cy="221" r="5" style="fill:#ffffff" />
<line x1="344" y1="92" x2="386" y2="195" />
<circle cx="380" cy="182" r="5" style="fill:#ffffff" />
<circle cx="374" cy="167" r="5" style="fill:#ffffff" />
<circle cx="374" cy="167" r="2" style="fill:#ffffff" />
<polygon points="386,195 387,187 381,183 379,190 386,195 " style="fill:#000000" />
<line x1="311" y1="92" x2="244" y2="189" />
<circle cx="293" cy="116" r="5" style="fill:#ffffff" />
<circle cx="293" cy="116" r="2" style="fill:#ffffff" />
<polygon points="311,92 300,99 309,105 311,92 " style="fill:#ffffff" />
<line x1="334" y1="217" x2="277" y2="208" />
<polygon points="334,217 327,210 331,217 326,221 334,217 " style="fill:#ffffff" />
<circle cx="320" cy="214" r="5" style="fill:#ffffff" />
<circle cx="313" cy="213" r="2" style="fill:#ffffff" />
<circle cx="306" cy="212" r="5" style="fill:#ffffff" />
<circle cx="306" cy="212" r="2" style="fill:#ffffff" />
<polygon points="277,208 288,215 290,205 277,208 " style="fill:#ffffff" />
<line x1="413" y1="257" x2="429" y2="287" />
<circle cx="419" cy="269" r="5" style="fill:#ffffff" />
</g>
</svg>