<svg xmlns="http://www.w3.org/2000/svg" version="1.1"
  font-family="Arial, Helvetica, sans-serif" font-size="10.000000" 
  width="540" height="449">
<g  fill="#f5fff5" stroke="#000000" style="stroke-width:1">
<rect x="27" y="305" width="133" height="143" viewbox="0 0 133 143" />
<line x1="27" y1="318" x2="160" y2="318" />
<polygon points="140,326 152,331 152,321 140,326 " style="fill:#ffffff" />
<polygon points="140,340 147,344 154,340 147,336 140,340 " style="fill:#ffffff" />
<polygon points="140,354 147,358 154,354 147,350 140,354 " style="fill:#000000" />
<polygon points="140,368 148,373 144,368 148,363 140,368 " style="fill:#ffffff" />
<circle cx="140" cy="382" r="5" style="fill:#ffffff" />
<circle cx="140" cy="396" r="5" style="fill:#ffffff" />
<circle cx="147" cy="396" r="2" style="fill:#ffffff" />
<circle cx="140" cy="410" r="5" style="fill:#ffffff" />
<circle cx="140" cy="410" r="2" style="fill:#ffffff" />
<circle cx="140" cy="424" r="5" style="fill:#ffffff" />
<circle cx="140" cy="424" r="2" style="fill:#000000" />
<circle cx="140" cy="438" r="5" style="fill:#000000" />
<circle cx="140" cy="438" r="2" style="fill:#000000" />
</g>
<g stroke="none">
<text x="28" y="314">Relations Key</text>
<text x="28" y="328">Generalization</text>
<text x="28" y="342">Aggregation(reference)</text>
<text x="28" y="356">Composition(owned)</text>
<text x="28" y="370">Const</text>
<text x="28" y="384">Method Variable</text>
<text x="28" y="398">Method Parameter</text>
<text x="28" y="412">Public</text>
<text x="28" y="426">Protected</text>
<text x="28" y="440">Private</text>
</g>
<g  fill="#f5fff5" stroke="#000000" style="stroke-width:1">
<rect x="19" y="48" width="82" height="44" />
<line x1="19" y1="69" x2="101" y2="69" />
<line x1="19" y1="81" x2="101" y2="81" />
</g>
<g stroke="none">
<text x="20" y="57">World</text>
<text x="20" y="66">examples/simple</text>
<text x="20" y="78">-Mary mary</text>
<text x="20" y="90">+World()</text>
</g>
<g stroke="none" font-style="italic">
</g>
<g  fill="#f5fff5" stroke="#000000" style="stroke-width:1">
<rect x="44" y="247" width="82" height="44" />
<line x1="44" y1="268" x2="126" y2="268" />
<line x1="44" y1="280" x2="126" y2="280" />
</g>
<g stroke="none">
<text x="45" y="256">Mary</text>
<text x="45" y="265">examples/simple</text>
<text x="45" y="277">+Lamb lamb</text>
</g>
<g stroke="none" font-style="italic">
<text x="45" y="289">+showLocation()</text>
</g>
<g  fill="#f5fff5" stroke="#000000" style="stroke-width:1">
<rect x="297" y="204" width="130" height="62" />
<line x1="297" y1="225" x2="427" y2="225" />
<line x1="297" y1="237" x2="427" y2="237" />
</g>
<g stroke="none">
<text x="298" y="213">Lamb</text>
<text x="298" y="222">examples/simple</text>
<text x="298" y="234">+MoveableThing mFleece</text>
<text x="298" y="255">+follows(Mammal leader)</text>
</g>
<g stroke="none" font-style="italic">
<text x="298" y="246">+move(Location loc)</text>
<text x="298" y="264">+showLocation()</text>
</g>
<g  fill="#f5fff5" stroke="#000000" style="stroke-width:1">
<rect x="150" y="183" width="82" height="26" />
<line x1="150" y1="204" x2="232" y2="204" />
<line x1="150" y1="207" x2="232" y2="207" />
</g>
<g stroke="none">
<text x="151" y="192">Mammal</text>
<text x="151" y="201">examples/simple</text>
</g>
<g stroke="none" font-style="italic">
</g>
<g  fill="#f5fff5" stroke="#000000" style="stroke-width:1">
<rect x="178" y="11" width="102" height="62" />
<line x1="178" y1="32" x2="280" y2="32" />
<line x1="178" y1="44" x2="280" y2="44" />
</g>
<g stroke="none">
<text x="179" y="20">MoveableThing</text>
<text x="179" y="29">examples/simple</text>
<text x="179" y="41">-Location mLocation</text>
<text x="179" y="62">+getLocation()</text>
<text x="179" y="71">+getLocationString()</text>
</g>
<g stroke="none" font-style="italic">
<text x="179" y="53">+move(Location loc)</text>
</g>
<g  fill="#f5fff5" stroke="#000000" style="stroke-width:1">
<rect x="412" y="95" width="127" height="71" />
<line x1="412" y1="116" x2="539" y2="116" />
<line x1="412" y1="137" x2="539" y2="137" />
</g>
<g stroke="none">
<text x="413" y="104">Location</text>
<text x="413" y="113">examples/simple</text>
<text x="413" y="125">-int mX</text>
<text x="413" y="134">-int mY</text>
<text x="413" y="146">+setPosition(Location loc)</text>
<text x="413" y="155">+getLocationString()</text>
<text x="413" y="164">+Location(int x, int y)</text>
</g>
<g stroke="none" font-style="italic">
</g>
<g  fill="#f5f5ff" stroke="#000000" style="stroke-width:1">
<line x1="62" y1="92" x2="83" y2="247" />
<circle cx="63" cy="105" r="5" style="fill:#ffffff" />
<circle cx="66" cy="121" r="5" style="fill:#000000" />
<circle cx="66" cy="121" r="2" style="fill:#000000" />
<polygon points="62,92 59,100 63,105 67,99 62,92 " style="fill:#000000" />
<line x1="100" y1="92" x2="306" y2="204" />
<circle cx="112" cy="98" r="5" style="fill:#ffffff" />
<line x1="101" y1="64" x2="178" y2="50" />
<circle cx="114" cy="61" r="5" style="fill:#ffffff" />
<line x1="101" y1="75" x2="412" y2="121" />
<circle cx="114" cy="77" r="5" style="fill:#ffffff" />
<line x1="126" y1="264" x2="297" y2="242" />
<circle cx="155" cy="260" r="5" style="fill:#ffffff" />
<circle cx="155" cy="260" r="2" style="fill:#ffffff" />
<polygon points="126,264 134,267 139,263 133,259 126,264 " style="fill:#000000" />
<line x1="116" y1="247" x2="173" y2="209" />
<circle cx="148" cy="225" r="5" style="fill:#ffffff" />
<circle cx="148" cy="225" r="2" style="fill:#ffffff" />
<polygon points="173,209 160,211 166,220 173,209 " style="fill:#ffffff" />
<line x1="98" y1="247" x2="210" y2="73" />
<circle cx="105" cy="235" r="5" style="fill:#ffffff" />
<line x1="297" y1="221" x2="232" y2="205" />
<polygon points="297,221 291,214 294,221 288,224 297,221 " style="fill:#ffffff" />
<circle cx="283" cy="217" r="5" style="fill:#ffffff" />
<circle cx="276" cy="215" r="2" style="fill:#ffffff" />
<circle cx="261" cy="212" r="5" style="fill:#ffffff" />
<circle cx="261" cy="212" r="2" style="fill:#ffffff" />
<polygon points="232,205 243,213 245,203 232,205 " style="fill:#ffffff" />
<line x1="341" y1="204" x2="250" y2="73" />
<circle cx="333" cy="192" r="5" style="fill:#ffffff" />
<circle cx="323" cy="179" r="5" style="fill:#ffffff" />
<circle cx="323" cy="179" r="2" style="fill:#ffffff" />
<polygon points="341,204 341,196 334,193 333,201 341,204 " style="fill:#000000" />
<line x1="395" y1="204" x2="438" y2="165" />
<circle cx="405" cy="194" r="5" style="fill:#ffffff" />
<circle cx="410" cy="189" r="2" style="fill:#ffffff" />
<line x1="194" y1="183" x2="222" y2="73" />
<circle cx="214" cy="102" r="5" style="fill:#ffffff" />
<circle cx="214" cy="102" r="2" style="fill:#ffffff" />
<polygon points="222,73 214,84 224,86 222,73 " style="fill:#ffffff" />
<line x1="280" y1="60" x2="412" y2="108" />
<circle cx="293" cy="64" r="5" style="fill:#ffffff" />
<circle cx="299" cy="67" r="2" style="fill:#ffffff" />
<circle cx="308" cy="70" r="5" style="fill:#000000" />
<circle cx="308" cy="70" r="2" style="fill:#000000" />
<polygon points="280,60 285,66 293,64 288,59 280,60 " style="fill:#000000" />
</g>
</svg>