<svg xmlns="http://www.w3.org/2000/svg" version="1.1" width="434" height="350">
<g  fill="#f5f5ff" stroke="rgb(0,0,0)" style="stroke-width:1">
<rect x="14" y="15" width="94" height="71" />
<line x1="14" y1="36" x2="108" y2="36" />
<line x1="14" y1="75" x2="108" y2="75" />
</g>
<g font-size="10">
<text x="15" y="24">World</text>
<text x="15" y="33">/MainClients/</text>
<text x="15" y="45">-BlackSheep sheep</text>
<text x="15" y="54">-Master master</text>
<text x="15" y="63">-Dame dame</text>
<text x="15" y="72">-LittleBoy boy</text>
<text x="15" y="84">+World()</text>
</g>
<g  fill="#f5f5ff" stroke="rgb(0,0,0)" style="stroke-width:1">
<rect x="288" y="155" width="145" height="62" />
<line x1="288" y1="176" x2="433" y2="176" />
<line x1="288" y1="188" x2="433" y2="188" />
</g>
<g font-size="10">
<text x="289" y="164">BlackSheep</text>
<text x="289" y="173">/BlackSheep/</text>
<text x="289" y="185">-std::vector&lt;WoolBag&gt; mBags</text>
<text x="289" y="197">+BlackSheep()</text>
<text x="289" y="206">+haveWool()</text>
<text x="289" y="215">+getBag()</text>
</g>
<g  fill="#f5f5ff" stroke="rgb(0,0,0)" style="stroke-width:1">
<rect x="19" y="155" width="67" height="35" />
<line x1="19" y1="176" x2="86" y2="176" />
<line x1="19" y1="179" x2="86" y2="179" />
</g>
<g font-size="10">
<text x="20" y="164">Master</text>
<text x="20" y="173">/MainClients/</text>
<text x="20" y="188">+getName()</text>
</g>
<g  fill="#f5f5ff" stroke="rgb(0,0,0)" style="stroke-width:1">
<rect x="104" y="155" width="67" height="35" />
<line x1="104" y1="176" x2="171" y2="176" />
<line x1="104" y1="179" x2="171" y2="179" />
</g>
<g font-size="10">
<text x="105" y="164">Dame</text>
<text x="105" y="173">/MainClients/</text>
<text x="105" y="188">+getName()</text>
</g>
<g  fill="#f5f5ff" stroke="rgb(0,0,0)" style="stroke-width:1">
<rect x="188" y="155" width="67" height="35" />
<line x1="188" y1="176" x2="255" y2="176" />
<line x1="188" y1="179" x2="255" y2="179" />
</g>
<g font-size="10">
<text x="189" y="164">LittleBoy</text>
<text x="189" y="173">/MainClients/</text>
<text x="189" y="188">+getName()</text>
</g>
<g  fill="#f5f5ff" stroke="rgb(0,0,0)" style="stroke-width:1">
<rect x="109" y="230" width="142" height="44" />
<line x1="109" y1="251" x2="251" y2="251" />
<line x1="109" y1="254" x2="251" y2="254" />
</g>
<g font-size="10">
<text x="110" y="239">Client</text>
<text x="110" y="248">/MainClients/</text>
<text x="110" y="263">+getName()</text>
<text x="110" y="272">+takeBag(BlackSheep sheep)</text>
</g>
<g  fill="#f5f5ff" stroke="rgb(0,0,0)" style="stroke-width:1">
<rect x="199" y="314" width="67" height="35" />
<line x1="199" y1="335" x2="266" y2="335" />
<line x1="199" y1="338" x2="266" y2="338" />
</g>
<g font-size="10">
<text x="200" y="323">WoolBag</text>
<text x="200" y="332">/BlackSheep/</text>
<text x="200" y="347">+quantity()</text>
</g>
<g  fill="#f5f5ff" stroke="rgb(0,0,0)" style="stroke-width:1">
<rect x="309" y="317" width="106" height="17" />
<line x1="309" y1="329" x2="415" y2="329" />
<line x1="309" y1="332" x2="415" y2="332" />
</g>
<g font-size="10">
<text x="310" y="326">std::vector&lt;WoolBag&gt;</text>
</g>
<g  fill="#f5f5ff" stroke="rgb(0,0,0)" style="stroke-width:1">
<line x1="108" y1="71" x2="292" y2="155" />
<polygon points="108,71 113,78 124,78 116,71 108,71 " style="fill:#000000" />
<circle cx="135" cy="83" r="5" style="fill:#000000" />
<circle cx="135" cy="83" r="2" style="fill:#000000" />
<line x1="59" y1="85" x2="53" y2="155" />
<polygon points="59,85 54,92 58,102 62,93 59,85 " style="fill:#000000" />
<circle cx="56" cy="114" r="5" style="fill:#000000" />
<circle cx="56" cy="114" r="2" style="fill:#000000" />
<line x1="82" y1="85" x2="127" y2="155" />
<polygon points="82,85 82,93 91,100 90,89 82,85 " style="fill:#000000" />
<circle cx="98" cy="110" r="5" style="fill:#000000" />
<circle cx="98" cy="110" r="2" style="fill:#000000" />
<line x1="106" y1="85" x2="199" y2="155" />
<polygon points="106,85 109,93 120,95 114,86 106,85 " style="fill:#000000" />
<circle cx="129" cy="103" r="5" style="fill:#000000" />
<circle cx="129" cy="103" r="2" style="fill:#000000" />
<line x1="288" y1="212" x2="240" y2="230" />
<circle cx="257" cy="223" r="5" style="fill:#ffffff" />
<circle cx="263" cy="221" r="2" style="fill:#ffffff" />
<line x1="333" y1="217" x2="247" y2="314" />
<circle cx="323" cy="227" r="5" style="fill:#ffffff" />
<line x1="360" y1="217" x2="362" y2="317" />
<polygon points="360,217 356,224 360,234 364,224 360,217 " style="fill:#000000" />
<circle cx="360" cy="246" r="5" style="fill:#000000" />
<circle cx="360" cy="246" r="2" style="fill:#000000" />
<line x1="79" y1="189" x2="145" y2="230" />
<polygon points="145,230 137,219 132,228 145,230 " style="fill:#ffffff" />
<circle cx="119" cy="214" r="5" style="fill:#ffffff" />
<circle cx="119" cy="214" r="2" style="fill:#ffffff" />
<line x1="146" y1="189" x2="169" y2="230" />
<polygon points="169,230 168,217 158,222 169,230 " style="fill:#ffffff" />
<circle cx="154" cy="203" r="5" style="fill:#ffffff" />
<circle cx="154" cy="203" r="2" style="fill:#ffffff" />
<line x1="213" y1="189" x2="191" y2="230" />
<polygon points="191,230 201,222 192,217 191,230 " style="fill:#ffffff" />
<circle cx="205" cy="203" r="5" style="fill:#ffffff" />
<circle cx="205" cy="203" r="2" style="fill:#ffffff" />
<line x1="194" y1="274" x2="221" y2="314" />
<circle cx="201" cy="285" r="5" style="fill:#ffffff" />
<line x1="265" y1="330" x2="309" y2="327" />
</g>
</svg>