<svg xmlns="http://www.w3.org/2000/svg" version="1.1" width="565" height="434">
<g  fill="#f5fff5" stroke="#000000" style="stroke-width:1">
<rect x="24" y="290" width="133" height="143" />
<line x1="24" y1="303" x2="157" y2="303" />
<polygon points="137,311 149,316 149,306 137,311 " style="fill:#ffffff" />
<polygon points="137,325 144,329 151,325 144,321 137,325 " style="fill:#ffffff" />
<polygon points="137,339 144,343 151,339 144,335 137,339 " style="fill:#000000" />
<polygon points="137,353 145,358 141,353 145,348 137,353 " style="fill:#ffffff" />
<circle cx="137" cy="367" r="5" style="fill:#ffffff" />
<circle cx="137" cy="381" r="5" style="fill:#ffffff" />
<circle cx="144" cy="381" r="2" style="fill:#ffffff" />
<circle cx="137" cy="395" r="5" style="fill:#ffffff" />
<circle cx="137" cy="395" r="2" style="fill:#ffffff" />
<circle cx="137" cy="409" r="5" style="fill:#ffffff" />
<circle cx="137" cy="409" r="2" style="fill:#000000" />
<circle cx="137" cy="423" r="5" style="fill:#000000" />
<circle cx="137" cy="423" r="2" style="fill:#000000" />
</g>
<g font-size="10.000000" stroke="none">
<text x="25" y="299">Relations Key</text>
<text x="25" y="313">Generalization</text>
<text x="25" y="327">Aggregation(reference)</text>
<text x="25" y="341">Composition(owned)</text>
<text x="25" y="355">Const</text>
<text x="25" y="369">Method Variable</text>
<text x="25" y="383">Method Parameter</text>
<text x="25" y="397">Public</text>
<text x="25" y="411">Protected</text>
<text x="25" y="425">Private</text>
</g>
<g  fill="#f5fff5" stroke="#000000" style="stroke-width:1">
<rect x="32" y="22" width="147" height="71" />
<line x1="32" y1="43" x2="179" y2="43" />
<line x1="32" y1="82" x2="179" y2="82" />
</g>
<g font-size="10.000000" stroke="none">
<text x="33" y="31">WoolWorld</text>
<text x="33" y="40">examples/staticlib/MainClients</text>
<text x="33" y="52">-BlackSheep sheep</text>
<text x="33" y="61">-Master master</text>
<text x="33" y="70">-Dame dame</text>
<text x="33" y="79">-LittleBoy boy</text>
<text x="33" y="91">+WoolWorld()</text>
</g>
<g  fill="#f5fff5" stroke="#000000" style="stroke-width:1">
<rect x="378" y="275" width="146" height="26" />
<line x1="378" y1="296" x2="524" y2="296" />
<line x1="378" y1="299" x2="524" y2="299" />
</g>
<g font-size="10.000000" stroke="none">
<text x="379" y="284">BlackSheep</text>
<text x="379" y="293">examples/staticlib/BlackSheep</text>
</g>
<g  fill="#f5fff5" stroke="#000000" style="stroke-width:1">
<rect x="20" y="184" width="147" height="35" />
<line x1="20" y1="205" x2="167" y2="205" />
<line x1="20" y1="208" x2="167" y2="208" />
</g>
<g font-size="10.000000" stroke="none">
<text x="21" y="193">Master</text>
<text x="21" y="202">examples/staticlib/MainClients</text>
<text x="21" y="217">+getName()</text>
</g>
<g  fill="#f5fff5" stroke="#000000" style="stroke-width:1">
<rect x="196" y="184" width="147" height="35" />
<line x1="196" y1="205" x2="343" y2="205" />
<line x1="196" y1="208" x2="343" y2="208" />
</g>
<g font-size="10.000000" stroke="none">
<text x="197" y="193">Dame</text>
<text x="197" y="202">examples/staticlib/MainClients</text>
<text x="197" y="217">+getName()</text>
</g>
<g  fill="#f5fff5" stroke="#000000" style="stroke-width:1">
<rect x="379" y="184" width="147" height="35" />
<line x1="379" y1="205" x2="526" y2="205" />
<line x1="379" y1="208" x2="526" y2="208" />
</g>
<g font-size="10.000000" stroke="none">
<text x="380" y="193">LittleBoy</text>
<text x="380" y="202">examples/staticlib/MainClients</text>
<text x="380" y="217">+getName()</text>
</g>
<g  fill="#f5fff5" stroke="#000000" style="stroke-width:1">
<rect x="178" y="306" width="147" height="44" />
<line x1="178" y1="327" x2="325" y2="327" />
<line x1="178" y1="330" x2="325" y2="330" />
</g>
<g font-size="10.000000" stroke="none">
<text x="179" y="315">Client</text>
<text x="179" y="324">examples/staticlib/MainClients</text>
<text x="179" y="339">+takeBag(BlackSheep sheep)</text>
<text x="179" y="348">+getName()</text>
</g>
<g  fill="#f5fff5" stroke="#000000" style="stroke-width:1">
<rect x="346" y="374" width="218" height="26" />
<line x1="346" y1="395" x2="564" y2="395" />
<line x1="346" y1="398" x2="564" y2="398" />
</g>
<g font-size="10.000000" stroke="none">
<text x="347" y="383">std::vector&lt;WoolBag,std::allocator&lt;WoolBag&gt;</text>
<text x="347" y="392">    &gt;</text>
</g>
<g  fill="#f5fff5" stroke="#000000" style="stroke-width:1">
<rect x="178" y="397" width="146" height="35" />
<line x1="178" y1="418" x2="324" y2="418" />
<line x1="178" y1="421" x2="324" y2="421" />
</g>
<g font-size="10.000000" stroke="none">
<text x="179" y="406">WoolBag</text>
<text x="179" y="415">examples/staticlib/BlackSheep</text>
<text x="179" y="430">+charconst quantity()</text>
</g>
<g  fill="#f5f5ff" stroke="#000000" style="stroke-width:1">
<line x1="157" y1="92" x2="432" y2="275" />
<circle cx="168" cy="99" r="5" style="fill:#ffffff" />
<circle cx="181" cy="108" r="5" style="fill:#000000" />
<circle cx="181" cy="108" r="2" style="fill:#000000" />
<polygon points="157,92 160,100 168,99 165,92 157,92 " style="fill:#000000" />
<line x1="103" y1="92" x2="94" y2="184" />
<circle cx="100" cy="121" r="5" style="fill:#000000" />
<circle cx="100" cy="121" r="2" style="fill:#000000" />
<polygon points="103,92 98,99 102,105 106,100 103,92 " style="fill:#000000" />
<line x1="144" y1="92" x2="250" y2="184" />
<circle cx="166" cy="111" r="5" style="fill:#000000" />
<circle cx="166" cy="111" r="2" style="fill:#000000" />
<polygon points="144,92 146,100 154,101 152,93 144,92 " style="fill:#000000" />
<line x1="178" y1="87" x2="412" y2="184" />
<circle cx="205" cy="98" r="5" style="fill:#000000" />
<circle cx="205" cy="98" r="2" style="fill:#000000" />
<polygon points="178,87 183,94 190,92 186,86 178,87 " style="fill:#000000" />
<line x1="123" y1="92" x2="240" y2="306" />
<circle cx="129" cy="104" r="5" style="fill:#ffffff" />
<line x1="386" y1="301" x2="324" y2="314" />
<circle cx="337" cy="311" r="5" style="fill:#ffffff" />
<circle cx="353" cy="307" r="5" style="fill:#000000" />
<circle cx="353" cy="307" r="2" style="fill:#000000" />
<line x1="451" y1="301" x2="455" y2="374" />
<circle cx="451" cy="314" r="5" style="fill:#ffffff" />
<circle cx="452" cy="330" r="5" style="fill:#000000" />
<circle cx="452" cy="330" r="2" style="fill:#000000" />
<polygon points="451,301 447,309 451,314 455,308 451,301 " style="fill:#000000" />
<line x1="431" y1="301" x2="277" y2="397" />
<circle cx="419" cy="308" r="5" style="fill:#ffffff" />
<line x1="114" y1="218" x2="224" y2="306" />
<circle cx="200" cy="287" r="5" style="fill:#ffffff" />
<circle cx="200" cy="287" r="2" style="fill:#ffffff" />
<polygon points="224,306 218,294 211,303 224,306 " style="fill:#ffffff" />
<line x1="267" y1="218" x2="254" y2="306" />
<circle cx="258" cy="276" r="5" style="fill:#ffffff" />
<circle cx="258" cy="276" r="2" style="fill:#ffffff" />
<polygon points="254,306 261,294 251,293 254,306 " style="fill:#ffffff" />
<line x1="426" y1="218" x2="285" y2="306" />
<circle cx="310" cy="290" r="5" style="fill:#ffffff" />
<circle cx="310" cy="290" r="2" style="fill:#ffffff" />
<polygon points="285,306 298,304 293,295 285,306 " style="fill:#ffffff" />
<line x1="251" y1="350" x2="251" y2="397" />
<circle cx="251" cy="364" r="5" style="fill:#ffffff" />
<line x1="357" y1="400" x2="324" y2="405" />
</g>
</svg>