<svg xmlns="http://www.w3.org/2000/svg" version="1.1" width="427" height="318" viewbox="0 0 427 318">
<g font-size="10.000000" stroke="none">
<g  fill="#f5f5ff" stroke="#000000" style="stroke-width:1">
<rect x="7" y="7" width="57" height="9" />
</g>
<text x="9" y="14">WoolWorld</text>
</g>
<g font-size="10.000000" stroke="none">
<g  fill="#f5f5ff" stroke="#000000" style="stroke-width:1">
<rect x="73" y="7" width="34" height="9" />
</g>
<text x="75" y="14">Client</text>
</g>
<g font-size="10.000000" stroke="none">
<g  fill="#f5f5ff" stroke="#000000" style="stroke-width:1">
<rect x="114" y="7" width="61" height="9" />
</g>
<text x="116" y="14">BlackSheep</text>
</g>
<g font-size="10.000000" stroke="none">
<g  fill="#f5f5ff" stroke="#000000" style="stroke-width:1">
<rect x="182" y="7" width="4" height="9" />
</g>
<text x="184" y="14"></text>
</g>
<g font-size="10.000000" stroke="none">
<g  fill="#f5f5ff" stroke="#000000" style="stroke-width:1">
<rect x="193" y="7" width="49" height="9" />
</g>
<text x="195" y="14">WoolBag</text>
</g>
<g font-size="10.000000" stroke="none">
<g  fill="#f5f5ff" stroke="#000000" style="stroke-width:1">
<rect x="249" y="7" width="171" height="18" />
</g>
<text x="251" y="14">std::vector&lt;WoolBag,std::allocator&lt;</text>
<text x="251" y="23">   WoolBag&gt; &gt;</text>
</g>
<g  fill="#f5f5ff" stroke="#000000" style="stroke-width:1">
<line x1="7" y1="38" x2="36" y2="38" />
<line x1="32" y1="34" x2="36" y2="38" />
<line x1="32" y1="42" x2="36" y2="38" />
<line x1="36" y1="45" x2="90" y2="45" />
<line x1="86" y1="41" x2="90" y2="45" />
<line x1="86" y1="49" x2="90" y2="45" />
<line x1="90" y1="61" x2="144" y2="61" />
<line x1="140" y1="57" x2="144" y2="61" />
<line x1="140" y1="65" x2="144" y2="61" />
<line x1="144" y1="77" x2="334" y2="77" />
<line x1="330" y1="73" x2="334" y2="77" />
<line x1="330" y1="81" x2="334" y2="77" />
<line x1="144" y1="91" x2="334" y2="91" />
<line x1="330" y1="87" x2="334" y2="91" />
<line x1="330" y1="95" x2="334" y2="91" />
<line x1="144" y1="105" x2="217" y2="105" />
<line x1="213" y1="101" x2="217" y2="105" />
<line x1="213" y1="109" x2="217" y2="105" />
<line x1="144" y1="119" x2="334" y2="119" />
<line x1="330" y1="115" x2="334" y2="119" />
<line x1="330" y1="123" x2="334" y2="119" />
<polygon points="" style="fill:#f5f5ff" />
<line x1="90" y1="137" x2="111" y2="137" style="stroke-dasharray: 4, 4 "/>
<line x1="111" y1="137" x2="111" y2="140" />
<line x1="90" y1="140" x2="111" y2="140" style="stroke-dasharray: 4, 4 "/>
<line x1="90" y1="154" x2="217" y2="154" style="stroke-dasharray: 4, 4 "/>
<line x1="213" y1="150" x2="217" y2="154" />
<line x1="213" y1="158" x2="217" y2="154" />
<line x1="90" y1="168" x2="184" y2="168" />
<line x1="180" y1="164" x2="184" y2="168" />
<line x1="180" y1="172" x2="184" y2="168" />
<polygon points="90,64 90,64 90,126 90,126 90,126 90,126 90,64 90,64 " style="fill:#f5f5ff" />
<line x1="36" y1="186" x2="90" y2="186" />
<line x1="86" y1="182" x2="90" y2="186" />
<line x1="86" y1="190" x2="90" y2="186" />
<rect x="94" y="186" width="9" height="9" />
<line x1="36" y1="209" x2="90" y2="209" />
<line x1="86" y1="205" x2="90" y2="209" />
<line x1="86" y1="213" x2="90" y2="209" />
<rect x="94" y="209" width="9" height="9" />
<line x1="38" y1="246" x2="144" y2="246" style="stroke-dasharray: 4, 4 "/>
<line x1="140" y1="242" x2="144" y2="246" />
<line x1="140" y1="250" x2="144" y2="246" />
<line x1="144" y1="262" x2="334" y2="262" />
<line x1="330" y1="258" x2="334" y2="262" />
<line x1="330" y1="266" x2="334" y2="262" />
<polygon points="" style="fill:#f5f5ff" />
<line x1="38" y1="280" x2="184" y2="280" />
<line x1="180" y1="276" x2="184" y2="280" />
<line x1="180" y1="284" x2="184" y2="280" />
<line x1="38" y1="308" x2="184" y2="308" />
<line x1="180" y1="304" x2="184" y2="308" />
<line x1="180" y1="312" x2="184" y2="308" />
<polygon points="36,48 36,48 36,175 36,175 36,189 36,189 36,198 36,198 36,212 36,212 36,221 36,221 36,235 38,235 38,249 36,249 36,269 38,269 38,283 36,283 36,297 38,297 38,311 36,311 36,311 34,311 34,297 36,297 36,283 34,283 34,269 36,269 36,249 34,249 34,235 36,235 36,221 36,221 36,212 36,212 36,198 36,198 36,189 36,189 36,175 36,175 36,48 36,48 " style="fill:#f5f5ff" />
</g>
<g font-size="10.000000" stroke="none">
<text x="7" y="34">WoolWorld</text>
<text x="38" y="41">takeBag</text>
<text x="92" y="57">getBag</text>
<text x="146" y="73">size</text>
<text x="146" y="87">operator[]</text>
<text x="146" y="101">WoolBag</text>
<text x="146" y="115">mBags.pop_back</text>
<text x="92" y="136">getName</text>
<text x="92" y="150">quantity</text>
<text x="92" y="164">printf</text>
<text x="38" y="182">takeBag</text>
<text x="38" y="205">takeBag</text>
<text x="38" y="228">[ sheep . haveWool ( ) ]</text>
<text x="40" y="242">haveWool</text>
<text x="146" y="258">mBags.size</text>
<text x="40" y="276">printf</text>
<text x="38" y="290">[else]</text>
<text x="40" y="304">printf</text>
</g>
<g  fill="#f5f5ff" stroke="#000000" style="stroke-width:1">
<line x1="36" y1="16" x2="36" y2="318" />
<line x1="90" y1="16" x2="90" y2="318" />
<line x1="144" y1="16" x2="144" y2="318" />
<line x1="184" y1="16" x2="184" y2="318" />
<line x1="217" y1="16" x2="217" y2="318" />
<line x1="334" y1="25" x2="334" y2="318" />
</g>
</svg>