<svg xmlns="http://www.w3.org/2000/svg" version="1.1"
  font-family="Arial, Helvetica, sans-serif" font-size="10.000000" 
  width="466" height="358" viewbox="0 0 466 358">
<g  fill="#f5fff5" stroke="#000000" style="stroke-width:1">
<rect x="332" y="214" width="133" height="143" />
<line x1="332" y1="227" x2="465" y2="227" />
<polygon points="445,235 457,240 457,230 445,235 " style="fill:#ffffff" />
<polygon points="445,249 452,253 459,249 452,245 445,249 " style="fill:#ffffff" />
<polygon points="445,263 452,267 459,263 452,259 445,263 " style="fill:#000000" />
<polygon points="445,277 453,282 449,277 453,272 445,277 " style="fill:#ffffff" />
<circle cx="445" cy="291" r="5" style="fill:#ffffff" />
<circle cx="445" cy="305" r="5" style="fill:#ffffff" />
<circle cx="452" cy="305" r="2" style="fill:#ffffff" />
<circle cx="445" cy="319" r="5" style="fill:#ffffff" />
<circle cx="445" cy="319" r="2" style="fill:#ffffff" />
<circle cx="445" cy="333" r="5" style="fill:#ffffff" />
<circle cx="445" cy="333" r="2" style="fill:#000000" />
<circle cx="445" cy="347" r="5" style="fill:#000000" />
<circle cx="445" cy="347" r="2" style="fill:#000000" />
</g>
<g stroke="none">
<text x="333" y="223">Relations Key</text>
<text x="333" y="237">Generalization</text>
<text x="333" y="251">Aggregation(reference)</text>
<text x="333" y="265">Composition(owned)</text>
<text x="333" y="279">Const</text>
<text x="333" y="293">Method Variable</text>
<text x="333" y="307">Method Parameter</text>
<text x="333" y="321">Public</text>
<text x="333" y="335">Protected</text>
<text x="333" y="349">Private</text>
</g>
<g  fill="#f5fff5" stroke="#000000" style="stroke-width:1">
<rect x="14" y="19" width="150" height="35" />
<line x1="14" y1="40" x2="164" y2="40" />
<line x1="14" y1="43" x2="164" y2="43" />
</g>
<g stroke="none">
<text x="15" y="28">Kingdom</text>
<text x="15" y="37">examples/sharedlibgtk/kingdom</text>
<text x="15" y="52">+Kingdom()</text>
</g>
<g stroke="none" font-style="italic">
</g>
<g  fill="#f5fff5" stroke="#000000" style="stroke-width:1">
<rect x="237" y="18" width="151" height="62" />
<line x1="237" y1="39" x2="388" y2="39" />
<line x1="237" y1="51" x2="388" y2="51" />
</g>
<g stroke="none">
<text x="238" y="27">Egg</text>
<text x="238" y="36">examples/sharedlibgtk/kingdom</text>
<text x="238" y="48">-string&lt;&lt;typedef&gt;&gt; mName</text>
<text x="238" y="60">+Egg(char name)</text>
<text x="238" y="69">+getName()</text>
<text x="238" y="78">+fall()</text>
</g>
<g stroke="none" font-style="italic">
</g>
<g  fill="#f5fff5" stroke="#000000" style="stroke-width:1">
<rect x="14" y="143" width="210" height="107" />
<line x1="14" y1="164" x2="224" y2="164" />
<line x1="14" y1="185" x2="224" y2="185" />
</g>
<g stroke="none">
<text x="15" y="152">ResourceClient</text>
<text x="15" y="161">examples/sharedlibgtk/kingdom</text>
<text x="15" y="173">-GModule&lt;&lt;typedef&gt;&gt; mModule</text>
<text x="15" y="182">-ResourceClientInterface mInterface</text>
<text x="15" y="194">+open(char fn)</text>
<text x="15" y="203">+close()</text>
<text x="15" y="212">-loadSymbols()</text>
<text x="15" y="221">-loadModuleSymbol(gchar&lt;&lt;typedef&gt;&gt; </text>
<text x="22" y="230">symbolName, gpointer&lt;&lt;typedef&gt;&gt; symbol)</text>
<text x="15" y="239">+isOpen()</text>
<text x="15" y="248">+getInterface()</text>
</g>
<g stroke="none" font-style="italic">
</g>
<g  fill="#f5fff5" stroke="#000000" style="stroke-width:1">
<rect x="304" y="105" width="161" height="44" />
<line x1="304" y1="126" x2="465" y2="126" />
<line x1="304" y1="147" x2="465" y2="147" />
</g>
<g stroke="none">
<text x="305" y="114">ResourceClientInterface</text>
<text x="305" y="123">examples/sharedlibgtk/kingdom</text>
<text x="305" y="135">+void(char,int) getResourceName</text>
<text x="305" y="144">+bool() putTogether</text>
</g>
<g stroke="none" font-style="italic">
</g>
<g  fill="#f5f5ff" stroke="#000000" style="stroke-width:1">
<line x1="164" y1="40" x2="237" y2="45" />
<circle cx="177" cy="40" r="5" style="fill:#ffffff" />
<line x1="92" y1="53" x2="110" y2="143" />
<circle cx="94" cy="66" r="5" style="fill:#ffffff" />
<line x1="224" y1="169" x2="304" y2="147" />
<circle cx="252" cy="161" r="5" style="fill:#000000" />
<circle cx="252" cy="161" r="2" style="fill:#000000" />
<polygon points="224,169 232,171 237,166 230,163 224,169 " style="fill:#000000" />
</g>
</svg>