<svg xmlns="http://www.w3.org/2000/svg" version="1.1" width="392" height="311">
<g font-size="10.000000" stroke="none">
<g  fill="#f5f5ff" stroke="#000000" style="stroke-width:1">
<rect x="7" y="7" width="33" height="9" />
</g>
<text x="9" y="14">World</text>
</g>
<g font-size="10.000000" stroke="none">
<g  fill="#f5f5ff" stroke="#000000" style="stroke-width:1">
<rect x="47" y="7" width="46" height="9" />
</g>
<text x="49" y="14">Location</text>
</g>
<g font-size="10.000000" stroke="none">
<g  fill="#f5f5ff" stroke="#000000" style="stroke-width:1">
<rect x="100" y="7" width="80" height="9" />
</g>
<text x="102" y="14">MoveableThing</text>
</g>
<g font-size="10.000000" stroke="none">
<g  fill="#f5f5ff" stroke="#000000" style="stroke-width:1">
<rect x="187" y="7" width="32" height="9" />
</g>
<text x="189" y="14">Lamb</text>
</g>
<g font-size="10.000000" stroke="none">
<g  fill="#f5f5ff" stroke="#000000" style="stroke-width:1">
<rect x="226" y="7" width="29" height="9" />
</g>
<text x="228" y="14">Mary</text>
</g>
<g font-size="10.000000" stroke="none">
<g  fill="#f5f5ff" stroke="#000000" style="stroke-width:1">
<rect x="262" y="7" width="112" height="9" />
</g>
<text x="264" y="14">std::basic_string&lt;char&gt;</text>
</g>
<g font-size="10.000000" stroke="none">
<g  fill="#f5f5ff" stroke="#000000" style="stroke-width:1">
<rect x="381" y="7" width="4" height="9" />
</g>
<text x="383" y="14"></text>
</g>
<g  fill="#f5f5ff" stroke="#000000" style="stroke-width:1">
<line x1="7" y1="29" x2="23" y2="29" />
<line x1="19" y1="25" x2="23" y2="29" />
<line x1="19" y1="33" x2="23" y2="29" />
<line x1="23" y1="36" x2="70" y2="36" />
<line x1="66" y1="32" x2="70" y2="36" />
<line x1="66" y1="40" x2="70" y2="36" />
<line x1="23" y1="50" x2="140" y2="50" />
<line x1="136" y1="46" x2="140" y2="50" />
<line x1="136" y1="54" x2="140" y2="50" />
<line x1="140" y1="66" x2="70" y2="66" />
<line x1="74" y1="70" x2="70" y2="66" />
<line x1="74" y1="62" x2="70" y2="66" />
<line x1="140" y1="80" x2="70" y2="80" />
<line x1="74" y1="84" x2="70" y2="80" />
<line x1="74" y1="76" x2="70" y2="80" />
<polygon points="" style="fill:#f5f5ff" />
<line x1="23" y1="98" x2="203" y2="98" />
<line x1="199" y1="94" x2="203" y2="98" />
<line x1="199" y1="102" x2="203" y2="98" />
<line x1="203" y1="114" x2="140" y2="114" style="stroke-dasharray: 4, 4 "/>
<line x1="144" y1="118" x2="140" y2="114" />
<line x1="144" y1="110" x2="140" y2="114" />
<line x1="203" y1="128" x2="70" y2="128" />
<line x1="74" y1="132" x2="70" y2="128" />
<line x1="74" y1="124" x2="70" y2="128" />
<line x1="203" y1="142" x2="224" y2="142" />
<line x1="224" y1="142" x2="224" y2="145" />
<line x1="203" y1="145" x2="224" y2="145" />
<polygon points="" style="fill:#f5f5ff" />
<line x1="23" y1="163" x2="240" y2="163" />
<line x1="236" y1="159" x2="240" y2="163" />
<line x1="236" y1="167" x2="240" y2="163" />
<line x1="240" y1="179" x2="140" y2="179" style="stroke-dasharray: 4, 4 "/>
<line x1="144" y1="183" x2="140" y2="179" />
<line x1="144" y1="175" x2="140" y2="179" />
<line x1="240" y1="193" x2="318" y2="193" />
<line x1="314" y1="189" x2="318" y2="193" />
<line x1="314" y1="197" x2="318" y2="193" />
<line x1="240" y1="207" x2="383" y2="207" />
<line x1="379" y1="203" x2="383" y2="207" />
<line x1="379" y1="211" x2="383" y2="207" />
<polygon points="" style="fill:#f5f5ff" />
<line x1="23" y1="225" x2="203" y2="225" />
<line x1="199" y1="221" x2="203" y2="225" />
<line x1="199" y1="229" x2="203" y2="225" />
<line x1="203" y1="241" x2="140" y2="241" style="stroke-dasharray: 4, 4 "/>
<line x1="144" y1="245" x2="140" y2="241" />
<line x1="144" y1="237" x2="140" y2="241" />
<line x1="203" y1="255" x2="318" y2="255" />
<line x1="314" y1="251" x2="318" y2="255" />
<line x1="314" y1="259" x2="318" y2="255" />
<line x1="203" y1="269" x2="140" y2="269" style="stroke-dasharray: 4, 4 "/>
<line x1="144" y1="273" x2="140" y2="269" />
<line x1="144" y1="265" x2="140" y2="269" />
<line x1="203" y1="283" x2="318" y2="283" />
<line x1="314" y1="279" x2="318" y2="283" />
<line x1="314" y1="287" x2="318" y2="283" />
<line x1="203" y1="297" x2="383" y2="297" />
<line x1="379" y1="293" x2="383" y2="297" />
<line x1="379" y1="301" x2="383" y2="297" />
<polygon points="" style="fill:#f5f5ff" />
<polygon points="23,53 23,53 23,87 23,87 23,101 23,101 23,152 23,152 23,166 23,166 23,214 23,214 23,228 23,228 23,304 23,304 23,304 23,304 23,228 23,228 23,214 23,214 23,166 23,166 23,152 23,152 23,101 23,101 23,87 23,87 23,53 23,53 " style="fill:#f5f5ff" />
</g>
<g font-size="10.000000" stroke="none">
<text x="7" y="25">World</text>
<text x="25" y="32">Location</text>
<text x="25" y="46">move</text>
<text x="72" y="62">Location</text>
<text x="72" y="76">setPosition</text>
<text x="25" y="94">follows</text>
<text x="142" y="110">getLocation</text>
<text x="72" y="124">Location</text>
<text x="205" y="141">move</text>
<text x="25" y="159">showLocation</text>
<text x="142" y="175">getLocationString</text>
<text x="242" y="189">c_str</text>
<text x="242" y="203">printf</text>
<text x="25" y="221">showLocation</text>
<text x="142" y="237">getLocationString</text>
<text x="205" y="251">c_str</text>
<text x="142" y="265">getLocationString</text>
<text x="205" y="279">c_str</text>
<text x="205" y="293">printf</text>
</g>
<g  fill="#f5f5ff" stroke="#000000" style="stroke-width:1">
<line x1="23" y1="16" x2="23" y2="311" />
<line x1="70" y1="16" x2="70" y2="311" />
<line x1="140" y1="16" x2="140" y2="311" />
<line x1="203" y1="16" x2="203" y2="311" />
<line x1="240" y1="16" x2="240" y2="311" />
<line x1="318" y1="16" x2="318" y2="311" />
<line x1="383" y1="16" x2="383" y2="311" />
</g>
</svg>