<svg xmlns="http://www.w3.org/2000/svg" version="1.1" width="488" height="357">
<g  fill="#f5f5ff" stroke="rgb(0,0,0)" style="stroke-width:1">
<rect x="13" y="213" width="133" height="143" />
<line x1="13" y1="226" x2="146" y2="226" />
<polygon points="126,234 138,239 138,229 126,234 " style="fill:#ffffff" />
<polygon points="126,248 133,252 140,248 133,244 126,248 " style="fill:#ffffff" />
<polygon points="126,262 133,266 140,262 133,258 126,262 " style="fill:#000000" />
<polygon points="126,276 134,281 130,276 134,271 126,276 " style="fill:#ffffff" />
<circle cx="126" cy="290" r="5" style="fill:#ffffff" />
<circle cx="126" cy="304" r="5" style="fill:#ffffff" />
<circle cx="133" cy="304" r="2" style="fill:#ffffff" />
<circle cx="126" cy="318" r="5" style="fill:#ffffff" />
<circle cx="126" cy="318" r="2" style="fill:#ffffff" />
<circle cx="126" cy="332" r="5" style="fill:#ffffff" />
<circle cx="126" cy="332" r="2" style="fill:#000000" />
<circle cx="126" cy="346" r="5" style="fill:#000000" />
<circle cx="126" cy="346" r="2" style="fill:#000000" />
</g>
<g font-size="10.000000">
<text x="14" y="222">Relations Key</text>
<text x="14" y="236">Generalization</text>
<text x="14" y="250">Aggregation(reference)</text>
<text x="14" y="264">Composition(owned)</text>
<text x="14" y="278">Const</text>
<text x="14" y="292">Method Variable</text>
<text x="14" y="306">Method Parameter</text>
<text x="14" y="320">Public</text>
<text x="14" y="334">Protected</text>
<text x="14" y="348">Private</text>
</g>
<g  fill="#f5f5ff" stroke="rgb(0,0,0)" style="stroke-width:1">
<rect x="20" y="133" width="81" height="44" />
<line x1="20" y1="154" x2="101" y2="154" />
<line x1="20" y1="166" x2="101" y2="166" />
</g>
<g font-size="10.000000">
<text x="21" y="142">Mary</text>
<text x="21" y="151">/simple/</text>
<text x="21" y="163">+Lamb lamb</text>
<text x="21" y="175">+showLocation()</text>
</g>
<g  fill="#f5f5ff" stroke="rgb(0,0,0)" style="stroke-width:1">
<rect x="168" y="161" width="129" height="62" />
<line x1="168" y1="182" x2="297" y2="182" />
<line x1="168" y1="194" x2="297" y2="194" />
</g>
<g font-size="10.000000">
<text x="169" y="170">Lamb</text>
<text x="169" y="179">/simple/</text>
<text x="169" y="191">+MoveableThing mFleece</text>
<text x="169" y="203">+move(Location loc)</text>
<text x="169" y="212">+follows(Mammal leader)</text>
<text x="169" y="221">+showLocation()</text>
</g>
<g  fill="#f5f5ff" stroke="rgb(0,0,0)" style="stroke-width:1">
<rect x="205" y="19" width="101" height="62" />
<line x1="205" y1="40" x2="306" y2="40" />
<line x1="205" y1="52" x2="306" y2="52" />
</g>
<g font-size="10.000000">
<text x="206" y="28">MoveableThing</text>
<text x="206" y="37">/simple/</text>
<text x="206" y="49">-Location mLocation</text>
<text x="206" y="61">+move(Location loc)</text>
<text x="206" y="70">+getLocation()</text>
<text x="206" y="79">+getLocationString()</text>
</g>
<g  fill="#f5f5ff" stroke="rgb(0,0,0)" style="stroke-width:1">
<rect x="94" y="44" width="45" height="26" />
<line x1="94" y1="65" x2="139" y2="65" />
<line x1="94" y1="68" x2="139" y2="68" />
</g>
<g font-size="10.000000">
<text x="95" y="53">Mammal</text>
<text x="95" y="62">/simple/</text>
</g>
<g  fill="#f5f5ff" stroke="rgb(0,0,0)" style="stroke-width:1">
<rect x="361" y="96" width="126" height="71" />
<line x1="361" y1="117" x2="487" y2="117" />
<line x1="361" y1="138" x2="487" y2="138" />
</g>
<g font-size="10.000000">
<text x="362" y="105">Location</text>
<text x="362" y="114">/simple/</text>
<text x="362" y="126">-int mX</text>
<text x="362" y="135">-int mY</text>
<text x="362" y="147">+setPosition(Location loc)</text>
<text x="362" y="156">+getLocationString()</text>
<text x="362" y="165">+Location(int x, int y)</text>
</g>
<g  fill="#f5f5ff" stroke="rgb(0,0,0)" style="stroke-width:1">
<rect x="12" y="11" width="57" height="44" />
<line x1="12" y1="32" x2="69" y2="32" />
<line x1="12" y1="44" x2="69" y2="44" />
</g>
<g font-size="10.000000">
<text x="13" y="20">World</text>
<text x="13" y="29">/simple/</text>
<text x="13" y="41">-Mary mary</text>
<text x="13" y="53">+World()</text>
</g>
<g  fill="#f5f5ff" stroke="rgb(0,0,0)" style="stroke-width:1">
<line x1="100" y1="163" x2="168" y2="179" />
<circle cx="129" cy="169" r="5" style="fill:#ffffff" />
<circle cx="129" cy="169" r="2" style="fill:#ffffff" />
<polygon points="100,163 106,169 113,166 108,161 100,163 " style="fill:#000000" />
<line x1="72" y1="133" x2="109" y2="70" />
<circle cx="93" cy="95" r="5" style="fill:#ffffff" />
<circle cx="93" cy="95" r="2" style="fill:#ffffff" />
<polygon points="109,70 98,78 108,83 109,70 " style="fill:#ffffff" />
<line x1="57" y1="133" x2="43" y2="55" />
<circle cx="48" cy="84" r="5" style="fill:#000000" />
<circle cx="48" cy="84" r="2" style="fill:#000000" />
<polygon points="43,55 40,63 45,68 48,61 43,55 " style="fill:#000000" />
<line x1="237" y1="161" x2="250" y2="81" />
<circle cx="241" cy="131" r="5" style="fill:#ffffff" />
<circle cx="241" cy="131" r="2" style="fill:#ffffff" />
<polygon points="237,161 242,155 239,148 234,153 237,161 " style="fill:#000000" />
<line x1="206" y1="161" x2="127" y2="70" />
<polygon points="206,161 206,152 204,158 197,159 206,161 " style="fill:#ffffff" />
<circle cx="196" cy="150" r="5" style="fill:#ffffff" />
<circle cx="192" cy="145" r="2" style="fill:#ffffff" />
<circle cx="146" cy="92" r="5" style="fill:#ffffff" />
<circle cx="146" cy="92" r="2" style="fill:#ffffff" />
<polygon points="127,70 131,83 139,76 127,70 " style="fill:#ffffff" />
<line x1="296" y1="172" x2="361" y2="151" />
<circle cx="309" cy="167" r="5" style="fill:#ffffff" />
<circle cx="315" cy="165" r="2" style="fill:#ffffff" />
<line x1="205" y1="52" x2="138" y2="56" />
<circle cx="175" cy="53" r="5" style="fill:#ffffff" />
<circle cx="175" cy="53" r="2" style="fill:#ffffff" />
<polygon points="205,52 192,48 193,58 205,52 " style="fill:#ffffff" />
<line x1="305" y1="73" x2="361" y2="101" />
<circle cx="317" cy="79" r="5" style="fill:#ffffff" />
<circle cx="331" cy="86" r="5" style="fill:#000000" />
<circle cx="331" cy="86" r="2" style="fill:#000000" />
<polygon points="305,73 309,80 317,79 313,73 305,73 " style="fill:#000000" />
</g>
</svg>