<svg xmlns="http://www.w3.org/2000/svg" version="1.1" width="324" height="104">
<g  fill="#f5f5ff" stroke="rgb(0,0,0)" style="stroke-width:1">
<rect x="7" y="71" width="85" height="32" />
<rect x="1" y="77" width="12" height="6" />
<rect x="1" y="89" width="12" height="6" />
</g>
<g font-size="10.000000">
<text x="15" y="85">kingdom</text>
<text x="15" y="99">&lt;&lt;Program&gt;&gt;</text>
</g>
<g  fill="#f5f5ff" stroke="rgb(0,0,0)" style="stroke-width:1">
<rect x="114" y="71" width="95" height="32" />
<rect x="108" y="77" width="12" height="6" />
<rect x="108" y="89" width="12" height="6" />
</g>
<g font-size="10.000000">
<text x="122" y="85">resources/horses</text>
<text x="122" y="99">&lt;&lt;SharedLib&gt;&gt;</text>
</g>
<g  fill="#f5f5ff" stroke="rgb(0,0,0)" style="stroke-width:1">
<rect x="231" y="71" width="92" height="32" />
<rect x="225" y="77" width="12" height="6" />
<rect x="225" y="89" width="12" height="6" />
</g>
<g font-size="10.000000">
<text x="239" y="85">resources/men</text>
<text x="239" y="99">&lt;&lt;SharedLib&gt;&gt;</text>
</g>
<g  fill="#f5f5ff" stroke="rgb(0,0,0)" style="stroke-width:1">
<rect x="69" y="0" width="84" height="32" />
<rect x="63" y="6" width="12" height="6" />
<rect x="63" y="18" width="12" height="6" />
</g>
<g font-size="10.000000">
<text x="77" y="14">gtk+-3.0</text>
<text x="77" y="28">&lt;&lt;External&gt;&gt;</text>
</g>
<g  fill="#f5f5ff" stroke="rgb(0,0,0)" style="stroke-width:1">
<rect x="175" y="0" width="84" height="32" />
<rect x="169" y="6" width="12" height="6" />
<rect x="169" y="18" width="12" height="6" />
</g>
<g font-size="10.000000">
<text x="183" y="14">gmodule-2.0</text>
<text x="183" y="28">&lt;&lt;External&gt;&gt;</text>
</g>
<g  fill="#f5f5ff" stroke="rgb(0,0,0)" style="stroke-width:1">
<line x1="95" y1="32" x2="59" y2="71" style="stroke-dasharray: 4, 4 "/>
<line x1="95" y1="32" x2="94" y2="41" />
<line x1="95" y1="32" x2="86" y2="33" />
</g>
<g  fill="#f5f5ff" stroke="rgb(0,0,0)" style="stroke-width:1">
<line x1="177" y1="32" x2="83" y2="71" style="stroke-dasharray: 4, 4 "/>
<line x1="177" y1="32" x2="172" y2="40" />
<line x1="177" y1="32" x2="168" y2="30" />
</g>
<g  fill="#f5f5ff" stroke="rgb(0,0,0)" style="stroke-width:1">
<line x1="119" y1="32" x2="147" y2="71" style="stroke-dasharray: 4, 4 "/>
<line x1="119" y1="32" x2="128" y2="35" />
<line x1="119" y1="32" x2="119" y2="41" />
</g>
<g  fill="#f5f5ff" stroke="rgb(0,0,0)" style="stroke-width:1">
<line x1="202" y1="32" x2="170" y2="71" style="stroke-dasharray: 4, 4 "/>
<line x1="202" y1="32" x2="202" y2="41" />
<line x1="202" y1="32" x2="193" y2="34" />
</g>
<g  fill="#f5f5ff" stroke="rgb(0,0,0)" style="stroke-width:1">
<line x1="145" y1="32" x2="237" y2="71" style="stroke-dasharray: 4, 4 "/>
<line x1="145" y1="32" x2="154" y2="30" />
<line x1="145" y1="32" x2="150" y2="40" />
</g>
<g  fill="#f5f5ff" stroke="rgb(0,0,0)" style="stroke-width:1">
<line x1="227" y1="32" x2="261" y2="71" style="stroke-dasharray: 4, 4 "/>
<line x1="227" y1="32" x2="236" y2="34" />
<line x1="227" y1="32" x2="227" y2="41" />
</g>
</svg>