<svg xmlns="http://www.w3.org/2000/svg" version="1.1"
  font-family="Arial, Helvetica, sans-serif" font-size="10.000000" 
  width="437" height="98">
<g  fill="#f5fff5" stroke="#000000" style="stroke-width:1">
<rect x="16" y="17" width="174" height="80" />
<line x1="16" y1="38" x2="190" y2="38" />
<line x1="16" y1="41" x2="190" y2="41" />
</g>
<g stroke="none">
<text x="17" y="26">Universe::Movies::Star</text>
<text x="17" y="35">examples/names</text>
<text x="17" y="50">+whatAreYou()</text>
<text x="17" y="59">+haveTwinkle()</text>
<text x="17" y="68">+performInScene(Universe::Movies::</text>
<text x="24" y="77">Movie movie)</text>
<text x="17" y="86">+watchScene(Universe::Movies::</text>
<text x="24" y="95">ReleasedMovie movie)</text>
</g>
<g stroke="none" font-style="italic">
</g>
<g  fill="#f5fff5" stroke="#000000" style="stroke-width:1">
<rect x="275" y="22" width="117" height="26" />
<line x1="275" y1="43" x2="392" y2="43" />
<line x1="275" y1="46" x2="392" y2="46" />
</g>
<g stroke="none">
<text x="276" y="31">Universe::Movies::Movie</text>
<text x="276" y="40">examples/names</text>
</g>
<g stroke="none" font-style="italic">
</g>
<g  fill="#f5fff5" stroke="#000000" style="stroke-width:1">
<rect x="275" y="68" width="161" height="26" />
<line x1="275" y1="89" x2="436" y2="89" />
<line x1="275" y1="92" x2="436" y2="92" />
</g>
<g stroke="none">
<text x="276" y="77">Universe::Movies::ReleasedMovie</text>
<text x="276" y="86">examples/names</text>
</g>
<g stroke="none" font-style="italic">
</g>
<g  fill="#f5f5ff" stroke="#000000" style="stroke-width:1">
<line x1="190" y1="49" x2="275" y2="40" />
<circle cx="203" cy="47" r="5" style="fill:#ffffff" />
<circle cx="210" cy="46" r="2" style="fill:#ffffff" />
<line x1="190" y1="65" x2="275" y2="74" />
<polygon points="190,65 197,71 193,65 198,61 190,65 " style="fill:#ffffff" />
<circle cx="203" cy="66" r="5" style="fill:#ffffff" />
<circle cx="210" cy="67" r="2" style="fill:#ffffff" />
</g>
</svg>