<svg xmlns="http://www.w3.org/2000/svg" version="1.1"
  font-family="Arial, Helvetica, sans-serif" font-size="10.000000" 
  width="435" height="174">
<g  fill="#f5fff5" stroke="#000000" style="stroke-width:1">
<rect x="17" y="31" width="236" height="62" />
<line x1="17" y1="52" x2="253" y2="52" />
<line x1="17" y1="91" x2="253" y2="91" />
</g>
<g stroke="none">
<text x="18" y="40">Universe::Movies::MoneyMakingStudio</text>
<text x="18" y="49">examples/names</text>
<text x="18" y="61">+Universe::Movies::ReleasedMovie mGoodMovie</text>
<text x="18" y="70">#Universe::Movies::InProductionMovie </text>
<text x="25" y="79">mFutureGoodMovie</text>
<text x="18" y="88">-Universe::Movies::Movie mBadMovie</text>
</g>
<g stroke="none" font-style="italic">
</g>
<g  fill="#f5fff5" stroke="#000000" style="stroke-width:1">
<rect x="45" y="147" width="161" height="26" />
<line x1="45" y1="168" x2="206" y2="168" />
<line x1="45" y1="171" x2="206" y2="171" />
</g>
<g stroke="none">
<text x="46" y="156">Universe::Movies::ReleasedMovie</text>
<text x="46" y="165">examples/names</text>
</g>
<g stroke="none" font-style="italic">
</g>
<g  fill="#f5fff5" stroke="#000000" style="stroke-width:1">
<rect x="257" y="147" width="177" height="26" />
<line x1="257" y1="168" x2="434" y2="168" />
<line x1="257" y1="171" x2="434" y2="171" />
</g>
<g stroke="none">
<text x="258" y="156">Universe::Movies::InProductionMovie</text>
<text x="258" y="165">examples/names</text>
</g>
<g stroke="none" font-style="italic">
</g>
<g  fill="#f5fff5" stroke="#000000" style="stroke-width:1">
<rect x="317" y="49" width="117" height="26" />
<line x1="317" y1="70" x2="434" y2="70" />
<line x1="317" y1="73" x2="434" y2="73" />
</g>
<g stroke="none">
<text x="318" y="58">Universe::Movies::Movie</text>
<text x="318" y="67">examples/names</text>
</g>
<g stroke="none" font-style="italic">
</g>
<g  fill="#f5f5ff" stroke="#000000" style="stroke-width:1">
<line x1="132" y1="93" x2="126" y2="147" />
<circle cx="128" cy="122" r="5" style="fill:#ffffff" />
<circle cx="128" cy="122" r="2" style="fill:#ffffff" />
<polygon points="132,93 127,100 131,106 135,101 132,93 " style="fill:#000000" />
<line x1="201" y1="93" x2="318" y2="147" />
<circle cx="228" cy="105" r="5" style="fill:#ffffff" />
<circle cx="228" cy="105" r="2" style="fill:#000000" />
<polygon points="201,93 206,100 213,98 209,93 201,93 " style="fill:#000000" />
<line x1="253" y1="62" x2="317" y2="62" />
<circle cx="283" cy="62" r="5" style="fill:#000000" />
<circle cx="283" cy="62" r="2" style="fill:#000000" />
<polygon points="253,62 260,66 267,62 260,58 253,62 " style="fill:#000000" />
<line x1="348" y1="147" x2="372" y2="75" />
<circle cx="362" cy="103" r="5" style="fill:#ffffff" />
<circle cx="362" cy="103" r="2" style="fill:#ffffff" />
<polygon points="372,75 363,85 372,88 372,75 " style="fill:#ffffff" />
</g>
</svg>