<?xml version="1.0" encoding="UTF-8" standalone="no"?>
<svg
   xmlns:dc="http://purl.org/dc/elements/1.1/"
   xmlns:cc="http://creativecommons.org/ns#"
   xmlns:rdf="http://www.w3.org/1999/02/22-rdf-syntax-ns#"
   xmlns:svg="http://www.w3.org/2000/svg"
   xmlns="http://www.w3.org/2000/svg"
   xmlns:sodipodi="http://sodipodi.sourceforge.net/DTD/sodipodi-0.dtd"
   xmlns:inkscape="http://www.inkscape.org/namespaces/inkscape"
   version="1.1"
   width="644"
   height="277"
   id="svg2"
   inkscape:version="0.48.1 "
   sodipodi:docname="PortionParserModelData.svg">
  <metadata
     id="metadata158">
    <rdf:RDF>
      <cc:Work
         rdf:about="">
        <dc:format>image/svg+xml</dc:format>
        <dc:type
           rdf:resource="http://purl.org/dc/dcmitype/StillImage" />
      </cc:Work>
    </rdf:RDF>
  </metadata>
  <defs
     id="defs156" />
  <sodipodi:namedview
     pagecolor="#ffffff"
     bordercolor="#666666"
     borderopacity="1"
     objecttolerance="10"
     gridtolerance="10"
     guidetolerance="10"
     inkscape:pageopacity="0"
     inkscape:pageshadow="2"
     inkscape:window-width="993"
     inkscape:window-height="863"
     id="namedview154"
     showgrid="false"
     inkscape:zoom="1.1199517"
     inkscape:cx="322"
     inkscape:cy="138.5"
     inkscape:window-x="345"
     inkscape:window-y="192"
     inkscape:window-maximized="0"
     inkscape:current-layer="g4" />
  <g
     fill="#f5f5ff"
     stroke="#000000"
     style="stroke-width:1"
     id="g4">
    <ellipse
       cx="255"
       cy="216"
       rx="45"
       ry="5"
       id="ellipse6" />
    <ellipse
       cx="255"
       cy="245"
       rx="44"
       ry="7"
       id="ellipse8" />
    <ellipse
       cx="261"
       cy="64"
       rx="51"
       ry="5"
       id="ellipse10" />
    <ellipse
       cx="575"
       cy="131"
       rx="63"
       ry="7"
       id="ellipse12" />
    <ellipse
       cx="273"
       cy="37"
       rx="63"
       ry="7"
       id="ellipse14" />
    <ellipse
       cx="273"
       cy="10"
       rx="63"
       ry="7"
       id="ellipse16" />
    <ellipse
       cx="419"
       cy="101"
       rx="51"
       ry="7"
       id="ellipse18" />
    <ellipse
       cx="248"
       cy="194"
       rx="38"
       ry="5"
       id="ellipse20" />
    <ellipse
       cx="243"
       cy="173"
       rx="32"
       ry="5"
       id="ellipse22" />
    <ellipse
       cx="239"
       cy="266"
       rx="29"
       ry="5"
       id="ellipse24" />
    <rect
       x="20"
       y="168"
       width="66"
       height="11"
       id="rect26" />
    <g
       fill="#f5f5ff"
       stroke="#53377a"
       style="stroke-width:1"
       id="g30">
      <line
         x1="86"
         y1="173"
         x2="210"
         y2="216"
         id="line32" />
      <line
         x1="86"
         y1="173"
         x2="95"
         y2="171"
         id="line34" />
      <line
         x1="86"
         y1="173"
         x2="91"
         y2="181"
         id="line36" />
      <line
         x1="86"
         y1="173"
         x2="211"
         y2="245"
         id="line38" />
      <line
         x1="86"
         y1="173"
         x2="95"
         y2="172"
         id="line40" />
      <line
         x1="86"
         y1="173"
         x2="90"
         y2="182"
         id="line42" />
      <line
         x1="86"
         y1="173"
         x2="210"
         y2="64"
         id="line44" />
      <line
         x1="86"
         y1="173"
         x2="88"
         y2="164"
         id="line46" />
      <line
         x1="86"
         y1="173"
         x2="95"
         y2="173"
         id="line48" />
      <line
         x1="86"
         y1="173"
         x2="512"
         y2="131"
         id="line50" />
      <line
         x1="86"
         y1="173"
         x2="93"
         y2="167"
         id="line52" />
      <line
         x1="86"
         y1="173"
         x2="94"
         y2="178"
         id="line54" />
      <line
         x1="86"
         y1="173"
         x2="210"
         y2="37"
         id="line56" />
      <line
         x1="86"
         y1="173"
         x2="87"
         y2="164"
         id="line58" />
      <line
         x1="86"
         y1="173"
         x2="95"
         y2="171"
         id="line60" />
      <line
         x1="86"
         y1="173"
         x2="210"
         y2="37"
         id="line62" />
      <line
         x1="86"
         y1="173"
         x2="87"
         y2="164"
         id="line64" />
      <line
         x1="86"
         y1="173"
         x2="95"
         y2="171"
         id="line66" />
      <line
         x1="86"
         y1="173"
         x2="368"
         y2="101"
         id="line68" />
      <line
         x1="86"
         y1="173"
         x2="92"
         y2="166"
         id="line70" />
      <line
         x1="86"
         y1="173"
         x2="95"
         y2="176"
         id="line72" />
      <line
         x1="86"
         y1="173"
         x2="210"
         y2="194"
         id="line74" />
      <line
         x1="86"
         y1="173"
         x2="94"
         y2="169"
         id="line76" />
      <line
         x1="86"
         y1="173"
         x2="92"
         y2="180"
         id="line78" />
      <line
         x1="86"
         y1="173"
         x2="211"
         y2="173"
         id="line80" />
      <line
         x1="86"
         y1="173"
         x2="94"
         y2="168"
         id="line82" />
      <line
         x1="86"
         y1="173"
         x2="94"
         y2="178"
         id="line84" />
      <line
         x1="86"
         y1="173"
         x2="210"
         y2="266"
         id="line86" />
      <line
         x1="86"
         y1="173"
         x2="95"
         y2="173"
         id="line88" />
      <line
         x1="86"
         y1="173"
         x2="88"
         y2="182"
         id="line90" />
    </g>
    <g
       fill="#f5f5ff"
       stroke="#007d34"
       style="stroke-width:1"
       id="g112">
      <line
         x1="470"
         y1="101"
         x2="512"
         y2="131"
         id="line114" />
      <line
         x1="470"
         y1="101"
         x2="479"
         y2="101"
         id="line116" />
      <line
         x1="470"
         y1="101"
         x2="473"
         y2="110"
         id="line118" />
    </g>
    <g
       fill="#f5f5ff"
       stroke="#ff6800"
       style="stroke-width:1"
       id="g120">
      <line
         x1="312"
         y1="64"
         x2="368"
         y2="101"
         id="line122" />
      <line
         x1="312"
         y1="64"
         x2="321"
         y2="64"
         id="line124" />
      <line
         x1="312"
         y1="64"
         x2="315"
         y2="73"
         id="line126" />
    </g>
  </g>
  <text
     style="font-size:10px;stroke:none"
     id="text130"
     y="220"
     x="212">addParsedModule</text>
  <text
     style="font-size:10px;stroke:none"
     id="text132"
     y="247"
     x="213">getParsedModule</text>
  <text
     style="font-size:10px;stroke:none"
     id="text134"
     y="68"
     x="212">createOrGetClassRef</text>
  <text
     style="font-size:10px;stroke:none"
     id="text136"
     y="133"
     x="514">createOrGetBaseTypeRef</text>
  <text
     style="font-size:10px;stroke:none"
     id="text138"
     y="39"
     x="212">createOrGetDataTypeRef</text>
  <text
     style="font-size:10px;stroke:none"
     id="text140"
     y="12"
     x="212">createOrGetDataTypeRef</text>
  <text
     style="font-size:10px;stroke:none"
     id="text142"
     y="103"
     x="370">createOrGetTypedef</text>
  <text
     style="font-size:10px;stroke:none"
     id="text144"
     y="198"
     x="212">addAssociation</text>
  <text
     style="font-size:10px;stroke:none"
     id="text146"
     y="177"
     x="213">setLineStats</text>
  <text
     style="font-size:10px;stroke:none"
     id="text148"
     y="270"
     x="212">writeModel</text>
  <text
     style="font-size:10px;stroke:none"
     id="text150"
     y="177"
     x="22">mModelData</text>
</svg>
