<svg xmlns="http://www.w3.org/2000/svg" version="1.1"
 font-family="Arial, Helvetica, sans-serif" font-size="10.00" width="553" height="362">
<g  fill="#f5f5ff" stroke="#000000" style="stroke-width:1">
<rect x="20" y="153" width="67" height="14" />
<ellipse cx="192" cy="226" rx="46" ry="7" />
<ellipse cx="191" cy="196" rx="44" ry="7" />
<ellipse cx="199" cy="91" rx="52" ry="7" />
<ellipse cx="484" cy="110" rx="63" ry="7" />
<ellipse cx="209" cy="24" rx="63" ry="7" />
<ellipse cx="208" cy="57" rx="63" ry="7" />
<ellipse cx="339" cy="98" rx="51" ry="7" />
<ellipse cx="177" cy="291" rx="30" ry="7" />
<ellipse cx="184" cy="168" rx="38" ry="7" />
<ellipse cx="179" cy="258" rx="32" ry="7" />
<ellipse cx="175" cy="319" rx="29" ry="7" />
<ellipse cx="198" cy="350" rx="53" ry="7" />
</g>
<g  fill="#f5f5ff" stroke="#0000ff" style="stroke-width:1">
</g>
<g  fill="#f5f5ff" stroke="#000000" style="stroke-width:1">
<g  fill="#f5f5ff" stroke="#ffb300" style="stroke-width:1">
<line x1="86" y1="160" x2="146" y2="226" />
<line x1="86" y1="160" x2="95" y2="162" />
<line x1="86" y1="160" x2="87" y2="169" />
<line x1="86" y1="160" x2="147" y2="196" />
<line x1="86" y1="160" x2="95" y2="160" />
<line x1="86" y1="160" x2="89" y2="169" />
<line x1="86" y1="160" x2="147" y2="91" />
<line x1="86" y1="160" x2="86" y2="151" />
<line x1="86" y1="160" x2="95" y2="158" />
<line x1="86" y1="160" x2="421" y2="110" />
<line x1="86" y1="160" x2="93" y2="153" />
<line x1="86" y1="160" x2="94" y2="164" />
<line x1="86" y1="160" x2="146" y2="24" />
<line x1="86" y1="160" x2="84" y2="151" />
<line x1="86" y1="160" x2="94" y2="155" />
<line x1="86" y1="160" x2="145" y2="57" />
<line x1="86" y1="160" x2="85" y2="151" />
<line x1="86" y1="160" x2="95" y2="156" />
<line x1="86" y1="160" x2="288" y2="98" />
<line x1="86" y1="160" x2="92" y2="153" />
<line x1="86" y1="160" x2="95" y2="163" />
<line x1="86" y1="160" x2="147" y2="291" />
<line x1="86" y1="160" x2="94" y2="164" />
<line x1="86" y1="160" x2="85" y2="169" />
<line x1="86" y1="160" x2="146" y2="168" />
<line x1="86" y1="160" x2="94" y2="156" />
<line x1="86" y1="160" x2="93" y2="166" />
<line x1="86" y1="160" x2="147" y2="258" />
<line x1="86" y1="160" x2="95" y2="163" />
<line x1="86" y1="160" x2="86" y2="169" />
<line x1="86" y1="160" x2="146" y2="319" />
<line x1="86" y1="160" x2="94" y2="165" />
<line x1="86" y1="160" x2="84" y2="169" />
<line x1="86" y1="160" x2="145" y2="350" />
<line x1="86" y1="160" x2="94" y2="165" />
<line x1="86" y1="160" x2="83" y2="169" />
</g>
<g  fill="#f5f5ff" stroke="#f6768e" style="stroke-width:1">
<line x1="390" y1="98" x2="421" y2="110" />
<line x1="390" y1="98" x2="399" y2="96" />
<line x1="390" y1="98" x2="395" y2="106" />
</g>
<g  fill="#f5f5ff" stroke="#a6bdd7" style="stroke-width:1">
<line x1="251" y1="91" x2="288" y2="98" />
<line x1="251" y1="91" x2="260" y2="87" />
<line x1="251" y1="91" x2="257" y2="98" />
</g>
</g>
<g stroke="none">
<text x="22" y="162">mModelData</text>
<text x="148" y="228">addParsedModule</text>
<text x="149" y="198">getParsedModule</text>
<text x="149" y="93">createOrGetClassRef</text>
<text x="423" y="112">createOrGetBaseTypeRef</text>
<text x="148" y="26">createOrGetDataTypeRef</text>
<text x="147" y="59">createOrGetDataTypeRef</text>
<text x="290" y="100">createOrGetTypedef</text>
<text x="149" y="293">isBaseClass</text>
<text x="148" y="170">addAssociation</text>
<text x="149" y="260">setLineStats</text>
<text x="148" y="321">writeModel</text>
<text x="147" y="352">DebugGetModelData</text>
</g>
<g stroke="none" font-style="italic">
</g>
</svg>