<svg xmlns="http://www.w3.org/2000/svg" version="1.1" width="249" height="483">
<g  fill="#f5f5ff" stroke="#000000" style="stroke-width:1">
<rect x="17" y="199" width="76" height="14" />
<rect x="18" y="305" width="55" height="14" />
<ellipse cx="181" cy="174" rx="41" ry="7" />
<ellipse cx="169" cy="371" rx="30" ry="7" />
<ellipse cx="175" cy="283" rx="36" ry="7" />
<ellipse cx="170" cy="239" rx="31" ry="7" />
<ellipse cx="163" cy="80" rx="23" ry="7" />
<ellipse cx="164" cy="44" rx="23" ry="7" />
<ellipse cx="163" cy="471" rx="26" ry="7" />
<ellipse cx="178" cy="127" rx="39" ry="7" />
<ellipse cx="167" cy="329" rx="28" ry="5" />
<ellipse cx="191" cy="208" rx="53" ry="7" />
<ellipse cx="179" cy="422" rx="42" ry="7" />
<ellipse cx="58" cy="73" rx="40" ry="7" />
</g>
<g  fill="#f5f5ff" stroke="#0000ff" style="stroke-width:1">
<rect x="18" y="66" width="81" height="14" />
</g>
<g  fill="#f5f5ff" stroke="#000000" style="stroke-width:1">
<g  fill="#f5f5ff" stroke="#f4c800" style="stroke-width:1">
<line x1="98" y1="73" x2="140" y2="80" />
<line x1="98" y1="73" x2="106" y2="69" />
<line x1="98" y1="73" x2="105" y2="80" />
<line x1="98" y1="73" x2="139" y2="127" />
<line x1="98" y1="73" x2="107" y2="75" />
<line x1="98" y1="73" x2="98" y2="82" />
<line x1="58" y1="80" x2="167" y2="324" />
<line x1="58" y1="80" x2="66" y2="84" />
<line x1="58" y1="80" x2="56" y2="89" />
<line x1="58" y1="80" x2="167" y2="324" />
<line x1="58" y1="80" x2="66" y2="84" />
<line x1="58" y1="80" x2="56" y2="89" />
</g>
<g  fill="#f5f5ff" stroke="#ffb300" style="stroke-width:1">
<line x1="93" y1="206" x2="140" y2="174" />
<line x1="93" y1="206" x2="96" y2="197" />
<line x1="93" y1="206" x2="102" y2="206" />
<line x1="93" y1="206" x2="139" y2="283" />
<line x1="93" y1="206" x2="102" y2="209" />
<line x1="93" y1="206" x2="93" y2="215" />
<line x1="93" y1="206" x2="139" y2="239" />
<line x1="93" y1="206" x2="102" y2="206" />
<line x1="93" y1="206" x2="96" y2="215" />
<line x1="93" y1="206" x2="139" y2="127" />
<line x1="93" y1="206" x2="92" y2="197" />
<line x1="93" y1="206" x2="102" y2="202" />
<line x1="93" y1="206" x2="138" y2="208" />
<line x1="93" y1="206" x2="101" y2="201" />
<line x1="93" y1="206" x2="100" y2="212" />
</g>
<g  fill="#f5f5ff" stroke="#803e75" style="stroke-width:1">
<line x1="72" y1="312" x2="139" y2="371" />
<line x1="72" y1="312" x2="81" y2="312" />
<line x1="72" y1="312" x2="74" y2="321" />
<line x1="72" y1="312" x2="139" y2="283" />
<line x1="72" y1="312" x2="77" y2="304" />
<line x1="72" y1="312" x2="81" y2="314" />
<line x1="72" y1="312" x2="139" y2="239" />
<line x1="72" y1="312" x2="73" y2="303" />
<line x1="72" y1="312" x2="81" y2="311" />
<line x1="72" y1="312" x2="139" y2="329" />
<line x1="72" y1="312" x2="81" y2="309" />
<line x1="72" y1="312" x2="78" y2="319" />
<line x1="72" y1="312" x2="137" y2="422" />
<line x1="72" y1="312" x2="81" y2="315" />
<line x1="72" y1="312" x2="72" y2="321" />
</g>
</g>
<g font-size="10.000000" stroke="none">
<text x="19" y="208">mCompileArgs</text>
<text x="20" y="314">mLinkArgs</text>
<text x="142" y="176">getCompileArgs</text>
<text x="141" y="373">getLinkArgs</text>
<text x="141" y="285">loadFromMap</text>
<text x="141" y="241">saveToMap</text>
<text x="142" y="82">Package</text>
<text x="143" y="46">Package</text>
<text x="139" y="473">~Package</text>
<text x="141" y="129">setCompileInfo</text>
<text x="141" y="333">setLinkInfo</text>
<text x="140" y="210">getCompileArgsAsStr</text>
<text x="139" y="424">getLinkArgsAsStr</text>
<text x="20" y="75">RootDirPackage</text>
</g>
</svg>