<svg xmlns="http://www.w3.org/2000/svg" version="1.1" width="1030" height="605">
<g  fill="#f5f5ff" stroke="#000000" style="stroke-width:1">
<ellipse cx="265" cy="355" rx="15" ry="5" />
<ellipse cx="972" cy="375" rx="48" ry="5" />
<ellipse cx="321" cy="313" rx="75" ry="5" />
<ellipse cx="952" cy="322" rx="28" ry="5" />
<ellipse cx="977" cy="180" rx="53" ry="7" />
<ellipse cx="250" cy="511" rx="69" ry="5" />
<ellipse cx="315" cy="268" rx="69" ry="7" />
<ellipse cx="297" cy="181" rx="51" ry="5" />
<ellipse cx="741" cy="201" rx="63" ry="7" />
<ellipse cx="312" cy="232" rx="63" ry="7" />
<ellipse cx="310" cy="76" rx="63" ry="7" />
<ellipse cx="475" cy="293" rx="51" ry="7" />
<ellipse cx="519" cy="488" rx="47" ry="7" />
<ellipse cx="496" cy="164" rx="28" ry="5" />
<ellipse cx="287" cy="126" rx="41" ry="5" />
<ellipse cx="709" cy="395" rx="32" ry="7" />
<ellipse cx="287" cy="474" rx="38" ry="7" />
<ellipse cx="309" cy="572" rx="49" ry="5" />
<ellipse cx="229" cy="594" rx="46" ry="5" />
<ellipse cx="273" cy="407" rx="27" ry="7" />
<rect x="20" y="171" width="66" height="11" />
<rect x="20" y="419" width="75" height="14" />
<rect x="20" y="328" width="57" height="11" />
<rect x="20" y="78" width="62" height="14" />
<rect x="20" y="556" width="68" height="11" />
<rect x="20" y="519" width="86" height="11" />
<rect x="20" y="390" width="72" height="14" />
<rect x="20" y="450" width="109" height="11" />
<rect x="19" y="481" width="66" height="14" />
<rect x="22" y="594" width="126" height="11" />
<g  fill="#f5f5ff" stroke="#803e75" style="stroke-width:1">
<line x1="86" y1="176" x2="250" y2="355" />
<line x1="86" y1="176" x2="95" y2="177" />
<line x1="86" y1="176" x2="87" y2="185" />
<line x1="86" y1="176" x2="924" y2="375" />
<line x1="86" y1="176" x2="95" y2="173" />
<line x1="86" y1="176" x2="92" y2="183" />
<line x1="86" y1="176" x2="924" y2="322" />
<line x1="86" y1="176" x2="94" y2="172" />
<line x1="86" y1="176" x2="92" y2="183" />
<line x1="86" y1="176" x2="246" y2="181" />
<line x1="86" y1="176" x2="94" y2="171" />
<line x1="86" y1="176" x2="93" y2="182" />
<line x1="86" y1="176" x2="678" y2="201" />
<line x1="86" y1="176" x2="94" y2="171" />
<line x1="86" y1="176" x2="93" y2="182" />
<line x1="86" y1="176" x2="249" y2="232" />
<line x1="86" y1="176" x2="95" y2="174" />
<line x1="86" y1="176" x2="91" y2="184" />
<line x1="86" y1="176" x2="249" y2="232" />
<line x1="86" y1="176" x2="95" y2="174" />
<line x1="86" y1="176" x2="91" y2="184" />
<line x1="86" y1="176" x2="424" y2="293" />
<line x1="86" y1="176" x2="95" y2="174" />
<line x1="86" y1="176" x2="91" y2="184" />
<line x1="86" y1="176" x2="246" y2="126" />
<line x1="86" y1="176" x2="91" y2="168" />
<line x1="86" y1="176" x2="95" y2="179" />
<line x1="86" y1="176" x2="677" y2="395" />
<line x1="86" y1="176" x2="95" y2="174" />
<line x1="86" y1="176" x2="91" y2="184" />
</g>
<g  fill="#f5f5ff" stroke="#ff6800" style="stroke-width:1">
<line x1="94" y1="426" x2="250" y2="355" />
<line x1="94" y1="426" x2="98" y2="418" />
<line x1="94" y1="426" x2="103" y2="427" />
<line x1="94" y1="426" x2="246" y2="268" />
<line x1="94" y1="426" x2="95" y2="417" />
<line x1="94" y1="426" x2="103" y2="425" />
<line x1="94" y1="426" x2="472" y2="488" />
<line x1="94" y1="426" x2="102" y2="422" />
<line x1="94" y1="426" x2="101" y2="433" />
</g>
<g  fill="#f5f5ff" stroke="#a6bdd7" style="stroke-width:1">
<line x1="76" y1="333" x2="924" y2="375" />
<line x1="76" y1="333" x2="84" y2="328" />
<line x1="76" y1="333" x2="83" y2="339" />
<line x1="76" y1="333" x2="924" y2="322" />
<line x1="76" y1="333" x2="84" y2="328" />
<line x1="76" y1="333" x2="84" y2="338" />
<line x1="76" y1="333" x2="468" y2="164" />
<line x1="76" y1="333" x2="81" y2="325" />
<line x1="76" y1="333" x2="85" y2="335" />
<line x1="76" y1="333" x2="246" y2="407" />
<line x1="76" y1="333" x2="85" y2="331" />
<line x1="76" y1="333" x2="81" y2="341" />
</g>
<g  fill="#f5f5ff" stroke="#cea262" style="stroke-width:1">
<line x1="82" y1="85" x2="924" y2="375" />
<line x1="82" y1="85" x2="91" y2="83" />
<line x1="82" y1="85" x2="87" y2="93" />
<line x1="82" y1="85" x2="924" y2="322" />
<line x1="82" y1="85" x2="91" y2="82" />
<line x1="82" y1="85" x2="88" y2="92" />
<line x1="82" y1="85" x2="924" y2="180" />
<line x1="82" y1="85" x2="90" y2="81" />
<line x1="82" y1="85" x2="89" y2="91" />
<line x1="51" y1="92" x2="250" y2="506" />
<line x1="51" y1="92" x2="59" y2="96" />
<line x1="51" y1="92" x2="50" y2="101" />
<line x1="82" y1="85" x2="472" y2="488" />
<line x1="82" y1="85" x2="91" y2="86" />
<line x1="82" y1="85" x2="83" y2="94" />
<line x1="51" y1="92" x2="273" y2="400" />
<line x1="51" y1="92" x2="60" y2="95" />
<line x1="51" y1="92" x2="51" y2="101" />
</g>
<g  fill="#f5f5ff" stroke="#817066" style="stroke-width:1">
<line x1="88" y1="561" x2="181" y2="511" />
<line x1="88" y1="561" x2="92" y2="552" />
<line x1="88" y1="561" x2="97" y2="562" />
<line x1="88" y1="561" x2="472" y2="488" />
<line x1="88" y1="561" x2="94" y2="554" />
<line x1="88" y1="561" x2="97" y2="565" />
<line x1="88" y1="561" x2="260" y2="572" />
<line x1="88" y1="561" x2="96" y2="556" />
<line x1="88" y1="561" x2="95" y2="567" />
<line x1="88" y1="561" x2="183" y2="594" />
<line x1="88" y1="561" x2="97" y2="559" />
<line x1="88" y1="561" x2="93" y2="569" />
<line x1="88" y1="561" x2="246" y2="407" />
<line x1="88" y1="561" x2="89" y2="552" />
<line x1="88" y1="561" x2="97" y2="560" />
</g>
<g  fill="#f5f5ff" stroke="#007d34" style="stroke-width:1">
<line x1="106" y1="524" x2="181" y2="511" />
<line x1="106" y1="524" x2="112" y2="517" />
<line x1="106" y1="524" x2="114" y2="528" />
<line x1="106" y1="524" x2="249" y2="474" />
<line x1="106" y1="524" x2="111" y2="516" />
<line x1="106" y1="524" x2="115" y2="526" />
</g>
<g  fill="#f5f5ff" stroke="#f6768e" style="stroke-width:1">
<line x1="92" y1="397" x2="250" y2="355" />
<line x1="92" y1="397" x2="98" y2="390" />
<line x1="92" y1="397" x2="101" y2="400" />
<line x1="92" y1="397" x2="924" y2="375" />
<line x1="92" y1="397" x2="99" y2="391" />
<line x1="92" y1="397" x2="100" y2="402" />
<line x1="92" y1="397" x2="924" y2="322" />
<line x1="92" y1="397" x2="99" y2="391" />
<line x1="92" y1="397" x2="100" y2="402" />
<line x1="92" y1="397" x2="472" y2="488" />
<line x1="92" y1="397" x2="101" y2="394" />
<line x1="92" y1="397" x2="98" y2="404" />
<line x1="56" y1="390" x2="287" y2="131" />
<line x1="56" y1="390" x2="56" y2="381" />
<line x1="56" y1="390" x2="65" y2="388" />
</g>
<g  fill="#f5f5ff" stroke="#00538a" style="stroke-width:1">
<line x1="128" y1="455" x2="924" y2="322" />
<line x1="128" y1="455" x2="135" y2="448" />
<line x1="128" y1="455" x2="136" y2="459" />
<line x1="128" y1="455" x2="468" y2="164" />
<line x1="128" y1="455" x2="130" y2="446" />
<line x1="128" y1="455" x2="137" y2="455" />
</g>
<g  fill="#f5f5ff" stroke="#ff7a5c" style="stroke-width:1">
<line x1="85" y1="488" x2="250" y2="355" />
<line x1="85" y1="488" x2="87" y2="479" />
<line x1="85" y1="488" x2="94" y2="488" />
<line x1="85" y1="488" x2="246" y2="313" />
<line x1="85" y1="488" x2="86" y2="479" />
<line x1="85" y1="488" x2="94" y2="487" />
</g>
<g  fill="#f5f5ff" stroke="#53377a" style="stroke-width:1">
<line x1="85" y1="594" x2="273" y2="414" />
<line x1="85" y1="594" x2="86" y2="585" />
<line x1="85" y1="594" x2="94" y2="593" />
</g>
<g  fill="#f5f5ff" stroke="#f4c800" style="stroke-width:1">
<line x1="524" y1="164" x2="924" y2="375" />
<line x1="524" y1="164" x2="533" y2="163" />
<line x1="524" y1="164" x2="528" y2="172" />
<line x1="524" y1="164" x2="924" y2="375" />
<line x1="524" y1="164" x2="533" y2="163" />
<line x1="524" y1="164" x2="528" y2="172" />
<line x1="524" y1="164" x2="924" y2="375" />
<line x1="524" y1="164" x2="533" y2="163" />
<line x1="524" y1="164" x2="528" y2="172" />
</g>
<g  fill="#f5f5ff" stroke="#93aa00" style="stroke-width:1">
<line x1="741" y1="395" x2="924" y2="375" />
<line x1="741" y1="395" x2="748" y2="389" />
<line x1="741" y1="395" x2="749" y2="399" />
</g>
<g  fill="#f5f5ff" stroke="#f6768e" style="stroke-width:1">
<line x1="348" y1="181" x2="924" y2="375" />
<line x1="348" y1="181" x2="357" y2="179" />
<line x1="348" y1="181" x2="353" y2="189" />
</g>
<g  fill="#f5f5ff" stroke="#b32851" style="stroke-width:1">
<line x1="566" y1="488" x2="924" y2="375" />
<line x1="566" y1="488" x2="571" y2="480" />
<line x1="566" y1="488" x2="575" y2="491" />
</g>
<g  fill="#f5f5ff" stroke="#ff7a5c" style="stroke-width:1">
<line x1="375" y1="232" x2="924" y2="322" />
<line x1="375" y1="232" x2="383" y2="228" />
<line x1="375" y1="232" x2="382" y2="239" />
<line x1="375" y1="232" x2="924" y2="322" />
<line x1="375" y1="232" x2="383" y2="228" />
<line x1="375" y1="232" x2="382" y2="239" />
</g>
<g  fill="#f5f5ff" stroke="#b32851" style="stroke-width:1">
<line x1="566" y1="488" x2="924" y2="322" />
<line x1="566" y1="488" x2="570" y2="480" />
<line x1="566" y1="488" x2="575" y2="489" />
</g>
<g  fill="#f5f5ff" stroke="#00538a" style="stroke-width:1">
<line x1="804" y1="201" x2="924" y2="322" />
<line x1="804" y1="201" x2="813" y2="202" />
<line x1="804" y1="201" x2="805" y2="210" />
<line x1="804" y1="201" x2="924" y2="180" />
<line x1="804" y1="201" x2="810" y2="194" />
<line x1="804" y1="201" x2="812" y2="205" />
</g>
<g  fill="#f5f5ff" stroke="#f13a13" style="stroke-width:1">
<line x1="309" y1="567" x2="250" y2="516" />
<line x1="309" y1="567" x2="300" y2="567" />
<line x1="309" y1="567" x2="307" y2="558" />
<line x1="309" y1="567" x2="250" y2="516" />
<line x1="309" y1="567" x2="300" y2="567" />
<line x1="309" y1="567" x2="307" y2="558" />
</g>
<g  fill="#f5f5ff" stroke="#593315" style="stroke-width:1">
<line x1="287" y1="481" x2="250" y2="506" />
<line x1="287" y1="481" x2="284" y2="490" />
<line x1="287" y1="481" x2="278" y2="481" />
</g>
<g  fill="#f5f5ff" stroke="#f13a13" style="stroke-width:1">
<line x1="309" y1="567" x2="250" y2="516" />
<line x1="309" y1="567" x2="300" y2="567" />
<line x1="309" y1="567" x2="307" y2="558" />
<line x1="309" y1="567" x2="250" y2="516" />
<line x1="309" y1="567" x2="300" y2="567" />
<line x1="309" y1="567" x2="307" y2="558" />
<line x1="309" y1="567" x2="250" y2="516" />
<line x1="309" y1="567" x2="300" y2="567" />
<line x1="309" y1="567" x2="307" y2="558" />
</g>
<g  fill="#f5f5ff" stroke="#232c16" style="stroke-width:1">
<line x1="229" y1="589" x2="250" y2="516" />
<line x1="229" y1="589" x2="226" y2="580" />
<line x1="229" y1="589" x2="236" y2="583" />
</g>
<g  fill="#f5f5ff" stroke="#00538a" style="stroke-width:1">
<line x1="678" y1="201" x2="319" y2="511" />
<line x1="678" y1="201" x2="676" y2="210" />
<line x1="678" y1="201" x2="669" y2="201" />
</g>
<g  fill="#f5f5ff" stroke="#817066" style="stroke-width:1">
<line x1="250" y1="516" x2="250" y2="506" />
<line x1="250" y1="516" x2="245" y2="508" />
<line x1="250" y1="516" x2="255" y2="508" />
<line x1="250" y1="516" x2="250" y2="506" />
<line x1="250" y1="516" x2="245" y2="508" />
<line x1="250" y1="516" x2="255" y2="508" />
</g>
<g  fill="#f5f5ff" stroke="#00538a" style="stroke-width:1">
<line x1="678" y1="201" x2="319" y2="511" />
<line x1="678" y1="201" x2="676" y2="210" />
<line x1="678" y1="201" x2="669" y2="201" />
<line x1="678" y1="201" x2="319" y2="511" />
<line x1="678" y1="201" x2="676" y2="210" />
<line x1="678" y1="201" x2="669" y2="201" />
<line x1="678" y1="201" x2="319" y2="511" />
<line x1="678" y1="201" x2="676" y2="210" />
<line x1="678" y1="201" x2="669" y2="201" />
</g>
<g  fill="#f5f5ff" stroke="#ff8e00" style="stroke-width:1">
<line x1="526" y1="293" x2="678" y2="201" />
<line x1="526" y1="293" x2="529" y2="284" />
<line x1="526" y1="293" x2="535" y2="293" />
</g>
<g  fill="#f5f5ff" stroke="#f6768e" style="stroke-width:1">
<line x1="348" y1="181" x2="424" y2="293" />
<line x1="348" y1="181" x2="357" y2="184" />
<line x1="348" y1="181" x2="348" y2="190" />
</g>
<g  fill="#f5f5ff" stroke="#ff7a5c" style="stroke-width:1">
<line x1="312" y1="239" x2="519" y2="481" />
<line x1="312" y1="239" x2="321" y2="241" />
<line x1="312" y1="239" x2="312" y2="248" />
</g>
<g  fill="#f5f5ff" stroke="#f6768e" style="stroke-width:1">
<line x1="348" y1="181" x2="468" y2="164" />
<line x1="348" y1="181" x2="355" y2="175" />
<line x1="348" y1="181" x2="356" y2="185" />
</g>
<g  fill="#f5f5ff" stroke="#7f180d" style="stroke-width:1">
<line x1="328" y1="126" x2="468" y2="164" />
<line x1="328" y1="126" x2="337" y2="123" />
<line x1="328" y1="126" x2="334" y2="133" />
</g>
<g  fill="#f5f5ff" stroke="#ff8e00" style="stroke-width:1">
<line x1="526" y1="293" x2="677" y2="395" />
<line x1="526" y1="293" x2="535" y2="293" />
<line x1="526" y1="293" x2="529" y2="302" />
</g>
<g  fill="#f5f5ff" stroke="#7f180d" style="stroke-width:1">
<line x1="328" y1="126" x2="677" y2="395" />
<line x1="328" y1="126" x2="337" y2="126" />
<line x1="328" y1="126" x2="330" y2="135" />
</g>
<g  fill="#f5f5ff" stroke="#ff7a5c" style="stroke-width:1">
<line x1="375" y1="232" x2="677" y2="395" />
<line x1="375" y1="232" x2="384" y2="231" />
<line x1="375" y1="232" x2="379" y2="241" />
</g>
<g  fill="#f5f5ff" stroke="#593315" style="stroke-width:1">
<line x1="287" y1="481" x2="309" y2="567" />
<line x1="287" y1="481" x2="294" y2="487" />
<line x1="287" y1="481" x2="284" y2="490" />
</g>
<g  fill="#f5f5ff" stroke="#817066" style="stroke-width:1">
<line x1="250" y1="516" x2="309" y2="567" />
<line x1="250" y1="516" x2="259" y2="516" />
<line x1="250" y1="516" x2="252" y2="525" />
<line x1="250" y1="516" x2="309" y2="567" />
<line x1="250" y1="516" x2="259" y2="516" />
<line x1="250" y1="516" x2="252" y2="525" />
<line x1="250" y1="516" x2="229" y2="589" />
<line x1="250" y1="516" x2="253" y2="525" />
<line x1="250" y1="516" x2="243" y2="522" />
<line x1="250" y1="516" x2="229" y2="589" />
<line x1="250" y1="516" x2="253" y2="525" />
<line x1="250" y1="516" x2="243" y2="522" />
</g>
</g>
<g font-size="10.000000" stroke="none">
<text x="252" y="359">parse</text>
<text x="926" y="379">visitTranslationUnit</text>
<text x="248" y="317">visitTranslationUnitForIncludes</text>
<text x="926" y="326">visitRecord</text>
<text x="926" y="182">visitFunctionAddArgs</text>
<text x="183" y="515">visitFunctionAddStatements</text>
<text x="248" y="270">visitFunctionAddDupHashes</text>
<text x="248" y="185">createOrGetClassRef</text>
<text x="680" y="203">createOrGetBaseTypeRef</text>
<text x="251" y="234">createOrGetDataTypeRef</text>
<text x="249" y="78">createOrGetDataTypeRef</text>
<text x="426" y="295">createOrGetTypedef</text>
<text x="474" y="490">addOperationParts</text>
<text x="470" y="168">addRecord</text>
<text x="248" y="130">addClassFileLoc</text>
<text x="679" y="397">addTypedef</text>
<text x="251" y="476">buildCondExpr</text>
<text x="262" y="576">addCondStatement</text>
<text x="185" y="598">addElseStatement</text>
<text x="248" y="409">CppParser</text>
<text x="22" y="180">mModelData</text>
<text x="22" y="428">mDupHashFile</text>
<text x="22" y="337">mClassifier</text>
<text x="22" y="87">mOperation</text>
<text x="22" y="565">mStatements</text>
<text x="22" y="528">mSwitchContexts</text>
<text x="22" y="399">mTopParseFn</text>
<text x="22" y="459">mClassMemberAccess</text>
<text x="21" y="490">mIncDirDeps</text>
<text x="24" y="603">mStatementRecurseLevel</text>
</g>
</svg>