<?xml version="1.0" encoding="UTF-8" standalone="no"?>
<svg
   xmlns:dc="http://purl.org/dc/elements/1.1/"
   xmlns:cc="http://creativecommons.org/ns#"
   xmlns:rdf="http://www.w3.org/1999/02/22-rdf-syntax-ns#"
   xmlns:svg="http://www.w3.org/2000/svg"
   xmlns="http://www.w3.org/2000/svg"
   xmlns:sodipodi="http://sodipodi.sourceforge.net/DTD/sodipodi-0.dtd"
   xmlns:inkscape="http://www.inkscape.org/namespaces/inkscape"
   version="1.1"
   width="735"
   height="671"
   id="svg2"
   inkscape:version="0.48.1 "
   sodipodi:docname="PortionParserPhase1.svg">
  <metadata
     id="metadata580">
    <rdf:RDF>
      <cc:Work
         rdf:about="">
        <dc:format>image/svg+xml</dc:format>
        <dc:type
           rdf:resource="http://purl.org/dc/dcmitype/StillImage" />
      </cc:Work>
    </rdf:RDF>
  </metadata>
  <defs
     id="defs578" />
  <sodipodi:namedview
     pagecolor="#ffffff"
     bordercolor="#666666"
     borderopacity="1"
     objecttolerance="10"
     gridtolerance="10"
     guidetolerance="10"
     inkscape:pageopacity="0"
     inkscape:pageshadow="2"
     inkscape:window-width="1164"
     inkscape:window-height="912"
     id="namedview576"
     showgrid="false"
     inkscape:zoom="1.1001781"
     inkscape:cx="367.5"
     inkscape:cy="262.7845"
     inkscape:window-x="266"
     inkscape:window-y="134"
     inkscape:window-maximized="0"
     inkscape:current-layer="svg2" />
  <ellipse
     style="fill:#f5f5ff;stroke:#000000;stroke-width:1"
     sodipodi:ry="5"
     sodipodi:rx="15"
     sodipodi:cy="289"
     sodipodi:cx="261"
     id="ellipse6"
     ry="5"
     rx="15"
     cy="289"
     cx="261" />
  <ellipse
     style="fill:#f5f5ff;stroke:#000000;stroke-width:1"
     sodipodi:ry="5"
     sodipodi:rx="48"
     sodipodi:cy="278"
     sodipodi:cx="681"
     id="ellipse8"
     ry="5"
     rx="48"
     cy="278"
     cx="681" />
  <ellipse
     style="fill:#f5f5ff;stroke:#000000;stroke-width:1"
     sodipodi:ry="5"
     sodipodi:rx="75"
     sodipodi:cy="196"
     sodipodi:cx="319"
     id="ellipse10"
     ry="5"
     rx="75"
     cy="196"
     cx="319" />
  <ellipse
     style="fill:#f5f5ff;stroke:#000000;stroke-width:1"
     sodipodi:ry="5"
     sodipodi:rx="28"
     sodipodi:cy="94"
     sodipodi:cx="451"
     id="ellipse12"
     ry="5"
     rx="28"
     cy="94"
     cx="451" />
  <ellipse
     style="fill:#f5f5ff;stroke:#000000;stroke-width:1"
     sodipodi:ry="7"
     sodipodi:rx="53"
     sodipodi:cy="41"
     sodipodi:cx="302"
     id="ellipse14"
     ry="7"
     rx="53"
     cy="41"
     cx="302" />
  <ellipse
     style="fill:#f5f5ff;stroke:#000000;stroke-width:1"
     sodipodi:ry="5"
     sodipodi:rx="69"
     sodipodi:cy="527"
     sodipodi:cx="281"
     id="ellipse16"
     ry="5"
     rx="69"
     cy="527"
     cx="281" />
  <ellipse
     style="fill:#f5f5ff;stroke:#000000;stroke-width:1"
     sodipodi:ry="7"
     sodipodi:rx="69"
     sodipodi:cy="659"
     sodipodi:cx="360"
     id="ellipse18"
     ry="7"
     rx="69"
     cy="659"
     cx="360" />
  <ellipse
     style="fill:#f5f5ff;stroke:#000000;stroke-width:1"
     sodipodi:ry="7"
     sodipodi:rx="47"
     sodipodi:cy="463"
     sodipodi:cx="295"
     id="ellipse20"
     ry="7"
     rx="47"
     cy="463"
     cx="295" />
  <ellipse
     style="fill:#f5f5ff;stroke:#000000;stroke-width:1"
     sodipodi:ry="5"
     sodipodi:rx="28"
     sodipodi:cy="323"
     sodipodi:cx="464"
     id="ellipse22"
     ry="5"
     rx="28"
     cy="323"
     cx="464" />
  <ellipse
     style="fill:#f5f5ff;stroke:#000000;stroke-width:1"
     sodipodi:ry="5"
     sodipodi:rx="20"
     sodipodi:cy="304"
     sodipodi:cx="299"
     id="ellipse24"
     ry="5"
     rx="20"
     cy="304"
     cx="299" />
  <ellipse
     style="fill:#f5f5ff;stroke:#000000;stroke-width:1"
     sodipodi:ry="5"
     sodipodi:rx="41"
     sodipodi:cy="243"
     sodipodi:cx="287"
     id="ellipse26"
     ry="5"
     rx="41"
     cy="243"
     cx="287" />
  <ellipse
     style="fill:#f5f5ff;stroke:#000000;stroke-width:1"
     sodipodi:ry="7"
     sodipodi:rx="32"
     sodipodi:cy="158"
     sodipodi:cx="504"
     id="ellipse28"
     ry="7"
     rx="32"
     cy="158"
     cx="504" />
  <ellipse
     style="fill:#f5f5ff;stroke:#000000;stroke-width:1"
     sodipodi:ry="7"
     sodipodi:rx="38"
     sodipodi:cy="601"
     sodipodi:cx="203"
     id="ellipse30"
     ry="7"
     rx="38"
     cy="601"
     cx="203" />
  <ellipse
     style="fill:#f5f5ff;stroke:#000000;stroke-width:1"
     sodipodi:ry="5"
     sodipodi:rx="49"
     sodipodi:cy="591"
     sodipodi:cx="362"
     id="ellipse32"
     ry="5"
     rx="49"
     cy="591"
     cx="362" />
  <ellipse
     style="fill:#f5f5ff;stroke:#000000;stroke-width:1"
     sodipodi:ry="5"
     sodipodi:rx="46"
     sodipodi:cy="639"
     sodipodi:cx="247"
     id="ellipse34"
     ry="5"
     rx="46"
     cy="639"
     cx="247" />
  <ellipse
     style="fill:#f5f5ff;stroke:#000000;stroke-width:1"
     sodipodi:ry="7"
     sodipodi:rx="27"
     sodipodi:cy="363"
     sodipodi:cx="290"
     id="ellipse36"
     ry="7"
     rx="27"
     cy="363"
     cx="290" />
  <rect
     style="fill:#f5f5ff;stroke:#000000;stroke-width:1"
     id="rect38"
     height="11"
     width="95"
     y="37"
     x="20" />
  <rect
     style="fill:#f5f5ff;stroke:#000000;stroke-width:1"
     id="rect40"
     height="14"
     width="75"
     y="639"
     x="20" />
  <rect
     style="fill:#f5f5ff;stroke:#000000;stroke-width:1"
     id="rect42"
     height="11"
     width="57"
     y="187"
     x="19" />
  <rect
     style="fill:#f5f5ff;stroke:#000000;stroke-width:1"
     id="rect44"
     height="14"
     width="62"
     y="343"
     x="20" />
  <rect
     style="fill:#f5f5ff;stroke:#000000;stroke-width:1"
     id="rect46"
     height="11"
     width="68"
     y="556"
     x="20" />
  <rect
     style="fill:#f5f5ff;stroke:#000000;stroke-width:1"
     id="rect48"
     height="11"
     width="86"
     y="476"
     x="20" />
  <rect
     style="fill:#f5f5ff;stroke:#000000;stroke-width:1"
     id="rect50"
     height="14"
     width="72"
     y="239"
     x="19" />
  <rect
     style="fill:#f5f5ff;stroke:#000000;stroke-width:1"
     id="rect52"
     height="11"
     width="109"
     y="298"
     x="20" />
  <rect
     style="fill:#f5f5ff;stroke:#000000;stroke-width:1"
     id="rect54"
     height="14"
     width="66"
     y="134"
     x="20" />
  <rect
     style="fill:#f5f5ff;stroke:#000000;stroke-width:1"
     id="rect56"
     height="11"
     width="126"
     y="408"
     x="20" />
  <g
     id="g60"
     style="fill:#f5f5ff;stroke:#593315;stroke-width:1">
    <line
       id="line62"
       y2="284"
       x2="261"
       y1="47"
       x1="67" />
    <line
       id="line64"
       y2="49"
       x2="76"
       y1="47"
       x1="67" />
    <line
       id="line66"
       y2="56"
       x2="67"
       y1="47"
       x1="67" />
    <line
       id="line68"
       y2="278"
       x2="633"
       y1="42"
       x1="114" />
    <line
       id="line70"
       y2="40"
       x2="123"
       y1="42"
       x1="114" />
    <line
       id="line72"
       y2="50"
       x2="118"
       y1="42"
       x1="114" />
    <line
       id="line74"
       y2="94"
       x2="423"
       y1="42"
       x1="114" />
    <line
       id="line76"
       y2="38"
       x2="122"
       y1="42"
       x1="114" />
    <line
       id="line78"
       y2="49"
       x2="121"
       y1="42"
       x1="114" />
    <line
       id="line80"
       y2="41"
       x2="249"
       y1="42"
       x1="114" />
    <line
       id="line82"
       y2="37"
       x2="122"
       y1="42"
       x1="114" />
    <line
       id="line84"
       y2="47"
       x2="122"
       y1="42"
       x1="114" />
    <line
       id="line86"
       y2="522"
       x2="281"
       y1="47"
       x1="67" />
    <line
       id="line88"
       y2="51"
       x2="75"
       y1="47"
       x1="67" />
    <line
       id="line90"
       y2="56"
       x2="65"
       y1="47"
       x1="67" />
    <line
       id="line92"
       y2="456"
       x2="295"
       y1="47"
       x1="67" />
    <line
       id="line94"
       y2="51"
       x2="76"
       y1="47"
       x1="67" />
    <line
       id="line96"
       y2="56"
       x2="66"
       y1="47"
       x1="67" />
    <line
       id="line98"
       y2="323"
       x2="436"
       y1="42"
       x1="114" />
    <line
       id="line100"
       y2="42"
       x2="123"
       y1="42"
       x1="114" />
    <line
       id="line102"
       y2="51"
       x2="116"
       y1="42"
       x1="114" />
    <line
       id="line104"
       y2="243"
       x2="246"
       y1="42"
       x1="114" />
    <line
       id="line106"
       y2="45"
       x2="123"
       y1="42"
       x1="114" />
    <line
       id="line108"
       y2="51"
       x2="114"
       y1="42"
       x1="114" />
    <line
       id="line110"
       y2="158"
       x2="472"
       y1="42"
       x1="114" />
    <line
       id="line112"
       y2="39"
       x2="123"
       y1="42"
       x1="114" />
    <line
       id="line114"
       y2="50"
       x2="119"
       y1="42"
       x1="114" />
  </g>
  <g
     id="g116"
     style="fill:#f5f5ff;stroke:#f13a13;stroke-width:1">
    <line
       id="line118"
       y2="294"
       x2="261"
       y1="639"
       x1="57" />
    <line
       id="line120"
       y2="630"
       x2="57"
       y1="639"
       x1="57" />
    <line
       id="line122"
       y2="636"
       x2="66"
       y1="639"
       x1="57" />
    <line
       id="line124"
       y2="659"
       x2="291"
       y1="646"
       x1="94" />
    <line
       id="line126"
       y2="641"
       x2="102"
       y1="646"
       x1="94" />
    <line
       id="line128"
       y2="652"
       x2="101"
       y1="646"
       x1="94" />
    <line
       id="line130"
       y2="463"
       x2="248"
       y1="646"
       x1="94" />
    <line
       id="line132"
       y2="637"
       x2="94"
       y1="646"
       x1="94" />
    <line
       id="line134"
       y2="644"
       x2="103"
       y1="646"
       x1="94" />
  </g>
  <g
     id="g136"
     style="fill:#f5f5ff;stroke:#232c16;stroke-width:1">
    <line
       id="line138"
       y2="278"
       x2="633"
       y1="192"
       x1="75" />
    <line
       id="line140"
       y2="188"
       x2="83"
       y1="192"
       x1="75" />
    <line
       id="line142"
       y2="199"
       x2="82"
       y1="192"
       x1="75" />
    <line
       id="line144"
       y2="94"
       x2="423"
       y1="192"
       x1="75" />
    <line
       id="line146"
       y2="185"
       x2="81"
       y1="192"
       x1="75" />
    <line
       id="line148"
       y2="195"
       x2="84"
       y1="192"
       x1="75" />
    <line
       id="line150"
       y2="323"
       x2="436"
       y1="192"
       x1="75" />
    <line
       id="line152"
       y2="190"
       x2="84"
       y1="192"
       x1="75" />
    <line
       id="line154"
       y2="200"
       x2="80"
       y1="192"
       x1="75" />
    <line
       id="line156"
       y2="363"
       x2="263"
       y1="192"
       x1="75" />
    <line
       id="line158"
       y2="193"
       x2="84"
       y1="192"
       x1="75" />
    <line
       id="line160"
       y2="201"
       x2="77"
       y1="192"
       x1="75" />
  </g>
  <g
     id="g162"
     style="fill:#f5f5ff;stroke:#ffb300;stroke-width:1">
    <line
       id="line164"
       y2="278"
       x2="633"
       y1="350"
       x1="82" />
    <line
       id="line166"
       y2="344"
       x2="89"
       y1="350"
       x1="82" />
    <line
       id="line168"
       y2="354"
       x2="90"
       y1="350"
       x1="82" />
    <line
       id="line170"
       y2="94"
       x2="423"
       y1="350"
       x1="82" />
    <line
       id="line172"
       y2="341"
       x2="84"
       y1="350"
       x1="82" />
    <line
       id="line174"
       y2="350"
       x2="91"
       y1="350"
       x1="82" />
    <line
       id="line176"
       y2="48"
       x2="302"
       y1="343"
       x1="51" />
    <line
       id="line178"
       y2="334"
       x2="51"
       y1="343"
       x1="51" />
    <line
       id="line180"
       y2="341"
       x2="60"
       y1="343"
       x1="51" />
    <line
       id="line182"
       y2="527"
       x2="212"
       y1="350"
       x1="82" />
    <line
       id="line184"
       y2="353"
       x2="91"
       y1="350"
       x1="82" />
    <line
       id="line186"
       y2="359"
       x2="82"
       y1="350"
       x1="82" />
    <line
       id="line188"
       y2="463"
       x2="248"
       y1="350"
       x1="82" />
    <line
       id="line190"
       y2="350"
       x2="91"
       y1="350"
       x1="82" />
    <line
       id="line192"
       y2="359"
       x2="85"
       y1="350"
       x1="82" />
    <line
       id="line194"
       y2="363"
       x2="263"
       y1="350"
       x1="82" />
    <line
       id="line196"
       y2="345"
       x2="90"
       y1="350"
       x1="82" />
    <line
       id="line198"
       y2="356"
       x2="89"
       y1="350"
       x1="82" />
  </g>
  <g
     id="g200"
     style="fill:#f5f5ff;stroke:#803e75;stroke-width:1">
    <line
       id="line202"
       y2="527"
       x2="212"
       y1="561"
       x1="88" />
    <line
       id="line204"
       y2="554"
       x2="94"
       y1="561"
       x1="88" />
    <line
       id="line206"
       y2="564"
       x2="97"
       y1="561"
       x1="88" />
    <line
       id="line208"
       y2="463"
       x2="248"
       y1="561"
       x1="88" />
    <line
       id="line210"
       y2="552"
       x2="91"
       y1="561"
       x1="88" />
    <line
       id="line212"
       y2="561"
       x2="97"
       y1="561"
       x1="88" />
    <line
       id="line214"
       y2="591"
       x2="313"
       y1="561"
       x1="88" />
    <line
       id="line216"
       y2="557"
       x2="96"
       y1="561"
       x1="88" />
    <line
       id="line218"
       y2="567"
       x2="95"
       y1="561"
       x1="88" />
    <line
       id="line220"
       y2="639"
       x2="201"
       y1="561"
       x1="88" />
    <line
       id="line222"
       y2="561"
       x2="97"
       y1="561"
       x1="88" />
    <line
       id="line224"
       y2="570"
       x2="91"
       y1="561"
       x1="88" />
    <line
       id="line226"
       y2="363"
       x2="263"
       y1="561"
       x1="88" />
    <line
       id="line228"
       y2="552"
       x2="88"
       y1="561"
       x1="88" />
    <line
       id="line230"
       y2="559"
       x2="97"
       y1="561"
       x1="88" />
  </g>
  <g
     id="g232"
     style="fill:#f5f5ff;stroke:#ff6800;stroke-width:1">
    <line
       id="line234"
       y2="527"
       x2="212"
       y1="481"
       x1="106" />
    <line
       id="line236"
       y2="479"
       x2="115"
       y1="481"
       x1="106" />
    <line
       id="line238"
       y2="489"
       x2="111"
       y1="481"
       x1="106" />
    <line
       id="line240"
       y2="601"
       x2="165"
       y1="481"
       x1="106" />
    <line
       id="line242"
       y2="485"
       x2="114"
       y1="481"
       x1="106" />
    <line
       id="line244"
       y2="490"
       x2="105"
       y1="481"
       x1="106" />
  </g>
  <g
     id="g246"
     style="fill:#f5f5ff;stroke:#a6bdd7;stroke-width:1">
    <line
       id="line248"
       y2="289"
       x2="246"
       y1="246"
       x1="91" />
    <line
       id="line250"
       y2="243"
       x2="100"
       y1="246"
       x1="91" />
    <line
       id="line252"
       y2="253"
       x2="97"
       y1="246"
       x1="91" />
    <line
       id="line254"
       y2="278"
       x2="633"
       y1="246"
       x1="91" />
    <line
       id="line256"
       y2="241"
       x2="99"
       y1="246"
       x1="91" />
    <line
       id="line258"
       y2="252"
       x2="98"
       y1="246"
       x1="91" />
    <line
       id="line260"
       y2="94"
       x2="423"
       y1="246"
       x1="91" />
    <line
       id="line262"
       y2="238"
       x2="95"
       y1="246"
       x1="91" />
    <line
       id="line264"
       y2="247"
       x2="100"
       y1="246"
       x1="91" />
    <line
       id="line266"
       y2="463"
       x2="248"
       y1="246"
       x1="91" />
    <line
       id="line268"
       y2="249"
       x2="100"
       y1="246"
       x1="91" />
    <line
       id="line270"
       y2="255"
       x2="91"
       y1="246"
       x1="91" />
    <line
       id="line272"
       y2="243"
       x2="246"
       y1="246"
       x1="91" />
    <line
       id="line274"
       y2="240"
       x2="98"
       y1="246"
       x1="91" />
    <line
       id="line276"
       y2="251"
       x2="99"
       y1="246"
       x1="91" />
  </g>
  <g
     id="g278"
     style="fill:#f5f5ff;stroke:#cea262;stroke-width:1">
    <line
       id="line280"
       y2="94"
       x2="423"
       y1="303"
       x1="128" />
    <line
       id="line282"
       y2="294"
       x2="131"
       y1="303"
       x1="128" />
    <line
       id="line284"
       y2="303"
       x2="137"
       y1="303"
       x1="128" />
    <line
       id="line286"
       y2="323"
       x2="436"
       y1="303"
       x1="128" />
    <line
       id="line288"
       y2="298"
       x2="136"
       y1="303"
       x1="128" />
    <line
       id="line290"
       y2="309"
       x2="135"
       y1="303"
       x1="128" />
  </g>
  <g
     id="g292"
     style="fill:#f5f5ff;stroke:#817066;stroke-width:1">
    <line
       id="line294"
       y2="289"
       x2="246"
       y1="141"
       x1="86" />
    <line
       id="line296"
       y2="142"
       x2="95"
       y1="141"
       x1="86" />
    <line
       id="line298"
       y2="150"
       x2="87"
       y1="141"
       x1="86" />
    <line
       id="line300"
       y2="196"
       x2="244"
       y1="141"
       x1="86" />
    <line
       id="line302"
       y2="139"
       x2="95"
       y1="141"
       x1="86" />
    <line
       id="line304"
       y2="149"
       x2="91"
       y1="141"
       x1="86" />
  </g>
  <g
     id="g306"
     style="fill:#f5f5ff;stroke:#007d34;stroke-width:1">
    <line
       id="line308"
       y2="363"
       x2="263"
       y1="413"
       x1="146" />
    <line
       id="line310"
       y2="405"
       x2="151"
       y1="413"
       x1="146" />
    <line
       id="line312"
       y2="415"
       x2="155"
       y1="413"
       x1="146" />
  </g>
  <g
     id="g358"
     style="fill:#f5f5ff;stroke:#00538a;stroke-width:1">
    <line
       id="line360"
       y2="278"
       x2="633"
       y1="323"
       x1="492" />
    <line
       id="line362"
       y2="315"
       x2="497"
       y1="323"
       x1="492" />
    <line
       id="line364"
       y2="326"
       x2="501"
       y1="323"
       x1="492" />
    <line
       id="line366"
       y2="278"
       x2="633"
       y1="323"
       x1="492" />
    <line
       id="line368"
       y2="315"
       x2="497"
       y1="323"
       x1="492" />
    <line
       id="line370"
       y2="326"
       x2="501"
       y1="323"
       x1="492" />
    <line
       id="line372"
       y2="278"
       x2="633"
       y1="323"
       x1="492" />
    <line
       id="line374"
       y2="315"
       x2="497"
       y1="323"
       x1="492" />
    <line
       id="line376"
       y2="326"
       x2="501"
       y1="323"
       x1="492" />
  </g>
  <g
     id="g378"
     style="fill:#f5f5ff;stroke:#ff8e00;stroke-width:1">
    <line
       id="line380"
       y2="278"
       x2="633"
       y1="158"
       x1="536" />
    <line
       id="line382"
       y2="160"
       x2="545"
       y1="158"
       x1="536" />
    <line
       id="line384"
       y2="167"
       x2="536"
       y1="158"
       x1="536" />
  </g>
  <g
     id="g386"
     style="fill:#f5f5ff;stroke:#ff7a5c;stroke-width:1">
    <line
       id="line388"
       y2="278"
       x2="633"
       y1="304"
       x1="319" />
    <line
       id="line390"
       y2="298"
       x2="326"
       y1="304"
       x1="319" />
    <line
       id="line392"
       y2="309"
       x2="327"
       y1="304"
       x1="319" />
  </g>
  <g
     id="g394"
     style="fill:#f5f5ff;stroke:#f6768e;stroke-width:1">
    <line
       id="line396"
       y2="278"
       x2="633"
       y1="463"
       x1="342" />
    <line
       id="line398"
       y2="454"
       x2="345"
       y1="463"
       x1="342" />
    <line
       id="line400"
       y2="463"
       x2="351"
       y1="463"
       x1="342" />
    <line
       id="line402"
       y2="99"
       x2="451"
       y1="456"
       x1="295" />
    <line
       id="line404"
       y2="447"
       x2="293"
       y1="456"
       x1="295" />
    <line
       id="line406"
       y2="451"
       x2="303"
       y1="456"
       x1="295" />
  </g>
  <g
     id="g408"
     style="fill:#f5f5ff;stroke:#f4c800;stroke-width:1">
    <line
       id="line410"
       y2="527"
       x2="350"
       y1="591"
       x1="313" />
    <line
       id="line412"
       y2="582"
       x2="312"
       y1="591"
       x1="313" />
    <line
       id="line414"
       y2="587"
       x2="322"
       y1="591"
       x1="313" />
    <line
       id="line416"
       y2="527"
       x2="350"
       y1="591"
       x1="313" />
    <line
       id="line418"
       y2="582"
       x2="312"
       y1="591"
       x1="313" />
    <line
       id="line420"
       y2="587"
       x2="322"
       y1="591"
       x1="313" />
  </g>
  <g
     id="g422"
     style="fill:#f5f5ff;stroke:#b32851;stroke-width:1">
    <line
       id="line424"
       y2="527"
       x2="212"
       y1="601"
       x1="241" />
    <line
       id="line426"
       y2="596"
       x2="233"
       y1="601"
       x1="241" />
    <line
       id="line428"
       y2="592"
       x2="243"
       y1="601"
       x1="241" />
  </g>
  <g
     id="g430"
     style="fill:#f5f5ff;stroke:#f4c800;stroke-width:1">
    <line
       id="line432"
       y2="527"
       x2="350"
       y1="591"
       x1="313" />
    <line
       id="line434"
       y2="582"
       x2="312"
       y1="591"
       x1="313" />
    <line
       id="line436"
       y2="587"
       x2="322"
       y1="591"
       x1="313" />
    <line
       id="line438"
       y2="527"
       x2="350"
       y1="591"
       x1="313" />
    <line
       id="line440"
       y2="582"
       x2="312"
       y1="591"
       x1="313" />
    <line
       id="line442"
       y2="587"
       x2="322"
       y1="591"
       x1="313" />
    <line
       id="line444"
       y2="527"
       x2="350"
       y1="591"
       x1="313" />
    <line
       id="line446"
       y2="582"
       x2="312"
       y1="591"
       x1="313" />
    <line
       id="line448"
       y2="587"
       x2="322"
       y1="591"
       x1="313" />
  </g>
  <g
     id="g450"
     style="fill:#f5f5ff;stroke:#7f180d;stroke-width:1">
    <line
       id="line452"
       y2="532"
       x2="281"
       y1="634"
       x1="247" />
    <line
       id="line454"
       y2="625"
       x2="244"
       y1="634"
       x1="247" />
    <line
       id="line456"
       y2="629"
       x2="255"
       y1="634"
       x1="247" />
  </g>
  <g
     id="g458"
     style="fill:#f5f5ff;stroke:#817066;stroke-width:1">
    <line
       id="line460"
       y2="522"
       x2="281"
       y1="532"
       x1="281" />
    <line
       id="line462"
       y2="524"
       x2="276"
       y1="532"
       x1="281" />
    <line
       id="line464"
       y2="524"
       x2="286"
       y1="532"
       x1="281" />
    <line
       id="line466"
       y2="522"
       x2="281"
       y1="532"
       x1="281" />
    <line
       id="line468"
       y2="524"
       x2="276"
       y1="532"
       x1="281" />
    <line
       id="line470"
       y2="524"
       x2="286"
       y1="532"
       x1="281" />
  </g>
  <g
     id="g472"
     style="fill:#f5f5ff;stroke:#53377a;stroke-width:1">
    <line
       id="line474"
       y2="323"
       x2="436"
       y1="243"
       x1="328" />
    <line
       id="line476"
       y2="243"
       x2="337"
       y1="243"
       x1="328" />
    <line
       id="line478"
       y2="252"
       x2="331"
       y1="243"
       x1="328" />
    <line
       id="line480"
       y2="158"
       x2="472"
       y1="243"
       x1="328" />
    <line
       id="line482"
       y2="234"
       x2="331"
       y1="243"
       x1="328" />
    <line
       id="line484"
       y2="243"
       x2="337"
       y1="243"
       x1="328" />
  </g>
  <g
     id="g486"
     style="fill:#f5f5ff;stroke:#b32851;stroke-width:1">
    <line
       id="line488"
       y2="591"
       x2="313"
       y1="601"
       x1="241" />
    <line
       id="line490"
       y2="595"
       x2="248"
       y1="601"
       x1="241" />
    <line
       id="line492"
       y2="605"
       x2="249"
       y1="601"
       x1="241" />
  </g>
  <g
     id="g494"
     style="fill:#f5f5ff;stroke:#817066;stroke-width:1">
    <line
       id="line496"
       y2="591"
       x2="313"
       y1="527"
       x1="350" />
    <line
       id="line498"
       y2="536"
       x2="351"
       y1="527"
       x1="350" />
    <line
       id="line500"
       y2="531"
       x2="341"
       y1="527"
       x1="350" />
    <line
       id="line502"
       y2="591"
       x2="313"
       y1="527"
       x1="350" />
    <line
       id="line504"
       y2="536"
       x2="351"
       y1="527"
       x1="350" />
    <line
       id="line506"
       y2="531"
       x2="341"
       y1="527"
       x1="350" />
    <line
       id="line508"
       y2="634"
       x2="247"
       y1="532"
       x1="281" />
    <line
       id="line510"
       y2="541"
       x2="284"
       y1="532"
       x1="281" />
    <line
       id="line512"
       y2="537"
       x2="273"
       y1="532"
       x1="281" />
    <line
       id="line514"
       y2="634"
       x2="247"
       y1="532"
       x1="281" />
    <line
       id="line516"
       y2="541"
       x2="284"
       y1="532"
       x1="281" />
    <line
       id="line518"
       y2="537"
       x2="273"
       y1="532"
       x1="281" />
  </g>
  <g
     font-size="10.000000"
     stroke="none"
     id="g520">
    <text
       x="248"
       y="293"
       id="text522">parse</text>
    <text
       x="635"
       y="282"
       id="text524">visitTranslationUnit</text>
    <text
       x="246"
       y="200"
       id="text526">visitTranslationUnitForIncludes</text>
    <text
       x="425"
       y="98"
       id="text528">visitRecord</text>
    <text
       x="251"
       y="43"
       id="text530">visitFunctionAddArgs</text>
    <text
       x="214"
       y="531"
       id="text532">visitFunctionAddStatements</text>
    <text
       x="293"
       y="661"
       id="text534">visitFunctionAddDupHashes</text>
    <text
       x="250"
       y="465"
       id="text536">addOperationParts</text>
    <text
       x="438"
       y="327"
       id="text538">addRecord</text>
    <text
       x="281"
       y="308"
       id="text540">addVar</text>
    <text
       x="248"
       y="247"
       id="text542">addClassFileLoc</text>
    <text
       x="474"
       y="160"
       id="text544">addTypedef</text>
    <text
       x="167"
       y="603"
       id="text546">buildCondExpr</text>
    <text
       x="315"
       y="595"
       id="text548">addCondStatement</text>
    <text
       x="203"
       y="643"
       id="text550">addElseStatement</text>
    <text
       x="265"
       y="365"
       id="text552">CppParser</text>
    <text
       x="22"
       y="46"
       id="text554">mParserModelData</text>
    <text
       x="22"
       y="648"
       id="text556">mDupHashFile</text>
    <text
       x="21"
       y="196"
       id="text558">mClassifier</text>
    <text
       x="22"
       y="352"
       id="text560">mOperation</text>
    <text
       x="22"
       y="565"
       id="text562">mStatements</text>
    <text
       x="22"
       y="485"
       id="text564">mSwitchContexts</text>
    <text
       x="21"
       y="248"
       id="text566">mTopParseFn</text>
    <text
       x="22"
       y="307"
       id="text568">mClassMemberAccess</text>
    <text
       x="22"
       y="143"
       id="text570">mIncDirDeps</text>
    <text
       x="22"
       y="417"
       id="text572">mStatementRecurseLevel</text>
  </g>
</svg>
