<?xml version="1.0" encoding="UTF-8" standalone="no"?>
<svg
   xmlns:dc="http://purl.org/dc/elements/1.1/"
   xmlns:cc="http://creativecommons.org/ns#"
   xmlns:rdf="http://www.w3.org/1999/02/22-rdf-syntax-ns#"
   xmlns:svg="http://www.w3.org/2000/svg"
   xmlns="http://www.w3.org/2000/svg"
   xmlns:sodipodi="http://sodipodi.sourceforge.net/DTD/sodipodi-0.dtd"
   xmlns:inkscape="http://www.inkscape.org/namespaces/inkscape"
   version="1.1"
   width="263"
   height="330"
   id="svg2"
   inkscape:version="0.48.1 "
   sodipodi:docname="PortionSimpleExample.svg">
  <metadata
     id="metadata164">
    <rdf:RDF>
      <cc:Work
         rdf:about="">
        <dc:format>image/svg+xml</dc:format>
        <dc:type
           rdf:resource="http://purl.org/dc/dcmitype/StillImage" />
      </cc:Work>
    </rdf:RDF>
  </metadata>
  <defs
     id="defs162" />
  <sodipodi:namedview
     pagecolor="#ffffff"
     bordercolor="#666666"
     borderopacity="1"
     objecttolerance="10"
     gridtolerance="10"
     guidetolerance="10"
     inkscape:pageopacity="0"
     inkscape:pageshadow="2"
     inkscape:window-width="970"
     inkscape:window-height="848"
     id="namedview160"
     showgrid="false"
     inkscape:zoom="1.5"
     inkscape:cx="121.5"
     inkscape:cy="174.5"
     inkscape:window-x="269"
     inkscape:window-y="154"
     inkscape:window-maximized="0"
     inkscape:current-layer="svg2"
     fit-margin-top="0"
     fit-margin-left="0"
     fit-margin-right="0"
     fit-margin-bottom="0" />
  <g
     style="fill:#f5f5ff;stroke:#000000;stroke-width:1"
     id="g4"
     transform="translate(-19.5,-18.5)">
    <ellipse
       cx="217"
       cy="305"
       rx="41"
       ry="7"
       id="ellipse6"
       sodipodi:cx="217"
       sodipodi:cy="305"
       sodipodi:rx="41"
       sodipodi:ry="7"
       d="m 258,305 c 0,3.86599 -18.35633,7 -41,7 -22.64367,0 -41,-3.13401 -41,-7 0,-3.86599 18.35633,-7 41,-7 22.64367,0 41,3.13401 41,7 z" />
    <ellipse
       cx="209"
       cy="113"
       rx="30"
       ry="7"
       id="ellipse8"
       sodipodi:cx="209"
       sodipodi:cy="113"
       sodipodi:rx="30"
       sodipodi:ry="7"
       d="m 239,113 c 0,3.86599 -13.43146,7 -30,7 -16.56854,0 -30,-3.13401 -30,-7 0,-3.86599 13.43146,-7 30,-7 16.56854,0 30,3.13401 30,7 z" />
    <ellipse
       cx="216"
       cy="236"
       rx="36"
       ry="7"
       id="ellipse10"
       sodipodi:cx="216"
       sodipodi:cy="236"
       sodipodi:rx="36"
       sodipodi:ry="7"
       d="m 252,236 c 0,3.86599 -16.11775,7 -36,7 -19.88225,0 -36,-3.13401 -36,-7 0,-3.86599 16.11775,-7 36,-7 19.88225,0 36,3.13401 36,7 z" />
    <ellipse
       cx="209"
       cy="269"
       rx="31"
       ry="7"
       id="ellipse12"
       sodipodi:cx="209"
       sodipodi:cy="269"
       sodipodi:rx="31"
       sodipodi:ry="7"
       d="m 240,269 c 0,3.86599 -13.87917,7 -31,7 -17.12083,0 -31,-3.13401 -31,-7 0,-3.86599 13.87917,-7 31,-7 17.12083,0 31,3.13401 31,7 z" />
    <ellipse
       cx="202"
       cy="80"
       rx="23"
       ry="7"
       id="ellipse14"
       sodipodi:cx="202"
       sodipodi:cy="80"
       sodipodi:rx="23"
       sodipodi:ry="7"
       d="m 225,80 c 0,3.865993 -10.29745,7 -23,7 -12.70255,0 -23,-3.134007 -23,-7 0,-3.865993 10.29745,-7 23,-7 12.70255,0 23,3.134007 23,7 z" />
    <ellipse
       cx="203"
       cy="26"
       rx="23"
       ry="7"
       id="ellipse16"
       sodipodi:cx="203"
       sodipodi:cy="26"
       sodipodi:rx="23"
       sodipodi:ry="7"
       d="m 226,26 c 0,3.865993 -10.29745,7 -23,7 -12.70255,0 -23,-3.134007 -23,-7 0,-3.865993 10.29745,-7 23,-7 12.70255,0 23,3.134007 23,7 z" />
    <ellipse
       cx="205"
       cy="53"
       rx="26"
       ry="7"
       id="ellipse18"
       sodipodi:cx="205"
       sodipodi:cy="53"
       sodipodi:rx="26"
       sodipodi:ry="7"
       d="m 231,53 c 0,3.865993 -11.6406,7 -26,7 -14.3594,0 -26,-3.134007 -26,-7 0,-3.865993 11.6406,-7 26,-7 14.3594,0 26,3.134007 26,7 z" />
    <ellipse
       cx="218"
       cy="205"
       rx="39"
       ry="7"
       id="ellipse20"
       sodipodi:cx="218"
       sodipodi:cy="205"
       sodipodi:rx="39"
       sodipodi:ry="7"
       d="m 257,205 c 0,3.86599 -17.46089,7 -39,7 -21.53911,0 -39,-3.13401 -39,-7 0,-3.86599 17.46089,-7 39,-7 21.53911,0 39,3.13401 39,7 z" />
    <ellipse
       cx="209"
       cy="173"
       rx="28"
       ry="5"
       id="ellipse22"
       sodipodi:cx="209"
       sodipodi:cy="173"
       sodipodi:rx="28"
       sodipodi:ry="5"
       d="m 237,173 c 0,2.76142 -12.53603,5 -28,5 -15.46397,0 -28,-2.23858 -28,-5 0,-2.76142 12.53603,-5 28,-5 15.46397,0 28,2.23858 28,5 z" />
    <ellipse
       cx="229"
       cy="341"
       rx="53"
       ry="7"
       id="ellipse24"
       sodipodi:cx="229"
       sodipodi:cy="341"
       sodipodi:rx="53"
       sodipodi:ry="7"
       d="m 282,341 c 0,3.86599 -23.72891,7 -53,7 -29.27109,0 -53,-3.13401 -53,-7 0,-3.86599 23.72891,-7 53,-7 29.27109,0 53,3.13401 53,7 z" />
    <ellipse
       cx="222"
       cy="147"
       rx="42"
       ry="7"
       id="ellipse26"
       sodipodi:cx="222"
       sodipodi:cy="147"
       sodipodi:rx="42"
       sodipodi:ry="7"
       d="m 264,147 c 0,3.86599 -18.80404,7 -42,7 -23.19596,0 -42,-3.13401 -42,-7 0,-3.86599 18.80404,-7 42,-7 23.19596,0 42,3.13401 42,7 z" />
    <rect
       x="21"
       y="272"
       width="76"
       height="14"
       id="rect28" />
    <rect
       x="20"
       y="118"
       width="55"
       height="14"
       id="rect30" />
    <rect
       x="22"
       y="192"
       width="23"
       height="11"
       id="rect32" />
    <g
       style="fill:#f5f5ff;stroke:#ff8e00;stroke-width:1"
       id="g34">
      <line
         x1="97"
         y1="279"
         x2="176"
         y2="305"
         id="line36" />
      <line
         x1="97"
         y1="279"
         x2="106"
         y2="276"
         id="line38" />
      <line
         x1="97"
         y1="279"
         x2="102"
         y2="287"
         id="line40" />
      <line
         x1="97"
         y1="279"
         x2="180"
         y2="236"
         id="line42" />
      <line
         x1="97"
         y1="279"
         x2="101"
         y2="271"
         id="line44" />
      <line
         x1="97"
         y1="279"
         x2="106"
         y2="280"
         id="line46" />
      <line
         x1="97"
         y1="279"
         x2="178"
         y2="269"
         id="line48" />
      <line
         x1="97"
         y1="279"
         x2="104"
         y2="273"
         id="line50" />
      <line
         x1="97"
         y1="279"
         x2="105"
         y2="283"
         id="line52" />
      <line
         x1="97"
         y1="279"
         x2="179"
         y2="205"
         id="line54" />
      <line
         x1="97"
         y1="279"
         x2="99"
         y2="270"
         id="line56" />
      <line
         x1="97"
         y1="279"
         x2="106"
         y2="278"
         id="line58" />
      <line
         x1="97"
         y1="279"
         x2="176"
         y2="341"
         id="line60" />
      <line
         x1="97"
         y1="279"
         x2="106"
         y2="279"
         id="line62" />
      <line
         x1="97"
         y1="279"
         x2="99"
         y2="288"
         id="line64" />
    </g>
    <g
       style="fill:#f5f5ff;stroke:#b32851;stroke-width:1"
       id="g66">
      <line
         x1="74"
         y1="125"
         x2="179"
         y2="113"
         id="line68" />
      <line
         x1="74"
         y1="125"
         x2="81"
         y2="119"
         id="line70" />
      <line
         x1="74"
         y1="125"
         x2="82"
         y2="129"
         id="line72" />
      <line
         x1="74"
         y1="125"
         x2="180"
         y2="236"
         id="line74" />
      <line
         x1="74"
         y1="125"
         x2="83"
         y2="126"
         id="line76" />
      <line
         x1="74"
         y1="125"
         x2="75"
         y2="134"
         id="line78" />
      <line
         x1="74"
         y1="125"
         x2="178"
         y2="269"
         id="line80" />
      <line
         x1="74"
         y1="125"
         x2="83"
         y2="128"
         id="line82" />
      <line
         x1="74"
         y1="125"
         x2="74"
         y2="134"
         id="line84" />
      <line
         x1="74"
         y1="125"
         x2="181"
         y2="173"
         id="line86" />
      <line
         x1="74"
         y1="125"
         x2="83"
         y2="123"
         id="line88" />
      <line
         x1="74"
         y1="125"
         x2="78"
         y2="133"
         id="line90" />
      <line
         x1="74"
         y1="125"
         x2="180"
         y2="147"
         id="line92" />
      <line
         x1="74"
         y1="125"
         x2="83"
         y2="121"
         id="line94" />
      <line
         x1="74"
         y1="125"
         x2="80"
         y2="132"
         id="line96" />
    </g>
    <g
       style="fill:#f5f5ff;stroke:#f4c800;stroke-width:1"
       id="g98">
      <line
         x1="44"
         y1="197"
         x2="180"
         y2="236"
         id="line100" />
      <line
         x1="44"
         y1="197"
         x2="53"
         y2="194"
         id="line102" />
      <line
         x1="44"
         y1="197"
         x2="50"
         y2="204"
         id="line104" />
      <line
         x1="44"
         y1="197"
         x2="178"
         y2="269"
         id="line106" />
      <line
         x1="44"
         y1="197"
         x2="53"
         y2="196"
         id="line108" />
      <line
         x1="44"
         y1="197"
         x2="48"
         y2="206"
         id="line110" />
      <line
         x1="44"
         y1="197"
         x2="179"
         y2="80"
         id="line112" />
      <line
         x1="44"
         y1="197"
         x2="46"
         y2="188"
         id="line114" />
      <line
         x1="44"
         y1="197"
         x2="53"
         y2="197"
         id="line116" />
      <line
         x1="44"
         y1="197"
         x2="179"
         y2="205"
         id="line118" />
      <line
         x1="44"
         y1="197"
         x2="52"
         y2="192"
         id="line120" />
      <line
         x1="44"
         y1="197"
         x2="51"
         y2="203"
         id="line122" />
      <line
         x1="44"
         y1="197"
         x2="181"
         y2="173"
         id="line124" />
      <line
         x1="44"
         y1="197"
         x2="50"
         y2="190"
         id="line126" />
      <line
         x1="44"
         y1="197"
         x2="52"
         y2="201"
         id="line128" />
    </g>
  </g>
  <g
     font-size="10.000000"
     id="g130"
     style="font-size:10px;stroke:none"
     transform="translate(-19.5,-18.5)">
    <text
       x="178"
       y="307"
       id="text132">getCompileArgs</text>
    <text
       x="181"
       y="115"
       id="text134">getLinkArgs</text>
    <text
       x="182"
       y="238"
       id="text136">loadFromMap</text>
    <text
       x="180"
       y="271"
       id="text138">saveToMap</text>
    <text
       x="181"
       y="82"
       id="text140">Package</text>
    <text
       x="182"
       y="28"
       id="text142">Package</text>
    <text
       x="181"
       y="55"
       id="text144">~Package</text>
    <text
       x="181"
       y="207"
       id="text146">setCompileInfo</text>
    <text
       x="183"
       y="177"
       id="text148">setLinkInfo</text>
    <text
       x="178"
       y="343"
       id="text150">getCompileArgsAsStr</text>
    <text
       x="182"
       y="149"
       id="text152">getLinkArgsAsStr</text>
    <text
       x="23"
       y="281"
       id="text154">mCompileArgs</text>
    <text
       x="22"
       y="127"
       id="text156">mLinkArgs</text>
    <text
       x="24"
       y="201"
       id="text158">this</text>
  </g>
</svg>
