<?xml version="1.0" encoding="UTF-8" standalone="no"?>
<svg
   xmlns:dc="http://purl.org/dc/elements/1.1/"
   xmlns:cc="http://creativecommons.org/ns#"
   xmlns:rdf="http://www.w3.org/1999/02/22-rdf-syntax-ns#"
   xmlns:svg="http://www.w3.org/2000/svg"
   xmlns="http://www.w3.org/2000/svg"
   xmlns:sodipodi="http://sodipodi.sourceforge.net/DTD/sodipodi-0.dtd"
   xmlns:inkscape="http://www.inkscape.org/namespaces/inkscape"
   version="1.1"
   width="283"
   height="417"
   id="svg2"
   inkscape:version="0.48.1 "
   sodipodi:docname="SimpleExample.svg">
  <metadata
     id="metadata128">
    <rdf:RDF>
      <cc:Work
         rdf:about="">
        <dc:format>image/svg+xml</dc:format>
        <dc:type
           rdf:resource="http://purl.org/dc/dcmitype/StillImage" />
      </cc:Work>
    </rdf:RDF>
  </metadata>
  <defs
     id="defs126" />
  <sodipodi:namedview
     pagecolor="#ffffff"
     bordercolor="#666666"
     borderopacity="1"
     objecttolerance="10"
     gridtolerance="10"
     guidetolerance="10"
     inkscape:pageopacity="0"
     inkscape:pageshadow="2"
     inkscape:window-width="801"
     inkscape:window-height="807"
     id="namedview124"
     showgrid="false"
     inkscape:zoom="1"
     inkscape:cx="141.5"
     inkscape:cy="208.5"
     inkscape:window-x="360"
     inkscape:window-y="62"
     inkscape:window-maximized="0"
     inkscape:current-layer="svg2" />
  <g
     style="fill:#f5f5ff;stroke:#000000;stroke-width:1"
     id="g4"
     transform="translate(-8,-26)">
    <ellipse
       cx="218"
       cy="272"
       rx="41"
       ry="7"
       id="ellipse6"
       sodipodi:cx="218"
       sodipodi:cy="272"
       sodipodi:rx="41"
       sodipodi:ry="7"
       d="m 259,272 c 0,3.86599 -18.35633,7 -41,7 -22.64367,0 -41,-3.13401 -41,-7 0,-3.86599 18.35633,-7 41,-7 22.64367,0 41,3.13401 41,7 z" />
    <ellipse
       cx="209"
       cy="119"
       rx="30"
       ry="7"
       id="ellipse8"
       sodipodi:cx="209"
       sodipodi:cy="119"
       sodipodi:rx="30"
       sodipodi:ry="7"
       d="m 239,119 c 0,3.86599 -13.43146,7 -30,7 -16.56854,0 -30,-3.13401 -30,-7 0,-3.86599 13.43146,-7 30,-7 16.56854,0 30,3.13401 30,7 z" />
    <ellipse
       cx="215"
       cy="192"
       rx="36"
       ry="7"
       id="ellipse10"
       sodipodi:cx="215"
       sodipodi:cy="192"
       sodipodi:rx="36"
       sodipodi:ry="7"
       d="m 251,192 c 0,3.86599 -16.11775,7 -36,7 -19.88225,0 -36,-3.13401 -36,-7 0,-3.86599 16.11775,-7 36,-7 19.88225,0 36,3.13401 36,7 z" />
    <ellipse
       cx="212"
       cy="149"
       rx="31"
       ry="7"
       id="ellipse12"
       sodipodi:cx="212"
       sodipodi:cy="149"
       sodipodi:rx="31"
       sodipodi:ry="7"
       d="m 243,149 c 0,3.86599 -13.87917,7 -31,7 -17.12083,0 -31,-3.13401 -31,-7 0,-3.86599 13.87917,-7 31,-7 17.12083,0 31,3.13401 31,7 z" />
    <ellipse
       cx="203"
       cy="383"
       rx="23"
       ry="7"
       id="ellipse14"
       sodipodi:cx="203"
       sodipodi:cy="383"
       sodipodi:rx="23"
       sodipodi:ry="7"
       d="m 226,383 c 0,3.86599 -10.29745,7 -23,7 -12.70255,0 -23,-3.13401 -23,-7 0,-3.86599 10.29745,-7 23,-7 12.70255,0 23,3.13401 23,7 z" />
    <ellipse
       cx="205"
       cy="358"
       rx="23"
       ry="7"
       id="ellipse16"
       sodipodi:cx="205"
       sodipodi:cy="358"
       sodipodi:rx="23"
       sodipodi:ry="7"
       d="m 228,358 c 0,3.86599 -10.29745,7 -23,7 -12.70255,0 -23,-3.13401 -23,-7 0,-3.86599 10.29745,-7 23,-7 12.70255,0 23,3.13401 23,7 z" />
    <ellipse
       cx="206"
       cy="410"
       rx="26"
       ry="7"
       id="ellipse18"
       sodipodi:cx="206"
       sodipodi:cy="410"
       sodipodi:rx="26"
       sodipodi:ry="7"
       d="m 232,410 c 0,3.86599 -11.6406,7 -26,7 -14.3594,0 -26,-3.13401 -26,-7 0,-3.86599 11.6406,-7 26,-7 14.3594,0 26,3.13401 26,7 z" />
    <ellipse
       cx="219"
       cy="317"
       rx="39"
       ry="7"
       id="ellipse20"
       sodipodi:cx="219"
       sodipodi:cy="317"
       sodipodi:rx="39"
       sodipodi:ry="7"
       d="m 258,317 c 0,3.86599 -17.46089,7 -39,7 -21.53911,0 -39,-3.13401 -39,-7 0,-3.86599 17.46089,-7 39,-7 21.53911,0 39,3.13401 39,7 z" />
    <ellipse
       cx="207"
       cy="60"
       rx="28"
       ry="5"
       id="ellipse22"
       sodipodi:cx="207"
       sodipodi:cy="60"
       sodipodi:rx="28"
       sodipodi:ry="5"
       d="m 235,60 c 0,2.761424 -12.53603,5 -28,5 -15.46397,0 -28,-2.238576 -28,-5 0,-2.761424 12.53603,-5 28,-5 15.46397,0 28,2.238576 28,5 z" />
    <ellipse
       cx="230"
       cy="237"
       rx="53"
       ry="7"
       id="ellipse24"
       sodipodi:cx="230"
       sodipodi:cy="237"
       sodipodi:rx="53"
       sodipodi:ry="7"
       d="m 283,237 c 0,3.86599 -23.72891,7 -53,7 -29.27109,0 -53,-3.13401 -53,-7 0,-3.86599 23.72891,-7 53,-7 29.27109,0 53,3.13401 53,7 z" />
    <ellipse
       cx="221"
       cy="92"
       rx="42"
       ry="7"
       id="ellipse26"
       sodipodi:cx="221"
       sodipodi:cy="92"
       sodipodi:rx="42"
       sodipodi:ry="7"
       d="m 263,92 c 0,3.865993 -18.80404,7 -42,7 -23.19596,0 -42,-3.134007 -42,-7 0,-3.865993 18.80404,-7 42,-7 23.19596,0 42,3.134007 42,7 z" />
    <rect
       x="20"
       y="225"
       width="76"
       height="14"
       id="rect28" />
    <rect
       x="20"
       y="108"
       width="55"
       height="14"
       id="rect30" />
    <g
       style="fill:#f5f5ff;stroke:#ff8e00;stroke-width:1"
       id="g32">
      <line
         x1="96"
         y1="232"
         x2="177"
         y2="272"
         id="line34" />
      <line
         x1="96"
         y1="232"
         x2="105"
         y2="231"
         id="line36" />
      <line
         x1="96"
         y1="232"
         x2="100"
         y2="240"
         id="line38" />
      <line
         x1="96"
         y1="232"
         x2="179"
         y2="192"
         id="line40" />
      <line
         x1="96"
         y1="232"
         x2="100"
         y2="224"
         id="line42" />
      <line
         x1="96"
         y1="232"
         x2="105"
         y2="233"
         id="line44" />
      <line
         x1="96"
         y1="232"
         x2="181"
         y2="149"
         id="line46" />
      <line
         x1="96"
         y1="232"
         x2="97"
         y2="223"
         id="line48" />
      <line
         x1="96"
         y1="232"
         x2="105"
         y2="231"
         id="line50" />
      <line
         x1="96"
         y1="232"
         x2="180"
         y2="317"
         id="line52" />
      <line
         x1="96"
         y1="232"
         x2="105"
         y2="233"
         id="line54" />
      <line
         x1="96"
         y1="232"
         x2="97"
         y2="241"
         id="line56" />
      <line
         x1="96"
         y1="232"
         x2="177"
         y2="237"
         id="line58" />
      <line
         x1="96"
         y1="232"
         x2="104"
         y2="227"
         id="line60" />
      <line
         x1="96"
         y1="232"
         x2="103"
         y2="238"
         id="line62" />
    </g>
    <g
       style="fill:#f5f5ff;stroke:#b32851;stroke-width:1"
       id="g64">
      <line
         x1="74"
         y1="115"
         x2="179"
         y2="119"
         id="line66" />
      <line
         x1="74"
         y1="115"
         x2="82"
         y2="110"
         id="line68" />
      <line
         x1="74"
         y1="115"
         x2="81"
         y2="121"
         id="line70" />
      <line
         x1="74"
         y1="115"
         x2="179"
         y2="192"
         id="line72" />
      <line
         x1="74"
         y1="115"
         x2="83"
         y2="115"
         id="line74" />
      <line
         x1="74"
         y1="115"
         x2="77"
         y2="124"
         id="line76" />
      <line
         x1="74"
         y1="115"
         x2="181"
         y2="149"
         id="line78" />
      <line
         x1="74"
         y1="115"
         x2="83"
         y2="112"
         id="line80" />
      <line
         x1="74"
         y1="115"
         x2="79"
         y2="123"
         id="line82" />
      <line
         x1="74"
         y1="115"
         x2="179"
         y2="60"
         id="line84" />
      <line
         x1="74"
         y1="115"
         x2="78"
         y2="107"
         id="line86" />
      <line
         x1="74"
         y1="115"
         x2="83"
         y2="116"
         id="line88" />
      <line
         x1="74"
         y1="115"
         x2="179"
         y2="92"
         id="line90" />
      <line
         x1="74"
         y1="115"
         x2="80"
         y2="108"
         id="line92" />
      <line
         x1="74"
         y1="115"
         x2="83"
         y2="119"
         id="line94" />
    </g>
  </g>
  <g
     font-size="10.000000"
     id="g96"
     transform="translate(-8,-26)"
     style="font-size:10px;stroke:none">
    <text
       x="179"
       y="274"
       id="text98">getCompileArgs</text>
    <text
       x="181"
       y="121"
       id="text100">getLinkArgs</text>
    <text
       x="181"
       y="194"
       id="text102">loadFromMap</text>
    <text
       x="183"
       y="151"
       id="text104">saveToMap</text>
    <text
       x="182"
       y="385"
       id="text106">Package</text>
    <text
       x="184"
       y="360"
       id="text108">Package</text>
    <text
       x="182"
       y="412"
       id="text110">~Package</text>
    <text
       x="182"
       y="319"
       id="text112">setCompileInfo</text>
    <text
       x="181"
       y="64"
       id="text114">setLinkInfo</text>
    <text
       x="179"
       y="239"
       id="text116">getCompileArgsAsStr</text>
    <text
       x="181"
       y="94"
       id="text118">getLinkArgsAsStr</text>
    <text
       x="22"
       y="234"
       id="text120">mCompileArgs</text>
    <text
       x="22"
       y="117"
       id="text122">mLinkArgs</text>
  </g>
</svg>
