<svg xmlns="http://www.w3.org/2000/svg" version="1.1" width="1035" height="793">
<g  fill="#f5f5ff" stroke="#000000" style="stroke-width:1">
<ellipse cx="262" cy="383" rx="15" ry="5" />
<ellipse cx="974" cy="518" rx="48" ry="5" />
<ellipse cx="321" cy="342" rx="75" ry="5" />
<ellipse cx="952" cy="393" rx="28" ry="5" />
<ellipse cx="977" cy="236" rx="53" ry="7" />
<ellipse cx="286" cy="606" rx="69" ry="5" />
<ellipse cx="313" cy="774" rx="69" ry="7" />
<ellipse cx="297" cy="213" rx="51" ry="5" />
<ellipse cx="747" cy="147" rx="63" ry="7" />
<ellipse cx="306" cy="100" rx="63" ry="7" />
<ellipse cx="305" cy="41" rx="63" ry="7" />
<ellipse cx="524" cy="59" rx="51" ry="7" />
<ellipse cx="519" cy="591" rx="47" ry="7" />
<ellipse cx="500" cy="354" rx="28" ry="5" />
<ellipse cx="265" cy="552" rx="20" ry="5" />
<ellipse cx="287" cy="318" rx="41" ry="5" />
<ellipse cx="710" cy="350" rx="32" ry="7" />
<ellipse cx="183" cy="650" rx="38" ry="7" />
<ellipse cx="304" cy="682" rx="49" ry="5" />
<ellipse cx="211" cy="713" rx="46" ry="5" />
<ellipse cx="273" cy="491" rx="27" ry="7" />
<rect x="21" y="79" width="66" height="11" />
<rect x="21" y="774" width="75" height="14" />
<rect x="23" y="386" width="57" height="11" />
<rect x="22" y="572" width="62" height="14" />
<rect x="23" y="696" width="68" height="11" />
<rect x="21" y="635" width="86" height="11" />
<rect x="23" y="436" width="72" height="14" />
<rect x="23" y="478" width="109" height="11" />
<rect x="23" y="336" width="66" height="14" />
<rect x="22" y="514" width="126" height="11" />
<rect x="473" y="763" width="23" height="11" />
<g  fill="#f5f5ff" stroke="#ff6800" style="stroke-width:1">
<line x1="54" y1="89" x2="262" y2="378" />
<line x1="54" y1="89" x2="63" y2="92" />
<line x1="54" y1="89" x2="54" y2="98" />
<line x1="87" y1="84" x2="926" y2="518" />
<line x1="87" y1="84" x2="96" y2="83" />
<line x1="87" y1="84" x2="91" y2="92" />
<line x1="87" y1="84" x2="924" y2="393" />
<line x1="87" y1="84" x2="96" y2="82" />
<line x1="87" y1="84" x2="92" y2="92" />
<line x1="87" y1="84" x2="246" y2="213" />
<line x1="87" y1="84" x2="96" y2="84" />
<line x1="87" y1="84" x2="89" y2="93" />
<line x1="87" y1="84" x2="684" y2="147" />
<line x1="87" y1="84" x2="95" y2="80" />
<line x1="87" y1="84" x2="94" y2="90" />
<line x1="87" y1="84" x2="243" y2="100" />
<line x1="87" y1="84" x2="95" y2="79" />
<line x1="87" y1="84" x2="94" y2="90" />
<line x1="87" y1="84" x2="243" y2="100" />
<line x1="87" y1="84" x2="95" y2="79" />
<line x1="87" y1="84" x2="94" y2="90" />
<line x1="87" y1="84" x2="473" y2="59" />
<line x1="87" y1="84" x2="94" y2="78" />
<line x1="87" y1="84" x2="95" y2="89" />
<line x1="54" y1="89" x2="287" y2="313" />
<line x1="54" y1="89" x2="63" y2="90" />
<line x1="54" y1="89" x2="55" y2="98" />
<line x1="87" y1="84" x2="678" y2="350" />
<line x1="87" y1="84" x2="96" y2="82" />
<line x1="87" y1="84" x2="91" y2="92" />
</g>
<g  fill="#f5f5ff" stroke="#a6bdd7" style="stroke-width:1">
<line x1="58" y1="774" x2="262" y2="388" />
<line x1="58" y1="774" x2="57" y2="765" />
<line x1="58" y1="774" x2="66" y2="770" />
<line x1="95" y1="781" x2="244" y2="774" />
<line x1="95" y1="781" x2="102" y2="775" />
<line x1="95" y1="781" x2="103" y2="786" />
<line x1="95" y1="781" x2="472" y2="591" />
<line x1="95" y1="781" x2="99" y2="773" />
<line x1="95" y1="781" x2="104" y2="782" />
</g>
<g  fill="#f5f5ff" stroke="#cea262" style="stroke-width:1">
<line x1="79" y1="391" x2="926" y2="518" />
<line x1="79" y1="391" x2="87" y2="387" />
<line x1="79" y1="391" x2="86" y2="398" />
<line x1="79" y1="391" x2="924" y2="393" />
<line x1="79" y1="391" x2="87" y2="386" />
<line x1="79" y1="391" x2="87" y2="396" />
<line x1="79" y1="391" x2="472" y2="354" />
<line x1="79" y1="391" x2="86" y2="385" />
<line x1="79" y1="391" x2="87" y2="396" />
<line x1="79" y1="391" x2="246" y2="491" />
<line x1="79" y1="391" x2="88" y2="391" />
<line x1="79" y1="391" x2="82" y2="400" />
</g>
<g  fill="#f5f5ff" stroke="#817066" style="stroke-width:1">
<line x1="84" y1="579" x2="926" y2="518" />
<line x1="84" y1="579" x2="91" y2="573" />
<line x1="84" y1="579" x2="92" y2="584" />
<line x1="84" y1="579" x2="924" y2="393" />
<line x1="84" y1="579" x2="90" y2="572" />
<line x1="84" y1="579" x2="93" y2="582" />
<line x1="84" y1="579" x2="924" y2="236" />
<line x1="84" y1="579" x2="89" y2="571" />
<line x1="84" y1="579" x2="93" y2="581" />
<line x1="84" y1="579" x2="217" y2="606" />
<line x1="84" y1="579" x2="93" y2="575" />
<line x1="84" y1="579" x2="90" y2="586" />
<line x1="84" y1="579" x2="472" y2="591" />
<line x1="84" y1="579" x2="92" y2="574" />
<line x1="84" y1="579" x2="91" y2="585" />
<line x1="84" y1="579" x2="246" y2="491" />
<line x1="84" y1="579" x2="88" y2="570" />
<line x1="84" y1="579" x2="93" y2="580" />
</g>
<g  fill="#f5f5ff" stroke="#007d34" style="stroke-width:1">
<line x1="91" y1="701" x2="217" y2="606" />
<line x1="91" y1="701" x2="93" y2="692" />
<line x1="91" y1="701" x2="100" y2="701" />
<line x1="91" y1="701" x2="472" y2="591" />
<line x1="91" y1="701" x2="97" y2="694" />
<line x1="91" y1="701" x2="100" y2="704" />
<line x1="91" y1="701" x2="255" y2="682" />
<line x1="91" y1="701" x2="98" y2="695" />
<line x1="91" y1="701" x2="99" y2="705" />
<line x1="91" y1="701" x2="165" y2="713" />
<line x1="91" y1="701" x2="99" y2="697" />
<line x1="91" y1="701" x2="98" y2="708" />
<line x1="91" y1="701" x2="246" y2="491" />
<line x1="91" y1="701" x2="91" y2="692" />
<line x1="91" y1="701" x2="100" y2="698" />
</g>
<g  fill="#f5f5ff" stroke="#f6768e" style="stroke-width:1">
<line x1="107" y1="640" x2="217" y2="606" />
<line x1="107" y1="640" x2="112" y2="632" />
<line x1="107" y1="640" x2="116" y2="643" />
<line x1="107" y1="640" x2="145" y2="650" />
<line x1="107" y1="640" x2="116" y2="637" />
<line x1="107" y1="640" x2="113" y2="647" />
</g>
<g  fill="#f5f5ff" stroke="#00538a" style="stroke-width:1">
<line x1="95" y1="443" x2="247" y2="383" />
<line x1="95" y1="443" x2="100" y2="435" />
<line x1="95" y1="443" x2="104" y2="445" />
<line x1="95" y1="443" x2="926" y2="518" />
<line x1="95" y1="443" x2="103" y2="438" />
<line x1="95" y1="443" x2="102" y2="449" />
<line x1="95" y1="443" x2="924" y2="393" />
<line x1="95" y1="443" x2="102" y2="437" />
<line x1="95" y1="443" x2="103" y2="448" />
<line x1="95" y1="443" x2="472" y2="591" />
<line x1="95" y1="443" x2="104" y2="441" />
<line x1="95" y1="443" x2="100" y2="451" />
<line x1="95" y1="443" x2="246" y2="318" />
<line x1="95" y1="443" x2="97" y2="434" />
<line x1="95" y1="443" x2="104" y2="443" />
</g>
<g  fill="#f5f5ff" stroke="#ff7a5c" style="stroke-width:1">
<line x1="131" y1="483" x2="924" y2="393" />
<line x1="131" y1="483" x2="138" y2="477" />
<line x1="131" y1="483" x2="139" y2="487" />
<line x1="131" y1="483" x2="472" y2="354" />
<line x1="131" y1="483" x2="136" y2="475" />
<line x1="131" y1="483" x2="140" y2="485" />
</g>
<g  fill="#f5f5ff" stroke="#53377a" style="stroke-width:1">
<line x1="89" y1="343" x2="247" y2="383" />
<line x1="89" y1="343" x2="98" y2="340" />
<line x1="89" y1="343" x2="95" y2="350" />
<line x1="89" y1="343" x2="246" y2="342" />
<line x1="89" y1="343" x2="97" y2="338" />
<line x1="89" y1="343" x2="97" y2="348" />
</g>
<g  fill="#f5f5ff" stroke="#ff8e00" style="stroke-width:1">
<line x1="148" y1="519" x2="246" y2="491" />
<line x1="148" y1="519" x2="154" y2="512" />
<line x1="148" y1="519" x2="157" y2="522" />
</g>
<g  fill="#f5f5ff" stroke="#b32851" style="stroke-width:1">
<line x1="484" y1="763" x2="262" y2="388" />
<line x1="484" y1="763" x2="475" y2="760" />
<line x1="484" y1="763" x2="484" y2="754" />
<line x1="495" y1="768" x2="926" y2="518" />
<line x1="495" y1="768" x2="499" y2="759" />
<line x1="495" y1="768" x2="504" y2="769" />
<line x1="495" y1="768" x2="924" y2="393" />
<line x1="495" y1="768" x2="497" y2="759" />
<line x1="495" y1="768" x2="504" y2="768" />
<line x1="484" y1="763" x2="977" y2="243" />
<line x1="484" y1="763" x2="485" y2="754" />
<line x1="484" y1="763" x2="493" y2="762" />
<line x1="473" y1="768" x2="355" y2="606" />
<line x1="473" y1="768" x2="464" y2="765" />
<line x1="473" y1="768" x2="473" y2="759" />
<line x1="484" y1="763" x2="297" y2="218" />
<line x1="484" y1="763" x2="476" y2="758" />
<line x1="484" y1="763" x2="486" y2="754" />
<line x1="484" y1="763" x2="747" y2="154" />
<line x1="484" y1="763" x2="482" y2="754" />
<line x1="484" y1="763" x2="492" y2="758" />
<line x1="484" y1="763" x2="524" y2="66" />
<line x1="484" y1="763" x2="479" y2="755" />
<line x1="484" y1="763" x2="490" y2="756" />
<line x1="484" y1="763" x2="519" y2="598" />
<line x1="484" y1="763" x2="480" y2="754" />
<line x1="484" y1="763" x2="491" y2="757" />
<line x1="484" y1="763" x2="500" y2="359" />
<line x1="484" y1="763" x2="479" y2="755" />
<line x1="484" y1="763" x2="490" y2="756" />
<line x1="484" y1="763" x2="710" y2="357" />
<line x1="484" y1="763" x2="483" y2="754" />
<line x1="484" y1="763" x2="493" y2="759" />
<line x1="473" y1="768" x2="353" y2="682" />
<line x1="473" y1="768" x2="464" y2="768" />
<line x1="473" y1="768" x2="470" y2="759" />
<line x1="473" y1="768" x2="257" y2="713" />
<line x1="473" y1="768" x2="464" y2="771" />
<line x1="473" y1="768" x2="467" y2="761" />
</g>
<g  fill="#f5f5ff" stroke="#f4c800" style="stroke-width:1">
<line x1="528" y1="354" x2="926" y2="518" />
<line x1="528" y1="354" x2="537" y2="352" />
<line x1="528" y1="354" x2="533" y2="362" />
<line x1="528" y1="354" x2="926" y2="518" />
<line x1="528" y1="354" x2="537" y2="352" />
<line x1="528" y1="354" x2="533" y2="362" />
<line x1="528" y1="354" x2="926" y2="518" />
<line x1="528" y1="354" x2="537" y2="352" />
<line x1="528" y1="354" x2="533" y2="362" />
</g>
<g  fill="#f5f5ff" stroke="#593315" style="stroke-width:1">
<line x1="742" y1="350" x2="926" y2="518" />
<line x1="742" y1="350" x2="751" y2="351" />
<line x1="742" y1="350" x2="744" y2="359" />
</g>
<g  fill="#f5f5ff" stroke="#7f180d" style="stroke-width:1">
<line x1="285" y1="552" x2="926" y2="518" />
<line x1="285" y1="552" x2="292" y2="546" />
<line x1="285" y1="552" x2="293" y2="557" />
</g>
<g  fill="#f5f5ff" stroke="#f6768e" style="stroke-width:1">
<line x1="348" y1="213" x2="926" y2="518" />
<line x1="348" y1="213" x2="357" y2="212" />
<line x1="348" y1="213" x2="352" y2="221" />
</g>
<g  fill="#f5f5ff" stroke="#b32851" style="stroke-width:1">
<line x1="566" y1="591" x2="926" y2="518" />
<line x1="566" y1="591" x2="572" y2="584" />
<line x1="566" y1="591" x2="575" y2="595" />
</g>
<g  fill="#f5f5ff" stroke="#ff7a5c" style="stroke-width:1">
<line x1="369" y1="100" x2="924" y2="393" />
<line x1="369" y1="100" x2="378" y2="99" />
<line x1="369" y1="100" x2="373" y2="108" />
<line x1="369" y1="100" x2="924" y2="393" />
<line x1="369" y1="100" x2="378" y2="99" />
<line x1="369" y1="100" x2="373" y2="108" />
</g>
<g  fill="#f5f5ff" stroke="#b32851" style="stroke-width:1">
<line x1="566" y1="591" x2="924" y2="393" />
<line x1="566" y1="591" x2="570" y2="582" />
<line x1="566" y1="591" x2="575" y2="592" />
</g>
<g  fill="#f5f5ff" stroke="#00538a" style="stroke-width:1">
<line x1="747" y1="154" x2="952" y2="388" />
<line x1="747" y1="154" x2="756" y2="156" />
<line x1="747" y1="154" x2="747" y2="163" />
<line x1="810" y1="147" x2="924" y2="236" />
<line x1="810" y1="147" x2="819" y2="147" />
<line x1="810" y1="147" x2="812" y2="156" />
</g>
<g  fill="#f5f5ff" stroke="#232c16" style="stroke-width:1">
<line x1="304" y1="677" x2="286" y2="611" />
<line x1="304" y1="677" x2="297" y2="671" />
<line x1="304" y1="677" x2="307" y2="668" />
<line x1="304" y1="677" x2="286" y2="611" />
<line x1="304" y1="677" x2="297" y2="671" />
<line x1="304" y1="677" x2="307" y2="668" />
</g>
<g  fill="#f5f5ff" stroke="#f13a13" style="stroke-width:1">
<line x1="221" y1="650" x2="217" y2="606" />
<line x1="221" y1="650" x2="215" y2="643" />
<line x1="221" y1="650" x2="226" y2="642" />
</g>
<g  fill="#f5f5ff" stroke="#232c16" style="stroke-width:1">
<line x1="304" y1="677" x2="286" y2="611" />
<line x1="304" y1="677" x2="297" y2="671" />
<line x1="304" y1="677" x2="307" y2="668" />
<line x1="304" y1="677" x2="286" y2="611" />
<line x1="304" y1="677" x2="297" y2="671" />
<line x1="304" y1="677" x2="307" y2="668" />
<line x1="304" y1="677" x2="286" y2="611" />
<line x1="304" y1="677" x2="297" y2="671" />
<line x1="304" y1="677" x2="307" y2="668" />
</g>
<g  fill="#f5f5ff" stroke="#ffb300" style="stroke-width:1">
<line x1="211" y1="708" x2="286" y2="611" />
<line x1="211" y1="708" x2="211" y2="699" />
<line x1="211" y1="708" x2="220" y2="706" />
</g>
<g  fill="#f5f5ff" stroke="#00538a" style="stroke-width:1">
<line x1="684" y1="147" x2="355" y2="606" />
<line x1="684" y1="147" x2="684" y2="156" />
<line x1="684" y1="147" x2="675" y2="150" />
</g>
<g  fill="#f5f5ff" stroke="#817066" style="stroke-width:1">
<line x1="286" y1="611" x2="286" y2="601" />
<line x1="286" y1="611" x2="281" y2="603" />
<line x1="286" y1="611" x2="291" y2="603" />
<line x1="286" y1="611" x2="286" y2="601" />
<line x1="286" y1="611" x2="281" y2="603" />
<line x1="286" y1="611" x2="291" y2="603" />
</g>
<g  fill="#f5f5ff" stroke="#00538a" style="stroke-width:1">
<line x1="684" y1="147" x2="355" y2="606" />
<line x1="684" y1="147" x2="684" y2="156" />
<line x1="684" y1="147" x2="675" y2="150" />
<line x1="684" y1="147" x2="355" y2="606" />
<line x1="684" y1="147" x2="684" y2="156" />
<line x1="684" y1="147" x2="675" y2="150" />
<line x1="684" y1="147" x2="355" y2="606" />
<line x1="684" y1="147" x2="684" y2="156" />
<line x1="684" y1="147" x2="675" y2="150" />
</g>
<g  fill="#f5f5ff" stroke="#ff8e00" style="stroke-width:1">
<line x1="575" y1="59" x2="684" y2="147" />
<line x1="575" y1="59" x2="584" y2="59" />
<line x1="575" y1="59" x2="577" y2="68" />
</g>
<g  fill="#f5f5ff" stroke="#f6768e" style="stroke-width:1">
<line x1="348" y1="213" x2="473" y2="59" />
<line x1="348" y1="213" x2="348" y2="204" />
<line x1="348" y1="213" x2="357" y2="211" />
</g>
<g  fill="#f5f5ff" stroke="#ff7a5c" style="stroke-width:1">
<line x1="306" y1="107" x2="519" y2="584" />
<line x1="306" y1="107" x2="314" y2="111" />
<line x1="306" y1="107" x2="304" y2="116" />
</g>
<g  fill="#f5f5ff" stroke="#f6768e" style="stroke-width:1">
<line x1="348" y1="213" x2="472" y2="354" />
<line x1="348" y1="213" x2="357" y2="215" />
<line x1="348" y1="213" x2="348" y2="222" />
</g>
<g  fill="#f5f5ff" stroke="#93aa00" style="stroke-width:1">
<line x1="328" y1="318" x2="472" y2="354" />
<line x1="328" y1="318" x2="337" y2="315" />
<line x1="328" y1="318" x2="334" y2="325" />
</g>
<g  fill="#f5f5ff" stroke="#ff8e00" style="stroke-width:1">
<line x1="524" y1="66" x2="710" y2="343" />
<line x1="524" y1="66" x2="533" y2="69" />
<line x1="524" y1="66" x2="524" y2="75" />
</g>
<g  fill="#f5f5ff" stroke="#93aa00" style="stroke-width:1">
<line x1="328" y1="318" x2="678" y2="350" />
<line x1="328" y1="318" x2="336" y2="313" />
<line x1="328" y1="318" x2="335" y2="324" />
</g>
<g  fill="#f5f5ff" stroke="#ff7a5c" style="stroke-width:1">
<line x1="369" y1="100" x2="678" y2="350" />
<line x1="369" y1="100" x2="378" y2="100" />
<line x1="369" y1="100" x2="371" y2="109" />
</g>
<g  fill="#f5f5ff" stroke="#f13a13" style="stroke-width:1">
<line x1="221" y1="650" x2="255" y2="682" />
<line x1="221" y1="650" x2="230" y2="651" />
<line x1="221" y1="650" x2="222" y2="659" />
</g>
<g  fill="#f5f5ff" stroke="#817066" style="stroke-width:1">
<line x1="286" y1="611" x2="304" y2="677" />
<line x1="286" y1="611" x2="293" y2="617" />
<line x1="286" y1="611" x2="283" y2="620" />
<line x1="286" y1="611" x2="304" y2="677" />
<line x1="286" y1="611" x2="293" y2="617" />
<line x1="286" y1="611" x2="283" y2="620" />
<line x1="286" y1="611" x2="211" y2="708" />
<line x1="286" y1="611" x2="286" y2="620" />
<line x1="286" y1="611" x2="277" y2="613" />
<line x1="286" y1="611" x2="211" y2="708" />
<line x1="286" y1="611" x2="286" y2="620" />
<line x1="286" y1="611" x2="277" y2="613" />
</g>
</g>
<g font-size="10.000000" stroke="none">
<text x="249" y="387">parse</text>
<text x="928" y="522">visitTranslationUnit</text>
<text x="248" y="346">visitTranslationUnitForIncludes</text>
<text x="926" y="397">visitRecord</text>
<text x="926" y="238">visitFunctionAddArgs</text>
<text x="219" y="610">visitFunctionAddStatements</text>
<text x="246" y="776">visitFunctionAddDupHashes</text>
<text x="248" y="217">createOrGetClassRef</text>
<text x="686" y="149">createOrGetBaseTypeRef</text>
<text x="245" y="102">createOrGetDataTypeRef</text>
<text x="244" y="43">createOrGetDataTypeRef</text>
<text x="475" y="61">createOrGetTypedef</text>
<text x="474" y="593">addOperationParts</text>
<text x="474" y="358">addRecord</text>
<text x="247" y="556">addVar</text>
<text x="248" y="322">addClassFileLoc</text>
<text x="680" y="352">addTypedef</text>
<text x="147" y="652">buildCondExpr</text>
<text x="257" y="686">addCondStatement</text>
<text x="167" y="717">addElseStatement</text>
<text x="248" y="493">CppParser</text>
<text x="23" y="88">mModelData</text>
<text x="23" y="783">mDupHashFile</text>
<text x="25" y="395">mClassifier</text>
<text x="24" y="581">mOperation</text>
<text x="25" y="705">mStatements</text>
<text x="23" y="644">mSwitchContexts</text>
<text x="25" y="445">mTopParseFn</text>
<text x="25" y="487">mClassMemberAccess</text>
<text x="25" y="345">mIncDirDeps</text>
<text x="24" y="523">mStatementRecurseLevel</text>
<text x="475" y="772">this</text>
</g>
</svg>