<svg xmlns="http://www.w3.org/2000/svg" version="1.1"
 font-family="Arial, Helvetica, sans-serif" font-size="10.00" width="600" height="766" viewbox="0 0 600 766">
<g  fill="#f5fff5" stroke="#000000" style="stroke-width:1">
<rect x="467" y="182" width="129" height="143" />
<line x1="467" y1="195" x2="596" y2="195" />
<polygon points="580,203 592,208 592,198 580,203 " style="fill:#ffffff" />
<polygon points="580,217 587,221 594,217 587,213 580,217 " style="fill:#ffffff" />
<polygon points="580,231 587,235 594,231 587,227 580,231 " style="fill:#000000" />
<polygon points="580,245 588,250 584,245 588,240 580,245 " style="fill:#ffffff" />
<circle cx="580" cy="259" r="5" style="fill:#ffffff" />
<circle cx="580" cy="273" r="5" style="fill:#ffffff" />
<circle cx="587" cy="273" r="2" style="fill:#ffffff" />
<circle cx="580" cy="287" r="5" style="fill:#ffffff" />
<circle cx="580" cy="287" r="2" style="fill:#ffffff" />
<circle cx="580" cy="301" r="5" style="fill:#ffffff" />
<circle cx="580" cy="301" r="2" style="fill:#000000" />
<circle cx="580" cy="315" r="5" style="fill:#000000" />
<circle cx="580" cy="315" r="2" style="fill:#000000" />
</g>
<g stroke="none">
<text x="468" y="191">Relations Key</text>
<text x="468" y="205">Generalization</text>
<text x="468" y="219">Aggregation(reference)</text>
<text x="468" y="233">Composition(owned)</text>
<text x="468" y="247">Const</text>
<text x="468" y="261">Method Variable</text>
<text x="468" y="275">Method Parameter</text>
<text x="468" y="289">Public</text>
<text x="468" y="303">Protected</text>
<text x="468" y="317">Private</text>
</g>
<g  fill="#f5fff5" stroke="#000000" style="stroke-width:1">
<rect x="11" y="11" width="436" height="377" />
<line x1="11" y1="32" x2="447" y2="32" />
<line x1="11" y1="89" x2="447" y2="89" />
</g>
<g stroke="none">
<text x="12" y="20">ClassDiagramView</text>
<text x="12" y="29">oovaide</text>
<text x="12" y="41">-GuiOptions mGuiOptions</text>
<text x="12" y="50">-ClassDiagram mClassDiagram</text>
<text x="12" y="59">-GtkCairoContext mCairoContext</text>
<text x="12" y="68">-NullDrawer mNullDrawer</text>
<text x="12" y="77">-ClassDiagramListener mListener</text>
<text x="12" y="86">-ForegroundThreadBusyDialog mForegroundBusyDialog</text>
<text x="12" y="98">+initialize(ModelData modelData, ClassDiagramListener listener, OovTaskStatusListener</text>
<text x="19" y="107"> taskStatusListener)</text>
<text x="12" y="116">+buttonPressEvent(GdkEventButton&lt;&lt;typedef&gt;&gt; event)</text>
<text x="12" y="125">+buttonReleaseEvent(GdkEventButton&lt;&lt;typedef&gt;&gt; event)</text>
<text x="12" y="134">+drawToDrawingArea()</text>
<text x="12" y="143">+drawSvgDiagram(File file)</text>
<text x="12" y="152">+updateGraph(bool reposition)</text>
<text x="12" y="161">+gotoClass(OovStringRef className)</text>
<text x="12" y="170">+displayListContextMenu(guint&lt;&lt;typedef&gt;&gt; button, guint32&lt;&lt;typedef&gt;&gt; acttime,</text>
<text x="19" y="179"> gpointer&lt;&lt;typedef&gt;&gt; data)</text>
<text x="12" y="188">+displayAddClassDialog()</text>
<text x="12" y="197">+selectAddClass(ModelType type, ClassGraph::eAddNodeTypes addType)</text>
<text x="12" y="206">+viewSource(OovStringRef module, unsigned int lineNum)</text>
<text x="12" y="215">-displayDrawContextMenu(guint&lt;&lt;typedef&gt;&gt; button, guint32&lt;&lt;typedef&gt;&gt; acttime,</text>
<text x="19" y="224"> gpointer&lt;&lt;typedef&gt;&gt; data)</text>
<text x="12" y="233">-updateDrawingAreaSize()</text>
<text x="12" y="242">+ClassDiagramView(GuiOptions guiOptions)</text>
<text x="12" y="251">+~ClassDiagramView()</text>
<text x="12" y="260">+clearGraphAndAddClass(OovStringRef className, ClassGraph::eAddNodeTypes addType)</text>
<text x="12" y="269">+addClass(OovStringRef className, ClassGraph::eAddNodeTypes addType, depth, </text>
<text x="19" y="278">bool reposition)</text>
<text x="12" y="287">+saveDiagram(File file)</text>
<text x="12" y="296">+loadDiagram(File file)</text>
<text x="12" y="305">+isModified()</text>
<text x="12" y="314">+requestRedraw()</text>
<text x="12" y="323">+getDiagram()</text>
<text x="12" y="332">+getNode(x, y)</text>
<text x="12" y="341">+getGuiOptions()</text>
<text x="12" y="350">+setFontSize(size)</text>
<text x="12" y="359">+getFontSize()</text>
<text x="12" y="368">-getDiagramWidget()</text>
<text x="12" y="377">-setCairoContext()</text>
</g>
<g stroke="none" font-style="italic">
<text x="12" y="386">-doneRepositioning()</text>
</g>
<g  fill="#f5fff5" stroke="#000000" style="stroke-width:1">
<rect x="28" y="593" width="67" height="26" />
<line x1="28" y1="614" x2="95" y2="614" />
<line x1="28" y1="617" x2="95" y2="617" />
</g>
<g stroke="none">
<text x="29" y="602">ClassDiagram</text>
<text x="29" y="611">oovaide/BLL</text>
</g>
<g stroke="none" font-style="italic">
</g>
<g  fill="#f5fff5" stroke="#000000" style="stroke-width:1">
<rect x="362" y="486" width="235" height="80" />
<line x1="362" y1="507" x2="597" y2="507" />
<line x1="362" y1="519" x2="597" y2="519" />
</g>
<g stroke="none">
<text x="363" y="495">GtkCairoContext</text>
<text x="363" y="504">oovaide</text>
<text x="363" y="516">-cairo_t&lt;&lt;typedef&gt;&gt; mCr</text>
<text x="363" y="528">+GtkCairoContext(GtkWidget&lt;&lt;typedef&gt;&gt; widget)</text>
<text x="363" y="537">+setContext(GtkWidget&lt;&lt;typedef&gt;&gt; widget)</text>
<text x="363" y="546">+clear()</text>
<text x="363" y="555">+~GtkCairoContext()</text>
<text x="363" y="564">+getCairo()</text>
</g>
<g stroke="none" font-style="italic">
</g>
<g  fill="#f5fff5" stroke="#000000" style="stroke-width:1">
<rect x="384" y="613" width="215" height="152" />
<line x1="384" y1="634" x2="599" y2="634" />
<line x1="384" y1="646" x2="599" y2="646" />
</g>
<g stroke="none">
<text x="385" y="622">NullDrawer</text>
<text x="385" y="631">oovaide</text>
<text x="385" y="643">#cairo_t&lt;&lt;typedef&gt;&gt; cr</text>
<text x="385" y="682">+NullDrawer(Diagram diagram, cairo_t&lt;</text>
<text x="392" y="691">&lt;typedef&gt;&gt; c)</text>
<text x="385" y="700">+setGraphicsLib(cairo_t&lt;&lt;typedef&gt;&gt; c)</text>
</g>
<g stroke="none" font-style="italic">
<text x="385" y="655">+setCurrentDrawingFontSize(double size)</text>
<text x="385" y="664">+getTextExtentWidth(OovStringRef )</text>
<text x="385" y="673">+getTextExtentHeight(OovStringRef )</text>
<text x="385" y="709">+setDiagramSize(GraphSize&lt;&lt;typedef&gt;&gt; )</text>
<text x="385" y="718">+drawRect(GraphRect )</text>
<text x="385" y="727">+drawLine(GraphPoint , GraphPoint , bool )</text>
<text x="385" y="736">+drawCircle(GraphPoint , , Color )</text>
<text x="385" y="745">+drawEllipse(GraphRect )</text>
<text x="385" y="754">+drawPoly(OovPolygon&lt;&lt;typedef&gt;&gt; , Color )</text>
<text x="385" y="763">+drawText(GraphPoint , OovStringRef )</text>
</g>
<g  fill="#f5fff5" stroke="#000000" style="stroke-width:1">
<rect x="418" y="407" width="179" height="44" />
<line x1="418" y1="428" x2="597" y2="428" />
<line x1="418" y1="431" x2="597" y2="431" />
</g>
<g stroke="none">
<text x="419" y="416">ClassDiagramListener</text>
<text x="419" y="425">oovaide</text>
</g>
<g stroke="none" font-style="italic">
<text x="419" y="440">+~ClassDiagramListener()</text>
<text x="419" y="449">+gotoClass(OovStringRef className)</text>
</g>
<g  fill="#f5fff5" stroke="#000000" style="stroke-width:1">
<rect x="128" y="658" width="195" height="98" />
<line x1="128" y1="679" x2="323" y2="679" />
<line x1="128" y1="691" x2="323" y2="691" />
</g>
<g stroke="none">
<text x="129" y="667">ForegroundThreadBusyDialog</text>
<text x="129" y="676">oovaide</text>
<text x="129" y="688">-TaskBusyDialog mDialog</text>
</g>
<g stroke="none" font-style="italic">
<text x="129" y="700">+startTask(OovStringRef text,</text>
<text x="136" y="709"> size_t&lt;&lt;typedef&gt;&gt; totalIterations)</text>
<text x="129" y="718">+updateProgressIteration(OovTaskStatus</text>
<text x="136" y="727">ListenerId&lt;&lt;typedef&gt;&gt; id, size_t&lt;</text>
<text x="136" y="736">&lt;typedef&gt;&gt; i, OovStringRef text)</text>
<text x="129" y="745">+endTask(OovTaskStatusListenerId&lt;</text>
<text x="136" y="754">&lt;typedef&gt;&gt; id)</text>
</g>
<g  fill="#f5fff5" stroke="#000000" style="stroke-width:1">
<rect x="16" y="407" width="94" height="26" />
<line x1="16" y1="428" x2="110" y2="428" />
<line x1="16" y1="431" x2="110" y2="431" />
</g>
<g stroke="none">
<text x="17" y="416">ClassGraphListener</text>
<text x="17" y="425">oovaide/BLL</text>
</g>
<g stroke="none" font-style="italic">
</g>
<g  fill="#f5fff5" stroke="#000000" style="stroke-width:1">
<rect x="182" y="568" width="63" height="26" />
<line x1="182" y1="589" x2="245" y2="589" />
<line x1="182" y1="592" x2="245" y2="592" />
</g>
<g stroke="none">
<text x="183" y="577">ModelData</text>
<text x="183" y="586">oovCommon</text>
</g>
<g stroke="none" font-style="italic">
</g>
<g  fill="#f5fff5" stroke="#000000" style="stroke-width:1">
<rect x="128" y="476" width="64" height="26" />
<line x1="128" y1="497" x2="192" y2="497" />
<line x1="128" y1="500" x2="192" y2="500" />
</g>
<g stroke="none">
<text x="129" y="485">ClassGraph</text>
<text x="129" y="494">oovaide/BLL</text>
</g>
<g stroke="none" font-style="italic">
</g>
<g  fill="#f5fff5" stroke="#000000" style="stroke-width:1">
<rect x="252" y="422" width="110" height="26" />
<line x1="252" y1="443" x2="362" y2="443" />
<line x1="252" y1="446" x2="362" y2="446" />
</g>
<g stroke="none">
<text x="253" y="431">OovTaskStatusListener</text>
<text x="253" y="440">oovCommon</text>
</g>
<g stroke="none" font-style="italic">
</g>
<g  fill="#f5fff5" stroke="#000000" style="stroke-width:1">
<rect x="279" y="607" width="76" height="26" />
<line x1="279" y1="628" x2="355" y2="628" />
<line x1="279" y1="631" x2="355" y2="631" />
</g>
<g stroke="none">
<text x="280" y="616">DiagramDrawer</text>
<text x="280" y="625">oovaide/BLL</text>
</g>
<g stroke="none" font-style="italic">
</g>
<g  fill="#f5f5ff" stroke="#000000" style="stroke-width:1">
<line x1="152" y1="387" x2="66" y2="593" />
<circle cx="146" cy="399" r="5" style="fill:#ffffff" />
<circle cx="140" cy="414" r="5" style="fill:#000000" />
<circle cx="140" cy="414" r="2" style="fill:#000000" />
<polygon points="152,387 145,392 147,399 153,395 152,387 " style="fill:#000000" />
<line x1="372" y1="387" x2="449" y2="486" />
<circle cx="380" cy="398" r="5" style="fill:#ffffff" />
<circle cx="390" cy="410" r="5" style="fill:#000000" />
<circle cx="390" cy="410" r="2" style="fill:#000000" />
<polygon points="372,387 373,395 380,398 380,390 372,387 " style="fill:#000000" />
<line x1="329" y1="387" x2="451" y2="613" />
<circle cx="335" cy="399" r="5" style="fill:#ffffff" />
<circle cx="343" cy="413" r="5" style="fill:#000000" />
<circle cx="343" cy="413" r="2" style="fill:#000000" />
<polygon points="329,387 329,395 335,399 336,391 329,387 " style="fill:#000000" />
<line x1="447" y1="379" x2="481" y2="407" />
<circle cx="457" cy="387" r="5" style="fill:#ffffff" />
<circle cx="463" cy="392" r="2" style="fill:#ffffff" />
<circle cx="470" cy="398" r="5" style="fill:#000000" />
<circle cx="470" cy="398" r="2" style="fill:#000000" />
<polygon points="447,379 450,387 457,387 455,380 447,379 " style="fill:#ffffff" />
<line x1="228" y1="387" x2="225" y2="658" />
<circle cx="227" cy="416" r="5" style="fill:#000000" />
<circle cx="227" cy="416" r="2" style="fill:#000000" />
<polygon points="228,387 224,394 228,400 232,394 228,387 " style="fill:#000000" />
<line x1="88" y1="387" x2="72" y2="407" />
<circle cx="90" cy="383" r="5" style="fill:#ffffff" />
<circle cx="90" cy="383" r="2" style="fill:#ffffff" />
<polygon points="72,407 84,401 75,394 72,407 " style="fill:#ffffff" />
<line x1="222" y1="387" x2="213" y2="568" />
<polygon points="222,387 216,394 222,390 227,395 222,387 " style="fill:#ffffff" />
<circle cx="221" cy="400" r="5" style="fill:#ffffff" />
<circle cx="220" cy="407" r="2" style="fill:#ffffff" />
<line x1="291" y1="387" x2="303" y2="422" />
<circle cx="295" cy="400" r="5" style="fill:#ffffff" />
<circle cx="297" cy="406" r="2" style="fill:#ffffff" />
<line x1="61" y1="593" x2="63" y2="433" />
<circle cx="61" cy="579" r="5" style="fill:#ffffff" />
<circle cx="61" cy="572" r="2" style="fill:#ffffff" />
<line x1="94" y1="601" x2="182" y2="586" />
<polygon points="94,601 102,605 97,601 100,594 94,601 " style="fill:#ffffff" />
<circle cx="107" cy="598" r="5" style="fill:#ffffff" />
<circle cx="114" cy="597" r="2" style="fill:#ffffff" />
<circle cx="123" cy="595" r="5" style="fill:#000000" />
<circle cx="123" cy="595" r="2" style="fill:#000000" />
<polygon points="94,601 102,604 107,599 100,596 94,601 " style="fill:#ffffff" />
<line x1="72" y1="593" x2="150" y2="502" />
<circle cx="81" cy="582" r="5" style="fill:#ffffff" />
<circle cx="91" cy="570" r="5" style="fill:#000000" />
<circle cx="91" cy="570" r="2" style="fill:#000000" />
<polygon points="72,593 80,591 81,583 73,585 72,593 " style="fill:#000000" />
<line x1="79" y1="593" x2="289" y2="448" />
<circle cx="90" cy="585" r="5" style="fill:#ffffff" />
<circle cx="96" cy="581" r="2" style="fill:#ffffff" />
<line x1="94" y1="607" x2="279" y2="618" />
<circle cx="107" cy="607" r="5" style="fill:#ffffff" />
<circle cx="114" cy="608" r="2" style="fill:#ffffff" />
<line x1="384" y1="647" x2="349" y2="633" />
<circle cx="371" cy="641" r="5" style="fill:#ffffff" />
<circle cx="376" cy="644" r="5" style="fill:#ffffff" />
<circle cx="376" cy="644" r="2" style="fill:#ffffff" />
<polygon points="349,633 359,642 362,633 349,633 " style="fill:#ffffff" />
<line x1="239" y1="658" x2="304" y2="448" />
<circle cx="295" cy="476" r="5" style="fill:#ffffff" />
<circle cx="295" cy="476" r="2" style="fill:#ffffff" />
<polygon points="304,448 296,458 305,461 304,448 " style="fill:#ffffff" />
<line x1="81" y1="433" x2="142" y2="476" />
<circle cx="130" cy="467" r="5" style="fill:#ffffff" />
<circle cx="124" cy="463" r="2" style="fill:#ffffff" />
<circle cx="117" cy="458" r="5" style="fill:#000000" />
<circle cx="117" cy="458" r="2" style="fill:#000000" />
<polygon points="142,476 139,468 131,468 134,476 142,476 " style="fill:#ffffff" />
<line x1="206" y1="568" x2="167" y2="502" />
<polygon points="167,502 167,511 169,505 176,505 167,502 " style="fill:#ffffff" />
<circle cx="174" cy="514" r="5" style="fill:#ffffff" />
<circle cx="177" cy="520" r="2" style="fill:#ffffff" />
<line x1="192" y1="478" x2="272" y2="448" />
<circle cx="205" cy="473" r="5" style="fill:#ffffff" />
<circle cx="211" cy="470" r="2" style="fill:#ffffff" />
<circle cx="220" cy="467" r="5" style="fill:#000000" />
<circle cx="220" cy="467" r="2" style="fill:#000000" />
<polygon points="192,478 200,479 205,474 197,472 192,478 " style="fill:#ffffff" />
<line x1="175" y1="502" x2="302" y2="607" />
<circle cx="185" cy="510" r="5" style="fill:#ffffff" />
<circle cx="191" cy="515" r="2" style="fill:#ffffff" />
<circle cx="198" cy="521" r="5" style="fill:#000000" />
<circle cx="198" cy="521" r="2" style="fill:#000000" />
<polygon points="175,502 178,510 185,510 183,503 175,502 " style="fill:#ffffff" />
</g>
</svg>