<svg xmlns="http://www.w3.org/2000/svg" version="1.1"
 font-family="Arial, Helvetica, sans-serif" font-size="10.00" width="773" height="1555" viewbox="0 0 773 1555">
<g  fill="#f5fff5" stroke="#000000" style="stroke-width:1">
<rect x="640" y="702" width="129" height="143" />
<line x1="640" y1="715" x2="769" y2="715" />
<polygon points="753,723 765,728 765,718 753,723 " style="fill:#ffffff" />
<polygon points="753,737 760,741 767,737 760,733 753,737 " style="fill:#ffffff" />
<polygon points="753,751 760,755 767,751 760,747 753,751 " style="fill:#000000" />
<polygon points="753,765 761,770 757,765 761,760 753,765 " style="fill:#ffffff" />
<circle cx="753" cy="779" r="5" style="fill:#ffffff" />
<circle cx="753" cy="793" r="5" style="fill:#ffffff" />
<circle cx="760" cy="793" r="2" style="fill:#ffffff" />
<circle cx="753" cy="807" r="5" style="fill:#ffffff" />
<circle cx="753" cy="807" r="2" style="fill:#ffffff" />
<circle cx="753" cy="821" r="5" style="fill:#ffffff" />
<circle cx="753" cy="821" r="2" style="fill:#000000" />
<circle cx="753" cy="835" r="5" style="fill:#000000" />
<circle cx="753" cy="835" r="2" style="fill:#000000" />
</g>
<g stroke="none">
<text x="641" y="711">Relations Key</text>
<text x="641" y="725">Generalization</text>
<text x="641" y="739">Aggregation(reference)</text>
<text x="641" y="753">Composition(owned)</text>
<text x="641" y="767">Const</text>
<text x="641" y="781">Method Variable</text>
<text x="641" y="795">Method Parameter</text>
<text x="641" y="809">Public</text>
<text x="641" y="823">Protected</text>
<text x="641" y="837">Private</text>
</g>
<g  fill="#f5fff5" stroke="#000000" style="stroke-width:1">
<rect x="17" y="15" width="447" height="377" />
<line x1="17" y1="36" x2="464" y2="36" />
<line x1="17" y1="93" x2="464" y2="93" />
</g>
<g stroke="none">
<text x="18" y="24">ClassDiagram</text>
<text x="18" y="33">oovaide/BLL</text>
<text x="18" y="45">+DEPTH_IMMEDIATE_RELATIONS</text>
<text x="18" y="54">+DEPTH_SINGLE_CLASS</text>
<text x="18" y="63">-ModelData mModelData</text>
<text x="18" y="72">-ClassGraph mClassGraph</text>
<text x="18" y="81">-OovString mLastSelectedClassName</text>
<text x="18" y="90">-double mDesiredZoom</text>
<text x="18" y="102">+initialize(ModelData modelData, DiagramDrawer nullDrawer, ClassDrawOptions </text>
<text x="25" y="111">options, ClassGraphListener graphListener, OovTaskStatusListener foregroundTaskS</text>
<text x="25" y="120">tatusListener, OovTaskStatusListener backgroundTaskStatusListener)</text>
<text x="18" y="129">+restart()</text>
<text x="18" y="138">+clearGraphAndAddClass(OovStringRef className, ClassGraph::eAddNodeTypes </text>
<text x="25" y="147">addType, depth, bool reposition)</text>
<text x="18" y="156">+addClass(OovStringRef className, ClassGraph::eAddNodeTypes addType, depth,</text>
<text x="25" y="165"> bool reposition)</text>
<text x="18" y="174">+updateGraph(bool resposition)</text>
<text x="18" y="183">+drawDiagram(DiagramDrawer drawer)</text>
<text x="18" y="192">+saveDiagram(File file)</text>
<text x="18" y="201">+loadDiagram(File file)</text>
<text x="18" y="210">+getNode(x, y)</text>
<text x="18" y="219">+ClassDiagram()</text>
<text x="18" y="228">+clearGraph()</text>
<text x="18" y="237">+addRelatedNodesRecurse(ModelData model, ModelType type, ClassGraph::eAddNodeTypes</text>
<text x="25" y="246"> addType, maxDepth)</text>
<text x="18" y="255">+getRelatedNodesRecurse(ModelData model, ModelType type, std::vector&lt;ClassNode,</text>
<text x="25" y="264">std::allocator&lt;ClassNode&gt; &gt; nodes, ClassGraph::eAddNodeTypes addType, maxDepth)</text>
<text x="18" y="273">+removeNode(ClassNode node, ModelData modelData)</text>
<text x="18" y="282">+isNodeTypePresent(ClassNode node)</text>
<text x="18" y="291">+setNullDrawer(DiagramDrawer drawer)</text>
<text x="18" y="300">+changeOptions(ClassDrawOptions options)</text>
<text x="18" y="309">+getNodes()</text>
<text x="18" y="318">+getNodes()</text>
<text x="18" y="327">+setZoom(double zoom)</text>
<text x="18" y="336">+getDesiredZoom()</text>
<text x="18" y="345">+getGraphSize()</text>
<text x="18" y="354">+setModified()</text>
<text x="18" y="363">+isModified()</text>
<text x="18" y="372">+getModelData()</text>
<text x="18" y="381">+getLastSelectedClassName()</text>
<text x="18" y="390">-setLastSelectedClassName(OovStringRef name)</text>
</g>
<g stroke="none" font-style="italic">
</g>
<g  fill="#f5fff5" stroke="#000000" style="stroke-width:1">
<rect x="706" y="492" width="63" height="26" />
<line x1="706" y1="513" x2="769" y2="513" />
<line x1="706" y1="516" x2="769" y2="516" />
</g>
<g stroke="none">
<text x="707" y="501">ModelData</text>
<text x="707" y="510">oovCommon</text>
</g>
<g stroke="none" font-style="italic">
</g>
<g  fill="#f5fff5" stroke="#000000" style="stroke-width:1">
<rect x="20" y="511" width="549" height="521" />
<line x1="20" y1="532" x2="569" y2="532" />
<line x1="20" y1="679" x2="569" y2="679" />
</g>
<g stroke="none">
<text x="21" y="520">ClassGraph</text>
<text x="21" y="529">oovaide/BLL</text>
<text x="21" y="541">-Diagram mDiagram</text>
<text x="21" y="550">-std::vector&lt;ClassNode,std::allocator&lt;ClassNode&gt; &gt; mNodes</text>
<text x="21" y="559">-std::map&lt;nodePair,ClassConnectItem,std::less&lt;nodePair&gt;,std::allocator&lt;std::pair&lt;nodePair,ClassConnectItem</text>
<text x="28" y="568">&gt; &gt; &gt; mConnectMap</text>
<text x="21" y="577">-ClassGenes mGenes</text>
<text x="21" y="586">-GraphSize&lt;&lt;typedef&gt;&gt; mPad</text>
<text x="21" y="595">-bool mModified</text>
<text x="21" y="604">-mBackgroundTaskLevel</text>
<text x="21" y="613">-ClassGraphListener mGraphListener</text>
<text x="21" y="622">-OovTaskStatusListener mForegroundTaskStatusListener</text>
<text x="21" y="631">-OovTaskStatusListener mBackgroundTaskStatusListener</text>
<text x="21" y="640">-DiagramDrawer mNullDrawer</text>
<text x="21" y="649">-ClassDrawOptions mGraphOptions</text>
<text x="21" y="658">-KEY_INDEX</text>
<text x="21" y="667">-FIRST_CLASS_INDEX</text>
<text x="21" y="676">-size_t&lt;&lt;typedef&gt;&gt; NO_INDEX</text>
<text x="21" y="697">+initialize(ClassDrawOptions options, DiagramDrawer nullDrawer, ClassGraphListener graphListener,</text>
<text x="28" y="706"> OovTaskStatusListener foregroundTaskStatusListener, OovTaskStatusListener backgroundTaskStatusListener)</text>
<text x="21" y="715">+updateGraph(ModelData modelData, bool geneRepositioning)</text>
<text x="21" y="724">+addNode(ModelData model, char className, ClassGraph::eAddNodeTypes addType, nodeDepth, bool reposition)</text>
<text x="21" y="733">+addRelatedNodesRecurse(ModelData model, ModelType type, ClassGraph::eAddNodeTypes addType, maxDepth)</text>
<text x="21" y="742">+getRelatedNodesRecurse(ModelData model, ModelType type, ClassGraph::eAddNodeTypes addType, maxDepth,</text>
<text x="28" y="751"> std::vector&lt;ClassNode,std::allocator&lt;ClassNode&gt; &gt; nodes)</text>
<text x="21" y="760">+getNodeSizeWithPadding(nodeIndex)</text>
<text x="21" y="769">+getGraphSize()</text>
<text x="21" y="778">+getNode(x, y)</text>
<text x="21" y="787">+getNodeConnection(node1, node2)</text>
<text x="21" y="796">-removeNode(ClassNode node)</text>
<text x="21" y="805">-updateGenes(ModelData modelData, DiagramDrawer nullDrawer)</text>
<text x="21" y="814">-updateConnections(ModelData modelData)</text>
<text x="21" y="823">-insertConnection(node1, node2, ClassConnectItem connectItem)</text>
<text x="21" y="832">-insertConnection(node1, ModelType type, ClassConnectItem connectItem)</text>
<text x="21" y="841">-addRelatedNodesRecurseUserToVector(ModelData model, ModelType type, ModelType modelType, ClassGraph::</text>
<text x="28" y="850">eAddNodeTypes addType, maxDepth, std::vector&lt;ClassNode,std::allocator&lt;ClassNode&gt; &gt; nodes)</text>
<text x="21" y="859">-addNodeToVector(ClassNode node, std::vector&lt;ClassNode,std::allocator&lt;ClassNode&gt; &gt; nodes)</text>
<text x="21" y="868">-addRelationKeyNode()</text>
<text x="21" y="877">-updateNodeSizes()</text>
<text x="21" y="886">-getAvgNodeSize()</text>
<text x="21" y="895">-getNodeIndex(ModelType type)</text>
<text x="21" y="904">-isNodeTypePresent(ClassNode node, std::vector&lt;ClassNode,std::allocator&lt;ClassNode&gt; &gt; nodes)</text>
<text x="21" y="913">-getComponentOptions(ModelType type, ClassNodeDrawOptions options)</text>
<text x="21" y="922">+ClassGraph(Diagram diagram)</text>
<text x="21" y="931">+clearGraph()</text>
<text x="21" y="940">+removeNode(ClassNode node, ModelData modelData)</text>
<text x="21" y="949">+isNodeTypePresent(ClassNode node)</text>
<text x="21" y="958">+changeOptions(ClassDrawOptions options)</text>
<text x="21" y="967">+getOptions()</text>
<text x="21" y="976">+isModified()</text>
<text x="21" y="985">+setModified()</text>
<text x="21" y="994">+getNodes()</text>
<text x="21" y="1003">+getNodes()</text>
<text x="21" y="1012">+getConnections()</text>
<text x="21" y="1021">+processItem(ClassGraphBackgroundItem item)</text>
<text x="21" y="1030">+setDrawer(DiagramDrawer drawer)</text>
</g>
<g stroke="none" font-style="italic">
<text x="21" y="688">+~ClassGraph()</text>
</g>
<g  fill="#f5fff5" stroke="#000000" style="stroke-width:1">
<rect x="619" y="211" width="128" height="26" />
<line x1="619" y1="232" x2="747" y2="232" />
<line x1="619" y1="235" x2="747" y2="235" />
</g>
<g stroke="none">
<text x="620" y="220">std::vector&lt;ClassNode,std::</text>
<text x="620" y="229">  allocator&lt;ClassNode&gt; &gt;</text>
</g>
<g stroke="none" font-style="italic">
</g>
<g  fill="#f5fff5" stroke="#000000" style="stroke-width:1">
<rect x="569" y="1081" width="202" height="35" />
<line x1="569" y1="1111" x2="771" y2="1111" />
<line x1="569" y1="1114" x2="771" y2="1114" />
</g>
<g stroke="none">
<text x="570" y="1090">std::map&lt;nodePair,ClassConnectItem,std::</text>
<text x="570" y="1099">  less&lt;nodePair&gt;,std::allocator&lt;std::</text>
<text x="570" y="1108">  pair&lt;nodePair,ClassConnectItem&gt; &gt; &gt;</text>
</g>
<g stroke="none" font-style="italic">
</g>
<g  fill="#f5fff5" stroke="#000000" style="stroke-width:1">
<rect x="25" y="1327" width="258" height="179" />
<line x1="25" y1="1348" x2="283" y2="1348" />
<line x1="25" y1="1369" x2="283" y2="1369" />
</g>
<g stroke="none">
<text x="26" y="1336">ClassGenes</text>
<text x="26" y="1345">oovaide/BLL</text>
<text x="26" y="1357">-ClassGraph mGraph</text>
<text x="26" y="1366">-GraphSize&lt;&lt;typedef&gt;&gt; mDiagramSize</text>
<text x="26" y="1378">+initialize(ClassGraph graph, avgNodeSize)</text>
<text x="26" y="1387">+updatePositionsInGraph(ClassGraph graph, </text>
<text x="33" y="1396">OovTaskStatusListener listener, OovTaskContinueLi</text>
<text x="33" y="1405">stener contListener)</text>
<text x="26" y="1441">-nodesOverlap(geneIndex, node1, node2)</text>
<text x="26" y="1450">-lineNodeOverlap(geneIndex, ni, DiagramLine line)</text>
<text x="26" y="1459">-getLineForNodes(geneIndex, node1, node2, </text>
<text x="33" y="1468">DiagramLine line)</text>
<text x="26" y="1477">-getNodeRect(geneIndex, nodeIndex, GraphRect rect)</text>
<text x="26" y="1486">-getPosition(geneIndex, nodeIndex, GraphPoint pos)</text>
<text x="26" y="1495">-getSize(geneIndex)</text>
<text x="26" y="1504">-isDistanceGoodQuality(geneIndex, ni1, ni2)</text>
</g>
<g stroke="none" font-style="italic">
<text x="26" y="1414">-setupQualityEachGeneration()</text>
<text x="26" y="1423">-calculateSingleGeneQuality(size_t&lt;&lt;typedef&gt;</text>
<text x="33" y="1432">&gt; geneIndex)</text>
</g>
<g  fill="#f5fff5" stroke="#000000" style="stroke-width:1">
<rect x="515" y="263" width="114" height="44" />
<line x1="515" y1="284" x2="629" y2="284" />
<line x1="515" y1="287" x2="629" y2="287" />
</g>
<g stroke="none">
<text x="516" y="272">ClassGraphListener</text>
<text x="516" y="281">oovaide/BLL</text>
<text x="516" y="296">+~ClassGraphListener()</text>
</g>
<g stroke="none" font-style="italic">
<text x="516" y="305">+doneRepositioning()</text>
</g>
<g  fill="#f5fff5" stroke="#000000" style="stroke-width:1">
<rect x="656" y="569" width="110" height="26" />
<line x1="656" y1="590" x2="766" y2="590" />
<line x1="656" y1="593" x2="766" y2="593" />
</g>
<g stroke="none">
<text x="657" y="578">OovTaskStatusListener</text>
<text x="657" y="587">oovCommon</text>
</g>
<g stroke="none" font-style="italic">
</g>
<g  fill="#f5fff5" stroke="#000000" style="stroke-width:1">
<rect x="24" y="1057" width="289" height="215" />
<line x1="24" y1="1078" x2="313" y2="1078" />
<line x1="24" y1="1099" x2="313" y2="1099" />
</g>
<g stroke="none">
<text x="25" y="1066">DiagramDrawer</text>
<text x="25" y="1075">oovaide/BLL</text>
<text x="25" y="1087">-Diagram mDiagram</text>
<text x="25" y="1096">-double mCurrentDrawingFontSize</text>
<text x="25" y="1117">+getPad(div)</text>
<text x="25" y="1126">+getConnectionPoints(GraphRect consumerRect, GraphRect </text>
<text x="32" y="1135">supplierRect, GraphPoint consumerPoint, GraphPoint </text>
<text x="32" y="1144">supplierPoint)</text>
<text x="25" y="1153">+DiagramDrawer(Diagram diagram)</text>
<text x="25" y="1270">+getCurrentDrawingFontSize()</text>
</g>
<g stroke="none" font-style="italic">
<text x="25" y="1108">+~DiagramDrawer()</text>
<text x="25" y="1162">+setDiagramSize(GraphSize&lt;&lt;typedef&gt;&gt; size)</text>
<text x="25" y="1171">+setCurrentDrawingFontSize(double size)</text>
<text x="25" y="1180">+drawRect(GraphRect rect)</text>
<text x="25" y="1189">+drawLine(GraphPoint p1, GraphPoint p2, bool dashed)</text>
<text x="25" y="1198">+drawCircle(GraphPoint p, radius, Color fillColor)</text>
<text x="25" y="1207">+drawEllipse(GraphRect rect)</text>
<text x="25" y="1216">+drawPoly(OovPolygon&lt;&lt;typedef&gt;&gt; poly, Color fillColor)</text>
<text x="25" y="1225">+drawText(GraphPoint p, OovStringRef text)</text>
<text x="25" y="1234">+getTextExtentWidth(OovStringRef name)</text>
<text x="25" y="1243">+getTextExtentHeight(OovStringRef name)</text>
<text x="25" y="1252">+groupShapes(bool , Color , Color )</text>
<text x="25" y="1261">+groupText(bool , bool )</text>
</g>
<g  fill="#f5fff5" stroke="#000000" style="stroke-width:1">
<rect x="242" y="433" width="87" height="17" />
<line x1="242" y1="445" x2="329" y2="445" />
<line x1="242" y1="448" x2="329" y2="448" />
</g>
<g stroke="none">
<text x="243" y="442">ClassDrawOptions</text>
</g>
<g stroke="none" font-style="italic">
</g>
<g  fill="#f5fff5" stroke="#000000" style="stroke-width:1">
<rect x="333" y="437" width="220" height="26" />
<line x1="333" y1="458" x2="553" y2="458" />
<line x1="333" y1="461" x2="553" y2="461" />
</g>
<g stroke="none">
<text x="334" y="446">ThreadedWorkBackgroundQueue&lt;ClassGraph,</text>
<text x="334" y="455">  ClassGraphBackgroundItem&gt;</text>
</g>
<g stroke="none" font-style="italic">
</g>
<g  fill="#f5fff5" stroke="#000000" style="stroke-width:1">
<rect x="318" y="1050" width="240" height="152" />
<line x1="318" y1="1071" x2="558" y2="1071" />
<line x1="318" y1="1101" x2="558" y2="1101" />
</g>
<g stroke="none">
<text x="319" y="1059">ClassDrawer</text>
<text x="319" y="1068">oovaide/BLL</text>
<text x="319" y="1080">-Diagram mDiagram</text>
<text x="319" y="1089">-DiagramDrawer mDrawer</text>
<text x="319" y="1098">-double mActualZoom</text>
<text x="319" y="1110">+setZoom(double zoom)</text>
<text x="319" y="1119">+drawDiagram(ClassGraph graph)</text>
<text x="319" y="1128">+drawNode(ClassNode node)</text>
<text x="319" y="1137">-drawConnectionLine(ClassNode node1,</text>
<text x="326" y="1146"> ClassNode node2, bool dashed)</text>
<text x="319" y="1155">-drawConnectionSymbols(ClassRelationDrawOptio</text>
<text x="326" y="1164">ns options, ClassNode node1, ClassNode </text>
<text x="326" y="1173">node2, ClassConnectItem connectItem)</text>
<text x="319" y="1182">-drawRelationKey(ClassNode node)</text>
<text x="319" y="1191">+ClassDrawer(Diagram diagram, DiagramDrawer </text>
<text x="326" y="1200">drawer)</text>
</g>
<g stroke="none" font-style="italic">
</g>
<g  fill="#f5fff5" stroke="#000000" style="stroke-width:1">
<rect x="384" y="1222" width="388" height="332" />
<line x1="384" y1="1243" x2="772" y2="1243" />
<line x1="384" y1="1318" x2="772" y2="1318" />
</g>
<g stroke="none">
<text x="385" y="1231">GenePool</text>
<text x="385" y="1240">oovaide/BLL</text>
<text x="385" y="1252">#size_t&lt;&lt;typedef&gt;&gt; numgenes</text>
<text x="385" y="1261">#size_t&lt;&lt;typedef&gt;&gt; genesize</text>
<text x="385" y="1270">#double muterate</text>
<text x="385" y="1279">#std::vector&lt;unsigned char,std::allocator&lt;unsigned char&gt; &gt; genes</text>
<text x="385" y="1288">#std::vector&lt;unsigned char,std::allocator&lt;unsigned char&gt; &gt; bestgenes</text>
<text x="385" y="1297">#std::vector&lt;unsigned char,std::allocator&lt;unsigned char&gt; &gt; worstgenes</text>
<text x="385" y="1306">#GeneValue&lt;&lt;typedef&gt;&gt; min</text>
<text x="385" y="1315">#GeneValue&lt;&lt;typedef&gt;&gt; max</text>
<text x="385" y="1327">#computeQuality()</text>
<text x="385" y="1336">#crossover()</text>
<text x="385" y="1345">#mutate()</text>
<text x="385" y="1354">#buildBestWorstList()</text>
<text x="385" y="1363">#initialize(size_t&lt;&lt;typedef&gt;&gt; genebytes, size_t&lt;&lt;typedef&gt;&gt; numgenes, double </text>
<text x="392" y="1372">crossoverrate, double mutaterate, GeneValue&lt;&lt;typedef&gt;&gt; minrand, GeneValue&lt;</text>
<text x="392" y="1381">&lt;typedef&gt;&gt; maxrand)</text>
<text x="385" y="1408">#randRange(size_t&lt;&lt;typedef&gt;&gt; min, size_t&lt;&lt;typedef&gt;&gt; max)</text>
<text x="385" y="1417">+singleGeneration()</text>
<text x="385" y="1426">+getQualityHistogram(QualityHistogram&lt;&lt;typedef&gt;&gt; qualities)</text>
<text x="385" y="1435">+getBestGeneIndex()</text>
<text x="385" y="1444">#GenePool()</text>
<text x="385" y="1480">#geneValueBoundary(size_t&lt;&lt;typedef&gt;&gt; offset)</text>
<text x="385" y="1489">+getNumGenes()</text>
<text x="385" y="1498">+getGene(size_t&lt;&lt;typedef&gt;&gt; index)</text>
<text x="385" y="1507">+getGene(size_t&lt;&lt;typedef&gt;&gt; index)</text>
<text x="385" y="1516">+setValue(size_t&lt;&lt;typedef&gt;&gt; geneIndex, size_t&lt;&lt;typedef&gt;&gt; offset, GeneValue&lt;</text>
<text x="392" y="1525">&lt;typedef&gt;&gt; val)</text>
<text x="385" y="1534">+getValue(size_t&lt;&lt;typedef&gt;&gt; geneIndex, size_t&lt;&lt;typedef&gt;&gt; offset)</text>
<text x="385" y="1543">+getGeneQuality(size_t&lt;&lt;typedef&gt;&gt; geneIndex)</text>
<text x="385" y="1552">+setGeneQuality(size_t&lt;&lt;typedef&gt;&gt; geneIndex, QualityType&lt;&lt;typedef&gt;&gt; quality)</text>
</g>
<g stroke="none" font-style="italic">
<text x="385" y="1390">#randomizeGene(size_t&lt;&lt;typedef&gt;&gt; geneIndex)</text>
<text x="385" y="1399">#randomizeGeneValue(size_t&lt;&lt;typedef&gt;&gt; geneIndex, size_t&lt;&lt;typedef&gt;&gt; offset)</text>
<text x="385" y="1453">#~GenePool()</text>
<text x="385" y="1462">#setupQualityEachGeneration()</text>
<text x="385" y="1471">#calculateSingleGeneQuality(size_t&lt;&lt;typedef&gt;&gt; geneIndex)</text>
</g>
<g  fill="#f5fff5" stroke="#000000" style="stroke-width:1">
<rect x="503" y="14" width="226" height="152" />
<line x1="503" y1="35" x2="729" y2="35" />
<line x1="503" y1="65" x2="729" y2="65" />
</g>
<g stroke="none">
<text x="504" y="23">ClassNode</text>
<text x="504" y="32">oovaide/BLL</text>
<text x="504" y="44">-ModelType mType</text>
<text x="504" y="53">-GraphRect rect</text>
<text x="504" y="62">-ClassNodeDrawOptions mNodeOptions</text>
<text x="504" y="74">+ClassNode(ModelType type, ClassNodeDrawO</text>
<text x="511" y="83">ptions options)</text>
<text x="504" y="92">+isKey()</text>
<text x="504" y="101">+getType()</text>
<text x="504" y="110">+getSize()</text>
<text x="504" y="119">+setPosition(GraphPoint pos)</text>
<text x="504" y="128">+getPosition()</text>
<text x="504" y="137">+setSize(GraphSize&lt;&lt;typedef&gt;&gt; size)</text>
<text x="504" y="146">+getRect()</text>
<text x="504" y="155">+getNodeOptions()</text>
<text x="504" y="164">+getNodeOptions()</text>
</g>
<g stroke="none" font-style="italic">
</g>
<g  fill="#f5fff5" stroke="#000000" style="stroke-width:1">
<rect x="638" y="319" width="123" height="98" />
<line x1="638" y1="340" x2="761" y2="340" />
<line x1="638" y1="406" x2="761" y2="406" />
</g>
<g stroke="none">
<text x="639" y="328">ClassNodeDrawOptions</text>
<text x="639" y="337">oovaide/BLL</text>
<text x="639" y="349">-bool drawAttributes</text>
<text x="639" y="358">-bool drawOperations</text>
<text x="639" y="367">-bool drawOperParams</text>
<text x="639" y="376">-bool drawOperReturn</text>
<text x="639" y="385">-bool drawAttrTypes</text>
<text x="639" y="394">-bool drawOperTypes</text>
<text x="639" y="403">-bool drawPackageName</text>
<text x="639" y="415">-ClassNodeDrawOptions()</text>
</g>
<g stroke="none" font-style="italic">
</g>
<g  fill="#f5fff5" stroke="#000000" style="stroke-width:1">
<rect x="18" y="419" width="165" height="80" />
<line x1="18" y1="440" x2="183" y2="440" />
<line x1="18" y1="488" x2="183" y2="488" />
</g>
<g stroke="none">
<text x="19" y="428">ClassRelationDrawOptions</text>
<text x="19" y="437">oovaide/BLL</text>
<text x="19" y="449">+bool drawOovSymbols</text>
<text x="19" y="458">+bool drawOperParamRelations</text>
<text x="19" y="467">+bool drawOperBodyVarRelations</text>
<text x="19" y="476">+bool drawTemplateRelations</text>
<text x="19" y="485">+bool drawRelationKey</text>
<text x="19" y="497">+ClassRelationDrawOptions()</text>
</g>
<g stroke="none" font-style="italic">
</g>
<g  fill="#f5f5ff" stroke="#000000" style="stroke-width:1">
<line x1="463" y1="338" x2="716" y2="492" />
<polygon points="463,338 466,347 466,340 472,338 463,338 " style="fill:#ffffff" />
<circle cx="474" cy="345" r="5" style="fill:#ffffff" />
<circle cx="480" cy="348" r="2" style="fill:#ffffff" />
<circle cx="488" cy="353" r="5" style="fill:#000000" />
<circle cx="488" cy="353" r="2" style="fill:#000000" />
<polygon points="463,338 467,345 474,345 471,338 463,338 " style="fill:#ffffff" />
<line x1="257" y1="391" x2="270" y2="511" />
<circle cx="258" cy="404" r="5" style="fill:#ffffff" />
<circle cx="260" cy="420" r="5" style="fill:#000000" />
<circle cx="260" cy="420" r="2" style="fill:#000000" />
<polygon points="257,391 254,399 258,404 262,398 257,391 " style="fill:#000000" />
<line x1="463" y1="213" x2="619" y2="221" />
<circle cx="476" cy="213" r="5" style="fill:#ffffff" />
<circle cx="483" cy="214" r="2" style="fill:#ffffff" />
<line x1="463" y1="258" x2="515" y2="271" />
<circle cx="476" cy="261" r="5" style="fill:#ffffff" />
<circle cx="483" cy="263" r="2" style="fill:#ffffff" />
<line x1="463" y1="382" x2="695" y2="569" />
<circle cx="473" cy="390" r="5" style="fill:#ffffff" />
<circle cx="479" cy="395" r="2" style="fill:#ffffff" />
<line x1="226" y1="391" x2="176" y2="1057" />
<circle cx="224" cy="404" r="5" style="fill:#ffffff" />
<circle cx="224" cy="411" r="2" style="fill:#ffffff" />
<line x1="275" y1="391" x2="284" y2="433" />
<polygon points="275,391 271,400 275,394 282,397 275,391 " style="fill:#ffffff" />
<circle cx="277" cy="404" r="5" style="fill:#ffffff" />
<circle cx="279" cy="411" r="2" style="fill:#ffffff" />
<line x1="280" y1="391" x2="422" y2="1050" />
<circle cx="282" cy="404" r="5" style="fill:#ffffff" />
<line x1="463" y1="136" x2="503" y2="123" />
<polygon points="463,136 472,139 466,135 468,128 463,136 " style="fill:#ffffff" />
<circle cx="476" cy="131" r="5" style="fill:#ffffff" />
<circle cx="482" cy="129" r="2" style="fill:#ffffff" />
<line x1="716" y1="518" x2="568" y2="607" />
<polygon points="568,607 577,607 571,605 571,598 568,607 " style="fill:#ffffff" />
<circle cx="579" cy="599" r="5" style="fill:#ffffff" />
<circle cx="585" cy="596" r="2" style="fill:#ffffff" />
<line x1="478" y1="511" x2="674" y2="237" />
<circle cx="486" cy="499" r="5" style="fill:#ffffff" />
<circle cx="490" cy="493" r="2" style="fill:#ffffff" />
<circle cx="495" cy="486" r="5" style="fill:#000000" />
<circle cx="495" cy="486" r="2" style="fill:#000000" />
<polygon points="478,511 486,508 486,500 478,503 478,511 " style="fill:#000000" />
<line x1="568" y1="1009" x2="651" y2="1081" />
<circle cx="578" cy="1018" r="5" style="fill:#ffffff" />
<circle cx="590" cy="1028" r="5" style="fill:#000000" />
<circle cx="590" cy="1028" r="2" style="fill:#000000" />
<polygon points="568,1009 570,1017 578,1018 576,1010 568,1009 " style="fill:#000000" />
<line x1="238" y1="1031" x2="173" y2="1327" />
<circle cx="234" cy="1044" r="5" style="fill:#ffffff" />
<circle cx="231" cy="1060" r="5" style="fill:#000000" />
<circle cx="231" cy="1060" r="2" style="fill:#000000" />
<polygon points="238,1031 232,1037 235,1044 240,1039 238,1031 " style="fill:#000000" />
<polygon points="173,1327 180,1321 173,1324 169,1318 173,1327 " style="fill:#ffffff" />
<circle cx="176" cy="1313" r="5" style="fill:#ffffff" />
<circle cx="177" cy="1306" r="2" style="fill:#ffffff" />
<circle cx="179" cy="1297" r="5" style="fill:#000000" />
<circle cx="179" cy="1297" r="2" style="fill:#000000" />
<polygon points="173,1327 179,1321 176,1314 171,1319 173,1327 " style="fill:#ffffff" />
<line x1="442" y1="511" x2="560" y2="307" />
<circle cx="449" cy="498" r="5" style="fill:#ffffff" />
<circle cx="452" cy="492" r="2" style="fill:#ffffff" />
<circle cx="457" cy="485" r="5" style="fill:#000000" />
<circle cx="457" cy="485" r="2" style="fill:#000000" />
<polygon points="442,511 449,507 449,499 442,503 442,511 " style="fill:#ffffff" />
<line x1="568" y1="647" x2="683" y2="595" />
<circle cx="580" cy="641" r="5" style="fill:#ffffff" />
<circle cx="587" cy="638" r="2" style="fill:#ffffff" />
<circle cx="595" cy="634" r="5" style="fill:#000000" />
<circle cx="595" cy="634" r="2" style="fill:#000000" />
<polygon points="568,647 576,647 580,642 573,640 568,647 " style="fill:#ffffff" />
<line x1="211" y1="1031" x2="202" y2="1057" />
<circle cx="206" cy="1044" r="5" style="fill:#ffffff" />
<circle cx="204" cy="1050" r="2" style="fill:#ffffff" />
<circle cx="201" cy="1059" r="5" style="fill:#000000" />
<circle cx="201" cy="1059" r="2" style="fill:#000000" />
<polygon points="211,1031 205,1036 207,1044 212,1039 211,1031 " style="fill:#ffffff" />
<line x1="287" y1="511" x2="285" y2="449" />
<circle cx="286" cy="497" r="5" style="fill:#ffffff" />
<circle cx="286" cy="490" r="2" style="fill:#ffffff" />
<circle cx="286" cy="481" r="5" style="fill:#000000" />
<circle cx="286" cy="481" r="2" style="fill:#000000" />
<polygon points="287,511 291,504 287,498 283,504 287,511 " style="fill:#000000" />
<line x1="414" y1="511" x2="437" y2="463" />
<circle cx="420" cy="498" r="5" style="fill:#ffffff" />
<line x1="437" y1="463" x2="414" y2="511" style="stroke-dasharray: 4, 4 " />
<line x1="414" y1="511" x2="424" y2="502" />
<line x1="414" y1="511" x2="414" y2="498" />
<circle cx="424" cy="490" r="5" style="fill:#ffffff" />
<circle cx="424" cy="490" r="2" style="fill:#ffffff" />
<polygon points="437,463 427,472 437,476 437,463 " style="fill:#ffffff" />
<line x1="399" y1="1031" x2="408" y2="1050" />
<circle cx="404" cy="1043" r="5" style="fill:#ffffff" />
<polygon points="408,1050 409,1041 407,1047 400,1046 408,1050 " style="fill:#ffffff" />
<circle cx="402" cy="1037" r="5" style="fill:#ffffff" />
<circle cx="399" cy="1031" r="2" style="fill:#ffffff" />
<line x1="416" y1="511" x2="581" y2="166" />
<polygon points="416,511 424,507 417,508 415,502 416,511 " style="fill:#ffffff" />
<circle cx="422" cy="498" r="5" style="fill:#ffffff" />
<circle cx="425" cy="492" r="2" style="fill:#ffffff" />
<line x1="555" y1="511" x2="650" y2="417" />
<polygon points="555,511 564,510 557,509 556,502 555,511 " style="fill:#ffffff" />
<circle cx="564" cy="501" r="5" style="fill:#ffffff" />
<circle cx="569" cy="496" r="2" style="fill:#ffffff" />
<line x1="678" y1="237" x2="193" y2="1327" />
<circle cx="198" cy="1314" r="5" style="fill:#ffffff" />
<line x1="680" y1="237" x2="458" y2="1050" />
<circle cx="461" cy="1036" r="5" style="fill:#ffffff" />
<line x1="677" y1="211" x2="653" y2="166" style="stroke-dasharray: 4, 4 " />
<line x1="653" y1="166" x2="654" y2="179" />
<line x1="653" y1="166" x2="663" y2="174" />
<line x1="643" y1="1115" x2="283" y2="1337" />
<circle cx="294" cy="1329" r="5" style="fill:#ffffff" />
<line x1="213" y1="1327" x2="703" y2="595" />
<circle cx="220" cy="1315" r="5" style="fill:#ffffff" />
<circle cx="224" cy="1309" r="2" style="fill:#ffffff" />
<line x1="283" y1="1408" x2="384" y2="1400" />
<circle cx="296" cy="1406" r="5" style="fill:#ffffff" />
<circle cx="354" cy="1402" r="5" style="fill:#ffffff" />
<circle cx="354" cy="1402" r="2" style="fill:#ffffff" />
<polygon points="384,1400 371,1396 372,1406 384,1400 " style="fill:#ffffff" />
<line x1="185" y1="1327" x2="590" y2="166" />
<circle cx="189" cy="1313" r="5" style="fill:#ffffff" />
<line x1="312" y1="1144" x2="318" y2="1142" />
<circle cx="304" cy="1146" r="5" style="fill:#ffffff" />
<circle cx="298" cy="1148" r="2" style="fill:#ffffff" />
<circle cx="289" cy="1151" r="5" style="fill:#000000" />
<circle cx="289" cy="1151" r="2" style="fill:#000000" />
<polygon points="318,1142 310,1141 305,1146 313,1148 318,1142 " style="fill:#ffffff" />
<line x1="328" y1="434" x2="638" y2="378" />
<circle cx="608" cy="383" r="5" style="fill:#ffffff" />
<circle cx="608" cy="383" r="2" style="fill:#ffffff" />
<polygon points="638,378 625,376 627,385 638,378 " style="fill:#ffffff" />
<line x1="242" y1="445" x2="182" y2="452" />
<circle cx="211" cy="448" r="5" style="fill:#ffffff" />
<circle cx="211" cy="448" r="2" style="fill:#ffffff" />
<polygon points="182,452 195,455 194,446 182,452 " style="fill:#ffffff" />
<line x1="451" y1="1050" x2="603" y2="166" />
<polygon points="451,1050 458,1044 451,1047 447,1042 451,1050 " style="fill:#ffffff" />
<circle cx="453" cy="1036" r="5" style="fill:#ffffff" />
<circle cx="454" cy="1029" r="2" style="fill:#ffffff" />
<line x1="400" y1="1050" x2="120" y2="499" />
<polygon points="400,1050 401,1041 399,1047 392,1046 400,1050 " style="fill:#ffffff" />
<circle cx="393" cy="1037" r="5" style="fill:#ffffff" />
<circle cx="390" cy="1031" r="2" style="fill:#ffffff" />
<line x1="638" y1="166" x2="685" y2="319" />
<circle cx="642" cy="179" r="5" style="fill:#ffffff" />
<circle cx="644" cy="186" r="2" style="fill:#ffffff" />
<circle cx="646" cy="194" r="5" style="fill:#000000" />
<circle cx="646" cy="194" r="2" style="fill:#000000" />
<polygon points="638,166 636,174 642,179 644,172 638,166 " style="fill:#000000" />
</g>
</svg>