<svg xmlns="http://www.w3.org/2000/svg" version="1.1"
  font-family="Arial, Helvetica, sans-serif" font-size="10.000000" 
  width="651" height="605">
<g  fill="#f5fff5" stroke="#000000" style="stroke-width:1">
<rect x="516" y="461" width="133" height="143" />
<line x1="516" y1="474" x2="649" y2="474" />
<polygon points="629,482 641,487 641,477 629,482 " style="fill:#ffffff" />
<polygon points="629,496 636,500 643,496 636,492 629,496 " style="fill:#ffffff" />
<polygon points="629,510 636,514 643,510 636,506 629,510 " style="fill:#000000" />
<polygon points="629,524 637,529 633,524 637,519 629,524 " style="fill:#ffffff" />
<circle cx="629" cy="538" r="5" style="fill:#ffffff" />
<circle cx="629" cy="552" r="5" style="fill:#ffffff" />
<circle cx="636" cy="552" r="2" style="fill:#ffffff" />
<circle cx="629" cy="566" r="5" style="fill:#ffffff" />
<circle cx="629" cy="566" r="2" style="fill:#ffffff" />
<circle cx="629" cy="580" r="5" style="fill:#ffffff" />
<circle cx="629" cy="580" r="2" style="fill:#000000" />
<circle cx="629" cy="594" r="5" style="fill:#000000" />
<circle cx="629" cy="594" r="2" style="fill:#000000" />
</g>
<g stroke="none">
<text x="517" y="470">Relations Key</text>
<text x="517" y="484">Generalization</text>
<text x="517" y="498">Aggregation(reference)</text>
<text x="517" y="512">Composition(owned)</text>
<text x="517" y="526">Const</text>
<text x="517" y="540">Method Variable</text>
<text x="517" y="554">Method Parameter</text>
<text x="517" y="568">Public</text>
<text x="517" y="582">Protected</text>
<text x="517" y="596">Private</text>
</g>
<g  fill="#f5fff5" stroke="#000000" style="stroke-width:1">
<rect x="11" y="11" width="377" height="341" />
<line x1="11" y1="32" x2="388" y2="32" />
<line x1="11" y1="80" x2="388" y2="80" />
</g>
<g stroke="none">
<text x="12" y="20">ClassDiagramView</text>
<text x="12" y="29">oovcde</text>
<text x="12" y="41">-ClassDiagram mClassDiagram</text>
<text x="12" y="50">-GtkCairoContext mCairoContext</text>
<text x="12" y="59">-NullDrawer mNullDrawer</text>
<text x="12" y="68">-ClassDiagramListener mListener</text>
<text x="12" y="77">-ForegroundThreadBusyDialog mForegroundBusyDialog</text>
<text x="12" y="89">+initialize(ModelData modelData, ClassDiagramListener listener,</text>
<text x="19" y="98"> OovTaskStatusListener taskStatusListener)</text>
<text x="12" y="107">+buttonPressEvent(&lt;&lt;typedef&gt;&gt;GdkEventButton event)</text>
<text x="12" y="116">+buttonReleaseEvent(&lt;&lt;typedef&gt;&gt;GdkEventButton event)</text>
<text x="12" y="125">+drawToDrawingArea()</text>
<text x="12" y="134">+drawSvgDiagram(&lt;&lt;typedef&gt;&gt;FILE fp)</text>
<text x="12" y="143">+updateGraph(bool reposition)</text>
<text x="12" y="152">+gotoClass(OovStringRef className)</text>
<text x="12" y="161">+displayListContextMenu(&lt;&lt;typedef&gt;&gt;guint button, &lt;&lt;typedef&gt;&gt;guint32 </text>
<text x="19" y="170">acttime, &lt;&lt;typedef&gt;&gt;gpointer data)</text>
<text x="12" y="179">+displayAddClassDialog()</text>
<text x="12" y="188">+selectAddClass(ModelType type, ClassGraph::eAddNodeTypes addType)</text>
<text x="12" y="197">-displayDrawContextMenu(&lt;&lt;typedef&gt;&gt;guint button, &lt;&lt;typedef&gt;&gt;guint32 </text>
<text x="19" y="206">acttime, &lt;&lt;typedef&gt;&gt;gpointer data)</text>
<text x="12" y="215">-updateDrawingAreaSize()</text>
<text x="12" y="224">+ClassDiagramView()</text>
<text x="12" y="233">+~ClassDiagramView()</text>
<text x="12" y="242">+clearGraphAndAddClass(OovStringRef className, ClassGraph::eAddNodeTyp</text>
<text x="19" y="251">es addType)</text>
<text x="12" y="260">+addClass(OovStringRef className, ClassGraph::eAddNodeTypes addType,</text>
<text x="19" y="269"> int depth, bool reposition)</text>
<text x="12" y="278">+saveDiagram(&lt;&lt;typedef&gt;&gt;FILE fp)</text>
<text x="12" y="287">+loadDiagram(&lt;&lt;typedef&gt;&gt;FILE fp)</text>
<text x="12" y="296">+isModified()</text>
<text x="12" y="305">+requestRedraw()</text>
<text x="12" y="314">+getDiagram()</text>
<text x="12" y="323">+getNode(int x, int y)</text>
<text x="12" y="332">-getDiagramWidget()</text>
<text x="12" y="341">-setCairoContext()</text>
<text x="12" y="350">-doneRepositioning()</text>
</g>
<g  fill="#f5fff5" stroke="#000000" style="stroke-width:1">
<rect x="52" y="528" width="67" height="26" />
<line x1="52" y1="549" x2="119" y2="549" />
<line x1="52" y1="552" x2="119" y2="552" />
</g>
<g stroke="none">
<text x="53" y="537">ClassDiagram</text>
<text x="53" y="546">oovcde/BLL</text>
</g>
<g  fill="#f5fff5" stroke="#000000" style="stroke-width:1">
<rect x="415" y="10" width="235" height="80" />
<line x1="415" y1="31" x2="650" y2="31" />
<line x1="415" y1="43" x2="650" y2="43" />
</g>
<g stroke="none">
<text x="416" y="19">GtkCairoContext</text>
<text x="416" y="28">oovcde</text>
<text x="416" y="40">-&lt;&lt;typedef&gt;&gt;cairo_t mCr</text>
<text x="416" y="52">+GtkCairoContext(&lt;&lt;typedef&gt;&gt;GtkWidget widget)</text>
<text x="416" y="61">+setContext(&lt;&lt;typedef&gt;&gt;GtkWidget widget)</text>
<text x="416" y="70">+clear()</text>
<text x="416" y="79">+~GtkCairoContext()</text>
<text x="416" y="88">+getCairo()</text>
</g>
<g  fill="#f5fff5" stroke="#000000" style="stroke-width:1">
<rect x="434" y="108" width="215" height="143" />
<line x1="434" y1="129" x2="649" y2="129" />
<line x1="434" y1="141" x2="649" y2="141" />
</g>
<g stroke="none">
<text x="435" y="117">NullDrawer</text>
<text x="435" y="126">oovcde</text>
<text x="435" y="138">#&lt;&lt;typedef&gt;&gt;cairo_t cr</text>
<text x="435" y="150">+getTextExtentWidth(OovStringRef )</text>
<text x="435" y="159">+getTextExtentHeight(OovStringRef )</text>
<text x="435" y="168">+NullDrawer(&lt;&lt;typedef&gt;&gt;cairo_t c)</text>
<text x="435" y="177">+setGraphicsLib(&lt;&lt;typedef&gt;&gt;cairo_t c)</text>
<text x="435" y="186">+haveCr()</text>
<text x="435" y="195">+setDiagramSize(&lt;&lt;typedef&gt;&gt;GraphSize )</text>
<text x="435" y="204">+drawRect(GraphRect )</text>
<text x="435" y="213">+drawLine(GraphPoint , GraphPoint , bool )</text>
<text x="435" y="222">+drawCircle(GraphPoint , int , Color )</text>
<text x="435" y="231">+drawEllipse(GraphRect )</text>
<text x="435" y="240">+drawPoly(&lt;&lt;typedef&gt;&gt;OovPolygon , Color )</text>
<text x="435" y="249">+drawText(GraphPoint , OovStringRef )</text>
</g>
<g  fill="#f5fff5" stroke="#000000" style="stroke-width:1">
<rect x="402" y="288" width="179" height="44" />
<line x1="402" y1="309" x2="581" y2="309" />
<line x1="402" y1="312" x2="581" y2="312" />
</g>
<g stroke="none">
<text x="403" y="297">ClassDiagramListener</text>
<text x="403" y="306">oovcde</text>
<text x="403" y="321">+~ClassDiagramListener()</text>
<text x="403" y="330">+gotoClass(OovStringRef className)</text>
</g>
<g  fill="#f5fff5" stroke="#000000" style="stroke-width:1">
<rect x="257" y="506" width="227" height="98" />
<line x1="257" y1="527" x2="484" y2="527" />
<line x1="257" y1="539" x2="484" y2="539" />
</g>
<g stroke="none">
<text x="258" y="515">ForegroundThreadBusyDialog</text>
<text x="258" y="524">oovcde</text>
<text x="258" y="536">-TaskBusyDialog mDialog</text>
<text x="258" y="548">+startTask(OovStringRef text, &lt;&lt;typedef&gt;</text>
<text x="265" y="557">&gt;size_t totalIterations)</text>
<text x="258" y="566">+updateProgressIteration(&lt;&lt;typedef&gt;</text>
<text x="265" y="575">&gt;OovTaskStatusListenerId id, &lt;&lt;typedef&gt;</text>
<text x="265" y="584">&gt;size_t i, OovStringRef text)</text>
<text x="258" y="593">+endTask(&lt;&lt;typedef&gt;&gt;OovTaskStatusListenerId</text>
<text x="265" y="602"> id)</text>
</g>
<g  fill="#f5fff5" stroke="#000000" style="stroke-width:1">
<rect x="16" y="407" width="94" height="26" />
<line x1="16" y1="428" x2="110" y2="428" />
<line x1="16" y1="431" x2="110" y2="431" />
</g>
<g stroke="none">
<text x="17" y="416">ClassGraphListener</text>
<text x="17" y="425">oovcde/BLL</text>
</g>
<g  fill="#f5fff5" stroke="#000000" style="stroke-width:1">
<rect x="381" y="373" width="63" height="26" />
<line x1="381" y1="394" x2="444" y2="394" />
<line x1="381" y1="397" x2="444" y2="397" />
</g>
<g stroke="none">
<text x="382" y="382">ModelData</text>
<text x="382" y="391">oovCommon</text>
</g>
<g  fill="#f5fff5" stroke="#000000" style="stroke-width:1">
<rect x="177" y="414" width="60" height="26" />
<line x1="177" y1="435" x2="237" y2="435" />
<line x1="177" y1="438" x2="237" y2="438" />
</g>
<g stroke="none">
<text x="178" y="423">ClassGraph</text>
<text x="178" y="432">oovcde/BLL</text>
</g>
<g  fill="#f5fff5" stroke="#000000" style="stroke-width:1">
<rect x="329" y="431" width="110" height="26" />
<line x1="329" y1="452" x2="439" y2="452" />
<line x1="329" y1="455" x2="439" y2="455" />
</g>
<g stroke="none">
<text x="330" y="440">OovTaskStatusListener</text>
<text x="330" y="449">oovCommon</text>
</g>
<g  fill="#f5fff5" stroke="#000000" style="stroke-width:1">
<rect x="537" y="403" width="76" height="26" />
<line x1="537" y1="424" x2="613" y2="424" />
<line x1="537" y1="427" x2="613" y2="427" />
</g>
<g stroke="none">
<text x="538" y="412">DiagramDrawer</text>
<text x="538" y="421">oovcde/BLL</text>
</g>
<g  fill="#f5f5ff" stroke="#000000" style="stroke-width:1">
<line x1="146" y1="351" x2="89" y2="528" />
<circle cx="141" cy="364" r="5" style="fill:#ffffff" />
<circle cx="136" cy="379" r="5" style="fill:#000000" />
<circle cx="136" cy="379" r="2" style="fill:#000000" />
<polygon points="146,351 140,357 142,364 147,359 146,351 " style="fill:#000000" />
<line x1="387" y1="108" x2="431" y2="90" />
<circle cx="399" cy="102" r="5" style="fill:#ffffff" />
<circle cx="414" cy="96" r="5" style="fill:#000000" />
<circle cx="414" cy="96" r="2" style="fill:#000000" />
<polygon points="387,108 395,109 399,103 392,101 387,108 " style="fill:#000000" />
<line x1="387" y1="180" x2="434" y2="179" />
<circle cx="400" cy="179" r="5" style="fill:#ffffff" />
<circle cx="416" cy="179" r="5" style="fill:#000000" />
<circle cx="416" cy="179" r="2" style="fill:#000000" />
<polygon points="387,180 394,184 400,180 394,176 387,180 " style="fill:#000000" />
<line x1="387" y1="264" x2="442" y2="288" />
<circle cx="399" cy="269" r="5" style="fill:#ffffff" />
<circle cx="414" cy="275" r="5" style="fill:#000000" />
<circle cx="414" cy="275" r="2" style="fill:#000000" />
<polygon points="387,264 392,271 399,269 395,263 387,264 " style="fill:#ffffff" />
<line x1="276" y1="351" x2="348" y2="506" />
<circle cx="288" cy="378" r="5" style="fill:#000000" />
<circle cx="288" cy="378" r="2" style="fill:#000000" />
<polygon points="276,351 276,359 281,363 283,356 276,351 " style="fill:#000000" />
<line x1="103" y1="351" x2="70" y2="407" />
<circle cx="85" cy="381" r="5" style="fill:#ffffff" />
<circle cx="85" cy="381" r="2" style="fill:#ffffff" />
<polygon points="70,407 81,399 71,394 70,407 " style="fill:#ffffff" />
<line x1="375" y1="351" x2="399" y2="373" />
<polygon points="375,351 376,360 377,353 384,352 375,351 " style="fill:#ffffff" />
<circle cx="385" cy="360" r="5" style="fill:#ffffff" />
<circle cx="390" cy="365" r="2" style="fill:#ffffff" />
<line x1="318" y1="351" x2="375" y2="431" />
<circle cx="326" cy="362" r="5" style="fill:#ffffff" />
<circle cx="330" cy="368" r="2" style="fill:#ffffff" />
<line x1="83" y1="528" x2="65" y2="433" />
<circle cx="80" cy="514" r="5" style="fill:#ffffff" />
<circle cx="79" cy="507" r="2" style="fill:#ffffff" />
<line x1="112" y1="528" x2="385" y2="399" />
<polygon points="112,528 121,529 115,527 116,520 112,528 " style="fill:#ffffff" />
<circle cx="124" cy="522" r="5" style="fill:#ffffff" />
<circle cx="139" cy="515" r="5" style="fill:#000000" />
<circle cx="139" cy="515" r="2" style="fill:#000000" />
<polygon points="112,528 120,528 124,523 117,521 112,528 " style="fill:#ffffff" />
<line x1="98" y1="528" x2="194" y2="440" />
<circle cx="108" cy="518" r="5" style="fill:#ffffff" />
<circle cx="120" cy="507" r="5" style="fill:#000000" />
<circle cx="120" cy="507" r="2" style="fill:#000000" />
<polygon points="98,528 106,527 108,519 100,520 98,528 " style="fill:#000000" />
<line x1="118" y1="531" x2="344" y2="457" />
<circle cx="131" cy="526" r="5" style="fill:#ffffff" />
<circle cx="137" cy="524" r="2" style="fill:#ffffff" />
<line x1="118" y1="533" x2="537" y2="425" />
<circle cx="131" cy="529" r="5" style="fill:#ffffff" />
<circle cx="138" cy="527" r="2" style="fill:#ffffff" />
<line x1="551" y1="250" x2="574" y2="403" />
<circle cx="569" cy="373" r="5" style="fill:#ffffff" />
<circle cx="569" cy="373" r="2" style="fill:#ffffff" />
<polygon points="574,403 577,390 567,392 574,403 " style="fill:#ffffff" />
<line x1="376" y1="506" x2="383" y2="457" />
<circle cx="378" cy="486" r="5" style="fill:#ffffff" />
<circle cx="378" cy="486" r="2" style="fill:#ffffff" />
<polygon points="383,457 376,469 386,470 383,457 " style="fill:#ffffff" />
<line x1="110" y1="422" x2="177" y2="426" />
<circle cx="163" cy="425" r="5" style="fill:#ffffff" />
<circle cx="147" cy="424" r="5" style="fill:#000000" />
<circle cx="147" cy="424" r="2" style="fill:#000000" />
<polygon points="177,426 170,422 164,426 169,430 177,426 " style="fill:#ffffff" />
<line x1="381" y1="392" x2="237" y2="421" />
<polygon points="237,421 246,425 240,421 243,414 237,421 " style="fill:#ffffff" />
<circle cx="250" cy="418" r="5" style="fill:#ffffff" />
<circle cx="266" cy="415" r="5" style="fill:#000000" />
<circle cx="266" cy="415" r="2" style="fill:#000000" />
<line x1="237" y1="429" x2="329" y2="439" />
<circle cx="250" cy="430" r="5" style="fill:#ffffff" />
<circle cx="266" cy="432" r="5" style="fill:#000000" />
<circle cx="266" cy="432" r="2" style="fill:#000000" />
<polygon points="237,429 244,434 250,430 245,426 237,429 " style="fill:#ffffff" />
<line x1="237" y1="427" x2="537" y2="417" />
<circle cx="250" cy="426" r="5" style="fill:#ffffff" />
<circle cx="266" cy="426" r="5" style="fill:#000000" />
<circle cx="266" cy="426" r="2" style="fill:#000000" />
<polygon points="237,427 244,431 250,427 244,423 237,427 " style="fill:#ffffff" />
</g>
</svg>