<svg xmlns="http://www.w3.org/2000/svg" version="1.1"
  font-family="Arial, Helvetica, sans-serif" font-size="10.000000" 
  width="600" height="757">
<g  fill="#f5fff5" stroke="#000000" style="stroke-width:1">
<rect x="466" y="217" width="133" height="143" />
<line x1="466" y1="230" x2="599" y2="230" />
<polygon points="579,238 591,243 591,233 579,238 " style="fill:#ffffff" />
<polygon points="579,252 586,256 593,252 586,248 579,252 " style="fill:#ffffff" />
<polygon points="579,266 586,270 593,266 586,262 579,266 " style="fill:#000000" />
<polygon points="579,280 587,285 583,280 587,275 579,280 " style="fill:#ffffff" />
<circle cx="579" cy="294" r="5" style="fill:#ffffff" />
<circle cx="579" cy="308" r="5" style="fill:#ffffff" />
<circle cx="586" cy="308" r="2" style="fill:#ffffff" />
<circle cx="579" cy="322" r="5" style="fill:#ffffff" />
<circle cx="579" cy="322" r="2" style="fill:#ffffff" />
<circle cx="579" cy="336" r="5" style="fill:#ffffff" />
<circle cx="579" cy="336" r="2" style="fill:#000000" />
<circle cx="579" cy="350" r="5" style="fill:#000000" />
<circle cx="579" cy="350" r="2" style="fill:#000000" />
</g>
<g stroke="none">
<text x="467" y="226">Relations Key</text>
<text x="467" y="240">Generalization</text>
<text x="467" y="254">Aggregation(reference)</text>
<text x="467" y="268">Composition(owned)</text>
<text x="467" y="282">Const</text>
<text x="467" y="296">Method Variable</text>
<text x="467" y="310">Method Parameter</text>
<text x="467" y="324">Public</text>
<text x="467" y="338">Protected</text>
<text x="467" y="352">Private</text>
</g>
<g  fill="#f5fff5" stroke="#000000" style="stroke-width:1">
<rect x="11" y="11" width="436" height="359" />
<line x1="11" y1="32" x2="447" y2="32" />
<line x1="11" y1="89" x2="447" y2="89" />
</g>
<g stroke="none">
<text x="12" y="20">ClassDiagramView</text>
<text x="12" y="29">oovcde</text>
<text x="12" y="41">-GuiOptions mGuiOptions</text>
<text x="12" y="50">-ClassDiagram mClassDiagram</text>
<text x="12" y="59">-GtkCairoContext mCairoContext</text>
<text x="12" y="68">-NullDrawer mNullDrawer</text>
<text x="12" y="77">-ClassDiagramListener mListener</text>
<text x="12" y="86">-ForegroundThreadBusyDialog mForegroundBusyDialog</text>
<text x="12" y="98">+initialize(ModelData modelData, ClassDiagramListener listener, OovTaskStatusListener</text>
<text x="19" y="107"> taskStatusListener)</text>
<text x="12" y="116">+buttonPressEvent(GdkEventButton&lt;&lt;typedef&gt;&gt; event)</text>
<text x="12" y="125">+buttonReleaseEvent(GdkEventButton&lt;&lt;typedef&gt;&gt; event)</text>
<text x="12" y="134">+drawToDrawingArea()</text>
<text x="12" y="143">+drawSvgDiagram(FILE&lt;&lt;typedef&gt;&gt; fp)</text>
<text x="12" y="152">+updateGraph(bool reposition)</text>
<text x="12" y="161">+gotoClass(OovStringRef className)</text>
<text x="12" y="170">+displayListContextMenu(guint&lt;&lt;typedef&gt;&gt; button, guint32&lt;&lt;typedef&gt;&gt; acttime,</text>
<text x="19" y="179"> gpointer&lt;&lt;typedef&gt;&gt; data)</text>
<text x="12" y="188">+displayAddClassDialog()</text>
<text x="12" y="197">+selectAddClass(ModelType type, ClassGraph::eAddNodeTypes addType)</text>
<text x="12" y="206">+viewSource(OovStringRef module, unsigned int lineNum)</text>
<text x="12" y="215">-displayDrawContextMenu(guint&lt;&lt;typedef&gt;&gt; button, guint32&lt;&lt;typedef&gt;&gt; acttime,</text>
<text x="19" y="224"> gpointer&lt;&lt;typedef&gt;&gt; data)</text>
<text x="12" y="233">-updateDrawingAreaSize()</text>
<text x="12" y="242">+ClassDiagramView(GuiOptions guiOptions)</text>
<text x="12" y="251">+~ClassDiagramView()</text>
<text x="12" y="260">+clearGraphAndAddClass(OovStringRef className, ClassGraph::eAddNodeTypes addType)</text>
<text x="12" y="269">+addClass(OovStringRef className, ClassGraph::eAddNodeTypes addType, int depth,</text>
<text x="19" y="278"> bool reposition)</text>
<text x="12" y="287">+saveDiagram(FILE&lt;&lt;typedef&gt;&gt; fp)</text>
<text x="12" y="296">+loadDiagram(FILE&lt;&lt;typedef&gt;&gt; fp)</text>
<text x="12" y="305">+isModified()</text>
<text x="12" y="314">+requestRedraw()</text>
<text x="12" y="323">+getDiagram()</text>
<text x="12" y="332">+getNode(int x, int y)</text>
<text x="12" y="341">+getGuiOptions()</text>
<text x="12" y="350">-getDiagramWidget()</text>
<text x="12" y="359">-setCairoContext()</text>
</g>
<g stroke="none" font-style="italic">
<text x="12" y="368">-doneRepositioning()</text>
</g>
<g  fill="#f5fff5" stroke="#000000" style="stroke-width:1">
<rect x="28" y="593" width="67" height="26" />
<line x1="28" y1="614" x2="95" y2="614" />
<line x1="28" y1="617" x2="95" y2="617" />
</g>
<g stroke="none">
<text x="29" y="602">ClassDiagram</text>
<text x="29" y="611">oovcde/BLL</text>
</g>
<g stroke="none" font-style="italic">
</g>
<g  fill="#f5fff5" stroke="#000000" style="stroke-width:1">
<rect x="362" y="486" width="235" height="80" />
<line x1="362" y1="507" x2="597" y2="507" />
<line x1="362" y1="519" x2="597" y2="519" />
</g>
<g stroke="none">
<text x="363" y="495">GtkCairoContext</text>
<text x="363" y="504">oovcde</text>
<text x="363" y="516">-cairo_t&lt;&lt;typedef&gt;&gt; mCr</text>
<text x="363" y="528">+GtkCairoContext(GtkWidget&lt;&lt;typedef&gt;&gt; widget)</text>
<text x="363" y="537">+setContext(GtkWidget&lt;&lt;typedef&gt;&gt; widget)</text>
<text x="363" y="546">+clear()</text>
<text x="363" y="555">+~GtkCairoContext()</text>
<text x="363" y="564">+getCairo()</text>
</g>
<g stroke="none" font-style="italic">
</g>
<g  fill="#f5fff5" stroke="#000000" style="stroke-width:1">
<rect x="384" y="613" width="215" height="143" />
<line x1="384" y1="634" x2="599" y2="634" />
<line x1="384" y1="646" x2="599" y2="646" />
</g>
<g stroke="none">
<text x="385" y="622">NullDrawer</text>
<text x="385" y="631">oovcde</text>
<text x="385" y="643">#cairo_t&lt;&lt;typedef&gt;&gt; cr</text>
<text x="385" y="673">+NullDrawer(cairo_t&lt;&lt;typedef&gt;&gt; c)</text>
<text x="385" y="682">+setGraphicsLib(cairo_t&lt;&lt;typedef&gt;&gt; c)</text>
<text x="385" y="691">+haveCr()</text>
</g>
<g stroke="none" font-style="italic">
<text x="385" y="655">+getTextExtentWidth(OovStringRef )</text>
<text x="385" y="664">+getTextExtentHeight(OovStringRef )</text>
<text x="385" y="700">+setDiagramSize(GraphSize&lt;&lt;typedef&gt;&gt; )</text>
<text x="385" y="709">+drawRect(GraphRect )</text>
<text x="385" y="718">+drawLine(GraphPoint , GraphPoint , bool )</text>
<text x="385" y="727">+drawCircle(GraphPoint , int , Color )</text>
<text x="385" y="736">+drawEllipse(GraphRect )</text>
<text x="385" y="745">+drawPoly(OovPolygon&lt;&lt;typedef&gt;&gt; , Color )</text>
<text x="385" y="754">+drawText(GraphPoint , OovStringRef )</text>
</g>
<g  fill="#f5fff5" stroke="#000000" style="stroke-width:1">
<rect x="418" y="407" width="179" height="44" />
<line x1="418" y1="428" x2="597" y2="428" />
<line x1="418" y1="431" x2="597" y2="431" />
</g>
<g stroke="none">
<text x="419" y="416">ClassDiagramListener</text>
<text x="419" y="425">oovcde</text>
</g>
<g stroke="none" font-style="italic">
<text x="419" y="440">+~ClassDiagramListener()</text>
<text x="419" y="449">+gotoClass(OovStringRef className)</text>
</g>
<g  fill="#f5fff5" stroke="#000000" style="stroke-width:1">
<rect x="128" y="658" width="195" height="98" />
<line x1="128" y1="679" x2="323" y2="679" />
<line x1="128" y1="691" x2="323" y2="691" />
</g>
<g stroke="none">
<text x="129" y="667">ForegroundThreadBusyDialog</text>
<text x="129" y="676">oovcde</text>
<text x="129" y="688">-TaskBusyDialog mDialog</text>
</g>
<g stroke="none" font-style="italic">
<text x="129" y="700">+startTask(OovStringRef text,</text>
<text x="136" y="709"> size_t&lt;&lt;typedef&gt;&gt; totalIterations)</text>
<text x="129" y="718">+updateProgressIteration(OovTaskStatus</text>
<text x="136" y="727">ListenerId&lt;&lt;typedef&gt;&gt; id, size_t&lt;</text>
<text x="136" y="736">&lt;typedef&gt;&gt; i, OovStringRef text)</text>
<text x="129" y="745">+endTask(OovTaskStatusListenerId&lt;</text>
<text x="136" y="754">&lt;typedef&gt;&gt; id)</text>
</g>
<g  fill="#f5fff5" stroke="#000000" style="stroke-width:1">
<rect x="16" y="407" width="94" height="26" />
<line x1="16" y1="428" x2="110" y2="428" />
<line x1="16" y1="431" x2="110" y2="431" />
</g>
<g stroke="none">
<text x="17" y="416">ClassGraphListener</text>
<text x="17" y="425">oovcde/BLL</text>
</g>
<g stroke="none" font-style="italic">
</g>
<g  fill="#f5fff5" stroke="#000000" style="stroke-width:1">
<rect x="182" y="568" width="63" height="26" />
<line x1="182" y1="589" x2="245" y2="589" />
<line x1="182" y1="592" x2="245" y2="592" />
</g>
<g stroke="none">
<text x="183" y="577">ModelData</text>
<text x="183" y="586">oovCommon</text>
</g>
<g stroke="none" font-style="italic">
</g>
<g  fill="#f5fff5" stroke="#000000" style="stroke-width:1">
<rect x="128" y="476" width="60" height="26" />
<line x1="128" y1="497" x2="188" y2="497" />
<line x1="128" y1="500" x2="188" y2="500" />
</g>
<g stroke="none">
<text x="129" y="485">ClassGraph</text>
<text x="129" y="494">oovcde/BLL</text>
</g>
<g stroke="none" font-style="italic">
</g>
<g  fill="#f5fff5" stroke="#000000" style="stroke-width:1">
<rect x="252" y="422" width="110" height="26" />
<line x1="252" y1="443" x2="362" y2="443" />
<line x1="252" y1="446" x2="362" y2="446" />
</g>
<g stroke="none">
<text x="253" y="431">OovTaskStatusListener</text>
<text x="253" y="440">oovCommon</text>
</g>
<g stroke="none" font-style="italic">
</g>
<g  fill="#f5fff5" stroke="#000000" style="stroke-width:1">
<rect x="279" y="607" width="76" height="26" />
<line x1="279" y1="628" x2="355" y2="628" />
<line x1="279" y1="631" x2="355" y2="631" />
</g>
<g stroke="none">
<text x="280" y="616">DiagramDrawer</text>
<text x="280" y="625">oovcde/BLL</text>
</g>
<g stroke="none" font-style="italic">
</g>
<g  fill="#f5f5ff" stroke="#000000" style="stroke-width:1">
<line x1="157" y1="369" x2="66" y2="593" />
<circle cx="151" cy="381" r="5" style="fill:#ffffff" />
<circle cx="145" cy="396" r="5" style="fill:#000000" />
<circle cx="145" cy="396" r="2" style="fill:#000000" />
<polygon points="157,369 150,374 152,381 158,377 157,369 " style="fill:#000000" />
<line x1="362" y1="369" x2="450" y2="486" />
<circle cx="370" cy="380" r="5" style="fill:#ffffff" />
<circle cx="380" cy="392" r="5" style="fill:#000000" />
<circle cx="380" cy="392" r="2" style="fill:#000000" />
<polygon points="362,369 363,377 370,380 370,372 362,369 " style="fill:#000000" />
<line x1="323" y1="369" x2="454" y2="613" />
<circle cx="329" cy="381" r="5" style="fill:#ffffff" />
<circle cx="337" cy="395" r="5" style="fill:#000000" />
<circle cx="337" cy="395" r="2" style="fill:#000000" />
<polygon points="323,369 323,377 329,381 330,373 323,369 " style="fill:#000000" />
<line x1="437" y1="369" x2="482" y2="407" />
<circle cx="447" cy="378" r="5" style="fill:#ffffff" />
<circle cx="453" cy="382" r="2" style="fill:#ffffff" />
<circle cx="459" cy="388" r="5" style="fill:#000000" />
<circle cx="459" cy="388" r="2" style="fill:#000000" />
<polygon points="437,369 440,377 447,378 445,370 437,369 " style="fill:#ffffff" />
<line x1="228" y1="369" x2="225" y2="658" />
<circle cx="227" cy="398" r="5" style="fill:#000000" />
<circle cx="227" cy="398" r="2" style="fill:#000000" />
<polygon points="228,369 224,376 228,382 232,376 228,369 " style="fill:#000000" />
<line x1="100" y1="369" x2="72" y2="407" />
<circle cx="89" cy="382" r="5" style="fill:#ffffff" />
<circle cx="89" cy="382" r="2" style="fill:#ffffff" />
<polygon points="72,407 83,400 75,394 72,407 " style="fill:#ffffff" />
<line x1="222" y1="369" x2="213" y2="568" />
<polygon points="222,369 216,376 222,372 227,377 222,369 " style="fill:#ffffff" />
<circle cx="221" cy="382" r="5" style="fill:#ffffff" />
<circle cx="221" cy="389" r="2" style="fill:#ffffff" />
<line x1="285" y1="369" x2="303" y2="422" />
<circle cx="289" cy="382" r="5" style="fill:#ffffff" />
<circle cx="291" cy="388" r="2" style="fill:#ffffff" />
<line x1="61" y1="593" x2="63" y2="433" />
<circle cx="61" cy="579" r="5" style="fill:#ffffff" />
<circle cx="61" cy="572" r="2" style="fill:#ffffff" />
<line x1="94" y1="601" x2="182" y2="586" />
<polygon points="94,601 102,605 97,601 100,594 94,601 " style="fill:#ffffff" />
<circle cx="107" cy="598" r="5" style="fill:#ffffff" />
<circle cx="114" cy="597" r="2" style="fill:#ffffff" />
<circle cx="123" cy="595" r="5" style="fill:#000000" />
<circle cx="123" cy="595" r="2" style="fill:#000000" />
<polygon points="94,601 102,604 107,599 100,596 94,601 " style="fill:#ffffff" />
<line x1="71" y1="593" x2="148" y2="502" />
<circle cx="80" cy="582" r="5" style="fill:#ffffff" />
<circle cx="90" cy="570" r="5" style="fill:#000000" />
<circle cx="90" cy="570" r="2" style="fill:#000000" />
<polygon points="71,593 79,590 80,583 72,585 71,593 " style="fill:#000000" />
<line x1="79" y1="593" x2="289" y2="448" />
<circle cx="90" cy="585" r="5" style="fill:#ffffff" />
<circle cx="96" cy="581" r="2" style="fill:#ffffff" />
<line x1="94" y1="607" x2="279" y2="618" />
<circle cx="107" cy="607" r="5" style="fill:#ffffff" />
<circle cx="114" cy="608" r="2" style="fill:#ffffff" />
<line x1="384" y1="645" x2="352" y2="633" />
<circle cx="380" cy="643" r="5" style="fill:#ffffff" />
<circle cx="380" cy="643" r="2" style="fill:#ffffff" />
<polygon points="352,633 362,642 365,633 352,633 " style="fill:#ffffff" />
<line x1="239" y1="658" x2="304" y2="448" />
<circle cx="295" cy="476" r="5" style="fill:#ffffff" />
<circle cx="295" cy="476" r="2" style="fill:#ffffff" />
<polygon points="304,448 296,458 305,461 304,448 " style="fill:#ffffff" />
<line x1="80" y1="433" x2="141" y2="476" />
<circle cx="129" cy="467" r="5" style="fill:#ffffff" />
<circle cx="123" cy="463" r="2" style="fill:#ffffff" />
<circle cx="116" cy="458" r="5" style="fill:#000000" />
<circle cx="116" cy="458" r="2" style="fill:#000000" />
<polygon points="141,476 138,468 130,468 133,476 141,476 " style="fill:#ffffff" />
<line x1="206" y1="568" x2="165" y2="502" />
<polygon points="165,502 165,511 167,505 174,505 165,502 " style="fill:#ffffff" />
<circle cx="172" cy="513" r="5" style="fill:#ffffff" />
<circle cx="176" cy="519" r="2" style="fill:#ffffff" />
<line x1="188" y1="479" x2="272" y2="448" />
<circle cx="201" cy="474" r="5" style="fill:#ffffff" />
<circle cx="207" cy="471" r="2" style="fill:#ffffff" />
<circle cx="216" cy="468" r="5" style="fill:#000000" />
<circle cx="216" cy="468" r="2" style="fill:#000000" />
<polygon points="188,479 196,480 201,475 193,473 188,479 " style="fill:#ffffff" />
<line x1="173" y1="502" x2="302" y2="607" />
<circle cx="183" cy="510" r="5" style="fill:#ffffff" />
<circle cx="189" cy="515" r="2" style="fill:#ffffff" />
<circle cx="196" cy="520" r="5" style="fill:#000000" />
<circle cx="196" cy="520" r="2" style="fill:#000000" />
<polygon points="173,502 176,510 183,510 181,503 173,502 " style="fill:#ffffff" />
</g>
</svg>