<svg xmlns="http://www.w3.org/2000/svg" version="1.1"
  font-family="Arial, Helvetica, sans-serif" font-size="10.000000" 
  width="771" height="1554">
<g  fill="#f5fff5" stroke="#000000" style="stroke-width:1">
<rect x="637" y="756" width="133" height="143" />
<line x1="637" y1="769" x2="770" y2="769" />
<polygon points="750,777 762,782 762,772 750,777 " style="fill:#ffffff" />
<polygon points="750,791 757,795 764,791 757,787 750,791 " style="fill:#ffffff" />
<polygon points="750,805 757,809 764,805 757,801 750,805 " style="fill:#000000" />
<polygon points="750,819 758,824 754,819 758,814 750,819 " style="fill:#ffffff" />
<circle cx="750" cy="833" r="5" style="fill:#ffffff" />
<circle cx="750" cy="847" r="5" style="fill:#ffffff" />
<circle cx="757" cy="847" r="2" style="fill:#ffffff" />
<circle cx="750" cy="861" r="5" style="fill:#ffffff" />
<circle cx="750" cy="861" r="2" style="fill:#ffffff" />
<circle cx="750" cy="875" r="5" style="fill:#ffffff" />
<circle cx="750" cy="875" r="2" style="fill:#000000" />
<circle cx="750" cy="889" r="5" style="fill:#000000" />
<circle cx="750" cy="889" r="2" style="fill:#000000" />
</g>
<g stroke="none">
<text x="638" y="765">Relations Key</text>
<text x="638" y="779">Generalization</text>
<text x="638" y="793">Aggregation(reference)</text>
<text x="638" y="807">Composition(owned)</text>
<text x="638" y="821">Const</text>
<text x="638" y="835">Method Variable</text>
<text x="638" y="849">Method Parameter</text>
<text x="638" y="863">Public</text>
<text x="638" y="877">Protected</text>
<text x="638" y="891">Private</text>
</g>
<g  fill="#f5fff5" stroke="#000000" style="stroke-width:1">
<rect x="17" y="15" width="448" height="377" />
<line x1="17" y1="36" x2="465" y2="36" />
<line x1="17" y1="93" x2="465" y2="93" />
</g>
<g stroke="none">
<text x="18" y="24">ClassDiagram</text>
<text x="18" y="33">oovcde/BLL</text>
<text x="18" y="45">+int DEPTH_IMMEDIATE_RELATIONS</text>
<text x="18" y="54">+int DEPTH_SINGLE_CLASS</text>
<text x="18" y="63">-ModelData mModelData</text>
<text x="18" y="72">-ClassGraph mClassGraph</text>
<text x="18" y="81">-OovString mLastSelectedClassName</text>
<text x="18" y="90">-double mDesiredZoom</text>
<text x="18" y="102">+initialize(ModelData modelData, DiagramDrawer nullDrawer, ClassDrawOptions options,</text>
<text x="25" y="111"> ClassGraphListener graphListener, OovTaskStatusListener foregroundTaskStatusListener</text>
<text x="25" y="120">, OovTaskStatusListener backgroundTaskStatusListener)</text>
<text x="18" y="129">+restart()</text>
<text x="18" y="138">+clearGraphAndAddClass(OovStringRef className, ClassGraph::eAddNodeTypes addType,</text>
<text x="25" y="147"> int depth, bool reposition)</text>
<text x="18" y="156">+addClass(OovStringRef className, ClassGraph::eAddNodeTypes addType, int depth,</text>
<text x="25" y="165"> bool reposition)</text>
<text x="18" y="174">+updateGraph(bool resposition)</text>
<text x="18" y="183">+drawDiagram(DiagramDrawer drawer)</text>
<text x="18" y="192">+saveDiagram(&lt;&lt;typedef&gt;&gt;FILE fp)</text>
<text x="18" y="201">+loadDiagram(&lt;&lt;typedef&gt;&gt;FILE fp)</text>
<text x="18" y="210">+getNode(int x, int y)</text>
<text x="18" y="219">+ClassDiagram()</text>
<text x="18" y="228">+clearGraph()</text>
<text x="18" y="237">+addRelatedNodesRecurse(ModelData model, ModelType type, ClassGraph::eAddNodeTypes </text>
<text x="25" y="246">addType, int maxDepth)</text>
<text x="18" y="255">+getRelatedNodesRecurse(ModelData model, ModelType type, std::vector&lt;ClassNode,</text>
<text x="25" y="264">std::allocator&lt;ClassNode&gt; &gt; nodes, ClassGraph::eAddNodeTypes addType, int maxDepth)</text>
<text x="18" y="273">+removeNode(ClassNode node, ModelData modelData)</text>
<text x="18" y="282">+isNodeTypePresent(ClassNode node)</text>
<text x="18" y="291">+setNullDrawer(DiagramDrawer drawer)</text>
<text x="18" y="300">+changeOptions(ClassDrawOptions options)</text>
<text x="18" y="309">+getNodes()</text>
<text x="18" y="318">+getNodes()</text>
<text x="18" y="327">+setZoom(double zoom)</text>
<text x="18" y="336">+getDesiredZoom()</text>
<text x="18" y="345">+getGraphSize()</text>
<text x="18" y="354">+setModified()</text>
<text x="18" y="363">+isModified()</text>
<text x="18" y="372">+getModelData()</text>
<text x="18" y="381">+getLastSelectedClassName()</text>
<text x="18" y="390">-setLastSelectedClassName(OovStringRef name)</text>
</g>
<g  fill="#f5fff5" stroke="#000000" style="stroke-width:1">
<rect x="705" y="495" width="63" height="26" />
<line x1="705" y1="516" x2="768" y2="516" />
<line x1="705" y1="519" x2="768" y2="519" />
</g>
<g stroke="none">
<text x="706" y="504">ModelData</text>
<text x="706" y="513">oovCommon</text>
</g>
<g  fill="#f5fff5" stroke="#000000" style="stroke-width:1">
<rect x="20" y="511" width="602" height="512" />
<line x1="20" y1="532" x2="622" y2="532" />
<line x1="20" y1="670" x2="622" y2="670" />
</g>
<g stroke="none">
<text x="21" y="520">ClassGraph</text>
<text x="21" y="529">oovcde/BLL</text>
<text x="21" y="541">-std::vector&lt;ClassNode,std::allocator&lt;ClassNode&gt; &gt; mNodes</text>
<text x="21" y="550">-std::map&lt;nodePair,ClassConnectItem,std::less&lt;nodePair&gt;,std::allocator&lt;std::pair&lt;nodePair,ClassConnectItem&gt;</text>
<text x="28" y="559"> &gt; &gt; mConnectMap</text>
<text x="21" y="568">-ClassGenes mGenes</text>
<text x="21" y="577">-&lt;&lt;typedef&gt;&gt;GraphSize mPad</text>
<text x="21" y="586">-bool mModified</text>
<text x="21" y="595">-int mBackgroundTaskLevel</text>
<text x="21" y="604">-ClassGraphListener mGraphListener</text>
<text x="21" y="613">-OovTaskStatusListener mForegroundTaskStatusListener</text>
<text x="21" y="622">-OovTaskStatusListener mBackgroundTaskStatusListener</text>
<text x="21" y="631">-DiagramDrawer mNullDrawer</text>
<text x="21" y="640">-ClassDrawOptions mGraphOptions</text>
<text x="21" y="649">-int KEY_INDEX</text>
<text x="21" y="658">-int FIRST_CLASS_INDEX</text>
<text x="21" y="667">-&lt;&lt;typedef&gt;&gt;size_t NO_INDEX</text>
<text x="21" y="679">+initialize(ClassDrawOptions options, DiagramDrawer nullDrawer, ClassGraphListener graphListener, OovTaskStatus</text>
<text x="28" y="688">Listener foregroundTaskStatusListener, OovTaskStatusListener backgroundTaskStatusListener)</text>
<text x="21" y="697">+updateGraph(ModelData modelData, bool geneRepositioning)</text>
<text x="21" y="706">+addNode(ModelData model, char className, ClassGraph::eAddNodeTypes addType, int nodeDepth, bool reposition)</text>
<text x="21" y="715">+addRelatedNodesRecurse(ModelData model, ModelType type, ClassGraph::eAddNodeTypes addType, int maxDepth)</text>
<text x="21" y="724">+getRelatedNodesRecurse(ModelData model, ModelType type, ClassGraph::eAddNodeTypes addType, int maxDepth,</text>
<text x="28" y="733"> std::vector&lt;ClassNode,std::allocator&lt;ClassNode&gt; &gt; nodes)</text>
<text x="21" y="742">+getNodeSizeWithPadding(int nodeIndex)</text>
<text x="21" y="751">+getGraphSize()</text>
<text x="21" y="760">+getNode(int x, int y)</text>
<text x="21" y="769">+getNodeConnection(int node1, int node2)</text>
<text x="21" y="778">-removeNode(ClassNode node)</text>
<text x="21" y="787">-updateGenes(ModelData modelData, DiagramDrawer nullDrawer)</text>
<text x="21" y="796">-updateConnections(ModelData modelData)</text>
<text x="21" y="805">-insertConnection(int node1, int node2, ClassConnectItem connectItem)</text>
<text x="21" y="814">-insertConnection(int node1, ModelType type, ClassConnectItem connectItem)</text>
<text x="21" y="823">-addRelatedNodesRecurseUserToVector(ModelData model, ModelType type, ModelType modelType, ClassGraph::eAddNodeT</text>
<text x="28" y="832">ypes addType, int maxDepth, std::vector&lt;ClassNode,std::allocator&lt;ClassNode&gt; &gt; nodes)</text>
<text x="21" y="841">-addNodeToVector(ClassNode node, std::vector&lt;ClassNode,std::allocator&lt;ClassNode&gt; &gt; nodes)</text>
<text x="21" y="850">-addRelationKeyNode()</text>
<text x="21" y="859">-updateNodeSizes()</text>
<text x="21" y="868">-getAvgNodeSize()</text>
<text x="21" y="877">-getNodeIndex(ModelType type)</text>
<text x="21" y="886">-isNodeTypePresent(ClassNode node, std::vector&lt;ClassNode,std::allocator&lt;ClassNode&gt; &gt; nodes)</text>
<text x="21" y="895">-getComponentOptions(ModelType type, ClassNodeDrawOptions options)</text>
<text x="21" y="904">+ClassGraph()</text>
<text x="21" y="913">+~ClassGraph()</text>
<text x="21" y="922">+clearGraph()</text>
<text x="21" y="931">+removeNode(ClassNode node, ModelData modelData)</text>
<text x="21" y="940">+isNodeTypePresent(ClassNode node)</text>
<text x="21" y="949">+changeOptions(ClassDrawOptions options)</text>
<text x="21" y="958">+getOptions()</text>
<text x="21" y="967">+isModified()</text>
<text x="21" y="976">+setModified()</text>
<text x="21" y="985">+getNodes()</text>
<text x="21" y="994">+getNodes()</text>
<text x="21" y="1003">+getConnections()</text>
<text x="21" y="1012">+processItem(ClassGraphBackgroundItem item)</text>
<text x="21" y="1021">+setDrawer(DiagramDrawer drawer)</text>
</g>
<g  fill="#f5fff5" stroke="#000000" style="stroke-width:1">
<rect x="605" y="237" width="128" height="26" />
<line x1="605" y1="258" x2="733" y2="258" />
<line x1="605" y1="261" x2="733" y2="261" />
</g>
<g stroke="none">
<text x="606" y="246">std::vector&lt;ClassNode,std::</text>
<text x="606" y="255">  allocator&lt;ClassNode&gt; &gt;</text>
</g>
<g  fill="#f5fff5" stroke="#000000" style="stroke-width:1">
<rect x="565" y="1080" width="202" height="35" />
<line x1="565" y1="1110" x2="767" y2="1110" />
<line x1="565" y1="1113" x2="767" y2="1113" />
</g>
<g stroke="none">
<text x="566" y="1089">std::map&lt;nodePair,ClassConnectItem,std::</text>
<text x="566" y="1098">  less&lt;nodePair&gt;,std::allocator&lt;std::</text>
<text x="566" y="1107">  pair&lt;nodePair,ClassConnectItem&gt; &gt; &gt;</text>
</g>
<g  fill="#f5fff5" stroke="#000000" style="stroke-width:1">
<rect x="25" y="1327" width="226" height="224" />
<line x1="25" y1="1348" x2="251" y2="1348" />
<line x1="25" y1="1369" x2="251" y2="1369" />
</g>
<g stroke="none">
<text x="26" y="1336">ClassGenes</text>
<text x="26" y="1345">oovcde/BLL</text>
<text x="26" y="1357">-ClassGraph mGraph</text>
<text x="26" y="1366">-&lt;&lt;typedef&gt;&gt;GraphSize mDiagramSize</text>
<text x="26" y="1378">+initialize(ClassGraph graph, int avgNodeSize)</text>
<text x="26" y="1387">+updatePositionsInGraph(ClassGraph graph,</text>
<text x="33" y="1396"> OovTaskStatusListener listener, OovTaskCont</text>
<text x="33" y="1405">inueListener contListener)</text>
<text x="26" y="1414">-setupQualityEachGeneration()</text>
<text x="26" y="1423">-calculateSingleGeneQuality(&lt;&lt;typedef&gt;</text>
<text x="33" y="1432">&gt;size_t geneIndex)</text>
<text x="26" y="1441">-nodesOverlap(int geneIndex, int node1,</text>
<text x="33" y="1450"> int node2)</text>
<text x="26" y="1459">-lineNodeOverlap(int geneIndex, int ni,</text>
<text x="33" y="1468"> DiagramLine line)</text>
<text x="26" y="1477">-getLineForNodes(int geneIndex, int node1,</text>
<text x="33" y="1486"> int node2, DiagramLine line)</text>
<text x="26" y="1495">-getNodeRect(int geneIndex, int nodeIndex,</text>
<text x="33" y="1504"> GraphRect rect)</text>
<text x="26" y="1513">-getPosition(int geneIndex, int nodeIndex,</text>
<text x="33" y="1522"> GraphPoint pos)</text>
<text x="26" y="1531">-getSize(int geneIndex)</text>
<text x="26" y="1540">-isDistanceGoodQuality(int geneIndex,</text>
<text x="33" y="1549"> int ni1, int ni2)</text>
</g>
<g  fill="#f5fff5" stroke="#000000" style="stroke-width:1">
<rect x="653" y="327" width="114" height="44" />
<line x1="653" y1="348" x2="767" y2="348" />
<line x1="653" y1="351" x2="767" y2="351" />
</g>
<g stroke="none">
<text x="654" y="336">ClassGraphListener</text>
<text x="654" y="345">oovcde/BLL</text>
<text x="654" y="360">+~ClassGraphListener()</text>
<text x="654" y="369">+doneRepositioning()</text>
</g>
<g  fill="#f5fff5" stroke="#000000" style="stroke-width:1">
<rect x="658" y="568" width="110" height="26" />
<line x1="658" y1="589" x2="768" y2="589" />
<line x1="658" y1="592" x2="768" y2="592" />
</g>
<g stroke="none">
<text x="659" y="577">OovTaskStatusListener</text>
<text x="659" y="586">oovCommon</text>
</g>
<g  fill="#f5fff5" stroke="#000000" style="stroke-width:1">
<rect x="24" y="1057" width="249" height="233" />
<line x1="24" y1="1078" x2="273" y2="1078" />
<line x1="24" y1="1090" x2="273" y2="1090" />
</g>
<g stroke="none">
<text x="25" y="1066">DiagramDrawer</text>
<text x="25" y="1075">oovcde/BLL</text>
<text x="25" y="1087">-double mFontSize</text>
<text x="25" y="1099">+getPad(int div)</text>
<text x="25" y="1108">+getConnectionPoints(GraphRect consumerRect,</text>
<text x="32" y="1117"> GraphRect supplierRect, GraphPoint consumerPoin</text>
<text x="32" y="1126">t, GraphPoint supplierPoint)</text>
<text x="25" y="1135">+DiagramDrawer()</text>
<text x="25" y="1144">+~DiagramDrawer()</text>
<text x="25" y="1153">+setDiagramSize(&lt;&lt;typedef&gt;&gt;GraphSize size)</text>
<text x="25" y="1162">+setFontSize(double size)</text>
<text x="25" y="1171">+getFontSize()</text>
<text x="25" y="1180">+drawRect(GraphRect rect)</text>
<text x="25" y="1189">+drawLine(GraphPoint p1, GraphPoint p2, bool </text>
<text x="32" y="1198">dashed)</text>
<text x="25" y="1207">+drawCircle(GraphPoint p, int radius, Color </text>
<text x="32" y="1216">fillColor)</text>
<text x="25" y="1225">+drawEllipse(GraphRect rect)</text>
<text x="25" y="1234">+drawPoly(&lt;&lt;typedef&gt;&gt;OovPolygon poly, Color </text>
<text x="32" y="1243">fillColor)</text>
<text x="25" y="1252">+drawText(GraphPoint p, OovStringRef text)</text>
<text x="25" y="1261">+getTextExtentWidth(OovStringRef name)</text>
<text x="25" y="1270">+getTextExtentHeight(OovStringRef name)</text>
<text x="25" y="1279">+groupShapes(bool , Color , Color )</text>
<text x="25" y="1288">+groupText(bool )</text>
</g>
<g  fill="#f5fff5" stroke="#000000" style="stroke-width:1">
<rect x="242" y="433" width="87" height="17" />
<line x1="242" y1="445" x2="329" y2="445" />
<line x1="242" y1="448" x2="329" y2="448" />
</g>
<g stroke="none">
<text x="243" y="442">ClassDrawOptions</text>
</g>
<g  fill="#f5fff5" stroke="#000000" style="stroke-width:1">
<rect x="333" y="437" width="220" height="26" />
<line x1="333" y1="458" x2="553" y2="458" />
<line x1="333" y1="461" x2="553" y2="461" />
</g>
<g stroke="none">
<text x="334" y="446">ThreadedWorkBackgroundQueue&lt;ClassGraph,</text>
<text x="334" y="455">  ClassGraphBackgroundItem&gt;</text>
</g>
<g  fill="#f5fff5" stroke="#000000" style="stroke-width:1">
<rect x="319" y="1050" width="240" height="161" />
<line x1="319" y1="1071" x2="559" y2="1071" />
<line x1="319" y1="1101" x2="559" y2="1101" />
</g>
<g stroke="none">
<text x="320" y="1059">ClassDrawer</text>
<text x="320" y="1068">oovcde/BLL</text>
<text x="320" y="1080">-DiagramDrawer mDrawer</text>
<text x="320" y="1089">-double mActualZoomX</text>
<text x="320" y="1098">-double mActualZoomY</text>
<text x="320" y="1110">+setZoom(double zoom)</text>
<text x="320" y="1119">+drawDiagram(ClassGraph graph)</text>
<text x="320" y="1128">+drawNode(ClassNode node)</text>
<text x="320" y="1137">-drawConnectionLine(ClassNode node1,</text>
<text x="327" y="1146"> ClassNode node2)</text>
<text x="320" y="1155">-drawConnectionSymbols(ClassRelationDrawOptio</text>
<text x="327" y="1164">ns options, ClassNode node1, ClassNode </text>
<text x="327" y="1173">node2, ClassConnectItem connectItem)</text>
<text x="320" y="1182">-drawRelationKey(ClassNode node)</text>
<text x="320" y="1191">+ClassDrawer(DiagramDrawer drawer)</text>
<text x="320" y="1200">+getActualZoomX()</text>
<text x="320" y="1209">+getActualZoomY()</text>
</g>
<g  fill="#f5fff5" stroke="#000000" style="stroke-width:1">
<rect x="379" y="1221" width="388" height="332" />
<line x1="379" y1="1242" x2="767" y2="1242" />
<line x1="379" y1="1317" x2="767" y2="1317" />
</g>
<g stroke="none">
<text x="380" y="1230">GenePool</text>
<text x="380" y="1239">oovcde/BLL</text>
<text x="380" y="1251">#&lt;&lt;typedef&gt;&gt;size_t numgenes</text>
<text x="380" y="1260">#&lt;&lt;typedef&gt;&gt;size_t genesize</text>
<text x="380" y="1269">#double muterate</text>
<text x="380" y="1278">#std::vector&lt;unsigned char,std::allocator&lt;unsigned char&gt; &gt; genes</text>
<text x="380" y="1287">#std::vector&lt;unsigned char,std::allocator&lt;unsigned char&gt; &gt; bestgenes</text>
<text x="380" y="1296">#std::vector&lt;unsigned char,std::allocator&lt;unsigned char&gt; &gt; worstgenes</text>
<text x="380" y="1305">#&lt;&lt;typedef&gt;&gt;GeneValue min</text>
<text x="380" y="1314">#&lt;&lt;typedef&gt;&gt;GeneValue max</text>
<text x="380" y="1326">#computeQuality()</text>
<text x="380" y="1335">#crossover()</text>
<text x="380" y="1344">#mutate()</text>
<text x="380" y="1353">#buildBestWorstList()</text>
<text x="380" y="1362">#initialize(&lt;&lt;typedef&gt;&gt;size_t genebytes, &lt;&lt;typedef&gt;&gt;size_t numgenes, double </text>
<text x="387" y="1371">crossoverrate, double mutaterate, &lt;&lt;typedef&gt;&gt;GeneValue minrand, &lt;&lt;typedef&gt;</text>
<text x="387" y="1380">&gt;GeneValue maxrand)</text>
<text x="380" y="1389">#randomizeGene(&lt;&lt;typedef&gt;&gt;size_t geneIndex)</text>
<text x="380" y="1398">#randomizeGeneValue(&lt;&lt;typedef&gt;&gt;size_t geneIndex, &lt;&lt;typedef&gt;&gt;size_t offset)</text>
<text x="380" y="1407">#randRange(&lt;&lt;typedef&gt;&gt;size_t min, &lt;&lt;typedef&gt;&gt;size_t max)</text>
<text x="380" y="1416">+singleGeneration()</text>
<text x="380" y="1425">+getQualityHistogram(&lt;&lt;typedef&gt;&gt;QualityHistogram qualities)</text>
<text x="380" y="1434">+getBestGeneIndex()</text>
<text x="380" y="1443">#GenePool()</text>
<text x="380" y="1452">#~GenePool()</text>
<text x="380" y="1461">#setupQualityEachGeneration()</text>
<text x="380" y="1470">#calculateSingleGeneQuality(&lt;&lt;typedef&gt;&gt;size_t geneIndex)</text>
<text x="380" y="1479">#geneValueBoundary(&lt;&lt;typedef&gt;&gt;size_t offset)</text>
<text x="380" y="1488">+getNumGenes()</text>
<text x="380" y="1497">+getGene(&lt;&lt;typedef&gt;&gt;size_t index)</text>
<text x="380" y="1506">+getGene(&lt;&lt;typedef&gt;&gt;size_t index)</text>
<text x="380" y="1515">+setValue(&lt;&lt;typedef&gt;&gt;size_t geneIndex, &lt;&lt;typedef&gt;&gt;size_t offset, &lt;&lt;typedef&gt;</text>
<text x="387" y="1524">&gt;GeneValue val)</text>
<text x="380" y="1533">+getValue(&lt;&lt;typedef&gt;&gt;size_t geneIndex, &lt;&lt;typedef&gt;&gt;size_t offset)</text>
<text x="380" y="1542">+getGeneQuality(&lt;&lt;typedef&gt;&gt;size_t geneIndex)</text>
<text x="380" y="1551">+setGeneQuality(&lt;&lt;typedef&gt;&gt;size_t geneIndex, &lt;&lt;typedef&gt;&gt;QualityType quality)</text>
</g>
<g  fill="#f5fff5" stroke="#000000" style="stroke-width:1">
<rect x="503" y="14" width="226" height="152" />
<line x1="503" y1="35" x2="729" y2="35" />
<line x1="503" y1="65" x2="729" y2="65" />
</g>
<g stroke="none">
<text x="504" y="23">ClassNode</text>
<text x="504" y="32">oovcde/BLL</text>
<text x="504" y="44">-ModelType mType</text>
<text x="504" y="53">-GraphRect rect</text>
<text x="504" y="62">-ClassNodeDrawOptions mNodeOptions</text>
<text x="504" y="74">+ClassNode(ModelType type, ClassNodeDrawO</text>
<text x="511" y="83">ptions options)</text>
<text x="504" y="92">+isKey()</text>
<text x="504" y="101">+getType()</text>
<text x="504" y="110">+getSize()</text>
<text x="504" y="119">+setPosition(GraphPoint pos)</text>
<text x="504" y="128">+getPosition()</text>
<text x="504" y="137">+setSize(&lt;&lt;typedef&gt;&gt;GraphSize size)</text>
<text x="504" y="146">+getRect()</text>
<text x="504" y="155">+getNodeOptions()</text>
<text x="504" y="164">+getNodeOptions()</text>
</g>
<g  fill="#f5fff5" stroke="#000000" style="stroke-width:1">
<rect x="520" y="321" width="123" height="98" />
<line x1="520" y1="342" x2="643" y2="342" />
<line x1="520" y1="408" x2="643" y2="408" />
</g>
<g stroke="none">
<text x="521" y="330">ClassNodeDrawOptions</text>
<text x="521" y="339">oovcde/BLL</text>
<text x="521" y="351">-bool drawAttributes</text>
<text x="521" y="360">-bool drawOperations</text>
<text x="521" y="369">-bool drawOperParams</text>
<text x="521" y="378">-bool drawOperReturn</text>
<text x="521" y="387">-bool drawAttrTypes</text>
<text x="521" y="396">-bool drawOperTypes</text>
<text x="521" y="405">-bool drawPackageName</text>
<text x="521" y="417">-ClassNodeDrawOptions()</text>
</g>
<g  fill="#f5fff5" stroke="#000000" style="stroke-width:1">
<rect x="18" y="419" width="165" height="71" />
<line x1="18" y1="440" x2="183" y2="440" />
<line x1="18" y1="479" x2="183" y2="479" />
</g>
<g stroke="none">
<text x="19" y="428">ClassRelationDrawOptions</text>
<text x="19" y="437">oovcde/BLL</text>
<text x="19" y="449">+bool drawOovSymbols</text>
<text x="19" y="458">+bool drawOperParamRelations</text>
<text x="19" y="467">+bool drawOperBodyVarRelations</text>
<text x="19" y="476">+bool drawRelationKey</text>
<text x="19" y="488">+ClassRelationDrawOptions()</text>
</g>
<g  fill="#f5f5ff" stroke="#000000" style="stroke-width:1">
<line x1="465" y1="341" x2="715" y2="495" />
<polygon points="465,341 468,350 468,343 474,341 465,341 " style="fill:#ffffff" />
<circle cx="476" cy="348" r="5" style="fill:#ffffff" />
<circle cx="490" cy="356" r="5" style="fill:#000000" />
<circle cx="490" cy="356" r="2" style="fill:#000000" />
<polygon points="465,341 469,348 476,348 473,341 465,341 " style="fill:#ffffff" />
<line x1="267" y1="391" x2="285" y2="511" />
<circle cx="269" cy="404" r="5" style="fill:#ffffff" />
<circle cx="271" cy="420" r="5" style="fill:#000000" />
<circle cx="271" cy="420" r="2" style="fill:#000000" />
<polygon points="267,391 264,399 269,404 272,398 267,391 " style="fill:#000000" />
<line x1="465" y1="227" x2="605" y2="243" />
<circle cx="478" cy="228" r="5" style="fill:#ffffff" />
<circle cx="494" cy="230" r="5" style="fill:#000000" />
<circle cx="494" cy="230" r="2" style="fill:#000000" />
<line x1="465" y1="272" x2="653" y2="332" />
<circle cx="478" cy="276" r="5" style="fill:#ffffff" />
<circle cx="485" cy="278" r="2" style="fill:#ffffff" />
<line x1="465" y1="382" x2="697" y2="568" />
<circle cx="475" cy="390" r="5" style="fill:#ffffff" />
<circle cx="481" cy="395" r="2" style="fill:#ffffff" />
<line x1="223" y1="391" x2="159" y2="1057" />
<circle cx="221" cy="404" r="5" style="fill:#ffffff" />
<circle cx="220" cy="411" r="2" style="fill:#ffffff" />
<line x1="275" y1="391" x2="284" y2="433" />
<polygon points="275,391 271,400 275,394 282,397 275,391 " style="fill:#ffffff" />
<circle cx="277" cy="404" r="5" style="fill:#ffffff" />
<circle cx="279" cy="411" r="2" style="fill:#ffffff" />
<line x1="281" y1="391" x2="422" y2="1050" />
<circle cx="283" cy="404" r="5" style="fill:#ffffff" />
<line x1="465" y1="136" x2="503" y2="124" />
<polygon points="465,136 474,139 468,135 470,128 465,136 " style="fill:#ffffff" />
<circle cx="478" cy="131" r="5" style="fill:#ffffff" />
<circle cx="493" cy="126" r="5" style="fill:#000000" />
<circle cx="493" cy="126" r="2" style="fill:#000000" />
<line x1="716" y1="521" x2="622" y2="580" />
<polygon points="622,580 631,580 625,578 625,571 622,580 " style="fill:#ffffff" />
<circle cx="633" cy="572" r="5" style="fill:#ffffff" />
<circle cx="647" cy="564" r="5" style="fill:#000000" />
<circle cx="647" cy="564" r="2" style="fill:#000000" />
<line x1="493" y1="511" x2="661" y2="263" />
<circle cx="500" cy="499" r="5" style="fill:#ffffff" />
<circle cx="509" cy="486" r="5" style="fill:#000000" />
<circle cx="509" cy="486" r="2" style="fill:#000000" />
<polygon points="493,511 501,508 500,500 493,503 493,511 " style="fill:#000000" />
<line x1="588" y1="1023" x2="649" y2="1080" />
<circle cx="598" cy="1032" r="5" style="fill:#ffffff" />
<circle cx="609" cy="1043" r="5" style="fill:#000000" />
<circle cx="609" cy="1043" r="2" style="fill:#000000" />
<polygon points="588,1023 590,1031 598,1032 596,1025 588,1023 " style="fill:#000000" />
<line x1="252" y1="1023" x2="168" y2="1327" />
<circle cx="248" cy="1036" r="5" style="fill:#ffffff" />
<circle cx="244" cy="1051" r="5" style="fill:#000000" />
<circle cx="244" cy="1051" r="2" style="fill:#000000" />
<polygon points="252,1023 246,1029 249,1036 254,1031 252,1023 " style="fill:#000000" />
<polygon points="168,1327 175,1321 169,1324 165,1318 168,1327 " style="fill:#ffffff" />
<circle cx="171" cy="1313" r="5" style="fill:#ffffff" />
<circle cx="175" cy="1298" r="5" style="fill:#000000" />
<circle cx="175" cy="1298" r="2" style="fill:#000000" />
<polygon points="168,1327 174,1321 171,1314 166,1319 168,1327 " style="fill:#ffffff" />
<line x1="559" y1="511" x2="690" y2="371" />
<circle cx="568" cy="500" r="5" style="fill:#ffffff" />
<circle cx="579" cy="489" r="5" style="fill:#000000" />
<circle cx="579" cy="489" r="2" style="fill:#000000" />
<polygon points="559,511 567,509 568,501 561,503 559,511 " style="fill:#ffffff" />
<line x1="622" y1="625" x2="686" y2="594" />
<circle cx="634" cy="618" r="5" style="fill:#ffffff" />
<circle cx="648" cy="611" r="5" style="fill:#000000" />
<circle cx="648" cy="611" r="2" style="fill:#000000" />
<polygon points="622,625 630,625 634,619 627,618 622,625 " style="fill:#ffffff" />
<line x1="212" y1="1023" x2="197" y2="1057" />
<circle cx="206" cy="1035" r="5" style="fill:#ffffff" />
<circle cx="199" cy="1050" r="5" style="fill:#000000" />
<circle cx="199" cy="1050" r="2" style="fill:#000000" />
<polygon points="212,1023 205,1028 207,1035 212,1031 212,1023 " style="fill:#ffffff" />
<line x1="293" y1="511" x2="285" y2="449" />
<circle cx="291" cy="497" r="5" style="fill:#ffffff" />
<circle cx="289" cy="481" r="5" style="fill:#000000" />
<circle cx="289" cy="481" r="2" style="fill:#000000" />
<polygon points="293,511 296,503 292,498 288,504 293,511 " style="fill:#000000" />
<line x1="419" y1="511" x2="438" y2="463" />
<circle cx="424" cy="497" r="5" style="fill:#ffffff" />
<circle cx="426" cy="490" r="5" style="fill:#ffffff" />
<circle cx="426" cy="490" r="2" style="fill:#ffffff" />
<polygon points="438,463 429,473 438,476 438,463 " style="fill:#ffffff" />
<line x1="404" y1="1023" x2="413" y2="1050" />
<circle cx="408" cy="1036" r="5" style="fill:#ffffff" />
<polygon points="413,1050 416,1041 412,1047 405,1045 413,1050 " style="fill:#ffffff" />
<circle cx="408" cy="1036" r="5" style="fill:#ffffff" />
<circle cx="403" cy="1021" r="5" style="fill:#000000" />
<circle cx="403" cy="1021" r="2" style="fill:#000000" />
<line x1="432" y1="511" x2="583" y2="166" />
<polygon points="432,511 440,506 433,508 430,502 432,511 " style="fill:#ffffff" />
<circle cx="437" cy="498" r="5" style="fill:#ffffff" />
<circle cx="444" cy="483" r="5" style="fill:#000000" />
<circle cx="444" cy="483" r="2" style="fill:#000000" />
<line x1="488" y1="511" x2="549" y2="419" />
<polygon points="488,511 497,508 490,508 488,502 488,511 " style="fill:#ffffff" />
<circle cx="495" cy="499" r="5" style="fill:#ffffff" />
<circle cx="504" cy="485" r="5" style="fill:#000000" />
<circle cx="504" cy="485" r="2" style="fill:#000000" />
<line x1="664" y1="263" x2="188" y2="1327" />
<circle cx="193" cy="1314" r="5" style="fill:#ffffff" />
<line x1="666" y1="263" x2="459" y2="1050" />
<circle cx="462" cy="1036" r="5" style="fill:#ffffff" />
<line x1="665" y1="237" x2="641" y2="166" />
<line x1="640" y1="1114" x2="251" y2="1366" />
<circle cx="262" cy="1358" r="5" style="fill:#ffffff" />
<line x1="213" y1="1327" x2="705" y2="594" />
<circle cx="220" cy="1315" r="5" style="fill:#ffffff" />
<circle cx="229" cy="1302" r="5" style="fill:#000000" />
<circle cx="229" cy="1302" r="2" style="fill:#000000" />
<line x1="251" y1="1426" x2="379" y2="1410" />
<circle cx="264" cy="1424" r="5" style="fill:#ffffff" />
<circle cx="349" cy="1413" r="5" style="fill:#ffffff" />
<circle cx="349" cy="1413" r="2" style="fill:#ffffff" />
<polygon points="379,1410 366,1407 367,1416 379,1410 " style="fill:#ffffff" />
<line x1="177" y1="1327" x2="590" y2="166" />
<circle cx="181" cy="1313" r="5" style="fill:#ffffff" />
<line x1="272" y1="1155" x2="319" y2="1147" />
<circle cx="305" cy="1149" r="5" style="fill:#ffffff" />
<circle cx="289" cy="1152" r="5" style="fill:#000000" />
<circle cx="289" cy="1152" r="2" style="fill:#000000" />
<polygon points="319,1147 311,1144 306,1149 313,1152 319,1147 " style="fill:#ffffff" />
<line x1="318" y1="433" x2="520" y2="384" />
<circle cx="490" cy="391" r="5" style="fill:#ffffff" />
<circle cx="490" cy="391" r="2" style="fill:#ffffff" />
<polygon points="520,384 507,382 509,392 520,384 " style="fill:#ffffff" />
<line x1="242" y1="444" x2="182" y2="449" />
<circle cx="211" cy="446" r="5" style="fill:#ffffff" />
<circle cx="211" cy="446" r="2" style="fill:#ffffff" />
<polygon points="182,449 195,453 194,443 182,449 " style="fill:#ffffff" />
<line x1="452" y1="1050" x2="604" y2="166" />
<polygon points="452,1050 459,1044 452,1047 448,1042 452,1050 " style="fill:#ffffff" />
<circle cx="454" cy="1036" r="5" style="fill:#ffffff" />
<circle cx="457" cy="1020" r="5" style="fill:#000000" />
<circle cx="457" cy="1020" r="2" style="fill:#000000" />
<line x1="399" y1="1050" x2="117" y2="489" />
<polygon points="399,1050 400,1041 398,1047 391,1046 399,1050 " style="fill:#ffffff" />
<circle cx="392" cy="1037" r="5" style="fill:#ffffff" />
<circle cx="389" cy="1031" r="2" style="fill:#ffffff" />
<line x1="607" y1="166" x2="587" y2="321" />
<circle cx="605" cy="179" r="5" style="fill:#ffffff" />
<circle cx="603" cy="195" r="5" style="fill:#000000" />
<circle cx="603" cy="195" r="2" style="fill:#000000" />
<polygon points="607,166 602,173 606,179 610,174 607,166 " style="fill:#000000" />
</g>
</svg>