<svg xmlns="http://www.w3.org/2000/svg" version="1.1" width="910" height="1530">
<g  fill="#f5fff5" stroke="#000000" style="stroke-width:1">
<rect x="773" y="809" width="133" height="143" />
<line x1="773" y1="822" x2="906" y2="822" />
<polygon points="886,830 898,835 898,825 886,830 " style="fill:#ffffff" />
<polygon points="886,844 893,848 900,844 893,840 886,844 " style="fill:#ffffff" />
<polygon points="886,858 893,862 900,858 893,854 886,858 " style="fill:#000000" />
<polygon points="886,872 894,877 890,872 894,867 886,872 " style="fill:#ffffff" />
<circle cx="886" cy="886" r="5" style="fill:#ffffff" />
<circle cx="886" cy="900" r="5" style="fill:#ffffff" />
<circle cx="893" cy="900" r="2" style="fill:#ffffff" />
<circle cx="886" cy="914" r="5" style="fill:#ffffff" />
<circle cx="886" cy="914" r="2" style="fill:#ffffff" />
<circle cx="886" cy="928" r="5" style="fill:#ffffff" />
<circle cx="886" cy="928" r="2" style="fill:#000000" />
<circle cx="886" cy="942" r="5" style="fill:#000000" />
<circle cx="886" cy="942" r="2" style="fill:#000000" />
</g>
<g font-size="10.000000" stroke="none">
<text x="774" y="818">Relations Key</text>
<text x="774" y="832">Generalization</text>
<text x="774" y="846">Aggregation(reference)</text>
<text x="774" y="860">Composition(owned)</text>
<text x="774" y="874">Const</text>
<text x="774" y="888">Method Variable</text>
<text x="774" y="902">Method Parameter</text>
<text x="774" y="916">Public</text>
<text x="774" y="930">Protected</text>
<text x="774" y="944">Private</text>
</g>
<g  fill="#f5fff5" stroke="#000000" style="stroke-width:1">
<rect x="17" y="15" width="582" height="341" />
<line x1="17" y1="36" x2="599" y2="36" />
<line x1="17" y1="93" x2="599" y2="93" />
</g>
<g font-size="10.000000" stroke="none">
<text x="18" y="24">ClassDiagram</text>
<text x="18" y="33">oovcde/BLL</text>
<text x="18" y="45">+int DEPTH_IMMEDIATE_RELATIONS</text>
<text x="18" y="54">+int DEPTH_SINGLE_CLASS</text>
<text x="18" y="63">-ModelData mModelData</text>
<text x="18" y="72">-ClassGraph mClassGraph</text>
<text x="18" y="81">-OovString mLastSelectedClassName</text>
<text x="18" y="90">-double mDesiredZoom</text>
<text x="18" y="102">+initialize(ModelData modelData, DiagramDrawer nullDrawer, ClassDrawOptions options, ClassGraphListener graphListener</text>
<text x="18" y="111">   , OovTaskStatusListener foregroundTaskStatusListener, OovTaskStatusListener backgroundTaskStatusListener)</text>
<text x="18" y="120">+restart()</text>
<text x="18" y="129">+clearGraphAndAddClass(OovStringRef className, ClassGraph::eAddNodeTypes addType, int depth, bool reposition)</text>
<text x="18" y="138">+addClass(OovStringRef className, ClassGraph::eAddNodeTypes addType, int depth, bool reposition)</text>
<text x="18" y="147">+updateGraph(bool resposition)</text>
<text x="18" y="156">+drawDiagram(DiagramDrawer drawer)</text>
<text x="18" y="165">+saveDiagram(&lt;&lt;typedef&gt;&gt;FILE fp)</text>
<text x="18" y="174">+loadDiagram(&lt;&lt;typedef&gt;&gt;FILE fp)</text>
<text x="18" y="183">+getNode(int x, int y)</text>
<text x="18" y="192">+ClassDiagram()</text>
<text x="18" y="201">+clearGraph()</text>
<text x="18" y="210">+addRelatedNodesRecurse(ModelData model, ModelType type, ClassGraph::eAddNodeTypes addType, int maxDepth)</text>
<text x="18" y="219">+getRelatedNodesRecurse(ModelData model, ModelType type, std::vector&lt;ClassNode,std::allocator&lt;ClassNode&gt; &gt; nodes</text>
<text x="18" y="228">   , ClassGraph::eAddNodeTypes addType, int maxDepth)</text>
<text x="18" y="237">+removeNode(ClassNode node, ModelData modelData)</text>
<text x="18" y="246">+isNodeTypePresent(ClassNode node)</text>
<text x="18" y="255">+setNullDrawer(DiagramDrawer drawer)</text>
<text x="18" y="264">+changeOptions(ClassDrawOptions options)</text>
<text x="18" y="273">+getNodes()</text>
<text x="18" y="282">+getNodes()</text>
<text x="18" y="291">+setZoom(double zoom)</text>
<text x="18" y="300">+getDesiredZoom()</text>
<text x="18" y="309">+getGraphSize()</text>
<text x="18" y="318">+setModified()</text>
<text x="18" y="327">+isModified()</text>
<text x="18" y="336">+getModelData()</text>
<text x="18" y="345">+getLastSelectedClassName()</text>
<text x="18" y="354">-setLastSelectedClassName(OovStringRef name)</text>
</g>
<g  fill="#f5fff5" stroke="#000000" style="stroke-width:1">
<rect x="785" y="546" width="63" height="26" />
<line x1="785" y1="567" x2="848" y2="567" />
<line x1="785" y1="570" x2="848" y2="570" />
</g>
<g font-size="10.000000" stroke="none">
<text x="786" y="555">ModelData</text>
<text x="786" y="564">oovCommon</text>
</g>
<g  fill="#f5fff5" stroke="#000000" style="stroke-width:1">
<rect x="25" y="510" width="722" height="503" />
<line x1="25" y1="531" x2="747" y2="531" />
<line x1="25" y1="660" x2="747" y2="660" />
</g>
<g font-size="10.000000" stroke="none">
<text x="26" y="519">ClassGraph</text>
<text x="26" y="528">oovcde/BLL</text>
<text x="26" y="540">-std::vector&lt;ClassNode,std::allocator&lt;ClassNode&gt; &gt; mNodes</text>
<text x="26" y="549">-std::map&lt;nodePair,ClassConnectItem,std::less&lt;nodePair&gt;,std::allocator&lt;std::pair&lt;nodePair,ClassConnectItem&gt; &gt; &gt; mConnectMap</text>
<text x="26" y="558">-ClassGenes mGenes</text>
<text x="26" y="567">-&lt;&lt;typedef&gt;&gt;GraphSize mPad</text>
<text x="26" y="576">-bool mModified</text>
<text x="26" y="585">-int mBackgroundTaskLevel</text>
<text x="26" y="594">-ClassGraphListener mGraphListener</text>
<text x="26" y="603">-OovTaskStatusListener mForegroundTaskStatusListener</text>
<text x="26" y="612">-OovTaskStatusListener mBackgroundTaskStatusListener</text>
<text x="26" y="621">-DiagramDrawer mNullDrawer</text>
<text x="26" y="630">-ClassDrawOptions mGraphOptions</text>
<text x="26" y="639">-int KEY_INDEX</text>
<text x="26" y="648">-int FIRST_CLASS_INDEX</text>
<text x="26" y="657">-&lt;&lt;typedef&gt;&gt;size_t NO_INDEX</text>
<text x="26" y="669">+initialize(ClassDrawOptions options, DiagramDrawer nullDrawer, ClassGraphListener graphListener, OovTaskStatusListener foregroundTaskStatusListener</text>
<text x="26" y="678">   , OovTaskStatusListener backgroundTaskStatusListener)</text>
<text x="26" y="687">+updateGraph(ModelData modelData, bool geneRepositioning)</text>
<text x="26" y="696">+addNode(ModelData model, char className, ClassGraph::eAddNodeTypes addType, int nodeDepth, bool reposition)</text>
<text x="26" y="705">+addRelatedNodesRecurse(ModelData model, ModelType type, ClassGraph::eAddNodeTypes addType, int maxDepth)</text>
<text x="26" y="714">+getRelatedNodesRecurse(ModelData model, ModelType type, ClassGraph::eAddNodeTypes addType, int maxDepth, std::vector&lt;ClassNode</text>
<text x="26" y="723">   ,std::allocator&lt;ClassNode&gt; &gt; nodes)</text>
<text x="26" y="732">+getNodeSizeWithPadding(int nodeIndex)</text>
<text x="26" y="741">+getGraphSize()</text>
<text x="26" y="750">+getNode(int x, int y)</text>
<text x="26" y="759">+getNodeConnection(int node1, int node2)</text>
<text x="26" y="768">-removeNode(ClassNode node)</text>
<text x="26" y="777">-updateGenes(ModelData modelData, DiagramDrawer nullDrawer)</text>
<text x="26" y="786">-updateConnections(ModelData modelData)</text>
<text x="26" y="795">-insertConnection(int node1, int node2, ClassConnectItem connectItem)</text>
<text x="26" y="804">-insertConnection(int node1, ModelType type, ClassConnectItem connectItem)</text>
<text x="26" y="813">-addRelatedNodesRecurseUserToVector(ModelData model, ModelType type, ModelType modelType, ClassGraph::eAddNodeTypes addType</text>
<text x="26" y="822">   , int maxDepth, std::vector&lt;ClassNode,std::allocator&lt;ClassNode&gt; &gt; nodes)</text>
<text x="26" y="831">-addNodeToVector(ClassNode node, std::vector&lt;ClassNode,std::allocator&lt;ClassNode&gt; &gt; nodes)</text>
<text x="26" y="840">-addRelationKeyNode()</text>
<text x="26" y="849">-updateNodeSizes()</text>
<text x="26" y="858">-getAvgNodeSize()</text>
<text x="26" y="867">-getNodeIndex(ModelType type)</text>
<text x="26" y="876">-isNodeTypePresent(ClassNode node, std::vector&lt;ClassNode,std::allocator&lt;ClassNode&gt; &gt; nodes)</text>
<text x="26" y="885">-getComponentOptions(ModelType type, ClassNodeDrawOptions options)</text>
<text x="26" y="894">+ClassGraph()</text>
<text x="26" y="903">+~ClassGraph()</text>
<text x="26" y="912">+clearGraph()</text>
<text x="26" y="921">+removeNode(ClassNode node, ModelData modelData)</text>
<text x="26" y="930">+isNodeTypePresent(ClassNode node)</text>
<text x="26" y="939">+changeOptions(ClassDrawOptions options)</text>
<text x="26" y="948">+getOptions()</text>
<text x="26" y="957">+isModified()</text>
<text x="26" y="966">+setModified()</text>
<text x="26" y="975">+getNodes()</text>
<text x="26" y="984">+getNodes()</text>
<text x="26" y="993">+getConnections()</text>
<text x="26" y="1002">+processItem(ClassGraphBackgroundItem item)</text>
<text x="26" y="1011">+setDrawer(DiagramDrawer drawer)</text>
</g>
<g  fill="#f5fff5" stroke="#000000" style="stroke-width:1">
<rect x="628" y="17" width="230" height="26" />
<line x1="628" y1="38" x2="858" y2="38" />
<line x1="628" y1="41" x2="858" y2="41" />
</g>
<g font-size="10.000000" stroke="none">
<text x="629" y="26">std::vector&lt;ClassNode,std::allocator&lt;ClassNode&gt;</text>
<text x="629" y="35">    &gt;</text>
</g>
<g  fill="#f5fff5" stroke="#000000" style="stroke-width:1">
<rect x="684" y="1050" width="225" height="35" />
<line x1="684" y1="1080" x2="909" y2="1080" />
<line x1="684" y1="1083" x2="909" y2="1083" />
</g>
<g font-size="10.000000" stroke="none">
<text x="685" y="1059">std::map&lt;nodePair,ClassConnectItem,std::less&lt;</text>
<text x="685" y="1068">   nodePair&gt;,std::allocator&lt;std::pair&lt;nodePair</text>
<text x="685" y="1077">   ,ClassConnectItem&gt; &gt; &gt;</text>
</g>
<g  fill="#f5fff5" stroke="#000000" style="stroke-width:1">
<rect x="25" y="1298" width="359" height="152" />
<line x1="25" y1="1319" x2="384" y2="1319" />
<line x1="25" y1="1340" x2="384" y2="1340" />
</g>
<g font-size="10.000000" stroke="none">
<text x="26" y="1307">ClassGenes</text>
<text x="26" y="1316">oovcde/BLL</text>
<text x="26" y="1328">-ClassGraph mGraph</text>
<text x="26" y="1337">-&lt;&lt;typedef&gt;&gt;GraphSize mDiagramSize</text>
<text x="26" y="1349">+initialize(ClassGraph graph, int avgNodeSize)</text>
<text x="26" y="1358">+updatePositionsInGraph(ClassGraph graph, OovTaskStatusListener listener</text>
<text x="26" y="1367">   , OovTaskContinueListener contListener)</text>
<text x="26" y="1376">-setupQualityEachGeneration()</text>
<text x="26" y="1385">-calculateSingleGeneQuality(&lt;&lt;typedef&gt;&gt;size_t geneIndex)</text>
<text x="26" y="1394">-nodesOverlap(int geneIndex, int node1, int node2)</text>
<text x="26" y="1403">-lineNodeOverlap(int geneIndex, int ni, DiagramLine line)</text>
<text x="26" y="1412">-getLineForNodes(int geneIndex, int node1, int node2, DiagramLine line)</text>
<text x="26" y="1421">-getNodeRect(int geneIndex, int nodeIndex, GraphRect rect)</text>
<text x="26" y="1430">-getPosition(int geneIndex, int nodeIndex, GraphPoint pos)</text>
<text x="26" y="1439">-getSize(int geneIndex)</text>
<text x="26" y="1448">-isDistanceGoodQuality(int geneIndex, int ni1, int ni2)</text>
</g>
<g  fill="#f5fff5" stroke="#000000" style="stroke-width:1">
<rect x="792" y="451" width="113" height="44" />
<line x1="792" y1="472" x2="905" y2="472" />
<line x1="792" y1="475" x2="905" y2="475" />
</g>
<g font-size="10.000000" stroke="none">
<text x="793" y="460">ClassGraphListener</text>
<text x="793" y="469">oovcde/BLL</text>
<text x="793" y="484">+~ClassGraphListener()</text>
<text x="793" y="493">+doneRepositioning()</text>
</g>
<g  fill="#f5fff5" stroke="#000000" style="stroke-width:1">
<rect x="765" y="698" width="110" height="26" />
<line x1="765" y1="719" x2="875" y2="719" />
<line x1="765" y1="722" x2="875" y2="722" />
</g>
<g font-size="10.000000" stroke="none">
<text x="766" y="707">OovTaskStatusListener</text>
<text x="766" y="716">oovCommon</text>
</g>
<g  fill="#f5fff5" stroke="#000000" style="stroke-width:1">
<rect x="25" y="1050" width="288" height="206" />
<line x1="25" y1="1071" x2="313" y2="1071" />
<line x1="25" y1="1083" x2="313" y2="1083" />
</g>
<g font-size="10.000000" stroke="none">
<text x="26" y="1059">DiagramDrawer</text>
<text x="26" y="1068">oovcde/BLL</text>
<text x="26" y="1080">-double mFontSize</text>
<text x="26" y="1092">+getPad(int div)</text>
<text x="26" y="1101">+getConnectionPoints(GraphRect consumerRect, GraphRect </text>
<text x="26" y="1110">   supplierRect, GraphPoint consumerPoint, GraphPoint </text>
<text x="26" y="1119">   supplierPoint)</text>
<text x="26" y="1128">+DiagramDrawer()</text>
<text x="26" y="1137">+~DiagramDrawer()</text>
<text x="26" y="1146">+setDiagramSize(&lt;&lt;typedef&gt;&gt;GraphSize size)</text>
<text x="26" y="1155">+setFontSize(double size)</text>
<text x="26" y="1164">+getFontSize()</text>
<text x="26" y="1173">+drawRect(GraphRect rect)</text>
<text x="26" y="1182">+drawLine(GraphPoint p1, GraphPoint p2, bool dashed)</text>
<text x="26" y="1191">+drawCircle(GraphPoint p, int radius, Color fillColor)</text>
<text x="26" y="1200">+drawEllipse(GraphRect rect)</text>
<text x="26" y="1209">+drawPoly(&lt;&lt;typedef&gt;&gt;OovPolygon poly, Color fillColor)</text>
<text x="26" y="1218">+drawText(GraphPoint p, OovStringRef text)</text>
<text x="26" y="1227">+getTextExtentWidth(OovStringRef name)</text>
<text x="26" y="1236">+getTextExtentHeight(OovStringRef name)</text>
<text x="26" y="1245">+groupShapes(bool , Color , Color )</text>
<text x="26" y="1254">+groupText(bool )</text>
</g>
<g  fill="#f5fff5" stroke="#000000" style="stroke-width:1">
<rect x="233" y="429" width="87" height="17" />
<line x1="233" y1="441" x2="320" y2="441" />
<line x1="233" y1="444" x2="320" y2="444" />
</g>
<g font-size="10.000000" stroke="none">
<text x="234" y="438">ClassDrawOptions</text>
</g>
<g  fill="#f5fff5" stroke="#000000" style="stroke-width:1">
<rect x="529" y="383" width="355" height="26" />
<line x1="529" y1="404" x2="884" y2="404" />
<line x1="529" y1="407" x2="884" y2="407" />
</g>
<g font-size="10.000000" stroke="none">
<text x="530" y="392">ThreadedWorkBackgroundQueue&lt;ClassGraph,ClassGraphBackgroundItem&gt;</text>
<text x="530" y="401">   </text>
</g>
<g  fill="#f5fff5" stroke="#000000" style="stroke-width:1">
<rect x="386" y="1050" width="287" height="152" />
<line x1="386" y1="1071" x2="673" y2="1071" />
<line x1="386" y1="1101" x2="673" y2="1101" />
</g>
<g font-size="10.000000" stroke="none">
<text x="387" y="1059">ClassDrawer</text>
<text x="387" y="1068">oovcde/BLL</text>
<text x="387" y="1080">-DiagramDrawer mDrawer</text>
<text x="387" y="1089">-double mActualZoomX</text>
<text x="387" y="1098">-double mActualZoomY</text>
<text x="387" y="1110">+setZoom(double zoom)</text>
<text x="387" y="1119">+drawDiagram(ClassGraph graph)</text>
<text x="387" y="1128">+drawNode(ClassNode node)</text>
<text x="387" y="1137">-drawConnectionLine(ClassNode node1, ClassNode node2)</text>
<text x="387" y="1146">-drawConnectionSymbols(ClassRelationDrawOptions options</text>
<text x="387" y="1155">   , ClassNode node1, ClassNode node2, ClassConnectItem </text>
<text x="387" y="1164">   connectItem)</text>
<text x="387" y="1173">-drawRelationKey(ClassNode node)</text>
<text x="387" y="1182">+ClassDrawer(DiagramDrawer drawer)</text>
<text x="387" y="1191">+getActualZoomX()</text>
<text x="387" y="1200">+getActualZoomY()</text>
</g>
<g  fill="#f5fff5" stroke="#000000" style="stroke-width:1">
<rect x="451" y="1215" width="453" height="314" />
<line x1="451" y1="1236" x2="904" y2="1236" />
<line x1="451" y1="1311" x2="904" y2="1311" />
</g>
<g font-size="10.000000" stroke="none">
<text x="452" y="1224">GenePool</text>
<text x="452" y="1233">oovcde/BLL</text>
<text x="452" y="1245">#&lt;&lt;typedef&gt;&gt;size_t numgenes</text>
<text x="452" y="1254">#&lt;&lt;typedef&gt;&gt;size_t genesize</text>
<text x="452" y="1263">#double muterate</text>
<text x="452" y="1272">#std::vector&lt;unsigned char,std::allocator&lt;unsigned char&gt; &gt; genes</text>
<text x="452" y="1281">#std::vector&lt;unsigned char,std::allocator&lt;unsigned char&gt; &gt; bestgenes</text>
<text x="452" y="1290">#std::vector&lt;unsigned char,std::allocator&lt;unsigned char&gt; &gt; worstgenes</text>
<text x="452" y="1299">#&lt;&lt;typedef&gt;&gt;GeneValue min</text>
<text x="452" y="1308">#&lt;&lt;typedef&gt;&gt;GeneValue max</text>
<text x="452" y="1320">#computeQuality()</text>
<text x="452" y="1329">#crossover()</text>
<text x="452" y="1338">#mutate()</text>
<text x="452" y="1347">#buildBestWorstList()</text>
<text x="452" y="1356">#initialize(&lt;&lt;typedef&gt;&gt;size_t genebytes, &lt;&lt;typedef&gt;&gt;size_t numgenes, double crossoverrate, </text>
<text x="452" y="1365">   double mutaterate, &lt;&lt;typedef&gt;&gt;GeneValue minrand, &lt;&lt;typedef&gt;&gt;GeneValue maxrand)</text>
<text x="452" y="1374">#randomizeGene(&lt;&lt;typedef&gt;&gt;size_t geneIndex)</text>
<text x="452" y="1383">#randomizeGeneValue(&lt;&lt;typedef&gt;&gt;size_t geneIndex, &lt;&lt;typedef&gt;&gt;size_t offset)</text>
<text x="452" y="1392">#randRange(&lt;&lt;typedef&gt;&gt;size_t min, &lt;&lt;typedef&gt;&gt;size_t max)</text>
<text x="452" y="1401">+singleGeneration()</text>
<text x="452" y="1410">+getQualityHistogram(&lt;&lt;typedef&gt;&gt;QualityHistogram qualities)</text>
<text x="452" y="1419">+getBestGeneIndex()</text>
<text x="452" y="1428">#GenePool()</text>
<text x="452" y="1437">#~GenePool()</text>
<text x="452" y="1446">#setupQualityEachGeneration()</text>
<text x="452" y="1455">#calculateSingleGeneQuality(&lt;&lt;typedef&gt;&gt;size_t geneIndex)</text>
<text x="452" y="1464">#geneValueBoundary(&lt;&lt;typedef&gt;&gt;size_t offset)</text>
<text x="452" y="1473">+getNumGenes()</text>
<text x="452" y="1482">+getGene(&lt;&lt;typedef&gt;&gt;size_t index)</text>
<text x="452" y="1491">+getGene(&lt;&lt;typedef&gt;&gt;size_t index)</text>
<text x="452" y="1500">+setValue(&lt;&lt;typedef&gt;&gt;size_t geneIndex, &lt;&lt;typedef&gt;&gt;size_t offset, &lt;&lt;typedef&gt;&gt;GeneValue val)</text>
<text x="452" y="1509">+getValue(&lt;&lt;typedef&gt;&gt;size_t geneIndex, &lt;&lt;typedef&gt;&gt;size_t offset)</text>
<text x="452" y="1518">+getGeneQuality(&lt;&lt;typedef&gt;&gt;size_t geneIndex)</text>
<text x="452" y="1527">+setGeneQuality(&lt;&lt;typedef&gt;&gt;size_t geneIndex, &lt;&lt;typedef&gt;&gt;QualityType quality)</text>
</g>
<g  fill="#f5fff5" stroke="#000000" style="stroke-width:1">
<rect x="652" y="194" width="255" height="152" />
<line x1="652" y1="215" x2="907" y2="215" />
<line x1="652" y1="245" x2="907" y2="245" />
</g>
<g font-size="10.000000" stroke="none">
<text x="653" y="203">ClassNode</text>
<text x="653" y="212">oovcde/BLL</text>
<text x="653" y="224">-ModelType mType</text>
<text x="653" y="233">-GraphRect rect</text>
<text x="653" y="242">-ClassNodeDrawOptions mNodeOptions</text>
<text x="653" y="254">+ClassNode(ModelType type, ClassNodeDrawOptions </text>
<text x="653" y="263">   options)</text>
<text x="653" y="272">+isKey()</text>
<text x="653" y="281">+getType()</text>
<text x="653" y="290">+getSize()</text>
<text x="653" y="299">+setPosition(GraphPoint pos)</text>
<text x="653" y="308">+getPosition()</text>
<text x="653" y="317">+setSize(&lt;&lt;typedef&gt;&gt;GraphSize size)</text>
<text x="653" y="326">+getRect()</text>
<text x="653" y="335">+getNodeOptions()</text>
<text x="653" y="344">+getNodeOptions()</text>
</g>
<g  fill="#f5fff5" stroke="#000000" style="stroke-width:1">
<rect x="384" y="373" width="122" height="98" />
<line x1="384" y1="394" x2="506" y2="394" />
<line x1="384" y1="460" x2="506" y2="460" />
</g>
<g font-size="10.000000" stroke="none">
<text x="385" y="382">ClassNodeDrawOptions</text>
<text x="385" y="391">oovcde/BLL</text>
<text x="385" y="403">-bool drawAttributes</text>
<text x="385" y="412">-bool drawOperations</text>
<text x="385" y="421">-bool drawOperParams</text>
<text x="385" y="430">-bool drawOperReturn</text>
<text x="385" y="439">-bool drawAttrTypes</text>
<text x="385" y="448">-bool drawOperTypes</text>
<text x="385" y="457">-bool drawPackageName</text>
<text x="385" y="469">-ClassNodeDrawOptions()</text>
</g>
<g  fill="#f5fff5" stroke="#000000" style="stroke-width:1">
<rect x="28" y="406" width="164" height="71" />
<line x1="28" y1="427" x2="192" y2="427" />
<line x1="28" y1="466" x2="192" y2="466" />
</g>
<g font-size="10.000000" stroke="none">
<text x="29" y="415">ClassRelationDrawOptions</text>
<text x="29" y="424">oovcde/BLL</text>
<text x="29" y="436">+bool drawOovSymbols</text>
<text x="29" y="445">+bool drawOperParamRelations</text>
<text x="29" y="454">+bool drawOperBodyVarRelations</text>
<text x="29" y="463">+bool drawRelationKey</text>
<text x="29" y="475">+ClassRelationDrawOptions()</text>
</g>
<g  fill="#f5f5ff" stroke="#000000" style="stroke-width:1">
<line x1="538" y1="355" x2="799" y2="546" />
<polygon points="538,355 541,364 541,357 547,355 538,355 " style="fill:#ffffff" />
<circle cx="549" cy="363" r="5" style="fill:#ffffff" />
<circle cx="562" cy="372" r="5" style="fill:#000000" />
<circle cx="562" cy="372" r="2" style="fill:#000000" />
<polygon points="538,355 541,363 549,363 546,355 538,355 " style="fill:#ffffff" />
<line x1="331" y1="355" x2="353" y2="510" />
<circle cx="332" cy="368" r="5" style="fill:#ffffff" />
<circle cx="335" cy="384" r="5" style="fill:#000000" />
<circle cx="335" cy="384" r="2" style="fill:#000000" />
<polygon points="331,355 328,363 332,368 336,362 331,355 " style="fill:#000000" />
<line x1="599" y1="82" x2="707" y2="43" />
<circle cx="612" cy="77" r="5" style="fill:#ffffff" />
<circle cx="627" cy="71" r="5" style="fill:#000000" />
<circle cx="627" cy="71" r="2" style="fill:#000000" />
<line x1="599" y1="340" x2="807" y2="451" />
<circle cx="611" cy="346" r="5" style="fill:#ffffff" />
<circle cx="617" cy="349" r="2" style="fill:#ffffff" />
<line x1="473" y1="355" x2="808" y2="698" />
<circle cx="482" cy="365" r="5" style="fill:#ffffff" />
<circle cx="487" cy="370" r="2" style="fill:#ffffff" />
<line x1="284" y1="355" x2="183" y2="1050" />
<circle cx="281" cy="368" r="5" style="fill:#ffffff" />
<circle cx="280" cy="375" r="2" style="fill:#ffffff" />
<line x1="287" y1="355" x2="277" y2="429" />
<polygon points="287,355 281,362 287,358 291,363 287,355 " style="fill:#ffffff" />
<circle cx="285" cy="368" r="5" style="fill:#ffffff" />
<circle cx="284" cy="375" r="2" style="fill:#ffffff" />
<line x1="347" y1="355" x2="512" y2="1050" />
<circle cx="350" cy="368" r="5" style="fill:#ffffff" />
<line x1="599" y1="237" x2="652" y2="248" />
<polygon points="599,237 605,244 602,237 608,233 599,237 " style="fill:#ffffff" />
<circle cx="612" cy="239" r="5" style="fill:#ffffff" />
<circle cx="628" cy="243" r="5" style="fill:#000000" />
<circle cx="628" cy="243" r="2" style="fill:#000000" />
<line x1="789" y1="572" x2="747" y2="592" />
<polygon points="747,592 756,593 750,591 751,584 747,592 " style="fill:#ffffff" />
<circle cx="759" cy="585" r="5" style="fill:#ffffff" />
<circle cx="774" cy="579" r="5" style="fill:#000000" />
<circle cx="774" cy="579" r="2" style="fill:#000000" />
<line x1="508" y1="510" x2="737" y2="43" />
<circle cx="514" cy="497" r="5" style="fill:#ffffff" />
<circle cx="521" cy="483" r="5" style="fill:#000000" />
<circle cx="521" cy="483" r="2" style="fill:#000000" />
<polygon points="508,510 515,505 514,498 508,502 508,510 " style="fill:#000000" />
<line x1="722" y1="1012" x2="774" y2="1050" />
<circle cx="733" cy="1020" r="5" style="fill:#ffffff" />
<circle cx="746" cy="1029" r="5" style="fill:#000000" />
<circle cx="746" cy="1029" r="2" style="fill:#000000" />
<polygon points="722,1012 725,1020 733,1020 730,1012 722,1012 " style="fill:#000000" />
<line x1="312" y1="1012" x2="226" y2="1298" />
<circle cx="307" cy="1025" r="5" style="fill:#ffffff" />
<circle cx="303" cy="1040" r="5" style="fill:#000000" />
<circle cx="303" cy="1040" r="2" style="fill:#000000" />
<polygon points="312,1012 306,1018 308,1025 314,1020 312,1012 " style="fill:#000000" />
<polygon points="226,1298 233,1292 227,1295 223,1289 226,1298 " style="fill:#ffffff" />
<circle cx="230" cy="1284" r="5" style="fill:#ffffff" />
<circle cx="234" cy="1269" r="5" style="fill:#000000" />
<circle cx="234" cy="1269" r="2" style="fill:#000000" />
<polygon points="226,1298 232,1292 230,1285 224,1290 226,1298 " style="fill:#ffffff" />
<line x1="747" y1="536" x2="813" y2="495" />
<circle cx="758" cy="528" r="5" style="fill:#ffffff" />
<circle cx="772" cy="520" r="5" style="fill:#000000" />
<circle cx="772" cy="520" r="2" style="fill:#000000" />
<polygon points="747,536 755,536 758,529 751,529 747,536 " style="fill:#ffffff" />
<line x1="747" y1="720" x2="765" y2="717" />
<circle cx="760" cy="717" r="5" style="fill:#ffffff" />
<circle cx="776" cy="715" r="5" style="fill:#000000" />
<circle cx="776" cy="715" r="2" style="fill:#000000" />
<polygon points="747,720 755,723 760,718 753,715 747,720 " style="fill:#ffffff" />
<line x1="248" y1="1012" x2="226" y2="1050" />
<circle cx="240" cy="1024" r="5" style="fill:#ffffff" />
<circle cx="232" cy="1037" r="5" style="fill:#000000" />
<circle cx="232" cy="1037" r="2" style="fill:#000000" />
<polygon points="248,1012 241,1016 241,1024 248,1020 248,1012 " style="fill:#ffffff" />
<line x1="301" y1="510" x2="278" y2="445" />
<circle cx="296" cy="496" r="5" style="fill:#ffffff" />
<circle cx="290" cy="481" r="5" style="fill:#000000" />
<circle cx="290" cy="481" r="2" style="fill:#000000" />
<polygon points="301,510 302,502 297,497 295,505 301,510 " style="fill:#000000" />
<line x1="606" y1="510" x2="695" y2="409" />
<circle cx="615" cy="499" r="5" style="fill:#ffffff" />
<circle cx="675" cy="431" r="5" style="fill:#ffffff" />
<circle cx="675" cy="431" r="2" style="fill:#ffffff" />
<polygon points="695,409 683,415 691,422 695,409 " style="fill:#ffffff" />
<line x1="484" y1="1012" x2="500" y2="1050" />
<circle cx="489" cy="1024" r="5" style="fill:#ffffff" />
<polygon points="500,1050 502,1041 499,1047 492,1045 500,1050 " style="fill:#ffffff" />
<circle cx="494" cy="1037" r="5" style="fill:#ffffff" />
<circle cx="488" cy="1022" r="5" style="fill:#000000" />
<circle cx="488" cy="1022" r="2" style="fill:#000000" />
<line x1="586" y1="510" x2="719" y2="346" />
<polygon points="586,510 595,508 588,507 586,501 586,510 " style="fill:#ffffff" />
<circle cx="594" cy="499" r="5" style="fill:#ffffff" />
<circle cx="604" cy="486" r="5" style="fill:#000000" />
<circle cx="604" cy="486" r="2" style="fill:#000000" />
<line x1="429" y1="510" x2="437" y2="471" />
<polygon points="429,510 436,504 429,507 425,501 429,510 " style="fill:#ffffff" />
<circle cx="431" cy="496" r="5" style="fill:#ffffff" />
<circle cx="435" cy="480" r="5" style="fill:#000000" />
<circle cx="435" cy="480" r="2" style="fill:#000000" />
<line x1="738" y1="43" x2="234" y2="1298" />
<circle cx="239" cy="1285" r="5" style="fill:#ffffff" />
<line x1="741" y1="43" x2="543" y2="1050" />
<circle cx="545" cy="1036" r="5" style="fill:#ffffff" />
<line x1="744" y1="43" x2="768" y2="194" />
<line x1="764" y1="1084" x2="350" y2="1298" />
<circle cx="362" cy="1291" r="5" style="fill:#ffffff" />
<line x1="274" y1="1298" x2="808" y2="724" />
<circle cx="283" cy="1287" r="5" style="fill:#ffffff" />
<circle cx="294" cy="1276" r="5" style="fill:#000000" />
<circle cx="294" cy="1276" r="2" style="fill:#000000" />
<line x1="383" y1="1374" x2="451" y2="1372" />
<circle cx="396" cy="1373" r="5" style="fill:#ffffff" />
<circle cx="421" cy="1372" r="5" style="fill:#ffffff" />
<circle cx="421" cy="1372" r="2" style="fill:#ffffff" />
<polygon points="451,1372 438,1368 439,1377 451,1372 " style="fill:#ffffff" />
<line x1="243" y1="1298" x2="740" y2="346" />
<circle cx="249" cy="1285" r="5" style="fill:#ffffff" />
<line x1="313" y1="1143" x2="386" y2="1136" />
<circle cx="372" cy="1137" r="5" style="fill:#ffffff" />
<circle cx="356" cy="1138" r="5" style="fill:#000000" />
<circle cx="356" cy="1138" r="2" style="fill:#000000" />
<polygon points="386,1136 378,1133 373,1137 379,1141 386,1136 " style="fill:#ffffff" />
<line x1="319" y1="434" x2="384" y2="427" />
<circle cx="354" cy="430" r="5" style="fill:#ffffff" />
<circle cx="354" cy="430" r="2" style="fill:#ffffff" />
<polygon points="384,427 371,424 372,433 384,427 " style="fill:#ffffff" />
<line x1="233" y1="438" x2="192" y2="440" />
<circle cx="221" cy="438" r="5" style="fill:#ffffff" />
<circle cx="221" cy="438" r="2" style="fill:#ffffff" />
<polygon points="192,440 205,444 204,435 192,440 " style="fill:#ffffff" />
<line x1="551" y1="1050" x2="757" y2="346" />
<polygon points="551,1050 558,1044 552,1047 548,1041 551,1050 " style="fill:#ffffff" />
<circle cx="554" cy="1036" r="5" style="fill:#ffffff" />
<circle cx="559" cy="1021" r="5" style="fill:#000000" />
<circle cx="559" cy="1021" r="2" style="fill:#000000" />
<line x1="483" y1="1050" x2="131" y2="476" />
<polygon points="483,1050 483,1041 481,1047 474,1047 483,1050 " style="fill:#ffffff" />
<circle cx="475" cy="1038" r="5" style="fill:#ffffff" />
<circle cx="472" cy="1032" r="2" style="fill:#ffffff" />
<line x1="652" y1="327" x2="506" y2="395" />
<circle cx="639" cy="332" r="5" style="fill:#ffffff" />
<circle cx="624" cy="339" r="5" style="fill:#000000" />
<circle cx="624" cy="339" r="2" style="fill:#000000" />
<polygon points="652,327 644,327 640,332 647,334 652,327 " style="fill:#000000" />
</g>
</svg>