<svg xmlns="http://www.w3.org/2000/svg" version="1.1" width="807" height="596">
<g  fill="#f5fff5" stroke="#000000" style="stroke-width:1">
<rect x="662" y="452" width="133" height="143" />
<line x1="662" y1="465" x2="795" y2="465" />
<polygon points="775,473 787,478 787,468 775,473 " style="fill:#ffffff" />
<polygon points="775,487 782,491 789,487 782,483 775,487 " style="fill:#ffffff" />
<polygon points="775,501 782,505 789,501 782,497 775,501 " style="fill:#000000" />
<polygon points="775,515 783,520 779,515 783,510 775,515 " style="fill:#ffffff" />
<circle cx="775" cy="529" r="5" style="fill:#ffffff" />
<circle cx="775" cy="543" r="5" style="fill:#ffffff" />
<circle cx="782" cy="543" r="2" style="fill:#ffffff" />
<circle cx="775" cy="557" r="5" style="fill:#ffffff" />
<circle cx="775" cy="557" r="2" style="fill:#ffffff" />
<circle cx="775" cy="571" r="5" style="fill:#ffffff" />
<circle cx="775" cy="571" r="2" style="fill:#000000" />
<circle cx="775" cy="585" r="5" style="fill:#000000" />
<circle cx="775" cy="585" r="2" style="fill:#000000" />
</g>
<g font-size="10.000000" stroke="none">
<text x="663" y="461">Relations Key</text>
<text x="663" y="475">Generalization</text>
<text x="663" y="489">Aggregation(reference)</text>
<text x="663" y="503">Composition(owned)</text>
<text x="663" y="517">Const</text>
<text x="663" y="531">Method Variable</text>
<text x="663" y="545">Method Parameter</text>
<text x="663" y="559">Public</text>
<text x="663" y="573">Protected</text>
<text x="663" y="587">Private</text>
</g>
<g  fill="#f5fff5" stroke="#000000" style="stroke-width:1">
<rect x="11" y="11" width="516" height="296" />
<line x1="11" y1="32" x2="527" y2="32" />
<line x1="11" y1="80" x2="527" y2="80" />
</g>
<g font-size="10.000000" stroke="none">
<text x="12" y="20">ClassDiagramView</text>
<text x="12" y="29">oovcde</text>
<text x="12" y="41">-ClassDiagram mClassDiagram</text>
<text x="12" y="50">-GtkCairoContext mCairoContext</text>
<text x="12" y="59">-NullDrawer mNullDrawer</text>
<text x="12" y="68">-ClassDiagramListener mListener</text>
<text x="12" y="77">-ForegroundThreadBusyDialog mForegroundBusyDialog</text>
<text x="12" y="89">+initialize(ModelData modelData, ClassDiagramListener listener, OovTaskStatusListener taskStatusListener)</text>
<text x="12" y="98">+buttonPressEvent(&lt;&lt;typedef&gt;&gt;GdkEventButton event)</text>
<text x="12" y="107">+buttonReleaseEvent(&lt;&lt;typedef&gt;&gt;GdkEventButton event)</text>
<text x="12" y="116">+drawToDrawingArea()</text>
<text x="12" y="125">+drawSvgDiagram(&lt;&lt;typedef&gt;&gt;FILE fp)</text>
<text x="12" y="134">+updatePositions()</text>
<text x="12" y="143">+gotoClass(OovStringRef className)</text>
<text x="12" y="152">+displayListContextMenu(&lt;&lt;typedef&gt;&gt;guint button, &lt;&lt;typedef&gt;&gt;guint32 acttime, &lt;&lt;typedef&gt;&gt;gpointer data)</text>
<text x="12" y="161">+displayAddClassDialog()</text>
<text x="12" y="170">+selectAddClass(ModelType type, ClassGraph::eAddNodeTypes addType)</text>
<text x="12" y="179">-displayDrawContextMenu(&lt;&lt;typedef&gt;&gt;guint button, &lt;&lt;typedef&gt;&gt;guint32 acttime, &lt;&lt;typedef&gt;&gt;gpointer data)</text>
<text x="12" y="188">-updateDrawingAreaSize()</text>
<text x="12" y="197">+ClassDiagramView()</text>
<text x="12" y="206">+~ClassDiagramView()</text>
<text x="12" y="215">+clearGraphAndAddClass(OovStringRef className, ClassGraph::eAddNodeTypes addType)</text>
<text x="12" y="224">+addClass(OovStringRef className, ClassGraph::eAddNodeTypes addType, int depth)</text>
<text x="12" y="233">+saveDiagram(&lt;&lt;typedef&gt;&gt;FILE fp)</text>
<text x="12" y="242">+loadDiagram(&lt;&lt;typedef&gt;&gt;FILE fp)</text>
<text x="12" y="251">+isModified()</text>
<text x="12" y="260">+requestRedraw()</text>
<text x="12" y="269">+getDiagram()</text>
<text x="12" y="278">+getNode(int x, int y)</text>
<text x="12" y="287">-getDiagramWidget()</text>
<text x="12" y="296">-setCairoContext()</text>
<text x="12" y="305">-doneRepositioning()</text>
</g>
<g  fill="#f5fff5" stroke="#000000" style="stroke-width:1">
<rect x="15" y="528" width="67" height="26" />
<line x1="15" y1="549" x2="82" y2="549" />
<line x1="15" y1="552" x2="82" y2="552" />
</g>
<g font-size="10.000000" stroke="none">
<text x="16" y="537">ClassDiagram</text>
<text x="16" y="546">oovcde/BLL</text>
</g>
<g  fill="#f5fff5" stroke="#000000" style="stroke-width:1">
<rect x="572" y="14" width="234" height="80" />
<line x1="572" y1="35" x2="806" y2="35" />
<line x1="572" y1="47" x2="806" y2="47" />
</g>
<g font-size="10.000000" stroke="none">
<text x="573" y="23">GtkCairoContext</text>
<text x="573" y="32">oovcde</text>
<text x="573" y="44">-&lt;&lt;typedef&gt;&gt;cairo_t mCr</text>
<text x="573" y="56">+GtkCairoContext(&lt;&lt;typedef&gt;&gt;GtkWidget widget)</text>
<text x="573" y="65">+setContext(&lt;&lt;typedef&gt;&gt;GtkWidget widget)</text>
<text x="573" y="74">+clear()</text>
<text x="573" y="83">+~GtkCairoContext()</text>
<text x="573" y="92">+getCairo()</text>
</g>
<g  fill="#f5fff5" stroke="#000000" style="stroke-width:1">
<rect x="592" y="123" width="214" height="143" />
<line x1="592" y1="144" x2="806" y2="144" />
<line x1="592" y1="156" x2="806" y2="156" />
</g>
<g font-size="10.000000" stroke="none">
<text x="593" y="132">NullDrawer</text>
<text x="593" y="141">oovcde</text>
<text x="593" y="153">#&lt;&lt;typedef&gt;&gt;cairo_t cr</text>
<text x="593" y="165">+getTextExtentWidth(OovStringRef )</text>
<text x="593" y="174">+getTextExtentHeight(OovStringRef )</text>
<text x="593" y="183">+NullDrawer(&lt;&lt;typedef&gt;&gt;cairo_t c)</text>
<text x="593" y="192">+setGraphicsLib(&lt;&lt;typedef&gt;&gt;cairo_t c)</text>
<text x="593" y="201">+haveCr()</text>
<text x="593" y="210">+setDiagramSize(&lt;&lt;typedef&gt;&gt;GraphSize )</text>
<text x="593" y="219">+drawRect(GraphRect )</text>
<text x="593" y="228">+drawLine(GraphPoint , GraphPoint , bool )</text>
<text x="593" y="237">+drawCircle(GraphPoint , int , Color )</text>
<text x="593" y="246">+drawEllipse(GraphRect )</text>
<text x="593" y="255">+drawPoly(&lt;&lt;typedef&gt;&gt;OovPolygon , Color )</text>
<text x="593" y="264">+drawText(GraphPoint , OovStringRef )</text>
</g>
<g  fill="#f5fff5" stroke="#000000" style="stroke-width:1">
<rect x="542" y="312" width="178" height="44" />
<line x1="542" y1="333" x2="720" y2="333" />
<line x1="542" y1="336" x2="720" y2="336" />
</g>
<g font-size="10.000000" stroke="none">
<text x="543" y="321">ClassDiagramListener</text>
<text x="543" y="330">oovcde</text>
<text x="543" y="345">+~ClassDiagramListener()</text>
<text x="543" y="354">+gotoClass(OovStringRef className)</text>
</g>
<g  fill="#f5fff5" stroke="#000000" style="stroke-width:1">
<rect x="311" y="523" width="322" height="71" />
<line x1="311" y1="544" x2="633" y2="544" />
<line x1="311" y1="556" x2="633" y2="556" />
</g>
<g font-size="10.000000" stroke="none">
<text x="312" y="532">ForegroundThreadBusyDialog</text>
<text x="312" y="541">oovcde</text>
<text x="312" y="553">-TaskBusyDialog mDialog</text>
<text x="312" y="565">+startTask(OovStringRef text, &lt;&lt;typedef&gt;&gt;size_t totalIterations)</text>
<text x="312" y="574">+updateProgressIteration(&lt;&lt;typedef&gt;&gt;OovTaskStatusListenerId id, &lt;</text>
<text x="312" y="583">   &lt;typedef&gt;&gt;size_t i, OovStringRef text)</text>
<text x="312" y="592">+endTask(&lt;&lt;typedef&gt;&gt;OovTaskStatusListenerId id)</text>
</g>
<g  fill="#f5fff5" stroke="#000000" style="stroke-width:1">
<rect x="178" y="333" width="94" height="26" />
<line x1="178" y1="354" x2="272" y2="354" />
<line x1="178" y1="357" x2="272" y2="357" />
</g>
<g font-size="10.000000" stroke="none">
<text x="179" y="342">ClassGraphListener</text>
<text x="179" y="351">oovcde/BLL</text>
</g>
<g  fill="#f5fff5" stroke="#000000" style="stroke-width:1">
<rect x="432" y="339" width="63" height="26" />
<line x1="432" y1="360" x2="495" y2="360" />
<line x1="432" y1="363" x2="495" y2="363" />
</g>
<g font-size="10.000000" stroke="none">
<text x="433" y="348">ModelData</text>
<text x="433" y="357">oovCommon</text>
</g>
<g  fill="#f5fff5" stroke="#000000" style="stroke-width:1">
<rect x="180" y="400" width="60" height="26" />
<line x1="180" y1="421" x2="240" y2="421" />
<line x1="180" y1="424" x2="240" y2="424" />
</g>
<g font-size="10.000000" stroke="none">
<text x="181" y="409">ClassGraph</text>
<text x="181" y="418">oovcde/BLL</text>
</g>
<g  fill="#f5fff5" stroke="#000000" style="stroke-width:1">
<rect x="295" y="439" width="110" height="26" />
<line x1="295" y1="460" x2="405" y2="460" />
<line x1="295" y1="463" x2="405" y2="463" />
</g>
<g font-size="10.000000" stroke="none">
<text x="296" y="448">OovTaskStatusListener</text>
<text x="296" y="457">oovCommon</text>
</g>
<g  fill="#f5fff5" stroke="#000000" style="stroke-width:1">
<rect x="591" y="412" width="76" height="26" />
<line x1="591" y1="433" x2="667" y2="433" />
<line x1="591" y1="436" x2="667" y2="436" />
</g>
<g font-size="10.000000" stroke="none">
<text x="592" y="421">DiagramDrawer</text>
<text x="592" y="430">oovcde/BLL</text>
</g>
<g  fill="#f5f5ff" stroke="#000000" style="stroke-width:1">
<line x1="184" y1="307" x2="55" y2="528" />
<circle cx="176" cy="319" r="5" style="fill:#ffffff" />
<circle cx="168" cy="332" r="5" style="fill:#000000" />
<circle cx="168" cy="332" r="2" style="fill:#000000" />
<polygon points="184,307 177,311 177,319 184,315 184,307 " style="fill:#000000" />
<line x1="527" y1="95" x2="572" y2="83" />
<circle cx="540" cy="91" r="5" style="fill:#ffffff" />
<circle cx="555" cy="87" r="5" style="fill:#000000" />
<circle cx="555" cy="87" r="2" style="fill:#000000" />
<polygon points="527,95 535,97 540,92 533,89 527,95 " style="fill:#000000" />
<line x1="527" y1="180" x2="592" y2="186" />
<circle cx="540" cy="181" r="5" style="fill:#ffffff" />
<circle cx="556" cy="182" r="5" style="fill:#000000" />
<circle cx="556" cy="182" r="2" style="fill:#000000" />
<polygon points="527,180 534,185 540,181 535,177 527,180 " style="fill:#000000" />
<line x1="527" y1="283" x2="586" y2="312" />
<circle cx="539" cy="289" r="5" style="fill:#ffffff" />
<circle cx="553" cy="296" r="5" style="fill:#000000" />
<circle cx="553" cy="296" r="2" style="fill:#000000" />
<polygon points="527,283 532,290 539,289 535,283 527,283 " style="fill:#ffffff" />
<line x1="344" y1="307" x2="455" y2="523" />
<circle cx="357" cy="333" r="5" style="fill:#000000" />
<circle cx="357" cy="333" r="2" style="fill:#000000" />
<polygon points="344,307 344,315 350,319 351,311 344,307 " style="fill:#000000" />
<line x1="235" y1="307" x2="228" y2="333" />
<circle cx="235" cy="304" r="5" style="fill:#ffffff" />
<circle cx="235" cy="304" r="2" style="fill:#ffffff" />
<polygon points="228,333 236,322 227,320 228,333 " style="fill:#ffffff" />
<line x1="417" y1="307" x2="450" y2="339" />
<polygon points="417,307 418,316 419,309 426,308 417,307 " style="fill:#ffffff" />
<circle cx="427" cy="316" r="5" style="fill:#ffffff" />
<circle cx="432" cy="321" r="2" style="fill:#ffffff" />
<line x1="309" y1="307" x2="347" y2="439" />
<circle cx="312" cy="320" r="5" style="fill:#ffffff" />
<circle cx="314" cy="327" r="2" style="fill:#ffffff" />
<line x1="59" y1="528" x2="214" y2="359" />
<circle cx="68" cy="517" r="5" style="fill:#ffffff" />
<circle cx="73" cy="512" r="2" style="fill:#ffffff" />
<line x1="76" y1="528" x2="435" y2="365" />
<polygon points="76,528 85,530 79,527 80,520 76,528 " style="fill:#ffffff" />
<circle cx="88" cy="522" r="5" style="fill:#ffffff" />
<circle cx="103" cy="515" r="5" style="fill:#000000" />
<circle cx="103" cy="515" r="2" style="fill:#000000" />
<polygon points="76,528 84,528 88,523 81,521 76,528 " style="fill:#ffffff" />
<line x1="64" y1="528" x2="194" y2="426" />
<circle cx="75" cy="519" r="5" style="fill:#ffffff" />
<circle cx="87" cy="509" r="5" style="fill:#000000" />
<circle cx="87" cy="509" r="2" style="fill:#000000" />
<polygon points="64,528 72,527 75,520 67,520 64,528 " style="fill:#000000" />
<line x1="81" y1="532" x2="306" y2="465" />
<circle cx="94" cy="528" r="5" style="fill:#ffffff" />
<circle cx="101" cy="526" r="2" style="fill:#ffffff" />
<line x1="81" y1="535" x2="591" y2="432" />
<circle cx="94" cy="532" r="5" style="fill:#ffffff" />
<circle cx="101" cy="530" r="2" style="fill:#ffffff" />
<line x1="678" y1="265" x2="632" y2="412" />
<circle cx="640" cy="383" r="5" style="fill:#ffffff" />
<circle cx="640" cy="383" r="2" style="fill:#ffffff" />
<polygon points="632,412 640,402 631,399 632,412 " style="fill:#ffffff" />
<line x1="432" y1="523" x2="364" y2="465" />
<circle cx="386" cy="484" r="5" style="fill:#ffffff" />
<circle cx="386" cy="484" r="2" style="fill:#ffffff" />
<polygon points="364,465 370,477 377,469 364,465 " style="fill:#ffffff" />
<line x1="223" y1="359" x2="212" y2="400" />
<circle cx="215" cy="386" r="5" style="fill:#ffffff" />
<circle cx="219" cy="371" r="5" style="fill:#000000" />
<circle cx="219" cy="371" r="2" style="fill:#000000" />
<polygon points="212,400 218,394 215,387 210,392 212,400 " style="fill:#ffffff" />
<line x1="432" y1="359" x2="240" y2="406" />
<polygon points="240,406 249,409 243,406 246,399 240,406 " style="fill:#ffffff" />
<circle cx="253" cy="402" r="5" style="fill:#ffffff" />
<circle cx="269" cy="398" r="5" style="fill:#000000" />
<circle cx="269" cy="398" r="2" style="fill:#000000" />
<line x1="240" y1="421" x2="304" y2="439" />
<circle cx="253" cy="424" r="5" style="fill:#ffffff" />
<circle cx="268" cy="429" r="5" style="fill:#000000" />
<circle cx="268" cy="429" r="2" style="fill:#000000" />
<polygon points="240,421 246,427 253,424 248,419 240,421 " style="fill:#ffffff" />
<line x1="240" y1="413" x2="591" y2="424" />
<circle cx="253" cy="413" r="5" style="fill:#ffffff" />
<circle cx="269" cy="413" r="5" style="fill:#000000" />
<circle cx="269" cy="413" r="2" style="fill:#000000" />
<polygon points="240,413 247,417 253,413 247,409 240,413 " style="fill:#ffffff" />
</g>
</svg>