<svg xmlns="http://www.w3.org/2000/svg" version="1.1" width="626" height="170">
<g  fill="#f5f5ff" stroke="#000000" style="stroke-width:1">
<rect x="20" y="140" width="75" height="28" />
<rect x="15" y="145" width="10" height="5" />
<rect x="15" y="155" width="10" height="5" />
</g>
<g font-size="10.000000" stroke="none">
<text x="27" y="152">oovBuilder</text>
<text x="27" y="164">&lt;&lt;Program&gt;&gt;</text>
</g>
<g  fill="#f5f5ff" stroke="#000000" style="stroke-width:1">
<rect x="127" y="141" width="75" height="28" />
<rect x="122" y="146" width="10" height="5" />
<rect x="122" y="156" width="10" height="5" />
</g>
<g font-size="10.000000" stroke="none">
<text x="134" y="153">oovCMaker</text>
<text x="134" y="165">&lt;&lt;Program&gt;&gt;</text>
</g>
<g  fill="#f5f5ff" stroke="#000000" style="stroke-width:1">
<rect x="136" y="63" width="77" height="28" />
<rect x="131" y="68" width="10" height="5" />
<rect x="131" y="78" width="10" height="5" />
</g>
<g font-size="10.000000" stroke="none">
<text x="143" y="75">oovCommon</text>
<text x="143" y="87">&lt;&lt;StaticLib&gt;&gt;</text>
</g>
<g  fill="#f5f5ff" stroke="#000000" style="stroke-width:1">
<rect x="229" y="141" width="75" height="28" />
<rect x="224" y="146" width="10" height="5" />
<rect x="224" y="156" width="10" height="5" />
</g>
<g font-size="10.000000" stroke="none">
<text x="236" y="153">oovCovInstr</text>
<text x="236" y="165">&lt;&lt;Program&gt;&gt;</text>
</g>
<g  fill="#f5f5ff" stroke="#000000" style="stroke-width:1">
<rect x="333" y="141" width="77" height="28" />
<rect x="328" y="146" width="10" height="5" />
<rect x="328" y="156" width="10" height="5" />
</g>
<g font-size="10.000000" stroke="none">
<text x="340" y="153">oovCppParser</text>
<text x="340" y="165">&lt;&lt;Program&gt;&gt;</text>
</g>
<g  fill="#f5f5ff" stroke="#000000" style="stroke-width:1">
<rect x="436" y="140" width="75" height="28" />
<rect x="431" y="145" width="10" height="5" />
<rect x="431" y="155" width="10" height="5" />
</g>
<g font-size="10.000000" stroke="none">
<text x="443" y="152">oovEdit</text>
<text x="443" y="164">&lt;&lt;Program&gt;&gt;</text>
</g>
<g  fill="#f5f5ff" stroke="#000000" style="stroke-width:1">
<rect x="428" y="70" width="88" height="28" />
<rect x="423" y="75" width="10" height="5" />
<rect x="423" y="85" width="10" height="5" />
</g>
<g font-size="10.000000" stroke="none">
<text x="435" y="82">oovGuiCommon</text>
<text x="435" y="94">&lt;&lt;StaticLib&gt;&gt;</text>
</g>
<g  fill="#f5f5ff" stroke="#000000" style="stroke-width:1">
<rect x="550" y="141" width="75" height="28" />
<rect x="545" y="146" width="10" height="5" />
<rect x="545" y="156" width="10" height="5" />
</g>
<g font-size="10.000000" stroke="none">
<text x="557" y="153">oovaide</text>
<text x="557" y="165">&lt;&lt;Program&gt;&gt;</text>
</g>
<g  fill="#f5f5ff" stroke="#000000" style="stroke-width:1">
<rect x="430" y="8" width="74" height="28" />
<rect x="425" y="13" width="10" height="5" />
<rect x="425" y="23" width="10" height="5" />
</g>
<g font-size="10.000000" stroke="none">
<text x="437" y="20">gtk+-3.0</text>
<text x="437" y="32">&lt;&lt;External&gt;&gt;</text>
</g>
<g  fill="#f5f5ff" stroke="#000000" style="stroke-width:1">
<rect x="282" y="7" width="74" height="28" />
<rect x="277" y="12" width="10" height="5" />
<rect x="277" y="22" width="10" height="5" />
</g>
<g font-size="10.000000" stroke="none">
<text x="289" y="19">llvm</text>
<text x="289" y="31">&lt;&lt;External&gt;&gt;</text>
</g>
<g  fill="#f5f5ff" stroke="#000000" style="stroke-width:1">
<rect x="33" y="6" width="74" height="28" />
<rect x="28" y="11" width="10" height="5" />
<rect x="28" y="21" width="10" height="5" />
</g>
<g font-size="10.000000" stroke="none">
<text x="40" y="18">mingw-w64</text>
<text x="40" y="30">&lt;&lt;External&gt;&gt;</text>
</g>
<g  fill="#f5f5ff" stroke="#000000" style="stroke-width:1">
<line x1="151" y1="91" x2="76" y2="140" style="stroke-dasharray: 4, 4 "/>
<line x1="151" y1="91" x2="148" y2="100" />
<line x1="151" y1="91" x2="142" y2="91" />
</g>
<g  fill="#f5f5ff" stroke="#000000" style="stroke-width:1">
<line x1="171" y1="91" x2="163" y2="141" style="stroke-dasharray: 4, 4 "/>
<line x1="171" y1="91" x2="175" y2="99" />
<line x1="171" y1="91" x2="164" y2="98" />
</g>
<g  fill="#f5f5ff" stroke="#000000" style="stroke-width:1">
<line x1="92" y1="34" x2="147" y2="63" style="stroke-dasharray: 4, 4 "/>
<line x1="92" y1="34" x2="101" y2="33" />
<line x1="92" y1="34" x2="96" y2="42" />
</g>
<g  fill="#f5f5ff" stroke="#000000" style="stroke-width:1">
<line x1="188" y1="91" x2="248" y2="141" style="stroke-dasharray: 4, 4 "/>
<line x1="188" y1="91" x2="197" y2="91" />
<line x1="188" y1="91" x2="190" y2="100" />
</g>
<g  fill="#f5f5ff" stroke="#000000" style="stroke-width:1">
<line x1="311" y1="35" x2="269" y2="141" style="stroke-dasharray: 4, 4 "/>
<line x1="311" y1="35" x2="313" y2="44" />
<line x1="311" y1="35" x2="303" y2="40" />
</g>
<g  fill="#f5f5ff" stroke="#000000" style="stroke-width:1">
<line x1="207" y1="91" x2="334" y2="141" style="stroke-dasharray: 4, 4 "/>
<line x1="207" y1="91" x2="216" y2="89" />
<line x1="207" y1="91" x2="212" y2="99" />
</g>
<g  fill="#f5f5ff" stroke="#000000" style="stroke-width:1">
<line x1="321" y1="35" x2="364" y2="141" style="stroke-dasharray: 4, 4 "/>
<line x1="321" y1="35" x2="329" y2="40" />
<line x1="321" y1="35" x2="319" y2="44" />
</g>
<g  fill="#f5f5ff" stroke="#000000" style="stroke-width:1">
<line x1="469" y1="98" x2="471" y2="140" style="stroke-dasharray: 4, 4 "/>
<line x1="469" y1="98" x2="475" y2="105" />
<line x1="469" y1="98" x2="464" y2="106" />
</g>
<g  fill="#f5f5ff" stroke="#000000" style="stroke-width:1">
<line x1="332" y1="35" x2="455" y2="140" style="stroke-dasharray: 4, 4 "/>
<line x1="332" y1="35" x2="341" y2="35" />
<line x1="332" y1="35" x2="334" y2="44" />
</g>
<g  fill="#f5f5ff" stroke="#000000" style="stroke-width:1">
<line x1="213" y1="77" x2="423" y2="83" style="stroke-dasharray: 4, 4 "/>
<line x1="213" y1="77" x2="221" y2="72" />
<line x1="213" y1="77" x2="220" y2="83" />
</g>
<g  fill="#f5f5ff" stroke="#000000" style="stroke-width:1">
<line x1="465" y1="36" x2="468" y2="70" style="stroke-dasharray: 4, 4 "/>
<line x1="465" y1="36" x2="471" y2="43" />
<line x1="465" y1="36" x2="460" y2="44" />
</g>
<g  fill="#f5f5ff" stroke="#000000" style="stroke-width:1">
<line x1="491" y1="98" x2="563" y2="141" style="stroke-dasharray: 4, 4 "/>
<line x1="491" y1="98" x2="500" y2="98" />
<line x1="491" y1="98" x2="494" y2="107" />
</g>
</svg>