<svg xmlns="http://www.w3.org/2000/svg" version="1.1"
  font-family="Arial, Helvetica, sans-serif" font-size="10.000000" 
  width="728" height="700">
<g  fill="#f5fff5" stroke="#000000" style="stroke-width:1">
<rect x="315" y="556" width="133" height="143" />
<line x1="315" y1="569" x2="448" y2="569" />
<polygon points="428,577 440,582 440,572 428,577 " style="fill:#ffffff" />
<polygon points="428,591 435,595 442,591 435,587 428,591 " style="fill:#ffffff" />
<polygon points="428,605 435,609 442,605 435,601 428,605 " style="fill:#000000" />
<polygon points="428,619 436,624 432,619 436,614 428,619 " style="fill:#ffffff" />
<circle cx="428" cy="633" r="5" style="fill:#ffffff" />
<circle cx="428" cy="647" r="5" style="fill:#ffffff" />
<circle cx="435" cy="647" r="2" style="fill:#ffffff" />
<circle cx="428" cy="661" r="5" style="fill:#ffffff" />
<circle cx="428" cy="661" r="2" style="fill:#ffffff" />
<circle cx="428" cy="675" r="5" style="fill:#ffffff" />
<circle cx="428" cy="675" r="2" style="fill:#000000" />
<circle cx="428" cy="689" r="5" style="fill:#000000" />
<circle cx="428" cy="689" r="2" style="fill:#000000" />
</g>
<g stroke="none">
<text x="316" y="565">Relations Key</text>
<text x="316" y="579">Generalization</text>
<text x="316" y="593">Aggregation(reference)</text>
<text x="316" y="607">Composition(owned)</text>
<text x="316" y="621">Const</text>
<text x="316" y="635">Method Variable</text>
<text x="316" y="649">Method Parameter</text>
<text x="316" y="663">Public</text>
<text x="316" y="677">Protected</text>
<text x="316" y="691">Private</text>
</g>
<g  fill="#f5fff5" stroke="#000000" style="stroke-width:1">
<rect x="26" y="27" width="409" height="314" />
<line x1="26" y1="48" x2="435" y2="48" />
<line x1="26" y1="123" x2="435" y2="123" />
</g>
<g stroke="none">
<text x="27" y="36">ComponentBuilder</text>
<text x="27" y="45">oovBuilder</text>
<text x="27" y="57">-FilePath mSrcRootDir</text>
<text x="27" y="66">-FilePath mOutputPath</text>
<text x="27" y="75">-FilePath mIntermediatePath</text>
<text x="27" y="84">-ComponentFinder mComponentFinder</text>
<text x="27" y="93">-ToolPathFile mToolPathFile</text>
<text x="27" y="102">-ObjSymbols mObjSymbols</text>
<text x="27" y="111">-IncDirDependencyMapReader mIncDirMap</text>
<text x="27" y="120">-ComponentPkgDeps mComponentPkgDeps</text>
<text x="27" y="132">+build(eProcessModes mode, OovStringRef incDepsFilePath, OovStringRef </text>
<text x="34" y="141">buildDirClass)</text>
<text x="27" y="150">-buildComponents()</text>
<text x="27" y="159">-processSourceForComponents(eProcessModes pm)</text>
<text x="27" y="168">-generateDependencies()</text>
<text x="27" y="177">-processSourceFile(eProcessModes pm, OovStringRef srcFile, OovStringVec </text>
<text x="34" y="186">incDirs, OovStringVec incFiles, OovStringSet externPkgCompileArgs)</text>
<text x="27" y="195">-makeLib(OovStringRef libName, OovStringVec objectFileNames)</text>
<text x="27" y="204">-makeLibSymbols(OovStringRef clumpName, OovStringVec files)</text>
<text x="27" y="213">-makeExe(OovStringRef compName, OovStringVec sources, OovStringVec projectLib</text>
<text x="34" y="222">sFilePaths, OovStringVec externLibDirs, IndexedStringVec&lt;&lt;typedef&gt;</text>
<text x="34" y="231">&gt; externOrderedLibNames, IndexedStringSet&lt;&lt;typedef&gt;&gt; externPkgLinkArgs,</text>
<text x="34" y="240"> bool shared)</text>
<text x="27" y="249">-makeOutputObjectFileName(OovStringRef str)</text>
<text x="27" y="258">-getSymbolBasePath()</text>
<text x="27" y="267">-anyIncDirsMatch(OovStringRef compName, RootDirPackage pkg)</text>
<text x="27" y="276">-makeOrderedPackageLibs(OovStringRef compName)</text>
<text x="27" y="285">-appendOrderedPackageLibs(OovStringRef compName, OovStringVec libDirs,</text>
<text x="34" y="294"> IndexedStringVec&lt;&lt;typedef&gt;&gt; sortedLibNames)</text>
<text x="27" y="303">-getComponentCompileArgs(OovStringRef compName, ComponentTypesFile )</text>
<text x="27" y="312">-getComponentPackageLinkArgs(OovStringRef compName, ComponentTypesFile file)</text>
<text x="27" y="321">+ComponentBuilder(ComponentFinder compFinder)</text>
<text x="27" y="330">-getDiagFileName()</text>
<text x="27" y="339">-makePackageLibSymbols(OovStringRef compName)</text>
</g>
<g stroke="none" font-style="italic">
</g>
<g  fill="#f5fff5" stroke="#000000" style="stroke-width:1">
<rect x="473" y="402" width="254" height="296" />
<line x1="473" y1="423" x2="727" y2="423" />
<line x1="473" y1="516" x2="727" y2="516" />
</g>
<g stroke="none">
<text x="474" y="411">ComponentFinder</text>
<text x="474" y="420">oovBuilder</text>
<text x="474" y="432">-string&lt;&lt;typedef&gt;&gt; mRootPathName</text>
<text x="474" y="441">-OovStringVec mExcludeDirs</text>
<text x="474" y="450">-ScannedComponentsInfo mScannedInfo</text>
<text x="474" y="459">-ProjectReader mProject</text>
<text x="474" y="468">-ProjectBuildArgs mProjectBuildArgs</text>
<text x="474" y="477">-ComponentTypesFile mComponentTypesFile</text>
<text x="474" y="486">-ComponentsFile mComponentsFile</text>
<text x="474" y="495">-Package mScanningPackage</text>
<text x="474" y="504">-bool mAddIncs</text>
<text x="474" y="513">-bool mAddLibs</text>
<text x="474" y="525">+readProject(OovStringRef oovProjectDir, </text>
<text x="481" y="534">OovStringRef buildConfigName)</text>
<text x="474" y="543">+scanProject()</text>
<text x="474" y="552">+scanExternalProject(OovStringRef externalRootSrch</text>
<text x="481" y="561">, Package pkg)</text>
<text x="474" y="570">+addBuildPackage(Package pkg)</text>
<text x="474" y="579">+saveProject(OovStringRef compFn)</text>
<text x="474" y="588">+getComponentName(OovStringRef filePath)</text>
<text x="474" y="597">+getAllIncludeDirs()</text>
<text x="474" y="615">+ComponentFinder()</text>
<text x="474" y="624">+doesBuildPackageExist(OovStringRef pkgName)</text>
<text x="474" y="633">+getProject()</text>
<text x="474" y="642">+getProject()</text>
<text x="474" y="651">+getProjectBuildArgs()</text>
<text x="474" y="660">+getProjectBuildArgs()</text>
<text x="474" y="669">+getComponentTypesFile()</text>
<text x="474" y="678">+getComponentsFile()</text>
<text x="474" y="687">+getScannedInfo()</text>
<text x="474" y="696">+makeFileName(OovStringRef projName)</text>
</g>
<g stroke="none" font-style="italic">
<text x="474" y="606">-processFile(OovStringRef filePath)</text>
</g>
<g  fill="#f5fff5" stroke="#000000" style="stroke-width:1">
<rect x="542" y="245" width="183" height="125" />
<line x1="542" y1="266" x2="725" y2="266" />
<line x1="542" y1="305" x2="725" y2="305" />
</g>
<g stroke="none">
<text x="543" y="254">ToolPathFile</text>
<text x="543" y="263">oovBuilder</text>
<text x="543" y="275">-string&lt;&lt;typedef&gt;&gt; mBuildConfig</text>
<text x="543" y="284">-string&lt;&lt;typedef&gt;&gt; mPathCompiler</text>
<text x="543" y="293">-string&lt;&lt;typedef&gt;&gt; mPathLibber</text>
<text x="543" y="302">-string&lt;&lt;typedef&gt;&gt; mPathObjSymbol</text>
<text x="543" y="314">+getCompilerPath()</text>
<text x="543" y="323">+getAnalysisToolPath()</text>
<text x="543" y="332">+getLibberPath()</text>
<text x="543" y="341">+getObjSymbolPath()</text>
<text x="543" y="350">+getCovInstrToolPath()</text>
<text x="543" y="359">-getPaths()</text>
<text x="543" y="368">+setConfig(OovStringRef buildConfig)</text>
</g>
<g stroke="none" font-style="italic">
</g>
<g  fill="#f5fff5" stroke="#000000" style="stroke-width:1">
<rect x="31" y="536" width="236" height="161" />
<line x1="31" y1="557" x2="267" y2="557" />
<line x1="31" y1="569" x2="267" y2="569" />
</g>
<g stroke="none">
<text x="32" y="545">ObjSymbols</text>
<text x="32" y="554">oovBuilder</text>
<text x="32" y="566">-InProcMutex mListenerStdMutex</text>
<text x="32" y="578">+makeClumpSymbols(OovStringRef clumpName,</text>
<text x="39" y="587"> OovStringVec libFileNames, OovStringRef</text>
<text x="39" y="596"> outSymPath, OovStringRef objSymbolTool,</text>
<text x="39" y="605"> ComponentTaskQueue queue)</text>
<text x="32" y="614">+appendOrderedLibs(OovStringRef clumpName,</text>
<text x="39" y="623"> OovStringRef outPath, OovStringVec </text>
<text x="39" y="632">libDirs, OovStringVec sortedLibNames)</text>
<text x="32" y="641">+appendOrderedLibFileNames(OovStringRef </text>
<text x="39" y="650">clumpName, OovStringRef outPath,</text>
<text x="39" y="659"> OovStringVec sortedLibFileNames)</text>
<text x="32" y="668">-makeObjectSymbols(OovStringVec libFiles,</text>
<text x="39" y="677"> OovStringRef outSymPath, OovStringRef </text>
<text x="39" y="686">objSymbolTool, ComponentTaskQueue </text>
<text x="39" y="695">queue, ClumpSymbols clumpSymbols)</text>
</g>
<g stroke="none" font-style="italic">
</g>
<g  fill="#f5fff5" stroke="#000000" style="stroke-width:1">
<rect x="280" y="514" width="145" height="26" />
<line x1="280" y1="535" x2="425" y2="535" />
<line x1="280" y1="538" x2="425" y2="538" />
</g>
<g stroke="none">
<text x="281" y="523">IncDirDependencyMapReader</text>
<text x="281" y="532">oovCommon</text>
</g>
<g stroke="none" font-style="italic">
</g>
<g  fill="#f5fff5" stroke="#000000" style="stroke-width:1">
<rect x="464" y="28" width="263" height="89" />
<line x1="464" y1="49" x2="727" y2="49" />
<line x1="464" y1="79" x2="727" y2="79" />
</g>
<g stroke="none">
<text x="465" y="37">ComponentPkgDeps</text>
<text x="465" y="46">oovBuilder</text>
<text x="465" y="58">-std::map&lt;OovString,OovStringSet,std::less&lt;</text>
<text x="472" y="67">OovString&gt;,std::allocator&lt;std::pair&lt;OovString,</text>
<text x="472" y="76">OovStringSet&gt; &gt; &gt; mCompPkgMap</text>
<text x="465" y="88">+isDependent(OovStringRef compName, OovStringRef</text>
<text x="472" y="97"> pkgName)</text>
<text x="465" y="106">+addPkgDep(OovString compName, OovStringRef </text>
<text x="472" y="115">pkgName)</text>
</g>
<g stroke="none" font-style="italic">
</g>
<g  fill="#f5fff5" stroke="#000000" style="stroke-width:1">
<rect x="29" y="399" width="243" height="98" />
<line x1="29" y1="420" x2="272" y2="420" />
<line x1="29" y1="441" x2="272" y2="441" />
</g>
<g stroke="none">
<text x="30" y="408">ComponentTaskQueue</text>
<text x="30" y="417">oovBuilder</text>
<text x="30" y="429">+InProcMutex mListenerStdMutex</text>
<text x="30" y="438">-TaskQueueListener mListener</text>
<text x="30" y="450">+processItem(ProcessArgs item)</text>
<text x="30" y="459">+runProcess(OovStringRef procPath, OovStringRef </text>
<text x="37" y="468">outFile, OovProcessChildArgs args, InProcMutex </text>
<text x="37" y="477">mutex, OovStringRef stdOutFn)</text>
<text x="30" y="486">+ComponentTaskQueue()</text>
<text x="30" y="495">+setTaskListener(TaskQueueListener listener)</text>
</g>
<g stroke="none" font-style="italic">
</g>
<g  fill="#f5fff5" stroke="#000000" style="stroke-width:1">
<rect x="504" y="177" width="185" height="35" />
<line x1="504" y1="207" x2="689" y2="207" />
<line x1="504" y1="210" x2="689" y2="210" />
</g>
<g stroke="none">
<text x="505" y="186">std::map&lt;OovString,OovStringSet,std::</text>
<text x="505" y="195">  less&lt;OovString&gt;,std::allocator&lt;std::</text>
<text x="505" y="204">  pair&lt;OovString,OovStringSet&gt; &gt; &gt;</text>
</g>
<g stroke="none" font-style="italic">
</g>
<g  fill="#f5fff5" stroke="#000000" style="stroke-width:1">
<rect x="342" y="424" width="77" height="26" />
<line x1="342" y1="445" x2="419" y2="445" />
<line x1="342" y1="448" x2="419" y2="448" />
</g>
<g stroke="none">
<text x="343" y="433">NameValueFile</text>
<text x="343" y="442">oovCommon</text>
</g>
<g stroke="none" font-style="italic">
</g>
<g  fill="#f5f5ff" stroke="#000000" style="stroke-width:1">
<line x1="388" y1="341" x2="473" y2="425" />
<circle cx="397" cy="350" r="5" style="fill:#ffffff" />
<circle cx="402" cy="355" r="2" style="fill:#ffffff" />
<circle cx="409" cy="362" r="5" style="fill:#000000" />
<circle cx="409" cy="362" r="2" style="fill:#000000" />
<polygon points="388,341 390,349 397,350 396,343 388,341 " style="fill:#ffffff" />
<line x1="434" y1="246" x2="542" y2="280" />
<circle cx="447" cy="250" r="5" style="fill:#ffffff" />
<circle cx="462" cy="255" r="5" style="fill:#000000" />
<circle cx="462" cy="255" r="2" style="fill:#000000" />
<polygon points="434,246 440,252 447,250 442,245 434,246 " style="fill:#000000" />
<line x1="201" y1="341" x2="164" y2="536" />
<circle cx="198" cy="354" r="5" style="fill:#ffffff" />
<circle cx="195" cy="370" r="5" style="fill:#000000" />
<circle cx="195" cy="370" r="2" style="fill:#000000" />
<polygon points="201,341 196,347 199,354 203,349 201,341 " style="fill:#000000" />
<line x1="285" y1="341" x2="348" y2="514" />
<circle cx="289" cy="354" r="5" style="fill:#ffffff" />
<circle cx="295" cy="369" r="5" style="fill:#000000" />
<circle cx="295" cy="369" r="2" style="fill:#000000" />
<polygon points="285,341 284,349 289,354 291,346 285,341 " style="fill:#000000" />
<line x1="434" y1="122" x2="464" y2="112" />
<circle cx="462" cy="112" r="5" style="fill:#000000" />
<circle cx="462" cy="112" r="2" style="fill:#000000" />
<polygon points="434,122 442,123 447,118 439,116 434,122 " style="fill:#000000" />
<line x1="183" y1="341" x2="164" y2="399" />
<circle cx="178" cy="354" r="5" style="fill:#ffffff" />
<circle cx="173" cy="370" r="5" style="fill:#ffffff" />
<circle cx="173" cy="370" r="2" style="fill:#ffffff" />
<polygon points="164,399 173,389 163,386 164,399 " style="fill:#ffffff" />
<line x1="473" y1="485" x2="405" y2="450" />
<circle cx="460" cy="478" r="5" style="fill:#ffffff" />
<line x1="542" y1="353" x2="405" y2="424" />
<circle cx="529" cy="359" r="5" style="fill:#ffffff" />
<circle cx="431" cy="410" r="5" style="fill:#ffffff" />
<circle cx="431" cy="410" r="2" style="fill:#ffffff" />
<polygon points="405,424 418,423 414,414 405,424 " style="fill:#ffffff" />
<line x1="149" y1="536" x2="150" y2="497" />
<circle cx="149" cy="522" r="5" style="fill:#ffffff" />
<circle cx="149" cy="515" r="2" style="fill:#ffffff" />
<line x1="356" y1="514" x2="376" y2="450" />
<circle cx="360" cy="500" r="5" style="fill:#ffffff" />
<circle cx="367" cy="478" r="5" style="fill:#ffffff" />
<circle cx="367" cy="478" r="2" style="fill:#ffffff" />
<polygon points="376,450 368,460 377,463 376,450 " style="fill:#ffffff" />
<line x1="595" y1="116" x2="596" y2="177" />
<circle cx="595" cy="129" r="5" style="fill:#ffffff" />
<circle cx="595" cy="145" r="5" style="fill:#000000" />
<circle cx="595" cy="145" r="2" style="fill:#000000" />
<polygon points="595,116 591,123 595,129 599,123 595,116 " style="fill:#000000" />
</g>
</svg>