<svg xmlns="http://www.w3.org/2000/svg" version="1.1"
 font-family="Arial, Helvetica, sans-serif" font-size="10.00" width="765" height="698" viewbox="0 0 765 698">
<g  fill="#f5fff5" stroke="#000000" style="stroke-width:1">
<rect x="300" y="553" width="129" height="143" />
<line x1="300" y1="566" x2="429" y2="566" />
<polygon points="413,574 425,579 425,569 413,574 " style="fill:#ffffff" />
<polygon points="413,588 420,592 427,588 420,584 413,588 " style="fill:#ffffff" />
<polygon points="413,602 420,606 427,602 420,598 413,602 " style="fill:#000000" />
<polygon points="413,616 421,621 417,616 421,611 413,616 " style="fill:#ffffff" />
<circle cx="413" cy="630" r="5" style="fill:#ffffff" />
<circle cx="413" cy="644" r="5" style="fill:#ffffff" />
<circle cx="420" cy="644" r="2" style="fill:#ffffff" />
<circle cx="413" cy="658" r="5" style="fill:#ffffff" />
<circle cx="413" cy="658" r="2" style="fill:#ffffff" />
<circle cx="413" cy="672" r="5" style="fill:#ffffff" />
<circle cx="413" cy="672" r="2" style="fill:#000000" />
<circle cx="413" cy="686" r="5" style="fill:#000000" />
<circle cx="413" cy="686" r="2" style="fill:#000000" />
</g>
<g stroke="none">
<text x="301" y="562">Relations Key</text>
<text x="301" y="576">Generalization</text>
<text x="301" y="590">Aggregation(reference)</text>
<text x="301" y="604">Composition(owned)</text>
<text x="301" y="618">Const</text>
<text x="301" y="632">Method Variable</text>
<text x="301" y="646">Method Parameter</text>
<text x="301" y="660">Public</text>
<text x="301" y="674">Protected</text>
<text x="301" y="688">Private</text>
</g>
<g  fill="#f5fff5" stroke="#000000" style="stroke-width:1">
<rect x="26" y="27" width="427" height="350" />
<line x1="26" y1="48" x2="453" y2="48" />
<line x1="26" y1="123" x2="453" y2="123" />
</g>
<g stroke="none">
<text x="27" y="36">ComponentBuilder</text>
<text x="27" y="45">oovBuilder</text>
<text x="27" y="57">-FilePath mSrcRootDir</text>
<text x="27" y="66">-FilePath mOutputPath</text>
<text x="27" y="75">-FilePath mIntermediatePath</text>
<text x="27" y="84">-ComponentFinder mComponentFinder</text>
<text x="27" y="93">-ToolPathFile mToolPathFile</text>
<text x="27" y="102">-ObjSymbols mObjSymbols</text>
<text x="27" y="111">-IncDirDependencyMapReader mIncDirMap</text>
<text x="27" y="120">-ComponentPkgDeps mComponentPkgDeps</text>
<text x="27" y="132">+build(eProcessModes mode, OovStringRef incDepsFilePath, OovStringRef buildDirClas</text>
<text x="34" y="141">s)</text>
<text x="27" y="150">-buildComponents()</text>
<text x="27" y="159">-processSourceForComponents(eProcessModes pm)</text>
<text x="27" y="168">-generateDependencies()</text>
<text x="27" y="177">-processCppSourceFile(eProcessModes pm, OovStringRef srcFile, OovStringVec </text>
<text x="34" y="186">incDirs, OovStringVec incFiles, OovStringSet externPkgCompileArgs)</text>
<text x="27" y="195">-processJavaSourceFiles(eProcessModes pm, OovStringRef compName, OovStringVec </text>
<text x="34" y="204">javaSources)</text>
<text x="27" y="213">-makeLib(OovStringRef libName, OovStringVec objectFileNames)</text>
<text x="27" y="222">-makeLibSymbols(OovStringRef clumpName, OovStringVec files)</text>
<text x="27" y="231">-makeExe(OovStringRef compName, OovStringVec sources, OovStringVec projectLibsFile</text>
<text x="34" y="240">Paths, OovStringVec externLibDirs, IndexedStringVec&lt;&lt;typedef&gt;&gt; externOrderedLibN</text>
<text x="34" y="249">ames, IndexedStringSet&lt;&lt;typedef&gt;&gt; externPkgLinkArgs, bool shared)</text>
<text x="27" y="258">-makeJar(OovStringRef compName, OovStringVec sources, bool prog)</text>
<text x="27" y="267">-makeOutputObjectFileName(OovStringRef str)</text>
<text x="27" y="276">-getSymbolBasePath()</text>
<text x="27" y="285">-anyIncDirsMatch(OovStringRef compName, RootDirPackage pkg)</text>
<text x="27" y="294">-makeOrderedPackageLibs(OovStringRef compName)</text>
<text x="27" y="303">-appendOrderedPackageLibs(OovStringRef compName, OovStringVec libDirs, IndexedStri</text>
<text x="34" y="312">ngVec&lt;&lt;typedef&gt;&gt; sortedLibNames)</text>
<text x="27" y="321">-getComponentCompileArgs(OovStringRef compName, ComponentTypesFile )</text>
<text x="27" y="330">-getComponentPackageLinkArgs(OovStringRef compName, ComponentTypesFile file)</text>
<text x="27" y="339">+ComponentBuilder(ComponentFinder compFinder)</text>
<text x="27" y="348">-getComponentTypesFile()</text>
<text x="27" y="357">-makeOutputJarName(OovStringRef compName)</text>
<text x="27" y="366">-makeLibFn(OovStringRef compName)</text>
<text x="27" y="375">-getDiagFileName()</text>
</g>
<g stroke="none" font-style="italic">
</g>
<g  fill="#f5fff5" stroke="#000000" style="stroke-width:1">
<rect x="455" y="417" width="307" height="278" />
<line x1="455" y1="438" x2="762" y2="438" />
<line x1="455" y1="531" x2="762" y2="531" />
</g>
<g stroke="none">
<text x="456" y="426">ComponentFinder</text>
<text x="456" y="435">oovBuilder</text>
<text x="456" y="447">-OovString mRootPathName</text>
<text x="456" y="456">-OovStringVec mExcludeDirs</text>
<text x="456" y="465">-ScannedComponentsInfo mScannedInfo</text>
<text x="456" y="474">-ProjectReader mProject</text>
<text x="456" y="483">-ProjectBuildArgs mProjectBuildArgs</text>
<text x="456" y="492">-ComponentTypesFile mComponentTypesFile</text>
<text x="456" y="501">-ComponentsFile mComponentsFile</text>
<text x="456" y="510">-Package mScanningPackage</text>
<text x="456" y="519">-bool mAddIncs</text>
<text x="456" y="528">-bool mAddLibs</text>
<text x="456" y="540">+readProject(OovStringRef oovProjectDir, OovStringRef </text>
<text x="463" y="549">buildConfigName)</text>
<text x="456" y="558">+scanProject()</text>
<text x="456" y="567">+scanExternalProject(OovStringRef externalRootSrch,</text>
<text x="463" y="576"> Package pkg)</text>
<text x="456" y="585">+addBuildPackage(Package pkg)</text>
<text x="456" y="594">+saveProject(OovStringRef compFn, OovStringRef analysisPath)</text>
<text x="456" y="603">+getComponentName(OovStringRef filePath)</text>
<text x="456" y="612">+getAllIncludeDirs()</text>
<text x="456" y="630">+ComponentFinder()</text>
<text x="456" y="639">+doesBuildPackageExist(OovStringRef pkgName)</text>
<text x="456" y="648">+getProjectBuildArgs()</text>
<text x="456" y="657">+getProjectBuildArgs()</text>
<text x="456" y="666">+getComponentTypesFile()</text>
<text x="456" y="675">+getScannedInfo()</text>
<text x="456" y="684">+makeActualComponentName(OovStringRef projName)</text>
<text x="456" y="693">+getRelCompDir(OovStringRef projName)</text>
</g>
<g stroke="none" font-style="italic">
<text x="456" y="621">-processFile(OovStringRef filePath)</text>
</g>
<g  fill="#f5fff5" stroke="#000000" style="stroke-width:1">
<rect x="505" y="238" width="259" height="143" />
<line x1="505" y1="259" x2="764" y2="259" />
<line x1="505" y1="280" x2="764" y2="280" />
</g>
<g stroke="none">
<text x="506" y="247">ToolPathFile</text>
<text x="506" y="256">oovBuilder</text>
<text x="506" y="268">-string&lt;&lt;typedef&gt;&gt; mBuildConfig</text>
<text x="506" y="277">-string&lt;&lt;typedef&gt;&gt; mPathJavaJarTool</text>
<text x="506" y="289">+getCompilerPath()</text>
<text x="506" y="298">+getJavaCompilerPath()</text>
<text x="506" y="307">+appendArgs(bool appendSwitchArgs, OovStringRef </text>
<text x="513" y="316">argStr, CppChildArgs args)</text>
<text x="506" y="325">+getJavaJarToolPath()</text>
<text x="506" y="334">+getLibberPath()</text>
<text x="506" y="343">+getObjSymbolPath()</text>
<text x="506" y="352">+getCovInstrToolPath()</text>
<text x="506" y="361">-getPaths()</text>
<text x="506" y="370">+setConfig(OovStringRef buildConfig)</text>
<text x="506" y="379">+makeBuildConfigArgName(OovStringRef baseName)</text>
</g>
<g stroke="none" font-style="italic">
</g>
<g  fill="#f5fff5" stroke="#000000" style="stroke-width:1">
<rect x="31" y="536" width="236" height="161" />
<line x1="31" y1="557" x2="267" y2="557" />
<line x1="31" y1="569" x2="267" y2="569" />
</g>
<g stroke="none">
<text x="32" y="545">ObjSymbols</text>
<text x="32" y="554">oovBuilder</text>
<text x="32" y="566">-InProcMutex mListenerStdMutex</text>
<text x="32" y="578">+makeClumpSymbols(OovStringRef clumpName,</text>
<text x="39" y="587"> OovStringVec libFileNames, OovStringRef</text>
<text x="39" y="596"> outSymPath, OovStringRef objSymbolTool,</text>
<text x="39" y="605"> ComponentTaskQueue queue)</text>
<text x="32" y="614">+appendOrderedLibs(OovStringRef clumpName,</text>
<text x="39" y="623"> OovStringRef outPath, OovStringVec </text>
<text x="39" y="632">libDirs, OovStringVec sortedLibNames)</text>
<text x="32" y="641">+appendOrderedLibFileNames(OovStringRef </text>
<text x="39" y="650">clumpName, OovStringRef outPath,</text>
<text x="39" y="659"> OovStringVec sortedLibFileNames)</text>
<text x="32" y="668">-makeObjectSymbols(OovStringVec libFiles,</text>
<text x="39" y="677"> OovStringRef outSymPath, OovStringRef </text>
<text x="39" y="686">objSymbolTool, ComponentTaskQueue </text>
<text x="39" y="695">queue, ClumpSymbols clumpSymbols)</text>
</g>
<g stroke="none" font-style="italic">
</g>
<g  fill="#f5fff5" stroke="#000000" style="stroke-width:1">
<rect x="278" y="511" width="145" height="26" />
<line x1="278" y1="532" x2="423" y2="532" />
<line x1="278" y1="535" x2="423" y2="535" />
</g>
<g stroke="none">
<text x="279" y="520">IncDirDependencyMapReader</text>
<text x="279" y="529">oovCommon</text>
</g>
<g stroke="none" font-style="italic">
</g>
<g  fill="#f5fff5" stroke="#000000" style="stroke-width:1">
<rect x="496" y="27" width="263" height="89" />
<line x1="496" y1="48" x2="759" y2="48" />
<line x1="496" y1="78" x2="759" y2="78" />
</g>
<g stroke="none">
<text x="497" y="36">ComponentPkgDeps</text>
<text x="497" y="45">oovBuilder</text>
<text x="497" y="57">-std::map&lt;OovString,OovStringSet,std::less&lt;</text>
<text x="504" y="66">OovString&gt;,std::allocator&lt;std::pair&lt;OovString,</text>
<text x="504" y="75">OovStringSet&gt; &gt; &gt; mCompPkgMap</text>
<text x="497" y="87">+isDependent(OovStringRef compName, OovStringRef</text>
<text x="504" y="96"> pkgName)</text>
<text x="497" y="105">+addPkgDep(OovString compName, OovStringRef </text>
<text x="504" y="114">pkgName)</text>
</g>
<g stroke="none" font-style="italic">
</g>
<g  fill="#f5fff5" stroke="#000000" style="stroke-width:1">
<rect x="29" y="399" width="243" height="107" />
<line x1="29" y1="420" x2="272" y2="420" />
<line x1="29" y1="441" x2="272" y2="441" />
</g>
<g stroke="none">
<text x="30" y="408">ComponentTaskQueue</text>
<text x="30" y="417">oovBuilder</text>
<text x="30" y="429">+InProcMutex mListenerStdMutex</text>
<text x="30" y="438">-TaskQueueListener mListener</text>
<text x="30" y="450">+processItem(ProcessArgs item)</text>
<text x="30" y="459">+runProcess(OovStringRef procPath, OovStringRef </text>
<text x="37" y="468">outFile, OovProcessChildArgs args, InProcMutex </text>
<text x="37" y="477">mutex, OovStringRef stdOutFn, OovStringRef </text>
<text x="37" y="486">workingDir)</text>
<text x="30" y="495">+ComponentTaskQueue()</text>
<text x="30" y="504">+setTaskListener(TaskQueueListener listener)</text>
</g>
<g stroke="none" font-style="italic">
</g>
<g  fill="#f5fff5" stroke="#000000" style="stroke-width:1">
<rect x="504" y="177" width="185" height="35" />
<line x1="504" y1="207" x2="689" y2="207" />
<line x1="504" y1="210" x2="689" y2="210" />
</g>
<g stroke="none">
<text x="505" y="186">std::map&lt;OovString,OovStringSet,std::</text>
<text x="505" y="195">  less&lt;OovString&gt;,std::allocator&lt;std::</text>
<text x="505" y="204">  pair&lt;OovString,OovStringSet&gt; &gt; &gt;</text>
</g>
<g stroke="none" font-style="italic">
</g>
<g  fill="#f5fff5" stroke="#000000" style="stroke-width:1">
<rect x="342" y="424" width="77" height="26" />
<line x1="342" y1="445" x2="419" y2="445" />
<line x1="342" y1="448" x2="419" y2="448" />
</g>
<g stroke="none">
<text x="343" y="433">NameValueFile</text>
<text x="343" y="442">oovCommon</text>
</g>
<g stroke="none" font-style="italic">
</g>
<g  fill="#f5f5ff" stroke="#000000" style="stroke-width:1">
<line x1="421" y1="377" x2="464" y2="417" />
<circle cx="431" cy="386" r="5" style="fill:#ffffff" />
<circle cx="436" cy="391" r="2" style="fill:#ffffff" />
<circle cx="442" cy="397" r="5" style="fill:#000000" />
<circle cx="442" cy="397" r="2" style="fill:#000000" />
<polygon points="421,377 423,385 431,386 429,379 421,377 " style="fill:#ffffff" />
<line x1="452" y1="259" x2="505" y2="275" />
<circle cx="465" cy="263" r="5" style="fill:#ffffff" />
<circle cx="480" cy="267" r="5" style="fill:#000000" />
<circle cx="480" cy="267" r="2" style="fill:#000000" />
<polygon points="452,259 458,265 465,263 460,257 452,259 " style="fill:#000000" />
<line x1="201" y1="377" x2="166" y2="536" />
<circle cx="197" cy="390" r="5" style="fill:#ffffff" />
<circle cx="194" cy="406" r="5" style="fill:#000000" />
<circle cx="194" cy="406" r="2" style="fill:#000000" />
<polygon points="201,377 195,383 198,390 203,385 201,377 " style="fill:#000000" />
<line x1="299" y1="377" x2="346" y2="511" />
<circle cx="303" cy="390" r="5" style="fill:#ffffff" />
<circle cx="308" cy="405" r="5" style="fill:#000000" />
<circle cx="308" cy="405" r="2" style="fill:#000000" />
<polygon points="299,377 298,385 303,390 305,382 299,377 " style="fill:#000000" />
<line x1="452" y1="131" x2="497" y2="115" />
<circle cx="465" cy="126" r="5" style="fill:#ffffff" />
<circle cx="480" cy="120" r="5" style="fill:#000000" />
<circle cx="480" cy="120" r="2" style="fill:#000000" />
<polygon points="452,131 460,132 465,127 457,125 452,131 " style="fill:#000000" />
<line x1="177" y1="377" x2="168" y2="399" />
<circle cx="171" cy="389" r="5" style="fill:#ffffff" />
<circle cx="179" cy="371" r="5" style="fill:#ffffff" />
<circle cx="179" cy="371" r="2" style="fill:#ffffff" />
<polygon points="168,399 177,390 168,386 168,399 " style="fill:#ffffff" />
<line x1="455" y1="477" x2="404" y2="450" />
<circle cx="442" cy="470" r="5" style="fill:#ffffff" />
<line x1="505" y1="374" x2="405" y2="424" />
<circle cx="492" cy="380" r="5" style="fill:#ffffff" />
<circle cx="431" cy="410" r="5" style="fill:#ffffff" />
<circle cx="431" cy="410" r="2" style="fill:#ffffff" />
<polygon points="405,424 418,424 414,414 405,424 " style="fill:#ffffff" />
<line x1="149" y1="536" x2="150" y2="505" />
<circle cx="149" cy="522" r="5" style="fill:#ffffff" />
<circle cx="149" cy="515" r="2" style="fill:#ffffff" />
<line x1="354" y1="511" x2="376" y2="450" />
<circle cx="358" cy="497" r="5" style="fill:#ffffff" />
<circle cx="365" cy="478" r="5" style="fill:#ffffff" />
<circle cx="365" cy="478" r="2" style="fill:#ffffff" />
<polygon points="376,450 367,460 376,463 376,450 " style="fill:#ffffff" />
<line x1="616" y1="115" x2="600" y2="177" />
<circle cx="612" cy="128" r="5" style="fill:#ffffff" />
<circle cx="608" cy="144" r="5" style="fill:#000000" />
<circle cx="608" cy="144" r="2" style="fill:#000000" />
<polygon points="616,115 610,121 613,128 618,123 616,115 " style="fill:#000000" />
</g>
</svg>