<svg xmlns="http://www.w3.org/2000/svg" version="1.1"
  font-family="Arial, Helvetica, sans-serif" font-size="10.000000" 
  width="706" height="555">
<g  fill="#f5fff5" stroke="#000000" style="stroke-width:1">
<rect x="28" y="411" width="133" height="143" />
<line x1="28" y1="424" x2="161" y2="424" />
<polygon points="141,432 153,437 153,427 141,432 " style="fill:#ffffff" />
<polygon points="141,446 148,450 155,446 148,442 141,446 " style="fill:#ffffff" />
<polygon points="141,460 148,464 155,460 148,456 141,460 " style="fill:#000000" />
<polygon points="141,474 149,479 145,474 149,469 141,474 " style="fill:#ffffff" />
<circle cx="141" cy="488" r="5" style="fill:#ffffff" />
<circle cx="141" cy="502" r="5" style="fill:#ffffff" />
<circle cx="148" cy="502" r="2" style="fill:#ffffff" />
<circle cx="141" cy="516" r="5" style="fill:#ffffff" />
<circle cx="141" cy="516" r="2" style="fill:#ffffff" />
<circle cx="141" cy="530" r="5" style="fill:#ffffff" />
<circle cx="141" cy="530" r="2" style="fill:#000000" />
<circle cx="141" cy="544" r="5" style="fill:#000000" />
<circle cx="141" cy="544" r="2" style="fill:#000000" />
</g>
<g stroke="none">
<text x="29" y="420">Relations Key</text>
<text x="29" y="434">Generalization</text>
<text x="29" y="448">Aggregation(reference)</text>
<text x="29" y="462">Composition(owned)</text>
<text x="29" y="476">Const</text>
<text x="29" y="490">Method Variable</text>
<text x="29" y="504">Method Parameter</text>
<text x="29" y="518">Public</text>
<text x="29" y="532">Protected</text>
<text x="29" y="546">Private</text>
</g>
<g  fill="#f5fff5" stroke="#000000" style="stroke-width:1">
<rect x="30" y="26" width="230" height="242" />
<line x1="30" y1="47" x2="260" y2="47" />
<line x1="30" y1="113" x2="260" y2="113" />
</g>
<g stroke="none">
<text x="31" y="35">ComponentFinder</text>
<text x="31" y="44">oovBuilder</text>
<text x="31" y="56">-&lt;&lt;typedef&gt;&gt;string mRootPathName</text>
<text x="31" y="65">-OovStringVec mExcludeDirs</text>
<text x="31" y="74">-ScannedComponentsInfo mScannedInfo</text>
<text x="31" y="83">-ProjectReader mProject</text>
<text x="31" y="92">-ComponentTypesFile mComponentTypesFile</text>
<text x="31" y="101">-ComponentsFile mComponentsFile</text>
<text x="31" y="110">-Package mScanningPackage</text>
<text x="31" y="122">+readProject(OovStringRef oovProjectDir,</text>
<text x="38" y="131"> OovStringRef buildConfigName)</text>
<text x="31" y="140">+scanProject()</text>
<text x="31" y="149">+scanExternalProject(OovStringRef externalRoo</text>
<text x="38" y="158">tSrch, Package pkg)</text>
<text x="31" y="167">+addBuildPackage(Package pkg)</text>
<text x="31" y="176">+saveProject(OovStringRef compFn)</text>
<text x="31" y="185">+getComponentName(OovStringRef filePath)</text>
<text x="31" y="194">+getAllIncludeDirs()</text>
<text x="31" y="203">-processFile(OovStringRef filePath)</text>
<text x="31" y="212">+ComponentFinder()</text>
<text x="31" y="221">+getProject()</text>
<text x="31" y="230">+getProject()</text>
<text x="31" y="239">+getComponentTypesFile()</text>
<text x="31" y="248">+getComponentsFile()</text>
<text x="31" y="257">+getScannedInfo()</text>
<text x="31" y="266">+makeFileName(OovStringRef projName)</text>
</g>
<g  fill="#f5fff5" stroke="#000000" style="stroke-width:1">
<rect x="209" y="345" width="69" height="26" />
<line x1="209" y1="366" x2="278" y2="366" />
<line x1="209" y1="369" x2="278" y2="369" />
</g>
<g stroke="none">
<text x="210" y="354">OovStringVec</text>
<text x="210" y="363">oovCommon</text>
</g>
<g  fill="#f5fff5" stroke="#000000" style="stroke-width:1">
<rect x="455" y="27" width="250" height="170" />
<line x1="455" y1="48" x2="705" y2="48" />
<line x1="455" y1="96" x2="705" y2="96" />
</g>
<g stroke="none">
<text x="456" y="36">ScannedComponentsInfo</text>
<text x="456" y="45">oovBuilder</text>
<text x="456" y="57">-std::map&lt;OovString,ScannedComponent,</text>
<text x="463" y="66">std::less&lt;OovString&gt;,std::allocator&lt;</text>
<text x="463" y="75">std::pair&lt;OovString,ScannedComponent&gt;</text>
<text x="463" y="84"> &gt; &gt; mComponents</text>
<text x="456" y="93">-InsertOrderedSet mProjectIncludeDirs</text>
<text x="456" y="105">+addSourceFile(OovStringRef compName,</text>
<text x="463" y="114"> OovStringRef srcFileName)</text>
<text x="456" y="123">+addIncludeFile(OovStringRef compName,</text>
<text x="463" y="132"> OovStringRef srcFileName)</text>
<text x="456" y="141">+initializeComponentTypesFileValues(ComponentT</text>
<text x="463" y="150">ypesFile file)</text>
<text x="456" y="159">+setProjectComponentsFileValues(ComponentsFile</text>
<text x="463" y="168"> file)</text>
<text x="456" y="177">-addComponents(OovStringRef compName)</text>
<text x="456" y="186">+addProjectIncludePath(OovStringRef path)</text>
<text x="456" y="195">+getProjectIncludeDirs()</text>
</g>
<g  fill="#f5fff5" stroke="#000000" style="stroke-width:1">
<rect x="186" y="429" width="71" height="26" />
<line x1="186" y1="450" x2="257" y2="450" />
<line x1="186" y1="453" x2="257" y2="453" />
</g>
<g stroke="none">
<text x="187" y="438">ProjectReader</text>
<text x="187" y="447">oovCommon</text>
</g>
<g  fill="#f5fff5" stroke="#000000" style="stroke-width:1">
<rect x="320" y="306" width="104" height="26" />
<line x1="320" y1="327" x2="424" y2="327" />
<line x1="320" y1="330" x2="424" y2="330" />
</g>
<g stroke="none">
<text x="321" y="315">ComponentTypesFile</text>
<text x="321" y="324">oovCommon</text>
</g>
<g  fill="#f5fff5" stroke="#000000" style="stroke-width:1">
<rect x="335" y="225" width="80" height="26" />
<line x1="335" y1="246" x2="415" y2="246" />
<line x1="335" y1="249" x2="415" y2="249" />
</g>
<g stroke="none">
<text x="336" y="234">ComponentsFile</text>
<text x="336" y="243">oovCommon</text>
</g>
<g  fill="#f5fff5" stroke="#000000" style="stroke-width:1">
<rect x="80" y="327" width="63" height="26" />
<line x1="80" y1="348" x2="143" y2="348" />
<line x1="80" y1="351" x2="143" y2="351" />
</g>
<g stroke="none">
<text x="81" y="336">Package</text>
<text x="81" y="345">oovCommon</text>
</g>
<g  fill="#f5fff5" stroke="#000000" style="stroke-width:1">
<rect x="326" y="28" width="63" height="26" />
<line x1="326" y1="49" x2="389" y2="49" />
<line x1="326" y1="52" x2="389" y2="52" />
</g>
<g stroke="none">
<text x="327" y="37">dirRecurser</text>
<text x="327" y="46">oovCommon</text>
</g>
<g  fill="#f5fff5" stroke="#000000" style="stroke-width:1">
<rect x="484" y="262" width="219" height="35" />
<line x1="484" y1="292" x2="703" y2="292" />
<line x1="484" y1="295" x2="703" y2="295" />
</g>
<g stroke="none">
<text x="485" y="271">std::map&lt;OovString,ScannedComponent,std::</text>
<text x="485" y="280">  less&lt;OovString&gt;,std::allocator&lt;std::pair&lt;</text>
<text x="485" y="289">  OovString,ScannedComponent&gt; &gt; &gt;</text>
</g>
<g  fill="#f5fff5" stroke="#000000" style="stroke-width:1">
<rect x="312" y="415" width="119" height="44" />
<line x1="312" y1="436" x2="431" y2="436" />
<line x1="312" y1="439" x2="431" y2="439" />
</g>
<g stroke="none">
<text x="313" y="424">InsertOrderedSet</text>
<text x="313" y="433">oovBuilder</text>
<text x="313" y="448">+insert(OovStringRef str)</text>
<text x="313" y="457">+exists(OovStringRef str)</text>
</g>
<g  fill="#f5fff5" stroke="#000000" style="stroke-width:1">
<rect x="459" y="378" width="223" height="80" />
<line x1="459" y1="399" x2="682" y2="399" />
<line x1="459" y1="420" x2="682" y2="420" />
</g>
<g stroke="none">
<text x="460" y="387">ScannedComponent</text>
<text x="460" y="396">oovBuilder</text>
<text x="460" y="408">-OovStringSet mSourceFiles</text>
<text x="460" y="417">-OovStringSet mIncludeFiles</text>
<text x="460" y="429">+saveComponentSourcesToFile(OovStringRef </text>
<text x="467" y="438">compName, ComponentTypesFile file)</text>
<text x="460" y="447">+addSourceFileName(OovStringRef objPath)</text>
<text x="460" y="456">+addIncludeFileName(OovStringRef objPath)</text>
</g>
<g  fill="#f5f5ff" stroke="#000000" style="stroke-width:1">
<line x1="201" y1="268" x2="237" y2="345" />
<circle cx="206" cy="280" r="5" style="fill:#ffffff" />
<circle cx="213" cy="295" r="5" style="fill:#000000" />
<circle cx="213" cy="295" r="2" style="fill:#000000" />
<polygon points="201,268 201,276 206,280 208,273 201,268 " style="fill:#000000" />
<line x1="260" y1="138" x2="455" y2="122" />
<circle cx="273" cy="136" r="5" style="fill:#ffffff" />
<circle cx="289" cy="135" r="5" style="fill:#000000" />
<circle cx="289" cy="135" r="2" style="fill:#000000" />
<polygon points="260,138 268,141 273,137 267,133 260,138 " style="fill:#000000" />
<line x1="176" y1="268" x2="218" y2="429" />
<circle cx="179" cy="281" r="5" style="fill:#ffffff" />
<circle cx="183" cy="297" r="5" style="fill:#000000" />
<circle cx="183" cy="297" r="2" style="fill:#000000" />
<polygon points="176,268 174,276 179,281 182,274 176,268 " style="fill:#000000" />
<line x1="260" y1="234" x2="355" y2="306" />
<circle cx="271" cy="242" r="5" style="fill:#ffffff" />
<circle cx="283" cy="252" r="5" style="fill:#000000" />
<circle cx="283" cy="252" r="2" style="fill:#000000" />
<polygon points="260,234 263,242 271,242 268,235 260,234 " style="fill:#000000" />
<line x1="260" y1="192" x2="343" y2="225" />
<circle cx="273" cy="197" r="5" style="fill:#ffffff" />
<circle cx="287" cy="203" r="5" style="fill:#000000" />
<circle cx="287" cy="203" r="2" style="fill:#000000" />
<polygon points="260,192 265,199 273,197 268,191 260,192 " style="fill:#000000" />
<line x1="124" y1="268" x2="113" y2="327" />
<circle cx="121" cy="281" r="5" style="fill:#ffffff" />
<circle cx="118" cy="297" r="5" style="fill:#000000" />
<circle cx="118" cy="297" r="2" style="fill:#000000" />
<polygon points="124,268 119,274 122,281 126,276 124,268 " style="fill:#ffffff" />
<line x1="260" y1="90" x2="332" y2="54" />
<circle cx="272" cy="83" r="5" style="fill:#ffffff" />
<circle cx="305" cy="67" r="5" style="fill:#ffffff" />
<circle cx="305" cy="67" r="2" style="fill:#ffffff" />
<polygon points="332,54 319,54 323,64 332,54 " style="fill:#ffffff" />
<line x1="239" y1="268" x2="354" y2="415" />
<circle cx="247" cy="279" r="5" style="fill:#ffffff" />
<line x1="240" y1="371" x2="224" y2="429" />
<circle cx="227" cy="415" r="5" style="fill:#ffffff" />
<circle cx="231" cy="400" r="5" style="fill:#000000" />
<circle cx="231" cy="400" r="2" style="fill:#000000" />
<polygon points="224,429 230,423 227,416 222,421 224,429 " style="fill:#000000" />
<line x1="277" y1="348" x2="329" y2="332" />
<circle cx="315" cy="336" r="5" style="fill:#ffffff" />
<line x1="257" y1="345" x2="361" y2="251" />
<polygon points="361,251 352,252 359,253 359,260 361,251 " style="fill:#ffffff" />
<circle cx="350" cy="260" r="5" style="fill:#ffffff" />
<circle cx="338" cy="271" r="5" style="fill:#000000" />
<circle cx="338" cy="271" r="2" style="fill:#000000" />
<line x1="264" y1="371" x2="336" y2="415" />
<circle cx="289" cy="386" r="5" style="fill:#ffffff" />
<circle cx="289" cy="386" r="2" style="fill:#ffffff" />
<polygon points="264,371 272,382 277,373 264,371 " style="fill:#ffffff" />
<line x1="495" y1="197" x2="385" y2="306" />
<circle cx="485" cy="206" r="5" style="fill:#ffffff" />
<circle cx="473" cy="218" r="5" style="fill:#000000" />
<circle cx="473" cy="218" r="2" style="fill:#000000" />
<line x1="455" y1="188" x2="396" y2="225" />
<circle cx="443" cy="195" r="5" style="fill:#ffffff" />
<circle cx="437" cy="199" r="2" style="fill:#ffffff" />
<line x1="586" y1="197" x2="592" y2="262" />
<circle cx="587" cy="210" r="5" style="fill:#ffffff" />
<circle cx="588" cy="226" r="5" style="fill:#000000" />
<circle cx="588" cy="226" r="2" style="fill:#000000" />
<polygon points="586,197 583,205 587,210 591,204 586,197 " style="fill:#000000" />
<line x1="526" y1="197" x2="385" y2="415" />
<circle cx="518" cy="208" r="5" style="fill:#ffffff" />
<circle cx="509" cy="222" r="5" style="fill:#000000" />
<circle cx="509" cy="222" r="2" style="fill:#000000" />
<polygon points="526,197 518,201 519,208 526,205 526,197 " style="fill:#000000" />
<line x1="578" y1="197" x2="571" y2="378" />
<circle cx="577" cy="210" r="5" style="fill:#ffffff" />
<line x1="207" y1="429" x2="125" y2="353" />
<circle cx="196" cy="419" r="5" style="fill:#ffffff" />
<line x1="398" y1="332" x2="491" y2="378" />
<circle cx="478" cy="371" r="5" style="fill:#ffffff" />
<circle cx="464" cy="364" r="5" style="fill:#000000" />
<circle cx="464" cy="364" r="2" style="fill:#000000" />
<line x1="591" y1="296" x2="576" y2="378" />
</g>
</svg>