<svg xmlns="http://www.w3.org/2000/svg" version="1.1" width="734" height="555">
<g  fill="#f5fff5" stroke="#000000" style="stroke-width:1">
<rect x="28" y="411" width="133" height="143" />
<line x1="28" y1="424" x2="161" y2="424" />
<polygon points="141,432 153,437 153,427 141,432 " style="fill:#ffffff" />
<polygon points="141,446 148,450 155,446 148,442 141,446 " style="fill:#ffffff" />
<polygon points="141,460 148,464 155,460 148,456 141,460 " style="fill:#000000" />
<polygon points="141,474 149,479 145,474 149,469 141,474 " style="fill:#ffffff" />
<circle cx="141" cy="488" r="5" style="fill:#ffffff" />
<circle cx="141" cy="502" r="5" style="fill:#ffffff" />
<circle cx="148" cy="502" r="2" style="fill:#ffffff" />
<circle cx="141" cy="516" r="5" style="fill:#ffffff" />
<circle cx="141" cy="516" r="2" style="fill:#ffffff" />
<circle cx="141" cy="530" r="5" style="fill:#ffffff" />
<circle cx="141" cy="530" r="2" style="fill:#000000" />
<circle cx="141" cy="544" r="5" style="fill:#000000" />
<circle cx="141" cy="544" r="2" style="fill:#000000" />
</g>
<g font-size="10.000000" stroke="none">
<text x="29" y="420">Relations Key</text>
<text x="29" y="434">Generalization</text>
<text x="29" y="448">Aggregation(reference)</text>
<text x="29" y="462">Composition(owned)</text>
<text x="29" y="476">Const</text>
<text x="29" y="490">Method Variable</text>
<text x="29" y="504">Method Parameter</text>
<text x="29" y="518">Public</text>
<text x="29" y="532">Protected</text>
<text x="29" y="546">Private</text>
</g>
<g  fill="#f5fff5" stroke="#000000" style="stroke-width:1">
<rect x="30" y="26" width="253" height="242" />
<line x1="30" y1="47" x2="283" y2="47" />
<line x1="30" y1="113" x2="283" y2="113" />
</g>
<g font-size="10.000000" stroke="none">
<text x="31" y="35">ComponentFinder</text>
<text x="31" y="44">oovBuilder</text>
<text x="31" y="56">-&lt;&lt;typedef&gt;&gt;string mRootPathName</text>
<text x="31" y="65">-OovStringVec mExcludeDirs</text>
<text x="31" y="74">-ScannedComponentsInfo mScannedInfo</text>
<text x="31" y="83">-ProjectReader mProject</text>
<text x="31" y="92">-ComponentTypesFile mComponentTypesFile</text>
<text x="31" y="101">-ComponentsFile mComponentsFile</text>
<text x="31" y="110">-Package mScanningPackage</text>
<text x="31" y="122">+readProject(OovStringRef oovProjectDir, </text>
<text x="31" y="131">   OovStringRef buildConfigName)</text>
<text x="31" y="140">+scanProject()</text>
<text x="31" y="149">+scanExternalProject(OovStringRef externalRootSrch</text>
<text x="31" y="158">   , Package pkg)</text>
<text x="31" y="167">+addBuildPackage(Package pkg)</text>
<text x="31" y="176">+saveProject(OovStringRef compFn)</text>
<text x="31" y="185">+getComponentName(OovStringRef filePath)</text>
<text x="31" y="194">+getAllIncludeDirs()</text>
<text x="31" y="203">-processFile(OovStringRef filePath)</text>
<text x="31" y="212">+ComponentFinder()</text>
<text x="31" y="221">+getProject()</text>
<text x="31" y="230">+getProject()</text>
<text x="31" y="239">+getComponentTypesFile()</text>
<text x="31" y="248">+getComponentsFile()</text>
<text x="31" y="257">+getScannedInfo()</text>
<text x="31" y="266">+makeFileName(OovStringRef projName)</text>
</g>
<g  fill="#f5fff5" stroke="#000000" style="stroke-width:1">
<rect x="209" y="345" width="69" height="26" />
<line x1="209" y1="366" x2="278" y2="366" />
<line x1="209" y1="369" x2="278" y2="369" />
</g>
<g font-size="10.000000" stroke="none">
<text x="210" y="354">OovStringVec</text>
<text x="210" y="363">oovCommon</text>
</g>
<g  fill="#f5fff5" stroke="#000000" style="stroke-width:1">
<rect x="357" y="76" width="367" height="116" />
<line x1="357" y1="97" x2="724" y2="97" />
<line x1="357" y1="127" x2="724" y2="127" />
</g>
<g font-size="10.000000" stroke="none">
<text x="358" y="85">ScannedComponentsInfo</text>
<text x="358" y="94">oovBuilder</text>
<text x="358" y="106">-std::map&lt;OovString,ScannedComponent,std::less&lt;OovString&gt;,std::allocator&lt;</text>
<text x="358" y="115">   std::pair&lt;OovString,ScannedComponent&gt; &gt; &gt; mComponents</text>
<text x="358" y="124">-InsertOrderedSet mProjectIncludeDirs</text>
<text x="358" y="136">+addSourceFile(OovStringRef compName, OovStringRef srcFileName)</text>
<text x="358" y="145">+addIncludeFile(OovStringRef compName, OovStringRef srcFileName)</text>
<text x="358" y="154">+initializeComponentTypesFileValues(ComponentTypesFile file)</text>
<text x="358" y="163">+setProjectComponentsFileValues(ComponentsFile file)</text>
<text x="358" y="172">-addComponents(OovStringRef compName)</text>
<text x="358" y="181">+addProjectIncludePath(OovStringRef path)</text>
<text x="358" y="190">+getProjectIncludeDirs()</text>
</g>
<g  fill="#f5fff5" stroke="#000000" style="stroke-width:1">
<rect x="186" y="429" width="71" height="26" />
<line x1="186" y1="450" x2="257" y2="450" />
<line x1="186" y1="453" x2="257" y2="453" />
</g>
<g font-size="10.000000" stroke="none">
<text x="187" y="438">ProjectReader</text>
<text x="187" y="447">oovCommon</text>
</g>
<g  fill="#f5fff5" stroke="#000000" style="stroke-width:1">
<rect x="320" y="306" width="104" height="26" />
<line x1="320" y1="327" x2="424" y2="327" />
<line x1="320" y1="330" x2="424" y2="330" />
</g>
<g font-size="10.000000" stroke="none">
<text x="321" y="315">ComponentTypesFile</text>
<text x="321" y="324">oovCommon</text>
</g>
<g  fill="#f5fff5" stroke="#000000" style="stroke-width:1">
<rect x="335" y="225" width="80" height="26" />
<line x1="335" y1="246" x2="415" y2="246" />
<line x1="335" y1="249" x2="415" y2="249" />
</g>
<g font-size="10.000000" stroke="none">
<text x="336" y="234">ComponentsFile</text>
<text x="336" y="243">oovCommon</text>
</g>
<g  fill="#f5fff5" stroke="#000000" style="stroke-width:1">
<rect x="80" y="327" width="63" height="26" />
<line x1="80" y1="348" x2="143" y2="348" />
<line x1="80" y1="351" x2="143" y2="351" />
</g>
<g font-size="10.000000" stroke="none">
<text x="81" y="336">Package</text>
<text x="81" y="345">oovCommon</text>
</g>
<g  fill="#f5fff5" stroke="#000000" style="stroke-width:1">
<rect x="326" y="28" width="63" height="26" />
<line x1="326" y1="49" x2="389" y2="49" />
<line x1="326" y1="52" x2="389" y2="52" />
</g>
<g font-size="10.000000" stroke="none">
<text x="327" y="37">dirRecurser</text>
<text x="327" y="46">oovCommon</text>
</g>
<g  fill="#f5fff5" stroke="#000000" style="stroke-width:1">
<rect x="484" y="262" width="242" height="35" />
<line x1="484" y1="292" x2="726" y2="292" />
<line x1="484" y1="295" x2="726" y2="295" />
</g>
<g font-size="10.000000" stroke="none">
<text x="485" y="271">std::map&lt;OovString,ScannedComponent,std::less&lt;</text>
<text x="485" y="280">   OovString&gt;,std::allocator&lt;std::pair&lt;OovString</text>
<text x="485" y="289">   ,ScannedComponent&gt; &gt; &gt;</text>
</g>
<g  fill="#f5fff5" stroke="#000000" style="stroke-width:1">
<rect x="312" y="415" width="118" height="44" />
<line x1="312" y1="436" x2="430" y2="436" />
<line x1="312" y1="439" x2="430" y2="439" />
</g>
<g font-size="10.000000" stroke="none">
<text x="313" y="424">InsertOrderedSet</text>
<text x="313" y="433">oovBuilder</text>
<text x="313" y="448">+insert(OovStringRef str)</text>
<text x="313" y="457">+exists(OovStringRef str)</text>
</g>
<g  fill="#f5fff5" stroke="#000000" style="stroke-width:1">
<rect x="456" y="362" width="277" height="80" />
<line x1="456" y1="383" x2="733" y2="383" />
<line x1="456" y1="404" x2="733" y2="404" />
</g>
<g font-size="10.000000" stroke="none">
<text x="457" y="371">ScannedComponent</text>
<text x="457" y="380">oovBuilder</text>
<text x="457" y="392">-OovStringSet mSourceFiles</text>
<text x="457" y="401">-OovStringSet mIncludeFiles</text>
<text x="457" y="413">+saveComponentSourcesToFile(OovStringRef compName</text>
<text x="457" y="422">   , ComponentTypesFile file)</text>
<text x="457" y="431">+addSourceFileName(OovStringRef objPath)</text>
<text x="457" y="440">+addIncludeFileName(OovStringRef objPath)</text>
</g>
<g  fill="#f5f5ff" stroke="#000000" style="stroke-width:1">
<line x1="205" y1="268" x2="238" y2="345" />
<circle cx="210" cy="280" r="5" style="fill:#ffffff" />
<circle cx="216" cy="295" r="5" style="fill:#000000" />
<circle cx="216" cy="295" r="2" style="fill:#000000" />
<polygon points="205,268 204,276 210,280 212,273 205,268 " style="fill:#000000" />
<line x1="282" y1="143" x2="357" y2="140" />
<circle cx="295" cy="142" r="5" style="fill:#ffffff" />
<circle cx="311" cy="141" r="5" style="fill:#000000" />
<circle cx="311" cy="141" r="2" style="fill:#000000" />
<polygon points="282,143 289,147 295,143 289,139 282,143 " style="fill:#000000" />
<line x1="182" y1="268" x2="219" y2="429" />
<circle cx="185" cy="281" r="5" style="fill:#ffffff" />
<circle cx="188" cy="297" r="5" style="fill:#000000" />
<circle cx="188" cy="297" r="2" style="fill:#000000" />
<polygon points="182,268 180,276 185,281 188,274 182,268 " style="fill:#000000" />
<line x1="282" y1="247" x2="356" y2="306" />
<circle cx="292" cy="255" r="5" style="fill:#ffffff" />
<circle cx="305" cy="265" r="5" style="fill:#000000" />
<circle cx="305" cy="265" r="2" style="fill:#000000" />
<polygon points="282,247 285,255 292,255 290,248 282,247 " style="fill:#000000" />
<line x1="282" y1="199" x2="344" y2="225" />
<circle cx="294" cy="204" r="5" style="fill:#ffffff" />
<circle cx="309" cy="210" r="5" style="fill:#000000" />
<circle cx="309" cy="210" r="2" style="fill:#000000" />
<polygon points="282,199 287,206 294,204 290,198 282,199 " style="fill:#000000" />
<line x1="128" y1="268" x2="114" y2="327" />
<circle cx="124" cy="281" r="5" style="fill:#ffffff" />
<circle cx="121" cy="297" r="5" style="fill:#000000" />
<circle cx="121" cy="297" r="2" style="fill:#000000" />
<polygon points="128,268 122,274 125,281 130,276 128,268 " style="fill:#ffffff" />
<line x1="282" y1="81" x2="333" y2="54" />
<circle cx="294" cy="74" r="5" style="fill:#ffffff" />
<circle cx="306" cy="68" r="5" style="fill:#ffffff" />
<circle cx="306" cy="68" r="2" style="fill:#ffffff" />
<polygon points="333,54 320,55 325,64 333,54 " style="fill:#ffffff" />
<line x1="245" y1="268" x2="355" y2="415" />
<circle cx="253" cy="279" r="5" style="fill:#ffffff" />
<line x1="240" y1="371" x2="224" y2="429" />
<circle cx="227" cy="415" r="5" style="fill:#ffffff" />
<circle cx="231" cy="400" r="5" style="fill:#000000" />
<circle cx="231" cy="400" r="2" style="fill:#000000" />
<polygon points="224,429 230,423 227,416 222,421 224,429 " style="fill:#000000" />
<line x1="277" y1="348" x2="329" y2="332" />
<circle cx="315" cy="336" r="5" style="fill:#ffffff" />
<line x1="257" y1="345" x2="361" y2="251" />
<polygon points="361,251 352,252 359,253 359,260 361,251 " style="fill:#ffffff" />
<circle cx="350" cy="260" r="5" style="fill:#ffffff" />
<circle cx="338" cy="271" r="5" style="fill:#000000" />
<circle cx="338" cy="271" r="2" style="fill:#000000" />
<line x1="264" y1="371" x2="336" y2="415" />
<circle cx="289" cy="386" r="5" style="fill:#ffffff" />
<circle cx="289" cy="386" r="2" style="fill:#ffffff" />
<polygon points="264,371 272,382 277,373 264,371 " style="fill:#ffffff" />
<line x1="488" y1="192" x2="383" y2="306" />
<circle cx="478" cy="202" r="5" style="fill:#ffffff" />
<circle cx="467" cy="214" r="5" style="fill:#000000" />
<circle cx="467" cy="214" r="2" style="fill:#000000" />
<line x1="448" y1="192" x2="395" y2="225" />
<circle cx="436" cy="199" r="5" style="fill:#ffffff" />
<circle cx="430" cy="203" r="2" style="fill:#ffffff" />
<line x1="565" y1="192" x2="598" y2="262" />
<circle cx="570" cy="204" r="5" style="fill:#ffffff" />
<circle cx="577" cy="219" r="5" style="fill:#000000" />
<circle cx="577" cy="219" r="2" style="fill:#000000" />
<polygon points="565,192 565,200 570,204 572,197 565,192 " style="fill:#000000" />
<line x1="508" y1="192" x2="383" y2="415" />
<circle cx="501" cy="204" r="5" style="fill:#ffffff" />
<circle cx="493" cy="218" r="5" style="fill:#000000" />
<circle cx="493" cy="218" r="2" style="fill:#000000" />
<polygon points="508,192 501,196 502,204 508,200 508,192 " style="fill:#000000" />
<line x1="551" y1="192" x2="586" y2="362" />
<circle cx="553" cy="205" r="5" style="fill:#ffffff" />
<line x1="207" y1="429" x2="125" y2="353" />
<circle cx="196" cy="419" r="5" style="fill:#ffffff" />
<line x1="406" y1="332" x2="488" y2="362" />
<circle cx="474" cy="357" r="5" style="fill:#ffffff" />
<circle cx="459" cy="351" r="5" style="fill:#000000" />
<circle cx="459" cy="351" r="2" style="fill:#000000" />
<line x1="604" y1="296" x2="597" y2="362" />
</g>
</svg>