<svg xmlns="http://www.w3.org/2000/svg" version="1.1"
  font-family="Arial, Helvetica, sans-serif" font-size="10.000000" 
  width="706" height="555">
<g  fill="#f5fff5" stroke="#000000" style="stroke-width:1">
<rect x="28" y="411" width="133" height="143" />
<line x1="28" y1="424" x2="161" y2="424" />
<polygon points="141,432 153,437 153,427 141,432 " style="fill:#ffffff" />
<polygon points="141,446 148,450 155,446 148,442 141,446 " style="fill:#ffffff" />
<polygon points="141,460 148,464 155,460 148,456 141,460 " style="fill:#000000" />
<polygon points="141,474 149,479 145,474 149,469 141,474 " style="fill:#ffffff" />
<circle cx="141" cy="488" r="5" style="fill:#ffffff" />
<circle cx="141" cy="502" r="5" style="fill:#ffffff" />
<circle cx="148" cy="502" r="2" style="fill:#ffffff" />
<circle cx="141" cy="516" r="5" style="fill:#ffffff" />
<circle cx="141" cy="516" r="2" style="fill:#ffffff" />
<circle cx="141" cy="530" r="5" style="fill:#ffffff" />
<circle cx="141" cy="530" r="2" style="fill:#000000" />
<circle cx="141" cy="544" r="5" style="fill:#000000" />
<circle cx="141" cy="544" r="2" style="fill:#000000" />
</g>
<g stroke="none">
<text x="29" y="420">Relations Key</text>
<text x="29" y="434">Generalization</text>
<text x="29" y="448">Aggregation(reference)</text>
<text x="29" y="462">Composition(owned)</text>
<text x="29" y="476">Const</text>
<text x="29" y="490">Method Variable</text>
<text x="29" y="504">Method Parameter</text>
<text x="29" y="518">Public</text>
<text x="29" y="532">Protected</text>
<text x="29" y="546">Private</text>
</g>
<g  fill="#f5fff5" stroke="#000000" style="stroke-width:1">
<rect x="30" y="26" width="254" height="296" />
<line x1="30" y1="47" x2="284" y2="47" />
<line x1="30" y1="140" x2="284" y2="140" />
</g>
<g stroke="none">
<text x="31" y="35">ComponentFinder</text>
<text x="31" y="44">oovBuilder</text>
<text x="31" y="56">-string&lt;&lt;typedef&gt;&gt; mRootPathName</text>
<text x="31" y="65">-OovStringVec mExcludeDirs</text>
<text x="31" y="74">-ScannedComponentsInfo mScannedInfo</text>
<text x="31" y="83">-ProjectReader mProject</text>
<text x="31" y="92">-ProjectBuildArgs mProjectBuildArgs</text>
<text x="31" y="101">-ComponentTypesFile mComponentTypesFile</text>
<text x="31" y="110">-ComponentsFile mComponentsFile</text>
<text x="31" y="119">-Package mScanningPackage</text>
<text x="31" y="128">-bool mAddIncs</text>
<text x="31" y="137">-bool mAddLibs</text>
<text x="31" y="149">+readProject(OovStringRef oovProjectDir, </text>
<text x="38" y="158">OovStringRef buildConfigName)</text>
<text x="31" y="167">+scanProject()</text>
<text x="31" y="176">+scanExternalProject(OovStringRef externalRootSrch</text>
<text x="38" y="185">, Package pkg)</text>
<text x="31" y="194">+addBuildPackage(Package pkg)</text>
<text x="31" y="203">+saveProject(OovStringRef compFn)</text>
<text x="31" y="212">+getComponentName(OovStringRef filePath)</text>
<text x="31" y="221">+getAllIncludeDirs()</text>
<text x="31" y="239">+ComponentFinder()</text>
<text x="31" y="248">+doesBuildPackageExist(OovStringRef pkgName)</text>
<text x="31" y="257">+getProject()</text>
<text x="31" y="266">+getProject()</text>
<text x="31" y="275">+getProjectBuildArgs()</text>
<text x="31" y="284">+getProjectBuildArgs()</text>
<text x="31" y="293">+getComponentTypesFile()</text>
<text x="31" y="302">+getComponentsFile()</text>
<text x="31" y="311">+getScannedInfo()</text>
<text x="31" y="320">+makeFileName(OovStringRef projName)</text>
</g>
<g stroke="none" font-style="italic">
<text x="31" y="230">-processFile(OovStringRef filePath)</text>
</g>
<g  fill="#f5fff5" stroke="#000000" style="stroke-width:1">
<rect x="224" y="363" width="69" height="26" />
<line x1="224" y1="384" x2="293" y2="384" />
<line x1="224" y1="387" x2="293" y2="387" />
</g>
<g stroke="none">
<text x="225" y="372">OovStringVec</text>
<text x="225" y="381">oovCommon</text>
</g>
<g stroke="none" font-style="italic">
</g>
<g  fill="#f5fff5" stroke="#000000" style="stroke-width:1">
<rect x="455" y="27" width="250" height="170" />
<line x1="455" y1="48" x2="705" y2="48" />
<line x1="455" y1="96" x2="705" y2="96" />
</g>
<g stroke="none">
<text x="456" y="36">ScannedComponentsInfo</text>
<text x="456" y="45">oovBuilder</text>
<text x="456" y="57">-std::map&lt;OovString,ScannedComponent,</text>
<text x="463" y="66">std::less&lt;OovString&gt;,std::allocator&lt;</text>
<text x="463" y="75">std::pair&lt;OovString,ScannedComponent&gt;</text>
<text x="463" y="84"> &gt; &gt; mComponents</text>
<text x="456" y="93">-InsertOrderedSet mProjectIncludeDirs</text>
<text x="456" y="105">+addSourceFile(OovStringRef compName,</text>
<text x="463" y="114"> OovStringRef srcFileName)</text>
<text x="456" y="123">+addIncludeFile(OovStringRef compName,</text>
<text x="463" y="132"> OovStringRef srcFileName)</text>
<text x="456" y="141">+initializeComponentTypesFileValues(ComponentT</text>
<text x="463" y="150">ypesFile file)</text>
<text x="456" y="159">+setProjectComponentsFileValues(ComponentsFile</text>
<text x="463" y="168"> file)</text>
<text x="456" y="177">-addComponents(OovStringRef compName)</text>
<text x="456" y="186">+addProjectIncludePath(OovStringRef path)</text>
<text x="456" y="195">+getProjectIncludeDirs()</text>
</g>
<g stroke="none" font-style="italic">
</g>
<g  fill="#f5fff5" stroke="#000000" style="stroke-width:1">
<rect x="186" y="433" width="71" height="26" />
<line x1="186" y1="454" x2="257" y2="454" />
<line x1="186" y1="457" x2="257" y2="457" />
</g>
<g stroke="none">
<text x="187" y="442">ProjectReader</text>
<text x="187" y="451">oovCommon</text>
</g>
<g stroke="none" font-style="italic">
</g>
<g  fill="#f5fff5" stroke="#000000" style="stroke-width:1">
<rect x="327" y="308" width="104" height="26" />
<line x1="327" y1="329" x2="431" y2="329" />
<line x1="327" y1="332" x2="431" y2="332" />
</g>
<g stroke="none">
<text x="328" y="317">ComponentTypesFile</text>
<text x="328" y="326">oovCommon</text>
</g>
<g stroke="none" font-style="italic">
</g>
<g  fill="#f5fff5" stroke="#000000" style="stroke-width:1">
<rect x="335" y="225" width="80" height="26" />
<line x1="335" y1="246" x2="415" y2="246" />
<line x1="335" y1="249" x2="415" y2="249" />
</g>
<g stroke="none">
<text x="336" y="234">ComponentsFile</text>
<text x="336" y="243">oovCommon</text>
</g>
<g stroke="none" font-style="italic">
</g>
<g  fill="#f5fff5" stroke="#000000" style="stroke-width:1">
<rect x="32" y="361" width="63" height="26" />
<line x1="32" y1="382" x2="95" y2="382" />
<line x1="32" y1="385" x2="95" y2="385" />
</g>
<g stroke="none">
<text x="33" y="370">Package</text>
<text x="33" y="379">oovCommon</text>
</g>
<g stroke="none" font-style="italic">
</g>
<g  fill="#f5fff5" stroke="#000000" style="stroke-width:1">
<rect x="326" y="28" width="63" height="26" />
<line x1="326" y1="49" x2="389" y2="49" />
<line x1="326" y1="52" x2="389" y2="52" />
</g>
<g stroke="none">
<text x="327" y="37">dirRecurser</text>
<text x="327" y="46">oovCommon</text>
</g>
<g stroke="none" font-style="italic">
</g>
<g  fill="#f5fff5" stroke="#000000" style="stroke-width:1">
<rect x="484" y="273" width="219" height="35" />
<line x1="484" y1="303" x2="703" y2="303" />
<line x1="484" y1="306" x2="703" y2="306" />
</g>
<g stroke="none">
<text x="485" y="282">std::map&lt;OovString,ScannedComponent,std::</text>
<text x="485" y="291">  less&lt;OovString&gt;,std::allocator&lt;std::pair&lt;</text>
<text x="485" y="300">  OovString,ScannedComponent&gt; &gt; &gt;</text>
</g>
<g stroke="none" font-style="italic">
</g>
<g  fill="#f5fff5" stroke="#000000" style="stroke-width:1">
<rect x="312" y="415" width="119" height="44" />
<line x1="312" y1="436" x2="431" y2="436" />
<line x1="312" y1="439" x2="431" y2="439" />
</g>
<g stroke="none">
<text x="313" y="424">InsertOrderedSet</text>
<text x="313" y="433">oovBuilder</text>
<text x="313" y="448">+insert(OovStringRef str)</text>
<text x="313" y="457">+exists(OovStringRef str)</text>
</g>
<g stroke="none" font-style="italic">
</g>
<g  fill="#f5fff5" stroke="#000000" style="stroke-width:1">
<rect x="459" y="378" width="223" height="80" />
<line x1="459" y1="399" x2="682" y2="399" />
<line x1="459" y1="420" x2="682" y2="420" />
</g>
<g stroke="none">
<text x="460" y="387">ScannedComponent</text>
<text x="460" y="396">oovBuilder</text>
<text x="460" y="408">-OovStringSet mSourceFiles</text>
<text x="460" y="417">-OovStringSet mIncludeFiles</text>
<text x="460" y="429">+saveComponentSourcesToFile(OovStringRef </text>
<text x="467" y="438">compName, ComponentTypesFile file)</text>
<text x="460" y="447">+addSourceFileName(OovStringRef objPath)</text>
<text x="460" y="456">+addIncludeFileName(OovStringRef objPath)</text>
</g>
<g stroke="none" font-style="italic">
</g>
<g  fill="#f5f5ff" stroke="#000000" style="stroke-width:1">
<line x1="231" y1="322" x2="252" y2="363" />
<circle cx="237" cy="334" r="5" style="fill:#ffffff" />
<circle cx="244" cy="348" r="5" style="fill:#000000" />
<circle cx="244" cy="348" r="2" style="fill:#000000" />
<polygon points="231,322 231,330 237,334 238,326 231,322 " style="fill:#000000" />
<line x1="284" y1="156" x2="455" y2="130" />
<circle cx="297" cy="153" r="5" style="fill:#ffffff" />
<circle cx="313" cy="151" r="5" style="fill:#000000" />
<circle cx="313" cy="151" r="2" style="fill:#000000" />
<polygon points="284,156 292,159 297,154 291,151 284,156 " style="fill:#000000" />
<line x1="191" y1="322" x2="218" y2="433" />
<circle cx="194" cy="335" r="5" style="fill:#ffffff" />
<circle cx="198" cy="351" r="5" style="fill:#000000" />
<circle cx="198" cy="351" r="2" style="fill:#000000" />
<polygon points="191,322 189,330 194,335 197,328 191,322 " style="fill:#000000" />
<line x1="284" y1="258" x2="360" y2="308" />
<circle cx="295" cy="265" r="5" style="fill:#ffffff" />
<circle cx="309" cy="274" r="5" style="fill:#000000" />
<circle cx="309" cy="274" r="2" style="fill:#000000" />
<polygon points="284,258 288,266 295,265 292,258 284,258 " style="fill:#000000" />
<line x1="284" y1="211" x2="335" y2="227" />
<circle cx="297" cy="215" r="5" style="fill:#ffffff" />
<circle cx="312" cy="219" r="5" style="fill:#000000" />
<circle cx="312" cy="219" r="2" style="fill:#000000" />
<polygon points="284,211 290,217 297,215 292,210 284,211 " style="fill:#000000" />
<line x1="88" y1="322" x2="69" y2="361" />
<circle cx="81" cy="334" r="5" style="fill:#ffffff" />
<circle cx="78" cy="340" r="2" style="fill:#ffffff" />
<circle cx="74" cy="348" r="5" style="fill:#000000" />
<circle cx="74" cy="348" r="2" style="fill:#000000" />
<polygon points="88,322 81,327 82,334 88,330 88,322 " style="fill:#ffffff" />
<line x1="284" y1="90" x2="338" y2="54" />
<circle cx="295" cy="82" r="5" style="fill:#ffffff" />
<circle cx="313" cy="70" r="5" style="fill:#ffffff" />
<circle cx="313" cy="70" r="2" style="fill:#ffffff" />
<polygon points="338,54 325,56 331,65 338,54 " style="fill:#ffffff" />
<line x1="277" y1="322" x2="354" y2="415" />
<circle cx="285" cy="332" r="5" style="fill:#ffffff" />
<line x1="286" y1="363" x2="351" y2="334" />
<circle cx="338" cy="339" r="5" style="fill:#ffffff" />
<line x1="269" y1="363" x2="364" y2="251" />
<polygon points="364,251 355,253 362,254 364,260 364,251 " style="fill:#ffffff" />
<circle cx="354" cy="261" r="5" style="fill:#ffffff" />
<circle cx="350" cy="267" r="2" style="fill:#ffffff" />
<line x1="282" y1="389" x2="331" y2="415" />
<circle cx="308" cy="403" r="5" style="fill:#ffffff" />
<circle cx="308" cy="403" r="2" style="fill:#ffffff" />
<polygon points="282,389 290,399 295,390 282,389 " style="fill:#ffffff" />
<line x1="499" y1="197" x2="391" y2="308" />
<circle cx="489" cy="207" r="5" style="fill:#ffffff" />
<circle cx="484" cy="212" r="2" style="fill:#ffffff" />
<line x1="455" y1="188" x2="396" y2="225" />
<circle cx="443" cy="195" r="5" style="fill:#ffffff" />
<circle cx="437" cy="199" r="2" style="fill:#ffffff" />
<line x1="586" y1="197" x2="592" y2="273" />
<circle cx="587" cy="210" r="5" style="fill:#ffffff" />
<circle cx="588" cy="226" r="5" style="fill:#000000" />
<circle cx="588" cy="226" r="2" style="fill:#000000" />
<polygon points="586,197 583,205 587,210 591,204 586,197 " style="fill:#000000" />
<line x1="526" y1="197" x2="385" y2="415" />
<circle cx="518" cy="208" r="5" style="fill:#ffffff" />
<circle cx="509" cy="222" r="5" style="fill:#000000" />
<circle cx="509" cy="222" r="2" style="fill:#000000" />
<polygon points="526,197 518,201 519,208 526,205 526,197 " style="fill:#000000" />
<line x1="578" y1="197" x2="571" y2="378" />
<circle cx="577" cy="210" r="5" style="fill:#ffffff" />
<line x1="404" y1="334" x2="492" y2="378" />
<circle cx="479" cy="371" r="5" style="fill:#ffffff" />
<circle cx="473" cy="368" r="2" style="fill:#ffffff" />
<line x1="590" y1="307" x2="577" y2="378" style="stroke-dasharray: 4, 4 "/>
<line x1="590" y1="307" x2="577" y2="378" style="stroke-dasharray: 4, 4 "/>
<line x1="577" y1="378" x2="584" y2="367" />
<line x1="577" y1="378" x2="575" y2="365" />
</g>
</svg>