<svg xmlns="http://www.w3.org/2000/svg" version="1.1" width="603" height="539">
<g  fill="#f5f5ff" stroke="rgb(0,0,0)" style="stroke-width:1">
<rect x="17" y="18" width="316" height="215" />
<line x1="17" y1="39" x2="333" y2="39" />
<line x1="17" y1="105" x2="333" y2="105" />
</g>
<g font-size="10">
<text x="18" y="27">CppParser</text>
<text x="18" y="36">/oovCppParser/</text>
<text x="18" y="48">-ModelData mModelData</text>
<text x="18" y="57">-ModelClassifier mClassifier</text>
<text x="18" y="66">-ModelOperation mOperation</text>
<text x="18" y="75">-ModelCondStatements mCondStatements</text>
<text x="18" y="84">-char mTopParseFn</text>
<text x="18" y="93">-Visibility mClassMemberAccess</text>
<text x="18" y="102">-IncDirDependencyMap mIncDirDeps</text>
<text x="18" y="114">+CppParser()</text>
<text x="18" y="123">+parse(char srcFn, char srcRootDir, char outDir, char[] clang_args,</text>
<text x="18" y="132">    int num_clang_args)</text>
<text x="18" y="141">+visitTranslationUnit(CXCursor cursor, CXCursor parent)</text>
<text x="18" y="150">+visitTranslationUnitForIncludes(CXCursor cursor, CXCursor parent)</text>
<text x="18" y="159">+visitRecord(CXCursor cursor, CXCursor parent)</text>
<text x="18" y="168">+visitFunctionAddArgs(CXCursor cursor, CXCursor parent)</text>
<text x="18" y="177">+visitFunctionAddVars(CXCursor cursor, CXCursor parent)</text>
<text x="18" y="186">+visitFunctionAddStatements(CXCursor cursor, CXCursor parent)</text>
<text x="18" y="195">-createOrGetBaseTypeRef(CXCursor cursor, RefType rt)</text>
<text x="18" y="204">-createOrGetClassRef(char name)</text>
<text x="18" y="213">-createOrGetDataTypeRef(CXCursor cursor)</text>
<text x="18" y="222">-addOperationParts(CXCursor cursor, bool addParams)</text>
<text x="18" y="231">-addRecord(CXCursor cursor, Visibility vis)</text>
</g>
<g  fill="#f5f5ff" stroke="rgb(0,0,0)" style="stroke-width:1">
<rect x="279" y="316" width="71" height="26" />
<line x1="279" y1="337" x2="350" y2="337" />
<line x1="279" y1="340" x2="350" y2="340" />
</g>
<g font-size="10">
<text x="280" y="325">ModelData</text>
<text x="280" y="334">/oovCommon/</text>
</g>
<g  fill="#f5f5ff" stroke="rgb(0,0,0)" style="stroke-width:1">
<rect x="274" y="444" width="76" height="26" />
<line x1="274" y1="465" x2="350" y2="465" />
<line x1="274" y1="468" x2="350" y2="468" />
</g>
<g font-size="10">
<text x="275" y="453">ModelClassifier</text>
<text x="275" y="462">/oovCommon/</text>
</g>
<g  fill="#f5f5ff" stroke="rgb(0,0,0)" style="stroke-width:1">
<rect x="77" y="512" width="80" height="26" />
<line x1="77" y1="533" x2="157" y2="533" />
<line x1="77" y1="536" x2="157" y2="536" />
</g>
<g font-size="10">
<text x="78" y="521">ModelOperation</text>
<text x="78" y="530">/oovCommon/</text>
</g>
<g  fill="#f5f5ff" stroke="rgb(0,0,0)" style="stroke-width:1">
<rect x="19" y="363" width="112" height="26" />
<line x1="19" y1="384" x2="131" y2="384" />
<line x1="19" y1="387" x2="131" y2="387" />
</g>
<g font-size="10">
<text x="20" y="372">ModelCondStatements</text>
<text x="20" y="381">/oovCommon/</text>
</g>
<g  fill="#f5f5ff" stroke="rgb(0,0,0)" style="stroke-width:1">
<rect x="136" y="410" width="71" height="26" />
<line x1="136" y1="431" x2="207" y2="431" />
<line x1="136" y1="434" x2="207" y2="434" />
</g>
<g font-size="10">
<text x="137" y="419">Visibility</text>
<text x="137" y="428">/oovCommon/</text>
</g>
<g  fill="#f5f5ff" stroke="rgb(0,0,0)" style="stroke-width:1">
<rect x="390" y="156" width="110" height="26" />
<line x1="390" y1="177" x2="500" y2="177" />
<line x1="390" y1="180" x2="500" y2="180" />
</g>
<g font-size="10">
<text x="391" y="165">IncDirDependencyMap</text>
<text x="391" y="174">/oovCppParser/</text>
</g>
<g  fill="#f5f5ff" stroke="rgb(0,0,0)" style="stroke-width:1">
<rect x="384" y="271" width="76" height="53" />
<line x1="384" y1="292" x2="460" y2="292" />
<line x1="384" y1="313" x2="460" y2="313" />
</g>
<g font-size="10">
<text x="385" y="280">RefType</text>
<text x="385" y="289">/oovCppParser/</text>
<text x="385" y="301">+bool isConst</text>
<text x="385" y="310">+bool isRef</text>
<text x="385" y="322">+RefType()</text>
</g>
<g  fill="#f5f5ff" stroke="rgb(0,0,0)" style="stroke-width:1">
<rect x="191" y="356" width="71" height="26" />
<line x1="191" y1="377" x2="262" y2="377" />
<line x1="191" y1="380" x2="262" y2="380" />
</g>
<g font-size="10">
<text x="192" y="365">ModelModule</text>
<text x="192" y="374">/oovCommon/</text>
</g>
<g  fill="#f5f5ff" stroke="rgb(0,0,0)" style="stroke-width:1">
<rect x="364" y="402" width="238" height="116" />
<line x1="364" y1="423" x2="602" y2="423" />
<line x1="364" y1="444" x2="602" y2="444" />
</g>
<g font-size="10">
<text x="365" y="411">ModelWriter</text>
<text x="365" y="420">/oovCppParser/</text>
<text x="365" y="432">-FILE mFp</text>
<text x="365" y="441">-ModelData mModelData</text>
<text x="365" y="453">+ModelWriter(ModelData modelData)</text>
<text x="365" y="462">+writeFile(char filename)</text>
<text x="365" y="471">+~ModelWriter()</text>
<text x="365" y="480">-openFile(char filename)</text>
<text x="365" y="489">-getObjectModelId(string name)</text>
<text x="365" y="498">-writeType(ModelType type)</text>
<text x="365" y="507">-writeStatements(ModelStatement stmts, int level)</text>
<text x="365" y="516">-writeAssociation(ModelAssociation assoc)</text>
</g>
<g  fill="#f5f5ff" stroke="rgb(0,0,0)" style="stroke-width:1">
<rect x="399" y="25" width="158" height="35" />
<line x1="399" y1="46" x2="557" y2="46" />
<line x1="399" y1="49" x2="557" y2="49" />
</g>
<g font-size="10">
<text x="400" y="34">CXStringDisposer</text>
<text x="400" y="43">/oovCppParser/</text>
<text x="400" y="58">+CXStringDisposer(CXString xstr)</text>
</g>
<g  fill="#f5f5ff" stroke="rgb(0,0,0)" style="stroke-width:1">
<rect x="408" y="215" width="71" height="26" />
<line x1="408" y1="236" x2="479" y2="236" />
<line x1="408" y1="239" x2="479" y2="239" />
</g>
<g font-size="10">
<text x="409" y="224">FilePath</text>
<text x="409" y="233">/oovCommon/</text>
</g>
<g  fill="#f5f5ff" stroke="rgb(0,0,0)" style="stroke-width:1">
<rect x="515" y="110" width="71" height="26" />
<line x1="515" y1="131" x2="586" y2="131" />
<line x1="515" y1="134" x2="586" y2="134" />
</g>
<g font-size="10">
<text x="516" y="119">OovString</text>
<text x="516" y="128">/oovCommon/</text>
</g>
<g  fill="#f5f5ff" stroke="rgb(0,0,0)" style="stroke-width:1">
<line x1="247" y1="232" x2="306" y2="316" />
<polygon points="247,232 247,240 257,246 255,235 247,232 " style="fill:#000000" />
<circle cx="264" cy="256" r="5" style="fill:#000000" />
<circle cx="264" cy="256" r="2" style="fill:#000000" />
<line x1="219" y1="232" x2="307" y2="444" />
<polygon points="219,232 218,240 225,248 226,237 219,232 " style="fill:#ffffff" />
<circle cx="230" cy="259" r="5" style="fill:#000000" />
<circle cx="230" cy="259" r="2" style="fill:#000000" />
<line x1="160" y1="232" x2="118" y2="512" />
<polygon points="160,232 155,239 158,249 163,240 160,232 " style="fill:#ffffff" />
<circle cx="155" cy="261" r="5" style="fill:#000000" />
<circle cx="155" cy="261" r="2" style="fill:#000000" />
<line x1="133" y1="232" x2="80" y2="363" />
<polygon points="133,232 126,237 127,248 134,240 133,232 " style="fill:#ffffff" />
<circle cx="121" cy="259" r="5" style="fill:#000000" />
<circle cx="121" cy="259" r="2" style="fill:#000000" />
<line x1="174" y1="232" x2="171" y2="410" />
<polygon points="174,232 170,239 174,249 178,239 174,232 " style="fill:#000000" />
<circle cx="173" cy="250" r="5" style="fill:#ffffff" />
<circle cx="173" cy="261" r="5" style="fill:#000000" />
<circle cx="173" cy="261" r="2" style="fill:#000000" />
<line x1="333" y1="150" x2="390" y2="161" />
<polygon points="333,150 339,155 350,153 341,148 333,150 " style="fill:#000000" />
<circle cx="362" cy="155" r="5" style="fill:#000000" />
<circle cx="362" cy="155" r="2" style="fill:#000000" />
<line x1="328" y1="232" x2="385" y2="271" />
<circle cx="343" cy="242" r="5" style="fill:#ffffff" />
<circle cx="352" cy="248" r="5" style="fill:#000000" />
<circle cx="352" cy="248" r="2" style="fill:#000000" />
<line x1="197" y1="232" x2="224" y2="356" />
<circle cx="199" cy="245" r="5" style="fill:#ffffff" />
<line x1="273" y1="232" x2="430" y2="402" />
<circle cx="282" cy="242" r="5" style="fill:#ffffff" />
<line x1="333" y1="82" x2="416" y2="59" />
<circle cx="346" cy="78" r="5" style="fill:#ffffff" />
<line x1="333" y1="185" x2="410" y2="215" />
<circle cx="346" cy="190" r="5" style="fill:#ffffff" />
<line x1="333" y1="125" x2="515" y2="123" />
<circle cx="346" cy="124" r="5" style="fill:#ffffff" />
<line x1="314" y1="342" x2="312" y2="444" />
<circle cx="313" cy="360" r="5" style="fill:#ffffff" />
<circle cx="313" cy="366" r="2" style="fill:#ffffff" />
<line x1="330" y1="342" x2="409" y2="402" />
<polygon points="409,402 406,394 395,392 401,401 409,402 " style="fill:#ffffff" />
<polygon points="397,393 393,382 394,390 386,392 397,393 " style="fill:#ffffff" />
<circle cx="393" cy="390" r="5" style="fill:#ffffff" />
<circle cx="385" cy="383" r="5" style="fill:#000000" />
<circle cx="385" cy="383" r="2" style="fill:#000000" />
<line x1="275" y1="470" x2="154" y2="512" />
<circle cx="257" cy="476" r="5" style="fill:#ffffff" />
<circle cx="251" cy="478" r="2" style="fill:#ffffff" />
<line x1="274" y1="448" x2="206" y2="431" />
<circle cx="255" cy="443" r="5" style="fill:#ffffff" />
<circle cx="249" cy="441" r="2" style="fill:#ffffff" />
<line x1="300" y1="444" x2="238" y2="382" />
<polygon points="300,444 298,436 288,432 292,442 300,444 " style="fill:#ffffff" />
<polygon points="289,433 287,422 286,430 278,431 289,433 " style="fill:#ffffff" />
<circle cx="286" cy="430" r="5" style="fill:#ffffff" />
<circle cx="278" cy="422" r="5" style="fill:#000000" />
<circle cx="278" cy="422" r="2" style="fill:#000000" />
<line x1="114" y1="512" x2="78" y2="389" />
<polygon points="114,512 116,504 109,495 108,506 114,512 " style="fill:#000000" />
<circle cx="105" cy="483" r="5" style="fill:#000000" />
<circle cx="105" cy="483" r="2" style="fill:#000000" />
<line x1="123" y1="512" x2="165" y2="436" />
<polygon points="123,512 130,508 131,497 123,504 123,512 " style="fill:#000000" />
<circle cx="132" cy="495" r="5" style="fill:#ffffff" />
<circle cx="137" cy="485" r="5" style="fill:#000000" />
<circle cx="137" cy="485" r="2" style="fill:#000000" />
<line x1="126" y1="512" x2="217" y2="382" />
<polygon points="126,512 134,509 136,498 126,504 126,512 " style="fill:#ffffff" />
<polygon points="135,499 145,495 137,496 135,488 135,499 " style="fill:#ffffff" />
<circle cx="136" cy="496" r="5" style="fill:#ffffff" />
<circle cx="143" cy="487" r="5" style="fill:#000000" />
<circle cx="143" cy="487" r="2" style="fill:#000000" />
<line x1="445" y1="182" x2="443" y2="215" />
<polygon points="445,197 438,206 444,201 449,207 445,197 " style="fill:#ffffff" />
<circle cx="443" cy="200" r="5" style="fill:#ffffff" />
<circle cx="443" cy="211" r="5" style="fill:#000000" />
<circle cx="443" cy="211" r="2" style="fill:#000000" />
<line x1="474" y1="156" x2="521" y2="136" />
<circle cx="486" cy="150" r="5" style="fill:#ffffff" />
<line x1="494" y1="402" x2="548" y2="136" />
<circle cx="496" cy="388" r="5" style="fill:#ffffff" />
</g>
</svg>