<svg xmlns="http://www.w3.org/2000/svg" version="1.1"
 font-family="Arial, Helvetica, sans-serif" font-size="10.00" width="768" height="856" viewbox="0 0 768 856">
<g  fill="#f5fff5" stroke="#000000" style="stroke-width:1">
<rect x="638" y="702" width="129" height="143" />
<line x1="638" y1="715" x2="767" y2="715" />
<polygon points="751,723 763,728 763,718 751,723 " style="fill:#ffffff" />
<polygon points="751,737 758,741 765,737 758,733 751,737 " style="fill:#ffffff" />
<polygon points="751,751 758,755 765,751 758,747 751,751 " style="fill:#000000" />
<polygon points="751,765 759,770 755,765 759,760 751,765 " style="fill:#ffffff" />
<circle cx="751" cy="779" r="5" style="fill:#ffffff" />
<circle cx="751" cy="793" r="5" style="fill:#ffffff" />
<circle cx="758" cy="793" r="2" style="fill:#ffffff" />
<circle cx="751" cy="807" r="5" style="fill:#ffffff" />
<circle cx="751" cy="807" r="2" style="fill:#ffffff" />
<circle cx="751" cy="821" r="5" style="fill:#ffffff" />
<circle cx="751" cy="821" r="2" style="fill:#000000" />
<circle cx="751" cy="835" r="5" style="fill:#000000" />
<circle cx="751" cy="835" r="2" style="fill:#000000" />
</g>
<g stroke="none">
<text x="639" y="711">Relations Key</text>
<text x="639" y="725">Generalization</text>
<text x="639" y="739">Aggregation(reference)</text>
<text x="639" y="753">Composition(owned)</text>
<text x="639" y="767">Const</text>
<text x="639" y="781">Method Variable</text>
<text x="639" y="795">Method Parameter</text>
<text x="639" y="809">Public</text>
<text x="639" y="823">Protected</text>
<text x="639" y="837">Private</text>
</g>
<g  fill="#f5fff5" stroke="#000000" style="stroke-width:1">
<rect x="18" y="31" width="395" height="323" />
<line x1="18" y1="52" x2="413" y2="52" />
<line x1="18" y1="136" x2="413" y2="136" />
</g>
<g stroke="none">
<text x="19" y="40">CppParser</text>
<text x="19" y="49">oovCppParser</text>
<text x="19" y="61">-ParserModelData mParserModelData</text>
<text x="19" y="70">-DupHashFile mDupHashFile</text>
<text x="19" y="79">-ModelClassifier mClassifier</text>
<text x="19" y="88">-ModelOperation mOperation</text>
<text x="19" y="97">-ModelStatements mStatements</text>
<text x="19" y="106">-SwitchContexts mSwitchContexts</text>
<text x="19" y="115">-FilePath mTopParseFn</text>
<text x="19" y="124">-Visibility mClassMemberAccess</text>
<text x="19" y="133">-IncDirDependencyMap mIncDirDeps</text>
<text x="19" y="145">+parse(bool lineHashes, char srcFn, char srcRootDir, char outDir, </text>
<text x="26" y="154">char[] clang_args, num_clang_args)</text>
<text x="19" y="163">+visitTranslationUnit(CXCursor&lt;&lt;typedef&gt;&gt; cursor, CXCursor&lt;&lt;typedef&gt;</text>
<text x="26" y="172">&gt; parent)</text>
<text x="19" y="181">+visitTranslationUnitForIncludes(CXCursor&lt;&lt;typedef&gt;&gt; cursor, CXCursor&lt;</text>
<text x="26" y="190">&lt;typedef&gt;&gt; parent)</text>
<text x="19" y="199">+visitRecord(CXCursor&lt;&lt;typedef&gt;&gt; cursor, CXCursor&lt;&lt;typedef&gt;&gt; parent)</text>
<text x="19" y="208">+visitFunctionAddArgs(CXCursor&lt;&lt;typedef&gt;&gt; cursor, CXCursor&lt;&lt;typedef&gt;</text>
<text x="26" y="217">&gt; parent)</text>
<text x="19" y="226">+visitFunctionAddStatements(CXCursor&lt;&lt;typedef&gt;&gt; cursor, CXCursor&lt;&lt;</text>
<text x="26" y="235">typedef&gt;&gt; parent)</text>
<text x="19" y="244">+visitFunctionAddDupHashes(CXCursor&lt;&lt;typedef&gt;&gt; cursor, CXCursor&lt;&lt;typedef&gt;</text>
<text x="26" y="253">&gt; parent)</text>
<text x="19" y="262">-addOperationParts(CXCursor&lt;&lt;typedef&gt;&gt; cursor, bool addParams)</text>
<text x="19" y="271">-addRecord(CXCursor&lt;&lt;typedef&gt;&gt; cursor, Visibility vis)</text>
<text x="19" y="280">-addClassFileLoc(CXCursor&lt;&lt;typedef&gt;&gt; cursor, ModelClassifier classifier)</text>
<text x="19" y="289">-addTypedef(CXCursor&lt;&lt;typedef&gt;&gt; cursor)</text>
<text x="19" y="298">-buildCondExpr(CXCursor&lt;&lt;typedef&gt;&gt; condStmtCursor, condExprIndex)</text>
<text x="19" y="307">-addCondStatement(CXCursor&lt;&lt;typedef&gt;&gt; stmtCursor, condExprIndex, condStatem</text>
<text x="26" y="316">entIndex)</text>
<text x="19" y="325">-addElseStatement(CXCursor&lt;&lt;typedef&gt;&gt; condStmtCursor, elseBodyIndex)</text>
<text x="19" y="334">-handleCallExprCursor(CXCursor&lt;&lt;typedef&gt;&gt; cursor, CXCursor&lt;&lt;typedef&gt;</text>
<text x="26" y="343">&gt; parent)</text>
<text x="19" y="352">+CppParser()</text>
</g>
<g stroke="none" font-style="italic">
</g>
<g  fill="#f5fff5" stroke="#000000" style="stroke-width:1">
<rect x="18" y="658" width="230" height="197" />
<line x1="18" y1="679" x2="248" y2="679" />
<line x1="18" y1="691" x2="248" y2="691" />
</g>
<g stroke="none">
<text x="19" y="667">ParserModelData</text>
<text x="19" y="676">oovCppParser</text>
<text x="19" y="688">-ModelData mModelData</text>
<text x="19" y="700">+addParsedModule(OovStringRef fileName)</text>
<text x="19" y="709">+getParsedModule()</text>
<text x="19" y="718">+createOrGetClassRef(OovStringRef name)</text>
<text x="19" y="727">+createOrGetBaseTypeRef(CXCursor&lt;&lt;typedef&gt;</text>
<text x="26" y="736">&gt; cursor, RefType rt)</text>
<text x="19" y="745">+createOrGetDataTypeRef(CXType&lt;&lt;typedef&gt;</text>
<text x="26" y="754">&gt; type, RefType rt)</text>
<text x="19" y="763">+createOrGetDataTypeRef(CXCursor&lt;&lt;typedef&gt;</text>
<text x="26" y="772">&gt; cursor)</text>
<text x="19" y="781">+createOrGetTypedef(CXCursor&lt;&lt;typedef&gt;</text>
<text x="26" y="790">&gt; cursor)</text>
<text x="19" y="799">+isBaseClass(ModelClassifier child, OovStringR</text>
<text x="26" y="808">ef name)</text>
<text x="19" y="817">+addAssociation(ModelClassifier parent,</text>
<text x="26" y="826"> ModelClassifier child, Visibility access)</text>
<text x="19" y="835">+setLineStats(ModelModuleLineStats lineStats)</text>
<text x="19" y="844">+writeModel(OovStringRef fileName)</text>
<text x="19" y="853">+DebugGetModelData()</text>
</g>
<g stroke="none" font-style="italic">
</g>
<g  fill="#f5fff5" stroke="#000000" style="stroke-width:1">
<rect x="107" y="472" width="76" height="26" />
<line x1="107" y1="493" x2="183" y2="493" />
<line x1="107" y1="496" x2="183" y2="496" />
</g>
<g stroke="none">
<text x="108" y="481">ModelClassifier</text>
<text x="108" y="490">oovCommon</text>
</g>
<g stroke="none" font-style="italic">
</g>
<g  fill="#f5fff5" stroke="#000000" style="stroke-width:1">
<rect x="214" y="620" width="80" height="26" />
<line x1="214" y1="641" x2="294" y2="641" />
<line x1="214" y1="644" x2="294" y2="644" />
</g>
<g stroke="none">
<text x="215" y="629">ModelOperation</text>
<text x="215" y="638">oovCommon</text>
</g>
<g stroke="none" font-style="italic">
</g>
<g  fill="#f5fff5" stroke="#000000" style="stroke-width:1">
<rect x="304" y="409" width="87" height="26" />
<line x1="304" y1="430" x2="391" y2="430" />
<line x1="304" y1="433" x2="391" y2="433" />
</g>
<g stroke="none">
<text x="305" y="418">ModelStatements</text>
<text x="305" y="427">oovCommon</text>
</g>
<g stroke="none" font-style="italic">
</g>
<g  fill="#f5fff5" stroke="#000000" style="stroke-width:1">
<rect x="601" y="91" width="159" height="44" />
<line x1="601" y1="112" x2="760" y2="112" />
<line x1="601" y1="124" x2="760" y2="124" />
</g>
<g stroke="none">
<text x="602" y="100">SwitchContexts</text>
<text x="602" y="109">oovCppParser</text>
<text x="602" y="121">-SwitchContext mDummyContext</text>
<text x="602" y="133">+getCurrentContext()</text>
</g>
<g stroke="none" font-style="italic">
</g>
<g  fill="#f5fff5" stroke="#000000" style="stroke-width:1">
<rect x="415" y="328" width="63" height="26" />
<line x1="415" y1="349" x2="478" y2="349" />
<line x1="415" y1="352" x2="478" y2="352" />
</g>
<g stroke="none">
<text x="416" y="337">FilePath</text>
<text x="416" y="346">oovCommon</text>
</g>
<g stroke="none" font-style="italic">
</g>
<g  fill="#f5fff5" stroke="#000000" style="stroke-width:1">
<rect x="198" y="530" width="63" height="26" />
<line x1="198" y1="551" x2="261" y2="551" />
<line x1="198" y1="554" x2="261" y2="554" />
</g>
<g stroke="none">
<text x="199" y="539">Visibility</text>
<text x="199" y="548">oovCommon</text>
</g>
<g stroke="none" font-style="italic">
</g>
<g  fill="#f5fff5" stroke="#000000" style="stroke-width:1">
<rect x="522" y="472" width="243" height="206" />
<line x1="522" y1="493" x2="765" y2="493" />
<line x1="522" y1="595" x2="765" y2="595" />
</g>
<g stroke="none">
<text x="523" y="481">IncDirDependencyMap</text>
<text x="523" y="490">oovCppParser</text>
<text x="523" y="502">-std::map&lt;std::__cxx11::basic_string&lt;char&gt;</text>
<text x="530" y="511">,std::set&lt;std::__cxx11::basic_string&lt;char&gt;</text>
<text x="530" y="520">,std::less&lt;std::__cxx11::basic_string&lt;char&gt;</text>
<text x="530" y="529"> &gt;,std::allocator&lt;std::__cxx11::basic_string&lt;</text>
<text x="530" y="538">char&gt; &gt; &gt;,std::less&lt;std::__cxx11::basic_string&lt;</text>
<text x="530" y="547">char&gt; &gt;,std::allocator&lt;std::pair&lt;std::__cxx11::</text>
<text x="530" y="556">basic_string&lt;char&gt;,std::set&lt;std::__cxx11::</text>
<text x="530" y="565">basic_string&lt;char&gt;,std::less&lt;std::__cxx11::</text>
<text x="530" y="574">basic_string&lt;char&gt; &gt;,std::allocator&lt;std::</text>
<text x="530" y="583">__cxx11::basic_string&lt;char&gt; &gt; &gt; &gt; &gt; &gt; mParsedIncl</text>
<text x="530" y="592">udeDependencies</text>
<text x="523" y="604">+read(char outDir, char incPath)</text>
<text x="523" y="613">+write()</text>
<text x="523" y="622">+insert(string&lt;&lt;typedef&gt;&gt; includerPath, FilePath </text>
<text x="530" y="631">includedPath)</text>
<text x="523" y="640">-includedPathsChanged(OovStringRef includerFn,</text>
<text x="530" y="649"> std::set&lt;std::__cxx11::basic_string&lt;char&gt;</text>
<text x="530" y="658">,std::less&lt;std::__cxx11::basic_string&lt;char&gt;</text>
<text x="530" y="667"> &gt;,std::allocator&lt;std::__cxx11::basic_string&lt;</text>
<text x="530" y="676">char&gt; &gt; &gt; includedInfoStr)</text>
</g>
<g stroke="none" font-style="italic">
</g>
<g  fill="#f5fff5" stroke="#000000" style="stroke-width:1">
<rect x="547" y="403" width="77" height="26" />
<line x1="547" y1="424" x2="624" y2="424" />
<line x1="547" y1="427" x2="624" y2="427" />
</g>
<g stroke="none">
<text x="548" y="412">NameValueFile</text>
<text x="548" y="421">oovCommon</text>
</g>
<g stroke="none" font-style="italic">
</g>
<g  fill="#f5fff5" stroke="#000000" style="stroke-width:1">
<rect x="27" y="367" width="217" height="35" />
<line x1="27" y1="388" x2="244" y2="388" />
<line x1="27" y1="391" x2="244" y2="391" />
</g>
<g stroke="none">
<text x="28" y="376">CXStringDisposer</text>
<text x="28" y="385">oovCppParser</text>
<text x="28" y="400">+CXStringDisposer(CXString&lt;&lt;typedef&gt;&gt; xstr)</text>
</g>
<g stroke="none" font-style="italic">
</g>
<g  fill="#f5fff5" stroke="#000000" style="stroke-width:1">
<rect x="404" y="442" width="63" height="26" />
<line x1="404" y1="463" x2="467" y2="463" />
<line x1="404" y1="466" x2="467" y2="466" />
</g>
<g stroke="none">
<text x="405" y="451">Project</text>
<text x="405" y="460">oovCommon</text>
</g>
<g stroke="none" font-style="italic">
</g>
<g  fill="#f5fff5" stroke="#000000" style="stroke-width:1">
<rect x="21" y="431" width="70" height="53" />
<line x1="21" y1="452" x2="91" y2="452" />
<line x1="21" y1="473" x2="91" y2="473" />
</g>
<g stroke="none">
<text x="22" y="440">RefType</text>
<text x="22" y="449">oovCppParser</text>
<text x="22" y="461">-bool isConst</text>
<text x="22" y="470">-bool isRef</text>
<text x="22" y="482">-RefType()</text>
</g>
<g stroke="none" font-style="italic">
</g>
<g  fill="#f5fff5" stroke="#000000" style="stroke-width:1">
<rect x="166" y="414" width="83" height="26" />
<line x1="166" y1="435" x2="249" y2="435" />
<line x1="166" y1="438" x2="249" y2="438" />
</g>
<g stroke="none">
<text x="167" y="423">ModelStatement</text>
<text x="167" y="432">oovCommon</text>
</g>
<g stroke="none" font-style="italic">
</g>
<g  fill="#f5fff5" stroke="#000000" style="stroke-width:1">
<rect x="510" y="279" width="251" height="107" />
<line x1="510" y1="300" x2="761" y2="300" />
<line x1="510" y1="339" x2="761" y2="339" />
</g>
<g stroke="none">
<text x="511" y="288">SwitchContext</text>
<text x="511" y="297">oovCppParser</text>
<text x="511" y="309">+string&lt;&lt;typedef&gt;&gt; mSwitchExprString</text>
<text x="511" y="318">-bool mInCase</text>
<text x="511" y="327">-ModelStatements mParentFuncStatements</text>
<text x="511" y="336">-OovString mConditionalStr</text>
<text x="511" y="348">+startCase(ModelStatements parentFuncStatements,</text>
<text x="518" y="357"> CXCursor&lt;&lt;typedef&gt;&gt; cursor, OovString opStr)</text>
<text x="511" y="366">+endCase()</text>
<text x="511" y="375">+SwitchContext()</text>
<text x="511" y="384">+SwitchContext(string&lt;&lt;typedef&gt;&gt; exprString)</text>
</g>
<g stroke="none" font-style="italic">
</g>
<g  fill="#f5fff5" stroke="#000000" style="stroke-width:1">
<rect x="487" y="32" width="146" height="26" />
<line x1="487" y1="53" x2="633" y2="53" />
<line x1="487" y1="56" x2="633" y2="56" />
</g>
<g stroke="none">
<text x="488" y="41">std::vector&lt;SwitchContext,std::</text>
<text x="488" y="50">  allocator&lt;SwitchContext&gt; &gt;</text>
</g>
<g stroke="none" font-style="italic">
</g>
<g  fill="#f5fff5" stroke="#000000" style="stroke-width:1">
<rect x="264" y="451" width="47" height="17" />
<line x1="264" y1="463" x2="311" y2="463" />
<line x1="264" y1="466" x2="311" y2="466" />
</g>
<g stroke="none">
<text x="265" y="460">CXCursor</text>
</g>
<g stroke="none" font-style="italic">
</g>
<g  fill="#f5fff5" stroke="#000000" style="stroke-width:1">
<rect x="25" y="564" width="63" height="26" />
<line x1="25" y1="585" x2="88" y2="585" />
<line x1="25" y1="588" x2="88" y2="588" />
</g>
<g stroke="none">
<text x="26" y="573">ModelType</text>
<text x="26" y="582">oovCommon</text>
</g>
<g stroke="none" font-style="italic">
</g>
<g  fill="#f5fff5" stroke="#000000" style="stroke-width:1">
<rect x="304" y="527" width="207" height="152" />
<line x1="304" y1="548" x2="511" y2="548" />
<line x1="304" y1="614" x2="511" y2="614" />
</g>
<g stroke="none">
<text x="305" y="536">CrashDiagnostics</text>
<text x="305" y="545">oovCppParser</text>
<text x="305" y="557">-bool mCrashed</text>
<text x="305" y="566">-string&lt;&lt;typedef&gt;&gt; mDiagStr</text>
<text x="305" y="575">-CXCursor&lt;&lt;typedef&gt;&gt; mMostRecentCursor</text>
<text x="305" y="584">-bool mCrashed</text>
<text x="305" y="593">-bool mEnableDumpCursor</text>
<text x="305" y="602">-string&lt;&lt;typedef&gt;&gt; mDiagStr</text>
<text x="305" y="611">-CXCursor&lt;&lt;typedef&gt;&gt; mMostRecentCursor</text>
<text x="305" y="623">+CrashDiagnostics()</text>
<text x="305" y="632">+saveMostRecentParseLocation(char </text>
<text x="312" y="641">diagStr, CXCursor&lt;&lt;typedef&gt;&gt; cursor)</text>
<text x="305" y="650">+setCrashed()</text>
<text x="305" y="659">+hasCrashed()</text>
<text x="305" y="668">+dumpCrashed(FILE&lt;&lt;typedef&gt;&gt; fp)</text>
<text x="305" y="677">+enableDumpCursor(bool enable)</text>
</g>
<g stroke="none" font-style="italic">
</g>
<g  fill="#f5f5ff" stroke="#000000" style="stroke-width:1">
<line x1="192" y1="353" x2="147" y2="658" />
<circle cx="189" cy="366" r="5" style="fill:#ffffff" />
<circle cx="187" cy="382" r="5" style="fill:#000000" />
<circle cx="187" cy="382" r="2" style="fill:#000000" />
<polygon points="192,353 187,360 190,366 195,361 192,353 " style="fill:#000000" />
<line x1="177" y1="353" x2="148" y2="472" />
<circle cx="173" cy="366" r="5" style="fill:#ffffff" />
<circle cx="172" cy="373" r="2" style="fill:#ffffff" />
<circle cx="169" cy="382" r="5" style="fill:#000000" />
<circle cx="169" cy="382" r="2" style="fill:#000000" />
<polygon points="177,353 171,359 174,366 179,361 177,353 " style="fill:#ffffff" />
<line x1="229" y1="353" x2="253" y2="620" />
<circle cx="230" cy="366" r="5" style="fill:#ffffff" />
<circle cx="231" cy="382" r="5" style="fill:#000000" />
<circle cx="231" cy="382" r="2" style="fill:#000000" />
<polygon points="229,353 226,361 230,366 234,360 229,353 " style="fill:#ffffff" />
<line x1="307" y1="353" x2="340" y2="409" />
<circle cx="314" cy="365" r="5" style="fill:#ffffff" />
<circle cx="322" cy="378" r="5" style="fill:#000000" />
<circle cx="322" cy="378" r="2" style="fill:#000000" />
<polygon points="307,353 307,361 314,365 314,357 307,353 " style="fill:#ffffff" />
<line x1="412" y1="159" x2="601" y2="126" />
<circle cx="425" cy="156" r="5" style="fill:#ffffff" />
<circle cx="441" cy="153" r="5" style="fill:#000000" />
<circle cx="441" cy="153" r="2" style="fill:#000000" />
<polygon points="412,159 420,162 425,157 418,154 412,159 " style="fill:#000000" />
<line x1="412" y1="319" x2="426" y2="328" />
<circle cx="423" cy="326" r="5" style="fill:#ffffff" />
<circle cx="437" cy="335" r="5" style="fill:#000000" />
<circle cx="437" cy="335" r="2" style="fill:#000000" />
<polygon points="412,319 416,327 423,326 420,319 412,319 " style="fill:#000000" />
<line x1="221" y1="353" x2="229" y2="530" />
<circle cx="221" cy="366" r="5" style="fill:#ffffff" />
<circle cx="221" cy="373" r="2" style="fill:#ffffff" />
<circle cx="222" cy="382" r="5" style="fill:#000000" />
<circle cx="222" cy="382" r="2" style="fill:#000000" />
<polygon points="221,353 217,360 221,366 225,360 221,353 " style="fill:#000000" />
<line x1="394" y1="353" x2="528" y2="472" />
<circle cx="404" cy="362" r="5" style="fill:#ffffff" />
<circle cx="416" cy="372" r="5" style="fill:#000000" />
<circle cx="416" cy="372" r="2" style="fill:#000000" />
<polygon points="394,353 396,361 404,362 402,354 394,353 " style="fill:#000000" />
<line x1="412" y1="311" x2="564" y2="403" />
<circle cx="423" cy="318" r="5" style="fill:#ffffff" />
<line x1="148" y1="353" x2="142" y2="367" />
<circle cx="142" cy="365" r="5" style="fill:#ffffff" />
<line x1="349" y1="353" x2="425" y2="442" />
<circle cx="358" cy="363" r="5" style="fill:#ffffff" />
<line x1="119" y1="353" x2="71" y2="431" />
<circle cx="111" cy="364" r="5" style="fill:#ffffff" />
<line x1="210" y1="353" x2="207" y2="414" />
<circle cx="209" cy="366" r="5" style="fill:#ffffff" />
<line x1="412" y1="257" x2="510" y2="291" />
<circle cx="425" cy="261" r="5" style="fill:#ffffff" />
<line x1="412" y1="109" x2="530" y2="58" />
<circle cx="424" cy="103" r="5" style="fill:#ffffff" />
<line x1="258" y1="353" x2="285" y2="451" />
<circle cx="261" cy="366" r="5" style="fill:#ffffff" />
<line x1="149" y1="353" x2="61" y2="564" />
<circle cx="143" cy="365" r="5" style="fill:#ffffff" />
<line x1="290" y1="353" x2="372" y2="527" />
<circle cx="295" cy="365" r="5" style="fill:#ffffff" />
<line x1="137" y1="658" x2="145" y2="498" />
<polygon points="137,658 143,651 137,655 132,650 137,658 " style="fill:#ffffff" />
<circle cx="137" cy="644" r="5" style="fill:#ffffff" />
<circle cx="138" cy="637" r="2" style="fill:#ffffff" />
<line x1="177" y1="658" x2="224" y2="556" />
<circle cx="182" cy="645" r="5" style="fill:#ffffff" />
<circle cx="185" cy="638" r="2" style="fill:#ffffff" />
<line x1="133" y1="658" x2="135" y2="401" />
<circle cx="133" cy="644" r="5" style="fill:#ffffff" />
<line x1="108" y1="658" x2="62" y2="483" />
<circle cx="104" cy="644" r="5" style="fill:#ffffff" />
<circle cx="102" cy="637" r="2" style="fill:#ffffff" />
<line x1="91" y1="658" x2="61" y2="590" />
<circle cx="85" cy="645" r="5" style="fill:#ffffff" />
<line x1="154" y1="498" x2="245" y2="620" />
<polygon points="154,498 154,507 156,501 163,500 154,498 " style="fill:#ffffff" />
<circle cx="162" cy="509" r="5" style="fill:#ffffff" />
<circle cx="166" cy="514" r="2" style="fill:#ffffff" />
<line x1="183" y1="474" x2="306" y2="435" />
<polygon points="306,435 297,432 303,436 301,443 306,435 " style="fill:#ffffff" />
<circle cx="292" cy="439" r="5" style="fill:#ffffff" />
<circle cx="285" cy="441" r="2" style="fill:#ffffff" />
<line x1="163" y1="498" x2="211" y2="530" />
<circle cx="174" cy="505" r="5" style="fill:#ffffff" />
<circle cx="180" cy="509" r="2" style="fill:#ffffff" />
<line x1="158" y1="472" x2="194" y2="440" />
<polygon points="158,472 167,472 160,470 160,463 158,472 " style="fill:#ffffff" />
<circle cx="168" cy="462" r="5" style="fill:#ffffff" />
<circle cx="173" cy="458" r="2" style="fill:#ffffff" />
<line x1="133" y1="498" x2="68" y2="564" />
<polygon points="133,498 124,499 131,500 132,507 133,498 " style="fill:#ffffff" />
<circle cx="123" cy="507" r="5" style="fill:#ffffff" />
<circle cx="118" cy="512" r="2" style="fill:#ffffff" />
<circle cx="89" cy="542" r="5" style="fill:#ffffff" />
<circle cx="89" cy="542" r="2" style="fill:#ffffff" />
<polygon points="68,564 80,559 73,552 68,564 " style="fill:#ffffff" />
<line x1="259" y1="620" x2="342" y2="435" />
<circle cx="271" cy="592" r="5" style="fill:#000000" />
<circle cx="271" cy="592" r="2" style="fill:#000000" />
<polygon points="259,620 266,615 264,608 259,612 259,620 " style="fill:#000000" />
<line x1="251" y1="620" x2="232" y2="556" />
<circle cx="247" cy="606" r="5" style="fill:#ffffff" />
<circle cx="245" cy="599" r="2" style="fill:#ffffff" />
<circle cx="242" cy="591" r="5" style="fill:#000000" />
<circle cx="242" cy="591" r="2" style="fill:#000000" />
<polygon points="251,620 253,612 248,607 245,614 251,620 " style="fill:#000000" />
<line x1="252" y1="620" x2="209" y2="440" />
<circle cx="248" cy="606" r="5" style="fill:#ffffff" />
<line x1="214" y1="622" x2="87" y2="585" />
<polygon points="214,622 208,615 211,621 205,625 214,622 " style="fill:#ffffff" />
<circle cx="200" cy="618" r="5" style="fill:#ffffff" />
<circle cx="193" cy="616" r="2" style="fill:#ffffff" />
<line x1="304" y1="423" x2="248" y2="426" />
<polygon points="304,423 296,418 301,423 297,429 304,423 " style="fill:#ffffff" />
<circle cx="290" cy="423" r="5" style="fill:#ffffff" />
<circle cx="283" cy="424" r="2" style="fill:#ffffff" />
<line x1="388" y1="409" x2="510" y2="371" />
<circle cx="496" cy="375" r="5" style="fill:#ffffff" />
<circle cx="489" cy="377" r="2" style="fill:#ffffff" />
<circle cx="481" cy="379" r="5" style="fill:#000000" />
<circle cx="481" cy="379" r="2" style="fill:#000000" />
<polygon points="510,371 502,370 497,375 504,377 510,371 " style="fill:#ffffff" />
<line x1="323" y1="435" x2="80" y2="564" />
<circle cx="310" cy="441" r="5" style="fill:#ffffff" />
<line x1="676" y1="135" x2="645" y2="279" />
<circle cx="669" cy="164" r="5" style="fill:#000000" />
<circle cx="669" cy="164" r="2" style="fill:#000000" />
<polygon points="676,135 670,141 674,148 678,143 676,135 " style="fill:#000000" />
<line x1="642" y1="91" x2="582" y2="58" />
<circle cx="629" cy="84" r="5" style="fill:#ffffff" />
<circle cx="608" cy="72" r="5" style="fill:#ffffff" />
<circle cx="608" cy="72" r="2" style="fill:#ffffff" />
<polygon points="582,58 590,68 595,59 582,58 " style="fill:#ffffff" />
<line x1="456" y1="354" x2="557" y2="472" />
<polygon points="557,472 557,463 555,469 548,470 557,472 " style="fill:#ffffff" />
<circle cx="547" cy="461" r="5" style="fill:#ffffff" />
<circle cx="543" cy="456" r="2" style="fill:#ffffff" />
<line x1="445" y1="354" x2="436" y2="442" />
<circle cx="437" cy="428" r="5" style="fill:#ffffff" />
<line x1="606" y1="472" x2="589" y2="429" />
<circle cx="600" cy="458" r="5" style="fill:#ffffff" />
<circle cx="600" cy="456" r="5" style="fill:#ffffff" />
<circle cx="600" cy="456" r="2" style="fill:#ffffff" />
<polygon points="589,429 589,442 598,439 589,429 " style="fill:#ffffff" />
<line x1="547" y1="425" x2="466" y2="447" />
<circle cx="479" cy="443" r="5" style="fill:#ffffff" />
<line x1="248" y1="418" x2="510" y2="359" />
<circle cx="496" cy="362" r="5" style="fill:#ffffff" />
<line x1="563" y1="58" x2="622" y2="279" style="stroke-dasharray: 4, 4 " />
<line x1="622" y1="279" x2="623" y2="266" />
<line x1="622" y1="279" x2="614" y2="268" />
<line x1="293" y1="467" x2="344" y2="527" />
<circle cx="334" cy="516" r="5" style="fill:#ffffff" />
</g>
</svg>