<svg xmlns="http://www.w3.org/2000/svg" version="1.1" width="816" height="886">
<g  fill="#f5fff5" stroke="#000000" style="stroke-width:1">
<rect x="674" y="740" width="133" height="143" />
<line x1="674" y1="753" x2="807" y2="753" />
<polygon points="787,761 799,766 799,756 787,761 " style="fill:#ffffff" />
<polygon points="787,775 794,779 801,775 794,771 787,775 " style="fill:#ffffff" />
<polygon points="787,789 794,793 801,789 794,785 787,789 " style="fill:#000000" />
<polygon points="787,803 795,808 791,803 795,798 787,803 " style="fill:#ffffff" />
<circle cx="787" cy="817" r="5" style="fill:#ffffff" />
<circle cx="787" cy="831" r="5" style="fill:#ffffff" />
<circle cx="794" cy="831" r="2" style="fill:#ffffff" />
<circle cx="787" cy="845" r="5" style="fill:#ffffff" />
<circle cx="787" cy="845" r="2" style="fill:#ffffff" />
<circle cx="787" cy="859" r="5" style="fill:#ffffff" />
<circle cx="787" cy="859" r="2" style="fill:#000000" />
<circle cx="787" cy="873" r="5" style="fill:#000000" />
<circle cx="787" cy="873" r="2" style="fill:#000000" />
</g>
<g font-size="10.000000" stroke="none">
<text x="675" y="749">Relations Key</text>
<text x="675" y="763">Generalization</text>
<text x="675" y="777">Aggregation(reference)</text>
<text x="675" y="791">Composition(owned)</text>
<text x="675" y="805">Const</text>
<text x="675" y="819">Method Variable</text>
<text x="675" y="833">Method Parameter</text>
<text x="675" y="847">Public</text>
<text x="675" y="861">Protected</text>
<text x="675" y="875">Private</text>
</g>
<g  fill="#f5fff5" stroke="#000000" style="stroke-width:1">
<rect x="31" y="24" width="488" height="251" />
<line x1="31" y1="45" x2="519" y2="45" />
<line x1="31" y1="129" x2="519" y2="129" />
</g>
<g font-size="10.000000" stroke="none">
<text x="32" y="33">CppParser</text>
<text x="32" y="42">/oovCppParser/</text>
<text x="32" y="54">-ParserModelData mParserModelData</text>
<text x="32" y="63">-cDupHashFile mDupHashFile</text>
<text x="32" y="72">-ModelClassifier mClassifier</text>
<text x="32" y="81">-ModelOperation mOperation</text>
<text x="32" y="90">-ModelStatements mStatements</text>
<text x="32" y="99">-SwitchContexts mSwitchContexts</text>
<text x="32" y="108">-FilePath mTopParseFn</text>
<text x="32" y="117">-Visibility mClassMemberAccess</text>
<text x="32" y="126">-IncDirDependencyMap mIncDirDeps</text>
<text x="32" y="138">+parse(bool lineHashes, char srcFn, char srcRootDir, char outDir, char[] clang_args, int num_clang_args)</text>
<text x="32" y="147">+visitTranslationUnit(&lt;&lt;typedef&gt;&gt;CXCursor cursor, &lt;&lt;typedef&gt;&gt;CXCursor parent)</text>
<text x="32" y="156">+visitTranslationUnitForIncludes(&lt;&lt;typedef&gt;&gt;CXCursor cursor, &lt;&lt;typedef&gt;&gt;CXCursor parent)</text>
<text x="32" y="165">+visitRecord(&lt;&lt;typedef&gt;&gt;CXCursor cursor, &lt;&lt;typedef&gt;&gt;CXCursor parent)</text>
<text x="32" y="174">+visitFunctionAddArgs(&lt;&lt;typedef&gt;&gt;CXCursor cursor, &lt;&lt;typedef&gt;&gt;CXCursor parent)</text>
<text x="32" y="183">+visitFunctionAddStatements(&lt;&lt;typedef&gt;&gt;CXCursor cursor, &lt;&lt;typedef&gt;&gt;CXCursor parent)</text>
<text x="32" y="192">+visitFunctionAddDupHashes(&lt;&lt;typedef&gt;&gt;CXCursor cursor, &lt;&lt;typedef&gt;&gt;CXCursor parent)</text>
<text x="32" y="201">-addOperationParts(&lt;&lt;typedef&gt;&gt;CXCursor cursor, bool addParams)</text>
<text x="32" y="210">-addRecord(&lt;&lt;typedef&gt;&gt;CXCursor cursor, Visibility vis)</text>
<text x="32" y="219">-addVar(&lt;&lt;typedef&gt;&gt;CXCursor cursor)</text>
<text x="32" y="228">-addClassFileLoc(&lt;&lt;typedef&gt;&gt;CXCursor cursor, ModelClassifier classifier)</text>
<text x="32" y="237">-addTypedef(&lt;&lt;typedef&gt;&gt;CXCursor cursor)</text>
<text x="32" y="246">-buildCondExpr(&lt;&lt;typedef&gt;&gt;CXCursor condStmtCursor, int condExprIndex)</text>
<text x="32" y="255">-addCondStatement(&lt;&lt;typedef&gt;&gt;CXCursor stmtCursor, int condExprIndex, int condStatementIndex)</text>
<text x="32" y="264">-addElseStatement(&lt;&lt;typedef&gt;&gt;CXCursor condStmtCursor, int elseBodyIndex)</text>
<text x="32" y="273">+CppParser()</text>
</g>
<g  fill="#f5fff5" stroke="#000000" style="stroke-width:1">
<rect x="39" y="733" width="341" height="152" />
<line x1="39" y1="754" x2="380" y2="754" />
<line x1="39" y1="766" x2="380" y2="766" />
</g>
<g font-size="10.000000" stroke="none">
<text x="40" y="742">ParserModelData</text>
<text x="40" y="751">/oovCppParser/</text>
<text x="40" y="763">-ModelData mModelData</text>
<text x="40" y="775">+addParsedModule(OovStringRef fileName)</text>
<text x="40" y="784">+getParsedModule()</text>
<text x="40" y="793">+createOrGetClassRef(OovStringRef name)</text>
<text x="40" y="802">+createOrGetBaseTypeRef(&lt;&lt;typedef&gt;&gt;CXCursor cursor, RefType rt)</text>
<text x="40" y="811">+createOrGetDataTypeRef(&lt;&lt;typedef&gt;&gt;CXType type, RefType rt)</text>
<text x="40" y="820">+createOrGetDataTypeRef(&lt;&lt;typedef&gt;&gt;CXCursor cursor)</text>
<text x="40" y="829">+createOrGetTypedef(&lt;&lt;typedef&gt;&gt;CXCursor cursor)</text>
<text x="40" y="838">+isBaseClass(ModelClassifier child, OovStringRef name)</text>
<text x="40" y="847">+addAssociation(ModelClassifier parent, ModelClassifier child, Visibility </text>
<text x="40" y="856">   access)</text>
<text x="40" y="865">+setLineStats(ModelModuleLineStats lineStats)</text>
<text x="40" y="874">+writeModel(OovStringRef fileName)</text>
<text x="40" y="883">+DebugGetModelData()</text>
</g>
<g  fill="#f5fff5" stroke="#000000" style="stroke-width:1">
<rect x="681" y="133" width="134" height="98" />
<line x1="681" y1="154" x2="815" y2="154" />
<line x1="681" y1="175" x2="815" y2="175" />
</g>
<g font-size="10.000000" stroke="none">
<text x="682" y="142">cDupHashFile</text>
<text x="682" y="151">/oovCppParser/</text>
<text x="682" y="163">-File mFile</text>
<text x="682" y="172">-bool mAlreadyAddedBreak</text>
<text x="682" y="184">+append(OovStringRef text</text>
<text x="682" y="193">   , unsigned int line)</text>
<text x="682" y="202">+cDupHashFile()</text>
<text x="682" y="211">+open(OovStringRef fn)</text>
<text x="682" y="220">+isOpen()</text>
<text x="682" y="229">+appendBreak()</text>
</g>
<g  fill="#f5fff5" stroke="#000000" style="stroke-width:1">
<rect x="32" y="407" width="76" height="26" />
<line x1="32" y1="428" x2="108" y2="428" />
<line x1="32" y1="431" x2="108" y2="431" />
</g>
<g font-size="10.000000" stroke="none">
<text x="33" y="416">ModelClassifier</text>
<text x="33" y="425">/oovCommon/</text>
</g>
<g  fill="#f5fff5" stroke="#000000" style="stroke-width:1">
<rect x="141" y="460" width="80" height="26" />
<line x1="141" y1="481" x2="221" y2="481" />
<line x1="141" y1="484" x2="221" y2="484" />
</g>
<g font-size="10.000000" stroke="none">
<text x="142" y="469">ModelOperation</text>
<text x="142" y="478">/oovCommon/</text>
</g>
<g  fill="#f5fff5" stroke="#000000" style="stroke-width:1">
<rect x="30" y="317" width="87" height="26" />
<line x1="30" y1="338" x2="117" y2="338" />
<line x1="30" y1="341" x2="117" y2="341" />
</g>
<g font-size="10.000000" stroke="none">
<text x="31" y="326">ModelStatements</text>
<text x="31" y="335">/oovCommon/</text>
</g>
<g  fill="#f5fff5" stroke="#000000" style="stroke-width:1">
<rect x="564" y="80" width="159" height="44" />
<line x1="564" y1="101" x2="723" y2="101" />
<line x1="564" y1="113" x2="723" y2="113" />
</g>
<g font-size="10.000000" stroke="none">
<text x="565" y="89">SwitchContexts</text>
<text x="565" y="98">/oovCppParser/</text>
<text x="565" y="110">-SwitchContext mDummyContext</text>
<text x="565" y="122">+getCurrentContext()</text>
</g>
<g  fill="#f5fff5" stroke="#000000" style="stroke-width:1">
<rect x="655" y="374" width="71" height="26" />
<line x1="655" y1="395" x2="726" y2="395" />
<line x1="655" y1="398" x2="726" y2="398" />
</g>
<g font-size="10.000000" stroke="none">
<text x="656" y="383">FilePath</text>
<text x="656" y="392">/oovCommon/</text>
</g>
<g  fill="#f5fff5" stroke="#000000" style="stroke-width:1">
<rect x="261" y="360" width="71" height="26" />
<line x1="261" y1="381" x2="332" y2="381" />
<line x1="261" y1="384" x2="332" y2="384" />
</g>
<g font-size="10.000000" stroke="none">
<text x="262" y="369">Visibility</text>
<text x="262" y="378">/oovCommon/</text>
</g>
<g  fill="#f5fff5" stroke="#000000" style="stroke-width:1">
<rect x="362" y="480" width="450" height="116" />
<line x1="362" y1="501" x2="812" y2="501" />
<line x1="362" y1="549" x2="812" y2="549" />
</g>
<g font-size="10.000000" stroke="none">
<text x="363" y="489">IncDirDependencyMap</text>
<text x="363" y="498">/oovCppParser/</text>
<text x="363" y="510">-std::map&lt;std::basic_string&lt;char&gt;,std::set&lt;std::basic_string&lt;char&gt;,std::less&lt;std::basic_string&lt;</text>
<text x="363" y="519">   char&gt; &gt;,std::allocator&lt;std::basic_string&lt;char&gt; &gt; &gt;,std::less&lt;std::basic_string&lt;char&gt; &gt;,std::</text>
<text x="363" y="528">   allocator&lt;std::pair&lt;std::basic_string&lt;char&gt;,std::set&lt;std::basic_string&lt;char&gt;,std::less&lt;std::</text>
<text x="363" y="537">   basic_string&lt;char&gt; &gt;,std::allocator&lt;std::basic_string&lt;char&gt; &gt; &gt; &gt; &gt; &gt; mParsedIncludeDepend</text>
<text x="363" y="546">   encies</text>
<text x="363" y="558">+read(char outDir, char incPath)</text>
<text x="363" y="567">+write()</text>
<text x="363" y="576">+insert(string includerPath, FilePath includedPath)</text>
<text x="363" y="585">-includedPathsChanged(OovStringRef includerFn, std::set&lt;std::basic_string&lt;char&gt;,std::less&lt;std::</text>
<text x="363" y="594">   basic_string&lt;char&gt; &gt;,std::allocator&lt;std::basic_string&lt;char&gt; &gt; &gt; includedInfoStr)</text>
</g>
<g  fill="#f5fff5" stroke="#000000" style="stroke-width:1">
<rect x="377" y="676" width="428" height="53" />
<line x1="377" y1="724" x2="805" y2="724" />
<line x1="377" y1="727" x2="805" y2="727" />
</g>
<g font-size="10.000000" stroke="none">
<text x="378" y="685">std::map&lt;std::basic_string&lt;char&gt;,std::set&lt;std::basic_string&lt;char&gt;,std::less&lt;std::basic_string&lt;</text>
<text x="378" y="694">   char&gt; &gt;,std::allocator&lt;std::basic_string&lt;char&gt; &gt; &gt;,std::less&lt;std::basic_string&lt;char&gt;</text>
<text x="378" y="703">    &gt;,std::allocator&lt;std::pair&lt;std::basic_string&lt;char&gt;,std::set&lt;std::basic_string&lt;char&gt;</text>
<text x="378" y="712">   ,std::less&lt;std::basic_string&lt;char&gt; &gt;,std::allocator&lt;std::basic_string&lt;char&gt; &gt; &gt; &gt; &gt; </text>
<text x="378" y="721">   &gt;</text>
</g>
<g  fill="#f5fff5" stroke="#000000" style="stroke-width:1">
<rect x="512" y="416" width="77" height="26" />
<line x1="512" y1="437" x2="589" y2="437" />
<line x1="512" y1="440" x2="589" y2="440" />
</g>
<g font-size="10.000000" stroke="none">
<text x="513" y="425">NameValueFile</text>
<text x="513" y="434">/oovCommon/</text>
</g>
<g  fill="#f5fff5" stroke="#000000" style="stroke-width:1">
<rect x="300" y="626" width="273" height="35" />
<line x1="300" y1="656" x2="573" y2="656" />
<line x1="300" y1="659" x2="573" y2="659" />
</g>
<g font-size="10.000000" stroke="none">
<text x="301" y="635">std::set&lt;std::basic_string&lt;char&gt;,std::less&lt;std::basic_string&lt;</text>
<text x="301" y="644">   char&gt; &gt;,std::allocator&lt;std::basic_string&lt;char&gt; &gt;</text>
<text x="301" y="653">    &gt;</text>
</g>
<g  fill="#f5fff5" stroke="#000000" style="stroke-width:1">
<rect x="705" y="416" width="71" height="26" />
<line x1="705" y1="437" x2="776" y2="437" />
<line x1="705" y1="440" x2="776" y2="440" />
</g>
<g font-size="10.000000" stroke="none">
<text x="706" y="425">SharedFile</text>
<text x="706" y="434">/oovCommon/</text>
</g>
<g  fill="#f5fff5" stroke="#000000" style="stroke-width:1">
<rect x="405" y="748" width="235" height="17" />
<line x1="405" y1="760" x2="640" y2="760" />
<line x1="405" y1="763" x2="640" y2="763" />
</g>
<g font-size="10.000000" stroke="none">
<text x="406" y="757">std::vector&lt;OovString,std::allocator&lt;OovString&gt; &gt;</text>
</g>
<g  fill="#f5fff5" stroke="#000000" style="stroke-width:1">
<rect x="308" y="412" width="158" height="35" />
<line x1="308" y1="433" x2="466" y2="433" />
<line x1="308" y1="436" x2="466" y2="436" />
</g>
<g font-size="10.000000" stroke="none">
<text x="309" y="421">CXStringDisposer</text>
<text x="309" y="430">/oovEdit/</text>
<text x="309" y="445">+CXStringDisposer(CXString xstr)</text>
</g>
<g  fill="#f5fff5" stroke="#000000" style="stroke-width:1">
<rect x="532" y="371" width="71" height="26" />
<line x1="532" y1="392" x2="603" y2="392" />
<line x1="532" y1="395" x2="603" y2="395" />
</g>
<g font-size="10.000000" stroke="none">
<text x="533" y="380">Project</text>
<text x="533" y="389">/oovCommon/</text>
</g>
<g  fill="#f5fff5" stroke="#000000" style="stroke-width:1">
<rect x="47" y="528" width="214" height="152" />
<line x1="47" y1="549" x2="261" y2="549" />
<line x1="47" y1="615" x2="261" y2="615" />
</g>
<g font-size="10.000000" stroke="none">
<text x="48" y="537">cCrashDiagnostics</text>
<text x="48" y="546">/oovCppParser/</text>
<text x="48" y="558">-bool mCrashed</text>
<text x="48" y="567">-string mDiagStr</text>
<text x="48" y="576">-&lt;&lt;typedef&gt;&gt;CXCursor mMostRecentCursor</text>
<text x="48" y="585">-bool mCrashed</text>
<text x="48" y="594">-bool mEnableDumpCursor</text>
<text x="48" y="603">-string mDiagStr</text>
<text x="48" y="612">-&lt;&lt;typedef&gt;&gt;CXCursor mMostRecentCursor</text>
<text x="48" y="624">+cCrashDiagnostics()</text>
<text x="48" y="633">+saveMostRecentParseLocation(char diagStr</text>
<text x="48" y="642">   , &lt;&lt;typedef&gt;&gt;CXCursor cursor)</text>
<text x="48" y="651">+setCrashed()</text>
<text x="48" y="660">+hasCrashed()</text>
<text x="48" y="669">+dumpCrashed(FILE fp)</text>
<text x="48" y="678">+enableDumpCursor(bool enable)</text>
</g>
<g  fill="#f5fff5" stroke="#000000" style="stroke-width:1">
<rect x="139" y="346" width="83" height="26" />
<line x1="139" y1="367" x2="222" y2="367" />
<line x1="139" y1="370" x2="222" y2="370" />
</g>
<g font-size="10.000000" stroke="none">
<text x="140" y="355">ModelStatement</text>
<text x="140" y="364">/oovCommon/</text>
</g>
<g  fill="#f5fff5" stroke="#000000" style="stroke-width:1">
<rect x="566" y="246" width="248" height="116" />
<line x1="566" y1="267" x2="814" y2="267" />
<line x1="566" y1="306" x2="814" y2="306" />
</g>
<g font-size="10.000000" stroke="none">
<text x="567" y="255">SwitchContext</text>
<text x="567" y="264">/oovCppParser/</text>
<text x="567" y="276">+string mSwitchExprString</text>
<text x="567" y="285">-bool mInCase</text>
<text x="567" y="294">-ModelStatements mParentFuncStatements</text>
<text x="567" y="303">-OovString mConditionalStr</text>
<text x="567" y="315">+startCase(ModelStatements parentFuncStatements</text>
<text x="567" y="324">   , &lt;&lt;typedef&gt;&gt;CXCursor cursor, OovString </text>
<text x="567" y="333">   opStr)</text>
<text x="567" y="342">+endCase()</text>
<text x="567" y="351">+SwitchContext()</text>
<text x="567" y="360">+SwitchContext(string exprString)</text>
</g>
<g  fill="#f5fff5" stroke="#000000" style="stroke-width:1">
<rect x="549" y="23" width="266" height="26" />
<line x1="549" y1="44" x2="815" y2="44" />
<line x1="549" y1="47" x2="815" y2="47" />
</g>
<g font-size="10.000000" stroke="none">
<text x="550" y="32">std::vector&lt;SwitchContext,std::allocator&lt;SwitchContext&gt;</text>
<text x="550" y="41">    &gt;</text>
</g>
<g  fill="#f5fff5" stroke="#000000" style="stroke-width:1">
<rect x="290" y="497" width="47" height="17" />
<line x1="290" y1="509" x2="337" y2="509" />
<line x1="290" y1="512" x2="337" y2="512" />
</g>
<g font-size="10.000000" stroke="none">
<text x="291" y="506">CXCursor</text>
</g>
<g  fill="#f5f5ff" stroke="#000000" style="stroke-width:1">
<line x1="263" y1="274" x2="216" y2="733" />
<circle cx="261" cy="287" r="5" style="fill:#ffffff" />
<circle cx="259" cy="303" r="5" style="fill:#000000" />
<circle cx="259" cy="303" r="2" style="fill:#000000" />
<polygon points="263,274 258,281 262,287 266,282 263,274 " style="fill:#000000" />
<line x1="519" y1="166" x2="681" y2="178" />
<circle cx="532" cy="167" r="5" style="fill:#ffffff" />
<circle cx="548" cy="168" r="5" style="fill:#000000" />
<circle cx="548" cy="168" r="2" style="fill:#000000" />
<polygon points="519,166 526,171 532,167 527,163 519,166 " style="fill:#000000" />
<line x1="181" y1="274" x2="79" y2="407" />
<circle cx="172" cy="285" r="5" style="fill:#ffffff" />
<circle cx="162" cy="297" r="5" style="fill:#000000" />
<circle cx="162" cy="297" r="2" style="fill:#000000" />
<polygon points="181,274 173,277 173,285 180,282 181,274 " style="fill:#ffffff" />
<line x1="239" y1="274" x2="184" y2="460" />
<circle cx="235" cy="287" r="5" style="fill:#ffffff" />
<circle cx="230" cy="302" r="5" style="fill:#000000" />
<circle cx="230" cy="302" r="2" style="fill:#000000" />
<polygon points="239,274 233,280 236,287 241,282 239,274 " style="fill:#ffffff" />
<line x1="136" y1="274" x2="87" y2="317" />
<circle cx="125" cy="283" r="5" style="fill:#ffffff" />
<circle cx="113" cy="293" r="5" style="fill:#000000" />
<circle cx="113" cy="293" r="2" style="fill:#000000" />
<polygon points="136,274 128,275 126,283 134,282 136,274 " style="fill:#ffffff" />
<line x1="519" y1="118" x2="564" y2="112" />
<circle cx="532" cy="116" r="5" style="fill:#ffffff" />
<circle cx="548" cy="114" r="5" style="fill:#000000" />
<circle cx="548" cy="114" r="2" style="fill:#000000" />
<polygon points="519,118 527,121 532,117 526,113 519,118 " style="fill:#000000" />
<line x1="492" y1="274" x2="668" y2="374" />
<circle cx="504" cy="280" r="5" style="fill:#ffffff" />
<circle cx="518" cy="288" r="5" style="fill:#000000" />
<circle cx="518" cy="288" r="2" style="fill:#000000" />
<polygon points="492,274 496,281 504,280 500,274 492,274 " style="fill:#000000" />
<line x1="286" y1="274" x2="295" y2="360" />
<circle cx="287" cy="287" r="5" style="fill:#ffffff" />
<circle cx="289" cy="303" r="5" style="fill:#000000" />
<circle cx="289" cy="303" r="2" style="fill:#000000" />
<polygon points="286,274 283,282 287,287 291,281 286,274 " style="fill:#000000" />
<line x1="375" y1="274" x2="541" y2="480" />
<circle cx="383" cy="284" r="5" style="fill:#ffffff" />
<circle cx="393" cy="297" r="5" style="fill:#000000" />
<circle cx="393" cy="297" r="2" style="fill:#000000" />
<polygon points="375,274 376,282 383,284 383,277 375,274 " style="fill:#000000" />
<line x1="324" y1="274" x2="381" y2="412" />
<circle cx="329" cy="286" r="5" style="fill:#ffffff" />
<line x1="430" y1="274" x2="551" y2="371" />
<circle cx="440" cy="282" r="5" style="fill:#ffffff" />
<line x1="242" y1="274" x2="174" y2="528" />
<circle cx="238" cy="287" r="5" style="fill:#ffffff" />
<line x1="219" y1="274" x2="185" y2="346" />
<circle cx="213" cy="286" r="5" style="fill:#ffffff" />
<line x1="519" y1="240" x2="566" y2="258" />
<circle cx="532" cy="245" r="5" style="fill:#ffffff" />
<line x1="519" y1="82" x2="636" y2="49" />
<circle cx="532" cy="78" r="5" style="fill:#ffffff" />
<line x1="288" y1="274" x2="313" y2="497" />
<circle cx="289" cy="287" r="5" style="fill:#ffffff" />
<line x1="182" y1="733" x2="74" y2="433" />
<polygon points="182,733 184,724 181,730 174,728 182,733 " style="fill:#ffffff" />
<circle cx="177" cy="719" r="5" style="fill:#ffffff" />
<circle cx="174" cy="713" r="2" style="fill:#ffffff" />
<line x1="224" y1="733" x2="294" y2="386" />
<circle cx="226" cy="719" r="5" style="fill:#ffffff" />
<circle cx="229" cy="703" r="5" style="fill:#000000" />
<circle cx="229" cy="703" r="2" style="fill:#000000" />
<line x1="244" y1="733" x2="380" y2="446" />
<circle cx="249" cy="720" r="5" style="fill:#ffffff" />
<line x1="97" y1="433" x2="154" y2="460" />
<circle cx="109" cy="438" r="5" style="fill:#ffffff" />
<circle cx="124" cy="445" r="5" style="fill:#000000" />
<circle cx="124" cy="445" r="2" style="fill:#000000" />
<line x1="108" y1="413" x2="261" y2="380" />
<circle cx="121" cy="410" r="5" style="fill:#ffffff" />
<circle cx="137" cy="406" r="5" style="fill:#000000" />
<circle cx="137" cy="406" r="2" style="fill:#000000" />
<line x1="172" y1="460" x2="82" y2="343" />
<circle cx="153" cy="436" r="5" style="fill:#000000" />
<circle cx="153" cy="436" r="2" style="fill:#000000" />
<polygon points="172,460 171,452 164,449 164,457 172,460 " style="fill:#000000" />
<line x1="195" y1="460" x2="282" y2="386" />
<circle cx="205" cy="450" r="5" style="fill:#ffffff" />
<circle cx="217" cy="440" r="5" style="fill:#000000" />
<circle cx="217" cy="440" r="2" style="fill:#000000" />
<polygon points="195,460 203,459 205,451 198,452 195,460 " style="fill:#000000" />
<line x1="116" y1="341" x2="139" y2="348" />
<polygon points="116,341 122,348 119,342 125,338 116,341 " style="fill:#ffffff" />
<circle cx="129" cy="345" r="5" style="fill:#ffffff" />
<circle cx="136" cy="347" r="2" style="fill:#ffffff" />
<line x1="116" y1="329" x2="566" y2="309" />
<circle cx="552" cy="309" r="5" style="fill:#ffffff" />
<circle cx="536" cy="310" r="5" style="fill:#000000" />
<circle cx="536" cy="310" r="2" style="fill:#000000" />
<polygon points="566,309 559,305 553,309 559,313 566,309 " style="fill:#ffffff" />
<line x1="648" y1="124" x2="677" y2="246" />
<circle cx="654" cy="153" r="5" style="fill:#000000" />
<circle cx="654" cy="153" r="2" style="fill:#000000" />
<polygon points="648,124 646,132 651,137 654,130 648,124 " style="fill:#000000" />
<line x1="655" y1="80" x2="675" y2="49" />
<circle cx="662" cy="68" r="5" style="fill:#ffffff" />
<circle cx="658" cy="74" r="5" style="fill:#ffffff" />
<circle cx="658" cy="74" r="2" style="fill:#ffffff" />
<polygon points="675,49 664,56 673,62 675,49 " style="fill:#ffffff" />
<line x1="682" y1="400" x2="626" y2="480" />
<polygon points="626,480 635,477 628,477 626,471 626,480 " style="fill:#ffffff" />
<circle cx="634" cy="468" r="5" style="fill:#ffffff" />
<circle cx="643" cy="455" r="5" style="fill:#000000" />
<circle cx="643" cy="455" r="2" style="fill:#000000" />
<line x1="655" y1="387" x2="602" y2="384" />
<circle cx="615" cy="384" r="5" style="fill:#ffffff" />
<line x1="588" y1="596" x2="591" y2="676" />
<circle cx="588" cy="609" r="5" style="fill:#ffffff" />
<circle cx="589" cy="625" r="5" style="fill:#000000" />
<circle cx="589" cy="625" r="2" style="fill:#000000" />
<polygon points="588,596 584,603 588,609 592,603 588,596 " style="fill:#000000" />
<line x1="568" y1="480" x2="554" y2="442" />
<circle cx="563" cy="466" r="5" style="fill:#ffffff" />
<circle cx="564" cy="470" r="5" style="fill:#ffffff" />
<circle cx="564" cy="470" r="2" style="fill:#ffffff" />
<polygon points="554,442 554,455 563,452 554,442 " style="fill:#ffffff" />
<line x1="504" y1="596" x2="460" y2="626" />
<polygon points="504,596 495,596 501,598 501,605 504,596 " style="fill:#ffffff" />
<circle cx="492" cy="603" r="5" style="fill:#ffffff" />
<circle cx="479" cy="612" r="5" style="fill:#000000" />
<circle cx="479" cy="612" r="2" style="fill:#000000" />
<line x1="668" y1="480" x2="722" y2="442" />
<circle cx="679" cy="471" r="5" style="fill:#ffffff" />
<line x1="570" y1="596" x2="524" y2="748" />
<circle cx="565" cy="609" r="5" style="fill:#ffffff" />
<line x1="588" y1="429" x2="705" y2="429" />
<circle cx="602" cy="429" r="5" style="fill:#ffffff" />
<circle cx="618" cy="429" r="5" style="fill:#000000" />
<circle cx="618" cy="429" r="2" style="fill:#000000" />
<line x1="554" y1="416" x2="563" y2="397" />
<circle cx="557" cy="409" r="5" style="fill:#ffffff" />
<line x1="261" y1="538" x2="301" y2="513" />
<circle cx="272" cy="530" r="5" style="fill:#ffffff" />
<line x1="221" y1="355" x2="566" y2="317" />
<circle cx="552" cy="318" r="5" style="fill:#ffffff" />
<line x1="689" y1="246" x2="682" y2="49" />
</g>
</svg>