<svg xmlns="http://www.w3.org/2000/svg" version="1.1" width="444" height="270">
<g  fill="#f5f5ff" stroke="rgb(0,0,0)" style="stroke-width:1">
<rect x="27" y="168" width="76" height="24" />
<line x1="27" y1="168" x2="103" y2="168" />
<line x1="27" y1="168" x2="103" y2="168" />
</g>
<g font-size="10">
<text x="28" y="177">CppParser</text>
<text x="28" y="187">/oovCppParser/</text>
</g>
<g  fill="#f5f5ff" stroke="rgb(0,0,0)" style="stroke-width:1">
<rect x="23" y="18" width="238" height="117" />
<line x1="23" y1="40" x2="261" y2="40" />
<line x1="23" y1="61" x2="261" y2="61" />
</g>
<g font-size="10">
<text x="24" y="27">ModelWriter</text>
<text x="24" y="37">/oovCppParser/</text>
<text x="24" y="49">-FILE mFp</text>
<text x="24" y="58">-ModelData mModelData</text>
<text x="24" y="70">+ModelWriter(ModelData modelData)</text>
<text x="24" y="79">+writeFile(char   const filename)</text>
<text x="24" y="88">+~ModelWriter()</text>
<text x="24" y="97">-openFile(char   const filename)</text>
<text x="24" y="106">-getObjectModelId(std::string name)</text>
<text x="24" y="115">-writeType(ModelType type)</text>
<text x="24" y="124">-writeStatements(ModelStatement stmts, int level)</text>
<text x="24" y="133">-writeAssociation(ModelAssociation assoc)</text>
</g>
<g  fill="#f5f5ff" stroke="rgb(0,0,0)" style="stroke-width:1">
<rect x="203" y="246" width="71" height="24" />
<line x1="203" y1="246" x2="274" y2="246" />
<line x1="203" y1="246" x2="274" y2="246" />
</g>
<g font-size="10">
<text x="204" y="255">ModelData</text>
<text x="204" y="265">/oovCommon/</text>
</g>
<g  fill="#f5f5ff" stroke="rgb(0,0,0)" style="stroke-width:1">
<rect x="373" y="164" width="71" height="24" />
<line x1="373" y1="164" x2="444" y2="164" />
<line x1="373" y1="164" x2="444" y2="164" />
</g>
<g font-size="10">
<text x="374" y="173">ModelType</text>
<text x="374" y="183">/oovCommon/</text>
</g>
<g  fill="#f5f5ff" stroke="rgb(0,0,0)" style="stroke-width:1">
<rect x="252" y="163" width="83" height="24" />
<line x1="252" y1="163" x2="335" y2="163" />
<line x1="252" y1="163" x2="335" y2="163" />
</g>
<g font-size="10">
<text x="253" y="172">ModelStatement</text>
<text x="253" y="182">/oovcde/</text>
</g>
<g  fill="#f5f5ff" stroke="rgb(0,0,0)" style="stroke-width:1">
<rect x="341" y="65" width="86" height="24" />
<line x1="341" y1="65" x2="427" y2="65" />
<line x1="341" y1="65" x2="427" y2="65" />
</g>
<g font-size="10">
<text x="342" y="74">ModelAssociation</text>
<text x="342" y="84">/oovcde/</text>
</g>
<g  fill="#f5f5ff" stroke="rgb(0,0,0)" style="stroke-width:1">
<line x1="73" y1="168" x2="100" y2="134" />
<circle cx="81" cy="157" r="5" style="fill:#ffffff" />
<line x1="91" y1="192" x2="212" y2="246" />
<polygon points="91,192 96,199 107,199 99,192 91,192 " style="fill:#000000" />
<circle cx="118" cy="204" r="5" style="fill:#000000" />
<circle cx="118" cy="204" r="2" style="fill:#000000" />
<line x1="172" y1="134" x2="232" y2="246" />
<polygon points="172,134 172,142 180,149 179,138 172,134 " style="fill:#ffffff" />
<polygon points="179,148 178,159 181,151 189,153 179,148 " style="fill:#ffffff" />
<circle cx="186" cy="160" r="5" style="fill:#000000" />
<circle cx="186" cy="160" r="2" style="fill:#000000" />
<line x1="261" y1="120" x2="377" y2="164" />
<polygon points="265,121 271,130 269,123 275,120 265,121 " style="fill:#ffffff" />
<circle cx="278" cy="126" r="5" style="fill:#ffffff" />
<circle cx="284" cy="128" r="2" style="fill:#ffffff" />
<line x1="230" y1="134" x2="275" y2="163" />
<polygon points="234,136 238,146 237,138 244,136 234,136 " style="fill:#ffffff" />
<circle cx="245" cy="144" r="5" style="fill:#ffffff" />
<circle cx="251" cy="147" r="2" style="fill:#ffffff" />
<line x1="261" y1="76" x2="341" y2="77" />
<polygon points="265,76 274,82 269,76 274,71 265,76 " style="fill:#ffffff" />
<circle cx="279" cy="76" r="5" style="fill:#ffffff" />
<circle cx="285" cy="76" r="2" style="fill:#ffffff" />
<line x1="262" y1="246" x2="384" y2="188" />
<circle cx="279" cy="237" r="5" style="fill:#ffffff" />
<circle cx="284" cy="235" r="2" style="fill:#ffffff" />
<line x1="245" y1="246" x2="286" y2="187" />
<circle cx="255" cy="230" r="5" style="fill:#ffffff" />
<circle cx="259" cy="225" r="2" style="fill:#ffffff" />
</g>
</svg>