<svg xmlns="http://www.w3.org/2000/svg" version="1.1" width="587" height="360">
<g  fill="#f5fff5" stroke="#000000" style="stroke-width:1">
<rect x="41" y="29" width="241" height="143" />
<line x1="41" y1="50" x2="282" y2="50" />
<line x1="41" y1="71" x2="282" y2="71" />
</g>
<g font-size="10.000000" stroke="none">
<text x="42" y="38">ModelWriter</text>
<text x="42" y="47">/oovCppParser/</text>
<text x="42" y="59">-FILE mFp</text>
<text x="42" y="68">-ModelData mModelData</text>
<text x="42" y="80">+bool writeFile(OovStringRef filename)</text>
<text x="42" y="89">-bool openFile(OovStringRef filename)</text>
<text x="42" y="98">-int getObjectModelId(string name)</text>
<text x="42" y="107">-void writeType(ModelType type)</text>
<text x="42" y="116">-void writeClassDefinition(ModelClassifier classifier</text>
<text x="42" y="125">   , bool isClassDef)</text>
<text x="42" y="134">-void writeOperation(ModelOperation oper)</text>
<text x="42" y="143">-void writeStatements(ModelStatements stmts)</text>
<text x="42" y="152">-void writeAssociation(ModelAssociation assoc)</text>
<text x="42" y="161">+void ModelWriter(ModelData modelData)</text>
<text x="42" y="170">+void ~ModelWriter()</text>
</g>
<g  fill="#f5fff5" stroke="#000000" style="stroke-width:1">
<rect x="299" y="330" width="71" height="26" />
<line x1="299" y1="351" x2="370" y2="351" />
<line x1="299" y1="354" x2="370" y2="354" />
</g>
<g font-size="10.000000" stroke="none">
<text x="300" y="339">ModelData</text>
<text x="300" y="348">/oovCommon/</text>
</g>
<g  fill="#f5fff5" stroke="#000000" style="stroke-width:1">
<rect x="52" y="333" width="76" height="26" />
<line x1="52" y1="354" x2="128" y2="354" />
<line x1="52" y1="357" x2="128" y2="357" />
</g>
<g font-size="10.000000" stroke="none">
<text x="53" y="342">CppParser</text>
<text x="53" y="351">/oovCppParser/</text>
</g>
<g  fill="#f5fff5" stroke="#000000" style="stroke-width:1">
<rect x="368" y="158" width="71" height="26" />
<line x1="368" y1="179" x2="439" y2="179" />
<line x1="368" y1="182" x2="439" y2="182" />
</g>
<g font-size="10.000000" stroke="none">
<text x="369" y="167">ModelType</text>
<text x="369" y="176">/oovCommon/</text>
</g>
<g  fill="#f5fff5" stroke="#000000" style="stroke-width:1">
<rect x="510" y="144" width="76" height="26" />
<line x1="510" y1="165" x2="586" y2="165" />
<line x1="510" y1="168" x2="586" y2="168" />
</g>
<g font-size="10.000000" stroke="none">
<text x="511" y="153">ModelClassifier</text>
<text x="511" y="162">/oovCommon/</text>
</g>
<g  fill="#f5fff5" stroke="#000000" style="stroke-width:1">
<rect x="484" y="265" width="80" height="26" />
<line x1="484" y1="286" x2="564" y2="286" />
<line x1="484" y1="289" x2="564" y2="289" />
</g>
<g font-size="10.000000" stroke="none">
<text x="485" y="274">ModelOperation</text>
<text x="485" y="283">/oovCommon/</text>
</g>
<g  fill="#f5fff5" stroke="#000000" style="stroke-width:1">
<rect x="257" y="202" width="87" height="26" />
<line x1="257" y1="223" x2="344" y2="223" />
<line x1="257" y1="226" x2="344" y2="226" />
</g>
<g font-size="10.000000" stroke="none">
<text x="258" y="211">ModelStatements</text>
<text x="258" y="220">/oovCommon/</text>
</g>
<g  fill="#f5fff5" stroke="#000000" style="stroke-width:1">
<rect x="375" y="33" width="86" height="26" />
<line x1="375" y1="54" x2="461" y2="54" />
<line x1="375" y1="57" x2="461" y2="57" />
</g>
<g font-size="10.000000" stroke="none">
<text x="376" y="42">ModelAssociation</text>
<text x="376" y="51">/oovCommon/</text>
</g>
<g  fill="#f5f5ff" stroke="#000000" style="stroke-width:1">
<line x1="211" y1="171" x2="325" y2="330" />
<polygon points="211,171 211,180 213,174 220,174 211,171 " style="fill:#ffffff" />
<circle cx="219" cy="182" r="5" style="fill:#ffffff" />
<circle cx="228" cy="195" r="5" style="fill:#000000" />
<circle cx="228" cy="195" r="2" style="fill:#000000" />
<polygon points="211,171 211,179 219,182 219,174 211,171 " style="fill:#ffffff" />
<line x1="141" y1="171" x2="93" y2="333" />
<circle cx="96" cy="319" r="5" style="fill:#ffffff" />
<line x1="281" y1="135" x2="368" y2="161" />
<polygon points="281,135 287,142 284,136 290,132 281,135 " style="fill:#ffffff" />
<circle cx="294" cy="139" r="5" style="fill:#ffffff" />
<circle cx="301" cy="141" r="2" style="fill:#ffffff" />
<line x1="281" y1="117" x2="510" y2="152" />
<polygon points="281,117 288,124 284,117 289,113 281,117 " style="fill:#ffffff" />
<circle cx="294" cy="119" r="5" style="fill:#ffffff" />
<circle cx="301" cy="120" r="2" style="fill:#ffffff" />
<line x1="281" y1="158" x2="498" y2="265" />
<polygon points="281,158 285,166 284,159 290,157 281,158 " style="fill:#ffffff" />
<circle cx="293" cy="164" r="5" style="fill:#ffffff" />
<circle cx="299" cy="167" r="2" style="fill:#ffffff" />
<line x1="246" y1="171" x2="285" y2="202" />
<polygon points="246,171 248,180 249,173 255,171 246,171 " style="fill:#ffffff" />
<circle cx="256" cy="179" r="5" style="fill:#ffffff" />
<circle cx="262" cy="184" r="2" style="fill:#ffffff" />
<line x1="281" y1="75" x2="375" y2="55" />
<polygon points="281,75 290,79 284,75 287,68 281,75 " style="fill:#ffffff" />
<circle cx="294" cy="72" r="5" style="fill:#ffffff" />
<circle cx="301" cy="70" r="2" style="fill:#ffffff" />
<line x1="299" y1="343" x2="128" y2="346" />
<circle cx="157" cy="345" r="5" style="fill:#000000" />
<circle cx="157" cy="345" r="2" style="fill:#000000" />
<polygon points="128,346 135,350 141,346 135,342 128,346 " style="fill:#000000" />
<line x1="339" y1="330" x2="398" y2="184" />
<polygon points="339,330 347,325 340,327 337,321 339,330 " style="fill:#ffffff" />
<circle cx="344" cy="317" r="5" style="fill:#ffffff" />
<circle cx="346" cy="310" r="2" style="fill:#ffffff" />
<line x1="348" y1="330" x2="534" y2="170" />
<circle cx="358" cy="320" r="5" style="fill:#ffffff" />
<circle cx="363" cy="316" r="2" style="fill:#ffffff" />
<line x1="331" y1="330" x2="303" y2="228" />
<circle cx="327" cy="316" r="5" style="fill:#ffffff" />
<circle cx="325" cy="309" r="2" style="fill:#ffffff" />
<line x1="121" y1="333" x2="517" y2="170" />
<circle cx="148" cy="321" r="5" style="fill:#000000" />
<circle cx="148" cy="321" r="2" style="fill:#000000" />
<polygon points="121,333 129,334 133,328 126,326 121,333 " style="fill:#ffffff" />
<line x1="128" y1="341" x2="484" y2="284" />
<circle cx="141" cy="338" r="5" style="fill:#ffffff" />
<circle cx="157" cy="336" r="5" style="fill:#000000" />
<circle cx="157" cy="336" r="2" style="fill:#000000" />
<polygon points="128,341 136,344 141,339 134,336 128,341 " style="fill:#ffffff" />
<line x1="110" y1="333" x2="280" y2="228" />
<circle cx="135" cy="317" r="5" style="fill:#000000" />
<circle cx="135" cy="317" r="2" style="fill:#000000" />
<polygon points="110,333 118,333 121,326 114,326 110,333 " style="fill:#ffffff" />
<line x1="438" y1="168" x2="510" y2="160" />
<circle cx="467" cy="164" r="5" style="fill:#ffffff" />
<circle cx="467" cy="164" r="2" style="fill:#ffffff" />
<polygon points="438,168 451,171 450,162 438,168 " style="fill:#ffffff" />
<polygon points="510,160 502,156 507,160 503,166 510,160 " style="fill:#ffffff" />
<circle cx="496" cy="161" r="5" style="fill:#ffffff" />
<circle cx="489" cy="162" r="2" style="fill:#ffffff" />
<line x1="417" y1="184" x2="510" y2="265" />
<polygon points="510,265 508,256 507,263 501,265 510,265 " style="fill:#ffffff" />
<circle cx="499" cy="255" r="5" style="fill:#ffffff" />
<circle cx="494" cy="251" r="2" style="fill:#ffffff" />
<line x1="546" y1="170" x2="526" y2="265" />
<circle cx="543" cy="183" r="5" style="fill:#ffffff" />
<circle cx="541" cy="190" r="2" style="fill:#ffffff" />
<line x1="533" y1="144" x2="433" y2="59" />
<polygon points="433,59 435,68 436,61 442,59 433,59 " style="fill:#ffffff" />
<circle cx="443" cy="68" r="5" style="fill:#ffffff" />
<circle cx="455" cy="78" r="5" style="fill:#000000" />
<circle cx="455" cy="78" r="2" style="fill:#000000" />
<polygon points="433,59 436,67 443,68 441,60 433,59 " style="fill:#ffffff" />
<line x1="484" y1="267" x2="343" y2="227" />
<circle cx="455" cy="258" r="5" style="fill:#000000" />
<circle cx="455" cy="258" r="2" style="fill:#000000" />
<polygon points="484,267 478,261 471,264 476,269 484,267 " style="fill:#000000" />
</g>
</svg>