<svg xmlns="http://www.w3.org/2000/svg" version="1.1"
 font-family="Arial, Helvetica, sans-serif" font-size="10.00" width="510" height="566" viewbox="0 0 510 566">
<g  fill="#f5fff5" stroke="#000000" style="stroke-width:1">
<rect x="380" y="22" width="129" height="143" />
<line x1="380" y1="35" x2="509" y2="35" />
<polygon points="493,43 505,48 505,38 493,43 " style="fill:#ffffff" />
<polygon points="493,57 500,61 507,57 500,53 493,57 " style="fill:#ffffff" />
<polygon points="493,71 500,75 507,71 500,67 493,71 " style="fill:#000000" />
<polygon points="493,85 501,90 497,85 501,80 493,85 " style="fill:#ffffff" />
<circle cx="493" cy="99" r="5" style="fill:#ffffff" />
<circle cx="493" cy="113" r="5" style="fill:#ffffff" />
<circle cx="500" cy="113" r="2" style="fill:#ffffff" />
<circle cx="493" cy="127" r="5" style="fill:#ffffff" />
<circle cx="493" cy="127" r="2" style="fill:#ffffff" />
<circle cx="493" cy="141" r="5" style="fill:#ffffff" />
<circle cx="493" cy="141" r="2" style="fill:#000000" />
<circle cx="493" cy="155" r="5" style="fill:#000000" />
<circle cx="493" cy="155" r="2" style="fill:#000000" />
</g>
<g stroke="none">
<text x="381" y="31">Relations Key</text>
<text x="381" y="45">Generalization</text>
<text x="381" y="59">Aggregation(reference)</text>
<text x="381" y="73">Composition(owned)</text>
<text x="381" y="87">Const</text>
<text x="381" y="101">Method Variable</text>
<text x="381" y="115">Method Parameter</text>
<text x="381" y="129">Public</text>
<text x="381" y="143">Protected</text>
<text x="381" y="157">Private</text>
</g>
<g  fill="#f5fff5" stroke="#000000" style="stroke-width:1">
<rect x="22" y="21" width="331" height="296" />
<line x1="22" y1="42" x2="353" y2="42" />
<line x1="22" y1="72" x2="353" y2="72" />
</g>
<g stroke="none">
<text x="23" y="30">ModelWriter</text>
<text x="23" y="39">oovJavaParser</text>
<text x="23" y="51">-File mFile</text>
<text x="23" y="60">-ModelData mModelData</text>
<text x="23" y="69">+java.util.HashMap mTypeIndices</text>
<text x="23" y="81">+writeFile(OovStringRef filename)</text>
<text x="23" y="90">+~ModelWriter()</text>
<text x="23" y="99">-openFile(OovStringRef filename)</text>
<text x="23" y="108">-getObjectModelId(string&lt;&lt;typedef&gt;&gt; name)</text>
<text x="23" y="117">-writeType(ModelType type)</text>
<text x="23" y="126">-writeClassDefinition(ModelClassifier classifier, bool isClassDef)</text>
<text x="23" y="135">-writeOperation(ModelClassifier classifier, ModelOperation oper)</text>
<text x="23" y="144">-writeStatements(ModelStatements stmts)</text>
<text x="23" y="153">-writeAssociation(ModelAssociation assoc)</text>
<text x="23" y="162">+ModelWriter(ModelData modelData)</text>
<text x="23" y="171">-writeImportDependencies(model.ModelData model, java.lang.String </text>
<text x="30" y="180">absSrcFn, java.lang.String srcRootDir, java.lang.String outDir)</text>
<text x="23" y="189">-getAnalysisIncDepsFilename(java.lang.String outDir)</text>
<text x="23" y="198">-&lt;init&gt;()</text>
<text x="23" y="207">-getImportStr(model.ModelData model, java.lang.String srcRootDir,</text>
<text x="30" y="216"> java.lang.String absSrcFn)</text>
<text x="23" y="225">-ensureLastPathSep(java.lang.String dir)</text>
<text x="23" y="234">-write(model.ModelData model, java.lang.String outFileName)</text>
<text x="23" y="243">-getTypeIndexStr(model.ModelType type)</text>
<text x="23" y="252">-writeMethodParams(XmlFile file, model.ModelMethod method)</text>
<text x="23" y="261">-writeAssoc(XmlFile file, model.ModelType type)</text>
<text x="23" y="270">-writeMethods(XmlFile file, model.ModelType type)</text>
<text x="23" y="279">-writeMemberVars(XmlFile file, model.ModelType type)</text>
<text x="23" y="288">-sleepMs()</text>
<text x="23" y="297">-translate(java.lang.String str)</text>
<text x="23" y="306">-writeClass(XmlFile file, model.ModelType type)</text>
<text x="23" y="315">-outXml(java.lang.String str)</text>
</g>
<g stroke="none" font-style="italic">
</g>
<g  fill="#f5fff5" stroke="#000000" style="stroke-width:1">
<rect x="138" y="388" width="63" height="26" />
<line x1="138" y1="409" x2="201" y2="409" />
<line x1="138" y1="412" x2="201" y2="412" />
</g>
<g stroke="none">
<text x="139" y="397">ModelData</text>
<text x="139" y="406">oovCommon</text>
</g>
<g stroke="none" font-style="italic">
</g>
<g  fill="#f5fff5" stroke="#000000" style="stroke-width:1">
<rect x="400" y="386" width="63" height="26" />
<line x1="400" y1="407" x2="463" y2="407" />
<line x1="400" y1="410" x2="463" y2="410" />
</g>
<g stroke="none">
<text x="401" y="395">ModelType</text>
<text x="401" y="404">oovCommon</text>
</g>
<g stroke="none" font-style="italic">
</g>
<g  fill="#f5fff5" stroke="#000000" style="stroke-width:1">
<rect x="236" y="411" width="76" height="26" />
<line x1="236" y1="432" x2="312" y2="432" />
<line x1="236" y1="435" x2="312" y2="435" />
</g>
<g stroke="none">
<text x="237" y="420">ModelClassifier</text>
<text x="237" y="429">oovCommon</text>
</g>
<g stroke="none" font-style="italic">
</g>
<g  fill="#f5fff5" stroke="#000000" style="stroke-width:1">
<rect x="30" y="490" width="80" height="26" />
<line x1="30" y1="511" x2="110" y2="511" />
<line x1="30" y1="514" x2="110" y2="514" />
</g>
<g stroke="none">
<text x="31" y="499">ModelOperation</text>
<text x="31" y="508">oovCommon</text>
</g>
<g stroke="none" font-style="italic">
</g>
<g  fill="#f5fff5" stroke="#000000" style="stroke-width:1">
<rect x="319" y="539" width="87" height="26" />
<line x1="319" y1="560" x2="406" y2="560" />
<line x1="319" y1="563" x2="406" y2="563" />
</g>
<g stroke="none">
<text x="320" y="548">ModelStatements</text>
<text x="320" y="557">oovCommon</text>
</g>
<g stroke="none" font-style="italic">
</g>
<g  fill="#f5fff5" stroke="#000000" style="stroke-width:1">
<rect x="395" y="336" width="86" height="26" />
<line x1="395" y1="357" x2="481" y2="357" />
<line x1="395" y1="360" x2="481" y2="360" />
</g>
<g stroke="none">
<text x="396" y="345">ModelAssociation</text>
<text x="396" y="354">oovCommon</text>
</g>
<g stroke="none" font-style="italic">
</g>
<g  fill="#f5fff5" stroke="#000000" style="stroke-width:1">
<rect x="439" y="501" width="69" height="26" />
<line x1="439" y1="522" x2="508" y2="522" />
<line x1="439" y1="525" x2="508" y2="525" />
</g>
<g stroke="none">
<text x="440" y="510">ModelModule</text>
<text x="440" y="519">oovCommon</text>
</g>
<g stroke="none" font-style="italic">
</g>
<g  fill="#f5fff5" stroke="#000000" style="stroke-width:1">
<rect x="21" y="362" width="74" height="26" />
<line x1="21" y1="383" x2="95" y2="383" />
<line x1="21" y1="386" x2="95" y2="386" />
</g>
<g stroke="none">
<text x="22" y="371">ModelTypeRef</text>
<text x="22" y="380">oovCommon</text>
</g>
<g stroke="none" font-style="italic">
</g>
<g  fill="#f5fff5" stroke="#000000" style="stroke-width:1">
<rect x="370" y="462" width="73" height="26" />
<line x1="370" y1="483" x2="443" y2="483" />
<line x1="370" y1="486" x2="443" y2="486" />
</g>
<g stroke="none">
<text x="371" y="471">ModelAttribute</text>
<text x="371" y="480">oovCommon</text>
</g>
<g stroke="none" font-style="italic">
</g>
<g  fill="#f5fff5" stroke="#000000" style="stroke-width:1">
<rect x="171" y="522" width="83" height="26" />
<line x1="171" y1="543" x2="254" y2="543" />
<line x1="171" y1="546" x2="254" y2="546" />
</g>
<g stroke="none">
<text x="172" y="531">ModelStatement</text>
<text x="172" y="540">oovCommon</text>
</g>
<g stroke="none" font-style="italic">
</g>
<g  fill="#f5fff5" stroke="#000000" style="stroke-width:1">
<rect x="404" y="253" width="84" height="26" />
<line x1="404" y1="274" x2="488" y2="274" />
<line x1="404" y1="277" x2="488" y2="277" />
</g>
<g stroke="none">
<text x="405" y="262">ParserModelData</text>
<text x="405" y="271">oovCppParser</text>
</g>
<g stroke="none" font-style="italic">
</g>
<g  fill="#f5f5ff" stroke="#000000" style="stroke-width:1">
<line x1="176" y1="317" x2="170" y2="388" />
<polygon points="176,317 170,324 176,320 181,325 176,317 " style="fill:#ffffff" />
<circle cx="174" cy="330" r="5" style="fill:#ffffff" />
<circle cx="174" cy="337" r="2" style="fill:#ffffff" />
<circle cx="173" cy="346" r="5" style="fill:#000000" />
<circle cx="173" cy="346" r="2" style="fill:#000000" />
<polygon points="176,317 171,324 175,330 179,325 176,317 " style="fill:#ffffff" />
<line x1="344" y1="317" x2="418" y2="386" />
<polygon points="344,317 345,326 346,319 353,318 344,317 " style="fill:#ffffff" />
<circle cx="354" cy="326" r="5" style="fill:#ffffff" />
<circle cx="359" cy="331" r="2" style="fill:#ffffff" />
<line x1="237" y1="317" x2="270" y2="411" />
<polygon points="237,317 235,326 238,320 245,322 237,317 " style="fill:#ffffff" />
<circle cx="241" cy="330" r="5" style="fill:#ffffff" />
<circle cx="243" cy="336" r="2" style="fill:#ffffff" />
<line x1="136" y1="317" x2="74" y2="490" />
<polygon points="136,317 128,322 135,320 138,326 136,317 " style="fill:#ffffff" />
<circle cx="131" cy="330" r="5" style="fill:#ffffff" />
<circle cx="128" cy="336" r="2" style="fill:#ffffff" />
<line x1="254" y1="317" x2="357" y2="539" />
<polygon points="254,317 253,326 255,320 262,321 254,317 " style="fill:#ffffff" />
<circle cx="259" cy="329" r="5" style="fill:#ffffff" />
<circle cx="262" cy="336" r="2" style="fill:#ffffff" />
<line x1="352" y1="287" x2="420" y2="336" />
<polygon points="352,287 355,296 355,289 361,287 352,287 " style="fill:#ffffff" />
<circle cx="363" cy="295" r="5" style="fill:#ffffff" />
<circle cx="369" cy="299" r="2" style="fill:#ffffff" />
<line x1="309" y1="317" x2="463" y2="501" />
<circle cx="317" cy="327" r="5" style="fill:#ffffff" />
<line x1="95" y1="317" x2="66" y2="362" />
<circle cx="87" cy="328" r="5" style="fill:#ffffff" />
<line x1="292" y1="317" x2="397" y2="462" />
<circle cx="300" cy="328" r="5" style="fill:#ffffff" />
<line x1="197" y1="317" x2="212" y2="522" />
<circle cx="198" cy="330" r="5" style="fill:#ffffff" />
<line x1="352" y1="230" x2="412" y2="253" />
<circle cx="398" cy="247" r="5" style="fill:#ffffff" />
<line x1="200" y1="401" x2="400" y2="399" />
<circle cx="213" cy="400" r="5" style="fill:#ffffff" />
<circle cx="220" cy="400" r="2" style="fill:#ffffff" />
<line x1="200" y1="407" x2="236" y2="416" />
<circle cx="213" cy="410" r="5" style="fill:#ffffff" />
<circle cx="220" cy="412" r="2" style="fill:#ffffff" />
<line x1="157" y1="414" x2="82" y2="490" />
<circle cx="147" cy="423" r="5" style="fill:#ffffff" />
<line x1="185" y1="414" x2="346" y2="539" />
<circle cx="196" cy="422" r="5" style="fill:#ffffff" />
<circle cx="201" cy="426" r="2" style="fill:#ffffff" />
<line x1="200" y1="396" x2="395" y2="357" />
<circle cx="213" cy="393" r="5" style="fill:#ffffff" />
<line x1="138" y1="394" x2="95" y2="383" />
<circle cx="124" cy="390" r="5" style="fill:#ffffff" />
<circle cx="117" cy="388" r="2" style="fill:#ffffff" />
<line x1="173" y1="414" x2="208" y2="522" />
<circle cx="177" cy="427" r="5" style="fill:#ffffff" />
<line x1="195" y1="388" x2="420" y2="279" />
<circle cx="407" cy="285" r="5" style="fill:#ffffff" />
<circle cx="393" cy="292" r="5" style="fill:#000000" />
<circle cx="393" cy="292" r="2" style="fill:#000000" />
<polygon points="420,279 412,279 408,285 415,286 420,279 " style="fill:#000000" />
<line x1="400" y1="403" x2="312" y2="418" />
<circle cx="370" cy="408" r="5" style="fill:#ffffff" />
<circle cx="370" cy="408" r="2" style="fill:#ffffff" />
<polygon points="400,403 387,400 389,410 400,403 " style="fill:#ffffff" />
<polygon points="312,418 320,422 315,418 318,411 312,418 " style="fill:#ffffff" />
<circle cx="325" cy="415" r="5" style="fill:#ffffff" />
<circle cx="332" cy="414" r="2" style="fill:#ffffff" />
<line x1="400" y1="407" x2="110" y2="492" />
<polygon points="110,492 119,495 113,491 116,485 110,492 " style="fill:#ffffff" />
<circle cx="123" cy="488" r="5" style="fill:#ffffff" />
<circle cx="130" cy="486" r="2" style="fill:#ffffff" />
<line x1="426" y1="412" x2="367" y2="539" />
<circle cx="372" cy="526" r="5" style="fill:#ffffff" />
<line x1="400" y1="398" x2="95" y2="377" />
<polygon points="95,377 102,383 98,377 103,372 95,377 " style="fill:#ffffff" />
<circle cx="108" cy="377" r="5" style="fill:#ffffff" />
<circle cx="115" cy="378" r="2" style="fill:#ffffff" />
<circle cx="124" cy="379" r="5" style="fill:#000000" />
<circle cx="124" cy="379" r="2" style="fill:#000000" />
<polygon points="95,377 102,382 108,377 103,374 95,377 " style="fill:#ffffff" />
<line x1="427" y1="412" x2="410" y2="462" />
<polygon points="410,462 418,457 411,459 408,453 410,462 " style="fill:#ffffff" />
<circle cx="414" cy="448" r="5" style="fill:#ffffff" />
<circle cx="416" cy="442" r="2" style="fill:#ffffff" />
<line x1="432" y1="386" x2="445" y2="279" />
<circle cx="443" cy="292" r="5" style="fill:#ffffff" />
<line x1="241" y1="437" x2="103" y2="490" />
<polygon points="241,437 232,435 238,438 236,445 241,437 " style="fill:#ffffff" />
<circle cx="227" cy="442" r="5" style="fill:#ffffff" />
<circle cx="221" cy="444" r="2" style="fill:#ffffff" />
<line x1="282" y1="437" x2="354" y2="539" />
<polygon points="354,539 354,530 352,536 345,536 354,539 " style="fill:#ffffff" />
<circle cx="345" cy="527" r="5" style="fill:#ffffff" />
<circle cx="341" cy="521" r="2" style="fill:#ffffff" />
<line x1="302" y1="411" x2="410" y2="362" />
<polygon points="410,362 401,360 407,363 406,370 410,362 " style="fill:#ffffff" />
<circle cx="397" cy="367" r="5" style="fill:#ffffff" />
<circle cx="390" cy="370" r="2" style="fill:#ffffff" />
<circle cx="382" cy="374" r="5" style="fill:#000000" />
<circle cx="382" cy="374" r="2" style="fill:#000000" />
<polygon points="410,362 402,362 398,367 405,369 410,362 " style="fill:#ffffff" />
<line x1="302" y1="437" x2="445" y2="501" />
<polygon points="302,437 306,445 305,438 311,435 302,437 " style="fill:#ffffff" />
<circle cx="314" cy="442" r="5" style="fill:#ffffff" />
<circle cx="321" cy="445" r="2" style="fill:#ffffff" />
<circle cx="329" cy="449" r="5" style="fill:#000000" />
<circle cx="329" cy="449" r="2" style="fill:#000000" />
<polygon points="302,437 307,444 314,442 310,437 302,437 " style="fill:#ffffff" />
<line x1="307" y1="437" x2="373" y2="462" />
<polygon points="307,437 312,445 310,438 316,435 307,437 " style="fill:#ffffff" />
<circle cx="320" cy="441" r="5" style="fill:#ffffff" />
<circle cx="326" cy="444" r="2" style="fill:#ffffff" />
<line x1="267" y1="437" x2="219" y2="522" />
<polygon points="267,437 258,441 266,440 268,446 267,437 " style="fill:#ffffff" />
<circle cx="260" cy="449" r="5" style="fill:#ffffff" />
<circle cx="256" cy="455" r="2" style="fill:#ffffff" />
<line x1="288" y1="411" x2="432" y2="279" />
<polygon points="432,279 423,280 430,281 431,288 432,279 " style="fill:#ffffff" />
<circle cx="421" cy="288" r="5" style="fill:#ffffff" />
<circle cx="416" cy="293" r="2" style="fill:#ffffff" />
<line x1="110" y1="509" x2="319" y2="545" />
<circle cx="139" cy="514" r="5" style="fill:#000000" />
<circle cx="139" cy="514" r="2" style="fill:#000000" />
<polygon points="110,509 116,514 123,511 118,506 110,509 " style="fill:#000000" />
<line x1="110" y1="504" x2="439" y2="514" />
<polygon points="110,504 117,510 113,504 118,499 110,504 " style="fill:#ffffff" />
<circle cx="123" cy="504" r="5" style="fill:#ffffff" />
<circle cx="130" cy="504" r="2" style="fill:#ffffff" />
<circle cx="139" cy="504" r="5" style="fill:#000000" />
<circle cx="139" cy="504" r="2" style="fill:#000000" />
<polygon points="110,504 117,508 123,504 117,500 110,504 " style="fill:#ffffff" />
<line x1="69" y1="490" x2="59" y2="388" />
<circle cx="67" cy="476" r="5" style="fill:#ffffff" />
<circle cx="66" cy="460" r="5" style="fill:#000000" />
<circle cx="66" cy="460" r="2" style="fill:#000000" />
<polygon points="69,490 72,482 68,477 64,483 69,490 " style="fill:#000000" />
<line x1="110" y1="512" x2="171" y2="526" />
<circle cx="123" cy="515" r="5" style="fill:#ffffff" />
<line x1="340" y1="539" x2="80" y2="388" />
<circle cx="327" cy="531" r="5" style="fill:#ffffff" />
<line x1="319" y1="548" x2="253" y2="539" />
<polygon points="319,548 312,542 316,548 311,552 319,548 " style="fill:#ffffff" />
<circle cx="305" cy="546" r="5" style="fill:#ffffff" />
<circle cx="298" cy="545" r="2" style="fill:#ffffff" />
<line x1="439" y1="336" x2="445" y2="279" />
<circle cx="443" cy="292" r="5" style="fill:#ffffff" />
<line x1="472" y1="501" x2="447" y2="279" />
<circle cx="448" cy="292" r="5" style="fill:#ffffff" />
<line x1="70" y1="388" x2="200" y2="522" />
<circle cx="190" cy="511" r="5" style="fill:#ffffff" />
<circle cx="179" cy="500" r="5" style="fill:#000000" />
<circle cx="179" cy="500" r="2" style="fill:#000000" />
<polygon points="200,522 198,514 191,512 192,520 200,522 " style="fill:#000000" />
</g>
</svg>