<svg xmlns="http://www.w3.org/2000/svg" version="1.1"
 font-family="Arial, Helvetica, sans-serif" font-size="10.00" width="684" height="849" viewbox="0 0 684 849">
<g  fill="#f5fff5" stroke="#000000" style="stroke-width:1">
<rect x="12" y="10" width="418" height="368" />
<line x1="12" y1="31" x2="430" y2="31" />
<line x1="12" y1="115" x2="430" y2="115" />
</g>
<g stroke="none">
<text x="13" y="19">ModelData</text>
<text x="13" y="28">oovCommon</text>
<text x="13" y="40">+std::vector&lt;std::unique_ptr&lt;ModelType,std::default_delete&lt;ModelType&gt; &gt;,</text>
<text x="20" y="49">std::allocator&lt;std::unique_ptr&lt;ModelType,std::default_delete&lt;ModelType&gt;</text>
<text x="20" y="58"> &gt; &gt; &gt; mTypes</text>
<text x="13" y="67">+std::vector&lt;std::unique_ptr&lt;ModelAssociation,std::default_delete&lt;ModelAssociatio</text>
<text x="20" y="76">n&gt; &gt;,std::allocator&lt;std::unique_ptr&lt;ModelAssociation,std::default_delete&lt;</text>
<text x="20" y="85">ModelAssociation&gt; &gt; &gt; &gt; mAssociations</text>
<text x="13" y="94">+std::vector&lt;std::unique_ptr&lt;ModelModule,std::default_delete&lt;ModelModule&gt;</text>
<text x="20" y="103"> &gt;,std::allocator&lt;std::unique_ptr&lt;ModelModule,std::default_delete&lt;ModelModule&gt;</text>
<text x="20" y="112"> &gt; &gt; &gt; mModules</text>
<text x="13" y="124">+clear()</text>
<text x="13" y="133">+resolveModelIds()</text>
<text x="13" y="142">+isTypeReferencedByDefinedObjects(ModelType type)</text>
<text x="13" y="151">+addType(std::unique_ptr&lt;ModelType,std::default_delete&lt;ModelType&gt; &gt; type)</text>
<text x="13" y="160">+findModuleById(id)</text>
<text x="13" y="169">+createOrGetTypeRef(OovStringRef typeName, eModelDataTypes otype)</text>
<text x="13" y="178">+createTypeRef(OovStringRef typeName, eModelDataTypes otype)</text>
<text x="13" y="187">+getTypeRef(OovStringRef typeName)</text>
<text x="13" y="196">+findType(OovStringRef typeName)</text>
<text x="13" y="205">+findType(OovStringRef typeName)</text>
<text x="13" y="214">+replaceType(ModelType existingType, ModelClassifier newType)</text>
<text x="13" y="223">+takeAttributes(ModelClassifier sourceType, ModelClassifier destType)</text>
<text x="13" y="232">+getRelatedTypeArgClasses(ModelType type, ConstModelClassifierVector classes)</text>
<text x="13" y="241">+getRelatedFuncInterfaceClasses(ModelClassifier type, ConstModelClassifierVector </text>
<text x="20" y="250">classes)</text>
<text x="13" y="259">+getRelatedFuncParamClasses(ModelClassifier type, ConstModelDeclClasses classes)</text>
<text x="13" y="268">+getRelatedBodyVarClasses(ModelClassifier type, ConstModelDeclClasses declclasses</text>
<text x="20" y="277">)</text>
<text x="13" y="286">+addBaseClasses(ModelClassifier type, ConstModelClassifierVector classes)</text>
<text x="13" y="295">+getBaseType(OovStringRef fullStr)</text>
<text x="13" y="304">-createDataType(eModelDataTypes type, string&lt;&lt;typedef&gt;&gt; id)</text>
<text x="13" y="313">-resolveStatements(TypeIdMap typeMap, ModelStatements stmt)</text>
<text x="13" y="322">-resolveDecl(TypeIdMap typeMap, ModelTypeRef decl)</text>
<text x="13" y="331">-isTypeReferencedByStatements(ModelStatements stmts, ModelType type)</text>
<text x="13" y="340">-dumpTypes()</text>
<text x="13" y="349">-replaceStatementType(ModelStatements stmts, ModelType existingType, ModelClassif</text>
<text x="20" y="358">ier newType)</text>
<text x="13" y="367">-eraseType(ModelType existingType)</text>
<text x="13" y="376">-findTemplateType(OovStringRef baseIdentName)</text>
</g>
<g stroke="none" font-style="italic">
</g>
<g  fill="#f5fff5" stroke="#000000" style="stroke-width:1">
<rect x="202" y="411" width="237" height="44" />
<line x1="202" y1="450" x2="439" y2="450" />
<line x1="202" y1="453" x2="439" y2="453" />
</g>
<g stroke="none">
<text x="203" y="420">std::vector&lt;std::unique_ptr&lt;ModelType,std::</text>
<text x="203" y="429">  default_delete&lt;ModelType&gt; &gt;,std::allocator&lt;</text>
<text x="203" y="438">  std::unique_ptr&lt;ModelType,std::default_delete&lt;</text>
<text x="203" y="447">  ModelType&gt; &gt; &gt; &gt;</text>
</g>
<g stroke="none" font-style="italic">
</g>
<g  fill="#f5fff5" stroke="#000000" style="stroke-width:1">
<rect x="476" y="175" width="202" height="53" />
<line x1="476" y1="223" x2="678" y2="223" />
<line x1="476" y1="226" x2="678" y2="226" />
</g>
<g stroke="none">
<text x="477" y="184">std::vector&lt;std::unique_ptr&lt;ModelAssociat</text>
<text x="477" y="193">  ion,std::default_delete&lt;ModelAssociatio</text>
<text x="477" y="202">  n&gt; &gt;,std::allocator&lt;std::unique_ptr&lt;</text>
<text x="477" y="211">  ModelAssociation,std::default_delete&lt;</text>
<text x="477" y="220">  ModelAssociation&gt; &gt; &gt; &gt;</text>
</g>
<g stroke="none" font-style="italic">
</g>
<g  fill="#f5fff5" stroke="#000000" style="stroke-width:1">
<rect x="472" y="12" width="202" height="53" />
<line x1="472" y1="60" x2="674" y2="60" />
<line x1="472" y1="63" x2="674" y2="63" />
</g>
<g stroke="none">
<text x="473" y="21">std::vector&lt;std::unique_ptr&lt;ModelModule,</text>
<text x="473" y="30">  std::default_delete&lt;ModelModule&gt;</text>
<text x="473" y="39">   &gt;,std::allocator&lt;std::unique_ptr&lt;</text>
<text x="473" y="48">  ModelModule,std::default_delete&lt;</text>
<text x="473" y="57">  ModelModule&gt; &gt; &gt; &gt;</text>
</g>
<g stroke="none" font-style="italic">
</g>
<g  fill="#f5fff5" stroke="#000000" style="stroke-width:1">
<rect x="3" y="687" width="232" height="161" />
<line x1="3" y1="708" x2="235" y2="708" />
<line x1="3" y1="720" x2="235" y2="720" />
</g>
<g stroke="none">
<text x="4" y="696">ModelType</text>
<text x="4" y="705">oovCommon</text>
<text x="4" y="717">-eModelDataTypes mDataType</text>
<text x="4" y="729">+isTemplateDefType(OovString name)</text>
<text x="4" y="738">+isTypedefType(OovString name)</text>
<text x="4" y="747">+isTypedefType()</text>
<text x="4" y="756">+isTemplateDefType()</text>
<text x="4" y="765">+isTemplateUseType()</text>
<text x="4" y="774">+getClass()</text>
<text x="4" y="783">+getClass()</text>
<text x="4" y="792">+getClass(ModelType modelType)</text>
<text x="4" y="801">+getClass(ModelType modelType)</text>
<text x="4" y="810">+ModelType(OovStringRef name, eModelDataT</text>
<text x="11" y="819">ypes type)</text>
<text x="4" y="828">+getTemplateStereotype()</text>
<text x="4" y="837">+getTypedefStereotype()</text>
<text x="4" y="846">+getDataType()</text>
</g>
<g stroke="none" font-style="italic">
</g>
<g  fill="#f5fff5" stroke="#000000" style="stroke-width:1">
<rect x="477" y="244" width="198" height="179" />
<line x1="477" y1="265" x2="675" y2="265" />
<line x1="477" y1="313" x2="675" y2="313" />
</g>
<g stroke="none">
<text x="478" y="253">ModelAssociation</text>
<text x="478" y="262">oovCommon</text>
<text x="478" y="274">-mChildModelId</text>
<text x="478" y="283">-mParentModelId</text>
<text x="478" y="292">-ModelClassifier mChild</text>
<text x="478" y="301">-ModelClassifier mParent</text>
<text x="478" y="310">-Visibility mAccess</text>
<text x="478" y="322">+ModelAssociation(ModelClassifier child,</text>
<text x="485" y="331"> ModelClassifier parent, Visibility access)</text>
<text x="478" y="340">+setChildModelId(id)</text>
<text x="478" y="349">+setParentModelId(id)</text>
<text x="478" y="358">+getChildModelId()</text>
<text x="478" y="367">+getParentModelId()</text>
<text x="478" y="376">+getChild()</text>
<text x="478" y="385">+getParent()</text>
<text x="478" y="394">+setAccess(Visibility vis)</text>
<text x="478" y="403">+getAccess()</text>
<text x="478" y="412">+setChildClass(ModelClassifier cl)</text>
<text x="478" y="421">+setParentClass(ModelClassifier cl)</text>
</g>
<g stroke="none" font-style="italic">
</g>
<g  fill="#f5fff5" stroke="#000000" style="stroke-width:1">
<rect x="497" y="79" width="178" height="62" />
<line x1="497" y1="100" x2="675" y2="100" />
<line x1="497" y1="112" x2="675" y2="112" />
</g>
<g stroke="none">
<text x="498" y="88">ModelModule</text>
<text x="498" y="97">oovCommon</text>
<text x="498" y="109">+ModelModuleLineStats mLineStats</text>
<text x="498" y="121">+ModelModule()</text>
<text x="498" y="130">+setModulePath(OovStringRef str)</text>
<text x="498" y="139">+getModulePath()</text>
</g>
<g stroke="none" font-style="italic">
</g>
<g  fill="#f5fff5" stroke="#000000" style="stroke-width:1">
<rect x="267" y="463" width="416" height="377" />
<line x1="267" y1="484" x2="683" y2="484" />
<line x1="267" y1="568" x2="683" y2="568" />
</g>
<g stroke="none">
<text x="268" y="472">ModelClassifier</text>
<text x="268" y="481">oovCommon</text>
<text x="268" y="493">-std::vector&lt;std::unique_ptr&lt;ModelAttribute,std::default_delete&lt;ModelAttribute&gt;</text>
<text x="275" y="502"> &gt;,std::allocator&lt;std::unique_ptr&lt;ModelAttribute,std::default_delete&lt;ModelAttribute&gt;</text>
<text x="275" y="511"> &gt; &gt; &gt; mAttributes</text>
<text x="268" y="520">-std::vector&lt;std::unique_ptr&lt;ModelOperation,std::default_delete&lt;ModelOperation&gt;</text>
<text x="275" y="529"> &gt;,std::allocator&lt;std::unique_ptr&lt;ModelOperation,std::default_delete&lt;ModelOperation&gt;</text>
<text x="275" y="538"> &gt; &gt; &gt; mOperations</text>
<text x="268" y="547">-ModelModule mModule</text>
<text x="268" y="556">-unsigned int mLineNum</text>
<text x="268" y="565">-size_t&lt;&lt;typedef&gt;&gt; NoIndex</text>
<text x="268" y="577">+isOperOverloaded(OovStringRef operName)</text>
<text x="268" y="586">+addAttribute(string&lt;&lt;typedef&gt;&gt; name, ModelType attrType, Visibility scope)</text>
<text x="268" y="595">+addOperation(string&lt;&lt;typedef&gt;&gt; name, Visibility access, bool isConst, bool isVirtual)</text>
<text x="268" y="604">+replaceOperation(ModelOperation operToReplace, std::unique_ptr&lt;ModelOperation,</text>
<text x="275" y="613">std::default_delete&lt;ModelOperation&gt; &gt; newOper)</text>
<text x="268" y="622">+eraseAttribute(ModelAttribute attr)</text>
<text x="268" y="631">+eraseOperation(ModelOperation oper)</text>
<text x="268" y="640">+getAttributeIndex(string&lt;&lt;typedef&gt;&gt; name)</text>
<text x="268" y="649">+getAttribute(string&lt;&lt;typedef&gt;&gt; name)</text>
<text x="268" y="658">+getOperationsByName(OovStringRef name)</text>
<text x="268" y="667">+getOperationByName(OovStringRef name, bool isConst)</text>
<text x="268" y="676">+isDefinition()</text>
<text x="268" y="685">-findExactMatchingOperationIndex(OovStringRef overloadFuncName)</text>
<text x="268" y="694">-findExactMatchingOperation(OovStringRef overloadFuncName)</text>
<text x="268" y="703">+ModelClassifier(OovStringRef name)</text>
<text x="268" y="712">+addAttribute(std::unique_ptr&lt;ModelAttribute,std::default_delete&lt;ModelAttribute&gt;</text>
<text x="275" y="721"> &gt; attr)</text>
<text x="268" y="730">+addOperation(std::unique_ptr&lt;ModelOperation,std::default_delete&lt;ModelOperation&gt;</text>
<text x="275" y="739"> &gt; oper)</text>
<text x="268" y="748">+getMatchingOperation(ModelOperation op)</text>
<text x="268" y="757">+getMatchingOperation(ModelStatement ms)</text>
<text x="268" y="766">+getAttributes()</text>
<text x="268" y="775">+getAttributes()</text>
<text x="268" y="784">+getOperations()</text>
<text x="268" y="793">+getOperations()</text>
<text x="268" y="802">+setModule(ModelModule module)</text>
<text x="268" y="811">+getModule()</text>
<text x="268" y="820">+setLineNum(unsigned int lineNum)</text>
<text x="268" y="829">+getLineNum()</text>
<text x="268" y="838">-getMatchingOperationIndex(ModelOperation op)</text>
</g>
<g stroke="none" font-style="italic">
</g>
<g  fill="#f5fff5" stroke="#000000" style="stroke-width:1">
<rect x="13" y="462" width="172" height="89" />
<line x1="13" y1="483" x2="185" y2="483" />
<line x1="13" y1="504" x2="185" y2="504" />
</g>
<g stroke="none">
<text x="14" y="471">ModelObject</text>
<text x="14" y="480">oovCommon</text>
<text x="14" y="492">-OovString mName</text>
<text x="14" y="501">-mModelId</text>
<text x="14" y="513">+ModelObject(OovStringRef name)</text>
<text x="14" y="522">+getName()</text>
<text x="14" y="531">+setName(OovStringRef name)</text>
<text x="14" y="540">+setModelId(id)</text>
<text x="14" y="549">+getModelId()</text>
</g>
<g stroke="none" font-style="italic">
</g>
<g  fill="#f5f5ff" stroke="#000000" style="stroke-width:1">
<line x1="297" y1="378" x2="311" y2="411" />
<circle cx="302" cy="390" r="5" style="fill:#ffffff" />
<circle cx="308" cy="405" r="5" style="fill:#ffffff" />
<circle cx="308" cy="405" r="2" style="fill:#ffffff" />
<polygon points="297,378 296,386 302,390 304,383 297,378 " style="fill:#000000" />
<line x1="430" y1="198" x2="476" y2="200" />
<circle cx="443" cy="198" r="5" style="fill:#ffffff" />
<circle cx="459" cy="199" r="5" style="fill:#ffffff" />
<circle cx="459" cy="199" r="2" style="fill:#ffffff" />
<polygon points="430,198 437,202 443,198 437,194 430,198 " style="fill:#000000" />
<line x1="430" y1="102" x2="515" y2="64" />
<circle cx="442" cy="96" r="5" style="fill:#ffffff" />
<circle cx="457" cy="89" r="5" style="fill:#ffffff" />
<circle cx="457" cy="89" r="2" style="fill:#ffffff" />
<polygon points="430,102 438,102 442,97 435,95 430,102 " style="fill:#000000" />
<line x1="189" y1="378" x2="133" y2="687" />
<circle cx="186" cy="391" r="5" style="fill:#ffffff" />
<circle cx="185" cy="398" r="2" style="fill:#ffffff" />
<line x1="430" y1="275" x2="477" y2="295" />
<circle cx="442" cy="280" r="5" style="fill:#ffffff" />
<line x1="323" y1="378" x2="371" y2="463" />
<circle cx="329" cy="390" r="5" style="fill:#ffffff" />
<circle cx="333" cy="396" r="2" style="fill:#ffffff" />
<line x1="150" y1="378" x2="116" y2="462" />
<circle cx="144" cy="390" r="5" style="fill:#ffffff" />
<line x1="307" y1="455" x2="167" y2="687" style="stroke-dasharray: 4, 4 " />
<line x1="167" y1="687" x2="178" y2="679" />
<line x1="167" y1="687" x2="169" y2="674" />
<line x1="577" y1="227" x2="576" y2="244" style="stroke-dasharray: 4, 4 " />
<line x1="576" y1="244" x2="582" y2="232" />
<line x1="576" y1="244" x2="572" y2="231" />
<line x1="577" y1="64" x2="581" y2="79" style="stroke-dasharray: 4, 4 " />
<line x1="581" y1="79" x2="582" y2="66" />
<line x1="581" y1="79" x2="573" y2="68" />
<line x1="235" y1="730" x2="267" y2="718" />
<circle cx="263" cy="719" r="5" style="fill:#ffffff" />
<circle cx="263" cy="719" r="2" style="fill:#ffffff" />
<polygon points="235,730 248,730 245,721 235,730 " style="fill:#ffffff" />
<polygon points="267,718 258,716 264,719 262,726 267,718 " style="fill:#ffffff" />
<circle cx="253" cy="722" r="5" style="fill:#ffffff" />
<circle cx="247" cy="725" r="2" style="fill:#ffffff" />
<line x1="113" y1="687" x2="102" y2="550" />
<circle cx="111" cy="673" r="5" style="fill:#ffffff" />
<circle cx="104" cy="579" r="5" style="fill:#ffffff" />
<circle cx="104" cy="579" r="2" style="fill:#ffffff" />
<polygon points="102,550 98,563 108,562 102,550 " style="fill:#ffffff" />
<line x1="548" y1="422" x2="534" y2="463" />
<polygon points="548,422 540,427 547,425 550,431 548,422 " style="fill:#ffffff" />
<circle cx="543" cy="435" r="5" style="fill:#ffffff" />
<circle cx="541" cy="441" r="2" style="fill:#ffffff" />
<circle cx="538" cy="450" r="5" style="fill:#000000" />
<circle cx="538" cy="450" r="2" style="fill:#000000" />
<polygon points="548,422 542,427 544,435 549,430 548,422 " style="fill:#ffffff" />
<line x1="477" y1="368" x2="185" y2="475" />
<circle cx="463" cy="372" r="5" style="fill:#ffffff" />
<circle cx="213" cy="464" r="5" style="fill:#ffffff" />
<circle cx="213" cy="464" r="2" style="fill:#ffffff" />
<polygon points="185,475 198,475 195,466 185,475 " style="fill:#ffffff" />
<line x1="580" y1="141" x2="513" y2="463" />
<polygon points="513,463 520,457 513,460 509,454 513,463 " style="fill:#ffffff" />
<circle cx="515" cy="449" r="5" style="fill:#ffffff" />
<circle cx="517" cy="442" r="2" style="fill:#ffffff" />
<circle cx="519" cy="433" r="5" style="fill:#000000" />
<circle cx="519" cy="433" r="2" style="fill:#000000" />
<polygon points="513,463 518,457 515,450 511,455 513,463 " style="fill:#ffffff" />
<line x1="548" y1="141" x2="153" y2="462" />
<circle cx="537" cy="149" r="5" style="fill:#ffffff" />
<circle cx="176" cy="443" r="5" style="fill:#ffffff" />
<circle cx="176" cy="443" r="2" style="fill:#ffffff" />
<polygon points="153,462 166,459 159,450 153,462 " style="fill:#ffffff" />
<line x1="267" y1="571" x2="185" y2="539" />
<circle cx="253" cy="565" r="5" style="fill:#ffffff" />
</g>
</svg>