<svg xmlns="http://www.w3.org/2000/svg" version="1.1"
 font-family="Arial, Helvetica, sans-serif" font-size="10.00" width="807" height="1252" viewbox="0 0 807 1252">
<g  fill="#f5fff5" stroke="#000000" style="stroke-width:1">
<rect x="669" y="771" width="129" height="143" />
<line x1="669" y1="784" x2="798" y2="784" />
<polygon points="782,792 794,797 794,787 782,792 " style="fill:#ffffff" />
<polygon points="782,806 789,810 796,806 789,802 782,806 " style="fill:#ffffff" />
<polygon points="782,820 789,824 796,820 789,816 782,820 " style="fill:#000000" />
<polygon points="782,834 790,839 786,834 790,829 782,834 " style="fill:#ffffff" />
<circle cx="782" cy="848" r="5" style="fill:#ffffff" />
<circle cx="782" cy="862" r="5" style="fill:#ffffff" />
<circle cx="789" cy="862" r="2" style="fill:#ffffff" />
<circle cx="782" cy="876" r="5" style="fill:#ffffff" />
<circle cx="782" cy="876" r="2" style="fill:#ffffff" />
<circle cx="782" cy="890" r="5" style="fill:#ffffff" />
<circle cx="782" cy="890" r="2" style="fill:#000000" />
<circle cx="782" cy="904" r="5" style="fill:#000000" />
<circle cx="782" cy="904" r="2" style="fill:#000000" />
</g>
<g stroke="none">
<text x="670" y="780">Relations Key</text>
<text x="670" y="794">Generalization</text>
<text x="670" y="808">Aggregation(reference)</text>
<text x="670" y="822">Composition(owned)</text>
<text x="670" y="836">Const</text>
<text x="670" y="850">Method Variable</text>
<text x="670" y="864">Method Parameter</text>
<text x="670" y="878">Public</text>
<text x="670" y="892">Protected</text>
<text x="670" y="906">Private</text>
</g>
<g  fill="#f5fff5" stroke="#000000" style="stroke-width:1">
<rect x="12" y="20" width="335" height="494" />
<line x1="12" y1="41" x2="347" y2="41" />
<line x1="12" y1="98" x2="347" y2="98" />
</g>
<g stroke="none">
<text x="13" y="29">oovGui</text>
<text x="13" y="38">oovaide</text>
<text x="13" y="50">-Builder mBuilder</text>
<text x="13" y="59">-OovProject mProject</text>
<text x="13" y="68">-Contexts mContexts</text>
<text x="13" y="77">-ProjectStatus mLastProjectStatus</text>
<text x="13" y="86">-WindowBuildListener mWindowBuildListener</text>
<text x="13" y="95">-WindowProjectStatusListener mProjectStatusListener</text>
<text x="13" y="107">+~oovGui()</text>
<text x="13" y="116">+init()</text>
<text x="13" y="125">+runSrcManager(OovStringRef buildConfigName, eProcessModes pm)</text>
<text x="13" y="134">+cleanProject()</text>
<text x="13" y="143">+updateGuiForAnalysis()</text>
<text x="13" y="152">+updateGuiForProjectChange()</text>
<text x="13" y="161">+updateMenuEnables(ProjectStatus projStat)</text>
<text x="13" y="170">+newProject()</text>
<text x="13" y="179">+openProject()</text>
<text x="13" y="188">+openDrawing()</text>
<text x="13" y="197">+saveDrawing()</text>
<text x="13" y="206">+saveDrawingAs()</text>
<text x="13" y="215">+exportDrawingAs()</text>
<text x="13" y="224">+makeComplexityFile()</text>
<text x="13" y="233">+makeMemberUseFile()</text>
<text x="13" y="242">+makeMethodUseFile()</text>
<text x="13" y="251">+makeDuplicatesFile()</text>
<text x="13" y="260">+displayProjectStats()</text>
<text x="13" y="269">+makeLineStats()</text>
<text x="13" y="278">+makeCmake()</text>
<text x="13" y="287">+showProjectSettingsDialog()</text>
<text x="13" y="305">+getStatusSourceFile(string&lt;&lt;typedef&gt;&gt; fn)</text>
<text x="13" y="314">-onBackgroundIdle(gpointer&lt;&lt;typedef&gt;&gt; data)</text>
<text x="13" y="323">-openProject(OovStringRef projDir)</text>
<text x="13" y="332">-getDiagramName(OovStringRef ext)</text>
<text x="13" y="341">-setDiagramName(OovStringRef name)</text>
<text x="13" y="350">-clearAnalysis()</text>
<text x="13" y="359">-canStartAnalysis()</text>
<text x="13" y="368">+oovGui(Builder builder)</text>
<text x="13" y="377">+onIdle(gpointer&lt;&lt;typedef&gt;&gt; data)</text>
<text x="13" y="386">+stopSrcManager()</text>
<text x="13" y="395">+newModule()</text>
<text x="13" y="404">+statusTopError()</text>
<text x="13" y="413">+statusUpError()</text>
<text x="13" y="422">+statusDownError()</text>
<text x="13" y="431">+statusBottomError()</text>
<text x="13" y="440">+okToExit()</text>
<text x="13" y="449">+cppArgOptionsChangedUpdateDrawings()</text>
<text x="13" y="458">+getBuilder()</text>
<text x="13" y="467">+getProject()</text>
<text x="13" y="485">-loadFile(File drawFile)</text>
<text x="13" y="494">-saveFile(File drawFile)</text>
<text x="13" y="503">-exportFile(File svgFile)</text>
<text x="13" y="512">-getLastProjectStatus()</text>
</g>
<g stroke="none" font-style="italic">
<text x="13" y="296">+errorListener(OovStringRef str, OovErrorTypes et)</text>
<text x="13" y="476">+loadProject(OovStringRef projDir)</text>
</g>
<g  fill="#f5fff5" stroke="#000000" style="stroke-width:1">
<rect x="12" y="565" width="307" height="296" />
<line x1="12" y1="586" x2="319" y2="586" />
<line x1="12" y1="652" x2="319" y2="652" />
</g>
<g stroke="none">
<text x="13" y="574">OovProject</text>
<text x="13" y="583">oovaide</text>
<text x="13" y="595">-OovTaskStatusListener mStatusListener</text>
<text x="13" y="604">-ProjectStatus mProjectStatus</text>
<text x="13" y="613">-ProjectReader mProjectOptions</text>
<text x="13" y="622">-GuiOptions mGuiOptions</text>
<text x="13" y="631">-ModelData mModelData</text>
<text x="13" y="640">-IncDirDependencyMapReader mIncludeMap</text>
<text x="13" y="649">-OovBackgroundPipeProcess mBackgroundProc</text>
<text x="13" y="670">+stopAndWaitForBackgroundComplete()</text>
<text x="13" y="679">+newProject(OovString projectDir, CompoundValue excludeDirs,</text>
<text x="20" y="688"> OovProject::eNewProjectStatus projStatus)</text>
<text x="13" y="697">+openProject(OovStringRef projectDir, bool openedProj)</text>
<text x="13" y="706">+clearAnalysis()</text>
<text x="13" y="715">+loadAnalysisFiles()</text>
<text x="13" y="724">+runSrcManager(OovStringRef buildConfigName, OovStringRef </text>
<text x="20" y="733">runStr, eProcessModes smo)</text>
<text x="13" y="742">+stopSrcManager()</text>
<text x="13" y="751">+getProjectStatus()</text>
<text x="13" y="760">-processAnalysisFiles()</text>
<text x="13" y="769">-loadIncludeMap()</text>
<text x="13" y="778">+OovProject()</text>
<text x="13" y="787">+setBackgroundProcessListener(OovProcessListener listener)</text>
<text x="13" y="796">+setStatusListener(OovTaskStatusListener listener)</text>
<text x="13" y="805">+getModelData()</text>
<text x="13" y="814">+getIncMap()</text>
<text x="13" y="823">+getProjectOptions()</text>
<text x="13" y="832">+getGuiOptions()</text>
<text x="13" y="841">+isAnalysisReady()</text>
<text x="13" y="850">+isProjectIdle()</text>
<text x="13" y="859">+processItem(ProjectBackgroundItem item)</text>
</g>
<g stroke="none" font-style="italic">
<text x="13" y="661">+~OovProject()</text>
</g>
<g  fill="#f5fff5" stroke="#000000" style="stroke-width:1">
<rect x="354" y="23" width="448" height="413" />
<line x1="354" y1="44" x2="802" y2="44" />
<line x1="354" y1="146" x2="802" y2="146" />
</g>
<g stroke="none">
<text x="355" y="32">Contexts</text>
<text x="355" y="41">oovaide</text>
<text x="355" y="53">-OovProject mProject</text>
<text x="355" y="62">-Journal mJournal</text>
<text x="355" y="71">-Contexts::eContexts mCurrentContext</text>
<text x="355" y="80">-ComponentList mComponentList</text>
<text x="355" y="89">-IncludeList mIncludeList</text>
<text x="355" y="98">-ClassList mClassList</text>
<text x="355" y="107">-OperationList mOperationList</text>
<text x="355" y="116">-ZoneDiagramList mZoneList</text>
<text x="355" y="125">-JournalList mJournalList</text>
<text x="355" y="134">-EditorContainer mEditorContainer</text>
<text x="355" y="143">-std::stack&lt;OovIpcMsg,std::deque&lt;OovIpcMsg,std::allocator&lt;OovIpcMsg&gt; &gt; &gt; mEditorMessages</text>
<text x="355" y="155">+Contexts(OovProject proj)</text>
<text x="355" y="164">+init(OovTaskStatusListener taskStatusListener)</text>
<text x="355" y="173">+clear()</text>
<text x="355" y="182">+updateContextAfterAnalysisCompletes()</text>
<text x="355" y="191">+updateContextAfterProjectLoaded()</text>
<text x="355" y="200">+handleEditorMessages(EditorContainerCommands command)</text>
<text x="355" y="209">+displayPortion(OovStringRef className)</text>
<text x="355" y="236">+displaySelectedClassDiagram()</text>
<text x="355" y="245">+displayOperationsDiagram()</text>
<text x="355" y="254">+displayJournal()</text>
<text x="355" y="263">+displayComponentDiagram()</text>
<text x="355" y="272">+displayIncludeDiagram()</text>
<text x="355" y="281">+displayZoneDiagram()</text>
<text x="355" y="290">+zoneTreeviewButtonRelease(GdkEventButton&lt;&lt;typedef&gt;&gt; event)</text>
<text x="355" y="299">+setContext(Contexts::eContexts context)</text>
<text x="355" y="308">-updateJournalList()</text>
<text x="355" y="317">-updateIncludeList()</text>
<text x="355" y="326">-updateClassList()</text>
<text x="355" y="335">-updateOperationList(ModelData modelData, OovStringRef className)</text>
<text x="355" y="344">+stopAndWaitForBackgroundComplete()</text>
<text x="355" y="353">+loadFile(File drawFile)</text>
<text x="355" y="362">+saveFile(File drawFile)</text>
<text x="355" y="371">+exportFile(File svgFile)</text>
<text x="355" y="380">+cppArgOptionsChangedUpdateDrawings()</text>
<text x="355" y="389">+getCurrentJournalRecord()</text>
<text x="355" y="398">+getCurrentJournalRecord()</text>
<text x="355" y="407">+okToExit()</text>
<text x="355" y="425">-getSelectedClass()</text>
<text x="355" y="434">-clearSelectedComponent()</text>
</g>
<g stroke="none" font-style="italic">
<text x="355" y="218">+displayClass(OovStringRef className)</text>
<text x="355" y="227">+displayOperation(OovStringRef className, OovStringRef operName, bool isConst)</text>
<text x="355" y="416">+handleEditorMessage(OovIpcMsg msg)</text>
</g>
<g  fill="#f5fff5" stroke="#000000" style="stroke-width:1">
<rect x="13" y="1144" width="232" height="107" />
<line x1="13" y1="1165" x2="245" y2="1165" />
<line x1="13" y1="1204" x2="245" y2="1204" />
</g>
<g stroke="none">
<text x="14" y="1153">ProjectStatus</text>
<text x="14" y="1162">oovaide</text>
<text x="14" y="1174">+bool mProjectOpen</text>
<text x="14" y="1183">+ProjectStatus::eAnalysisStatus mAnalysisStatus</text>
<text x="14" y="1192">+bool mBackgroundProcIdle</text>
<text x="14" y="1201">+bool mBackgroundThreadIdle</text>
<text x="14" y="1213">+ProjectStatus()</text>
<text x="14" y="1222">+clear()</text>
<text x="14" y="1231">+operator!=(ProjectStatus stat)</text>
<text x="14" y="1240">+isAnalysisReady()</text>
<text x="14" y="1249">+isIdle()</text>
</g>
<g stroke="none" font-style="italic">
</g>
<g  fill="#f5fff5" stroke="#000000" style="stroke-width:1">
<rect x="13" y="903" width="233" height="233" />
<line x1="13" y1="924" x2="246" y2="924" />
<line x1="13" y1="981" x2="246" y2="981" />
</g>
<g stroke="none">
<text x="14" y="912">WindowBuildListener</text>
<text x="14" y="921">oovaide</text>
<text x="14" y="933">-GtkTextView&lt;&lt;typedef&gt;&gt; mStatusTextView</text>
<text x="14" y="942">-string&lt;&lt;typedef&gt;&gt; mStdOutAndErr</text>
<text x="14" y="951">-InProcMutex mMutex</text>
<text x="14" y="960">-GuiHighlightTag mErrHighlightTag</text>
<text x="14" y="969">-bool mComplete</text>
<text x="14" y="978">-WindowBuildListener::eErrorModes mErrorMode</text>
<text x="14" y="999">+initListener(Builder builder)</text>
<text x="14" y="1017">+onBackgroundProcessIdle(bool complete)</text>
<text x="14" y="1026">+moveTopError()</text>
<text x="14" y="1035">+moveUpError()</text>
<text x="14" y="1044">+moveDownError()</text>
<text x="14" y="1053">+moveBottomBuffer()</text>
<text x="14" y="1062">-searchForErrorFromIter(GtkTextIter&lt;&lt;</text>
<text x="21" y="1071">typedef&gt;&gt; iter, bool forward)</text>
<text x="14" y="1080">+WindowBuildListener()</text>
<text x="14" y="1089">+getBuffer()</text>
<text x="14" y="1098">+clearStatusTextView(Builder builder)</text>
</g>
<g stroke="none" font-style="italic">
<text x="14" y="990">+~WindowBuildListener()</text>
<text x="14" y="1008">+processComplete()</text>
<text x="14" y="1107">+onStdOut(OovStringRef out, size_t&lt;&lt;typedef&gt;</text>
<text x="21" y="1116">&gt; len)</text>
<text x="14" y="1125">+onStdErr(OovStringRef out, size_t&lt;&lt;typedef&gt;</text>
<text x="21" y="1134">&gt; len)</text>
</g>
<g  fill="#f5fff5" stroke="#000000" style="stroke-width:1">
<rect x="338" y="635" width="195" height="170" />
<line x1="338" y1="656" x2="533" y2="656" />
<line x1="338" y1="713" x2="533" y2="713" />
</g>
<g stroke="none">
<text x="339" y="644">WindowProjectStatusListener</text>
<text x="339" y="653">oovaide</text>
<text x="339" y="665">-mProgressIteration</text>
<text x="339" y="674">-std::mutex mMutex</text>
<text x="339" y="683">-OovString mUpdateText</text>
<text x="339" y="692">-std::atomic&lt;WindowProjectStatusListen</text>
<text x="346" y="701">er::eTaskStates&gt; mState</text>
<text x="339" y="710">-TaskBusyDialog mBackDlg</text>
<text x="339" y="722">+~WindowProjectStatusListener()</text>
<text x="339" y="776">+idleUpdateProgress()</text>
<text x="339" y="785">+WindowProjectStatusListener()</text>
</g>
<g stroke="none" font-style="italic">
<text x="339" y="731">+startTask(OovStringRef text,</text>
<text x="346" y="740"> size_t&lt;&lt;typedef&gt;&gt; i)</text>
<text x="339" y="749">+updateProgressIteration(OovTaskStatus</text>
<text x="346" y="758">ListenerId&lt;&lt;typedef&gt;&gt; id, size_t&lt;</text>
<text x="346" y="767">&lt;typedef&gt;&gt; i, OovStringRef text)</text>
<text x="339" y="794">+endTask(OovTaskStatusListenerId&lt;</text>
<text x="346" y="803">&lt;typedef&gt;&gt; id)</text>
</g>
<g  fill="#f5fff5" stroke="#000000" style="stroke-width:1">
<rect x="257" y="875" width="398" height="368" />
<line x1="257" y1="896" x2="655" y2="896" />
<line x1="257" y1="980" x2="655" y2="980" />
</g>
<g stroke="none">
<text x="258" y="884">Journal</text>
<text x="258" y="893">oovaide</text>
<text x="258" y="905">-GuiOptions mGuiOptions</text>
<text x="258" y="914">-std::vector&lt;JournalRecord,std::allocator&lt;JournalRecord&gt; &gt; mRecords</text>
<text x="258" y="923">-size_t&lt;&lt;typedef&gt;&gt; mCurrentRecord</text>
<text x="258" y="932">-Builder mBuilder</text>
<text x="258" y="941">-ModelData mModel</text>
<text x="258" y="950">-IncDirDependencyMapReader mIncludeMap</text>
<text x="258" y="959">-JournalListener mJournalListener</text>
<text x="258" y="968">-OovTaskStatusListener mTaskStatusListener</text>
<text x="258" y="977">-size_t&lt;&lt;typedef&gt;&gt; NO_INDEX</text>
<text x="258" y="989">+Journal(GuiOptions guiOptions)</text>
<text x="258" y="1007">+getJournal()</text>
<text x="258" y="1016">+clear()</text>
<text x="258" y="1025">+displayClass(OovStringRef className)</text>
<text x="258" y="1034">+displayOperation(OovStringRef className, OovStringRef operName, bool isConst)</text>
<text x="258" y="1043">+displayComponents()</text>
<text x="258" y="1052">+displayWorldZone()</text>
<text x="258" y="1061">+displayPortion(OovStringRef className)</text>
<text x="258" y="1070">+displayInclude(OovStringRef incName)</text>
<text x="258" y="1079">+loadFile(File drawFile)</text>
<text x="258" y="1088">+saveFile(File drawFile)</text>
<text x="258" y="1097">+exportFile(File svgFile)</text>
<text x="258" y="1106">+cppArgOptionsChangedUpdateDrawings()</text>
<text x="258" y="1115">+removeUnmodifiedRecords()</text>
<text x="258" y="1124">-addRecord(JournalRecord record, OovStringRef name)</text>
<text x="258" y="1133">-newPortionRecord(OovStringRef portionName)</text>
<text x="258" y="1142">-removeRecord(size_t&lt;&lt;typedef&gt;&gt; index)</text>
<text x="258" y="1151">-findRecord(eRecordTypes rt, OovStringRef name)</text>
<text x="258" y="1160">+init(Builder builder, ModelData model, IncDirDependencyMapReader incMap, </text>
<text x="265" y="1169">JournalListener journalListener, OovTaskStatusListener taskStatusListener)</text>
<text x="258" y="1178">+stopAndWaitForBackgroundComplete()</text>
<text x="258" y="1187">+setCurrentRecord(size_t&lt;&lt;typedef&gt;&gt; index)</text>
<text x="258" y="1196">+getRecords()</text>
<text x="258" y="1205">+getCurrentRecord()</text>
<text x="258" y="1214">+getCurrentRecord()</text>
<text x="258" y="1223">+getCurrentZoneDiagram()</text>
<text x="258" y="1232">+getCurrentClassDiagram()</text>
<text x="258" y="1241">-newClassRecord(OovStringRef className)</text>
</g>
<g stroke="none" font-style="italic">
<text x="258" y="998">+~Journal()</text>
</g>
<g  fill="#f5fff5" stroke="#000000" style="stroke-width:1">
<rect x="586" y="576" width="217" height="89" />
<line x1="586" y1="597" x2="803" y2="597" />
<line x1="586" y1="618" x2="803" y2="618" />
</g>
<g stroke="none">
<text x="587" y="585">ComponentList</text>
<text x="587" y="594">oovaide</text>
<text x="587" y="606">-std::vector&lt;ComponentListItem,std::allocator</text>
<text x="594" y="615">&lt;ComponentListItem&gt; &gt; mListMap</text>
<text x="587" y="627">+updateComponentList()</text>
<text x="587" y="636">+getSelectedFileName()</text>
<text x="587" y="645">+init(Builder builder, OovStringRef </text>
<text x="594" y="654">widgetName, OovStringRef title)</text>
<text x="587" y="663">+clear()</text>
</g>
<g stroke="none" font-style="italic">
</g>
<g  fill="#f5fff5" stroke="#000000" style="stroke-width:1">
<rect x="408" y="494" width="102" height="35" />
<line x1="408" y1="515" x2="510" y2="515" />
<line x1="408" y1="518" x2="510" y2="518" />
</g>
<g stroke="none">
<text x="409" y="503">IncludeList</text>
<text x="409" y="512">oovaide</text>
<text x="409" y="527">+init(Builder builder)</text>
</g>
<g stroke="none" font-style="italic">
</g>
<g  fill="#f5fff5" stroke="#000000" style="stroke-width:1">
<rect x="342" y="543" width="102" height="35" />
<line x1="342" y1="564" x2="444" y2="564" />
<line x1="342" y1="567" x2="444" y2="567" />
</g>
<g stroke="none">
<text x="343" y="552">ClassList</text>
<text x="343" y="561">oovaide</text>
<text x="343" y="576">+init(Builder builder)</text>
</g>
<g stroke="none" font-style="italic">
</g>
<g  fill="#f5fff5" stroke="#000000" style="stroke-width:1">
<rect x="465" y="542" width="102" height="35" />
<line x1="465" y1="563" x2="567" y2="563" />
<line x1="465" y1="566" x2="567" y2="566" />
</g>
<g stroke="none">
<text x="466" y="551">OperationList</text>
<text x="466" y="560">oovaide</text>
<text x="466" y="575">+init(Builder builder)</text>
</g>
<g stroke="none" font-style="italic">
</g>
<g  fill="#f5fff5" stroke="#000000" style="stroke-width:1">
<rect x="601" y="477" width="205" height="89" />
<line x1="601" y1="498" x2="806" y2="498" />
<line x1="601" y1="519" x2="806" y2="519" />
</g>
<g stroke="none">
<text x="602" y="486">ZoneDiagramList</text>
<text x="602" y="495">oovaide</text>
<text x="602" y="507">-GuiTree mComponentTree</text>
<text x="602" y="516">-ComponentTypesFile mComponentFile</text>
<text x="602" y="528">+init()</text>
<text x="602" y="537">+update()</text>
<text x="602" y="546">+getParent(string&lt;&lt;typedef&gt;&gt; compName)</text>
<text x="602" y="555">+clear()</text>
<text x="602" y="564">+getComponentTree()</text>
</g>
<g stroke="none" font-style="italic">
</g>
<g  fill="#f5fff5" stroke="#000000" style="stroke-width:1">
<rect x="426" y="587" width="102" height="35" />
<line x1="426" y1="608" x2="528" y2="608" />
<line x1="426" y1="611" x2="528" y2="611" />
</g>
<g stroke="none">
<text x="427" y="596">JournalList</text>
<text x="427" y="605">oovaide</text>
<text x="427" y="620">+init(Builder builder)</text>
</g>
<g stroke="none" font-style="italic">
</g>
<g  fill="#f5fff5" stroke="#000000" style="stroke-width:1">
<rect x="587" y="681" width="213" height="62" />
<line x1="587" y1="702" x2="800" y2="702" />
<line x1="587" y1="705" x2="800" y2="705" />
</g>
<g stroke="none">
<text x="588" y="690">JournalListener</text>
<text x="588" y="699">oovaide</text>
</g>
<g stroke="none" font-style="italic">
<text x="588" y="714">+~JournalListener()</text>
<text x="588" y="723">+displayClass(OovStringRef className)</text>
<text x="588" y="732">+displayOperation(OovStringRef className,</text>
<text x="595" y="741"> OovStringRef operName, bool isConst)</text>
</g>
<g  fill="#f5f5ff" stroke="#000000" style="stroke-width:1">
<line x1="172" y1="514" x2="169" y2="565" />
<circle cx="171" cy="527" r="5" style="fill:#ffffff" />
<circle cx="170" cy="543" r="5" style="fill:#000000" />
<circle cx="170" cy="543" r="2" style="fill:#000000" />
<polygon points="172,514 168,521 172,527 176,522 172,514 " style="fill:#000000" />
<line x1="346" y1="252" x2="354" y2="250" />
<circle cx="359" cy="248" r="5" style="fill:#ffffff" />
<circle cx="375" cy="244" r="5" style="fill:#000000" />
<circle cx="375" cy="244" r="2" style="fill:#000000" />
<polygon points="346,252 354,254 359,249 352,246 346,252 " style="fill:#000000" />
<line x1="166" y1="514" x2="131" y2="1144" />
<circle cx="165" cy="527" r="5" style="fill:#ffffff" />
<circle cx="164" cy="534" r="2" style="fill:#ffffff" />
<circle cx="164" cy="543" r="5" style="fill:#000000" />
<circle cx="164" cy="543" r="2" style="fill:#000000" />
<polygon points="166,514 162,521 166,527 170,522 166,514 " style="fill:#000000" />
<line x1="163" y1="514" x2="136" y2="903" />
<circle cx="162" cy="527" r="5" style="fill:#ffffff" />
<circle cx="160" cy="543" r="5" style="fill:#000000" />
<circle cx="160" cy="543" r="2" style="fill:#000000" />
<polygon points="163,514 158,521 163,527 166,522 163,514 " style="fill:#000000" />
<line x1="318" y1="514" x2="387" y2="635" />
<circle cx="324" cy="526" r="5" style="fill:#ffffff" />
<circle cx="332" cy="540" r="5" style="fill:#000000" />
<circle cx="332" cy="540" r="2" style="fill:#000000" />
<polygon points="318,514 318,522 324,526 325,518 318,514 " style="fill:#000000" />
<line x1="291" y1="565" x2="403" y2="435" />
<circle cx="393" cy="445" r="5" style="fill:#ffffff" />
<circle cx="389" cy="450" r="2" style="fill:#ffffff" />
<circle cx="383" cy="457" r="5" style="fill:#000000" />
<circle cx="383" cy="457" r="2" style="fill:#000000" />
<polygon points="403,435 395,437 394,445 402,443 403,435 " style="fill:#ffffff" />
<line x1="154" y1="861" x2="132" y2="1144" />
<circle cx="152" cy="874" r="5" style="fill:#ffffff" />
<circle cx="151" cy="890" r="5" style="fill:#000000" />
<circle cx="151" cy="890" r="2" style="fill:#000000" />
<polygon points="154,861 149,868 153,874 157,869 154,861 " style="fill:#000000" />
<line x1="548" y1="435" x2="483" y2="875" />
<circle cx="545" cy="448" r="5" style="fill:#ffffff" />
<circle cx="543" cy="464" r="5" style="fill:#000000" />
<circle cx="543" cy="464" r="2" style="fill:#000000" />
<polygon points="548,435 543,442 546,448 551,443 548,435 " style="fill:#000000" />
<line x1="639" y1="435" x2="681" y2="576" />
<circle cx="642" cy="448" r="5" style="fill:#ffffff" />
<circle cx="647" cy="463" r="5" style="fill:#000000" />
<circle cx="647" cy="463" r="2" style="fill:#000000" />
<polygon points="639,435 637,443 642,448 645,441 639,435 " style="fill:#000000" />
<line x1="492" y1="435" x2="466" y2="494" />
<circle cx="486" cy="447" r="5" style="fill:#ffffff" />
<circle cx="479" cy="462" r="5" style="fill:#000000" />
<circle cx="479" cy="462" r="2" style="fill:#000000" />
<polygon points="492,435 485,440 487,447 492,443 492,435 " style="fill:#000000" />
<line x1="463" y1="435" x2="402" y2="543" />
<circle cx="456" cy="447" r="5" style="fill:#ffffff" />
<circle cx="448" cy="461" r="5" style="fill:#000000" />
<circle cx="448" cy="461" r="2" style="fill:#000000" />
<polygon points="463,435 456,439 457,447 463,443 463,435 " style="fill:#000000" />
<line x1="540" y1="435" x2="519" y2="542" />
<circle cx="537" cy="448" r="5" style="fill:#ffffff" />
<circle cx="534" cy="464" r="5" style="fill:#000000" />
<circle cx="534" cy="464" r="2" style="fill:#000000" />
<polygon points="540,435 535,441 538,448 542,443 540,435 " style="fill:#000000" />
<line x1="666" y1="435" x2="685" y2="477" />
<circle cx="671" cy="447" r="5" style="fill:#ffffff" />
<circle cx="678" cy="462" r="5" style="fill:#000000" />
<circle cx="678" cy="462" r="2" style="fill:#000000" />
<polygon points="666,435 666,443 671,447 673,440 666,435 " style="fill:#000000" />
<line x1="523" y1="435" x2="481" y2="587" />
<circle cx="519" cy="448" r="5" style="fill:#ffffff" />
<circle cx="515" cy="463" r="5" style="fill:#000000" />
<circle cx="515" cy="463" r="2" style="fill:#000000" />
<polygon points="523,435 517,441 520,448 525,443 523,435 " style="fill:#000000" />
<line x1="627" y1="435" x2="686" y2="681" />
<circle cx="679" cy="651" r="5" style="fill:#ffffff" />
<circle cx="679" cy="651" r="2" style="fill:#ffffff" />
<polygon points="686,681 688,668 678,670 686,681 " style="fill:#ffffff" />
<line x1="581" y1="875" x2="672" y2="743" />
<circle cx="588" cy="863" r="5" style="fill:#ffffff" />
<circle cx="592" cy="857" r="2" style="fill:#ffffff" />
<circle cx="598" cy="850" r="5" style="fill:#000000" />
<circle cx="598" cy="850" r="2" style="fill:#000000" />
<polygon points="581,875 589,872 588,864 581,867 581,875 " style="fill:#ffffff" />
</g>
</svg>