<svg xmlns="http://www.w3.org/2000/svg" version="1.1"
  font-family="Arial, Helvetica, sans-serif" font-size="10.000000" 
  width="673" height="710">
<g  fill="#f5fff5" stroke="#000000" style="stroke-width:1">
<rect x="539" y="21" width="133" height="143" />
<line x1="539" y1="34" x2="672" y2="34" />
<polygon points="652,42 664,47 664,37 652,42 " style="fill:#ffffff" />
<polygon points="652,56 659,60 666,56 659,52 652,56 " style="fill:#ffffff" />
<polygon points="652,70 659,74 666,70 659,66 652,70 " style="fill:#000000" />
<polygon points="652,84 660,89 656,84 660,79 652,84 " style="fill:#ffffff" />
<circle cx="652" cy="98" r="5" style="fill:#ffffff" />
<circle cx="652" cy="112" r="5" style="fill:#ffffff" />
<circle cx="659" cy="112" r="2" style="fill:#ffffff" />
<circle cx="652" cy="126" r="5" style="fill:#ffffff" />
<circle cx="652" cy="126" r="2" style="fill:#ffffff" />
<circle cx="652" cy="140" r="5" style="fill:#ffffff" />
<circle cx="652" cy="140" r="2" style="fill:#000000" />
<circle cx="652" cy="154" r="5" style="fill:#000000" />
<circle cx="652" cy="154" r="2" style="fill:#000000" />
</g>
<g stroke="none">
<text x="540" y="30">Relations Key</text>
<text x="540" y="44">Generalization</text>
<text x="540" y="58">Aggregation(reference)</text>
<text x="540" y="72">Composition(owned)</text>
<text x="540" y="86">Const</text>
<text x="540" y="100">Method Variable</text>
<text x="540" y="114">Method Parameter</text>
<text x="540" y="128">Public</text>
<text x="540" y="142">Protected</text>
<text x="540" y="156">Private</text>
</g>
<g  fill="#f5fff5" stroke="#000000" style="stroke-width:1">
<rect x="17" y="18" width="240" height="116" />
<line x1="17" y1="39" x2="257" y2="39" />
<line x1="17" y1="51" x2="257" y2="51" />
</g>
<g stroke="none">
<text x="18" y="27">OovBuilder</text>
<text x="18" y="36">oovBuilder</text>
<text x="18" y="48">-ComponentFinder mCompFinder</text>
<text x="18" y="60">+build(eProcessModes processMode, OovStringRe</text>
<text x="25" y="69">f oovProjDir, OovStringRef buildConfigName,</text>
<text x="25" y="78"> bool verbose)</text>
<text x="18" y="87">+getComponentFinder()</text>
<text x="18" y="96">-readProject(OovStringRef buildConfigName,</text>
<text x="25" y="105"> OovStringRef oovProjDir, bool verbose)</text>
<text x="18" y="114">-analyze(BuildConfigWriter cfg, eProcessModes</text>
<text x="25" y="123"> procMode, OovStringRef buildConfigName,</text>
<text x="25" y="132"> OovStringRef srcRootDir)</text>
</g>
<g  fill="#f5fff5" stroke="#000000" style="stroke-width:1">
<rect x="422" y="246" width="230" height="242" />
<line x1="422" y1="267" x2="652" y2="267" />
<line x1="422" y1="333" x2="652" y2="333" />
</g>
<g stroke="none">
<text x="423" y="255">ComponentFinder</text>
<text x="423" y="264">oovBuilder</text>
<text x="423" y="276">-&lt;&lt;typedef&gt;&gt;string mRootPathName</text>
<text x="423" y="285">-OovStringVec mExcludeDirs</text>
<text x="423" y="294">-ScannedComponentsInfo mScannedInfo</text>
<text x="423" y="303">-ProjectReader mProject</text>
<text x="423" y="312">-ComponentTypesFile mComponentTypesFile</text>
<text x="423" y="321">-ComponentsFile mComponentsFile</text>
<text x="423" y="330">-Package mScanningPackage</text>
<text x="423" y="342">+readProject(OovStringRef oovProjectDir,</text>
<text x="430" y="351"> OovStringRef buildConfigName)</text>
<text x="423" y="360">+scanProject()</text>
<text x="423" y="369">+scanExternalProject(OovStringRef externalRoo</text>
<text x="430" y="378">tSrch, Package pkg)</text>
<text x="423" y="387">+addBuildPackage(Package pkg)</text>
<text x="423" y="396">+saveProject(OovStringRef compFn)</text>
<text x="423" y="405">+getComponentName(OovStringRef filePath)</text>
<text x="423" y="414">+getAllIncludeDirs()</text>
<text x="423" y="423">-processFile(OovStringRef filePath)</text>
<text x="423" y="432">+ComponentFinder()</text>
<text x="423" y="441">+getProject()</text>
<text x="423" y="450">+getProject()</text>
<text x="423" y="459">+getComponentTypesFile()</text>
<text x="423" y="468">+getComponentsFile()</text>
<text x="423" y="477">+getScannedInfo()</text>
<text x="423" y="486">+makeFileName(OovStringRef projName)</text>
</g>
<g  fill="#f5fff5" stroke="#000000" style="stroke-width:1">
<rect x="417" y="154" width="93" height="26" />
<line x1="417" y1="175" x2="510" y2="175" />
<line x1="417" y1="178" x2="510" y2="178" />
</g>
<g stroke="none">
<text x="418" y="163">ComponentBuilder</text>
<text x="418" y="172">oovBuilder</text>
</g>
<g  fill="#f5fff5" stroke="#000000" style="stroke-width:1">
<rect x="164" y="224" width="63" height="26" />
<line x1="164" y1="245" x2="227" y2="245" />
<line x1="164" y1="248" x2="227" y2="248" />
</g>
<g stroke="none">
<text x="165" y="233">Project</text>
<text x="165" y="242">oovCommon</text>
</g>
<g  fill="#f5fff5" stroke="#000000" style="stroke-width:1">
<rect x="306" y="19" width="176" height="80" />
<line x1="306" y1="40" x2="482" y2="40" />
<line x1="306" y1="52" x2="482" y2="52" />
</g>
<g stroke="none">
<text x="307" y="28">VerboseDumper</text>
<text x="307" y="37">oovBuilder</text>
<text x="307" y="49">-&lt;&lt;typedef&gt;&gt;FILE mFp</text>
<text x="307" y="61">+open(OovStringRef outPath)</text>
<text x="307" y="70">+logOutputOld(OovStringRef fn)</text>
<text x="307" y="79">+logProcess(OovStringRef srcFile,</text>
<text x="314" y="88"> char argv, int argc)</text>
<text x="307" y="97">+logProgress(OovStringRef progress)</text>
</g>
<g  fill="#f5fff5" stroke="#000000" style="stroke-width:1">
<rect x="296" y="146" width="63" height="26" />
<line x1="296" y1="167" x2="359" y2="167" />
<line x1="296" y1="170" x2="359" y2="170" />
</g>
<g stroke="none">
<text x="297" y="155">BuildConfig</text>
<text x="297" y="164">oovCommon</text>
</g>
<g  fill="#f5fff5" stroke="#000000" style="stroke-width:1">
<rect x="208" y="293" width="71" height="26" />
<line x1="208" y1="314" x2="279" y2="314" />
<line x1="208" y1="317" x2="279" y2="317" />
</g>
<g stroke="none">
<text x="209" y="302">ProjectReader</text>
<text x="209" y="311">oovCommon</text>
</g>
<g  fill="#f5fff5" stroke="#000000" style="stroke-width:1">
<rect x="20" y="521" width="221" height="134" />
<line x1="20" y1="542" x2="241" y2="542" />
<line x1="20" y1="599" x2="241" y2="599" />
</g>
<g stroke="none">
<text x="21" y="530">srcFileParser</text>
<text x="21" y="539">oovBuilder</text>
<text x="21" y="551">-InProcMutex mListenerStdMutex</text>
<text x="21" y="560">-char mSrcRootDir</text>
<text x="21" y="569">-char mAnalysisDir</text>
<text x="21" y="578">-OovStringVec mExcludeDirs</text>
<text x="21" y="587">-OovStringVec mIncDirArgs</text>
<text x="21" y="596">-ComponentFinder mComponentFinder</text>
<text x="21" y="608">+analyzeSrcFiles(OovStringRef srcRootDir,</text>
<text x="28" y="617"> OovStringRef analysisDir)</text>
<text x="21" y="626">+processItem(CppChildArgs item)</text>
<text x="21" y="635">-processFile(OovStringRef filePath)</text>
<text x="21" y="644">+srcFileParser(ComponentFinder compFinder)</text>
<text x="21" y="653">+~srcFileParser()</text>
</g>
<g  fill="#f5fff5" stroke="#000000" style="stroke-width:1">
<rect x="19" y="310" width="81" height="26" />
<line x1="19" y1="331" x2="100" y2="331" />
<line x1="19" y1="334" x2="100" y2="334" />
</g>
<g stroke="none">
<text x="20" y="319">ProjectPackages</text>
<text x="20" y="328">oovCommon</text>
</g>
<g  fill="#f5fff5" stroke="#000000" style="stroke-width:1">
<rect x="21" y="387" width="251" height="62" />
<line x1="21" y1="408" x2="272" y2="408" />
<line x1="21" y1="411" x2="272" y2="411" />
</g>
<g stroke="none">
<text x="22" y="396">FileStat</text>
<text x="22" y="405">oovBuilder</text>
<text x="22" y="420">+isOutputOld(OovStringRef outputFn, OovStringRef </text>
<text x="29" y="429">inputFn)</text>
<text x="22" y="438">+isOutputOld(OovStringRef outputFn, OovStringVec </text>
<text x="29" y="447">inputs, &lt;&lt;typedef&gt;&gt;size_t oldIndex)</text>
</g>
<g  fill="#f5fff5" stroke="#000000" style="stroke-width:1">
<rect x="20" y="204" width="63" height="26" />
<line x1="20" y1="225" x2="83" y2="225" />
<line x1="20" y1="228" x2="83" y2="228" />
</g>
<g stroke="none">
<text x="21" y="213">Packages</text>
<text x="21" y="222">oovCommon</text>
</g>
<g  fill="#f5fff5" stroke="#000000" style="stroke-width:1">
<rect x="307" y="539" width="250" height="170" />
<line x1="307" y1="560" x2="557" y2="560" />
<line x1="307" y1="608" x2="557" y2="608" />
</g>
<g stroke="none">
<text x="308" y="548">ScannedComponentsInfo</text>
<text x="308" y="557">oovBuilder</text>
<text x="308" y="569">-std::map&lt;OovString,ScannedComponent,</text>
<text x="315" y="578">std::less&lt;OovString&gt;,std::allocator&lt;</text>
<text x="315" y="587">std::pair&lt;OovString,ScannedComponent&gt;</text>
<text x="315" y="596"> &gt; &gt; mComponents</text>
<text x="308" y="605">-InsertOrderedSet mProjectIncludeDirs</text>
<text x="308" y="617">+addSourceFile(OovStringRef compName,</text>
<text x="315" y="626"> OovStringRef srcFileName)</text>
<text x="308" y="635">+addIncludeFile(OovStringRef compName,</text>
<text x="315" y="644"> OovStringRef srcFileName)</text>
<text x="308" y="653">+initializeComponentTypesFileValues(ComponentT</text>
<text x="315" y="662">ypesFile file)</text>
<text x="308" y="671">+setProjectComponentsFileValues(ComponentsFile</text>
<text x="315" y="680"> file)</text>
<text x="308" y="689">-addComponents(OovStringRef compName)</text>
<text x="308" y="698">+addProjectIncludePath(OovStringRef path)</text>
<text x="308" y="707">+getProjectIncludeDirs()</text>
</g>
<g  fill="#f5fff5" stroke="#000000" style="stroke-width:1">
<rect x="267" y="454" width="63" height="26" />
<line x1="267" y1="475" x2="330" y2="475" />
<line x1="267" y1="478" x2="330" y2="478" />
</g>
<g stroke="none">
<text x="268" y="463">dirRecurser</text>
<text x="268" y="472">oovCommon</text>
</g>
<g  fill="#f5f5ff" stroke="#000000" style="stroke-width:1">
<line x1="216" y1="134" x2="422" y2="284" />
<circle cx="227" cy="142" r="5" style="fill:#ffffff" />
<circle cx="240" cy="151" r="5" style="fill:#000000" />
<circle cx="240" cy="151" r="2" style="fill:#000000" />
<polygon points="216,134 219,142 227,142 224,134 216,134 " style="fill:#000000" />
<line x1="257" y1="109" x2="417" y2="155" />
<circle cx="270" cy="112" r="5" style="fill:#ffffff" />
<line x1="157" y1="134" x2="191" y2="224" />
<circle cx="161" cy="147" r="5" style="fill:#ffffff" />
<line x1="257" y1="69" x2="306" y2="64" />
<circle cx="270" cy="67" r="5" style="fill:#ffffff" />
<line x1="257" y1="128" x2="298" y2="146" />
<circle cx="269" cy="133" r="5" style="fill:#ffffff" />
<line x1="163" y1="134" x2="238" y2="293" />
<circle cx="168" cy="146" r="5" style="fill:#ffffff" />
<line x1="137" y1="134" x2="130" y2="521" />
<circle cx="136" cy="147" r="5" style="fill:#ffffff" />
<line x1="119" y1="134" x2="63" y2="310" />
<circle cx="114" cy="147" r="5" style="fill:#ffffff" />
<line x1="138" y1="134" x2="146" y2="387" />
<circle cx="138" cy="147" r="5" style="fill:#ffffff" />
<line x1="102" y1="134" x2="58" y2="204" />
<circle cx="94" cy="145" r="5" style="fill:#ffffff" />
<line x1="168" y1="134" x2="387" y2="539" />
<circle cx="174" cy="146" r="5" style="fill:#ffffff" />
<line x1="493" y1="246" x2="467" y2="180" />
<circle cx="472" cy="193" r="5" style="fill:#ffffff" />
<circle cx="477" cy="207" r="5" style="fill:#000000" />
<circle cx="477" cy="207" r="2" style="fill:#000000" />
<polygon points="467,180 466,188 472,193 474,185 467,180 " style="fill:#ffffff" />
<line x1="422" y1="324" x2="226" y2="248" />
<circle cx="408" cy="318" r="5" style="fill:#ffffff" />
<line x1="422" y1="344" x2="278" y2="313" />
<circle cx="408" cy="341" r="5" style="fill:#ffffff" />
<circle cx="392" cy="337" r="5" style="fill:#000000" />
<circle cx="392" cy="337" r="2" style="fill:#000000" />
<polygon points="422,344 416,338 409,342 414,346 422,344 " style="fill:#000000" />
<line x1="422" y1="429" x2="240" y2="529" />
<polygon points="240,529 249,530 243,528 244,520 240,529 " style="fill:#ffffff" />
<circle cx="252" cy="522" r="5" style="fill:#ffffff" />
<circle cx="266" cy="514" r="5" style="fill:#000000" />
<circle cx="266" cy="514" r="2" style="fill:#000000" />
<polygon points="240,529 248,529 252,523 244,522 240,529 " style="fill:#ffffff" />
<line x1="488" y1="488" x2="466" y2="539" />
<circle cx="482" cy="500" r="5" style="fill:#ffffff" />
<circle cx="476" cy="515" r="5" style="fill:#000000" />
<circle cx="476" cy="515" r="2" style="fill:#000000" />
<polygon points="488,488 481,493 483,500 489,496 488,488 " style="fill:#000000" />
<line x1="422" y1="415" x2="329" y2="455" />
<circle cx="409" cy="420" r="5" style="fill:#ffffff" />
<circle cx="356" cy="443" r="5" style="fill:#ffffff" />
<circle cx="356" cy="443" r="2" style="fill:#ffffff" />
<polygon points="329,455 342,455 338,445 329,455 " style="fill:#ffffff" />
<line x1="417" y1="179" x2="226" y2="229" />
<circle cx="403" cy="182" r="5" style="fill:#ffffff" />
<line x1="455" y1="154" x2="419" y2="99" />
<circle cx="447" cy="142" r="5" style="fill:#ffffff" />
<line x1="443" y1="180" x2="263" y2="293" />
<circle cx="431" cy="187" r="5" style="fill:#ffffff" />
<line x1="447" y1="180" x2="185" y2="387" />
<circle cx="436" cy="188" r="5" style="fill:#ffffff" />
<line x1="216" y1="224" x2="306" y2="172" />
<circle cx="293" cy="179" r="5" style="fill:#ffffff" />
<line x1="204" y1="250" x2="234" y2="293" />
<circle cx="225" cy="281" r="5" style="fill:#ffffff" />
<line x1="193" y1="250" x2="142" y2="521" />
<circle cx="144" cy="507" r="5" style="fill:#ffffff" />
<line x1="175" y1="250" x2="79" y2="310" />
<circle cx="90" cy="302" r="5" style="fill:#ffffff" />
<line x1="238" y1="319" x2="156" y2="521" />
<circle cx="161" cy="508" r="5" style="fill:#ffffff" />
<line x1="208" y1="309" x2="99" y2="320" />
<circle cx="194" cy="310" r="5" style="fill:#ffffff" />
<circle cx="178" cy="312" r="5" style="fill:#000000" />
<circle cx="178" cy="312" r="2" style="fill:#000000" />
<polygon points="208,309 200,306 195,310 201,314 208,309 " style="fill:#000000" />
<line x1="215" y1="293" x2="79" y2="230" />
<circle cx="202" cy="287" r="5" style="fill:#ffffff" />
<line x1="136" y1="521" x2="144" y2="449" />
<circle cx="137" cy="507" r="5" style="fill:#ffffff" />
<line x1="223" y1="521" x2="280" y2="480" />
<circle cx="234" cy="512" r="5" style="fill:#ffffff" />
<circle cx="255" cy="497" r="5" style="fill:#ffffff" />
<circle cx="255" cy="497" r="2" style="fill:#ffffff" />
<polygon points="280,480 267,483 273,491 280,480 " style="fill:#ffffff" />
<line x1="59" y1="310" x2="51" y2="230" />
<circle cx="53" cy="259" r="5" style="fill:#ffffff" />
<circle cx="53" cy="259" r="2" style="fill:#ffffff" />
<polygon points="51,230 47,243 57,242 51,230 " style="fill:#ffffff" />
</g>
</svg>