<svg xmlns="http://www.w3.org/2000/svg" version="1.1" width="676" height="656">
<g  fill="#f5fff5" stroke="#000000" style="stroke-width:1">
<rect x="539" y="21" width="133" height="143" />
<line x1="539" y1="34" x2="672" y2="34" />
<polygon points="652,42 664,47 664,37 652,42 " style="fill:#ffffff" />
<polygon points="652,56 659,60 666,56 659,52 652,56 " style="fill:#ffffff" />
<polygon points="652,70 659,74 666,70 659,66 652,70 " style="fill:#000000" />
<polygon points="652,84 660,89 656,84 660,79 652,84 " style="fill:#ffffff" />
<circle cx="652" cy="98" r="5" style="fill:#ffffff" />
<circle cx="652" cy="112" r="5" style="fill:#ffffff" />
<circle cx="659" cy="112" r="2" style="fill:#ffffff" />
<circle cx="652" cy="126" r="5" style="fill:#ffffff" />
<circle cx="652" cy="126" r="2" style="fill:#ffffff" />
<circle cx="652" cy="140" r="5" style="fill:#ffffff" />
<circle cx="652" cy="140" r="2" style="fill:#000000" />
<circle cx="652" cy="154" r="5" style="fill:#000000" />
<circle cx="652" cy="154" r="2" style="fill:#000000" />
</g>
<g font-size="10.000000" stroke="none">
<text x="540" y="30">Relations Key</text>
<text x="540" y="44">Generalization</text>
<text x="540" y="58">Aggregation(reference)</text>
<text x="540" y="72">Composition(owned)</text>
<text x="540" y="86">Const</text>
<text x="540" y="100">Method Variable</text>
<text x="540" y="114">Method Parameter</text>
<text x="540" y="128">Public</text>
<text x="540" y="142">Protected</text>
<text x="540" y="156">Private</text>
</g>
<g  fill="#f5fff5" stroke="#000000" style="stroke-width:1">
<rect x="17" y="18" width="244" height="125" />
<line x1="17" y1="39" x2="261" y2="39" />
<line x1="17" y1="51" x2="261" y2="51" />
</g>
<g font-size="10.000000" stroke="none">
<text x="18" y="27">OovBuilder</text>
<text x="18" y="36">oovBuilder</text>
<text x="18" y="48">-ComponentFinder mCompFinder</text>
<text x="18" y="60">+build(eProcessModes processMode, OovStringRef </text>
<text x="18" y="69">   oovProjDir, OovStringRef buildConfigName</text>
<text x="18" y="78">   , bool verbose)</text>
<text x="18" y="87">+getComponentFinder()</text>
<text x="18" y="96">-readProject(OovStringRef buildConfigName</text>
<text x="18" y="105">   , OovStringRef oovProjDir, bool verbo</text>
<text x="18" y="114">   se)</text>
<text x="18" y="123">-analyze(BuildConfigWriter cfg, eProcessModes </text>
<text x="18" y="132">   procMode, OovStringRef buildConfigName</text>
<text x="18" y="141">   , OovStringRef srcRootDir)</text>
</g>
<g  fill="#f5fff5" stroke="#000000" style="stroke-width:1">
<rect x="422" y="246" width="253" height="242" />
<line x1="422" y1="267" x2="675" y2="267" />
<line x1="422" y1="333" x2="675" y2="333" />
</g>
<g font-size="10.000000" stroke="none">
<text x="423" y="255">ComponentFinder</text>
<text x="423" y="264">oovBuilder</text>
<text x="423" y="276">-&lt;&lt;typedef&gt;&gt;string mRootPathName</text>
<text x="423" y="285">-OovStringVec mExcludeDirs</text>
<text x="423" y="294">-ScannedComponentsInfo mScannedInfo</text>
<text x="423" y="303">-ProjectReader mProject</text>
<text x="423" y="312">-ComponentTypesFile mComponentTypesFile</text>
<text x="423" y="321">-ComponentsFile mComponentsFile</text>
<text x="423" y="330">-Package mScanningPackage</text>
<text x="423" y="342">+readProject(OovStringRef oovProjectDir, </text>
<text x="423" y="351">   OovStringRef buildConfigName)</text>
<text x="423" y="360">+scanProject()</text>
<text x="423" y="369">+scanExternalProject(OovStringRef externalRootSrch</text>
<text x="423" y="378">   , Package pkg)</text>
<text x="423" y="387">+addBuildPackage(Package pkg)</text>
<text x="423" y="396">+saveProject(OovStringRef compFn)</text>
<text x="423" y="405">+getComponentName(OovStringRef filePath)</text>
<text x="423" y="414">+getAllIncludeDirs()</text>
<text x="423" y="423">-processFile(OovStringRef filePath)</text>
<text x="423" y="432">+ComponentFinder()</text>
<text x="423" y="441">+getProject()</text>
<text x="423" y="450">+getProject()</text>
<text x="423" y="459">+getComponentTypesFile()</text>
<text x="423" y="468">+getComponentsFile()</text>
<text x="423" y="477">+getScannedInfo()</text>
<text x="423" y="486">+makeFileName(OovStringRef projName)</text>
</g>
<g  fill="#f5fff5" stroke="#000000" style="stroke-width:1">
<rect x="417" y="154" width="93" height="26" />
<line x1="417" y1="175" x2="510" y2="175" />
<line x1="417" y1="178" x2="510" y2="178" />
</g>
<g font-size="10.000000" stroke="none">
<text x="418" y="163">ComponentBuilder</text>
<text x="418" y="172">oovBuilder</text>
</g>
<g  fill="#f5fff5" stroke="#000000" style="stroke-width:1">
<rect x="164" y="224" width="63" height="26" />
<line x1="164" y1="245" x2="227" y2="245" />
<line x1="164" y1="248" x2="227" y2="248" />
</g>
<g font-size="10.000000" stroke="none">
<text x="165" y="233">Project</text>
<text x="165" y="242">oovCommon</text>
</g>
<g  fill="#f5fff5" stroke="#000000" style="stroke-width:1">
<rect x="306" y="19" width="209" height="80" />
<line x1="306" y1="40" x2="515" y2="40" />
<line x1="306" y1="52" x2="515" y2="52" />
</g>
<g font-size="10.000000" stroke="none">
<text x="307" y="28">VerboseDumper</text>
<text x="307" y="37">oovBuilder</text>
<text x="307" y="49">-&lt;&lt;typedef&gt;&gt;FILE mFp</text>
<text x="307" y="61">+open(OovStringRef outPath)</text>
<text x="307" y="70">+logOutputOld(OovStringRef fn)</text>
<text x="307" y="79">+logProcess(OovStringRef srcFile, char argv</text>
<text x="307" y="88">   , int argc)</text>
<text x="307" y="97">+logProgress(OovStringRef progress)</text>
</g>
<g  fill="#f5fff5" stroke="#000000" style="stroke-width:1">
<rect x="296" y="146" width="63" height="26" />
<line x1="296" y1="167" x2="359" y2="167" />
<line x1="296" y1="170" x2="359" y2="170" />
</g>
<g font-size="10.000000" stroke="none">
<text x="297" y="155">BuildConfig</text>
<text x="297" y="164">oovCommon</text>
</g>
<g  fill="#f5fff5" stroke="#000000" style="stroke-width:1">
<rect x="208" y="293" width="71" height="26" />
<line x1="208" y1="314" x2="279" y2="314" />
<line x1="208" y1="317" x2="279" y2="317" />
</g>
<g font-size="10.000000" stroke="none">
<text x="209" y="302">ProjectReader</text>
<text x="209" y="311">oovCommon</text>
</g>
<g  fill="#f5fff5" stroke="#000000" style="stroke-width:1">
<rect x="20" y="521" width="271" height="134" />
<line x1="20" y1="542" x2="291" y2="542" />
<line x1="20" y1="599" x2="291" y2="599" />
</g>
<g font-size="10.000000" stroke="none">
<text x="21" y="530">srcFileParser</text>
<text x="21" y="539">oovBuilder</text>
<text x="21" y="551">-InProcMutex mListenerStdMutex</text>
<text x="21" y="560">-char mSrcRootDir</text>
<text x="21" y="569">-char mAnalysisDir</text>
<text x="21" y="578">-OovStringVec mExcludeDirs</text>
<text x="21" y="587">-OovStringVec mIncDirArgs</text>
<text x="21" y="596">-ComponentFinder mComponentFinder</text>
<text x="21" y="608">+analyzeSrcFiles(OovStringRef srcRootDir, OovStringRef </text>
<text x="21" y="617">   analysisDir)</text>
<text x="21" y="626">+processItem(CppChildArgs item)</text>
<text x="21" y="635">-processFile(OovStringRef filePath)</text>
<text x="21" y="644">+srcFileParser(ComponentFinder compFinder)</text>
<text x="21" y="653">+~srcFileParser()</text>
</g>
<g  fill="#f5fff5" stroke="#000000" style="stroke-width:1">
<rect x="19" y="310" width="81" height="26" />
<line x1="19" y1="331" x2="100" y2="331" />
<line x1="19" y1="334" x2="100" y2="334" />
</g>
<g font-size="10.000000" stroke="none">
<text x="20" y="319">ProjectPackages</text>
<text x="20" y="328">oovCommon</text>
</g>
<g  fill="#f5fff5" stroke="#000000" style="stroke-width:1">
<rect x="21" y="387" width="291" height="53" />
<line x1="21" y1="408" x2="312" y2="408" />
<line x1="21" y1="411" x2="312" y2="411" />
</g>
<g font-size="10.000000" stroke="none">
<text x="22" y="396">FileStat</text>
<text x="22" y="405">oovBuilder</text>
<text x="22" y="420">+isOutputOld(OovStringRef outputFn, OovStringRef inputFn)</text>
<text x="22" y="429">+isOutputOld(OovStringRef outputFn, OovStringVec inputs, &lt;</text>
<text x="22" y="438">   &lt;typedef&gt;&gt;size_t oldIndex)</text>
</g>
<g  fill="#f5fff5" stroke="#000000" style="stroke-width:1">
<rect x="20" y="204" width="63" height="26" />
<line x1="20" y1="225" x2="83" y2="225" />
<line x1="20" y1="228" x2="83" y2="228" />
</g>
<g font-size="10.000000" stroke="none">
<text x="21" y="213">Packages</text>
<text x="21" y="222">oovCommon</text>
</g>
<g  fill="#f5fff5" stroke="#000000" style="stroke-width:1">
<rect x="307" y="539" width="367" height="116" />
<line x1="307" y1="560" x2="674" y2="560" />
<line x1="307" y1="590" x2="674" y2="590" />
</g>
<g font-size="10.000000" stroke="none">
<text x="308" y="548">ScannedComponentsInfo</text>
<text x="308" y="557">oovBuilder</text>
<text x="308" y="569">-std::map&lt;OovString,ScannedComponent,std::less&lt;OovString&gt;,std::allocator&lt;</text>
<text x="308" y="578">   std::pair&lt;OovString,ScannedComponent&gt; &gt; &gt; mComponents</text>
<text x="308" y="587">-InsertOrderedSet mProjectIncludeDirs</text>
<text x="308" y="599">+addSourceFile(OovStringRef compName, OovStringRef srcFileName)</text>
<text x="308" y="608">+addIncludeFile(OovStringRef compName, OovStringRef srcFileName)</text>
<text x="308" y="617">+initializeComponentTypesFileValues(ComponentTypesFile file)</text>
<text x="308" y="626">+setProjectComponentsFileValues(ComponentsFile file)</text>
<text x="308" y="635">-addComponents(OovStringRef compName)</text>
<text x="308" y="644">+addProjectIncludePath(OovStringRef path)</text>
<text x="308" y="653">+getProjectIncludeDirs()</text>
</g>
<g  fill="#f5fff5" stroke="#000000" style="stroke-width:1">
<rect x="267" y="454" width="63" height="26" />
<line x1="267" y1="475" x2="330" y2="475" />
<line x1="267" y1="478" x2="330" y2="478" />
</g>
<g font-size="10.000000" stroke="none">
<text x="268" y="463">dirRecurser</text>
<text x="268" y="472">oovCommon</text>
</g>
<g  fill="#f5f5ff" stroke="#000000" style="stroke-width:1">
<line x1="227" y1="142" x2="422" y2="279" />
<circle cx="238" cy="150" r="5" style="fill:#ffffff" />
<circle cx="251" cy="159" r="5" style="fill:#000000" />
<circle cx="251" cy="159" r="2" style="fill:#000000" />
<polygon points="227,142 230,150 238,150 235,142 227,142 " style="fill:#000000" />
<line x1="261" y1="112" x2="417" y2="155" />
<circle cx="274" cy="115" r="5" style="fill:#ffffff" />
<line x1="161" y1="142" x2="191" y2="224" />
<circle cx="165" cy="155" r="5" style="fill:#ffffff" />
<line x1="261" y1="71" x2="306" y2="67" />
<circle cx="274" cy="69" r="5" style="fill:#ffffff" />
<line x1="261" y1="131" x2="297" y2="146" />
<circle cx="273" cy="136" r="5" style="fill:#ffffff" />
<line x1="167" y1="142" x2="238" y2="293" />
<circle cx="172" cy="154" r="5" style="fill:#ffffff" />
<line x1="140" y1="142" x2="153" y2="521" />
<circle cx="140" cy="155" r="5" style="fill:#ffffff" />
<line x1="119" y1="142" x2="63" y2="310" />
<circle cx="114" cy="155" r="5" style="fill:#ffffff" />
<line x1="144" y1="142" x2="164" y2="387" />
<circle cx="145" cy="155" r="5" style="fill:#ffffff" />
<line x1="100" y1="142" x2="59" y2="204" />
<circle cx="92" cy="153" r="5" style="fill:#ffffff" />
<line x1="181" y1="142" x2="451" y2="539" />
<circle cx="188" cy="153" r="5" style="fill:#ffffff" />
<line x1="497" y1="246" x2="468" y2="180" />
<circle cx="473" cy="192" r="5" style="fill:#ffffff" />
<circle cx="480" cy="207" r="5" style="fill:#000000" />
<circle cx="480" cy="207" r="2" style="fill:#000000" />
<polygon points="468,180 468,188 473,192 475,185 468,180 " style="fill:#ffffff" />
<line x1="422" y1="321" x2="226" y2="248" />
<circle cx="408" cy="316" r="5" style="fill:#ffffff" />
<line x1="422" y1="342" x2="278" y2="313" />
<circle cx="408" cy="339" r="5" style="fill:#ffffff" />
<circle cx="392" cy="336" r="5" style="fill:#000000" />
<circle cx="392" cy="336" r="2" style="fill:#000000" />
<polygon points="422,342 416,337 409,340 414,344 422,342 " style="fill:#000000" />
<line x1="422" y1="437" x2="274" y2="521" />
<polygon points="274,521 283,522 277,520 278,512 274,521 " style="fill:#ffffff" />
<circle cx="286" cy="514" r="5" style="fill:#ffffff" />
<circle cx="300" cy="506" r="5" style="fill:#000000" />
<circle cx="300" cy="506" r="2" style="fill:#000000" />
<polygon points="274,521 282,521 286,515 278,514 274,521 " style="fill:#ffffff" />
<line x1="518" y1="488" x2="504" y2="539" />
<circle cx="514" cy="501" r="5" style="fill:#ffffff" />
<circle cx="510" cy="516" r="5" style="fill:#000000" />
<circle cx="510" cy="516" r="2" style="fill:#000000" />
<polygon points="518,488 512,494 515,501 520,496 518,488 " style="fill:#000000" />
<line x1="422" y1="417" x2="329" y2="455" />
<circle cx="409" cy="422" r="5" style="fill:#ffffff" />
<circle cx="356" cy="443" r="5" style="fill:#ffffff" />
<circle cx="356" cy="443" r="2" style="fill:#ffffff" />
<polygon points="329,455 342,455 338,446 329,455 " style="fill:#ffffff" />
<line x1="417" y1="179" x2="226" y2="229" />
<circle cx="403" cy="182" r="5" style="fill:#ffffff" />
<line x1="457" y1="154" x2="429" y2="99" />
<circle cx="450" cy="141" r="5" style="fill:#ffffff" />
<line x1="443" y1="180" x2="263" y2="293" />
<circle cx="431" cy="187" r="5" style="fill:#ffffff" />
<line x1="448" y1="180" x2="197" y2="387" />
<circle cx="437" cy="188" r="5" style="fill:#ffffff" />
<line x1="216" y1="224" x2="306" y2="172" />
<circle cx="293" cy="179" r="5" style="fill:#ffffff" />
<line x1="204" y1="250" x2="234" y2="293" />
<circle cx="225" cy="281" r="5" style="fill:#ffffff" />
<line x1="194" y1="250" x2="162" y2="521" />
<circle cx="163" cy="507" r="5" style="fill:#ffffff" />
<line x1="175" y1="250" x2="79" y2="310" />
<circle cx="90" cy="302" r="5" style="fill:#ffffff" />
<line x1="239" y1="319" x2="175" y2="521" />
<circle cx="179" cy="507" r="5" style="fill:#ffffff" />
<line x1="208" y1="309" x2="99" y2="320" />
<circle cx="194" cy="310" r="5" style="fill:#ffffff" />
<circle cx="178" cy="312" r="5" style="fill:#000000" />
<circle cx="178" cy="312" r="2" style="fill:#000000" />
<polygon points="208,309 200,306 195,310 201,314 208,309 " style="fill:#000000" />
<line x1="215" y1="293" x2="79" y2="230" />
<circle cx="202" cy="287" r="5" style="fill:#ffffff" />
<line x1="159" y1="521" x2="165" y2="439" />
<circle cx="160" cy="507" r="5" style="fill:#ffffff" />
<line x1="234" y1="521" x2="283" y2="480" />
<circle cx="244" cy="512" r="5" style="fill:#ffffff" />
<circle cx="259" cy="499" r="5" style="fill:#ffffff" />
<circle cx="259" cy="499" r="2" style="fill:#ffffff" />
<polygon points="283,480 270,484 277,492 283,480 " style="fill:#ffffff" />
<line x1="59" y1="310" x2="51" y2="230" />
<circle cx="53" cy="259" r="5" style="fill:#ffffff" />
<circle cx="53" cy="259" r="2" style="fill:#ffffff" />
<polygon points="51,230 47,243 57,242 51,230 " style="fill:#ffffff" />
</g>
</svg>