<svg xmlns="http://www.w3.org/2000/svg" version="1.1" width="783" height="1212">
<g  fill="#f5fff5" stroke="#000000" style="stroke-width:1">
<rect x="29" y="20" width="379" height="224" />
<line x1="29" y1="41" x2="408" y2="41" />
<line x1="29" y1="107" x2="408" y2="107" />
</g>
<g font-size="10.000000" stroke="none">
<text x="30" y="29">ComponentFinder</text>
<text x="30" y="38">/oovBuilder/</text>
<text x="30" y="50">-string mRootPathName</text>
<text x="30" y="59">-OovStringVec mExcludeDirs</text>
<text x="30" y="68">-ScannedComponentsInfo mScannedInfo</text>
<text x="30" y="77">-ProjectReader mProject</text>
<text x="30" y="86">-ComponentTypesFile mComponentTypesFile</text>
<text x="30" y="95">-ComponentsFile mComponentsFile</text>
<text x="30" y="104">-Package mScanningPackage</text>
<text x="30" y="116">+bool readProject(OovStringRef oovProjectDir, OovStringRef buildConfigName)</text>
<text x="30" y="125">+void scanProject()</text>
<text x="30" y="134">+void scanExternalProject(OovStringRef externalRootSrch, Package pkg)</text>
<text x="30" y="143">+void addBuildPackage(Package pkg)</text>
<text x="30" y="152">+void saveProject(OovStringRef compFn)</text>
<text x="30" y="161">+OovString getComponentName(OovStringRef filePath)</text>
<text x="30" y="170">+OovStringVec getAllIncludeDirs()</text>
<text x="30" y="179">-bool processFile(OovStringRef filePath)</text>
<text x="30" y="188">+void ComponentFinder()</text>
<text x="30" y="197">+ProjectReader getProject()</text>
<text x="30" y="206">+ProjectReader getProject()</text>
<text x="30" y="215">+ComponentTypesFile getComponentTypesFile()</text>
<text x="30" y="224">+ComponentsFile getComponentsFile()</text>
<text x="30" y="233">+ScannedComponentsInfo getScannedInfo()</text>
<text x="30" y="242">+OovString makeFileName(OovStringRef projName)</text>
</g>
<g  fill="#f5fff5" stroke="#000000" style="stroke-width:1">
<rect x="407" y="286" width="375" height="116" />
<line x1="407" y1="307" x2="782" y2="307" />
<line x1="407" y1="337" x2="782" y2="337" />
</g>
<g font-size="10.000000" stroke="none">
<text x="408" y="295">ScannedComponentsInfo</text>
<text x="408" y="304">/oovBuilder/</text>
<text x="408" y="316">-std::map&lt;OovString,ScannedComponent,std::less&lt;OovString&gt;,std::allocator&lt;</text>
<text x="408" y="325">   std::pair&lt;OovString,ScannedComponent&gt; &gt; &gt; mComponents</text>
<text x="408" y="334">-InsertOrderedSet mProjectIncludeDirs</text>
<text x="408" y="346">+void addSourceFile(OovStringRef compName, OovStringRef srcFileName)</text>
<text x="408" y="355">+void addIncludeFile(OovStringRef compName, OovStringRef srcFileName)</text>
<text x="408" y="364">+void initializeComponentTypesFileValues(ComponentTypesFile file)</text>
<text x="408" y="373">+void setProjectComponentsFileValues(ComponentsFile file)</text>
<text x="408" y="382">-ScannedComponentsInfo::MapIter addComponents(OovStringRef compName)</text>
<text x="408" y="391">+void addProjectIncludePath(OovStringRef path)</text>
<text x="408" y="400">+InsertOrderedSet getProjectIncludeDirs()</text>
</g>
<g  fill="#f5fff5" stroke="#000000" style="stroke-width:1">
<rect x="30" y="267" width="71" height="26" />
<line x1="30" y1="288" x2="101" y2="288" />
<line x1="30" y1="291" x2="101" y2="291" />
</g>
<g font-size="10.000000" stroke="none">
<text x="31" y="276">ProjectReader</text>
<text x="31" y="285">/oovCommon/</text>
</g>
<g  fill="#f5fff5" stroke="#000000" style="stroke-width:1">
<rect x="131" y="389" width="104" height="26" />
<line x1="131" y1="410" x2="235" y2="410" />
<line x1="131" y1="413" x2="235" y2="413" />
</g>
<g font-size="10.000000" stroke="none">
<text x="132" y="398">ComponentTypesFile</text>
<text x="132" y="407">/oovCommon/</text>
</g>
<g  fill="#f5fff5" stroke="#000000" style="stroke-width:1">
<rect x="299" y="278" width="80" height="26" />
<line x1="299" y1="299" x2="379" y2="299" />
<line x1="299" y1="302" x2="379" y2="302" />
</g>
<g font-size="10.000000" stroke="none">
<text x="300" y="287">ComponentsFile</text>
<text x="300" y="296">/oovCommon/</text>
</g>
<g  fill="#f5fff5" stroke="#000000" style="stroke-width:1">
<rect x="30" y="344" width="71" height="26" />
<line x1="30" y1="365" x2="101" y2="365" />
<line x1="30" y1="368" x2="101" y2="368" />
</g>
<g font-size="10.000000" stroke="none">
<text x="31" y="353">Package</text>
<text x="31" y="362">/oovCommon/</text>
</g>
<g  fill="#f5fff5" stroke="#000000" style="stroke-width:1">
<rect x="492" y="22" width="196" height="53" />
<line x1="492" y1="43" x2="688" y2="43" />
<line x1="492" y1="46" x2="688" y2="46" />
</g>
<g font-size="10.000000" stroke="none">
<text x="493" y="31">dirRecurser</text>
<text x="493" y="40">/oovCommon/</text>
<text x="493" y="55">+bool recurseDirs(OovStringRef path)</text>
<text x="493" y="64">+void ~dirRecurser()</text>
<text x="493" y="73">+bool processFile(OovStringRef filePath)</text>
</g>
<g  fill="#f5fff5" stroke="#000000" style="stroke-width:1">
<rect x="16" y="784" width="609" height="278" />
<line x1="16" y1="805" x2="625" y2="805" />
<line x1="16" y1="880" x2="625" y2="880" />
</g>
<g font-size="10.000000" stroke="none">
<text x="17" y="793">ComponentBuilder</text>
<text x="17" y="802">/oovBuilder/</text>
<text x="17" y="814">-FilePath mSrcRootDir</text>
<text x="17" y="823">-FilePath mOutputPath</text>
<text x="17" y="832">-FilePath mIntermediatePath</text>
<text x="17" y="841">-ComponentFinder mComponentFinder</text>
<text x="17" y="850">-ToolPathFile mToolPathFile</text>
<text x="17" y="859">-ObjSymbols mObjSymbols</text>
<text x="17" y="868">-IncDirDependencyMapReader mIncDirMap</text>
<text x="17" y="877">-ComponentPkgDeps mComponentPkgDeps</text>
<text x="17" y="889">+void build(eProcessModes mode, OovStringRef incDepsFilePath, OovStringRef buildDirClass)</text>
<text x="17" y="898">-void buildComponents()</text>
<text x="17" y="907">-void processSourceForComponents(eProcessModes pm)</text>
<text x="17" y="916">-void generateDependencies()</text>
<text x="17" y="925">-void processSourceFile(eProcessModes pm, OovStringRef srcFile, OovStringVec incDirs, OovStringVec incFiles, </text>
<text x="17" y="934">   OovStringSet externPkgCompileArgs)</text>
<text x="17" y="943">-void makeLib(OovStringRef libName, OovStringVec objectFileNames)</text>
<text x="17" y="952">-void makeLibSymbols(OovStringRef clumpName, OovStringVec files)</text>
<text x="17" y="961">-void makeExe(OovStringRef compName, OovStringVec sources, OovStringVec projectLibsFilePaths, OovStringVec externLibDirs</text>
<text x="17" y="970">   , IndexedStringVec externOrderedLibNames, IndexedStringSet externPkgLinkArgs, bool shared)</text>
<text x="17" y="979">-OovString makeOutputObjectFileName(OovStringRef str)</text>
<text x="17" y="988">-OovString getSymbolBasePath()</text>
<text x="17" y="997">-bool anyIncDirsMatch(OovStringRef compName, RootDirPackage pkg)</text>
<text x="17" y="1006">-void makeOrderedPackageLibs(OovStringRef compName, OovStringVec libDirs, OovStringVec sortedLibNames)</text>
<text x="17" y="1015">-void appendOrderedPackageLibs(OovStringRef compName, OovStringVec libDirs, IndexedStringVec sortedLibNames)</text>
<text x="17" y="1024">-OovStringSet getComponentCompileArgs(OovStringRef compName, ComponentTypesFile file)</text>
<text x="17" y="1033">-IndexedStringSet getComponentPackageLinkArgs(OovStringRef compName, ComponentTypesFile file)</text>
<text x="17" y="1042">+void ComponentBuilder(ComponentFinder compFinder)</text>
<text x="17" y="1051">-OovString getDiagFileName()</text>
<text x="17" y="1060">-void makePackageLibSymbols(OovStringRef compName)</text>
</g>
<g  fill="#f5fff5" stroke="#000000" style="stroke-width:1">
<rect x="262" y="411" width="68" height="26" />
<line x1="262" y1="432" x2="330" y2="432" />
<line x1="262" y1="435" x2="330" y2="435" />
</g>
<g font-size="10.000000" stroke="none">
<text x="263" y="420">CppChildArgs</text>
<text x="263" y="429">/oovBuilder/</text>
</g>
<g  fill="#f5fff5" stroke="#000000" style="stroke-width:1">
<rect x="487" y="108" width="295" height="134" />
<line x1="487" y1="129" x2="782" y2="129" />
<line x1="487" y1="186" x2="782" y2="186" />
</g>
<g font-size="10.000000" stroke="none">
<text x="488" y="117">srcFileParser</text>
<text x="488" y="126">/oovBuilder/</text>
<text x="488" y="138">-InProcMutex mListenerStdMutex</text>
<text x="488" y="147">-char mSrcRootDir</text>
<text x="488" y="156">-char mAnalysisDir</text>
<text x="488" y="165">-OovStringVec mExcludeDirs</text>
<text x="488" y="174">-OovStringVec mIncDirArgs</text>
<text x="488" y="183">-ComponentFinder mComponentFinder</text>
<text x="488" y="195">+bool analyzeSrcFiles(OovStringRef srcRootDir, OovStringRef </text>
<text x="488" y="204">   analysisDir)</text>
<text x="488" y="213">+bool processItem(CppChildArgs item)</text>
<text x="488" y="222">-bool processFile(OovStringRef filePath)</text>
<text x="488" y="231">+void srcFileParser(ComponentFinder compFinder)</text>
<text x="488" y="240">+void ~srcFileParser()</text>
</g>
<g  fill="#f5fff5" stroke="#000000" style="stroke-width:1">
<rect x="213" y="315" width="142" height="44" />
<line x1="213" y1="336" x2="355" y2="336" />
<line x1="213" y1="339" x2="355" y2="339" />
</g>
<g font-size="10.000000" stroke="none">
<text x="214" y="324">InsertOrderedSet</text>
<text x="214" y="333">/oovBuilder/</text>
<text x="214" y="348">+void insert(OovStringRef str)</text>
<text x="214" y="357">+bool exists(OovStringRef str)</text>
</g>
<g  fill="#f5fff5" stroke="#000000" style="stroke-width:1">
<rect x="571" y="1086" width="205" height="125" />
<line x1="571" y1="1107" x2="776" y2="1107" />
<line x1="571" y1="1146" x2="776" y2="1146" />
</g>
<g font-size="10.000000" stroke="none">
<text x="572" y="1095">ToolPathFile</text>
<text x="572" y="1104">/oovBuilder/</text>
<text x="572" y="1116">-string mBuildConfig</text>
<text x="572" y="1125">-string mPathCompiler</text>
<text x="572" y="1134">-string mPathLibber</text>
<text x="572" y="1143">-string mPathObjSymbol</text>
<text x="572" y="1155">+std::string getCompilerPath()</text>
<text x="572" y="1164">+std::string getAnalysisToolPath()</text>
<text x="572" y="1173">+std::string getLibberPath()</text>
<text x="572" y="1182">+std::string getObjSymbolPath()</text>
<text x="572" y="1191">+std::string getCovInstrToolPath()</text>
<text x="572" y="1200">-void getPaths()</text>
<text x="572" y="1209">+void setConfig(OovStringRef buildConfig)</text>
</g>
<g  fill="#f5fff5" stroke="#000000" style="stroke-width:1">
<rect x="155" y="650" width="623" height="98" />
<line x1="155" y1="671" x2="778" y2="671" />
<line x1="155" y1="683" x2="778" y2="683" />
</g>
<g font-size="10.000000" stroke="none">
<text x="156" y="659">ObjSymbols</text>
<text x="156" y="668">/oovBuilder/</text>
<text x="156" y="680">-InProcMutex mListenerStdMutex</text>
<text x="156" y="692">+bool makeClumpSymbols(OovStringRef clumpName, OovStringVec libFileNames, OovStringRef outSymPath, OovStringRef </text>
<text x="156" y="701">   objSymbolTool, ComponentTaskQueue queue)</text>
<text x="156" y="710">+void appendOrderedLibs(OovStringRef clumpName, OovStringRef outPath, OovStringVec libDirs, OovStringVec sorte</text>
<text x="156" y="719">   dLibNames)</text>
<text x="156" y="728">+void appendOrderedLibFileNames(OovStringRef clumpName, OovStringRef outPath, OovStringVec sortedLibFileNames)</text>
<text x="156" y="737">-bool makeObjectSymbols(OovStringVec libFiles, OovStringRef outSymPath, OovStringRef objSymbolTool, ComponentTaskQueue </text>
<text x="156" y="746">   queue, ClumpSymbols clumpSymbols)</text>
</g>
<g  fill="#f5fff5" stroke="#000000" style="stroke-width:1">
<rect x="30" y="464" width="450" height="161" />
<line x1="30" y1="485" x2="480" y2="485" />
<line x1="30" y1="488" x2="480" y2="488" />
</g>
<g font-size="10.000000" stroke="none">
<text x="31" y="473">IncDirDependencyMapReader</text>
<text x="31" y="482">/oovCommon/</text>
<text x="31" y="497">+void read(OovStringRef fn)</text>
<text x="31" y="506">+void getImmediateIncludeFilesUsedBySourceFile(OovStringRef srcName, std::</text>
<text x="31" y="515">   set&lt;IncludedPath,std::less&lt;IncludedPath&gt;,std::allocator&lt;IncludedPath&gt; </text>
<text x="31" y="524">   &gt; incFiles)</text>
<text x="31" y="533">+void getNestedIncludeFilesUsedBySourceFile(OovStringRef srcName, std::set&lt;</text>
<text x="31" y="542">   IncludedPath,std::less&lt;IncludedPath&gt;,std::allocator&lt;IncludedPath&gt; &gt; i</text>
<text x="31" y="551">   ncFiles)</text>
<text x="31" y="560">+OovStringVec getIncludeFilesDefinedInDirectory(OovStringRef dirName)</text>
<text x="31" y="569">+OovStringVec getNestedIncludeDirsUsedBySourceFile(OovStringRef srcName)</text>
<text x="31" y="578">+bool anyRootDirsUsedBySourceFile(OovStringVec incRoots, OovStringSet includesUsedSoFar</text>
<text x="31" y="587">   , OovStringRef srcName)</text>
<text x="31" y="596">+bool anyRootDirsMatch(OovStringVec incRoots, OovStringRef dirName)</text>
<text x="31" y="605">+OovStringVec getOrderedIncludeDirsForSourceFile(OovStringRef srcName, OovStringVec </text>
<text x="31" y="614">   orderedIncRoots)</text>
<text x="31" y="623">+OovStringVec getFilesDefinedInDirectory(OovStringRef dirName)</text>
</g>
<g  fill="#f5fff5" stroke="#000000" style="stroke-width:1">
<rect x="20" y="1114" width="336" height="62" />
<line x1="20" y1="1135" x2="356" y2="1135" />
<line x1="20" y1="1156" x2="356" y2="1156" />
</g>
<g font-size="10.000000" stroke="none">
<text x="21" y="1123">ComponentPkgDeps</text>
<text x="21" y="1132">/oovBuilder/</text>
<text x="21" y="1144">-std::map&lt;OovString,OovStringSet,std::less&lt;OovString&gt;,std::allocator&lt;</text>
<text x="21" y="1153">   std::pair&lt;OovString,OovStringSet&gt; &gt; &gt; mCompPkgMap</text>
<text x="21" y="1165">+bool isDependent(OovStringRef compName, OovStringRef pkgName)</text>
<text x="21" y="1174">+void addPkgDep(OovString compName, OovStringRef pkgName)</text>
</g>
<g  fill="#f5fff5" stroke="#000000" style="stroke-width:1">
<rect x="516" y="429" width="266" height="98" />
<line x1="516" y1="450" x2="782" y2="450" />
<line x1="516" y1="471" x2="782" y2="471" />
</g>
<g font-size="10.000000" stroke="none">
<text x="517" y="438">ComponentTaskQueue</text>
<text x="517" y="447">/oovBuilder/</text>
<text x="517" y="459">+InProcMutex mListenerStdMutex</text>
<text x="517" y="468">-TaskQueueListener mListener</text>
<text x="517" y="480">+bool processItem(ProcessArgs item)</text>
<text x="517" y="489">+bool runProcess(OovStringRef procPath, OovStringRef </text>
<text x="517" y="498">   outFile, OovProcessChildArgs args, InProcMutex </text>
<text x="517" y="507">   mutex, OovStringRef stdOutFn)</text>
<text x="517" y="516">+void ComponentTaskQueue()</text>
<text x="517" y="525">+void setTaskListener(TaskQueueListener listener)</text>
</g>
<g  fill="#f5fff5" stroke="#000000" style="stroke-width:1">
<rect x="42" y="406" width="78" height="26" />
<line x1="42" y1="427" x2="120" y2="427" />
<line x1="42" y1="430" x2="120" y2="430" />
</g>
<g font-size="10.000000" stroke="none">
<text x="43" y="415">RootDirPackage</text>
<text x="43" y="424">/oovCommon/</text>
</g>
<g  fill="#f5fff5" stroke="#000000" style="stroke-width:1">
<rect x="369" y="1095" width="189" height="80" />
<line x1="369" y1="1116" x2="558" y2="1116" />
<line x1="369" y1="1128" x2="558" y2="1128" />
</g>
<g font-size="10.000000" stroke="none">
<text x="370" y="1104">LibTaskListener</text>
<text x="370" y="1113">/oovBuilder/</text>
<text x="370" y="1125">-OovStringVec mBuiltLibs</text>
<text x="370" y="1137">+OovStringVec getBuiltLibs()</text>
<text x="370" y="1146">-void extraProcessing(bool success</text>
<text x="370" y="1155">   , OovStringRef outFile, OovStringRef </text>
<text x="370" y="1164">   stdOutFn, ProcessArgs ite</text>
<text x="370" y="1173">   m)</text>
</g>
<g  fill="#f5fff5" stroke="#000000" style="stroke-width:1">
<rect x="362" y="416" width="103" height="26" />
<line x1="362" y1="437" x2="465" y2="437" />
<line x1="362" y1="440" x2="465" y2="440" />
</g>
<g font-size="10.000000" stroke="none">
<text x="363" y="425">OovProcessChildArgs</text>
<text x="363" y="434">/oovCommon/</text>
</g>
<g  fill="#f5f5ff" stroke="#000000" style="stroke-width:1">
<line x1="407" y1="238" x2="492" y2="286" />
<circle cx="433" cy="252" r="5" style="fill:#000000" />
<circle cx="433" cy="252" r="2" style="fill:#000000" />
<polygon points="407,238 411,245 419,244 415,238 407,238 " style="fill:#000000" />
<line x1="103" y1="244" x2="78" y2="267" />
<circle cx="80" cy="264" r="5" style="fill:#000000" />
<circle cx="80" cy="264" r="2" style="fill:#000000" />
<polygon points="103,244 95,245 93,253 101,252 103,244 " style="fill:#000000" />
<line x1="204" y1="244" x2="184" y2="389" />
<circle cx="199" cy="273" r="5" style="fill:#000000" />
<circle cx="199" cy="273" r="2" style="fill:#000000" />
<polygon points="204,244 199,251 203,257 207,252 204,244 " style="fill:#000000" />
<line x1="303" y1="244" x2="330" y2="278" />
<circle cx="321" cy="267" r="5" style="fill:#000000" />
<circle cx="321" cy="267" r="2" style="fill:#000000" />
<polygon points="303,244 304,252 311,254 311,247 303,244 " style="fill:#000000" />
<line x1="142" y1="244" x2="73" y2="344" />
<circle cx="134" cy="255" r="5" style="fill:#ffffff" />
<circle cx="124" cy="268" r="5" style="fill:#000000" />
<circle cx="124" cy="268" r="2" style="fill:#000000" />
<polygon points="142,244 134,247 135,255 142,252 142,244 " style="fill:#ffffff" />
<line x1="407" y1="90" x2="492" y2="70" />
<circle cx="462" cy="76" r="5" style="fill:#ffffff" />
<circle cx="462" cy="76" r="2" style="fill:#ffffff" />
<polygon points="492,70 479,68 481,78 492,70 " style="fill:#ffffff" />
<line x1="232" y1="244" x2="303" y2="784" />
<circle cx="301" cy="770" r="5" style="fill:#ffffff" />
<circle cx="299" cy="754" r="5" style="fill:#000000" />
<circle cx="299" cy="754" r="2" style="fill:#000000" />
<polygon points="303,784 306,776 302,771 298,777 303,784 " style="fill:#ffffff" />
<line x1="247" y1="244" x2="293" y2="411" />
<polygon points="293,411 296,402 292,408 286,405 293,411 " style="fill:#ffffff" />
<circle cx="289" cy="397" r="5" style="fill:#ffffff" />
<circle cx="287" cy="390" r="2" style="fill:#ffffff" />
<line x1="407" y1="151" x2="487" y2="160" />
<polygon points="487,160 480,154 484,160 479,164 487,160 " style="fill:#ffffff" />
<circle cx="473" cy="158" r="5" style="fill:#ffffff" />
<circle cx="457" cy="156" r="5" style="fill:#000000" />
<circle cx="457" cy="156" r="2" style="fill:#000000" />
<polygon points="487,160 480,155 474,159 479,163 487,160 " style="fill:#ffffff" />
<line x1="254" y1="244" x2="277" y2="315" />
<circle cx="258" cy="257" r="5" style="fill:#ffffff" />
<line x1="407" y1="370" x2="235" y2="395" />
<circle cx="393" cy="372" r="5" style="fill:#ffffff" />
<circle cx="386" cy="373" r="2" style="fill:#ffffff" />
<line x1="407" y1="306" x2="379" y2="299" />
<circle cx="393" cy="302" r="5" style="fill:#ffffff" />
<circle cx="386" cy="300" r="2" style="fill:#ffffff" />
<line x1="407" y1="340" x2="355" y2="338" />
<circle cx="377" cy="338" r="5" style="fill:#000000" />
<circle cx="377" cy="338" r="2" style="fill:#000000" />
<polygon points="407,340 400,336 394,340 400,344 407,340 " style="fill:#000000" />
<line x1="65" y1="293" x2="65" y2="344" />
<circle cx="65" cy="307" r="5" style="fill:#ffffff" />
<line x1="186" y1="415" x2="284" y2="784" />
<polygon points="284,784 287,775 283,781 277,778 284,784 " style="fill:#ffffff" />
<circle cx="280" cy="770" r="5" style="fill:#ffffff" />
<circle cx="278" cy="763" r="2" style="fill:#ffffff" />
<line x1="68" y1="370" x2="78" y2="406" />
<circle cx="69" cy="377" r="5" style="fill:#ffffff" />
<circle cx="69" cy="377" r="2" style="fill:#ffffff" />
<polygon points="78,406 79,393 70,395 78,406 " style="fill:#ffffff" />
<line x1="599" y1="74" x2="611" y2="108" />
<circle cx="608" cy="102" r="5" style="fill:#ffffff" />
<circle cx="608" cy="102" r="2" style="fill:#ffffff" />
<polygon points="599,74 599,87 608,84 599,74 " style="fill:#ffffff" />
<line x1="314" y1="784" x2="296" y2="437" />
<circle cx="313" cy="770" r="5" style="fill:#ffffff" />
<line x1="538" y1="1062" x2="576" y2="1086" />
<circle cx="563" cy="1078" r="5" style="fill:#000000" />
<circle cx="563" cy="1078" r="2" style="fill:#000000" />
<polygon points="538,1062 542,1069 549,1069 546,1062 538,1062 " style="fill:#000000" />
<line x1="410" y1="784" x2="435" y2="748" />
<circle cx="427" cy="759" r="5" style="fill:#000000" />
<circle cx="427" cy="759" r="2" style="fill:#000000" />
<polygon points="410,784 418,781 417,773 410,776 410,784 " style="fill:#000000" />
<line x1="297" y1="784" x2="268" y2="624" />
<circle cx="291" cy="754" r="5" style="fill:#000000" />
<circle cx="291" cy="754" r="2" style="fill:#000000" />
<polygon points="297,784 300,776 295,771 292,778 297,784 " style="fill:#000000" />
<line x1="238" y1="1062" x2="206" y2="1114" />
<circle cx="222" cy="1087" r="5" style="fill:#000000" />
<circle cx="222" cy="1087" r="2" style="fill:#000000" />
<polygon points="238,1062 231,1066 231,1073 238,1070 238,1062 " style="fill:#000000" />
<line x1="422" y1="784" x2="613" y2="527" />
<circle cx="595" cy="551" r="5" style="fill:#ffffff" />
<circle cx="595" cy="551" r="2" style="fill:#ffffff" />
<polygon points="613,527 601,534 610,540 613,527 " style="fill:#ffffff" />
<line x1="255" y1="784" x2="87" y2="432" />
<polygon points="255,784 256,775 254,781 247,780 255,784 " style="fill:#ffffff" />
<circle cx="248" cy="771" r="5" style="fill:#ffffff" />
<circle cx="245" cy="765" r="2" style="fill:#ffffff" />
<line x1="413" y1="1062" x2="437" y2="1095" />
<circle cx="421" cy="1073" r="5" style="fill:#ffffff" />
<line x1="346" y1="784" x2="411" y2="442" />
<circle cx="348" cy="770" r="5" style="fill:#ffffff" />
<line x1="313" y1="411" x2="544" y2="242" />
<polygon points="544,242 535,242 541,244 541,251 544,242 " style="fill:#ffffff" />
<circle cx="532" cy="250" r="5" style="fill:#ffffff" />
<circle cx="519" cy="259" r="5" style="fill:#000000" />
<circle cx="519" cy="259" r="2" style="fill:#000000" />
<line x1="330" y1="425" x2="362" y2="427" />
<circle cx="332" cy="425" r="5" style="fill:#ffffff" />
<circle cx="332" cy="425" r="2" style="fill:#ffffff" />
<polygon points="362,427 350,421 349,431 362,427 " style="fill:#ffffff" />
<line x1="506" y1="650" x2="609" y2="527" />
<circle cx="514" cy="639" r="5" style="fill:#ffffff" />
<circle cx="519" cy="633" r="2" style="fill:#ffffff" />
<line x1="516" y1="451" x2="464" y2="439" />
<polygon points="516,451 510,444 513,451 507,454 516,451 " style="fill:#ffffff" />
<circle cx="502" cy="447" r="5" style="fill:#ffffff" />
<circle cx="495" cy="446" r="2" style="fill:#ffffff" />
</g>
</svg>