<svg xmlns="http://www.w3.org/2000/svg" version="1.1"
  font-family="Arial, Helvetica, sans-serif" font-size="10.000000" 
  width="737" height="851">
<g  fill="#f5fff5" stroke="#000000" style="stroke-width:1">
<rect x="594" y="25" width="133" height="143" />
<line x1="594" y1="38" x2="727" y2="38" />
<polygon points="707,46 719,51 719,41 707,46 " style="fill:#ffffff" />
<polygon points="707,60 714,64 721,60 714,56 707,60 " style="fill:#ffffff" />
<polygon points="707,74 714,78 721,74 714,70 707,74 " style="fill:#000000" />
<polygon points="707,88 715,93 711,88 715,83 707,88 " style="fill:#ffffff" />
<circle cx="707" cy="102" r="5" style="fill:#ffffff" />
<circle cx="707" cy="116" r="5" style="fill:#ffffff" />
<circle cx="714" cy="116" r="2" style="fill:#ffffff" />
<circle cx="707" cy="130" r="5" style="fill:#ffffff" />
<circle cx="707" cy="130" r="2" style="fill:#ffffff" />
<circle cx="707" cy="144" r="5" style="fill:#ffffff" />
<circle cx="707" cy="144" r="2" style="fill:#000000" />
<circle cx="707" cy="158" r="5" style="fill:#000000" />
<circle cx="707" cy="158" r="2" style="fill:#000000" />
</g>
<g stroke="none">
<text x="595" y="34">Relations Key</text>
<text x="595" y="48">Generalization</text>
<text x="595" y="62">Aggregation(reference)</text>
<text x="595" y="76">Composition(owned)</text>
<text x="595" y="90">Const</text>
<text x="595" y="104">Method Variable</text>
<text x="595" y="118">Method Parameter</text>
<text x="595" y="132">Public</text>
<text x="595" y="146">Protected</text>
<text x="595" y="160">Private</text>
</g>
<g  fill="#f5fff5" stroke="#000000" style="stroke-width:1">
<rect x="17" y="18" width="240" height="116" />
<line x1="17" y1="39" x2="257" y2="39" />
<line x1="17" y1="51" x2="257" y2="51" />
</g>
<g stroke="none">
<text x="18" y="27">OovBuilder</text>
<text x="18" y="36">oovBuilder</text>
<text x="18" y="48">-ComponentFinder mCompFinder</text>
<text x="18" y="60">+build(eProcessModes processMode, OovStringRe</text>
<text x="25" y="69">f oovProjDir, OovStringRef buildConfigName,</text>
<text x="25" y="78"> bool verbose)</text>
<text x="18" y="87">+getComponentFinder()</text>
<text x="18" y="96">-readProject(OovStringRef buildConfigName,</text>
<text x="25" y="105"> OovStringRef oovProjDir, bool verbose)</text>
<text x="18" y="114">-analyze(BuildConfigWriter cfg, eProcessModes</text>
<text x="25" y="123"> procMode, OovStringRef buildConfigName,</text>
<text x="25" y="132"> OovStringRef srcRootDir)</text>
</g>
<g stroke="none" font-style="italic">
</g>
<g  fill="#f5fff5" stroke="#000000" style="stroke-width:1">
<rect x="479" y="554" width="254" height="296" />
<line x1="479" y1="575" x2="733" y2="575" />
<line x1="479" y1="668" x2="733" y2="668" />
</g>
<g stroke="none">
<text x="480" y="563">ComponentFinder</text>
<text x="480" y="572">oovBuilder</text>
<text x="480" y="584">-string&lt;&lt;typedef&gt;&gt; mRootPathName</text>
<text x="480" y="593">-OovStringVec mExcludeDirs</text>
<text x="480" y="602">-ScannedComponentsInfo mScannedInfo</text>
<text x="480" y="611">-ProjectReader mProject</text>
<text x="480" y="620">-ProjectBuildArgs mProjectBuildArgs</text>
<text x="480" y="629">-ComponentTypesFile mComponentTypesFile</text>
<text x="480" y="638">-ComponentsFile mComponentsFile</text>
<text x="480" y="647">-Package mScanningPackage</text>
<text x="480" y="656">-bool mAddIncs</text>
<text x="480" y="665">-bool mAddLibs</text>
<text x="480" y="677">+readProject(OovStringRef oovProjectDir, </text>
<text x="487" y="686">OovStringRef buildConfigName)</text>
<text x="480" y="695">+scanProject()</text>
<text x="480" y="704">+scanExternalProject(OovStringRef externalRootSrch</text>
<text x="487" y="713">, Package pkg)</text>
<text x="480" y="722">+addBuildPackage(Package pkg)</text>
<text x="480" y="731">+saveProject(OovStringRef compFn)</text>
<text x="480" y="740">+getComponentName(OovStringRef filePath)</text>
<text x="480" y="749">+getAllIncludeDirs()</text>
<text x="480" y="767">+ComponentFinder()</text>
<text x="480" y="776">+doesBuildPackageExist(OovStringRef pkgName)</text>
<text x="480" y="785">+getProject()</text>
<text x="480" y="794">+getProject()</text>
<text x="480" y="803">+getProjectBuildArgs()</text>
<text x="480" y="812">+getProjectBuildArgs()</text>
<text x="480" y="821">+getComponentTypesFile()</text>
<text x="480" y="830">+getComponentsFile()</text>
<text x="480" y="839">+getScannedInfo()</text>
<text x="480" y="848">+makeFileName(OovStringRef projName)</text>
</g>
<g stroke="none" font-style="italic">
<text x="480" y="758">-processFile(OovStringRef filePath)</text>
</g>
<g  fill="#f5fff5" stroke="#000000" style="stroke-width:1">
<rect x="327" y="201" width="409" height="314" />
<line x1="327" y1="222" x2="736" y2="222" />
<line x1="327" y1="297" x2="736" y2="297" />
</g>
<g stroke="none">
<text x="328" y="210">ComponentBuilder</text>
<text x="328" y="219">oovBuilder</text>
<text x="328" y="231">-FilePath mSrcRootDir</text>
<text x="328" y="240">-FilePath mOutputPath</text>
<text x="328" y="249">-FilePath mIntermediatePath</text>
<text x="328" y="258">-ComponentFinder mComponentFinder</text>
<text x="328" y="267">-ToolPathFile mToolPathFile</text>
<text x="328" y="276">-ObjSymbols mObjSymbols</text>
<text x="328" y="285">-IncDirDependencyMapReader mIncDirMap</text>
<text x="328" y="294">-ComponentPkgDeps mComponentPkgDeps</text>
<text x="328" y="306">+build(eProcessModes mode, OovStringRef incDepsFilePath, OovStringRef </text>
<text x="335" y="315">buildDirClass)</text>
<text x="328" y="324">-buildComponents()</text>
<text x="328" y="333">-processSourceForComponents(eProcessModes pm)</text>
<text x="328" y="342">-generateDependencies()</text>
<text x="328" y="351">-processSourceFile(eProcessModes pm, OovStringRef srcFile, OovStringVec </text>
<text x="335" y="360">incDirs, OovStringVec incFiles, OovStringSet externPkgCompileArgs)</text>
<text x="328" y="369">-makeLib(OovStringRef libName, OovStringVec objectFileNames)</text>
<text x="328" y="378">-makeLibSymbols(OovStringRef clumpName, OovStringVec files)</text>
<text x="328" y="387">-makeExe(OovStringRef compName, OovStringVec sources, OovStringVec projectLib</text>
<text x="335" y="396">sFilePaths, OovStringVec externLibDirs, IndexedStringVec&lt;&lt;typedef&gt;</text>
<text x="335" y="405">&gt; externOrderedLibNames, IndexedStringSet&lt;&lt;typedef&gt;&gt; externPkgLinkArgs,</text>
<text x="335" y="414"> bool shared)</text>
<text x="328" y="423">-makeOutputObjectFileName(OovStringRef str)</text>
<text x="328" y="432">-getSymbolBasePath()</text>
<text x="328" y="441">-anyIncDirsMatch(OovStringRef compName, RootDirPackage pkg)</text>
<text x="328" y="450">-makeOrderedPackageLibs(OovStringRef compName)</text>
<text x="328" y="459">-appendOrderedPackageLibs(OovStringRef compName, OovStringVec libDirs,</text>
<text x="335" y="468"> IndexedStringVec&lt;&lt;typedef&gt;&gt; sortedLibNames)</text>
<text x="328" y="477">-getComponentCompileArgs(OovStringRef compName, ComponentTypesFile )</text>
<text x="328" y="486">-getComponentPackageLinkArgs(OovStringRef compName, ComponentTypesFile file)</text>
<text x="328" y="495">+ComponentBuilder(ComponentFinder compFinder)</text>
<text x="328" y="504">-getDiagFileName()</text>
<text x="328" y="513">-makePackageLibSymbols(OovStringRef compName)</text>
</g>
<g stroke="none" font-style="italic">
</g>
<g  fill="#f5fff5" stroke="#000000" style="stroke-width:1">
<rect x="175" y="224" width="63" height="26" />
<line x1="175" y1="245" x2="238" y2="245" />
<line x1="175" y1="248" x2="238" y2="248" />
</g>
<g stroke="none">
<text x="176" y="233">Project</text>
<text x="176" y="242">oovCommon</text>
</g>
<g stroke="none" font-style="italic">
</g>
<g  fill="#f5fff5" stroke="#000000" style="stroke-width:1">
<rect x="306" y="19" width="176" height="80" />
<line x1="306" y1="40" x2="482" y2="40" />
<line x1="306" y1="52" x2="482" y2="52" />
</g>
<g stroke="none">
<text x="307" y="28">VerboseDumper</text>
<text x="307" y="37">oovBuilder</text>
<text x="307" y="49">-FILE&lt;&lt;typedef&gt;&gt; mFp</text>
<text x="307" y="61">+open(OovStringRef outPath)</text>
<text x="307" y="70">+logOutputOld(OovStringRef fn)</text>
<text x="307" y="79">+logProcess(OovStringRef srcFile,</text>
<text x="314" y="88"> char argv, int argc)</text>
<text x="307" y="97">+logProgress(OovStringRef progress)</text>
</g>
<g stroke="none" font-style="italic">
</g>
<g  fill="#f5fff5" stroke="#000000" style="stroke-width:1">
<rect x="293" y="142" width="63" height="26" />
<line x1="293" y1="163" x2="356" y2="163" />
<line x1="293" y1="166" x2="356" y2="166" />
</g>
<g stroke="none">
<text x="294" y="151">BuildConfig</text>
<text x="294" y="160">oovCommon</text>
</g>
<g stroke="none" font-style="italic">
</g>
<g  fill="#f5fff5" stroke="#000000" style="stroke-width:1">
<rect x="208" y="293" width="71" height="26" />
<line x1="208" y1="314" x2="279" y2="314" />
<line x1="208" y1="317" x2="279" y2="317" />
</g>
<g stroke="none">
<text x="209" y="302">ProjectReader</text>
<text x="209" y="311">oovCommon</text>
</g>
<g stroke="none" font-style="italic">
</g>
<g  fill="#f5fff5" stroke="#000000" style="stroke-width:1">
<rect x="20" y="521" width="221" height="134" />
<line x1="20" y1="542" x2="241" y2="542" />
<line x1="20" y1="599" x2="241" y2="599" />
</g>
<g stroke="none">
<text x="21" y="530">srcFileParser</text>
<text x="21" y="539">oovBuilder</text>
<text x="21" y="551">-InProcMutex mListenerStdMutex</text>
<text x="21" y="560">-char mSrcRootDir</text>
<text x="21" y="569">-char mAnalysisDir</text>
<text x="21" y="578">-OovStringVec mExcludeDirs</text>
<text x="21" y="587">-OovStringVec mIncDirArgs</text>
<text x="21" y="596">-ComponentFinder mComponentFinder</text>
<text x="21" y="608">+analyzeSrcFiles(OovStringRef srcRootDir,</text>
<text x="28" y="617"> OovStringRef analysisDir)</text>
<text x="21" y="626">+processItem(CppChildArgs item)</text>
<text x="21" y="644">+srcFileParser(ComponentFinder compFinder)</text>
</g>
<g stroke="none" font-style="italic">
<text x="21" y="635">-processFile(OovStringRef filePath)</text>
<text x="21" y="653">+~srcFileParser()</text>
</g>
<g  fill="#f5fff5" stroke="#000000" style="stroke-width:1">
<rect x="19" y="310" width="81" height="26" />
<line x1="19" y1="331" x2="100" y2="331" />
<line x1="19" y1="334" x2="100" y2="334" />
</g>
<g stroke="none">
<text x="20" y="319">ProjectPackages</text>
<text x="20" y="328">oovCommon</text>
</g>
<g stroke="none" font-style="italic">
</g>
<g  fill="#f5fff5" stroke="#000000" style="stroke-width:1">
<rect x="21" y="387" width="251" height="62" />
<line x1="21" y1="408" x2="272" y2="408" />
<line x1="21" y1="411" x2="272" y2="411" />
</g>
<g stroke="none">
<text x="22" y="396">FileStat</text>
<text x="22" y="405">oovBuilder</text>
<text x="22" y="420">+isOutputOld(OovStringRef outputFn, OovStringRef </text>
<text x="29" y="429">inputFn)</text>
<text x="22" y="438">+isOutputOld(OovStringRef outputFn, OovStringVec </text>
<text x="29" y="447">inputs, size_t&lt;&lt;typedef&gt;&gt; oldIndex)</text>
</g>
<g stroke="none" font-style="italic">
</g>
<g  fill="#f5fff5" stroke="#000000" style="stroke-width:1">
<rect x="20" y="204" width="63" height="26" />
<line x1="20" y1="225" x2="83" y2="225" />
<line x1="20" y1="228" x2="83" y2="228" />
</g>
<g stroke="none">
<text x="21" y="213">Packages</text>
<text x="21" y="222">oovCommon</text>
</g>
<g stroke="none" font-style="italic">
</g>
<g  fill="#f5fff5" stroke="#000000" style="stroke-width:1">
<rect x="122" y="679" width="250" height="170" />
<line x1="122" y1="700" x2="372" y2="700" />
<line x1="122" y1="748" x2="372" y2="748" />
</g>
<g stroke="none">
<text x="123" y="688">ScannedComponentsInfo</text>
<text x="123" y="697">oovBuilder</text>
<text x="123" y="709">-std::map&lt;OovString,ScannedComponent,</text>
<text x="130" y="718">std::less&lt;OovString&gt;,std::allocator&lt;</text>
<text x="130" y="727">std::pair&lt;OovString,ScannedComponent&gt;</text>
<text x="130" y="736"> &gt; &gt; mComponents</text>
<text x="123" y="745">-InsertOrderedSet mProjectIncludeDirs</text>
<text x="123" y="757">+addSourceFile(OovStringRef compName,</text>
<text x="130" y="766"> OovStringRef srcFileName)</text>
<text x="123" y="775">+addIncludeFile(OovStringRef compName,</text>
<text x="130" y="784"> OovStringRef srcFileName)</text>
<text x="123" y="793">+initializeComponentTypesFileValues(ComponentT</text>
<text x="130" y="802">ypesFile file)</text>
<text x="123" y="811">+setProjectComponentsFileValues(ComponentsFile</text>
<text x="130" y="820"> file)</text>
<text x="123" y="829">-addComponents(OovStringRef compName)</text>
<text x="123" y="838">+addProjectIncludePath(OovStringRef path)</text>
<text x="123" y="847">+getProjectIncludeDirs()</text>
</g>
<g stroke="none" font-style="italic">
</g>
<g  fill="#f5fff5" stroke="#000000" style="stroke-width:1">
<rect x="230" y="471" width="63" height="26" />
<line x1="230" y1="492" x2="293" y2="492" />
<line x1="230" y1="495" x2="293" y2="495" />
</g>
<g stroke="none">
<text x="231" y="480">dirRecurser</text>
<text x="231" y="489">oovCommon</text>
</g>
<g stroke="none" font-style="italic">
</g>
<g  fill="#f5f5ff" stroke="#000000" style="stroke-width:1">
<line x1="180" y1="134" x2="496" y2="554" />
<circle cx="188" cy="145" r="5" style="fill:#ffffff" />
<circle cx="198" cy="157" r="5" style="fill:#000000" />
<circle cx="198" cy="157" r="2" style="fill:#000000" />
<polygon points="180,134 181,142 188,145 188,137 180,134 " style="fill:#000000" />
<line x1="218" y1="134" x2="327" y2="212" />
<circle cx="229" cy="142" r="5" style="fill:#ffffff" />
<line x1="161" y1="134" x2="201" y2="224" />
<circle cx="166" cy="146" r="5" style="fill:#ffffff" />
<line x1="257" y1="69" x2="306" y2="64" />
<circle cx="270" cy="67" r="5" style="fill:#ffffff" />
<line x1="257" y1="126" x2="294" y2="142" />
<circle cx="269" cy="131" r="5" style="fill:#ffffff" />
<line x1="137" y1="134" x2="130" y2="521" />
<circle cx="136" cy="147" r="5" style="fill:#ffffff" />
<line x1="119" y1="134" x2="63" y2="310" />
<circle cx="114" cy="147" r="5" style="fill:#ffffff" />
<line x1="138" y1="134" x2="146" y2="387" />
<circle cx="138" cy="147" r="5" style="fill:#ffffff" />
<line x1="102" y1="134" x2="58" y2="204" />
<circle cx="94" cy="145" r="5" style="fill:#ffffff" />
<line x1="146" y1="134" x2="234" y2="679" />
<circle cx="148" cy="147" r="5" style="fill:#ffffff" />
<line x1="574" y1="554" x2="565" y2="515" />
<circle cx="568" cy="528" r="5" style="fill:#ffffff" />
<circle cx="569" cy="535" r="2" style="fill:#ffffff" />
<circle cx="571" cy="544" r="5" style="fill:#000000" />
<circle cx="571" cy="544" r="2" style="fill:#000000" />
<polygon points="565,515 563,523 568,528 571,521 565,515 " style="fill:#ffffff" />
<line x1="479" y1="555" x2="217" y2="250" />
<circle cx="469" cy="544" r="5" style="fill:#ffffff" />
<line x1="479" y1="564" x2="254" y2="319" />
<circle cx="469" cy="553" r="5" style="fill:#ffffff" />
<circle cx="458" cy="541" r="5" style="fill:#000000" />
<circle cx="458" cy="541" r="2" style="fill:#000000" />
<polygon points="479,564 478,556 470,554 471,562 479,564 " style="fill:#000000" />
<line x1="479" y1="672" x2="240" y2="614" />
<polygon points="240,614 246,621 243,614 249,611 240,614 " style="fill:#ffffff" />
<circle cx="253" cy="617" r="5" style="fill:#ffffff" />
<circle cx="260" cy="618" r="2" style="fill:#ffffff" />
<circle cx="269" cy="621" r="5" style="fill:#000000" />
<circle cx="269" cy="621" r="2" style="fill:#000000" />
<polygon points="240,614 246,620 253,617 248,612 240,614 " style="fill:#ffffff" />
<line x1="479" y1="723" x2="372" y2="743" />
<circle cx="465" cy="725" r="5" style="fill:#ffffff" />
<circle cx="449" cy="728" r="5" style="fill:#000000" />
<circle cx="449" cy="728" r="2" style="fill:#000000" />
<polygon points="479,723 471,721 466,725 473,728 479,723 " style="fill:#000000" />
<line x1="479" y1="622" x2="281" y2="497" />
<circle cx="467" cy="614" r="5" style="fill:#ffffff" />
<circle cx="306" cy="513" r="5" style="fill:#ffffff" />
<circle cx="306" cy="513" r="2" style="fill:#ffffff" />
<polygon points="281,497 289,508 294,499 281,497 " style="fill:#ffffff" />
<line x1="327" y1="283" x2="237" y2="248" />
<circle cx="313" cy="277" r="5" style="fill:#ffffff" />
<line x1="460" y1="201" x2="412" y2="99" />
<circle cx="454" cy="188" r="5" style="fill:#ffffff" />
<line x1="327" y1="389" x2="271" y2="399" />
<circle cx="313" cy="391" r="5" style="fill:#ffffff" />
<line x1="224" y1="224" x2="306" y2="168" />
<circle cx="294" cy="175" r="5" style="fill:#ffffff" />
<line x1="212" y1="250" x2="237" y2="293" />
<circle cx="229" cy="280" r="5" style="fill:#ffffff" />
<line x1="204" y1="250" x2="144" y2="521" />
<circle cx="147" cy="507" r="5" style="fill:#ffffff" />
<line x1="184" y1="250" x2="81" y2="310" />
<circle cx="93" cy="302" r="5" style="fill:#ffffff" />
<line x1="136" y1="521" x2="144" y2="449" />
<circle cx="137" cy="507" r="5" style="fill:#ffffff" />
<line x1="214" y1="521" x2="245" y2="497" />
<circle cx="225" cy="512" r="5" style="fill:#ffffff" />
<circle cx="221" cy="515" r="5" style="fill:#ffffff" />
<circle cx="221" cy="515" r="2" style="fill:#ffffff" />
<polygon points="245,497 232,500 239,509 245,497 " style="fill:#ffffff" />
<line x1="59" y1="310" x2="51" y2="230" />
<circle cx="53" cy="259" r="5" style="fill:#ffffff" />
<circle cx="53" cy="259" r="2" style="fill:#ffffff" />
<polygon points="51,230 47,243 57,242 51,230 " style="fill:#ffffff" />
</g>
</svg>