<svg xmlns="http://www.w3.org/2000/svg" version="1.1"
  font-family="Arial, Helvetica, sans-serif" font-size="10.000000" 
  width="669" height="714">
<g  fill="#f5fff5" stroke="#000000" style="stroke-width:1">
<rect x="10" y="570" width="133" height="143" />
<line x1="10" y1="583" x2="143" y2="583" />
<polygon points="123,591 135,596 135,586 123,591 " style="fill:#ffffff" />
<polygon points="123,605 130,609 137,605 130,601 123,605 " style="fill:#ffffff" />
<polygon points="123,619 130,623 137,619 130,615 123,619 " style="fill:#000000" />
<polygon points="123,633 131,638 127,633 131,628 123,633 " style="fill:#ffffff" />
<circle cx="123" cy="647" r="5" style="fill:#ffffff" />
<circle cx="123" cy="661" r="5" style="fill:#ffffff" />
<circle cx="130" cy="661" r="2" style="fill:#ffffff" />
<circle cx="123" cy="675" r="5" style="fill:#ffffff" />
<circle cx="123" cy="675" r="2" style="fill:#ffffff" />
<circle cx="123" cy="689" r="5" style="fill:#ffffff" />
<circle cx="123" cy="689" r="2" style="fill:#000000" />
<circle cx="123" cy="703" r="5" style="fill:#000000" />
<circle cx="123" cy="703" r="2" style="fill:#000000" />
</g>
<g stroke="none">
<text x="11" y="579">Relations Key</text>
<text x="11" y="593">Generalization</text>
<text x="11" y="607">Aggregation(reference)</text>
<text x="11" y="621">Composition(owned)</text>
<text x="11" y="635">Const</text>
<text x="11" y="649">Method Variable</text>
<text x="11" y="663">Method Parameter</text>
<text x="11" y="677">Public</text>
<text x="11" y="691">Protected</text>
<text x="11" y="705">Private</text>
</g>
<g  fill="#f5fff5" stroke="#000000" style="stroke-width:1">
<rect x="10" y="17" width="466" height="494" />
<line x1="10" y1="38" x2="476" y2="38" />
<line x1="10" y1="122" x2="476" y2="122" />
</g>
<g stroke="none">
<text x="11" y="26">Editor</text>
<text x="11" y="35">oovEdit</text>
<text x="11" y="47">-Builder mBuilder</text>
<text x="11" y="56">-EditFiles mEditFiles</text>
<text x="11" y="65">-&lt;&lt;typedef&gt;&gt;Debugger mDebugger</text>
<text x="11" y="74">-OovString mLastSearch</text>
<text x="11" y="83">-OovString mProjectDir</text>
<text x="11" y="92">-bool mLastSearchCaseSensitive</text>
<text x="11" y="101">-OovString mDebugOut</text>
<text x="11" y="110">-EditOptions mEditOptions</text>
<text x="11" y="119">-GuiTree mVarView</text>
<text x="11" y="131">+Editor()</text>
<text x="11" y="140">+init()</text>
<text x="11" y="149">+loadSettings()</text>
<text x="11" y="158">+saveSettings()</text>
<text x="11" y="167">+onIdle(&lt;&lt;typedef&gt;&gt;gpointer data)</text>
<text x="11" y="176">+openTextFile(OovStringRef fn)</text>
<text x="11" y="185">+openTextFile()</text>
<text x="11" y="194">+saveTextFile()</text>
<text x="11" y="203">+saveAsTextFileWithDialog()</text>
<text x="11" y="212">+findDialog()</text>
<text x="11" y="221">+findAgain(bool forward)</text>
<text x="11" y="230">+findInFilesDialog()</text>
<text x="11" y="239">+findInFiles(char srchStr, char path, bool caseSensitive, &lt;&lt;typedef&gt;&gt;GtkTextView view)</text>
<text x="11" y="248">+setStyle()</text>
<text x="11" y="257">+checkExitSave()</text>
<text x="11" y="266">+gotoLineDialog()</text>
<text x="11" y="275">+gotoFileLine(&lt;&lt;typedef&gt;&gt;string lineBuf)</text>
<text x="11" y="284">+editPreferences()</text>
<text x="11" y="293">+setPreferencesWorkingDir()</text>
<text x="11" y="302">+idleDebugStatusChange(eDebuggerChangeStatus st)</text>
<text x="11" y="311">+debugSetStackFrame(OovStringRef frameLine)</text>
<text x="11" y="320">-find(OovStringRef findStr, bool forward, bool caseSensitive)</text>
<text x="11" y="329">-findAndReplace(OovStringRef findStr, bool forward, bool caseSensitive, OovStringRef replaceStr)</text>
<text x="11" y="338">+cut()</text>
<text x="11" y="347">+copy()</text>
<text x="11" y="356">+paste()</text>
<text x="11" y="365">+deleteSel()</text>
<text x="11" y="374">+undo()</text>
<text x="11" y="383">+redo()</text>
<text x="11" y="392">+gotoToken(eFindTokenTypes ft)</text>
<text x="11" y="401">+gotoDeclaration()</text>
<text x="11" y="410">+gotoDefinition()</text>
<text x="11" y="419">+getBuilder()</text>
<text x="11" y="428">+getDebugger()</text>
<text x="11" y="437">+getEditFiles()</text>
<text x="11" y="446">+setProjectDir(OovStringRef projDir)</text>
<text x="11" y="455">+gotoLine(int lineNum)</text>
<text x="11" y="464">+bufferInsertText(&lt;&lt;typedef&gt;&gt;GtkTextBuffer textbuffer, &lt;&lt;typedef&gt;&gt;GtkTextIter location,</text>
<text x="18" y="473"> &lt;&lt;typedef&gt;&gt;gchar text, &lt;&lt;typedef&gt;&gt;gint len)</text>
<text x="11" y="482">+bufferDeleteRange(&lt;&lt;typedef&gt;&gt;GtkTextBuffer textbuffer, &lt;&lt;typedef&gt;&gt;GtkTextIter start, &lt;</text>
<text x="18" y="491">&lt;typedef&gt;&gt;GtkTextIter end)</text>
<text x="11" y="500">+DebugOutput(OovStringRef str)</text>
<text x="11" y="509">+DebugStatusChanged()</text>
</g>
<g  fill="#f5fff5" stroke="#000000" style="stroke-width:1">
<rect x="465" y="556" width="45" height="26" />
<line x1="465" y1="577" x2="510" y2="577" />
<line x1="465" y1="580" x2="510" y2="580" />
</g>
<g stroke="none">
<text x="466" y="565">EditFiles</text>
<text x="466" y="574">oovEdit</text>
</g>
<g  fill="#f5fff5" stroke="#000000" style="stroke-width:1">
<rect x="555" y="554" width="109" height="26" />
<line x1="555" y1="575" x2="664" y2="575" />
<line x1="555" y1="578" x2="664" y2="578" />
</g>
<g stroke="none">
<text x="556" y="563">&lt;&lt;typedef&gt;&gt;Debugger</text>
<text x="556" y="572">oovEdit</text>
</g>
<g  fill="#f5fff5" stroke="#000000" style="stroke-width:1">
<rect x="399" y="642" width="195" height="71" />
<line x1="399" y1="663" x2="594" y2="663" />
<line x1="399" y1="666" x2="594" y2="666" />
</g>
<g stroke="none">
<text x="400" y="651">EditOptions</text>
<text x="400" y="660">oovEdit</text>
<text x="400" y="675">+setProjectDir(&lt;&lt;typedef&gt;&gt;string projDir)</text>
<text x="400" y="684">+setScreenCoord(char tag, int val)</text>
<text x="400" y="693">+saveScreenSize(int width, int height)</text>
<text x="400" y="702">+getScreenCoord(char tag, int val)</text>
<text x="400" y="711">+getScreenSize(int width, int height)</text>
</g>
<g  fill="#f5fff5" stroke="#000000" style="stroke-width:1">
<rect x="174" y="556" width="80" height="26" />
<line x1="174" y1="577" x2="254" y2="577" />
<line x1="174" y1="580" x2="254" y2="580" />
</g>
<g stroke="none">
<text x="175" y="565">GuiTree</text>
<text x="175" y="574">oovGuiCommon</text>
</g>
<g  fill="#f5fff5" stroke="#000000" style="stroke-width:1">
<rect x="506" y="162" width="157" height="53" />
<line x1="506" y1="183" x2="663" y2="183" />
<line x1="506" y1="186" x2="663" y2="186" />
</g>
<g stroke="none">
<text x="507" y="171">DebuggerListener</text>
<text x="507" y="180">oovEdit</text>
<text x="507" y="195">+~DebuggerListener()</text>
<text x="507" y="204">+DebugOutput(OovStringRef str)</text>
<text x="507" y="213">+DebugStatusChanged()</text>
</g>
<g  fill="#f5fff5" stroke="#000000" style="stroke-width:1">
<rect x="596" y="345" width="72" height="26" />
<line x1="596" y1="366" x2="668" y2="366" />
<line x1="596" y1="369" x2="668" y2="369" />
</g>
<g stroke="none">
<text x="597" y="354">DebuggerBase</text>
<text x="597" y="363">oovEdit</text>
</g>
<g  fill="#f5fff5" stroke="#000000" style="stroke-width:1">
<rect x="500" y="410" width="69" height="26" />
<line x1="500" y1="431" x2="569" y2="431" />
<line x1="500" y1="434" x2="569" y2="434" />
</g>
<g stroke="none">
<text x="501" y="419">DebuggerGdb</text>
<text x="501" y="428">oovEdit</text>
</g>
<g  fill="#f5fff5" stroke="#000000" style="stroke-width:1">
<rect x="175" y="597" width="205" height="116" />
<line x1="175" y1="618" x2="380" y2="618" />
<line x1="175" y1="657" x2="380" y2="657" />
</g>
<g stroke="none">
<text x="176" y="606">FindFiles</text>
<text x="176" y="615">oovEdit</text>
<text x="176" y="627">-&lt;&lt;typedef&gt;&gt;string mSrchStr</text>
<text x="176" y="636">-bool mCaseSensitive</text>
<text x="176" y="645">-&lt;&lt;typedef&gt;&gt;GtkTextView mView</text>
<text x="176" y="654">-int mNumMatches</text>
<text x="176" y="666">+~FindFiles()</text>
<text x="176" y="675">+FindFiles(char srchStr, bool caseSensitive</text>
<text x="183" y="684">, &lt;&lt;typedef&gt;&gt;GtkTextView view)</text>
<text x="176" y="693">+recurseDirs(char srcDir)</text>
<text x="176" y="702">+getNumMatches()</text>
<text x="176" y="711">-processFile(OovStringRef filePath)</text>
</g>
<g  fill="#f5f5ff" stroke="#000000" style="stroke-width:1">
<line x1="440" y1="511" x2="477" y2="556" />
<circle cx="448" cy="521" r="5" style="fill:#ffffff" />
<circle cx="459" cy="534" r="5" style="fill:#000000" />
<circle cx="459" cy="534" r="2" style="fill:#000000" />
<polygon points="440,511 441,519 448,521 448,514 440,511 " style="fill:#000000" />
<line x1="476" y1="456" x2="594" y2="554" />
<circle cx="499" cy="475" r="5" style="fill:#000000" />
<circle cx="499" cy="475" r="2" style="fill:#000000" />
<polygon points="476,456 479,464 486,464 484,457 476,456 " style="fill:#000000" />
<line x1="394" y1="511" x2="475" y2="642" />
<circle cx="401" cy="522" r="5" style="fill:#ffffff" />
<circle cx="409" cy="536" r="5" style="fill:#000000" />
<circle cx="409" cy="536" r="2" style="fill:#000000" />
<polygon points="394,511 394,519 401,522 401,515 394,511 " style="fill:#000000" />
<line x1="220" y1="511" x2="215" y2="556" />
<circle cx="218" cy="524" r="5" style="fill:#ffffff" />
<circle cx="216" cy="540" r="5" style="fill:#000000" />
<circle cx="216" cy="540" r="2" style="fill:#000000" />
<polygon points="220,511 215,518 219,524 223,519 220,511 " style="fill:#000000" />
<line x1="476" y1="213" x2="506" y2="205" />
<circle cx="477" cy="212" r="5" style="fill:#ffffff" />
<circle cx="477" cy="212" r="2" style="fill:#ffffff" />
<polygon points="506,205 493,204 495,213 506,205 " style="fill:#ffffff" />
<line x1="476" y1="320" x2="596" y2="350" />
<circle cx="489" cy="323" r="5" style="fill:#ffffff" />
<line x1="476" y1="391" x2="511" y2="410" />
<circle cx="488" cy="397" r="5" style="fill:#ffffff" />
<line x1="264" y1="511" x2="272" y2="597" />
<circle cx="265" cy="524" r="5" style="fill:#ffffff" />
<line x1="509" y1="569" x2="555" y2="567" />
<circle cx="522" cy="568" r="5" style="fill:#ffffff" />
<circle cx="538" cy="567" r="5" style="fill:#000000" />
<circle cx="538" cy="567" r="2" style="fill:#000000" />
<polygon points="509,569 516,573 522,569 516,565 509,569 " style="fill:#ffffff" />
<line x1="488" y1="582" x2="494" y2="642" />
<circle cx="489" cy="595" r="5" style="fill:#ffffff" />
<circle cx="490" cy="611" r="5" style="fill:#000000" />
<circle cx="490" cy="611" r="2" style="fill:#000000" />
<polygon points="488,582 485,590 489,595 493,589 488,582 " style="fill:#ffffff" />
<line x1="495" y1="556" x2="624" y2="371" />
<circle cx="503" cy="544" r="5" style="fill:#ffffff" />
<line x1="603" y1="554" x2="540" y2="436" />
<circle cx="554" cy="462" r="5" style="fill:#000000" />
<circle cx="554" cy="462" r="2" style="fill:#000000" />
<polygon points="540,436 541,449 550,444 540,436 " style="fill:#ffffff" />
<line x1="591" y1="214" x2="629" y2="345" />
<circle cx="625" cy="331" r="5" style="fill:#ffffff" />
<circle cx="620" cy="316" r="5" style="fill:#ffffff" />
<circle cx="620" cy="316" r="2" style="fill:#000000" />
<polygon points="629,345 631,337 626,332 623,339 629,345 " style="fill:#ffffff" />
<line x1="579" y1="214" x2="536" y2="410" />
<circle cx="539" cy="396" r="5" style="fill:#ffffff" />
<line x1="613" y1="371" x2="553" y2="410" />
<circle cx="587" cy="387" r="5" style="fill:#ffffff" />
<circle cx="587" cy="387" r="2" style="fill:#ffffff" />
<polygon points="613,371 600,373 606,382 613,371 " style="fill:#ffffff" />
<circle cx="564" cy="402" r="5" style="fill:#ffffff" />
</g>
</svg>