<svg xmlns="http://www.w3.org/2000/svg" version="1.1"
  font-family="Arial, Helvetica, sans-serif" font-size="10.000000" 
  width="765" height="972">
<g  fill="#f5fff5" stroke="#000000" style="stroke-width:1">
<rect x="628" y="12" width="133" height="143" />
<line x1="628" y1="25" x2="761" y2="25" />
<polygon points="741,33 753,38 753,28 741,33 " style="fill:#ffffff" />
<polygon points="741,47 748,51 755,47 748,43 741,47 " style="fill:#ffffff" />
<polygon points="741,61 748,65 755,61 748,57 741,61 " style="fill:#000000" />
<polygon points="741,75 749,80 745,75 749,70 741,75 " style="fill:#ffffff" />
<circle cx="741" cy="89" r="5" style="fill:#ffffff" />
<circle cx="741" cy="103" r="5" style="fill:#ffffff" />
<circle cx="748" cy="103" r="2" style="fill:#ffffff" />
<circle cx="741" cy="117" r="5" style="fill:#ffffff" />
<circle cx="741" cy="117" r="2" style="fill:#ffffff" />
<circle cx="741" cy="131" r="5" style="fill:#ffffff" />
<circle cx="741" cy="131" r="2" style="fill:#000000" />
<circle cx="741" cy="145" r="5" style="fill:#000000" />
<circle cx="741" cy="145" r="2" style="fill:#000000" />
</g>
<g stroke="none">
<text x="629" y="21">Relations Key</text>
<text x="629" y="35">Generalization</text>
<text x="629" y="49">Aggregation(reference)</text>
<text x="629" y="63">Composition(owned)</text>
<text x="629" y="77">Const</text>
<text x="629" y="91">Method Variable</text>
<text x="629" y="105">Method Parameter</text>
<text x="629" y="119">Public</text>
<text x="629" y="133">Protected</text>
<text x="629" y="147">Private</text>
</g>
<g  fill="#f5fff5" stroke="#000000" style="stroke-width:1">
<rect x="23" y="13" width="330" height="305" />
<line x1="23" y1="34" x2="353" y2="34" />
<line x1="23" y1="127" x2="353" y2="127" />
</g>
<g stroke="none">
<text x="24" y="22">EditFiles</text>
<text x="24" y="31">oovEdit</text>
<text x="24" y="43">-EditOptions mEditOptions</text>
<text x="24" y="52">-&lt;&lt;typedef&gt;&gt;GtkNotebook mHeaderBook</text>
<text x="24" y="61">-&lt;&lt;typedef&gt;&gt;GtkNotebook mSourceBook</text>
<text x="24" y="70">-Builder mBuilder</text>
<text x="24" y="79">-std::vector&lt;std::unique_ptr&lt;ScrolledFileView,std::default_delete&lt;</text>
<text x="31" y="88">ScrolledFileView&gt; &gt;,std::allocator&lt;std::unique_ptr&lt;ScrolledFileVie</text>
<text x="31" y="97">w,std::default_delete&lt;ScrolledFileView&gt; &gt; &gt; &gt; mFileViews</text>
<text x="24" y="106">-&lt;&lt;typedef&gt;&gt;GtkTextView mLastFocusGtkTextView</text>
<text x="24" y="115">-&lt;&lt;typedef&gt;&gt;Debugger mDebugger</text>
<text x="24" y="124">-timeval mLastHightlightIdleUpdate</text>
<text x="24" y="136">+EditFiles(&lt;&lt;typedef&gt;&gt;Debugger debugger, EditOptions editOptions)</text>
<text x="24" y="145">+init(Builder builder)</text>
<text x="24" y="154">+closeAll()</text>
<text x="24" y="163">+onIdle()</text>
<text x="24" y="172">+updateDebugMenu()</text>
<text x="24" y="181">+viewModule(OovStringRef fn, int lineNum)</text>
<text x="24" y="190">+viewFile(OovStringRef fn, int lineNum)</text>
<text x="24" y="199">+gotoLine(int lineNum)</text>
<text x="24" y="208">+checkExitSave()</text>
<text x="24" y="217">+getEditView()</text>
<text x="24" y="226">+getEditViewSelectedText()</text>
<text x="24" y="235">+setFocusEditTextView(&lt;&lt;typedef&gt;&gt;GtkTextView editTextView)</text>
<text x="24" y="244">+handleKeyPress(&lt;&lt;typedef&gt;&gt;GdkEvent event)</text>
<text x="24" y="253">+removeNotebookPage(&lt;&lt;typedef&gt;&gt;GtkWidget pageWidget)</text>
<text x="24" y="262">+checkDebugger()</text>
<text x="24" y="271">+showInteractNotebookTab(char tabName)</text>
<text x="24" y="280">+getScrolledFileView(&lt;&lt;typedef&gt;&gt;GtkTextView textView)</text>
<text x="24" y="289">-idleHighlight()</text>
<text x="24" y="298">-getPageNumber(&lt;&lt;typedef&gt;&gt;GtkNotebook notebook, &lt;&lt;typedef&gt;&gt;</text>
<text x="31" y="307">GtkTextView view)</text>
<text x="24" y="316">+getDebugger()</text>
</g>
<g  fill="#f5fff5" stroke="#000000" style="stroke-width:1">
<rect x="568" y="168" width="195" height="71" />
<line x1="568" y1="189" x2="763" y2="189" />
<line x1="568" y1="192" x2="763" y2="192" />
</g>
<g stroke="none">
<text x="569" y="177">EditOptions</text>
<text x="569" y="186">oovEdit</text>
<text x="569" y="201">+setProjectDir(&lt;&lt;typedef&gt;&gt;string projDir)</text>
<text x="569" y="210">+setScreenCoord(char tag, int val)</text>
<text x="569" y="219">+saveScreenSize(int width, int height)</text>
<text x="569" y="228">+getScreenCoord(char tag, int val)</text>
<text x="569" y="237">+getScreenSize(int width, int height)</text>
</g>
<g  fill="#f5fff5" stroke="#000000" style="stroke-width:1">
<rect x="407" y="63" width="198" height="53" />
<line x1="407" y1="111" x2="605" y2="111" />
<line x1="407" y1="114" x2="605" y2="114" />
</g>
<g stroke="none">
<text x="408" y="72">std::vector&lt;std::unique_ptr&lt;ScrolledFileV</text>
<text x="408" y="81">  iew,std::default_delete&lt;ScrolledFileVie</text>
<text x="408" y="90">  w&gt; &gt;,std::allocator&lt;std::unique_ptr&lt;</text>
<text x="408" y="99">  ScrolledFileView,std::default_delete&lt;</text>
<text x="408" y="108">  ScrolledFileView&gt; &gt; &gt; &gt;</text>
</g>
<g  fill="#f5fff5" stroke="#000000" style="stroke-width:1">
<rect x="408" y="203" width="109" height="26" />
<line x1="408" y1="224" x2="517" y2="224" />
<line x1="408" y1="227" x2="517" y2="227" />
</g>
<g stroke="none">
<text x="409" y="212">&lt;&lt;typedef&gt;&gt;Debugger</text>
<text x="409" y="221">oovEdit</text>
</g>
<g  fill="#f5fff5" stroke="#000000" style="stroke-width:1">
<rect x="24" y="357" width="251" height="170" />
<line x1="24" y1="378" x2="275" y2="378" />
<line x1="24" y1="435" x2="275" y2="435" />
</g>
<g stroke="none">
<text x="25" y="366">ScrolledFileView</text>
<text x="25" y="375">oovEdit</text>
<text x="25" y="387">+&lt;&lt;typedef&gt;&gt;Debugger mDebugger</text>
<text x="25" y="396">+FilePath mFilename</text>
<text x="25" y="405">+&lt;&lt;typedef&gt;&gt;GtkScrolledWindow mScrolled</text>
<text x="25" y="414">+FileEditView mFileView</text>
<text x="25" y="423">+int mDesiredLine</text>
<text x="25" y="432">+LeftMargin mLeftMargin</text>
<text x="25" y="444">+drawMargins(&lt;&lt;typedef&gt;&gt;cairo_t cr)</text>
<text x="25" y="453">+drawLeftMargin(&lt;&lt;typedef&gt;&gt;cairo_t cr)</text>
<text x="25" y="462">+drawRightMargin(&lt;&lt;typedef&gt;&gt;cairo_t cr)</text>
<text x="25" y="471">+ScrolledFileView(&lt;&lt;typedef&gt;&gt;Debugger debugger)</text>
<text x="25" y="480">+getBook()</text>
<text x="25" y="489">+getTextView()</text>
<text x="25" y="498">+getTextView()</text>
<text x="25" y="507">+getViewTopParent()</text>
<text x="25" y="516">+getFileEditView()</text>
<text x="25" y="525">+getFilename()</text>
</g>
<g  fill="#f5fff5" stroke="#000000" style="stroke-width:1">
<rect x="373" y="251" width="391" height="476" />
<line x1="373" y1="272" x2="764" y2="272" />
<line x1="373" y1="383" x2="764" y2="383" />
</g>
<g stroke="none">
<text x="374" y="260">FileEditView</text>
<text x="374" y="269">oovEdit</text>
<text x="374" y="281">-&lt;&lt;typedef&gt;&gt;string mFileName</text>
<text x="374" y="290">-&lt;&lt;typedef&gt;&gt;GtkTextView mTextView</text>
<text x="374" y="299">-&lt;&lt;typedef&gt;&gt;GtkTextBuffer mTextBuffer</text>
<text x="374" y="308">-std::vector&lt;HistoryItem,std::allocator&lt;HistoryItem&gt; &gt; mHistoryItems</text>
<text x="374" y="317">-&lt;&lt;typedef&gt;&gt;size_t mCurHistoryPos</text>
<text x="374" y="326">-bool mDoingHistory</text>
<text x="374" y="335">-int mLastViewTopOffset</text>
<text x="374" y="344">-int mLastViewBotOffset</text>
<text x="374" y="353">-bool mHighlightTextContentChange</text>
<text x="374" y="362">-Highlighter mHighlighter</text>
<text x="374" y="371">-Indenter mIndenter</text>
<text x="374" y="380">-CompletionList mCompleteList</text>
<text x="374" y="392">+init(&lt;&lt;typedef&gt;&gt;GtkTextView textView)</text>
<text x="374" y="401">+openTextFile(OovStringRef fn)</text>
<text x="374" y="410">+saveTextFile()</text>
<text x="374" y="419">+saveAsTextFileWithDialog()</text>
<text x="374" y="428">+checkExitSave()</text>
<text x="374" y="437">+getSelectedText()</text>
<text x="374" y="446">+find(char findStr, bool forward, bool caseSensitive)</text>
<text x="374" y="455">+findAndReplace(char findStr, bool forward, bool caseSensitive, char replaceStr)</text>
<text x="374" y="464">+idleHighlight()</text>
<text x="374" y="473">+gotoLine(int lineNum)</text>
<text x="374" y="482">+bufferInsertText(&lt;&lt;typedef&gt;&gt;GtkTextBuffer textbuffer, &lt;&lt;typedef&gt;&gt;GtkTextIter </text>
<text x="381" y="491">location, &lt;&lt;typedef&gt;&gt;gchar text, &lt;&lt;typedef&gt;&gt;gint len)</text>
<text x="374" y="500">+bufferDeleteRange(&lt;&lt;typedef&gt;&gt;GtkTextBuffer textbuffer, &lt;&lt;typedef&gt;&gt;GtkTextIter </text>
<text x="381" y="509">start, &lt;&lt;typedef&gt;&gt;GtkTextIter end)</text>
<text x="374" y="518">+handleIndentKeys(&lt;&lt;typedef&gt;&gt;GdkEvent event)</text>
<text x="374" y="527">+viewChange(int topOffset, int botOffset)</text>
<text x="374" y="536">-saveAsTextFile(OovStringRef fn)</text>
<text x="374" y="545">-highlightRequest()</text>
<text x="374" y="554">-moveToIter(&lt;&lt;typedef&gt;&gt;GtkTextIter startIter, &lt;&lt;typedef&gt;&gt;GtkTextIter endIter)</text>
<text x="374" y="563">-getBuffer()</text>
<text x="374" y="572">+FileEditView()</text>
<text x="374" y="581">+findToken(eFindTokenTypes ft)</text>
<text x="374" y="590">+getFindTokenResults(&lt;&lt;typedef&gt;&gt;string fn, &lt;&lt;typedef&gt;&gt;size_t offset)</text>
<text x="374" y="599">+cut()</text>
<text x="374" y="608">+copy()</text>
<text x="374" y="617">+paste()</text>
<text x="374" y="626">+deleteSel()</text>
<text x="374" y="635">+undo()</text>
<text x="374" y="644">+redo()</text>
<text x="374" y="653">+addHistoryItem(HistoryItem item)</text>
<text x="374" y="662">+doingHistory()</text>
<text x="374" y="671">+getTextView()</text>
<text x="374" y="680">+getWindow()</text>
<text x="374" y="689">+getFilename()</text>
<text x="374" y="698">+getTextBuffer()</text>
<text x="374" y="707">+getHighlighter()</text>
<text x="374" y="716">+highlightedContent()</text>
<text x="374" y="725">-setFileName(OovStringRef fn)</text>
</g>
<g  fill="#f5fff5" stroke="#000000" style="stroke-width:1">
<rect x="22" y="554" width="237" height="224" />
<line x1="22" y1="575" x2="259" y2="575" />
<line x1="22" y1="623" x2="259" y2="623" />
</g>
<g stroke="none">
<text x="23" y="563">LeftMargin</text>
<text x="23" y="572">oovEdit</text>
<text x="23" y="584">-&lt;&lt;typedef&gt;&gt;PangoLayout mMarginLayout</text>
<text x="23" y="593">-&lt;&lt;typedef&gt;&gt;PangoAttribute mMarginAttr</text>
<text x="23" y="602">-&lt;&lt;typedef&gt;&gt;PangoAttrList mMarginAttrList</text>
<text x="23" y="611">-int mTextWidth</text>
<text x="23" y="620">-int mPixPerChar</text>
<text x="23" y="632">+setupMargin(&lt;&lt;typedef&gt;&gt;GtkTextView textView)</text>
<text x="23" y="641">+drawMarginLineNum(&lt;&lt;typedef&gt;&gt;GtkTextView </text>
<text x="30" y="650">textView, &lt;&lt;typedef&gt;&gt;cairo_t cr, int </text>
<text x="30" y="659">lineNum, int yPos)</text>
<text x="23" y="668">+drawMarginLine(&lt;&lt;typedef&gt;&gt;GtkTextView </text>
<text x="30" y="677">textView, &lt;&lt;typedef&gt;&gt;cairo_t cr)</text>
<text x="23" y="686">+getMarginWidth()</text>
<text x="23" y="695">+getMarginHeight(&lt;&lt;typedef&gt;&gt;GtkTextView </text>
<text x="30" y="704">textView)</text>
<text x="23" y="713">-updateTextInfo(&lt;&lt;typedef&gt;&gt;GtkTextView </text>
<text x="30" y="722">textView)</text>
<text x="23" y="731">+LeftMargin()</text>
<text x="23" y="740">+~LeftMargin()</text>
<text x="23" y="749">+getMarginLineWidth()</text>
<text x="23" y="758">+getPixPerChar()</text>
<text x="23" y="767">-getBeforeMarginLineSepWidth()</text>
<text x="23" y="776">-getAfterMarginLineSepWidth()</text>
</g>
<g  fill="#f5fff5" stroke="#000000" style="stroke-width:1">
<rect x="553" y="765" width="210" height="206" />
<line x1="553" y1="786" x2="763" y2="786" />
<line x1="553" y1="834" x2="763" y2="834" />
</g>
<g stroke="none">
<text x="554" y="774">Highlighter</text>
<text x="554" y="783">oovEdit</text>
<text x="554" y="795">-HighlighterBackgroundThreadData </text>
<text x="561" y="804">mBackgroundThreadData</text>
<text x="554" y="813">-HighlightTags mHighlightTags</text>
<text x="554" y="822">-TokenRange mHighlightTokens</text>
<text x="554" y="831">-Highlighter::TokenStates mTokenState</text>
<text x="554" y="843">+highlightRequest(OovStringRef filename,</text>
<text x="561" y="852"> char[] clang_args, int num_clang_args)</text>
<text x="554" y="861">+highlightUpdate(&lt;&lt;typedef&gt;&gt;GtkTextView </text>
<text x="561" y="870">textView, OovStringRef buffer,</text>
<text x="561" y="879"> &lt;&lt;typedef&gt;&gt;size_t bufLen)</text>
<text x="554" y="888">+showMembers(&lt;&lt;typedef&gt;&gt;size_t offset)</text>
<text x="554" y="897">+findToken(eFindTokenTypes ft, &lt;</text>
<text x="561" y="906">&lt;typedef&gt;&gt;size_t origOffset)</text>
<text x="554" y="915">+applyTags(&lt;&lt;typedef&gt;&gt;GtkTextBuffer </text>
<text x="561" y="924">textBuffer, int topOffset, int </text>
<text x="561" y="933">botOffset)</text>
<text x="554" y="942">+Highlighter()</text>
<text x="554" y="951">+getShowMembers()</text>
<text x="554" y="960">+getFindTokenResults(&lt;&lt;typedef&gt;&gt;</text>
<text x="561" y="969">string fn, &lt;&lt;typedef&gt;&gt;size_t offset)</text>
</g>
<g  fill="#f5fff5" stroke="#000000" style="stroke-width:1">
<rect x="73" y="783" width="216" height="188" />
<line x1="73" y1="804" x2="289" y2="804" />
<line x1="73" y1="816" x2="289" y2="816" />
</g>
<g stroke="none">
<text x="74" y="792">Indenter</text>
<text x="74" y="801">oovEdit</text>
<text x="74" y="813">-&lt;&lt;typedef&gt;&gt;GtkTextBuffer mTextBuffer</text>
<text x="74" y="825">+tabPressed()</text>
<text x="74" y="834">+shiftTabPressed()</text>
<text x="74" y="843">+backspacePressed()</text>
<text x="74" y="852">+homePressed()</text>
<text x="74" y="861">-dentHighlightedRegion(bool in, &lt;&lt;typedef&gt;</text>
<text x="81" y="870">&gt;GtkTextIter startSelIter, &lt;&lt;typedef&gt;</text>
<text x="81" y="879">&gt;GtkTextIter endSelIter)</text>
<text x="74" y="888">-getFirstNonSpaceOnLineIter(&lt;&lt;typedef&gt;&gt;</text>
<text x="81" y="897">GtkTextIter startLineIter, &lt;&lt;typedef&gt;</text>
<text x="81" y="906">&gt;GtkTextIter iter)</text>
<text x="74" y="915">-countSpaces(char text, bool expandTabs)</text>
<text x="74" y="924">-getCursorIter(&lt;&lt;typedef&gt;&gt;GtkTextIter iter)</text>
<text x="74" y="933">-getLineNumber(&lt;&lt;typedef&gt;&gt;GtkTextIter iter)</text>
<text x="74" y="942">-addSpaces(int count)</text>
<text x="74" y="951">+Indenter()</text>
<text x="74" y="960">+init(&lt;&lt;typedef&gt;&gt;GtkTextBuffer textBuffer)</text>
<text x="74" y="969">-getIndentSize()</text>
</g>
<g  fill="#f5fff5" stroke="#000000" style="stroke-width:1">
<rect x="311" y="765" width="215" height="206" />
<line x1="311" y1="786" x2="526" y2="786" />
<line x1="311" y1="861" x2="526" y2="861" />
</g>
<g stroke="none">
<text x="312" y="774">CompletionList</text>
<text x="312" y="783">oovEdit</text>
<text x="312" y="795">-FileEditView mEditView</text>
<text x="312" y="804">-&lt;&lt;typedef&gt;&gt;GtkWidget mTopWidget</text>
<text x="312" y="813">-GuiList mGuiList</text>
<text x="312" y="822">-&lt;&lt;typedef&gt;&gt;GtkTextBuffer mTextBuffer</text>
<text x="312" y="831">-int mStartIdentifierOffset</text>
<text x="312" y="840">-int mCompletionTriggerPointOffset</text>
<text x="312" y="849">-int mLastKey</text>
<text x="312" y="858">-int mLastNonModifierKey</text>
<text x="312" y="870">+init(&lt;&lt;typedef&gt;&gt;GtkTextBuffer textBuffer)</text>
<text x="312" y="879">+positionCompletionWindow()</text>
<text x="312" y="888">+handleEditorKey(int key, int modKeys)</text>
<text x="312" y="897">+handleListKey(int key, int modKeys)</text>
<text x="312" y="906">+setList(FileEditView view, OovStringVec </text>
<text x="319" y="915">strs)</text>
<text x="312" y="924">+activateSelectedItem()</text>
<text x="312" y="933">+lostFocus()</text>
<text x="312" y="942">-setWindowPosition(&lt;&lt;typedef&gt;&gt;GdkWindow </text>
<text x="319" y="951">compWin, int screenWidth)</text>
<text x="312" y="960">+CompletionList()</text>
<text x="312" y="969">+getCompletionTriggerPointOffset()</text>
</g>
<g  fill="#f5f5ff" stroke="#000000" style="stroke-width:1">
<line x1="353" y1="178" x2="568" y2="196" />
<circle cx="366" cy="179" r="5" style="fill:#ffffff" />
<circle cx="382" cy="180" r="5" style="fill:#000000" />
<circle cx="382" cy="180" r="2" style="fill:#000000" />
<polygon points="353,178 360,183 366,179 361,175 353,178 " style="fill:#ffffff" />
<line x1="353" y1="126" x2="407" y2="112" />
<circle cx="366" cy="122" r="5" style="fill:#ffffff" />
<circle cx="382" cy="118" r="5" style="fill:#000000" />
<circle cx="382" cy="118" r="2" style="fill:#000000" />
<polygon points="353,126 361,128 366,123 359,120 353,126 " style="fill:#000000" />
<line x1="353" y1="195" x2="408" y2="206" />
<circle cx="366" cy="197" r="5" style="fill:#ffffff" />
<circle cx="382" cy="200" r="5" style="fill:#000000" />
<circle cx="382" cy="200" r="2" style="fill:#000000" />
<polygon points="353,195 359,200 366,197 361,193 353,195 " style="fill:#ffffff" />
<line x1="167" y1="317" x2="160" y2="357" />
<circle cx="164" cy="330" r="5" style="fill:#ffffff" />
<line x1="353" y1="305" x2="373" y2="323" />
<circle cx="363" cy="314" r="5" style="fill:#ffffff" />
<line x1="174" y1="317" x2="150" y2="554" />
<circle cx="172" cy="330" r="5" style="fill:#ffffff" />
<line x1="480" y1="115" x2="234" y2="357" />
<line x1="444" y1="229" x2="266" y2="357" />
<circle cx="277" cy="348" r="5" style="fill:#ffffff" />
<circle cx="290" cy="339" r="5" style="fill:#ffffff" />
<circle cx="290" cy="339" r="2" style="fill:#ffffff" />
<polygon points="266,357 274,357 277,349 269,349 266,357 " style="fill:#ffffff" />
<line x1="274" y1="456" x2="373" y2="468" />
<circle cx="287" cy="457" r="5" style="fill:#ffffff" />
<circle cx="303" cy="459" r="5" style="fill:#ffffff" />
<circle cx="303" cy="459" r="2" style="fill:#ffffff" />
<polygon points="274,456 281,461 287,457 282,453 274,456 " style="fill:#000000" />
<line x1="146" y1="527" x2="144" y2="554" />
<circle cx="144" cy="540" r="5" style="fill:#ffffff" />
<circle cx="143" cy="556" r="5" style="fill:#ffffff" />
<circle cx="143" cy="556" r="2" style="fill:#ffffff" />
<polygon points="146,527 141,534 145,540 149,535 146,527 " style="fill:#000000" />
<line x1="624" y1="727" x2="634" y2="765" />
<circle cx="627" cy="740" r="5" style="fill:#ffffff" />
<circle cx="631" cy="756" r="5" style="fill:#000000" />
<circle cx="631" cy="756" r="2" style="fill:#000000" />
<polygon points="624,727 622,735 627,740 630,733 624,727 " style="fill:#000000" />
<line x1="373" y1="684" x2="274" y2="783" />
<circle cx="363" cy="693" r="5" style="fill:#ffffff" />
<circle cx="351" cy="705" r="5" style="fill:#000000" />
<circle cx="351" cy="705" r="2" style="fill:#000000" />
<polygon points="373,684 365,686 364,693 371,692 373,684 " style="fill:#000000" />
<line x1="474" y1="727" x2="458" y2="765" />
<circle cx="468" cy="739" r="5" style="fill:#ffffff" />
<circle cx="462" cy="754" r="5" style="fill:#000000" />
<circle cx="462" cy="754" r="2" style="fill:#000000" />
<polygon points="474,727 467,732 469,739 475,735 474,727 " style="fill:#000000" />
<circle cx="463" cy="752" r="5" style="fill:#ffffff" />
<circle cx="469" cy="737" r="5" style="fill:#000000" />
<circle cx="469" cy="737" r="2" style="fill:#000000" />
<polygon points="458,765 465,760 463,753 457,757 458,765 " style="fill:#ffffff" />
</g>
</svg>