<svg xmlns="http://www.w3.org/2000/svg" version="1.1"
  font-family="Arial, Helvetica, sans-serif" font-size="10.000000" 
  width="929" height="1072">
<g  fill="#f5fff5" stroke="#000000" style="stroke-width:1">
<rect x="771" y="18" width="133" height="143" />
<line x1="771" y1="31" x2="904" y2="31" />
<polygon points="884,39 896,44 896,34 884,39 " style="fill:#ffffff" />
<polygon points="884,53 891,57 898,53 891,49 884,53 " style="fill:#ffffff" />
<polygon points="884,67 891,71 898,67 891,63 884,67 " style="fill:#000000" />
<polygon points="884,81 892,86 888,81 892,76 884,81 " style="fill:#ffffff" />
<circle cx="884" cy="95" r="5" style="fill:#ffffff" />
<circle cx="884" cy="109" r="5" style="fill:#ffffff" />
<circle cx="891" cy="109" r="2" style="fill:#ffffff" />
<circle cx="884" cy="123" r="5" style="fill:#ffffff" />
<circle cx="884" cy="123" r="2" style="fill:#ffffff" />
<circle cx="884" cy="137" r="5" style="fill:#ffffff" />
<circle cx="884" cy="137" r="2" style="fill:#000000" />
<circle cx="884" cy="151" r="5" style="fill:#000000" />
<circle cx="884" cy="151" r="2" style="fill:#000000" />
</g>
<g stroke="none">
<text x="772" y="27">Relations Key</text>
<text x="772" y="41">Generalization</text>
<text x="772" y="55">Aggregation(reference)</text>
<text x="772" y="69">Composition(owned)</text>
<text x="772" y="83">Const</text>
<text x="772" y="97">Method Variable</text>
<text x="772" y="111">Method Parameter</text>
<text x="772" y="125">Public</text>
<text x="772" y="139">Protected</text>
<text x="772" y="153">Private</text>
</g>
<g  fill="#f5fff5" stroke="#000000" style="stroke-width:1">
<rect x="23" y="13" width="404" height="341" />
<line x1="23" y1="34" x2="427" y2="34" />
<line x1="23" y1="127" x2="427" y2="127" />
</g>
<g stroke="none">
<text x="24" y="22">EditFiles</text>
<text x="24" y="31">oovEdit</text>
<text x="24" y="43">-EditOptions mEditOptions</text>
<text x="24" y="52">-GtkNotebook&lt;&lt;typedef&gt;&gt; mHeaderBook</text>
<text x="24" y="61">-GtkNotebook&lt;&lt;typedef&gt;&gt; mSourceBook</text>
<text x="24" y="70">-Builder mBuilder</text>
<text x="24" y="79">-std::vector&lt;std::unique_ptr&lt;ScrolledFileView,std::default_delete&lt;ScrolledFileView&gt;</text>
<text x="31" y="88"> &gt;,std::allocator&lt;std::unique_ptr&lt;ScrolledFileView,std::default_delete&lt;ScrolledFi</text>
<text x="31" y="97">leView&gt; &gt; &gt; &gt; mFileViews</text>
<text x="24" y="106">-GtkTextView&lt;&lt;typedef&gt;&gt; mLastFocusGtkTextView</text>
<text x="24" y="115">-Debugger&lt;&lt;typedef&gt;&gt; mDebugger</text>
<text x="24" y="124">-timeval mLastHightlightIdleUpdate</text>
<text x="24" y="136">+EditFiles(Debugger&lt;&lt;typedef&gt;&gt; debugger, EditOptions editOptions)</text>
<text x="24" y="145">+init(Builder builder)</text>
<text x="24" y="154">+closeAll()</text>
<text x="24" y="163">+onIdle()</text>
<text x="24" y="172">+updateDebugMenu()</text>
<text x="24" y="181">+viewModule(OovStringRef fn, int lineNum)</text>
<text x="24" y="190">+viewFile(OovStringRef fn, int lineNum)</text>
<text x="24" y="199">+gotoLine(int lineNum)</text>
<text x="24" y="208">+checkExitSave()</text>
<text x="24" y="217">+getEditView()</text>
<text x="24" y="226">+getEditView(GtkTextBuffer&lt;&lt;typedef&gt;&gt; textbuffer)</text>
<text x="24" y="235">+getEditViewSelectedText()</text>
<text x="24" y="244">+setFocusEditTextView(GtkTextView&lt;&lt;typedef&gt;&gt; editTextView)</text>
<text x="24" y="253">+handleKeyPress(GdkEvent&lt;&lt;typedef&gt;&gt; event)</text>
<text x="24" y="262">+removeNotebookPage(GtkWidget&lt;&lt;typedef&gt;&gt; pageWidget)</text>
<text x="24" y="271">+checkDebugger()</text>
<text x="24" y="280">+showInteractNotebookTab(char tabName)</text>
<text x="24" y="289">+getScrolledFileView(GtkTextView&lt;&lt;typedef&gt;&gt; textView)</text>
<text x="24" y="298">+saveAsTextFileWithDialog()</text>
<text x="24" y="307">-idleHighlight()</text>
<text x="24" y="316">-getPageNumber(GtkNotebook&lt;&lt;typedef&gt;&gt; notebook, GtkTextView&lt;&lt;typedef&gt;&gt; view)</text>
<text x="24" y="325">-setTabText(FileEditView view, OovStringRef text)</text>
<text x="24" y="334">-textBufferModified(FileEditView view, bool modified)</text>
<text x="24" y="343">-getBook(FileEditView view)</text>
<text x="24" y="352">+getDebugger()</text>
</g>
<g stroke="none" font-style="italic">
</g>
<g  fill="#f5fff5" stroke="#000000" style="stroke-width:1">
<rect x="544" y="109" width="195" height="71" />
<line x1="544" y1="130" x2="739" y2="130" />
<line x1="544" y1="133" x2="739" y2="133" />
</g>
<g stroke="none">
<text x="545" y="118">EditOptions</text>
<text x="545" y="127">oovEdit</text>
<text x="545" y="142">+setProjectDir(string&lt;&lt;typedef&gt;&gt; projDir)</text>
<text x="545" y="151">+setScreenCoord(char tag, int val)</text>
<text x="545" y="160">+saveScreenSize(int width, int height)</text>
<text x="545" y="169">+getScreenCoord(char tag, int val)</text>
<text x="545" y="178">+getScreenSize(int width, int height)</text>
</g>
<g stroke="none" font-style="italic">
</g>
<g  fill="#f5fff5" stroke="#000000" style="stroke-width:1">
<rect x="445" y="30" width="198" height="53" />
<line x1="445" y1="78" x2="643" y2="78" />
<line x1="445" y1="81" x2="643" y2="81" />
</g>
<g stroke="none">
<text x="446" y="39">std::vector&lt;std::unique_ptr&lt;ScrolledFileV</text>
<text x="446" y="48">  iew,std::default_delete&lt;ScrolledFileVie</text>
<text x="446" y="57">  w&gt; &gt;,std::allocator&lt;std::unique_ptr&lt;</text>
<text x="446" y="66">  ScrolledFileView,std::default_delete&lt;</text>
<text x="446" y="75">  ScrolledFileView&gt; &gt; &gt; &gt;</text>
</g>
<g stroke="none" font-style="italic">
</g>
<g  fill="#f5fff5" stroke="#000000" style="stroke-width:1">
<rect x="23" y="367" width="251" height="170" />
<line x1="23" y1="388" x2="274" y2="388" />
<line x1="23" y1="445" x2="274" y2="445" />
</g>
<g stroke="none">
<text x="24" y="376">ScrolledFileView</text>
<text x="24" y="385">oovEdit</text>
<text x="24" y="397">+Debugger&lt;&lt;typedef&gt;&gt; mDebugger</text>
<text x="24" y="406">+FilePath mFilename</text>
<text x="24" y="415">+GtkScrolledWindow&lt;&lt;typedef&gt;&gt; mScrolled</text>
<text x="24" y="424">+FileEditView mFileView</text>
<text x="24" y="433">+int mDesiredLine</text>
<text x="24" y="442">+LeftMargin mLeftMargin</text>
<text x="24" y="454">+drawMargins(cairo_t&lt;&lt;typedef&gt;&gt; cr)</text>
<text x="24" y="463">+drawLeftMargin(cairo_t&lt;&lt;typedef&gt;&gt; cr)</text>
<text x="24" y="472">+drawRightMargin(cairo_t&lt;&lt;typedef&gt;&gt; cr)</text>
<text x="24" y="481">+ScrolledFileView(Debugger&lt;&lt;typedef&gt;&gt; debugger)</text>
<text x="24" y="490">+getBook()</text>
<text x="24" y="499">+getTextView()</text>
<text x="24" y="508">+getTextView()</text>
<text x="24" y="517">+getViewTopParent()</text>
<text x="24" y="526">+getFileEditView()</text>
<text x="24" y="535">+getFilename()</text>
</g>
<g stroke="none" font-style="italic">
</g>
<g  fill="#f5fff5" stroke="#000000" style="stroke-width:1">
<rect x="373" y="251" width="555" height="512" />
<line x1="373" y1="272" x2="928" y2="272" />
<line x1="373" y1="392" x2="928" y2="392" />
</g>
<g stroke="none">
<text x="374" y="260">FileEditView</text>
<text x="374" y="269">oovEdit</text>
<text x="374" y="281">-string&lt;&lt;typedef&gt;&gt; mFilePath</text>
<text x="374" y="290">-GtkTextView&lt;&lt;typedef&gt;&gt; mTextView</text>
<text x="374" y="299">-GtkTextBuffer&lt;&lt;typedef&gt;&gt; mTextBuffer</text>
<text x="374" y="308">-std::vector&lt;HistoryItem,std::allocator&lt;HistoryItem&gt; &gt; mHistoryItems</text>
<text x="374" y="317">-size_t&lt;&lt;typedef&gt;&gt; mCurHistoryPos</text>
<text x="374" y="326">-bool mDoingHistory</text>
<text x="374" y="335">-int mLastViewTopOffset</text>
<text x="374" y="344">-int mLastViewBotOffset</text>
<text x="374" y="353">-bool mHighlightTextContentChange</text>
<text x="374" y="362">-Highlighter mHighlighter</text>
<text x="374" y="371">-Indenter mIndenter</text>
<text x="374" y="380">-CompletionList mCompleteList</text>
<text x="374" y="389">-FileEditViewListener mListener</text>
<text x="374" y="401">+init(GtkTextView&lt;&lt;typedef&gt;&gt; textView, FileEditViewListener listener)</text>
<text x="374" y="410">+openTextFile(OovStringRef fn)</text>
<text x="374" y="419">+saveTextFile()</text>
<text x="374" y="428">+saveAsTextFileWithDialog()</text>
<text x="374" y="437">+checkExitSave()</text>
<text x="374" y="446">+getSelectedText()</text>
<text x="374" y="455">+find(char findStr, bool forward, bool caseSensitive)</text>
<text x="374" y="464">+findAndReplace(char findStr, bool forward, bool caseSensitive, char replaceStr)</text>
<text x="374" y="473">+idleHighlight()</text>
<text x="374" y="482">+gotoLine(int lineNum)</text>
<text x="374" y="491">+bufferInsertText(GtkTextBuffer&lt;&lt;typedef&gt;&gt; textbuffer, GtkTextIter&lt;&lt;typedef&gt;&gt; location, gchar&lt;&lt;typedef&gt;&gt; text, gint&lt;</text>
<text x="381" y="500">&lt;typedef&gt;&gt; len)</text>
<text x="374" y="509">+bufferDeleteRange(GtkTextBuffer&lt;&lt;typedef&gt;&gt; textbuffer, GtkTextIter&lt;&lt;typedef&gt;&gt; start, GtkTextIter&lt;&lt;typedef&gt;&gt; end)</text>
<text x="374" y="518">+handleKeys(GdkEvent&lt;&lt;typedef&gt;&gt; event)</text>
<text x="374" y="527">+getFileName()</text>
<text x="374" y="536">+viewChange(int topOffset, int botOffset)</text>
<text x="374" y="545">-saveAsTextFile(OovStringRef fn)</text>
<text x="374" y="554">-highlightRequest()</text>
<text x="374" y="563">-moveToIter(GtkTextIter&lt;&lt;typedef&gt;&gt; startIter, GtkTextIter&lt;&lt;typedef&gt;&gt; endIter)</text>
<text x="374" y="572">-getBuffer()</text>
<text x="374" y="581">+FileEditView()</text>
<text x="374" y="590">+findToken(eFindTokenTypes ft)</text>
<text x="374" y="599">+getFindTokenResults(string&lt;&lt;typedef&gt;&gt; fn, size_t&lt;&lt;typedef&gt;&gt; offset)</text>
<text x="374" y="608">+getClassNameAtLocation()</text>
<text x="374" y="617">+getMethodNameAtLocation(OovString className, OovString methodName)</text>
<text x="374" y="626">+cut()</text>
<text x="374" y="635">+copy()</text>
<text x="374" y="644">+paste()</text>
<text x="374" y="653">+deleteSel()</text>
<text x="374" y="662">+undo()</text>
<text x="374" y="671">+redo()</text>
<text x="374" y="680">+addHistoryItem(HistoryItem item)</text>
<text x="374" y="689">+doingHistory()</text>
<text x="374" y="698">+getTextView()</text>
<text x="374" y="707">+getWindow()</text>
<text x="374" y="716">+getFilePath()</text>
<text x="374" y="725">+getTextBuffer()</text>
<text x="374" y="734">+getHighlighter()</text>
<text x="374" y="743">+highlightedContent()</text>
<text x="374" y="752">-setFileName(OovStringRef fn)</text>
<text x="374" y="761">-setModified(bool modified)</text>
</g>
<g stroke="none" font-style="italic">
</g>
<g  fill="#f5fff5" stroke="#000000" style="stroke-width:1">
<rect x="23" y="572" width="237" height="224" />
<line x1="23" y1="593" x2="260" y2="593" />
<line x1="23" y1="641" x2="260" y2="641" />
</g>
<g stroke="none">
<text x="24" y="581">LeftMargin</text>
<text x="24" y="590">oovEdit</text>
<text x="24" y="602">-PangoLayout&lt;&lt;typedef&gt;&gt; mMarginLayout</text>
<text x="24" y="611">-PangoAttribute&lt;&lt;typedef&gt;&gt; mMarginAttr</text>
<text x="24" y="620">-PangoAttrList&lt;&lt;typedef&gt;&gt; mMarginAttrList</text>
<text x="24" y="629">-int mTextWidth</text>
<text x="24" y="638">-int mPixPerChar</text>
<text x="24" y="650">+setupMargin(GtkTextView&lt;&lt;typedef&gt;&gt; textView)</text>
<text x="24" y="659">+drawMarginLineNum(GtkTextView&lt;&lt;typedef&gt;</text>
<text x="31" y="668">&gt; textView, cairo_t&lt;&lt;typedef&gt;&gt; cr, int </text>
<text x="31" y="677">lineNum, int yPos)</text>
<text x="24" y="686">+drawMarginLine(GtkTextView&lt;&lt;typedef&gt;&gt;</text>
<text x="31" y="695"> textView, cairo_t&lt;&lt;typedef&gt;&gt; cr)</text>
<text x="24" y="704">+getMarginWidth()</text>
<text x="24" y="713">+getMarginHeight(GtkTextView&lt;&lt;typedef&gt;</text>
<text x="31" y="722">&gt; textView)</text>
<text x="24" y="731">-updateTextInfo(GtkTextView&lt;&lt;typedef&gt;&gt;</text>
<text x="31" y="740"> textView)</text>
<text x="24" y="749">+LeftMargin()</text>
<text x="24" y="758">+~LeftMargin()</text>
<text x="24" y="767">+getMarginLineWidth()</text>
<text x="24" y="776">+getPixPerChar()</text>
<text x="24" y="785">-getBeforeMarginLineSepWidth()</text>
<text x="24" y="794">-getAfterMarginLineSepWidth()</text>
</g>
<g stroke="none" font-style="italic">
</g>
<g  fill="#f5fff5" stroke="#000000" style="stroke-width:1">
<rect x="646" y="846" width="279" height="224" />
<line x1="646" y1="867" x2="925" y2="867" />
<line x1="646" y1="915" x2="925" y2="915" />
</g>
<g stroke="none">
<text x="647" y="855">Highlighter</text>
<text x="647" y="864">oovEdit</text>
<text x="647" y="876">-HighlighterBackgroundThreadData mBackgroundThreadD</text>
<text x="654" y="885">ata</text>
<text x="647" y="894">-HighlightTags mHighlightTags</text>
<text x="647" y="903">-TokenRange mHighlightTokens</text>
<text x="647" y="912">-Highlighter::TokenStates mTokenState</text>
<text x="647" y="924">+highlightRequest(OovStringRef filename, char[] </text>
<text x="654" y="933">clang_args, int num_clang_args)</text>
<text x="647" y="942">+highlightUpdate(GtkTextView&lt;&lt;typedef&gt;&gt; textView,</text>
<text x="654" y="951"> OovStringRef buffer, size_t&lt;&lt;typedef&gt;&gt; bufLen)</text>
<text x="647" y="960">+showMembers(size_t&lt;&lt;typedef&gt;&gt; offset)</text>
<text x="647" y="969">+findToken(eFindTokenTypes ft, size_t&lt;&lt;typedef&gt;</text>
<text x="654" y="978">&gt; origOffset)</text>
<text x="647" y="987">+applyTags(GtkTextBuffer&lt;&lt;typedef&gt;&gt; textBuffer,</text>
<text x="654" y="996"> int topOffset, int botOffset)</text>
<text x="647" y="1005">+Highlighter()</text>
<text x="647" y="1014">+getShowMembers()</text>
<text x="647" y="1023">+getFindTokenResults(string&lt;&lt;typedef&gt;&gt; fn,</text>
<text x="654" y="1032"> size_t&lt;&lt;typedef&gt;&gt; offset)</text>
<text x="647" y="1041">+getClassNameAtLocation(size_t&lt;&lt;typedef&gt;&gt; offset)</text>
<text x="647" y="1050">+getMethodNameAtLocation(size_t&lt;&lt;typedef&gt;&gt;</text>
<text x="654" y="1059"> offset, OovString className, OovString </text>
<text x="654" y="1068">methodName)</text>
</g>
<g stroke="none" font-style="italic">
</g>
<g  fill="#f5fff5" stroke="#000000" style="stroke-width:1">
<rect x="20" y="829" width="217" height="188" />
<line x1="20" y1="850" x2="237" y2="850" />
<line x1="20" y1="862" x2="237" y2="862" />
</g>
<g stroke="none">
<text x="21" y="838">Indenter</text>
<text x="21" y="847">oovEdit</text>
<text x="21" y="859">-GtkTextBuffer&lt;&lt;typedef&gt;&gt; mTextBuffer</text>
<text x="21" y="871">+tabPressed()</text>
<text x="21" y="880">+shiftTabPressed()</text>
<text x="21" y="889">+backspacePressed()</text>
<text x="21" y="898">+homePressed()</text>
<text x="21" y="907">-dentHighlightedRegion(bool in, GtkTextIter&lt;</text>
<text x="28" y="916">&lt;typedef&gt;&gt; startSelIter, GtkTextIter&lt;</text>
<text x="28" y="925">&lt;typedef&gt;&gt; endSelIter)</text>
<text x="21" y="934">-getFirstNonSpaceOnLineIter(GtkTextIter&lt;</text>
<text x="28" y="943">&lt;typedef&gt;&gt; startLineIter, GtkTextIter&lt;</text>
<text x="28" y="952">&lt;typedef&gt;&gt; iter)</text>
<text x="21" y="961">-countSpaces(char text, bool expandTabs)</text>
<text x="21" y="970">-getCursorIter(GtkTextIter&lt;&lt;typedef&gt;&gt; iter)</text>
<text x="21" y="979">-getLineNumber(GtkTextIter&lt;&lt;typedef&gt;&gt; iter)</text>
<text x="21" y="988">-addSpaces(int count)</text>
<text x="21" y="997">+Indenter()</text>
<text x="21" y="1006">+init(GtkTextBuffer&lt;&lt;typedef&gt;&gt; textBuffer)</text>
<text x="21" y="1015">-getIndentSize()</text>
</g>
<g stroke="none" font-style="italic">
</g>
<g  fill="#f5fff5" stroke="#000000" style="stroke-width:1">
<rect x="287" y="820" width="289" height="251" />
<line x1="287" y1="841" x2="576" y2="841" />
<line x1="287" y1="934" x2="576" y2="934" />
</g>
<g stroke="none">
<text x="288" y="829">CompletionList</text>
<text x="288" y="838">oovEdit</text>
<text x="288" y="850">-FileEditView mEditView</text>
<text x="288" y="859">-GtkWidget&lt;&lt;typedef&gt;&gt; mTopWidget</text>
<text x="288" y="868">-GuiList mGuiList</text>
<text x="288" y="877">-GtkTextBuffer&lt;&lt;typedef&gt;&gt; mTextBuffer</text>
<text x="288" y="886">-int mStartIdentifierOffset</text>
<text x="288" y="895">-int mCompletionTriggerPointOffset</text>
<text x="288" y="904">-int mLastKey</text>
<text x="288" y="913">-int mLastNonModifierKey</text>
<text x="288" y="922">-bool mGettingCompletionData</text>
<text x="288" y="931">-time_point&lt;&lt;typedef&gt;&gt; mGettingCompletionDataStartTime</text>
<text x="288" y="943">+init(GtkTextBuffer&lt;&lt;typedef&gt;&gt; textBuffer)</text>
<text x="288" y="952">+positionCompletionWindow()</text>
<text x="288" y="961">+handleEditorKey(int key, int modKeys)</text>
<text x="288" y="970">+handleListKey(int key, int modKeys)</text>
<text x="288" y="979">+setList(FileEditView view, OovStringVec strs)</text>
<text x="288" y="988">+activateSelectedItem()</text>
<text x="288" y="997">+lostFocus()</text>
<text x="288" y="1006">+okToShowList()</text>
<text x="288" y="1015">-setWindowPosition(GdkWindow&lt;&lt;typedef&gt;&gt; compWin,</text>
<text x="295" y="1024"> int screenWidth)</text>
<text x="288" y="1033">-startGettingCompletionData()</text>
<text x="288" y="1042">+CompletionList()</text>
<text x="288" y="1051">+getCompletionTriggerPointOffset()</text>
<text x="288" y="1060">+isGettingCompletionData()</text>
<text x="288" y="1069">-quitGettingCompletionData()</text>
</g>
<g stroke="none" font-style="italic">
</g>
<g  fill="#f5f5ff" stroke="#000000" style="stroke-width:1">
<line x1="427" y1="165" x2="544" y2="153" />
<circle cx="440" cy="163" r="5" style="fill:#ffffff" />
<circle cx="447" cy="162" r="2" style="fill:#ffffff" />
<circle cx="456" cy="161" r="5" style="fill:#000000" />
<circle cx="456" cy="161" r="2" style="fill:#000000" />
<polygon points="427,165 435,168 440,164 434,160 427,165 " style="fill:#ffffff" />
<line x1="427" y1="103" x2="479" y2="82" />
<circle cx="439" cy="97" r="5" style="fill:#ffffff" />
<circle cx="454" cy="91" r="5" style="fill:#000000" />
<circle cx="454" cy="91" r="2" style="fill:#000000" />
<polygon points="427,103 435,104 439,98 432,96 427,103 " style="fill:#000000" />
<line x1="177" y1="353" x2="172" y2="367" />
<circle cx="172" cy="366" r="5" style="fill:#ffffff" />
<line x1="427" y1="336" x2="373" y2="296" />
<circle cx="415" cy="327" r="5" style="fill:#ffffff" />
<circle cx="410" cy="323" r="2" style="fill:#ffffff" />
<line x1="197" y1="353" x2="159" y2="572" />
<circle cx="194" cy="366" r="5" style="fill:#ffffff" />
<line x1="519" y1="82" x2="233" y2="367" style="stroke-dasharray: 4, 4 "/>
<line x1="519" y1="82" x2="233" y2="367" style="stroke-dasharray: 4, 4 "/>
<line x1="233" y1="367" x2="245" y2="362" />
<line x1="233" y1="367" x2="238" y2="355" />
<line x1="273" y1="465" x2="373" y2="477" />
<circle cx="286" cy="466" r="5" style="fill:#ffffff" />
<circle cx="302" cy="468" r="5" style="fill:#ffffff" />
<circle cx="302" cy="468" r="2" style="fill:#ffffff" />
<polygon points="273,465 280,470 286,466 281,462 273,465 " style="fill:#000000" />
<line x1="146" y1="537" x2="144" y2="572" />
<circle cx="145" cy="550" r="5" style="fill:#ffffff" />
<circle cx="144" cy="566" r="5" style="fill:#ffffff" />
<circle cx="144" cy="566" r="2" style="fill:#ffffff" />
<polygon points="146,537 142,544 146,550 150,545 146,537 " style="fill:#000000" />
<line x1="726" y1="763" x2="752" y2="846" />
<circle cx="730" cy="776" r="5" style="fill:#ffffff" />
<circle cx="734" cy="791" r="5" style="fill:#000000" />
<circle cx="734" cy="791" r="2" style="fill:#000000" />
<polygon points="726,763 725,771 730,776 732,769 726,763 " style="fill:#000000" />
<line x1="373" y1="727" x2="236" y2="837" />
<circle cx="362" cy="735" r="5" style="fill:#ffffff" />
<circle cx="349" cy="745" r="5" style="fill:#000000" />
<circle cx="349" cy="745" r="2" style="fill:#000000" />
<polygon points="373,727 365,728 363,735 370,735 373,727 " style="fill:#000000" />
<line x1="523" y1="763" x2="493" y2="820" />
<circle cx="516" cy="775" r="5" style="fill:#ffffff" />
<circle cx="509" cy="789" r="5" style="fill:#000000" />
<circle cx="509" cy="789" r="2" style="fill:#000000" />
<polygon points="523,763 516,767 517,775 523,771 523,763 " style="fill:#000000" />
<circle cx="499" cy="807" r="5" style="fill:#ffffff" />
<circle cx="502" cy="801" r="2" style="fill:#ffffff" />
<circle cx="506" cy="793" r="5" style="fill:#000000" />
<circle cx="506" cy="793" r="2" style="fill:#000000" />
<polygon points="493,820 500,816 499,808 493,812 493,820 " style="fill:#ffffff" />
</g>
</svg>