<svg xmlns="http://www.w3.org/2000/svg" version="1.1"
 font-family="Arial, Helvetica, sans-serif" font-size="10.00" width="840" height="1095" viewbox="0 0 840 1095">
<g  fill="#f5fff5" stroke="#000000" style="stroke-width:1">
<rect x="710" y="549" width="129" height="143" />
<line x1="710" y1="562" x2="839" y2="562" />
<polygon points="823,570 835,575 835,565 823,570 " style="fill:#ffffff" />
<polygon points="823,584 830,588 837,584 830,580 823,584 " style="fill:#ffffff" />
<polygon points="823,598 830,602 837,598 830,594 823,598 " style="fill:#000000" />
<polygon points="823,612 831,617 827,612 831,607 823,612 " style="fill:#ffffff" />
<circle cx="823" cy="626" r="5" style="fill:#ffffff" />
<circle cx="823" cy="640" r="5" style="fill:#ffffff" />
<circle cx="830" cy="640" r="2" style="fill:#ffffff" />
<circle cx="823" cy="654" r="5" style="fill:#ffffff" />
<circle cx="823" cy="654" r="2" style="fill:#ffffff" />
<circle cx="823" cy="668" r="5" style="fill:#ffffff" />
<circle cx="823" cy="668" r="2" style="fill:#000000" />
<circle cx="823" cy="682" r="5" style="fill:#000000" />
<circle cx="823" cy="682" r="2" style="fill:#000000" />
</g>
<g stroke="none">
<text x="711" y="558">Relations Key</text>
<text x="711" y="572">Generalization</text>
<text x="711" y="586">Aggregation(reference)</text>
<text x="711" y="600">Composition(owned)</text>
<text x="711" y="614">Const</text>
<text x="711" y="628">Method Variable</text>
<text x="711" y="642">Method Parameter</text>
<text x="711" y="656">Public</text>
<text x="711" y="670">Protected</text>
<text x="711" y="684">Private</text>
</g>
<g  fill="#f5fff5" stroke="#000000" style="stroke-width:1">
<rect x="10" y="17" width="466" height="548" />
<line x1="10" y1="38" x2="476" y2="38" />
<line x1="10" y1="131" x2="476" y2="131" />
</g>
<g stroke="none">
<text x="11" y="26">Editor</text>
<text x="11" y="35">oovEdit</text>
<text x="11" y="47">-Builder mBuilder</text>
<text x="11" y="56">-EditFiles mEditFiles</text>
<text x="11" y="65">-Debugger&lt;&lt;typedef&gt;&gt; mDebugger</text>
<text x="11" y="74">-OovString mLastSearch</text>
<text x="11" y="83">-OovString mProjectDir</text>
<text x="11" y="92">-bool mLastSearchCaseSensitive</text>
<text x="11" y="101">-OovString mDebugOut</text>
<text x="11" y="110">-EditOptions mEditOptions</text>
<text x="11" y="119">-GuiTree mVarView</text>
<text x="11" y="128">-EditorIpc mEditorIpc</text>
<text x="11" y="140">+Editor()</text>
<text x="11" y="149">+init()</text>
<text x="11" y="158">+loadSettings()</text>
<text x="11" y="167">+saveSettings()</text>
<text x="11" y="176">+onIdleCallback(gpointer&lt;&lt;typedef&gt;&gt; data)</text>
<text x="11" y="185">+onIdle(gpointer&lt;&lt;typedef&gt;&gt; data)</text>
<text x="11" y="194">+openTextFile(OovStringRef fn)</text>
<text x="11" y="203">+openTextFile()</text>
<text x="11" y="212">+saveTextFile()</text>
<text x="11" y="221">+saveAsTextFileWithDialog()</text>
<text x="11" y="230">+findDialog()</text>
<text x="11" y="239">+findAgain(bool forward)</text>
<text x="11" y="248">+findInFilesDialog()</text>
<text x="11" y="257">+findInFiles(char srchStr, char path, bool caseSensitive, GtkTextView&lt;&lt;typedef&gt;&gt; view)</text>
<text x="11" y="266">+setStyle()</text>
<text x="11" y="275">+checkExitSave()</text>
<text x="11" y="284">+gotoLineDialog()</text>
<text x="11" y="293">+gotoFileLine(string&lt;&lt;typedef&gt;&gt; lineBuf)</text>
<text x="11" y="302">+editPreferences()</text>
<text x="11" y="311">+setPreferencesWorkingDir()</text>
<text x="11" y="320">+idleDebugStatusChange(eDebuggerChangeStatus st)</text>
<text x="11" y="329">+debugSetStackFrame(OovStringRef frameLine)</text>
<text x="11" y="338">-find(OovStringRef findStr, bool forward, bool caseSensitive)</text>
<text x="11" y="347">-findAndReplace(OovStringRef findStr, bool forward, bool caseSensitive, OovStringRef replaceStr)</text>
<text x="11" y="356">+startStdinListening()</text>
<text x="11" y="365">+cut()</text>
<text x="11" y="374">+copy()</text>
<text x="11" y="383">+paste()</text>
<text x="11" y="392">+deleteSel()</text>
<text x="11" y="401">+undo()</text>
<text x="11" y="410">+redo()</text>
<text x="11" y="419">+analyze()</text>
<text x="11" y="428">+build()</text>
<text x="11" y="437">+stopAnalyze()</text>
<text x="11" y="446">+gotoToken(eFindTokenTypes ft)</text>
<text x="11" y="455">+gotoDeclaration()</text>
<text x="11" y="464">+gotoDefinition()</text>
<text x="11" y="473">+goToMethod()</text>
<text x="11" y="482">+viewClassDiagram()</text>
<text x="11" y="491">+viewPortionDiagram()</text>
<text x="11" y="500">+getBuilder()</text>
<text x="11" y="509">+getDebugger()</text>
<text x="11" y="518">+getEditFiles()</text>
<text x="11" y="527">+setProjectDir(OovStringRef projDir)</text>
<text x="11" y="536">+gotoLine(lineNum)</text>
</g>
<g stroke="none" font-style="italic">
<text x="11" y="545">+errorListener(OovStringRef str, OovErrorTypes et)</text>
<text x="11" y="554">+DebugOutput(OovStringRef str)</text>
<text x="11" y="563">+DebugStatusChanged()</text>
</g>
<g  fill="#f5fff5" stroke="#000000" style="stroke-width:1">
<rect x="12" y="708" width="421" height="386" />
<line x1="12" y1="729" x2="433" y2="729" />
<line x1="12" y1="822" x2="433" y2="822" />
</g>
<g stroke="none">
<text x="13" y="717">EditFiles</text>
<text x="13" y="726">oovEdit</text>
<text x="13" y="738">-EditOptions mEditOptions</text>
<text x="13" y="747">-GtkNotebook&lt;&lt;typedef&gt;&gt; mHeaderBook</text>
<text x="13" y="756">-GtkNotebook&lt;&lt;typedef&gt;&gt; mSourceBook</text>
<text x="13" y="765">-Builder mBuilder</text>
<text x="13" y="774">-std::vector&lt;std::unique_ptr&lt;ScrolledFileView,std::default_delete&lt;ScrolledFileView&gt;</text>
<text x="20" y="783"> &gt;,std::allocator&lt;std::unique_ptr&lt;ScrolledFileView,std::default_delete&lt;ScrolledFileVie</text>
<text x="20" y="792">w&gt; &gt; &gt; &gt; mFileViews</text>
<text x="13" y="801">-GtkTextView&lt;&lt;typedef&gt;&gt; mLastFocusGtkTextView</text>
<text x="13" y="810">-Debugger&lt;&lt;typedef&gt;&gt; mDebugger</text>
<text x="13" y="819">-timeval mLastHightlightIdleUpdate</text>
<text x="13" y="831">+EditFiles(Debugger&lt;&lt;typedef&gt;&gt; debugger, EditOptions editOptions)</text>
<text x="13" y="840">+getEditFiles()</text>
<text x="13" y="849">+init(Builder builder)</text>
<text x="13" y="858">+closeAll()</text>
<text x="13" y="867">+onIdle()</text>
<text x="13" y="876">+updateDebugMenu()</text>
<text x="13" y="885">+viewModule(OovStringRef fn, lineNum)</text>
<text x="13" y="894">+viewFile(OovStringRef fn, lineNum)</text>
<text x="13" y="903">+gotoLine(lineNum)</text>
<text x="13" y="912">+checkExitSave()</text>
<text x="13" y="921">+getEditView()</text>
<text x="13" y="930">+getScrolledFileView(GtkTextView&lt;&lt;typedef&gt;&gt; textView)</text>
<text x="13" y="939">+getScrolledFileView(GtkTextBuffer&lt;&lt;typedef&gt;&gt; textbuffer)</text>
<text x="13" y="948">+setFocusEditTextView(GtkTextView&lt;&lt;typedef&gt;&gt; editTextView)</text>
<text x="13" y="957">+handleKeyPress(GdkEvent&lt;&lt;typedef&gt;&gt; event)</text>
<text x="13" y="966">+removeNotebookPage(GtkWidget&lt;&lt;typedef&gt;&gt; pageWidget)</text>
<text x="13" y="975">+checkDebugger()</text>
<text x="13" y="984">+showInteractNotebookTab(char tabName)</text>
<text x="13" y="993">+saveAsTextFileWithDialog()</text>
<text x="13" y="1002">+bufferInsertText(GtkTextBuffer&lt;&lt;typedef&gt;&gt; textbuffer, GtkTextIter&lt;&lt;typedef&gt;&gt; location,</text>
<text x="20" y="1011"> gchar&lt;&lt;typedef&gt;&gt; text, gint&lt;&lt;typedef&gt;&gt; len)</text>
<text x="13" y="1020">+bufferDeleteRange(GtkTextBuffer&lt;&lt;typedef&gt;&gt; textbuffer, GtkTextIter&lt;&lt;typedef&gt;&gt; </text>
<text x="20" y="1029">start, GtkTextIter&lt;&lt;typedef&gt;&gt; end)</text>
<text x="13" y="1038">+handleButtonPress(GtkWidget&lt;&lt;typedef&gt;&gt; widget, GdkEventButton&lt;&lt;typedef&gt;&gt; button)</text>
<text x="13" y="1047">-idleHighlight()</text>
<text x="13" y="1056">-getPageNumber(GtkNotebook&lt;&lt;typedef&gt;&gt; notebook, GtkTextView&lt;&lt;typedef&gt;&gt; view)</text>
<text x="13" y="1065">-setTabText(FileEditView view, OovStringRef text)</text>
<text x="13" y="1083">-getBook(FileEditView view)</text>
<text x="13" y="1092">+getDebugger()</text>
</g>
<g stroke="none" font-style="italic">
<text x="13" y="1074">-textBufferModified(FileEditView view, bool modified)</text>
</g>
<g  fill="#f5fff5" stroke="#000000" style="stroke-width:1">
<rect x="267" y="607" width="195" height="71" />
<line x1="267" y1="628" x2="462" y2="628" />
<line x1="267" y1="631" x2="462" y2="631" />
</g>
<g stroke="none">
<text x="268" y="616">EditOptions</text>
<text x="268" y="625">oovEdit</text>
<text x="268" y="640">+setProjectDir(string&lt;&lt;typedef&gt;&gt; projDir)</text>
<text x="268" y="649">+setScreenCoord(char tag, val)</text>
<text x="268" y="658">+saveScreenSize(width, height)</text>
<text x="268" y="667">+getScreenCoord(char tag, val)</text>
<text x="268" y="676">+getScreenSize(width, height)</text>
</g>
<g stroke="none" font-style="italic">
</g>
<g  fill="#f5fff5" stroke="#000000" style="stroke-width:1">
<rect x="78" y="612" width="80" height="26" />
<line x1="78" y1="633" x2="158" y2="633" />
<line x1="78" y1="636" x2="158" y2="636" />
</g>
<g stroke="none">
<text x="79" y="621">GuiTree</text>
<text x="79" y="630">oovGuiCommon</text>
</g>
<g stroke="none" font-style="italic">
</g>
<g  fill="#f5fff5" stroke="#000000" style="stroke-width:1">
<rect x="681" y="156" width="157" height="53" />
<line x1="681" y1="177" x2="838" y2="177" />
<line x1="681" y1="180" x2="838" y2="180" />
</g>
<g stroke="none">
<text x="682" y="165">DebuggerListener</text>
<text x="682" y="174">oovEdit</text>
</g>
<g stroke="none" font-style="italic">
<text x="682" y="189">+~DebuggerListener()</text>
<text x="682" y="198">+DebugOutput(OovStringRef str)</text>
<text x="682" y="207">+DebugStatusChanged()</text>
</g>
<g  fill="#f5fff5" stroke="#000000" style="stroke-width:1">
<rect x="474" y="705" width="363" height="386" />
<line x1="474" y1="726" x2="837" y2="726" />
<line x1="474" y1="855" x2="837" y2="855" />
</g>
<g stroke="none">
<text x="475" y="714">DebuggerBase</text>
<text x="475" y="723">oovEdit</text>
<text x="475" y="735">#OovString mDebuggerFilePath</text>
<text x="475" y="744">#OovString mDebuggeeFilePath</text>
<text x="475" y="753">#OovString mDebuggeeArgs</text>
<text x="475" y="762">#OovString mWorkingDir</text>
<text x="475" y="771">#DebuggerBreakpoints mBreakpoints</text>
<text x="475" y="780">#DebuggerListener mDebuggerListener</text>
<text x="475" y="789">#string&lt;&lt;typedef&gt;&gt; mDebuggerOutputBuffer</text>
<text x="475" y="798">#OovString mStack</text>
<text x="475" y="807">#DebugResult mVarValue</text>
<text x="475" y="816">#DebuggerChildStates mDebuggerChildState</text>
<text x="475" y="825">#InProcMutex mStatusLock</text>
<text x="475" y="834">#std::queue&lt;eDebuggerChangeStatus,std::deque&lt;eDebuggerChangeStatus,</text>
<text x="482" y="843">std::allocator&lt;eDebuggerChangeStatus&gt; &gt; &gt; mChangeStatusQueue</text>
<text x="475" y="852">#DebuggerLocation mStoppedLocation</text>
<text x="475" y="864">+DebuggerBase()</text>
<text x="475" y="882">+getChangeStatus()</text>
<text x="475" y="891">+getChildState()</text>
<text x="475" y="900">+getStack()</text>
<text x="475" y="909">+getVarValue()</text>
<text x="475" y="918">+getStoppedLocation()</text>
<text x="475" y="927">#updateChangeStatus(eDebuggerChangeStatus status)</text>
<text x="475" y="936">#changeChildState(DebuggerChildStates state)</text>
<text x="475" y="945">+setListener(DebuggerListener listener)</text>
<text x="475" y="954">+setDebuggerFilePath(OovStringRef dbgPath)</text>
<text x="475" y="963">+setDebuggee(OovStringRef debuggee)</text>
<text x="475" y="972">+setDebuggeeArgs(OovStringRef args)</text>
<text x="475" y="981">+setWorkingDir(OovStringRef dir)</text>
<text x="475" y="1071">+getDebuggerFilePath()</text>
<text x="475" y="1080">+getDebuggeeFilePath()</text>
<text x="475" y="1089">+getBreakpoints()</text>
</g>
<g stroke="none" font-style="italic">
<text x="475" y="873">+~DebuggerBase()</text>
<text x="475" y="990">+setStackFrame(OovStringRef frameLine)</text>
<text x="475" y="999">+toggleBreakpoint(DebuggerBreakpoint br)</text>
<text x="475" y="1008">+stepInto()</text>
<text x="475" y="1017">+stepOver()</text>
<text x="475" y="1026">+resume()</text>
<text x="475" y="1035">+interrupt()</text>
<text x="475" y="1044">+stop()</text>
<text x="475" y="1053">+isDebuggerRunning()</text>
<text x="475" y="1062">+sendCommand(OovStringRef command)</text>
</g>
<g  fill="#f5fff5" stroke="#000000" style="stroke-width:1">
<rect x="587" y="234" width="251" height="305" />
<line x1="587" y1="255" x2="838" y2="255" />
<line x1="587" y1="303" x2="838" y2="303" />
</g>
<g stroke="none">
<text x="588" y="243">DebuggerGdb</text>
<text x="588" y="252">oovEdit</text>
<text x="588" y="264">-OovBackgroundPipeProcess mBkgPipeProc</text>
<text x="588" y="273">-mCommandIndex</text>
<text x="588" y="282">-mFrameNumber</text>
<text x="588" y="291">-mCurrentThread</text>
<text x="588" y="300">-string&lt;&lt;typedef&gt;&gt; mGetVariableName</text>
<text x="588" y="312">+DebuggerGdb()</text>
<text x="588" y="321">+setStackFrame(OovStringRef frameLine)</text>
<text x="588" y="330">+toggleBreakpoint(DebuggerBreakpoint br)</text>
<text x="588" y="339">+stepInto()</text>
<text x="588" y="348">+stepOver()</text>
<text x="588" y="357">+resume()</text>
<text x="588" y="366">+interrupt()</text>
<text x="588" y="375">+stop()</text>
<text x="588" y="384">+sendCommand(OovStringRef command)</text>
<text x="588" y="393">+startGetVariable(OovStringRef variable)</text>
<text x="588" y="402">+startGetStack()</text>
<text x="588" y="411">+startGetMemory(OovStringRef addr)</text>
<text x="588" y="420">-runDebuggerProcess()</text>
<text x="588" y="429">-ensureGdbChildRunning()</text>
<text x="588" y="438">-sendAddBreakpoint(DebuggerBreakpoint br)</text>
<text x="588" y="447">-sendDeleteBreakpoint(DebuggerBreakpoint br)</text>
<text x="588" y="456">-sendMiCommand(OovStringRef command)</text>
<text x="588" y="465">-handleResult(string&lt;&lt;typedef&gt;&gt; resultStr)</text>
<text x="588" y="474">-handleBreakpoint(string&lt;&lt;typedef&gt;&gt; resultStr)</text>
<text x="588" y="483">-handleStack(string&lt;&lt;typedef&gt;&gt; resultStr)</text>
<text x="588" y="492">-handleValue(string&lt;&lt;typedef&gt;&gt; resultStr)</text>
<text x="588" y="528">+isDebuggerRunning()</text>
<text x="588" y="537">-resetFrameNumber()</text>
</g>
<g stroke="none" font-style="italic">
<text x="588" y="501">-onStdOut(OovStringRef out, size_t&lt;&lt;typedef&gt;&gt; len)</text>
<text x="588" y="510">-onStdErr(OovStringRef out, size_t&lt;&lt;typedef&gt;&gt; len)</text>
<text x="588" y="519">+~DebuggerGdb()</text>
</g>
<g  fill="#f5fff5" stroke="#000000" style="stroke-width:1">
<rect x="627" y="15" width="205" height="116" />
<line x1="627" y1="36" x2="832" y2="36" />
<line x1="627" y1="75" x2="832" y2="75" />
</g>
<g stroke="none">
<text x="628" y="24">FindFiles</text>
<text x="628" y="33">oovEdit</text>
<text x="628" y="45">-string&lt;&lt;typedef&gt;&gt; mSrchStr</text>
<text x="628" y="54">-bool mCaseSensitive</text>
<text x="628" y="63">-GtkTextView&lt;&lt;typedef&gt;&gt; mView</text>
<text x="628" y="72">-mNumMatches</text>
<text x="628" y="84">+~FindFiles()</text>
<text x="628" y="93">+FindFiles(char srchStr, bool caseSensitive</text>
<text x="635" y="102">, GtkTextView&lt;&lt;typedef&gt;&gt; view)</text>
<text x="628" y="111">+recurseDirs(char srcDir)</text>
<text x="628" y="120">+getNumMatches()</text>
</g>
<g stroke="none" font-style="italic">
<text x="628" y="129">-processFile(OovStringRef filePath)</text>
</g>
<g  fill="#f5f5ff" stroke="#000000" style="stroke-width:1">
<line x1="234" y1="565" x2="228" y2="708" />
<circle cx="233" cy="578" r="5" style="fill:#ffffff" />
<circle cx="232" cy="594" r="5" style="fill:#000000" />
<circle cx="232" cy="594" r="2" style="fill:#000000" />
<polygon points="234,565 230,572 234,578 238,572 234,565 " style="fill:#000000" />
<line x1="337" y1="565" x2="352" y2="607" />
<circle cx="341" cy="578" r="5" style="fill:#ffffff" />
<circle cx="347" cy="593" r="5" style="fill:#000000" />
<circle cx="347" cy="593" r="2" style="fill:#000000" />
<polygon points="337,565 336,573 341,578 343,570 337,565 " style="fill:#000000" />
<line x1="141" y1="565" x2="122" y2="612" />
<circle cx="135" cy="577" r="5" style="fill:#ffffff" />
<circle cx="129" cy="592" r="5" style="fill:#000000" />
<circle cx="129" cy="592" r="2" style="fill:#000000" />
<polygon points="141,565 134,570 136,577 142,573 141,565 " style="fill:#000000" />
<line x1="476" y1="242" x2="681" y2="198" />
<circle cx="651" cy="204" r="5" style="fill:#ffffff" />
<circle cx="651" cy="204" r="2" style="fill:#ffffff" />
<polygon points="681,198 668,196 670,205 681,198 " style="fill:#ffffff" />
<line x1="428" y1="565" x2="525" y2="705" />
<circle cx="435" cy="576" r="5" style="fill:#ffffff" />
<line x1="476" y1="338" x2="587" y2="361" />
<circle cx="489" cy="340" r="5" style="fill:#ffffff" />
<line x1="476" y1="187" x2="627" y2="118" />
<circle cx="488" cy="181" r="5" style="fill:#ffffff" />
<line x1="327" y1="708" x2="345" y2="677" />
<circle cx="334" cy="695" r="5" style="fill:#ffffff" />
<circle cx="337" cy="689" r="2" style="fill:#ffffff" />
<circle cx="342" cy="682" r="5" style="fill:#000000" />
<circle cx="342" cy="682" r="2" style="fill:#000000" />
<polygon points="327,708 334,704 334,696 327,700 327,708 " style="fill:#ffffff" />
<line x1="432" y1="900" x2="474" y2="899" />
<circle cx="445" cy="899" r="5" style="fill:#ffffff" />
<line x1="405" y1="708" x2="587" y2="517" />
<circle cx="414" cy="697" r="5" style="fill:#ffffff" />
<line x1="756" y1="208" x2="683" y2="705" />
<circle cx="685" cy="691" r="5" style="fill:#ffffff" />
<circle cx="686" cy="684" r="2" style="fill:#ffffff" />
<circle cx="687" cy="675" r="5" style="fill:#ffffff" />
<circle cx="687" cy="675" r="2" style="fill:#000000" />
<polygon points="683,705 688,698 685,692 680,697 683,705 " style="fill:#ffffff" />
<line x1="754" y1="208" x2="747" y2="234" />
<circle cx="750" cy="220" r="5" style="fill:#ffffff" />
<line x1="676" y1="705" x2="696" y2="538" />
<circle cx="679" cy="675" r="5" style="fill:#ffffff" />
<circle cx="679" cy="675" r="2" style="fill:#ffffff" />
<polygon points="676,705 682,693 673,692 676,705 " style="fill:#ffffff" />
<circle cx="694" cy="551" r="5" style="fill:#ffffff" />
</g>
</svg>