<svg xmlns="http://www.w3.org/2000/svg" version="1.1" width="577" height="804">
<g  fill="#f5f5ff" stroke="rgb(0,0,0)" style="stroke-width:1">
<rect x="17" y="98" width="407" height="431" />
<line x1="17" y1="119" x2="424" y2="119" />
<line x1="17" y1="203" x2="424" y2="203" />
</g>
<g font-size="10">
<text x="18" y="107">Editor</text>
<text x="18" y="116">/oovEdit/</text>
<text x="18" y="128">-Builder mBuilder</text>
<text x="18" y="137">-EditFiles mEditFiles</text>
<text x="18" y="146">-Debugger mDebugger</text>
<text x="18" y="155">-std::string mLastSearch</text>
<text x="18" y="164">-std::string mProjectDir</text>
<text x="18" y="173">-bool mLastSearchCaseSensitive</text>
<text x="18" y="182">-std::string mDebugOut</text>
<text x="18" y="191">-EditOptions mEditOptions</text>
<text x="18" y="200">-GuiTree mVarView</text>
<text x="18" y="212">+Editor()</text>
<text x="18" y="221">+init()</text>
<text x="18" y="230">+loadSettings()</text>
<text x="18" y="239">+saveSettings()</text>
<text x="18" y="248">+onIdle(gpointer data)</text>
<text x="18" y="257">+openTextFile(char const fn)</text>
<text x="18" y="266">+openTextFile()</text>
<text x="18" y="275">+saveTextFile()</text>
<text x="18" y="284">+saveAsTextFileWithDialog()</text>
<text x="18" y="293">+findDialog()</text>
<text x="18" y="302">+findAgain(bool forward)</text>
<text x="18" y="311">+findInFilesDialog()</text>
<text x="18" y="320">+findInFiles(char const srchStr, char const path, bool caseSensitive, GtkTextView view)</text>
<text x="18" y="329">+setStyle()</text>
<text x="18" y="338">+cut()</text>
<text x="18" y="347">+copy()</text>
<text x="18" y="356">+paste()</text>
<text x="18" y="365">+deleteSel()</text>
<text x="18" y="374">+undo()</text>
<text x="18" y="383">+redo()</text>
<text x="18" y="392">+checkExitSave()</text>
<text x="18" y="401">+getBuilder()</text>
<text x="18" y="410">+getDebugger()</text>
<text x="18" y="419">+getEditFiles()</text>
<text x="18" y="428">+setProjectDir(char const projDir)</text>
<text x="18" y="437">+gotoLine(int lineNum)</text>
<text x="18" y="446">+gotoFileLine(std::string lineBuf)</text>
<text x="18" y="455">+bufferInsertText(GtkTextBuffer textbuffer, GtkTextIter location, gchar text, gint len)</text>
<text x="18" y="464">+bufferDeleteRange(GtkTextBuffer textbuffer, GtkTextIter start, GtkTextIter end)</text>
<text x="18" y="473">+drawHighlight()</text>
<text x="18" y="482">+editPreferences()</text>
<text x="18" y="491">+idleDebugStatusChange(Debugger::eChangeStatus st)</text>
<text x="18" y="500">+DebugOutput(char const str)</text>
<text x="18" y="509">+DebugStatusChanged()</text>
<text x="18" y="518">-find(char const findStr, bool forward, bool caseSensitive)</text>
<text x="18" y="527">-setModuleName(char mn)</text>
</g>
<g  fill="#f5f5ff" stroke="rgb(0,0,0)" style="stroke-width:1">
<rect x="323" y="578" width="88" height="26" />
<line x1="323" y1="599" x2="411" y2="599" />
<line x1="323" y1="602" x2="411" y2="602" />
</g>
<g font-size="10">
<text x="324" y="587">Builder</text>
<text x="324" y="596">/oovGuiCommon/</text>
</g>
<g  fill="#f5f5ff" stroke="rgb(0,0,0)" style="stroke-width:1">
<rect x="460" y="519" width="47" height="26" />
<line x1="460" y1="540" x2="507" y2="540" />
<line x1="460" y1="543" x2="507" y2="543" />
</g>
<g font-size="10">
<text x="461" y="528">EditFiles</text>
<text x="461" y="537">/oovEdit/</text>
</g>
<g  fill="#f5f5ff" stroke="rgb(0,0,0)" style="stroke-width:1">
<rect x="486" y="145" width="50" height="26" />
<line x1="486" y1="166" x2="536" y2="166" />
<line x1="486" y1="169" x2="536" y2="169" />
</g>
<g font-size="10">
<text x="487" y="154">Debugger</text>
<text x="487" y="163">/oovEdit/</text>
</g>
<g  fill="#f5f5ff" stroke="rgb(0,0,0)" style="stroke-width:1">
<rect x="261" y="669" width="193" height="71" />
<line x1="261" y1="690" x2="454" y2="690" />
<line x1="261" y1="693" x2="454" y2="693" />
</g>
<g font-size="10">
<text x="262" y="678">EditOptions</text>
<text x="262" y="687">/oovEdit/</text>
<text x="262" y="702">+setProjectDir(std::string projDir)</text>
<text x="262" y="711">+setScreenCoord(char const tag, int val)</text>
<text x="262" y="720">+saveScreenSize(int width, int height)</text>
<text x="262" y="729">+getScreenCoord(char const tag, int val)</text>
<text x="262" y="738">+getScreenSize(int width, int height)</text>
</g>
<g  fill="#f5f5ff" stroke="rgb(0,0,0)" style="stroke-width:1">
<rect x="27" y="591" width="88" height="26" />
<line x1="27" y1="612" x2="115" y2="612" />
<line x1="27" y1="615" x2="115" y2="615" />
</g>
<g font-size="10">
<text x="28" y="600">GuiTree</text>
<text x="28" y="609">/oovGuiCommon/</text>
</g>
<g  fill="#f5f5ff" stroke="rgb(0,0,0)" style="stroke-width:1">
<rect x="436" y="16" width="140" height="53" />
<line x1="436" y1="37" x2="576" y2="37" />
<line x1="436" y1="40" x2="576" y2="40" />
</g>
<g font-size="10">
<text x="437" y="25">DebuggerListener</text>
<text x="437" y="34">/oovEdit/</text>
<text x="437" y="49">+~DebuggerListener()</text>
<text x="437" y="58">+DebugOutput(char const str)</text>
<text x="437" y="67">+DebugStatusChanged()</text>
</g>
<g  fill="#f5f5ff" stroke="rgb(0,0,0)" style="stroke-width:1">
<rect x="317" y="44" width="88" height="26" />
<line x1="317" y1="65" x2="405" y2="65" />
<line x1="317" y1="68" x2="405" y2="68" />
</g>
<g font-size="10">
<text x="318" y="53">PathChooser</text>
<text x="318" y="62">/oovGuiCommon/</text>
</g>
<g  fill="#f5f5ff" stroke="rgb(0,0,0)" style="stroke-width:1">
<rect x="196" y="42" width="88" height="26" />
<line x1="196" y1="63" x2="284" y2="63" />
<line x1="196" y1="66" x2="284" y2="66" />
</g>
<g font-size="10">
<text x="197" y="51">Dialog</text>
<text x="197" y="60">/oovGuiCommon/</text>
</g>
<g  fill="#f5f5ff" stroke="rgb(0,0,0)" style="stroke-width:1">
<rect x="29" y="714" width="207" height="89" />
<line x1="29" y1="735" x2="236" y2="735" />
<line x1="29" y1="765" x2="236" y2="765" />
</g>
<g font-size="10">
<text x="30" y="723">FindFiles</text>
<text x="30" y="732">/oovEdit/</text>
<text x="30" y="744">-std::string mSrchStr</text>
<text x="30" y="753">-bool mCaseSensitive</text>
<text x="30" y="762">-GtkTextView mView</text>
<text x="30" y="774">+~FindFiles()</text>
<text x="30" y="783">+FindFiles(char srchStr, bool caseSensitive,</text>
<text x="30" y="792">    GtkTextView view)</text>
<text x="30" y="801">-processFile(std::string filePath)</text>
</g>
<g  fill="#f5f5ff" stroke="rgb(0,0,0)" style="stroke-width:1">
<rect x="177" y="619" width="104" height="26" />
<line x1="177" y1="640" x2="281" y2="640" />
<line x1="177" y1="643" x2="281" y2="643" />
</g>
<g font-size="10">
<text x="178" y="628">ComponentTypesFile</text>
<text x="178" y="637">/oovCommon/</text>
</g>
<g  fill="#f5f5ff" stroke="rgb(0,0,0)" style="stroke-width:1">
<rect x="472" y="758" width="71" height="26" />
<line x1="472" y1="779" x2="543" y2="779" />
<line x1="472" y1="782" x2="543" y2="782" />
</g>
<g font-size="10">
<text x="473" y="767">FilePath</text>
<text x="473" y="776">/oovCommon/</text>
</g>
<g  fill="#f5f5ff" stroke="rgb(0,0,0)" style="stroke-width:1">
<line x1="333" y1="528" x2="361" y2="578" />
<polygon points="333,528 333,536 341,543 340,532 333,528 " style="fill:#000000" />
<circle cx="347" cy="554" r="5" style="fill:#000000" />
<circle cx="347" cy="554" r="2" style="fill:#000000" />
<line x1="423" y1="482" x2="468" y2="519" />
<polygon points="423,482 426,490 436,493 431,483 423,482 " style="fill:#000000" />
<circle cx="446" cy="501" r="5" style="fill:#000000" />
<circle cx="446" cy="501" r="2" style="fill:#000000" />
<line x1="423" y1="205" x2="487" y2="171" />
<polygon points="423,205 431,205 438,197 427,198 423,205 " style="fill:#000000" />
<circle cx="449" cy="190" r="5" style="fill:#000000" />
<circle cx="449" cy="190" r="2" style="fill:#000000" />
<line x1="295" y1="528" x2="345" y2="669" />
<polygon points="295,528 294,536 301,544 301,533 295,528 " style="fill:#000000" />
<circle cx="305" cy="556" r="5" style="fill:#000000" />
<circle cx="305" cy="556" r="2" style="fill:#000000" />
<line x1="110" y1="528" x2="77" y2="591" />
<polygon points="110,528 103,532 102,543 110,536 110,528 " style="fill:#000000" />
<circle cx="96" cy="554" r="5" style="fill:#000000" />
<circle cx="96" cy="554" r="2" style="fill:#000000" />
<line x1="423" y1="121" x2="479" y2="68" />
<polygon points="479,68 466,72 474,80 479,68 " style="fill:#ffffff" />
<circle cx="457" cy="88" r="5" style="fill:#ffffff" />
<circle cx="457" cy="88" r="2" style="fill:#ffffff" />
<line x1="338" y1="98" x2="354" y2="70" />
<circle cx="344" cy="85" r="5" style="fill:#ffffff" />
<line x1="236" y1="98" x2="239" y2="68" />
<circle cx="237" cy="84" r="5" style="fill:#ffffff" />
<line x1="178" y1="528" x2="140" y2="714" />
<circle cx="175" cy="541" r="5" style="fill:#ffffff" />
<line x1="226" y1="528" x2="229" y2="619" />
<circle cx="226" cy="541" r="5" style="fill:#ffffff" />
<line x1="354" y1="528" x2="499" y2="758" />
<circle cx="361" cy="539" r="5" style="fill:#ffffff" />
<line x1="392" y1="578" x2="460" y2="543" />
<polygon points="460,543 452,543 444,551 456,550 460,543 " style="fill:#ffffff" />
<circle cx="443" cy="551" r="5" style="fill:#ffffff" />
<circle cx="433" cy="556" r="5" style="fill:#000000" />
<circle cx="433" cy="556" r="2" style="fill:#000000" />
<line x1="323" y1="592" x2="115" y2="603" />
<circle cx="133" cy="601" r="5" style="fill:#ffffff" />
<circle cx="139" cy="601" r="2" style="fill:#ffffff" />
<line x1="483" y1="519" x2="511" y2="171" />
<polygon points="483,519 488,512 484,502 480,511 483,519 " style="fill:#ffffff" />
<circle cx="484" cy="500" r="5" style="fill:#ffffff" />
<circle cx="485" cy="489" r="5" style="fill:#000000" />
<circle cx="485" cy="489" r="2" style="fill:#000000" />
<line x1="474" y1="545" x2="382" y2="669" />
<polygon points="474,545 466,548 464,559 473,553 474,545 " style="fill:#ffffff" />
<circle cx="462" cy="560" r="5" style="fill:#ffffff" />
<circle cx="456" cy="569" r="5" style="fill:#000000" />
<circle cx="456" cy="569" r="2" style="fill:#000000" />
<line x1="484" y1="545" x2="506" y2="758" />
<circle cx="485" cy="558" r="5" style="fill:#ffffff" />
<line x1="511" y1="145" x2="507" y2="68" />
<polygon points="511,145 515,137 511,128 507,138 511,145 " style="fill:#ffffff" />
<circle cx="510" cy="126" r="5" style="fill:#ffffff" />
<circle cx="509" cy="115" r="5" style="fill:#000000" />
<circle cx="509" cy="115" r="2" style="fill:#000000" />
<line x1="435" y1="739" x2="478" y2="758" />
<circle cx="447" cy="744" r="5" style="fill:#ffffff" />
<line x1="235" y1="761" x2="472" y2="770" />
<circle cx="248" cy="761" r="5" style="fill:#ffffff" />
<line x1="255" y1="645" x2="481" y2="758" />
<circle cx="267" cy="651" r="5" style="fill:#ffffff" />
</g>
</svg>