<svg xmlns="http://www.w3.org/2000/svg" version="1.1" width="651" height="856">
<g  fill="#f5f5ff" stroke="rgb(0,0,0)" style="stroke-width:1">
<rect x="386" y="788" width="189" height="17" />
<line x1="386" y1="800" x2="575" y2="800" />
<line x1="386" y1="803" x2="575" y2="803" />
</g>
<g font-size="10">
<text x="387" y="797">std::queue&lt;Debugger::eChangeStatus&gt;</text>
</g>
<g  fill="#f5f5ff" stroke="rgb(0,0,0)" style="stroke-width:1">
<rect x="443" y="525" width="47" height="26" />
<line x1="443" y1="546" x2="490" y2="546" />
<line x1="443" y1="549" x2="490" y2="549" />
</g>
<g font-size="10">
<text x="444" y="534">EditFiles</text>
<text x="444" y="543">/oovEdit/</text>
</g>
<g  fill="#f5f5ff" stroke="rgb(0,0,0)" style="stroke-width:1">
<rect x="506" y="610" width="47" height="26" />
<line x1="506" y1="631" x2="553" y2="631" />
<line x1="506" y1="634" x2="553" y2="634" />
</g>
<g font-size="10">
<text x="507" y="619">Editor</text>
<text x="507" y="628">/oovEdit/</text>
</g>
<g  fill="#f5f5ff" stroke="rgb(0,0,0)" style="stroke-width:1">
<rect x="25" y="115" width="302" height="494" />
<line x1="25" y1="136" x2="327" y2="136" />
<line x1="25" y1="274" x2="327" y2="274" />
</g>
<g font-size="10">
<text x="26" y="124">Debugger</text>
<text x="26" y="133">/oovEdit/</text>
<text x="26" y="145">-std::string mDebuggerFilePath</text>
<text x="26" y="154">-std::string mDebuggeeFilePath</text>
<text x="26" y="163">-std::string mDebuggeeArgs</text>
<text x="26" y="172">-std::string mWorkingDir</text>
<text x="26" y="181">-DebuggerBreakpoints mBreakpoints</text>
<text x="26" y="190">-OovBackgroundPipeProcess mBkgPipeProc</text>
<text x="26" y="199">-DebuggerListener mDebuggerListener</text>
<text x="26" y="208">-int mCommandIndex</text>
<text x="26" y="217">-std::string mGdbOutputBuffer</text>
<text x="26" y="226">-std::string mStack</text>
<text x="26" y="235">-std::string mVarValue</text>
<text x="26" y="244">-GdbChildStates mGdbChildState</text>
<text x="26" y="253">-InProcMutex mStatusLock</text>
<text x="26" y="262">-std::queue&lt;Debugger::eChangeStatus&gt; mChangeStatusQueue</text>
<text x="26" y="271">-DebuggerLocation mStoppedLocation</text>
<text x="26" y="283">+Debugger()</text>
<text x="26" y="292">+setListener(DebuggerListener listener)</text>
<text x="26" y="301">+setDebuggerFilePath(char const dbgPath)</text>
<text x="26" y="310">+setDebuggee(char const debuggee)</text>
<text x="26" y="319">+setDebuggeeArgs(char const args)</text>
<text x="26" y="328">+setWorkingDir(char const dir)</text>
<text x="26" y="337">+toggleBreakpoint(DebuggerBreakpoint br)</text>
<text x="26" y="346">+stepInto()</text>
<text x="26" y="355">+stepOver()</text>
<text x="26" y="364">+resume()</text>
<text x="26" y="373">+interrupt()</text>
<text x="26" y="382">+stop()</text>
<text x="26" y="391">+sendCommand(char const command)</text>
<text x="26" y="400">+startGetVariable(char const variable)</text>
<text x="26" y="409">+startGetStack()</text>
<text x="26" y="418">+startGetMemory(char const addr)</text>
<text x="26" y="427">+getDebuggerFilePath()</text>
<text x="26" y="436">+getDebuggeeFilePath()</text>
<text x="26" y="445">+getBreakpoints()</text>
<text x="26" y="454">+getChangeStatus()</text>
<text x="26" y="463">+getChildState()</text>
<text x="26" y="472">+getStack()</text>
<text x="26" y="481">+getVarValue()</text>
<text x="26" y="490">+getStoppedLocation()</text>
<text x="26" y="499">-runDebuggerProcess()</text>
<text x="26" y="508">-ensureGdbChildRunning()</text>
<text x="26" y="517">-sendAddBreakpoint(DebuggerBreakpoint br)</text>
<text x="26" y="526">-sendDeleteBreakpoint(DebuggerBreakpoint br)</text>
<text x="26" y="535">-sendMiCommand(char const command)</text>
<text x="26" y="544">-changeChildState(GdbChildStates state)</text>
<text x="26" y="553">-updateChangeStatus(Debugger::eChangeStatus )</text>
<text x="26" y="562">-handleResult(std::string resultStr)</text>
<text x="26" y="571">-handleBreakpoint(std::string resultStr)</text>
<text x="26" y="580">-handleStack(std::string resultStr)</text>
<text x="26" y="589">-handleValue(std::string resultStr)</text>
<text x="26" y="598">-onStdOut(char const out, int len)</text>
<text x="26" y="607">-onStdErr(char const out, int len)</text>
</g>
<g  fill="#f5f5ff" stroke="rgb(0,0,0)" style="stroke-width:1">
<rect x="390" y="190" width="254" height="44" />
<line x1="390" y1="211" x2="644" y2="211" />
<line x1="390" y1="214" x2="644" y2="214" />
</g>
<g font-size="10">
<text x="391" y="199">DebuggerBreakpoints</text>
<text x="391" y="208">/oovEdit/</text>
<text x="391" y="223">+anyLocationsMatch(DebuggerLocation loc)</text>
<text x="391" y="232">+setBreakpointNumber(DebuggerLocation loc, int bn)</text>
</g>
<g  fill="#f5f5ff" stroke="rgb(0,0,0)" style="stroke-width:1">
<rect x="367" y="21" width="276" height="116" />
<line x1="367" y1="42" x2="643" y2="42" />
<line x1="367" y1="81" x2="643" y2="81" />
</g>
<g font-size="10">
<text x="368" y="30">OovBackgroundPipeProcess</text>
<text x="368" y="39">/oovCommon/</text>
<text x="368" y="51">-OovProcessListener mListener</text>
<text x="368" y="60">-GThread mThread</text>
<text x="368" y="69">-ThreadStates mThreadState</text>
<text x="368" y="78">-int mChildProcessExitCode</text>
<text x="368" y="90">+OovBackgroundPipeProcess(OovProcessListener listener)</text>
<text x="368" y="99">+~OovBackgroundPipeProcess()</text>
<text x="368" y="108">+startProcess(char const procPath, char argv)</text>
<text x="368" y="117">+isIdle()</text>
<text x="368" y="126">+stopProcess()</text>
<text x="368" y="135">+privateBackground()</text>
</g>
<g  fill="#f5f5ff" stroke="rgb(0,0,0)" style="stroke-width:1">
<rect x="456" y="668" width="140" height="53" />
<line x1="456" y1="689" x2="596" y2="689" />
<line x1="456" y1="692" x2="596" y2="692" />
</g>
<g font-size="10">
<text x="457" y="677">DebuggerListener</text>
<text x="457" y="686">/oovEdit/</text>
<text x="457" y="701">+~DebuggerListener()</text>
<text x="457" y="710">+DebugOutput(char const str)</text>
<text x="457" y="719">+DebugStatusChanged()</text>
</g>
<g  fill="#f5f5ff" stroke="rgb(0,0,0)" style="stroke-width:1">
<rect x="295" y="757" width="71" height="26" />
<line x1="295" y1="778" x2="366" y2="778" />
<line x1="295" y1="781" x2="366" y2="781" />
</g>
<g font-size="10">
<text x="296" y="766">InProcMutex</text>
<text x="296" y="775">/oovCommon/</text>
</g>
<g  fill="#f5f5ff" stroke="rgb(0,0,0)" style="stroke-width:1">
<rect x="448" y="337" width="202" height="125" />
<line x1="448" y1="358" x2="650" y2="358" />
<line x1="448" y1="379" x2="650" y2="379" />
</g>
<g font-size="10">
<text x="449" y="346">DebuggerLocation</text>
<text x="449" y="355">/oovEdit/</text>
<text x="449" y="367">-OovString mFileName</text>
<text x="449" y="376">-int mLineNum</text>
<text x="449" y="388">+DebuggerLocation(char const fn, int line)</text>
<text x="449" y="397">+clear()</text>
<text x="449" y="406">+isEmpty()</text>
<text x="449" y="415">+operator==(DebuggerLocation rhs)</text>
<text x="449" y="424">+setFileLine(char const fn, int line)</text>
<text x="449" y="433">+setLine(int line)</text>
<text x="449" y="442">+getLine()</text>
<text x="449" y="451">+getFilename()</text>
<text x="449" y="460">+getAsString()</text>
</g>
<g  fill="#f5f5ff" stroke="rgb(0,0,0)" style="stroke-width:1">
<rect x="153" y="13" width="163" height="62" />
<line x1="153" y1="34" x2="316" y2="34" />
<line x1="153" y1="37" x2="316" y2="37" />
</g>
<g font-size="10">
<text x="154" y="22">OovProcessListener</text>
<text x="154" y="31">/oovCommon/</text>
<text x="154" y="46">+~OovProcessListener()</text>
<text x="154" y="55">+onStdOut(char const out, int len)</text>
<text x="154" y="64">+onStdErr(char const out, int len)</text>
<text x="154" y="73">+processComplete()</text>
</g>
<g  fill="#f5f5ff" stroke="rgb(0,0,0)" style="stroke-width:1">
<rect x="501" y="512" width="130" height="53" />
<line x1="501" y1="533" x2="631" y2="533" />
<line x1="501" y1="545" x2="631" y2="545" />
</g>
<g font-size="10">
<text x="502" y="521">DebuggerBreakpoint</text>
<text x="502" y="530">/oovEdit/</text>
<text x="502" y="542">+int mBreakpointNumber</text>
<text x="502" y="554">+DebuggerBreakpoint(char</text>
<text x="502" y="563">    const fn, int line)</text>
</g>
<g  fill="#f5f5ff" stroke="rgb(0,0,0)" style="stroke-width:1">
<rect x="360" y="287" width="71" height="26" />
<line x1="360" y1="308" x2="431" y2="308" />
<line x1="360" y1="311" x2="431" y2="311" />
</g>
<g font-size="10">
<text x="361" y="296">OovString</text>
<text x="361" y="305">/oovCommon/</text>
</g>
<g  fill="#f5f5ff" stroke="rgb(0,0,0)" style="stroke-width:1">
<rect x="205" y="662" width="71" height="26" />
<line x1="205" y1="683" x2="276" y2="683" />
<line x1="205" y1="686" x2="276" y2="686" />
</g>
<g font-size="10">
<text x="206" y="671">LockGuard</text>
<text x="206" y="680">/oovCommon/</text>
</g>
<g  fill="#f5f5ff" stroke="rgb(0,0,0)" style="stroke-width:1">
<rect x="24" y="637" width="103" height="26" />
<line x1="24" y1="658" x2="127" y2="658" />
<line x1="24" y1="661" x2="127" y2="661" />
</g>
<g font-size="10">
<text x="25" y="646">OovProcessChildArgs</text>
<text x="25" y="655">/oovCommon/</text>
</g>
<g  fill="#f5f5ff" stroke="rgb(0,0,0)" style="stroke-width:1">
<rect x="39" y="721" width="204" height="134" />
<line x1="39" y1="742" x2="243" y2="742" />
<line x1="39" y1="772" x2="243" y2="772" />
</g>
<g font-size="10">
<text x="40" y="730">cDebugResult</text>
<text x="40" y="739">/oovEdit/</text>
<text x="40" y="751">-std::string mVarName</text>
<text x="40" y="760">-std::string mConst</text>
<text x="40" y="769">-std::deque&lt;cDebugResult&gt; mChildResults</text>
<text x="40" y="781">+~cDebugResult()</text>
<text x="40" y="790">+setVarName(char str, int len)</text>
<text x="40" y="799">+parseResult(char resultStr)</text>
<text x="40" y="808">+getAsString(int level)</text>
<text x="40" y="817">-parseVarName(char resultStr)</text>
<text x="40" y="826">-parseValue(char resultStr)</text>
<text x="40" y="835">-parseList(char resultStr)</text>
<text x="40" y="844">-parseConst(char resultStr)</text>
<text x="40" y="853">-addResult()</text>
</g>
<g  fill="#f5f5ff" stroke="rgb(0,0,0)" style="stroke-width:1">
<line x1="475" y1="788" x2="327" y2="577" />
<polygon points="327,577 327,585 337,591 335,580 327,577 " style="fill:#000000" />
<circle cx="344" cy="601" r="5" style="fill:#000000" />
<circle cx="344" cy="601" r="2" style="fill:#000000" />
<line x1="475" y1="551" x2="520" y2="610" />
<polygon points="520,610 519,602 510,596 512,607 520,610 " style="fill:#000000" />
<circle cx="501" cy="586" r="5" style="fill:#000000" />
<circle cx="501" cy="586" r="2" style="fill:#000000" />
<line x1="445" y1="525" x2="327" y2="453" />
<polygon points="445,525 441,518 430,516 437,525 445,525 " style="fill:#ffffff" />
<circle cx="428" cy="515" r="5" style="fill:#ffffff" />
<circle cx="419" cy="509" r="5" style="fill:#000000" />
<circle cx="419" cy="509" r="2" style="fill:#000000" />
<line x1="473" y1="525" x2="512" y2="461" />
<circle cx="480" cy="513" r="5" style="fill:#ffffff" />
<line x1="512" y1="610" x2="327" y2="473" />
<polygon points="512,610 509,602 498,600 504,609 512,610 " style="fill:#000000" />
<circle cx="487" cy="592" r="5" style="fill:#000000" />
<circle cx="487" cy="592" r="2" style="fill:#000000" />
<line x1="529" y1="636" x2="527" y2="668" />
<polygon points="527,668 533,656 523,655 527,668 " style="fill:#ffffff" />
<circle cx="528" cy="638" r="5" style="fill:#ffffff" />
<circle cx="528" cy="638" r="2" style="fill:#ffffff" />
<line x1="327" y1="296" x2="467" y2="234" />
<polygon points="327,296 335,296 343,289 332,289 327,296 " style="fill:#000000" />
<circle cx="354" cy="283" r="5" style="fill:#000000" />
<circle cx="354" cy="283" r="2" style="fill:#000000" />
<line x1="327" y1="233" x2="438" y2="137" />
<polygon points="327,233 335,232 340,222 329,225 327,233 " style="fill:#000000" />
<circle cx="349" cy="213" r="5" style="fill:#000000" />
<circle cx="349" cy="213" r="2" style="fill:#000000" />
<line x1="327" y1="505" x2="499" y2="668" />
<polygon points="327,505 329,513 340,517 335,507 327,505 " style="fill:#ffffff" />
<circle cx="340" cy="518" r="5" style="fill:#ffffff" />
<circle cx="348" cy="525" r="5" style="fill:#000000" />
<circle cx="348" cy="525" r="2" style="fill:#000000" />
<line x1="269" y1="609" x2="326" y2="757" />
<polygon points="269,609 268,617 275,625 276,614 269,609 " style="fill:#000000" />
<circle cx="279" cy="636" r="5" style="fill:#000000" />
<circle cx="279" cy="636" r="2" style="fill:#000000" />
<line x1="327" y1="376" x2="448" y2="389" />
<polygon points="327,376 334,381 344,377 335,373 327,376 " style="fill:#000000" />
<circle cx="345" cy="378" r="5" style="fill:#ffffff" />
<circle cx="356" cy="379" r="5" style="fill:#000000" />
<circle cx="356" cy="379" r="2" style="fill:#000000" />
<line x1="221" y1="115" x2="229" y2="75" />
<polygon points="229,75 222,86 231,88 229,75 " style="fill:#ffffff" />
<circle cx="223" cy="104" r="5" style="fill:#ffffff" />
<circle cx="223" cy="104" r="2" style="fill:#ffffff" />
<line x1="327" y1="430" x2="509" y2="512" />
<polygon points="331,432 336,441 335,433 341,430 331,432 " style="fill:#ffffff" />
<circle cx="344" cy="437" r="5" style="fill:#ffffff" />
<circle cx="349" cy="440" r="2" style="fill:#ffffff" />
<line x1="327" y1="320" x2="360" y2="309" />
<circle cx="340" cy="315" r="5" style="fill:#ffffff" />
<line x1="226" y1="609" x2="238" y2="662" />
<circle cx="229" cy="622" r="5" style="fill:#ffffff" />
<line x1="90" y1="609" x2="79" y2="637" />
<circle cx="84" cy="622" r="5" style="fill:#ffffff" />
<line x1="156" y1="609" x2="146" y2="721" />
<circle cx="154" cy="622" r="5" style="fill:#ffffff" />
<line x1="520" y1="234" x2="539" y2="337" />
<polygon points="520,238 517,248 521,242 528,246 520,238 " style="fill:#ffffff" />
<circle cx="523" cy="252" r="5" style="fill:#ffffff" />
<circle cx="524" cy="258" r="2" style="fill:#ffffff" />
<line x1="367" y1="62" x2="315" y2="54" />
<polygon points="367,62 360,57 350,60 359,65 367,62 " style="fill:#ffffff" />
<circle cx="348" cy="59" r="5" style="fill:#ffffff" />
<circle cx="337" cy="57" r="5" style="fill:#000000" />
<circle cx="337" cy="57" r="2" style="fill:#000000" />
<line x1="318" y1="757" x2="252" y2="688" />
<polygon points="252,688 254,696 264,701 260,690 252,688 " style="fill:#ffffff" />
<circle cx="265" cy="701" r="5" style="fill:#ffffff" />
<circle cx="272" cy="709" r="5" style="fill:#000000" />
<circle cx="272" cy="709" r="2" style="fill:#000000" />
<line x1="556" y1="461" x2="563" y2="512" />
<polygon points="556,461 553,474 563,473 556,461 " style="fill:#ffffff" />
<circle cx="560" cy="490" r="5" style="fill:#ffffff" />
<circle cx="560" cy="490" r="2" style="fill:#ffffff" />
<line x1="453" y1="337" x2="415" y2="313" />
<polygon points="453,337 449,330 438,328 445,337 453,337 " style="fill:#000000" />
<circle cx="436" cy="326" r="5" style="fill:#ffffff" />
<circle cx="427" cy="320" r="5" style="fill:#000000" />
<circle cx="427" cy="320" r="2" style="fill:#000000" />
</g>
</svg>