<svg xmlns="http://www.w3.org/2000/svg" version="1.1" width="672" height="946">
<g  fill="#f5f5ff" stroke="rgb(0,0,0)" style="stroke-width:1">
<rect x="624" y="136" width="47" height="26" />
<line x1="624" y1="157" x2="671" y2="157" />
<line x1="624" y1="160" x2="671" y2="160" />
</g>
<g font-size="10">
<text x="625" y="145">Editor</text>
<text x="625" y="154">/oovEdit/</text>
</g>
<g  fill="#f5f5ff" stroke="rgb(0,0,0)" style="stroke-width:1">
<rect x="21" y="40" width="370" height="269" />
<line x1="21" y1="61" x2="391" y2="61" />
<line x1="21" y1="136" x2="391" y2="136" />
</g>
<g font-size="10">
<text x="22" y="49">EditFiles</text>
<text x="22" y="58">/oovEdit/</text>
<text x="22" y="70">-EditOptions mEditOptions</text>
<text x="22" y="79">-GtkNotebook mHeaderBook</text>
<text x="22" y="88">-GtkNotebook mSourceBook</text>
<text x="22" y="97">-Builder mBuilder</text>
<text x="22" y="106">-std::vector&lt;ScrolledFileView&gt; mFileViews</text>
<text x="22" y="115">-size_t mFocusEditViewIndex</text>
<text x="22" y="124">-Debugger mDebugger</text>
<text x="22" y="133">-timeval mLastHightlightIdleUpdate</text>
<text x="22" y="145">+EditFiles(Debugger debugger, EditOptions editOptions)</text>
<text x="22" y="154">+init(Builder builder)</text>
<text x="22" y="163">+onIdle()</text>
<text x="22" y="172">+updateDebugMenu()</text>
<text x="22" y="181">+viewModule(char const fn, int lineNum)</text>
<text x="22" y="190">+gotoLine(int lineNum)</text>
<text x="22" y="199">+checkExitSave()</text>
<text x="22" y="208">+getEditView()</text>
<text x="22" y="217">+setFocusEditTextView(GtkTextView editTextView)</text>
<text x="22" y="226">+handleKeyPress(GdkEvent event)</text>
<text x="22" y="235">+drawLeftMargin(GtkWidget widget, cairo_t cr, int width, int pixPerChar)</text>
<text x="22" y="244">+drawRightMargin(GtkWidget widget, cairo_t cr, int leftMargin, int pixPerChar)</text>
<text x="22" y="253">+getDebugger()</text>
<text x="22" y="262">+removeNotebookPage(GtkWidget pageWidget)</text>
<text x="22" y="271">+checkDebugger()</text>
<text x="22" y="280">-viewFile(char const fn, bool useMainView, int lineNum)</text>
<text x="22" y="289">-idleHighlight()</text>
<text x="22" y="298">-getPageNumber(GtkNotebook notebook, GtkTextView view)</text>
<text x="22" y="307">-getScrolledFileView()</text>
</g>
<g  fill="#f5f5ff" stroke="rgb(0,0,0)" style="stroke-width:1">
<rect x="382" y="366" width="193" height="71" />
<line x1="382" y1="387" x2="575" y2="387" />
<line x1="382" y1="390" x2="575" y2="390" />
</g>
<g font-size="10">
<text x="383" y="375">EditOptions</text>
<text x="383" y="384">/oovEdit/</text>
<text x="383" y="399">+setProjectDir(std::string projDir)</text>
<text x="383" y="408">+setScreenCoord(char const tag, int val)</text>
<text x="383" y="417">+saveScreenSize(int width, int height)</text>
<text x="383" y="426">+getScreenCoord(char const tag, int val)</text>
<text x="383" y="435">+getScreenSize(int width, int height)</text>
</g>
<g  fill="#f5f5ff" stroke="rgb(0,0,0)" style="stroke-width:1">
<rect x="539" y="50" width="88" height="26" />
<line x1="539" y1="71" x2="627" y2="71" />
<line x1="539" y1="74" x2="627" y2="74" />
</g>
<g font-size="10">
<text x="540" y="59">Builder</text>
<text x="540" y="68">/oovGuiCommon/</text>
</g>
<g  fill="#f5f5ff" stroke="rgb(0,0,0)" style="stroke-width:1">
<rect x="211" y="372" width="143" height="17" />
<line x1="211" y1="384" x2="354" y2="384" />
<line x1="211" y1="387" x2="354" y2="387" />
</g>
<g font-size="10">
<text x="212" y="381">std::vector&lt;ScrolledFileView&gt;</text>
</g>
<g  fill="#f5f5ff" stroke="rgb(0,0,0)" style="stroke-width:1">
<rect x="458" y="254" width="50" height="26" />
<line x1="458" y1="275" x2="508" y2="275" />
<line x1="458" y1="278" x2="508" y2="278" />
</g>
<g font-size="10">
<text x="459" y="263">Debugger</text>
<text x="459" y="272">/oovEdit/</text>
</g>
<g  fill="#f5f5ff" stroke="rgb(0,0,0)" style="stroke-width:1">
<rect x="469" y="117" width="39" height="17" />
<line x1="469" y1="129" x2="508" y2="129" />
<line x1="469" y1="132" x2="508" y2="132" />
</g>
<g font-size="10">
<text x="470" y="126">timeval</text>
</g>
<g  fill="#f5f5ff" stroke="rgb(0,0,0)" style="stroke-width:1">
<rect x="440" y="175" width="90" height="26" />
<line x1="440" y1="196" x2="530" y2="196" />
<line x1="440" y1="199" x2="530" y2="199" />
</g>
<g font-size="10">
<text x="441" y="184">DebuggerLocation</text>
<text x="441" y="193">/oovEdit/</text>
</g>
<g  fill="#f5f5ff" stroke="rgb(0,0,0)" style="stroke-width:1">
<rect x="434" y="297" width="77" height="26" />
<line x1="434" y1="318" x2="511" y2="318" />
<line x1="434" y1="321" x2="511" y2="321" />
</g>
<g font-size="10">
<text x="435" y="306">NameValueFile</text>
<text x="435" y="315">/oovCommon/</text>
</g>
<g  fill="#f5f5ff" stroke="rgb(0,0,0)" style="stroke-width:1">
<rect x="24" y="345" width="152" height="116" />
<line x1="24" y1="366" x2="176" y2="366" />
<line x1="24" y1="405" x2="176" y2="405" />
</g>
<g font-size="10">
<text x="25" y="354">ScrolledFileView</text>
<text x="25" y="363">/oovEdit/</text>
<text x="25" y="375">+FilePath mFilename</text>
<text x="25" y="384">+GtkScrolledWindow mScrolled</text>
<text x="25" y="393">+FileEditView mFileView</text>
<text x="25" y="402">+int mDesiredLine</text>
<text x="25" y="414">+ScrolledFileView()</text>
<text x="25" y="423">+getBook()</text>
<text x="25" y="432">+getTextView()</text>
<text x="25" y="441">+getViewTopParent()</text>
<text x="25" y="450">+getFileEditView()</text>
<text x="25" y="459">+getFilename()</text>
</g>
<g  fill="#f5f5ff" stroke="rgb(0,0,0)" style="stroke-width:1">
<rect x="26" y="508" width="298" height="404" />
<line x1="26" y1="529" x2="324" y2="529" />
<line x1="26" y1="613" x2="324" y2="613" />
</g>
<g font-size="10">
<text x="27" y="517">FileEditView</text>
<text x="27" y="526">/oovEdit/</text>
<text x="27" y="538">-std::string mFileName</text>
<text x="27" y="547">-GtkTextView mTextView</text>
<text x="27" y="556">-GtkTextBuffer mTextBuffer</text>
<text x="27" y="565">-std::vector&lt;HistoryItem&gt; mHistoryItems</text>
<text x="27" y="574">-size_t mCurHistoryPos</text>
<text x="27" y="583">-bool mDoingHistory</text>
<text x="27" y="592">-HightlightStates mNeedHighlightUpdate</text>
<text x="27" y="601">-Highlighter mHighlighter</text>
<text x="27" y="610">-Indenter mIndenter</text>
<text x="27" y="622">+FileEditView()</text>
<text x="27" y="631">+init(GtkTextView textView)</text>
<text x="27" y="640">+openTextFile(char const fn)</text>
<text x="27" y="649">+saveTextFile()</text>
<text x="27" y="658">+saveAsTextFileWithDialog()</text>
<text x="27" y="667">+checkExitSave()</text>
<text x="27" y="676">+find(char const findStr, bool forward, bool caseSensitive)</text>
<text x="27" y="685">+cut()</text>
<text x="27" y="694">+copy()</text>
<text x="27" y="703">+paste()</text>
<text x="27" y="712">+deleteSel()</text>
<text x="27" y="721">+undo()</text>
<text x="27" y="730">+redo()</text>
<text x="27" y="739">+addHistoryItem(HistoryItem item)</text>
<text x="27" y="748">+doingHistory()</text>
<text x="27" y="757">+getTextView()</text>
<text x="27" y="766">+getWindow()</text>
<text x="27" y="775">+drawHighlight()</text>
<text x="27" y="784">+idleHighlight()</text>
<text x="27" y="793">+gotoLine(int lineNum)</text>
<text x="27" y="802">+bufferInsertText(GtkTextBuffer textbuffer, GtkTextIter location,</text>
<text x="27" y="811">    gchar text, gint len)</text>
<text x="27" y="820">+bufferDeleteRange(GtkTextBuffer textbuffer, GtkTextIter start,</text>
<text x="27" y="829">    GtkTextIter end)</text>
<text x="27" y="838">+handleIndentKeys(GdkEvent event)</text>
<text x="27" y="847">+getFilename()</text>
<text x="27" y="856">-setFileName(char const fn)</text>
<text x="27" y="865">-saveAsTextFile(char const fn)</text>
<text x="27" y="874">-highlight()</text>
<text x="27" y="883">-setNeedHighlightUpdate(HightlightStates hs)</text>
<text x="27" y="892">-getHighlightUpdate()</text>
<text x="27" y="901">-moveToIter(GtkTextIter startIter, GtkTextIter endIter)</text>
<text x="27" y="910">-getBuffer()</text>
</g>
<g  fill="#f5f5ff" stroke="rgb(0,0,0)" style="stroke-width:1">
<rect x="445" y="840" width="115" height="17" />
<line x1="445" y1="852" x2="560" y2="852" />
<line x1="445" y1="855" x2="560" y2="855" />
</g>
<g font-size="10">
<text x="446" y="849">std::vector&lt;HistoryItem&gt;</text>
</g>
<g  fill="#f5f5ff" stroke="rgb(0,0,0)" style="stroke-width:1">
<rect x="355" y="874" width="309" height="71" />
<line x1="355" y1="895" x2="664" y2="895" />
<line x1="355" y1="916" x2="664" y2="916" />
</g>
<g font-size="10">
<text x="356" y="883">Highlighter</text>
<text x="356" y="892">/oovEdit/</text>
<text x="356" y="904">-Tokenizer mTokenizer</text>
<text x="356" y="913">-HighlightTags mHighlightTags</text>
<text x="356" y="925">+highlight(GtkTextView textView, char const filename, char const</text>
<text x="356" y="934">    buffer, int bufLen, char const clang_args, int num_clang_args)</text>
<text x="356" y="943">+applyTags(GtkTextBuffer textBuffer, TokenRange tokens)</text>
</g>
<g  fill="#f5f5ff" stroke="rgb(0,0,0)" style="stroke-width:1">
<rect x="408" y="519" width="255" height="170" />
<line x1="408" y1="540" x2="663" y2="540" />
<line x1="408" y1="552" x2="663" y2="552" />
</g>
<g font-size="10">
<text x="409" y="528">Indenter</text>
<text x="409" y="537">/oovEdit/</text>
<text x="409" y="549">-GtkTextBuffer mTextBuffer</text>
<text x="409" y="561">+init(GtkTextBuffer textBuffer)</text>
<text x="409" y="570">+tabPressed()</text>
<text x="409" y="579">+shiftTabPressed()</text>
<text x="409" y="588">+backspacePressed()</text>
<text x="409" y="597">+homePressed()</text>
<text x="409" y="606">-getIndentSize()</text>
<text x="409" y="615">-dentHighlightedRegion(bool in, GtkTextIter</text>
<text x="409" y="624">    startSelIter, GtkTextIter endSelIter)</text>
<text x="409" y="633">-getFirstNonSpaceOnLineIter(GtkTextIter startLineIter,</text>
<text x="409" y="642">    GtkTextIter iter)</text>
<text x="409" y="651">-countSpaces(char const text, bool expan</text>
<text x="409" y="660">   dTabs)</text>
<text x="409" y="669">-getCursorIter(GtkTextIter iter)</text>
<text x="409" y="678">-getLineNumber(GtkTextIter iter)</text>
<text x="409" y="687">-addSpaces(int count)</text>
</g>
<g  fill="#f5f5ff" stroke="rgb(0,0,0)" style="stroke-width:1">
<rect x="390" y="706" width="273" height="107" />
<line x1="390" y1="727" x2="663" y2="727" />
<line x1="390" y1="757" x2="663" y2="757" />
</g>
<g font-size="10">
<text x="391" y="715">HistoryItem</text>
<text x="391" y="724">/oovEdit/</text>
<text x="391" y="736">#bool mInsert</text>
<text x="391" y="745">#gint mOffset</text>
<text x="391" y="754">#std::string mText</text>
<text x="391" y="766">+HistoryItem(bool insert, int offset, char const text, int len)</text>
<text x="391" y="775">+undo(GtkTextBuffer buffer)</text>
<text x="391" y="784">+redo(GtkTextBuffer buffer)</text>
<text x="391" y="793">+setText(bool set, GtkTextBuffer buffer)</text>
<text x="391" y="802">+getOffset(GtkTextIter iter)</text>
<text x="391" y="811">+getIter(GtkTextBuffer buffer, int offset, GtkTextIter iter)</text>
</g>
<g  fill="#f5f5ff" stroke="rgb(0,0,0)" style="stroke-width:1">
<rect x="534" y="462" width="88" height="26" />
<line x1="534" y1="483" x2="622" y2="483" />
<line x1="534" y1="486" x2="622" y2="486" />
</g>
<g font-size="10">
<text x="535" y="471">PathChooser</text>
<text x="535" y="480">/oovGuiCommon/</text>
</g>
<g  fill="#f5f5ff" stroke="rgb(0,0,0)" style="stroke-width:1">
<rect x="233" y="417" width="95" height="35" />
<line x1="233" y1="438" x2="328" y2="438" />
<line x1="233" y1="441" x2="328" y2="441" />
</g>
<g font-size="10">
<text x="234" y="426">GuiText</text>
<text x="234" y="435">/oovGuiCommon/</text>
<text x="234" y="450">+GuiText(void text)</text>
</g>
<g  fill="#f5f5ff" stroke="rgb(0,0,0)" style="stroke-width:1">
<line x1="624" y1="150" x2="391" y2="164" />
<polygon points="624,150 616,146 607,151 617,154 624,150 " style="fill:#000000" />
<circle cx="594" cy="151" r="5" style="fill:#000000" />
<circle cx="594" cy="151" r="2" style="fill:#000000" />
<line x1="639" y1="162" x2="501" y2="366" />
<polygon points="639,162 631,165 629,176 639,170 639,162 " style="fill:#000000" />
<circle cx="622" cy="186" r="5" style="fill:#000000" />
<circle cx="622" cy="186" r="2" style="fill:#000000" />
<line x1="638" y1="136" x2="592" y2="76" />
<polygon points="638,136 637,128 628,122 630,133 638,136 " style="fill:#000000" />
<circle cx="619" cy="112" r="5" style="fill:#000000" />
<circle cx="619" cy="112" r="2" style="fill:#000000" />
<line x1="629" y1="162" x2="501" y2="254" />
<polygon points="629,162 621,162 615,172 626,170 629,162 " style="fill:#000000" />
<circle cx="604" cy="179" r="5" style="fill:#000000" />
<circle cx="604" cy="179" r="2" style="fill:#000000" />
<line x1="645" y1="162" x2="580" y2="462" />
<circle cx="642" cy="175" r="5" style="fill:#ffffff" />
<line x1="366" y1="308" x2="437" y2="366" />
<polygon points="366,308 369,316 379,319 374,309 366,308 " style="fill:#ffffff" />
<circle cx="380" cy="320" r="5" style="fill:#ffffff" />
<circle cx="389" cy="326" r="5" style="fill:#000000" />
<circle cx="389" cy="326" r="2" style="fill:#000000" />
<line x1="391" y1="120" x2="539" y2="75" />
<polygon points="391,120 399,122 408,115 397,114 391,120 " style="fill:#ffffff" />
<circle cx="409" cy="114" r="5" style="fill:#ffffff" />
<circle cx="419" cy="111" r="5" style="fill:#000000" />
<circle cx="419" cy="111" r="2" style="fill:#000000" />
<line x1="255" y1="308" x2="280" y2="372" />
<polygon points="255,308 254,316 261,324 262,313 255,308 " style="fill:#000000" />
<circle cx="265" cy="335" r="5" style="fill:#000000" />
<circle cx="265" cy="335" r="2" style="fill:#000000" />
<line x1="391" y1="236" x2="458" y2="259" />
<polygon points="391,236 396,242 408,241 399,235 391,236 " style="fill:#ffffff" />
<circle cx="408" cy="242" r="5" style="fill:#ffffff" />
<circle cx="419" cy="245" r="5" style="fill:#000000" />
<circle cx="419" cy="245" r="2" style="fill:#000000" />
<line x1="391" y1="142" x2="469" y2="128" />
<polygon points="391,142 399,145 408,139 397,137 391,142 " style="fill:#000000" />
<circle cx="409" cy="138" r="5" style="fill:#ffffff" />
<circle cx="420" cy="136" r="5" style="fill:#000000" />
<circle cx="420" cy="136" r="2" style="fill:#000000" />
<line x1="391" y1="183" x2="440" y2="186" />
<circle cx="404" cy="183" r="5" style="fill:#ffffff" />
<line x1="391" y1="268" x2="447" y2="297" />
<circle cx="403" cy="274" r="5" style="fill:#ffffff" />
<line x1="144" y1="308" x2="126" y2="345" />
<circle cx="137" cy="320" r="5" style="fill:#ffffff" />
<line x1="476" y1="366" x2="472" y2="323" />
<polygon points="472,323 468,336 478,335 472,323 " style="fill:#ffffff" />
<circle cx="474" cy="352" r="5" style="fill:#ffffff" />
<circle cx="474" cy="352" r="2" style="fill:#ffffff" />
<line x1="219" y1="388" x2="176" y2="394" />
<line x1="483" y1="254" x2="485" y2="201" />
<polygon points="483,254 487,247 483,237 479,247 483,254 " style="fill:#000000" />
<circle cx="483" cy="235" r="5" style="fill:#ffffff" />
<circle cx="484" cy="224" r="5" style="fill:#000000" />
<circle cx="484" cy="224" r="2" style="fill:#000000" />
<line x1="114" y1="461" x2="126" y2="508" />
<polygon points="114,461 112,469 118,478 120,467 114,461 " style="fill:#000000" />
<circle cx="121" cy="490" r="5" style="fill:#ffffff" />
<circle cx="121" cy="490" r="2" style="fill:#ffffff" />
<line x1="324" y1="772" x2="484" y2="840" />
<polygon points="324,772 329,779 340,779 332,771 324,772 " style="fill:#000000" />
<circle cx="351" cy="783" r="5" style="fill:#000000" />
<circle cx="351" cy="783" r="2" style="fill:#000000" />
<line x1="324" y1="798" x2="451" y2="874" />
<polygon points="324,798 328,805 339,807 332,798 324,798 " style="fill:#000000" />
<circle cx="349" cy="813" r="5" style="fill:#000000" />
<circle cx="349" cy="813" r="2" style="fill:#000000" />
<line x1="324" y1="667" x2="408" y2="641" />
<polygon points="324,667 332,668 341,662 330,661 324,667 " style="fill:#000000" />
<circle cx="352" cy="658" r="5" style="fill:#000000" />
<circle cx="352" cy="658" r="2" style="fill:#000000" />
<line x1="324" y1="730" x2="390" y2="741" />
<polygon points="328,730 336,738 332,731 338,727 328,730 " style="fill:#ffffff" />
<circle cx="342" cy="733" r="5" style="fill:#ffffff" />
<circle cx="348" cy="734" r="2" style="fill:#ffffff" />
<line x1="324" y1="624" x2="556" y2="488" />
<circle cx="336" cy="616" r="5" style="fill:#ffffff" />
<line x1="251" y1="508" x2="274" y2="451" />
<circle cx="256" cy="495" r="5" style="fill:#ffffff" />
<line x1="504" y1="840" x2="512" y2="812" />
<line x1="408" y1="520" x2="305" y2="451" />
<circle cx="396" cy="512" r="5" style="fill:#ffffff" />
</g>
</svg>