<svg xmlns="http://www.w3.org/2000/svg" version="1.1"
 font-family="Arial, Helvetica, sans-serif" font-size="10.00" width="681" height="776" viewbox="0 0 681 776">
<g  fill="#f5fff5" stroke="#000000" style="stroke-width:1">
<rect x="549" y="476" width="129" height="143" />
<line x1="549" y1="489" x2="678" y2="489" />
<polygon points="662,497 674,502 674,492 662,497 " style="fill:#ffffff" />
<polygon points="662,511 669,515 676,511 669,507 662,511 " style="fill:#ffffff" />
<polygon points="662,525 669,529 676,525 669,521 662,525 " style="fill:#000000" />
<polygon points="662,539 670,544 666,539 670,534 662,539 " style="fill:#ffffff" />
<circle cx="662" cy="553" r="5" style="fill:#ffffff" />
<circle cx="662" cy="567" r="5" style="fill:#ffffff" />
<circle cx="669" cy="567" r="2" style="fill:#ffffff" />
<circle cx="662" cy="581" r="5" style="fill:#ffffff" />
<circle cx="662" cy="581" r="2" style="fill:#ffffff" />
<circle cx="662" cy="595" r="5" style="fill:#ffffff" />
<circle cx="662" cy="595" r="2" style="fill:#000000" />
<circle cx="662" cy="609" r="5" style="fill:#000000" />
<circle cx="662" cy="609" r="2" style="fill:#000000" />
</g>
<g stroke="none">
<text x="550" y="485">Relations Key</text>
<text x="550" y="499">Generalization</text>
<text x="550" y="513">Aggregation(reference)</text>
<text x="550" y="527">Composition(owned)</text>
<text x="550" y="541">Const</text>
<text x="550" y="555">Method Variable</text>
<text x="550" y="569">Method Parameter</text>
<text x="550" y="583">Public</text>
<text x="550" y="597">Protected</text>
<text x="550" y="611">Private</text>
</g>
<g  fill="#f5fff5" stroke="#000000" style="stroke-width:1">
<rect x="22" y="470" width="251" height="305" />
<line x1="22" y1="491" x2="273" y2="491" />
<line x1="22" y1="539" x2="273" y2="539" />
</g>
<g stroke="none">
<text x="23" y="479">DebuggerGdb</text>
<text x="23" y="488">oovEdit</text>
<text x="23" y="500">-OovBackgroundPipeProcess mBkgPipeProc</text>
<text x="23" y="509">-mCommandIndex</text>
<text x="23" y="518">-mFrameNumber</text>
<text x="23" y="527">-mCurrentThread</text>
<text x="23" y="536">-string&lt;&lt;typedef&gt;&gt; mGetVariableName</text>
<text x="23" y="548">+DebuggerGdb()</text>
<text x="23" y="557">+setStackFrame(OovStringRef frameLine)</text>
<text x="23" y="566">+toggleBreakpoint(DebuggerBreakpoint br)</text>
<text x="23" y="575">+stepInto()</text>
<text x="23" y="584">+stepOver()</text>
<text x="23" y="593">+resume()</text>
<text x="23" y="602">+interrupt()</text>
<text x="23" y="611">+stop()</text>
<text x="23" y="620">+sendCommand(OovStringRef command)</text>
<text x="23" y="629">+startGetVariable(OovStringRef variable)</text>
<text x="23" y="638">+startGetStack()</text>
<text x="23" y="647">+startGetMemory(OovStringRef addr)</text>
<text x="23" y="656">-runDebuggerProcess()</text>
<text x="23" y="665">-ensureGdbChildRunning()</text>
<text x="23" y="674">-sendAddBreakpoint(DebuggerBreakpoint br)</text>
<text x="23" y="683">-sendDeleteBreakpoint(DebuggerBreakpoint br)</text>
<text x="23" y="692">-sendMiCommand(OovStringRef command)</text>
<text x="23" y="701">-handleResult(string&lt;&lt;typedef&gt;&gt; resultStr)</text>
<text x="23" y="710">-handleBreakpoint(string&lt;&lt;typedef&gt;&gt; resultStr)</text>
<text x="23" y="719">-handleStack(string&lt;&lt;typedef&gt;&gt; resultStr)</text>
<text x="23" y="728">-handleValue(string&lt;&lt;typedef&gt;&gt; resultStr)</text>
<text x="23" y="764">+isDebuggerRunning()</text>
<text x="23" y="773">-resetFrameNumber()</text>
</g>
<g stroke="none" font-style="italic">
<text x="23" y="737">-onStdOut(OovStringRef out, size_t&lt;&lt;typedef&gt;&gt; len)</text>
<text x="23" y="746">-onStdErr(OovStringRef out, size_t&lt;&lt;typedef&gt;&gt; len)</text>
<text x="23" y="755">+~DebuggerGdb()</text>
</g>
<g  fill="#f5fff5" stroke="#000000" style="stroke-width:1">
<rect x="339" y="633" width="135" height="26" />
<line x1="339" y1="654" x2="474" y2="654" />
<line x1="339" y1="657" x2="474" y2="657" />
</g>
<g stroke="none">
<text x="340" y="642">OovBackgroundPipeProcess</text>
<text x="340" y="651">oovCommon</text>
</g>
<g stroke="none" font-style="italic">
</g>
<g  fill="#f5fff5" stroke="#000000" style="stroke-width:1">
<rect x="403" y="710" width="95" height="26" />
<line x1="403" y1="731" x2="498" y2="731" />
<line x1="403" y1="734" x2="498" y2="734" />
</g>
<g stroke="none">
<text x="404" y="719">OovProcessListener</text>
<text x="404" y="728">oovCommon</text>
</g>
<g stroke="none" font-style="italic">
</g>
<g  fill="#f5fff5" stroke="#000000" style="stroke-width:1">
<rect x="15" y="22" width="363" height="386" />
<line x1="15" y1="43" x2="378" y2="43" />
<line x1="15" y1="172" x2="378" y2="172" />
</g>
<g stroke="none">
<text x="16" y="31">DebuggerBase</text>
<text x="16" y="40">oovEdit</text>
<text x="16" y="52">#OovString mDebuggerFilePath</text>
<text x="16" y="61">#OovString mDebuggeeFilePath</text>
<text x="16" y="70">#OovString mDebuggeeArgs</text>
<text x="16" y="79">#OovString mWorkingDir</text>
<text x="16" y="88">#DebuggerBreakpoints mBreakpoints</text>
<text x="16" y="97">#DebuggerListener mDebuggerListener</text>
<text x="16" y="106">#string&lt;&lt;typedef&gt;&gt; mDebuggerOutputBuffer</text>
<text x="16" y="115">#OovString mStack</text>
<text x="16" y="124">#DebugResult mVarValue</text>
<text x="16" y="133">#DebuggerChildStates mDebuggerChildState</text>
<text x="16" y="142">#InProcMutex mStatusLock</text>
<text x="16" y="151">#std::queue&lt;eDebuggerChangeStatus,std::deque&lt;eDebuggerChangeStatus,</text>
<text x="23" y="160">std::allocator&lt;eDebuggerChangeStatus&gt; &gt; &gt; mChangeStatusQueue</text>
<text x="16" y="169">#DebuggerLocation mStoppedLocation</text>
<text x="16" y="181">+DebuggerBase()</text>
<text x="16" y="199">+getChangeStatus()</text>
<text x="16" y="208">+getChildState()</text>
<text x="16" y="217">+getStack()</text>
<text x="16" y="226">+getVarValue()</text>
<text x="16" y="235">+getStoppedLocation()</text>
<text x="16" y="244">#updateChangeStatus(eDebuggerChangeStatus status)</text>
<text x="16" y="253">#changeChildState(DebuggerChildStates state)</text>
<text x="16" y="262">+setListener(DebuggerListener listener)</text>
<text x="16" y="271">+setDebuggerFilePath(OovStringRef dbgPath)</text>
<text x="16" y="280">+setDebuggee(OovStringRef debuggee)</text>
<text x="16" y="289">+setDebuggeeArgs(OovStringRef args)</text>
<text x="16" y="298">+setWorkingDir(OovStringRef dir)</text>
<text x="16" y="388">+getDebuggerFilePath()</text>
<text x="16" y="397">+getDebuggeeFilePath()</text>
<text x="16" y="406">+getBreakpoints()</text>
</g>
<g stroke="none" font-style="italic">
<text x="16" y="190">+~DebuggerBase()</text>
<text x="16" y="307">+setStackFrame(OovStringRef frameLine)</text>
<text x="16" y="316">+toggleBreakpoint(DebuggerBreakpoint br)</text>
<text x="16" y="325">+stepInto()</text>
<text x="16" y="334">+stepOver()</text>
<text x="16" y="343">+resume()</text>
<text x="16" y="352">+interrupt()</text>
<text x="16" y="361">+stop()</text>
<text x="16" y="370">+isDebuggerRunning()</text>
<text x="16" y="379">+sendCommand(OovStringRef command)</text>
</g>
<g  fill="#f5fff5" stroke="#000000" style="stroke-width:1">
<rect x="440" y="376" width="240" height="44" />
<line x1="440" y1="397" x2="680" y2="397" />
<line x1="440" y1="400" x2="680" y2="400" />
</g>
<g stroke="none">
<text x="441" y="385">DebuggerBreakpoints</text>
<text x="441" y="394">oovEdit</text>
<text x="441" y="409">+anyLocationsMatch(DebuggerLocation loc)</text>
<text x="441" y="418">+setBreakpointNumber(DebuggerLocation loc, bn)</text>
</g>
<g stroke="none" font-style="italic">
</g>
<g  fill="#f5fff5" stroke="#000000" style="stroke-width:1">
<rect x="435" y="136" width="157" height="53" />
<line x1="435" y1="157" x2="592" y2="157" />
<line x1="435" y1="160" x2="592" y2="160" />
</g>
<g stroke="none">
<text x="436" y="145">DebuggerListener</text>
<text x="436" y="154">oovEdit</text>
</g>
<g stroke="none" font-style="italic">
<text x="436" y="169">+~DebuggerListener()</text>
<text x="436" y="178">+DebugOutput(OovStringRef str)</text>
<text x="436" y="187">+DebugStatusChanged()</text>
</g>
<g  fill="#f5fff5" stroke="#000000" style="stroke-width:1">
<rect x="509" y="74" width="63" height="26" />
<line x1="509" y1="95" x2="572" y2="95" />
<line x1="509" y1="98" x2="572" y2="98" />
</g>
<g stroke="none">
<text x="510" y="83">InProcMutex</text>
<text x="510" y="92">oovCommon</text>
</g>
<g stroke="none" font-style="italic">
</g>
<g  fill="#f5fff5" stroke="#000000" style="stroke-width:1">
<rect x="417" y="22" width="235" height="35" />
<line x1="417" y1="52" x2="652" y2="52" />
<line x1="417" y1="55" x2="652" y2="55" />
</g>
<g stroke="none">
<text x="418" y="31">std::queue&lt;eDebuggerChangeStatus,std::deque&lt;</text>
<text x="418" y="40">  eDebuggerChangeStatus,std::allocator&lt;</text>
<text x="418" y="49">  eDebuggerChangeStatus&gt; &gt; &gt;</text>
</g>
<g stroke="none" font-style="italic">
</g>
<g  fill="#f5fff5" stroke="#000000" style="stroke-width:1">
<rect x="438" y="212" width="204" height="125" />
<line x1="438" y1="233" x2="642" y2="233" />
<line x1="438" y1="254" x2="642" y2="254" />
</g>
<g stroke="none">
<text x="439" y="221">DebuggerLocation</text>
<text x="439" y="230">oovEdit</text>
<text x="439" y="242">-OovString mFileName</text>
<text x="439" y="251">-mLineNum</text>
<text x="439" y="263">+getAsString()</text>
<text x="439" y="272">+DebuggerLocation(OovStringRef fn, line)</text>
<text x="439" y="281">+clear()</text>
<text x="439" y="290">+isEmpty()</text>
<text x="439" y="299">+operator==(DebuggerLocation rhs)</text>
<text x="439" y="308">+setFileLine(OovStringRef fn, line)</text>
<text x="439" y="317">+setLine(line)</text>
<text x="439" y="326">+getLine()</text>
<text x="439" y="335">+getFilename()</text>
</g>
<g stroke="none" font-style="italic">
</g>
<g  fill="#f5f5ff" stroke="#000000" style="stroke-width:1">
<line x1="272" y1="633" x2="339" y2="640" />
<circle cx="285" cy="634" r="5" style="fill:#ffffff" />
<circle cx="301" cy="636" r="5" style="fill:#000000" />
<circle cx="301" cy="636" r="2" style="fill:#000000" />
<polygon points="272,633 279,638 285,634 280,630 272,633 " style="fill:#000000" />
<line x1="272" y1="663" x2="412" y2="710" />
<circle cx="383" cy="700" r="5" style="fill:#ffffff" />
<circle cx="383" cy="700" r="2" style="fill:#ffffff" />
<polygon points="412,710 402,701 399,710 412,710 " style="fill:#ffffff" />
<line x1="165" y1="470" x2="173" y2="408" />
<circle cx="166" cy="456" r="5" style="fill:#ffffff" />
<circle cx="169" cy="437" r="5" style="fill:#ffffff" />
<circle cx="169" cy="437" r="2" style="fill:#ffffff" />
<polygon points="173,408 167,420 176,421 173,408 " style="fill:#ffffff" />
<line x1="272" y1="555" x2="520" y2="420" />
<circle cx="284" cy="548" r="5" style="fill:#ffffff" />
<line x1="267" y1="470" x2="493" y2="188" />
<circle cx="275" cy="459" r="5" style="fill:#ffffff" />
<line x1="272" y1="512" x2="470" y2="336" />
<circle cx="282" cy="502" r="5" style="fill:#ffffff" />
<line x1="413" y1="659" x2="443" y2="710" />
<circle cx="420" cy="671" r="5" style="fill:#ffffff" />
<circle cx="423" cy="677" r="2" style="fill:#ffffff" />
<circle cx="428" cy="684" r="5" style="fill:#000000" />
<circle cx="428" cy="684" r="2" style="fill:#000000" />
<polygon points="413,659 413,667 420,671 420,663 413,659 " style="fill:#ffffff" />
<line x1="377" y1="305" x2="517" y2="376" />
<circle cx="403" cy="318" r="5" style="fill:#ffffff" />
<circle cx="403" cy="318" r="2" style="fill:#000000" />
<polygon points="377,305 381,312 389,311 385,305 377,305 " style="fill:#000000" />
<line x1="377" y1="185" x2="435" y2="175" />
<circle cx="390" cy="182" r="5" style="fill:#ffffff" />
<circle cx="397" cy="181" r="2" style="fill:#ffffff" />
<circle cx="406" cy="179" r="5" style="fill:#ffffff" />
<circle cx="406" cy="179" r="2" style="fill:#000000" />
<polygon points="377,185 385,188 390,183 383,180 377,185 " style="fill:#ffffff" />
<line x1="377" y1="148" x2="509" y2="98" />
<circle cx="405" cy="137" r="5" style="fill:#ffffff" />
<circle cx="405" cy="137" r="2" style="fill:#000000" />
<polygon points="377,148 385,149 390,144 382,142 377,148 " style="fill:#000000" />
<line x1="377" y1="121" x2="502" y2="56" />
<circle cx="389" cy="114" r="5" style="fill:#ffffff" />
<circle cx="403" cy="107" r="5" style="fill:#ffffff" />
<circle cx="403" cy="107" r="2" style="fill:#000000" />
<polygon points="377,121 385,121 389,115 381,114 377,121 " style="fill:#000000" />
<line x1="377" y1="246" x2="438" y2="257" />
<circle cx="390" cy="248" r="5" style="fill:#ffffff" />
<circle cx="406" cy="251" r="5" style="fill:#ffffff" />
<circle cx="406" cy="251" r="2" style="fill:#000000" />
<polygon points="377,246 383,251 390,248 385,243 377,246 " style="fill:#000000" />
<line x1="557" y1="376" x2="550" y2="336" />
<polygon points="557,376 561,368 557,373 550,370 557,376 " style="fill:#ffffff" />
<circle cx="554" cy="362" r="5" style="fill:#ffffff" />
<circle cx="553" cy="355" r="2" style="fill:#ffffff" />
</g>
</svg>