<svg xmlns="http://www.w3.org/2000/svg" version="1.1"
 font-family="Arial, Helvetica, sans-serif" font-size="10.00" width="656" height="386">
<g  fill="#f5f5ff" stroke="#000000" style="stroke-width:1">
<rect x="23" y="367" width="63" height="14" />
<rect x="18" y="157" width="74" height="14" />
<ellipse cx="95" cy="291" rx="36" ry="7" />
<ellipse cx="161" cy="37" rx="16" ry="7" />
<ellipse cx="465" cy="314" rx="30" ry="7" />
<ellipse cx="345" cy="224" rx="40" ry="7" />
<ellipse cx="604" cy="206" rx="46" ry="7" />
<ellipse cx="348" cy="129" rx="38" ry="7" />
<ellipse cx="532" cy="152" rx="55" ry="7" />
<ellipse cx="193" cy="121" rx="50" ry="7" />
<ellipse cx="326" cy="69" rx="16" ry="7" />
<ellipse cx="373" cy="168" rx="53" ry="7" />
<ellipse cx="183" cy="253" rx="90" ry="7" />
<ellipse cx="499" cy="115" rx="34" ry="7" />
<ellipse cx="423" cy="279" rx="32" ry="7" />
<ellipse cx="342" cy="101" rx="32" ry="7" />
<ellipse cx="473" cy="224" rx="54" ry="7" />
<ellipse cx="294" cy="277" rx="36" ry="7" />
<ellipse cx="242" cy="307" rx="57" ry="7" />
<ellipse cx="207" cy="83" rx="62" ry="7" />
<ellipse cx="202" cy="335" rx="78" ry="7" />
<ellipse cx="124" cy="218" rx="67" ry="7" />
<ellipse cx="503" cy="189" rx="32" ry="7" />
<ellipse cx="610" cy="353" rx="25" ry="7" />
</g>
<g  fill="#f5f5ff" stroke="#0000ff" style="stroke-width:1">
</g>
<g  fill="#f5f5ff" stroke="#000000" style="stroke-width:1">
<g  fill="#f5f5ff" stroke="#ffb300" style="stroke-width:1">
<line x1="85" y1="374" x2="435" y2="314" />
<line x1="85" y1="374" x2="91" y2="367" />
<line x1="85" y1="374" x2="93" y2="378" />
<line x1="85" y1="374" x2="585" y2="353" />
<line x1="85" y1="374" x2="92" y2="368" />
<line x1="85" y1="374" x2="93" y2="379" />
</g>
<g  fill="#f5f5ff" stroke="#803e75" style="stroke-width:1">
<line x1="92" y1="164" x2="435" y2="314" />
<line x1="92" y1="164" x2="101" y2="162" />
<line x1="92" y1="164" x2="97" y2="172" />
<line x1="92" y1="164" x2="477" y2="152" />
<line x1="92" y1="164" x2="99" y2="158" />
<line x1="92" y1="164" x2="100" y2="169" />
<line x1="92" y1="164" x2="143" y2="121" />
<line x1="92" y1="164" x2="94" y2="155" />
<line x1="92" y1="164" x2="101" y2="164" />
<line x1="92" y1="164" x2="320" y2="168" />
<line x1="92" y1="164" x2="100" y2="159" />
<line x1="92" y1="164" x2="99" y2="170" />
<line x1="92" y1="164" x2="145" y2="83" />
<line x1="92" y1="164" x2="92" y2="155" />
<line x1="92" y1="164" x2="101" y2="161" />
</g>
<g  fill="#f5f5ff" stroke="#7f180d" style="stroke-width:1">
<line x1="423" y1="286" x2="465" y2="307" />
<line x1="423" y1="286" x2="432" y2="285" />
<line x1="423" y1="286" x2="427" y2="294" />
<line x1="423" y1="286" x2="465" y2="307" />
<line x1="423" y1="286" x2="432" y2="285" />
<line x1="423" y1="286" x2="427" y2="294" />
</g>
<g  fill="#f5f5ff" stroke="#f13a13" style="stroke-width:1">
<line x1="294" y1="270" x2="345" y2="231" />
<line x1="294" y1="270" x2="296" y2="261" />
<line x1="294" y1="270" x2="303" y2="270" />
</g>
<g  fill="#f5f5ff" stroke="#ff6800" style="stroke-width:1">
<line x1="191" y1="218" x2="305" y2="224" />
<line x1="191" y1="218" x2="199" y2="213" />
<line x1="191" y1="218" x2="198" y2="224" />
<line x1="191" y1="218" x2="305" y2="224" />
<line x1="191" y1="218" x2="199" y2="213" />
<line x1="191" y1="218" x2="198" y2="224" />
</g>
<g  fill="#f5f5ff" stroke="#a6bdd7" style="stroke-width:1">
<line x1="535" y1="189" x2="558" y2="206" />
<line x1="535" y1="189" x2="544" y2="189" />
<line x1="535" y1="189" x2="538" y2="198" />
<line x1="535" y1="189" x2="558" y2="206" />
<line x1="535" y1="189" x2="544" y2="189" />
<line x1="535" y1="189" x2="538" y2="198" />
<line x1="535" y1="189" x2="558" y2="206" />
<line x1="535" y1="189" x2="544" y2="189" />
<line x1="535" y1="189" x2="538" y2="198" />
<line x1="535" y1="189" x2="558" y2="206" />
<line x1="535" y1="189" x2="544" y2="189" />
<line x1="535" y1="189" x2="538" y2="198" />
</g>
<g  fill="#f5f5ff" stroke="#ffb300" style="stroke-width:1">
<line x1="269" y1="83" x2="310" y2="129" />
<line x1="269" y1="83" x2="278" y2="85" />
<line x1="269" y1="83" x2="269" y2="92" />
</g>
<g  fill="#f5f5ff" stroke="#ff7a5c" style="stroke-width:1">
<line x1="243" y1="121" x2="310" y2="129" />
<line x1="243" y1="121" x2="251" y2="117" />
<line x1="243" y1="121" x2="250" y2="127" />
</g>
<g  fill="#f5f5ff" stroke="#817066" style="stroke-width:1">
<line x1="385" y1="224" x2="477" y2="152" />
<line x1="385" y1="224" x2="387" y2="215" />
<line x1="385" y1="224" x2="394" y2="224" />
</g>
<g  fill="#f5f5ff" stroke="#ffb300" style="stroke-width:1">
<line x1="269" y1="83" x2="310" y2="69" />
<line x1="269" y1="83" x2="274" y2="75" />
<line x1="269" y1="83" x2="278" y2="85" />
</g>
<g  fill="#f5f5ff" stroke="#ff7a5c" style="stroke-width:1">
<line x1="243" y1="121" x2="310" y2="69" />
<line x1="243" y1="121" x2="245" y2="112" />
<line x1="243" y1="121" x2="252" y2="121" />
</g>
<g  fill="#f5f5ff" stroke="#817066" style="stroke-width:1">
<line x1="345" y1="217" x2="373" y2="175" />
<line x1="345" y1="217" x2="345" y2="208" />
<line x1="345" y1="217" x2="354" y2="214" />
</g>
<g  fill="#f5f5ff" stroke="#b32851" style="stroke-width:1">
<line x1="273" y1="253" x2="320" y2="168" />
<line x1="273" y1="253" x2="272" y2="244" />
<line x1="273" y1="253" x2="282" y2="249" />
<line x1="273" y1="253" x2="320" y2="168" />
<line x1="273" y1="253" x2="272" y2="244" />
<line x1="273" y1="253" x2="282" y2="249" />
</g>
<g  fill="#f5f5ff" stroke="#817066" style="stroke-width:1">
<line x1="345" y1="217" x2="373" y2="175" />
<line x1="345" y1="217" x2="345" y2="208" />
<line x1="345" y1="217" x2="354" y2="214" />
</g>
<g  fill="#f5f5ff" stroke="#b32851" style="stroke-width:1">
<line x1="273" y1="253" x2="320" y2="168" />
<line x1="273" y1="253" x2="272" y2="244" />
<line x1="273" y1="253" x2="282" y2="249" />
<line x1="273" y1="253" x2="320" y2="168" />
<line x1="273" y1="253" x2="272" y2="244" />
<line x1="273" y1="253" x2="282" y2="249" />
</g>
<g  fill="#f5f5ff" stroke="#ff6800" style="stroke-width:1">
<line x1="95" y1="284" x2="183" y2="260" />
<line x1="95" y1="284" x2="101" y2="277" />
<line x1="95" y1="284" x2="104" y2="287" />
</g>
<g  fill="#f5f5ff" stroke="#ff6800" style="stroke-width:1">
<line x1="124" y1="225" x2="183" y2="246" />
<line x1="124" y1="225" x2="133" y2="223" />
<line x1="124" y1="225" x2="129" y2="233" />
<line x1="124" y1="225" x2="183" y2="246" />
<line x1="124" y1="225" x2="133" y2="223" />
<line x1="124" y1="225" x2="129" y2="233" />
<line x1="124" y1="225" x2="183" y2="246" />
<line x1="124" y1="225" x2="133" y2="223" />
<line x1="124" y1="225" x2="129" y2="233" />
<line x1="124" y1="225" x2="183" y2="246" />
<line x1="124" y1="225" x2="133" y2="223" />
<line x1="124" y1="225" x2="129" y2="233" />
</g>
<g  fill="#f5f5ff" stroke="#ff8e00" style="stroke-width:1">
<line x1="426" y1="168" x2="465" y2="115" />
<line x1="426" y1="168" x2="426" y2="159" />
<line x1="426" y1="168" x2="435" y2="165" />
</g>
<g  fill="#f5f5ff" stroke="#817066" style="stroke-width:1">
<line x1="385" y1="224" x2="391" y2="279" />
<line x1="385" y1="224" x2="391" y2="231" />
<line x1="385" y1="224" x2="381" y2="232" />
</g>
<g  fill="#f5f5ff" stroke="#ffb300" style="stroke-width:1">
<line x1="269" y1="83" x2="310" y2="101" />
<line x1="269" y1="83" x2="278" y2="81" />
<line x1="269" y1="83" x2="274" y2="91" />
</g>
<g  fill="#f5f5ff" stroke="#ff7a5c" style="stroke-width:1">
<line x1="243" y1="121" x2="310" y2="101" />
<line x1="243" y1="121" x2="249" y2="114" />
<line x1="243" y1="121" x2="252" y2="124" />
</g>
<g  fill="#f5f5ff" stroke="#7f180d" style="stroke-width:1">
<line x1="423" y1="272" x2="473" y2="231" />
<line x1="423" y1="272" x2="425" y2="263" />
<line x1="423" y1="272" x2="432" y2="272" />
<line x1="423" y1="272" x2="473" y2="231" />
<line x1="423" y1="272" x2="425" y2="263" />
<line x1="423" y1="272" x2="432" y2="272" />
<line x1="423" y1="272" x2="473" y2="231" />
<line x1="423" y1="272" x2="425" y2="263" />
<line x1="423" y1="272" x2="432" y2="272" />
<line x1="423" y1="272" x2="473" y2="231" />
<line x1="423" y1="272" x2="425" y2="263" />
<line x1="423" y1="272" x2="432" y2="272" />
<line x1="423" y1="272" x2="473" y2="231" />
<line x1="423" y1="272" x2="425" y2="263" />
<line x1="423" y1="272" x2="432" y2="272" />
<line x1="423" y1="272" x2="473" y2="231" />
<line x1="423" y1="272" x2="425" y2="263" />
<line x1="423" y1="272" x2="432" y2="272" />
<line x1="423" y1="272" x2="473" y2="231" />
<line x1="423" y1="272" x2="425" y2="263" />
<line x1="423" y1="272" x2="432" y2="272" />
<line x1="423" y1="272" x2="473" y2="231" />
<line x1="423" y1="272" x2="425" y2="263" />
<line x1="423" y1="272" x2="432" y2="272" />
</g>
<g  fill="#f5f5ff" stroke="#232c16" style="stroke-width:1">
<line x1="242" y1="300" x2="294" y2="284" />
<line x1="242" y1="300" x2="248" y2="293" />
<line x1="242" y1="300" x2="251" y2="303" />
</g>
<g  fill="#f5f5ff" stroke="#803e75" style="stroke-width:1">
<line x1="202" y1="328" x2="242" y2="314" />
<line x1="202" y1="328" x2="207" y2="320" />
<line x1="202" y1="328" x2="211" y2="330" />
</g>
<g  fill="#f5f5ff" stroke="#ff6800" style="stroke-width:1">
<line x1="95" y1="298" x2="202" y2="328" />
<line x1="95" y1="298" x2="104" y2="295" />
<line x1="95" y1="298" x2="101" y2="305" />
</g>
<g  fill="#f5f5ff" stroke="#817066" style="stroke-width:1">
<line x1="385" y1="224" x2="471" y2="189" />
<line x1="385" y1="224" x2="390" y2="216" />
<line x1="385" y1="224" x2="394" y2="226" />
<line x1="385" y1="224" x2="585" y2="353" />
<line x1="385" y1="224" x2="394" y2="224" />
<line x1="385" y1="224" x2="388" y2="233" />
</g>
<g  fill="#f5f5ff" stroke="#007d34" style="stroke-width:1">
<line x1="604" y1="213" x2="610" y2="346" />
<line x1="604" y1="213" x2="610" y2="220" />
<line x1="604" y1="213" x2="599" y2="221" />
</g>
<g  fill="#f5f5ff" stroke="#593315" style="stroke-width:1">
<line x1="527" y1="224" x2="585" y2="353" />
<line x1="527" y1="224" x2="535" y2="228" />
<line x1="527" y1="224" x2="525" y2="233" />
</g>
<g  fill="#f5f5ff" stroke="#007d34" style="stroke-width:1">
<line x1="604" y1="213" x2="610" y2="346" />
<line x1="604" y1="213" x2="610" y2="220" />
<line x1="604" y1="213" x2="599" y2="221" />
</g>
<g  fill="#f5f5ff" stroke="#593315" style="stroke-width:1">
<line x1="527" y1="224" x2="585" y2="353" />
<line x1="527" y1="224" x2="535" y2="228" />
<line x1="527" y1="224" x2="525" y2="233" />
</g>
</g>
<g stroke="none">
<text x="25" y="376">currentClass</text>
<text x="20" y="166">currentMethod</text>
<text x="61" y="293">safeGetScope</text>
<text x="147" y="39">&lt;init&gt;</text>
<text x="437" y="316">visitMethod</text>
<text x="307" y="226">addOrFindType</text>
<text x="560" y="208">addTypeRelations</text>
<text x="312" y="131">visitWhileLoop</text>
<text x="479" y="154">visitMethodInvocation</text>
<text x="145" y="123">addCloseStatement</text>
<text x="312" y="71">visitIf</text>
<text x="322" y="170">addVarRefStatement</text>
<text x="95" y="255">findOrAddEnclosingClassForVariable</text>
<text x="467" y="117">visitIdentifier</text>
<text x="393" y="281">addTypeRef</text>
<text x="312" y="103">visitForLoop</text>
<text x="421" y="226">addMemberVariables</text>
<text x="260" y="279">getTypeName</text>
<text x="187" y="309">getIdentifierTypeName</text>
<text x="147" y="85">addOpenCondStatement</text>
<text x="126" y="337">lookupTypeNameFromIdentifier</text>
<text x="59" y="220">addOrFindTypeUsingName</text>
<text x="473" y="191">addTypeRel</text>
<text x="587" y="355">visitClass</text>
</g>
<g stroke="none" font-style="italic">
</g>
</svg>