<svg xmlns="http://www.w3.org/2000/svg" version="1.1"
 font-family="Arial, Helvetica, sans-serif" font-size="10.00" width="709" height="760" viewbox="0 0 709 760">
<g  fill="#f5fff5" stroke="#000000" style="stroke-width:1">
<rect x="20" y="526" width="129" height="143" />
<line x1="20" y1="539" x2="149" y2="539" />
<polygon points="133,547 145,552 145,542 133,547 " style="fill:#ffffff" />
<polygon points="133,561 140,565 147,561 140,557 133,561 " style="fill:#ffffff" />
<polygon points="133,575 140,579 147,575 140,571 133,575 " style="fill:#000000" />
<polygon points="133,589 141,594 137,589 141,584 133,589 " style="fill:#ffffff" />
<circle cx="133" cy="603" r="5" style="fill:#ffffff" />
<circle cx="133" cy="617" r="5" style="fill:#ffffff" />
<circle cx="140" cy="617" r="2" style="fill:#ffffff" />
<circle cx="133" cy="631" r="5" style="fill:#ffffff" />
<circle cx="133" cy="631" r="2" style="fill:#ffffff" />
<circle cx="133" cy="645" r="5" style="fill:#ffffff" />
<circle cx="133" cy="645" r="2" style="fill:#000000" />
<circle cx="133" cy="659" r="5" style="fill:#000000" />
<circle cx="133" cy="659" r="2" style="fill:#000000" />
</g>
<g stroke="none">
<text x="21" y="535">Relations Key</text>
<text x="21" y="549">Generalization</text>
<text x="21" y="563">Aggregation(reference)</text>
<text x="21" y="577">Composition(owned)</text>
<text x="21" y="591">Const</text>
<text x="21" y="605">Method Variable</text>
<text x="21" y="619">Method Parameter</text>
<text x="21" y="633">Public</text>
<text x="21" y="647">Protected</text>
<text x="21" y="661">Private</text>
</g>
<g  fill="#f5fff5" stroke="#000000" style="stroke-width:1">
<rect x="21" y="23" width="170" height="71" />
<line x1="21" y1="44" x2="191" y2="44" />
<line x1="21" y1="56" x2="191" y2="56" />
</g>
<g stroke="none">
<text x="22" y="32">parser.AnalysisParser</text>
<text x="22" y="41">parser</text>
<text x="22" y="53">+model.ModelData model</text>
<text x="22" y="65">-&lt;init&gt;()</text>
<text x="22" y="74">-getModel()</text>
<text x="22" y="83">-parse(java.lang.String dupHashFn,</text>
<text x="29" y="92"> java.lang.String analysisDir)</text>
</g>
<g stroke="none" font-style="italic">
</g>
<g  fill="#f5fff5" stroke="#000000" style="stroke-width:1">
<rect x="323" y="271" width="88" height="26" />
<line x1="323" y1="292" x2="411" y2="292" />
<line x1="323" y1="295" x2="411" y2="295" />
</g>
<g stroke="none">
<text x="324" y="280">model.ModelData</text>
<text x="324" y="289">model</text>
</g>
<g stroke="none" font-style="italic">
</g>
<g  fill="#f5fff5" stroke="#000000" style="stroke-width:1">
<rect x="178" y="273" width="86" height="17" />
<line x1="178" y1="285" x2="264" y2="285" />
<line x1="178" y1="288" x2="264" y2="288" />
</g>
<g stroke="none">
<text x="179" y="282">java.util.ArrayList</text>
</g>
<g stroke="none" font-style="italic">
</g>
<g  fill="#f5fff5" stroke="#000000" style="stroke-width:1">
<rect x="230" y="346" width="478" height="413" />
<line x1="230" y1="367" x2="708" y2="367" />
<line x1="230" y1="406" x2="708" y2="406" />
</g>
<g stroke="none">
<text x="231" y="355">parser.ParserTreeVisitor</text>
<text x="231" y="364">parser</text>
<text x="231" y="376">+model.ModelType currentClass</text>
<text x="231" y="385">+model.ModelMethod currentMethod</text>
<text x="231" y="394">+model.ModelData model</text>
<text x="231" y="403">+java.util.ArrayList mSwitchContexts</text>
<text x="231" y="415">-visitImport(com.sun.source.tree.ImportTree importTree, com.sun.source.util.Trees trees)</text>
<text x="231" y="424">-safeGetScope(com.sun.source.util.Trees trees, com.sun.source.util.TreePath path)</text>
<text x="231" y="433">-visitEnhancedForLoop(com.sun.source.tree.EnhancedForLoopTree forTree, com.sun.source.util.T</text>
<text x="238" y="442">rees trees)</text>
<text x="231" y="451">-visitMethod(com.sun.source.tree.MethodTree methodTree, com.sun.source.util.Trees trees)</text>
<text x="231" y="460">-addCloseStatement()</text>
<text x="231" y="469">-addTypeRef(model.ModelTypeRefs typeRefs, com.sun.source.tree.Tree supplierTree, com.sun.sou</text>
<text x="238" y="478">rce.util.Trees trees, java.lang.String supplierVarName)</text>
<text x="231" y="487">-&lt;init&gt;(model.ModelData mod, java.lang.String packageName, java.lang.String analysisDir)</text>
<text x="231" y="496">-visitCase(com.sun.source.tree.CaseTree caseTree, com.sun.source.util.Trees trees)</text>
<text x="231" y="505">-getTypeName(com.sun.source.tree.Tree tree, com.sun.source.util.Trees trees)</text>
<text x="231" y="514">-visitSwitch(com.sun.source.tree.SwitchTree switchTree, com.sun.source.util.Trees trees)</text>
<text x="231" y="523">-addMemberVariables(model.ModelType type, com.sun.source.tree.ClassTree classTree, </text>
<text x="238" y="532">com.sun.source.util.Trees trees)</text>
<text x="231" y="541">-visitNewClass(com.sun.source.tree.NewClassTree newTree, com.sun.source.util.Trees trees)</text>
<text x="231" y="550">-findOrAddEnclosingClassForVariable(com.sun.source.tree.Tree tree, com.sun.source.util.Trees</text>
<text x="238" y="559"> trees)</text>
<text x="231" y="568">-lookupTypeNameFromIdentifier(com.sun.source.tree.Tree tree, com.sun.source.util.Trees </text>
<text x="238" y="577">trees)</text>
<text x="231" y="586">-visitForLoop(com.sun.source.tree.ForLoopTree forTree, com.sun.source.util.Trees trees)</text>
<text x="231" y="595">-addTypeRelations(model.ModelType type, com.sun.source.tree.ClassTree classTree, com.sun.sou</text>
<text x="238" y="604">rce.util.Trees trees)</text>
<text x="231" y="613">-getIdentifierTypeName(com.sun.source.tree.Tree tree, com.sun.source.util.Trees trees)</text>
<text x="231" y="622">-visitWhileLoop(com.sun.source.tree.WhileLoopTree whileTree, com.sun.source.util.Trees </text>
<text x="238" y="631">trees)</text>
<text x="231" y="640">-visitIdentifier(com.sun.source.tree.IdentifierTree identTree, com.sun.source.util.Trees </text>
<text x="238" y="649">trees)</text>
<text x="231" y="658">-visitBreak(com.sun.source.tree.BreakTree breakTree, com.sun.source.util.Trees trees)</text>
<text x="231" y="667">-addVarRefStatement(com.sun.source.tree.Tree tree, com.sun.source.util.Trees trees,</text>
<text x="238" y="676"> java.lang.String varName)</text>
<text x="231" y="685">-addOrFindTypeUsingName(java.lang.String fullName)</text>
<text x="231" y="694">-addOpenCondStatement(java.lang.String condText)</text>
<text x="231" y="703">-visitIf(com.sun.source.tree.IfTree ifTree, com.sun.source.util.Trees trees)</text>
<text x="231" y="712">-visitMethodInvocation(com.sun.source.tree.MethodInvocationTree callTree, com.sun.source.uti</text>
<text x="238" y="721">l.Trees trees)</text>
<text x="231" y="730">-visitClass(com.sun.source.tree.ClassTree classTree, com.sun.source.util.Trees trees)</text>
<text x="231" y="739">-addTypeRel(model.ModelType consumerType, com.sun.source.tree.Tree supplierTree, com.sun.sou</text>
<text x="238" y="748">rce.util.Trees trees)</text>
<text x="231" y="757">-addOrFindType(com.sun.source.tree.Tree tree, com.sun.source.util.Trees trees)</text>
</g>
<g stroke="none" font-style="italic">
</g>
<g  fill="#f5fff5" stroke="#000000" style="stroke-width:1">
<rect x="455" y="73" width="119" height="17" />
<line x1="455" y1="85" x2="574" y2="85" />
<line x1="455" y1="88" x2="574" y2="88" />
</g>
<g stroke="none">
<text x="456" y="82">javax.tools.ToolProvider</text>
</g>
<g stroke="none" font-style="italic">
</g>
<g  fill="#f5fff5" stroke="#000000" style="stroke-width:1">
<rect x="469" y="132" width="123" height="17" />
<line x1="469" y1="144" x2="592" y2="144" />
<line x1="469" y1="147" x2="592" y2="147" />
</g>
<g stroke="none">
<text x="470" y="141">javax.tools.JavaCompiler</text>
</g>
<g stroke="none" font-style="italic">
</g>
<g  fill="#f5fff5" stroke="#000000" style="stroke-width:1">
<rect x="230" y="6" width="183" height="17" />
<line x1="230" y1="18" x2="413" y2="18" />
<line x1="230" y1="21" x2="413" y2="21" />
</g>
<g stroke="none">
<text x="231" y="15">javax.tools.StandardJavaFileManager</text>
</g>
<g stroke="none" font-style="italic">
</g>
<g  fill="#f5fff5" stroke="#000000" style="stroke-width:1">
<rect x="132" y="209" width="90" height="26" />
<line x1="132" y1="230" x2="222" y2="230" />
<line x1="132" y1="233" x2="222" y2="233" />
</g>
<g stroke="none">
<text x="133" y="218">common.Common</text>
<text x="133" y="227">common</text>
</g>
<g stroke="none" font-style="italic">
</g>
<g  fill="#f5fff5" stroke="#000000" style="stroke-width:1">
<rect x="457" y="100" width="145" height="17" />
<line x1="457" y1="112" x2="602" y2="112" />
<line x1="457" y1="115" x2="602" y2="115" />
</g>
<g stroke="none">
<text x="458" y="109">com.sun.source.util.JavacTask</text>
</g>
<g stroke="none" font-style="italic">
</g>
<g  fill="#f5fff5" stroke="#000000" style="stroke-width:1">
<rect x="344" y="225" width="123" height="17" />
<line x1="344" y1="237" x2="467" y2="237" />
<line x1="344" y1="240" x2="467" y2="240" />
</g>
<g stroke="none">
<text x="345" y="234">com.sun.source.util.Trees</text>
</g>
<g stroke="none" font-style="italic">
</g>
<g  fill="#f5fff5" stroke="#000000" style="stroke-width:1">
<rect x="443" y="20" width="198" height="17" />
<line x1="443" y1="32" x2="641" y2="32" />
<line x1="443" y1="35" x2="641" y2="35" />
</g>
<g stroke="none">
<text x="444" y="29">com.sun.source.tree.CompilationUnitTree</text>
</g>
<g stroke="none" font-style="italic">
</g>
<g  fill="#f5fff5" stroke="#000000" style="stroke-width:1">
<rect x="452" y="46" width="172" height="17" />
<line x1="452" y1="58" x2="624" y2="58" />
<line x1="452" y1="61" x2="624" y2="61" />
</g>
<g stroke="none">
<text x="453" y="55">com.sun.source.util.SourcePositions</text>
</g>
<g stroke="none" font-style="italic">
</g>
<g  fill="#f5fff5" stroke="#000000" style="stroke-width:1">
<rect x="477" y="202" width="141" height="17" />
<line x1="477" y1="214" x2="618" y2="214" />
<line x1="477" y1="217" x2="618" y2="217" />
</g>
<g stroke="none">
<text x="478" y="211">com.sun.source.tree.LineMap</text>
</g>
<g stroke="none" font-style="italic">
</g>
<g  fill="#f5fff5" stroke="#000000" style="stroke-width:1">
<rect x="483" y="261" width="180" height="17" />
<line x1="483" y1="273" x2="663" y2="273" />
<line x1="483" y1="276" x2="663" y2="276" />
</g>
<g stroke="none">
<text x="484" y="270">com.sun.source.util.TreePathScanner</text>
</g>
<g stroke="none" font-style="italic">
</g>
<g  fill="#f5fff5" stroke="#000000" style="stroke-width:1">
<rect x="20" y="385" width="160" height="89" />
<line x1="20" y1="406" x2="180" y2="406" />
<line x1="20" y1="418" x2="180" y2="418" />
</g>
<g stroke="none">
<text x="21" y="394">parser.DupHashFile</text>
<text x="21" y="403">parser</text>
<text x="21" y="415">+java.io.PrintWriter mFile</text>
<text x="21" y="427">-close()</text>
<text x="21" y="436">-&lt;init&gt;()</text>
<text x="21" y="445">-fixSpaces(java.lang.String text)</text>
<text x="21" y="454">-makeHash(java.lang.String str)</text>
<text x="21" y="463">-append(java.lang.String text)</text>
<text x="21" y="472">-open(java.lang.String fileName)</text>
</g>
<g stroke="none" font-style="italic">
</g>
<g  fill="#f5fff5" stroke="#000000" style="stroke-width:1">
<rect x="475" y="165" width="85" height="17" />
<line x1="475" y1="177" x2="560" y2="177" />
<line x1="475" y1="180" x2="560" y2="180" />
</g>
<g stroke="none">
<text x="476" y="174">java.lang.System</text>
</g>
<g stroke="none" font-style="italic">
</g>
<g  fill="#f5fff5" stroke="#000000" style="stroke-width:1">
<rect x="46" y="310" width="177" height="35" />
<line x1="46" y1="340" x2="223" y2="340" />
<line x1="46" y1="343" x2="223" y2="343" />
</g>
<g stroke="none">
<text x="47" y="319">oovJavaParser</text>
<text x="47" y="328">C:/Dave/Mine/software/oovaide/sourc</text>
<text x="47" y="337">  e/oovJavaParser</text>
</g>
<g stroke="none" font-style="italic">
</g>
<g  fill="#f5f5ff" stroke="#000000" style="stroke-width:1">
<line x1="146" y1="93" x2="352" y2="271" />
<circle cx="156" cy="102" r="5" style="fill:#ffffff" />
<circle cx="168" cy="112" r="5" style="fill:#ffffff" />
<circle cx="168" cy="112" r="2" style="fill:#ffffff" />
<polygon points="146,93 148,101 156,102 154,94 146,93 " style="fill:#000000" />
<line x1="124" y1="93" x2="217" y2="273" />
<circle cx="130" cy="105" r="5" style="fill:#ffffff" />
<line x1="131" y1="93" x2="318" y2="346" />
<circle cx="139" cy="104" r="5" style="fill:#ffffff" />
<line x1="191" y1="62" x2="455" y2="78" />
<circle cx="204" cy="62" r="5" style="fill:#ffffff" />
<line x1="191" y1="74" x2="489" y2="132" />
<circle cx="204" cy="76" r="5" style="fill:#ffffff" />
<line x1="191" y1="41" x2="282" y2="22" />
<circle cx="204" cy="38" r="5" style="fill:#ffffff" />
<line x1="121" y1="93" x2="172" y2="209" />
<circle cx="126" cy="105" r="5" style="fill:#ffffff" />
<line x1="191" y1="68" x2="462" y2="100" />
<circle cx="204" cy="69" r="5" style="fill:#ffffff" />
<line x1="165" y1="93" x2="392" y2="225" />
<circle cx="177" cy="100" r="5" style="fill:#ffffff" />
<line x1="191" y1="53" x2="443" y2="34" />
<circle cx="204" cy="51" r="5" style="fill:#ffffff" />
<line x1="191" y1="58" x2="452" y2="54" />
<circle cx="204" cy="57" r="5" style="fill:#ffffff" />
<line x1="191" y1="87" x2="524" y2="202" />
<circle cx="204" cy="91" r="5" style="fill:#ffffff" />
<line x1="183" y1="93" x2="556" y2="261" />
<circle cx="195" cy="98" r="5" style="fill:#ffffff" />
<line x1="106" y1="93" x2="100" y2="385" />
<circle cx="105" cy="106" r="5" style="fill:#ffffff" />
<line x1="191" y1="81" x2="489" y2="165" />
<circle cx="204" cy="84" r="5" style="fill:#ffffff" />
<line x1="109" y1="93" x2="133" y2="310" />
<circle cx="131" cy="296" r="5" style="fill:#ffffff" />
<line x1="323" y1="284" x2="264" y2="281" />
<circle cx="309" cy="283" r="5" style="fill:#ffffff" />
<circle cx="293" cy="282" r="5" style="fill:#ffffff" />
<circle cx="293" cy="282" r="2" style="fill:#ffffff" />
<polygon points="323,284 316,280 310,284 315,288 323,284 " style="fill:#000000" />
<line x1="371" y1="297" x2="391" y2="346" />
<circle cx="385" cy="333" r="5" style="fill:#ffffff" />
<circle cx="383" cy="326" r="2" style="fill:#ffffff" />
<circle cx="379" cy="318" r="5" style="fill:#ffffff" />
<circle cx="379" cy="318" r="2" style="fill:#ffffff" />
<polygon points="391,346 392,338 386,334 384,341 391,346 " style="fill:#000000" />
<line x1="228" y1="289" x2="281" y2="346" />
<circle cx="271" cy="335" r="5" style="fill:#ffffff" />
<circle cx="260" cy="324" r="5" style="fill:#ffffff" />
<circle cx="260" cy="324" r="2" style="fill:#ffffff" />
<polygon points="281,346 279,338 272,336 273,344 281,346 " style="fill:#000000" />
<line x1="206" y1="289" x2="166" y2="310" />
<circle cx="178" cy="303" r="5" style="fill:#ffffff" />
<line x1="428" y1="346" x2="406" y2="241" />
<circle cx="425" cy="332" r="5" style="fill:#ffffff" />
<circle cx="423" cy="325" r="2" style="fill:#ffffff" />
<line x1="544" y1="346" x2="571" y2="277" />
<circle cx="549" cy="332" r="5" style="fill:#ffffff" />
<circle cx="560" cy="304" r="5" style="fill:#000000" />
<circle cx="560" cy="304" r="2" style="fill:#000000" />
<polygon points="571,277 562,287 571,290 571,277 " style="fill:#ffffff" />
<line x1="172" y1="235" x2="140" y2="310" />
<circle cx="145" cy="297" r="5" style="fill:#ffffff" />
</g>
</svg>