<svg xmlns="http://www.w3.org/2000/svg" version="1.1"
  font-family="Arial, Helvetica, sans-serif" font-size="10.000000" 
  width="628" height="688">
<g  fill="#f5fff5" stroke="#000000" style="stroke-width:1">
<rect x="18" y="544" width="133" height="143" />
<line x1="18" y1="557" x2="151" y2="557" />
<polygon points="131,565 143,570 143,560 131,565 " style="fill:#ffffff" />
<polygon points="131,579 138,583 145,579 138,575 131,579 " style="fill:#ffffff" />
<polygon points="131,593 138,597 145,593 138,589 131,593 " style="fill:#000000" />
<polygon points="131,607 139,612 135,607 139,602 131,607 " style="fill:#ffffff" />
<circle cx="131" cy="621" r="5" style="fill:#ffffff" />
<circle cx="131" cy="635" r="5" style="fill:#ffffff" />
<circle cx="138" cy="635" r="2" style="fill:#ffffff" />
<circle cx="131" cy="649" r="5" style="fill:#ffffff" />
<circle cx="131" cy="649" r="2" style="fill:#ffffff" />
<circle cx="131" cy="663" r="5" style="fill:#ffffff" />
<circle cx="131" cy="663" r="2" style="fill:#000000" />
<circle cx="131" cy="677" r="5" style="fill:#000000" />
<circle cx="131" cy="677" r="2" style="fill:#000000" />
</g>
<g stroke="none">
<text x="19" y="553">Relations Key</text>
<text x="19" y="567">Generalization</text>
<text x="19" y="581">Aggregation(reference)</text>
<text x="19" y="595">Composition(owned)</text>
<text x="19" y="609">Const</text>
<text x="19" y="623">Method Variable</text>
<text x="19" y="637">Method Parameter</text>
<text x="19" y="651">Public</text>
<text x="19" y="665">Protected</text>
<text x="19" y="679">Private</text>
</g>
<g  fill="#f5fff5" stroke="#000000" style="stroke-width:1">
<rect x="17" y="24" width="307" height="296" />
<line x1="17" y1="45" x2="324" y2="45" />
<line x1="17" y1="111" x2="324" y2="111" />
</g>
<g stroke="none">
<text x="18" y="33">OovProject</text>
<text x="18" y="42">oovaide</text>
<text x="18" y="54">-OovTaskStatusListener mStatusListener</text>
<text x="18" y="63">-ProjectStatus mProjectStatus</text>
<text x="18" y="72">-ProjectReader mProjectOptions</text>
<text x="18" y="81">-GuiOptions mGuiOptions</text>
<text x="18" y="90">-ModelData mModelData</text>
<text x="18" y="99">-IncDirDependencyMapReader mIncludeMap</text>
<text x="18" y="108">-OovBackgroundPipeProcess mBackgroundProc</text>
<text x="18" y="120">+stopAndWaitForBackgroundComplete()</text>
<text x="18" y="129">+newProject(OovString projectDir, CompoundValue excludeDirs,</text>
<text x="25" y="138"> OovProject::eNewProjectStatus projStatus)</text>
<text x="18" y="147">+openProject(OovStringRef projectDir, bool openedProj)</text>
<text x="18" y="156">+clearAnalysis()</text>
<text x="18" y="165">+loadAnalysisFiles()</text>
<text x="18" y="174">+runSrcManager(OovStringRef buildConfigName, OovStringRef </text>
<text x="25" y="183">runStr, OovProject::eSrcManagerOptions smo)</text>
<text x="18" y="192">+stopSrcManager()</text>
<text x="18" y="201">+getProjectStatus()</text>
<text x="18" y="210">-processAnalysisFiles()</text>
<text x="18" y="219">-loadIncludeMap()</text>
<text x="18" y="228">+OovProject()</text>
<text x="18" y="246">+setBackgroundProcessListener(OovProcessListener listener)</text>
<text x="18" y="255">+setStatusListener(OovTaskStatusListener listener)</text>
<text x="18" y="264">+getModelData()</text>
<text x="18" y="273">+getIncMap()</text>
<text x="18" y="282">+getProjectOptions()</text>
<text x="18" y="291">+getGuiOptions()</text>
<text x="18" y="300">+isAnalysisReady()</text>
<text x="18" y="309">+isProjectIdle()</text>
<text x="18" y="318">+processItem(ProjectBackgroundItem item)</text>
</g>
<g stroke="none" font-style="italic">
<text x="18" y="237">+~OovProject()</text>
</g>
<g  fill="#f5fff5" stroke="#000000" style="stroke-width:1">
<rect x="331" y="333" width="110" height="26" />
<line x1="331" y1="354" x2="441" y2="354" />
<line x1="331" y1="357" x2="441" y2="357" />
</g>
<g stroke="none">
<text x="332" y="342">OovTaskStatusListener</text>
<text x="332" y="351">oovCommon</text>
</g>
<g stroke="none" font-style="italic">
</g>
<g  fill="#f5fff5" stroke="#000000" style="stroke-width:1">
<rect x="17" y="420" width="232" height="107" />
<line x1="17" y1="441" x2="249" y2="441" />
<line x1="17" y1="480" x2="249" y2="480" />
</g>
<g stroke="none">
<text x="18" y="429">ProjectStatus</text>
<text x="18" y="438">oovaide</text>
<text x="18" y="450">+bool mProjectOpen</text>
<text x="18" y="459">+ProjectStatus::eAnalysisStatus mAnalysisStatus</text>
<text x="18" y="468">+bool mBackgroundProcIdle</text>
<text x="18" y="477">+bool mBackgroundThreadIdle</text>
<text x="18" y="489">+ProjectStatus()</text>
<text x="18" y="498">+clear()</text>
<text x="18" y="507">+operator!=(ProjectStatus stat)</text>
<text x="18" y="516">+isAnalysisReady()</text>
<text x="18" y="525">+isIdle()</text>
</g>
<g stroke="none" font-style="italic">
</g>
<g  fill="#f5fff5" stroke="#000000" style="stroke-width:1">
<rect x="162" y="362" width="63" height="26" />
<line x1="162" y1="383" x2="225" y2="383" />
<line x1="162" y1="386" x2="225" y2="386" />
</g>
<g stroke="none">
<text x="163" y="371">ModelData</text>
<text x="163" y="380">oovCommon</text>
</g>
<g stroke="none" font-style="italic">
</g>
<g  fill="#f5fff5" stroke="#000000" style="stroke-width:1">
<rect x="408" y="80" width="145" height="26" />
<line x1="408" y1="101" x2="553" y2="101" />
<line x1="408" y1="104" x2="553" y2="104" />
</g>
<g stroke="none">
<text x="409" y="89">IncDirDependencyMapReader</text>
<text x="409" y="98">oovCommon</text>
</g>
<g stroke="none" font-style="italic">
</g>
<g  fill="#f5fff5" stroke="#000000" style="stroke-width:1">
<rect x="418" y="128" width="135" height="26" />
<line x1="418" y1="149" x2="553" y2="149" />
<line x1="418" y1="152" x2="553" y2="152" />
</g>
<g stroke="none">
<text x="419" y="137">OovBackgroundPipeProcess</text>
<text x="419" y="146">oovCommon</text>
</g>
<g stroke="none" font-style="italic">
</g>
<g  fill="#f5fff5" stroke="#000000" style="stroke-width:1">
<rect x="372" y="24" width="180" height="26" />
<line x1="372" y1="45" x2="552" y2="45" />
<line x1="372" y1="48" x2="552" y2="48" />
</g>
<g stroke="none">
<text x="373" y="33">ThreadedWorkBackgroundQueue&lt;</text>
<text x="373" y="42">  OovProject,ProjectBackgroundItem&gt;</text>
</g>
<g stroke="none" font-style="italic">
</g>
<g  fill="#f5fff5" stroke="#000000" style="stroke-width:1">
<rect x="394" y="170" width="228" height="152" />
<line x1="394" y1="191" x2="622" y2="191" />
<line x1="394" y1="194" x2="622" y2="194" />
</g>
<g stroke="none">
<text x="395" y="179">XmlParser</text>
<text x="395" y="188">oovaide</text>
<text x="395" y="203">+parseXml(char buf)</text>
<text x="395" y="212">-parseAttr(char buf)</text>
<text x="395" y="221">-parseElem(char buf)</text>
<text x="395" y="230">-parseElemValue(char buf)</text>
<text x="395" y="239">-parseName(char buf, char name, int nameLen)</text>
<text x="395" y="248">-eatElementEndTag(char buf)</text>
<text x="395" y="257">-stringCbCopy(char dest, int bytes, char src)</text>
<text x="395" y="266">-isNameChar(char ch)</text>
</g>
<g stroke="none" font-style="italic">
<text x="395" y="275">+~XmlParser()</text>
<text x="395" y="284">#onOpenElem(char name, int len)</text>
<text x="395" y="293">#onCloseElem(char name, int len)</text>
<text x="395" y="302">#onAttr(char name, int nameLen, char val,</text>
<text x="402" y="311"> int valLen)</text>
<text x="395" y="320">#onElemValue(char , int )</text>
</g>
<g  fill="#f5fff5" stroke="#000000" style="stroke-width:1">
<rect x="270" y="389" width="357" height="296" />
<line x1="270" y1="410" x2="627" y2="410" />
<line x1="270" y1="494" x2="627" y2="494" />
</g>
<g stroke="none">
<text x="271" y="398">XmiParser</text>
<text x="271" y="407">oovaide</text>
<text x="271" y="419">-ModelData mModel</text>
<text x="271" y="428">-std::vector&lt;XmiElement,std::allocator&lt;XmiElement&gt; &gt; mElementStack</text>
<text x="271" y="437">-ModelClassifier mCurrentClassifier</text>
<text x="271" y="446">-int mStartingModuleTypeIndex</text>
<text x="271" y="455">-int mEndingModuleTypeIndex</text>
<text x="271" y="464">-std::map&lt;int,int,std::less&lt;int&gt;,std::allocator&lt;std::pair&lt;int,</text>
<text x="278" y="473">int&gt; &gt; &gt; mFileTypeIndexMap</text>
<text x="271" y="482">-std::vector&lt;ModelType,std::allocator&lt;ModelType&gt; &gt; mPotentialRemapInd</text>
<text x="278" y="491">icesTypes</text>
<text x="271" y="503">+parse(char buf)</text>
<text x="271" y="512">-updateDeclTypeIndices(ModelTypeRef decl)</text>
<text x="271" y="521">-updateStatementTypeIndices(ModelStatements stmt)</text>
<text x="271" y="530">-updateTypeIndices()</text>
<text x="271" y="566">-findParentInStack(XmiElementTypes type, bool afterAddingSelf)</text>
<text x="271" y="575">-setDeclAttr(string&lt;&lt;typedef&gt;&gt; attrName, string&lt;&lt;typedef&gt;&gt; attrVal,</text>
<text x="278" y="584"> ModelDeclarator decl)</text>
<text x="271" y="593">-addFuncParams(OovStringRef attrName, OovStringRef attrVal, </text>
<text x="278" y="602">ModelOperation oper)</text>
<text x="271" y="611">-addFuncStatements(OovStringRef attrName, OovStringRef attrVal,</text>
<text x="278" y="620"> ModelOperation oper)</text>
<text x="271" y="629">+XmiParser(ModelData model)</text>
<text x="271" y="638">+setStartingTypeIndex(int index)</text>
<text x="271" y="647">+getNextTypeIndex()</text>
<text x="271" y="656">-addClass(ModelClassifier obj)</text>
<text x="271" y="665">-addAttrs(ModelClassifier obj)</text>
<text x="271" y="674">-addOpers(ModelClassifier obj)</text>
<text x="271" y="683">-dumpTypeMap(char str1, char str2)</text>
</g>
<g stroke="none" font-style="italic">
<text x="271" y="539">-onOpenElem(char name, int len)</text>
<text x="271" y="548">-onCloseElem(char , int )</text>
<text x="271" y="557">-onAttr(char name, int nameLen, char val, int valLen)</text>
</g>
<g  fill="#f5f5ff" stroke="#000000" style="stroke-width:1">
<line x1="323" y1="295" x2="370" y2="333" />
<circle cx="333" cy="303" r="5" style="fill:#ffffff" />
<circle cx="339" cy="308" r="2" style="fill:#ffffff" />
<circle cx="346" cy="313" r="5" style="fill:#000000" />
<circle cx="346" cy="313" r="2" style="fill:#000000" />
<polygon points="323,295 326,303 333,303 331,296 323,295 " style="fill:#ffffff" />
<line x1="152" y1="320" x2="139" y2="420" />
<circle cx="150" cy="333" r="5" style="fill:#ffffff" />
<circle cx="148" cy="349" r="5" style="fill:#000000" />
<circle cx="148" cy="349" r="2" style="fill:#000000" />
<polygon points="152,320 147,327 151,333 155,328 152,320 " style="fill:#000000" />
<line x1="186" y1="320" x2="192" y2="362" />
<circle cx="187" cy="333" r="5" style="fill:#ffffff" />
<circle cx="190" cy="349" r="5" style="fill:#000000" />
<circle cx="190" cy="349" r="2" style="fill:#000000" />
<polygon points="186,320 183,328 187,333 191,327 186,320 " style="fill:#000000" />
<line x1="323" y1="134" x2="429" y2="106" />
<circle cx="336" cy="130" r="5" style="fill:#ffffff" />
<circle cx="352" cy="126" r="5" style="fill:#000000" />
<circle cx="352" cy="126" r="2" style="fill:#000000" />
<polygon points="323,134 331,136 336,131 329,128 323,134 " style="fill:#000000" />
<line x1="323" y1="157" x2="418" y2="147" />
<circle cx="336" cy="155" r="5" style="fill:#ffffff" />
<circle cx="352" cy="153" r="5" style="fill:#000000" />
<circle cx="352" cy="153" r="2" style="fill:#000000" />
<polygon points="323,157 331,160 336,156 330,152 323,157 " style="fill:#000000" />
<line x1="323" y1="102" x2="434" y2="50" />
<circle cx="335" cy="96" r="5" style="fill:#ffffff" />
<line x1="434" y1="50" x2="323" y2="102" style="stroke-dasharray: 4, 4 "/>
<line x1="323" y1="102" x2="336" y2="102" />
<line x1="323" y1="102" x2="332" y2="92" />
<circle cx="406" cy="62" r="5" style="fill:#ffffff" />
<circle cx="406" cy="62" r="2" style="fill:#ffffff" />
<polygon points="434,50 421,50 425,60 434,50 " style="fill:#ffffff" />
<line x1="213" y1="388" x2="270" y2="424" />
<circle cx="258" cy="416" r="5" style="fill:#ffffff" />
<circle cx="252" cy="412" r="2" style="fill:#ffffff" />
<circle cx="244" cy="407" r="5" style="fill:#000000" />
<circle cx="244" cy="407" r="2" style="fill:#000000" />
<polygon points="270,424 266,417 259,417 262,424 270,424 " style="fill:#ffffff" />
<line x1="493" y1="322" x2="478" y2="389" />
<circle cx="486" cy="351" r="5" style="fill:#000000" />
<circle cx="486" cy="351" r="2" style="fill:#000000" />
<polygon points="493,322 485,333 495,335 493,322 " style="fill:#ffffff" />
<circle cx="481" cy="375" r="5" style="fill:#ffffff" />
</g>
</svg>