<svg xmlns="http://www.w3.org/2000/svg" version="1.1"
  font-family="Arial, Helvetica, sans-serif" font-size="10.000000" 
  width="603" height="422">
<g  fill="#f5fff5" stroke="#000000" style="stroke-width:1">
<rect x="19" y="278" width="133" height="143" />
<line x1="19" y1="291" x2="152" y2="291" />
<polygon points="132,299 144,304 144,294 132,299 " style="fill:#ffffff" />
<polygon points="132,313 139,317 146,313 139,309 132,313 " style="fill:#ffffff" />
<polygon points="132,327 139,331 146,327 139,323 132,327 " style="fill:#000000" />
<polygon points="132,341 140,346 136,341 140,336 132,341 " style="fill:#ffffff" />
<circle cx="132" cy="355" r="5" style="fill:#ffffff" />
<circle cx="132" cy="369" r="5" style="fill:#ffffff" />
<circle cx="139" cy="369" r="2" style="fill:#ffffff" />
<circle cx="132" cy="383" r="5" style="fill:#ffffff" />
<circle cx="132" cy="383" r="2" style="fill:#ffffff" />
<circle cx="132" cy="397" r="5" style="fill:#ffffff" />
<circle cx="132" cy="397" r="2" style="fill:#000000" />
<circle cx="132" cy="411" r="5" style="fill:#000000" />
<circle cx="132" cy="411" r="2" style="fill:#000000" />
</g>
<g stroke="none">
<text x="20" y="287">Relations Key</text>
<text x="20" y="301">Generalization</text>
<text x="20" y="315">Aggregation(reference)</text>
<text x="20" y="329">Composition(owned)</text>
<text x="20" y="343">Const</text>
<text x="20" y="357">Method Variable</text>
<text x="20" y="371">Method Parameter</text>
<text x="20" y="385">Public</text>
<text x="20" y="399">Protected</text>
<text x="20" y="413">Private</text>
</g>
<g  fill="#f5fff5" stroke="#000000" style="stroke-width:1">
<rect x="19" y="14" width="305" height="242" />
<line x1="19" y1="35" x2="324" y2="35" />
<line x1="19" y1="83" x2="324" y2="83" />
</g>
<g stroke="none">
<text x="20" y="23">OperationDiagramView</text>
<text x="20" y="32">oovaide</text>
<text x="20" y="44">-GuiOptions mGuiOptions</text>
<text x="20" y="53">-OperationDiagram mOperationDiagram</text>
<text x="20" y="62">-OperationDiagramListener mListener</text>
<text x="20" y="71">-GtkCairoContext mCairoContext</text>
<text x="20" y="80">-NullDrawer mNullDrawer</text>
<text x="20" y="92">+graphButtonPressEvent(GdkEventButton&lt;&lt;typedef&gt;&gt; event)</text>
<text x="20" y="101">+graphButtonReleaseEvent(GdkEventButton&lt;&lt;typedef&gt;&gt; event)</text>
<text x="20" y="110">+drawToDrawingArea()</text>
<text x="20" y="119">+drawSvgDiagram(FILE&lt;&lt;typedef&gt;&gt; fp)</text>
<text x="20" y="128">+gotoClass(OovStringRef className)</text>
<text x="20" y="137">+gotoOperation(OperationCall oper)</text>
<text x="20" y="146">+viewSource(OovStringRef module, unsigned int lineNum)</text>
<text x="20" y="155">-updateDrawingAreaSize()</text>
<text x="20" y="164">+OperationDiagramView(GuiOptions guiOptions)</text>
<text x="20" y="173">+initialize(ModelData modelData, OperationDiagramListener </text>
<text x="27" y="182">listener)</text>
<text x="20" y="191">+clearGraphAndAddOperation(OovStringRef className, </text>
<text x="27" y="200">OovStringRef opName, bool isConst)</text>
<text x="20" y="209">+restart()</text>
<text x="20" y="218">+getDiagram()</text>
<text x="20" y="227">+isModified()</text>
<text x="20" y="236">+requestRedraw()</text>
<text x="20" y="245">-setCairoContext()</text>
<text x="20" y="254">-getDiagramWidget()</text>
</g>
<g stroke="none" font-style="italic">
</g>
<g  fill="#f5fff5" stroke="#000000" style="stroke-width:1">
<rect x="195" y="296" width="90" height="26" />
<line x1="195" y1="317" x2="285" y2="317" />
<line x1="195" y1="320" x2="285" y2="320" />
</g>
<g stroke="none">
<text x="196" y="305">OperationDiagram</text>
<text x="196" y="314">oovaide/BLL</text>
</g>
<g stroke="none" font-style="italic">
</g>
<g  fill="#f5fff5" stroke="#000000" style="stroke-width:1">
<rect x="317" y="295" width="201" height="62" />
<line x1="317" y1="316" x2="518" y2="316" />
<line x1="317" y1="319" x2="518" y2="319" />
</g>
<g stroke="none">
<text x="318" y="304">OperationDiagramListener</text>
<text x="318" y="313">oovaide</text>
</g>
<g stroke="none" font-style="italic">
<text x="318" y="328">+~OperationDiagramListener()</text>
<text x="318" y="337">+gotoClass(OovStringRef className)</text>
<text x="318" y="346">+gotoOperation(OovStringRef className,</text>
<text x="325" y="355"> OovStringRef operName, bool isConst)</text>
</g>
<g  fill="#f5fff5" stroke="#000000" style="stroke-width:1">
<rect x="366" y="14" width="235" height="80" />
<line x1="366" y1="35" x2="601" y2="35" />
<line x1="366" y1="47" x2="601" y2="47" />
</g>
<g stroke="none">
<text x="367" y="23">GtkCairoContext</text>
<text x="367" y="32">oovaide</text>
<text x="367" y="44">-cairo_t&lt;&lt;typedef&gt;&gt; mCr</text>
<text x="367" y="56">+GtkCairoContext(GtkWidget&lt;&lt;typedef&gt;&gt; widget)</text>
<text x="367" y="65">+setContext(GtkWidget&lt;&lt;typedef&gt;&gt; widget)</text>
<text x="367" y="74">+clear()</text>
<text x="367" y="83">+~GtkCairoContext()</text>
<text x="367" y="92">+getCairo()</text>
</g>
<g stroke="none" font-style="italic">
</g>
<g  fill="#f5fff5" stroke="#000000" style="stroke-width:1">
<rect x="387" y="119" width="215" height="143" />
<line x1="387" y1="140" x2="602" y2="140" />
<line x1="387" y1="152" x2="602" y2="152" />
</g>
<g stroke="none">
<text x="388" y="128">NullDrawer</text>
<text x="388" y="137">oovaide</text>
<text x="388" y="149">#cairo_t&lt;&lt;typedef&gt;&gt; cr</text>
<text x="388" y="179">+NullDrawer(cairo_t&lt;&lt;typedef&gt;&gt; c)</text>
<text x="388" y="188">+setGraphicsLib(cairo_t&lt;&lt;typedef&gt;&gt; c)</text>
<text x="388" y="197">+haveCr()</text>
</g>
<g stroke="none" font-style="italic">
<text x="388" y="161">+getTextExtentWidth(OovStringRef )</text>
<text x="388" y="170">+getTextExtentHeight(OovStringRef )</text>
<text x="388" y="206">+setDiagramSize(GraphSize&lt;&lt;typedef&gt;&gt; )</text>
<text x="388" y="215">+drawRect(GraphRect )</text>
<text x="388" y="224">+drawLine(GraphPoint , GraphPoint , bool )</text>
<text x="388" y="233">+drawCircle(GraphPoint , int , Color )</text>
<text x="388" y="242">+drawEllipse(GraphRect )</text>
<text x="388" y="251">+drawPoly(OovPolygon&lt;&lt;typedef&gt;&gt; , Color )</text>
<text x="388" y="260">+drawText(GraphPoint , OovStringRef )</text>
</g>
<g  fill="#f5f5ff" stroke="#000000" style="stroke-width:1">
<line x1="218" y1="256" x2="235" y2="296" />
<circle cx="223" cy="268" r="5" style="fill:#ffffff" />
<circle cx="229" cy="283" r="5" style="fill:#000000" />
<circle cx="229" cy="283" r="2" style="fill:#000000" />
<polygon points="218,256 217,264 223,268 225,261 218,256 " style="fill:#000000" />
<line x1="323" y1="253" x2="378" y2="295" />
<circle cx="334" cy="261" r="5" style="fill:#ffffff" />
<circle cx="339" cy="265" r="2" style="fill:#ffffff" />
<circle cx="346" cy="271" r="5" style="fill:#000000" />
<circle cx="346" cy="271" r="2" style="fill:#000000" />
<polygon points="323,253 326,261 334,261 331,254 323,253 " style="fill:#ffffff" />
<line x1="323" y1="96" x2="366" y2="84" />
<circle cx="336" cy="92" r="5" style="fill:#ffffff" />
<circle cx="351" cy="87" r="5" style="fill:#000000" />
<circle cx="351" cy="87" r="2" style="fill:#000000" />
<polygon points="323,96 331,98 336,93 329,90 323,96 " style="fill:#000000" />
<line x1="323" y1="160" x2="387" y2="172" />
<circle cx="336" cy="162" r="5" style="fill:#ffffff" />
<circle cx="352" cy="165" r="5" style="fill:#000000" />
<circle cx="352" cy="165" r="2" style="fill:#000000" />
<polygon points="323,160 329,165 336,162 331,158 323,160 " style="fill:#000000" />
</g>
</svg>