<svg xmlns="http://www.w3.org/2000/svg" version="1.1"
  font-family="Arial, Helvetica, sans-serif" font-size="10.000000" 
  width="723" height="878">
<g  fill="#f5fff5" stroke="#000000" style="stroke-width:1">
<rect x="587" y="730" width="133" height="143" />
<line x1="587" y1="743" x2="720" y2="743" />
<polygon points="700,751 712,756 712,746 700,751 " style="fill:#ffffff" />
<polygon points="700,765 707,769 714,765 707,761 700,765 " style="fill:#ffffff" />
<polygon points="700,779 707,783 714,779 707,775 700,779 " style="fill:#000000" />
<polygon points="700,793 708,798 704,793 708,788 700,793 " style="fill:#ffffff" />
<circle cx="700" cy="807" r="5" style="fill:#ffffff" />
<circle cx="700" cy="821" r="5" style="fill:#ffffff" />
<circle cx="707" cy="821" r="2" style="fill:#ffffff" />
<circle cx="700" cy="835" r="5" style="fill:#ffffff" />
<circle cx="700" cy="835" r="2" style="fill:#ffffff" />
<circle cx="700" cy="849" r="5" style="fill:#ffffff" />
<circle cx="700" cy="849" r="2" style="fill:#000000" />
<circle cx="700" cy="863" r="5" style="fill:#000000" />
<circle cx="700" cy="863" r="2" style="fill:#000000" />
</g>
<g stroke="none">
<text x="588" y="739">Relations Key</text>
<text x="588" y="753">Generalization</text>
<text x="588" y="767">Aggregation(reference)</text>
<text x="588" y="781">Composition(owned)</text>
<text x="588" y="795">Const</text>
<text x="588" y="809">Method Variable</text>
<text x="588" y="823">Method Parameter</text>
<text x="588" y="837">Public</text>
<text x="588" y="851">Protected</text>
<text x="588" y="865">Private</text>
</g>
<g  fill="#f5fff5" stroke="#000000" style="stroke-width:1">
<rect x="15" y="14" width="337" height="314" />
<line x1="15" y1="35" x2="352" y2="35" />
<line x1="15" y1="101" x2="352" y2="101" />
</g>
<g stroke="none">
<text x="16" y="23">RootDirPackage</text>
<text x="16" y="32">oovCommon</text>
<text x="16" y="44">#OovString mName</text>
<text x="16" y="53">#FilePath mRootDir</text>
<text x="16" y="62">#OovString mLibDir</text>
<text x="16" y="71">#OovString mLibNames</text>
<text x="16" y="80">#OovString mIncludeDir</text>
<text x="16" y="89">#OovString mExternalReferenceDir</text>
<text x="16" y="98">#OovString mScannedLibFilePaths</text>
<text x="16" y="110">+addUndefinedPackage(OovString pkgName, NameValueFile file)</text>
<text x="16" y="119">+appendAbsoluteIncDir(OovStringRef dir)</text>
<text x="16" y="128">+appendAbsoluteLibName(OovStringRef fn)</text>
<text x="16" y="137">+setOrderedLibs(OovStringVec libDirs, OovStringVec libNames)</text>
<text x="16" y="146">+setRootDirPackage(OovStringRef rootDir)</text>
<text x="16" y="155">+getExtRefDirs()</text>
<text x="16" y="164">+getLibraryNames()</text>
<text x="16" y="173">+getScannedLibraryFilePaths()</text>
<text x="16" y="182">+getIncludeDirs()</text>
<text x="16" y="191">+getLibraryDirs()</text>
<text x="16" y="200">+loadFromMap(OovStringRef pkgName, NameValueFile file)</text>
<text x="16" y="209">+saveToMap(NameValueFile file)</text>
<text x="16" y="218">#getValAddRootToVector(OovStringRef tagName, eFilePathTypes fpt)</text>
<text x="16" y="227">+RootDirPackage()</text>
<text x="16" y="236">+RootDirPackage(OovStringRef pkgName, OovStringRef rootDir)</text>
<text x="16" y="245">+setRootDir(OovStringRef rootDir)</text>
<text x="16" y="254">+setExternalReferenceDir(OovString extRefDir)</text>
<text x="16" y="263">+getPkgName()</text>
<text x="16" y="272">+getRootDir()</text>
<text x="16" y="281">+getIncludeDirsAsString()</text>
<text x="16" y="290">+getLibraryDirsAsString()</text>
<text x="16" y="299">+getLibraryNamesAsString()</text>
<text x="16" y="308">+getExtRefDirsAsString()</text>
<text x="16" y="317">+needDirScan()</text>
<text x="16" y="326">+areLibraryNamesOrdered()</text>
</g>
<g  fill="#f5fff5" stroke="#000000" style="stroke-width:1">
<rect x="415" y="15" width="247" height="179" />
<line x1="415" y1="36" x2="662" y2="36" />
<line x1="415" y1="57" x2="662" y2="57" />
</g>
<g stroke="none">
<text x="416" y="24">Package</text>
<text x="416" y="33">oovCommon</text>
<text x="416" y="45">-OovString mCompileArgs</text>
<text x="416" y="54">-OovString mLinkArgs</text>
<text x="416" y="66">+getCompileArgs()</text>
<text x="416" y="75">+getLinkArgs()</text>
<text x="416" y="84">+loadFromMap(OovStringRef name, NameValueFil</text>
<text x="423" y="93">e file)</text>
<text x="416" y="102">+saveToMap(NameValueFile file)</text>
<text x="416" y="111">+Package()</text>
<text x="416" y="120">+Package(OovStringRef pkgName, OovStringRef </text>
<text x="423" y="129">rootDir)</text>
<text x="416" y="138">+~Package()</text>
<text x="416" y="147">+setCompileInfo(OovStringRef incDir,</text>
<text x="423" y="156"> OovStringRef compileArgs)</text>
<text x="416" y="165">+setLinkInfo(OovStringRef libDir, OovStringR</text>
<text x="423" y="174">ef libNames, OovStringRef linkArgs)</text>
<text x="416" y="183">+getCompileArgsAsStr()</text>
<text x="416" y="192">+getLinkArgsAsStr()</text>
</g>
<g  fill="#f5fff5" stroke="#000000" style="stroke-width:1">
<rect x="392" y="228" width="166" height="26" />
<line x1="392" y1="249" x2="558" y2="249" />
<line x1="392" y1="252" x2="558" y2="252" />
</g>
<g stroke="none">
<text x="393" y="237">std::vector&lt;Package,std::allocator&lt;</text>
<text x="393" y="246">  Package&gt; &gt;</text>
</g>
<g  fill="#f5fff5" stroke="#000000" style="stroke-width:1">
<rect x="17" y="395" width="166" height="89" />
<line x1="17" y1="416" x2="183" y2="416" />
<line x1="17" y1="428" x2="183" y2="428" />
</g>
<g stroke="none">
<text x="18" y="404">BuildPackages</text>
<text x="18" y="413">oovCommon</text>
<text x="18" y="425">#NameValueFile mFile</text>
<text x="18" y="437">+BuildPackages(bool readNow)</text>
<text x="18" y="446">+read()</text>
<text x="18" y="455">+getPackage(OovStringRef name)</text>
<text x="18" y="464">+getPackages()</text>
<text x="18" y="473">+insertPackage(Package pkg)</text>
<text x="18" y="482">+savePackages()</text>
</g>
<g  fill="#f5fff5" stroke="#000000" style="stroke-width:1">
<rect x="507" y="268" width="215" height="89" />
<line x1="507" y1="289" x2="722" y2="289" />
<line x1="507" y1="301" x2="722" y2="301" />
</g>
<g stroke="none">
<text x="508" y="277">Packages</text>
<text x="508" y="286">oovCommon</text>
<text x="508" y="298">#NameValueFile mFile</text>
<text x="508" y="310">+getPackage(OovStringRef name)</text>
<text x="508" y="319">+removePackage(OovString name)</text>
<text x="508" y="328">+getPackages()</text>
<text x="508" y="337">+read(OovStringRef fn)</text>
<text x="508" y="346">+insertPackage(Package pkg)</text>
<text x="508" y="355">-addUndefinedPackage(OovStringRef name)</text>
</g>
<g  fill="#f5fff5" stroke="#000000" style="stroke-width:1">
<rect x="271" y="353" width="211" height="161" />
<line x1="271" y1="374" x2="482" y2="374" />
<line x1="271" y1="386" x2="482" y2="386" />
</g>
<g stroke="none">
<text x="272" y="362">NameValueFile</text>
<text x="272" y="371">oovCommon</text>
<text x="272" y="383">-OovString mFilename</text>
<text x="272" y="395">+readFile()</text>
<text x="272" y="404">+writeFile()</text>
<text x="272" y="413">+readFile(&lt;&lt;typedef&gt;&gt;FILE fp)</text>
<text x="272" y="422">+writeFile(&lt;&lt;typedef&gt;&gt;FILE fp)</text>
<text x="272" y="431">+readFileShared()</text>
<text x="272" y="440">+writeFileExclusiveReadUpdate(SharedFile </text>
<text x="279" y="449">file)</text>
<text x="272" y="458">+writeFileExclusive(SharedFile file)</text>
<text x="272" y="467">-readOpenedFile(SharedFile file)</text>
<text x="272" y="476">+NameValueFile()</text>
<text x="272" y="485">+NameValueFile(OovStringRef fn)</text>
<text x="272" y="494">+getFilename()</text>
<text x="272" y="503">+setFilename(OovStringRef fn)</text>
<text x="272" y="512">+seekStart(&lt;&lt;typedef&gt;&gt;FILE fp)</text>
</g>
<g  fill="#f5fff5" stroke="#000000" style="stroke-width:1">
<rect x="17" y="545" width="375" height="332" />
<line x1="17" y1="566" x2="392" y2="566" />
<line x1="17" y1="659" x2="392" y2="659" />
</g>
<g stroke="none">
<text x="18" y="554">ProjectReader</text>
<text x="18" y="563">oovCommon</text>
<text x="18" y="575">-OovStringVec mCompileArgs</text>
<text x="18" y="584">-&lt;&lt;typedef&gt;&gt;IndexedStringVec mLinkArgs</text>
<text x="18" y="593">-OovStringVec mExternalRootArgs</text>
<text x="18" y="602">-&lt;&lt;typedef&gt;&gt;IndexedStringVec mExternalPackageNames</text>
<text x="18" y="611">-OovStringVec mPackageCrcCompileArgs</text>
<text x="18" y="620">-OovStringVec mPackageCrcLinkArgs</text>
<text x="18" y="629">-OovStringVec mPackageCrcNames</text>
<text x="18" y="638">-ProjectPackages mProjectPackages</text>
<text x="18" y="647">-BuildPackages mBuildPackages</text>
<text x="18" y="656">-bool mVerbose</text>
<text x="18" y="668">+miniReadOovProject(OovStringRef oovProjectDir)</text>
<text x="18" y="677">+readOovProject(OovStringRef oovProjectDir, OovStringRef buildConfigName)</text>
<text x="18" y="686">+getExternalPackageLinkOrder(OovStringRef pkgName)</text>
<text x="18" y="695">+getAllCrcCompileArgs()</text>
<text x="18" y="704">+getAllCrcLinkArgs()</text>
<text x="18" y="713">+getProjectExcludeDirs()</text>
<text x="18" y="722">-parseArgs(OovStringVec strs)</text>
<text x="18" y="731">-handleExternalPackage(OovStringRef pkgName)</text>
<text x="18" y="740">+ProjectReader()</text>
<text x="18" y="749">+getProjectPackages()</text>
<text x="18" y="758">+getBuildPackages()</text>
<text x="18" y="767">+getBuildPackages()</text>
<text x="18" y="776">+getCompileArgs()</text>
<text x="18" y="785">+getLinkArgs()</text>
<text x="18" y="794">+getExternalArgs()</text>
<text x="18" y="803">+getSrcRootDirectory()</text>
<text x="18" y="812">+getVerbose()</text>
<text x="18" y="821">-addCompileArg(OovStringRef str)</text>
<text x="18" y="830">-addLinkArg(unsigned int linkOrderIndex, OovStringRef str)</text>
<text x="18" y="839">-addExternalArg(OovStringRef str)</text>
<text x="18" y="848">-addExternalPackageName(unsigned int linkOrderIndex, OovStringRef str)</text>
<text x="18" y="857">-addPackageCrcName(OovStringRef pkgName)</text>
<text x="18" y="866">-addPackageCrcCompileArg(OovStringRef str)</text>
<text x="18" y="875">-addPackageCrcLinkArg(OovStringRef str)</text>
</g>
<g  fill="#f5fff5" stroke="#000000" style="stroke-width:1">
<rect x="560" y="519" width="160" height="62" />
<line x1="560" y1="540" x2="720" y2="540" />
<line x1="560" y1="543" x2="720" y2="543" />
</g>
<g stroke="none">
<text x="561" y="528">ProjectPackages</text>
<text x="561" y="537">oovCommon</text>
<text x="561" y="552">+ProjectPackages(bool readNow)</text>
<text x="561" y="561">+read()</text>
<text x="561" y="570">+getFilename()</text>
<text x="561" y="579">+savePackages()</text>
</g>
<g  fill="#f5fff5" stroke="#000000" style="stroke-width:1">
<rect x="425" y="649" width="111" height="26" />
<line x1="425" y1="670" x2="536" y2="670" />
<line x1="425" y1="673" x2="536" y2="673" />
</g>
<g stroke="none">
<text x="426" y="658">ProjectPackagesDialog</text>
<text x="426" y="667">oovcde</text>
</g>
<g  fill="#f5fff5" stroke="#000000" style="stroke-width:1">
<rect x="622" y="649" width="94" height="26" />
<line x1="622" y1="670" x2="716" y2="670" />
<line x1="622" y1="673" x2="716" y2="673" />
</g>
<g stroke="none">
<text x="623" y="658">AddPackageDialog</text>
<text x="623" y="667">oovcde</text>
</g>
<g  fill="#f5f5ff" stroke="#000000" style="stroke-width:1">
<line x1="351" y1="140" x2="415" y2="127" />
<circle cx="380" cy="134" r="5" style="fill:#ffffff" />
<circle cx="380" cy="134" r="2" style="fill:#ffffff" />
<polygon points="351,140 364,142 362,133 351,140 " style="fill:#ffffff" />
<circle cx="401" cy="129" r="5" style="fill:#ffffff" />
<line x1="298" y1="328" x2="318" y2="353" />
<circle cx="306" cy="338" r="5" style="fill:#ffffff" />
<circle cx="311" cy="344" r="2" style="fill:#ffffff" />
<line x1="189" y1="328" x2="198" y2="545" />
<circle cx="197" cy="531" r="5" style="fill:#ffffff" />
<line x1="277" y1="328" x2="473" y2="649" />
<circle cx="465" cy="637" r="5" style="fill:#ffffff" />
<line x1="498" y1="193" x2="480" y2="228" />
<line x1="422" y1="193" x2="157" y2="395" />
<polygon points="157,395 166,395 160,393 159,386 157,395 " style="fill:#ffffff" />
<circle cx="168" cy="386" r="5" style="fill:#ffffff" />
<circle cx="180" cy="376" r="5" style="fill:#000000" />
<circle cx="180" cy="376" r="2" style="fill:#000000" />
<line x1="570" y1="193" x2="598" y2="268" />
<polygon points="598,268 600,259 597,265 590,263 598,268 " style="fill:#ffffff" />
<circle cx="593" cy="254" r="5" style="fill:#ffffff" />
<circle cx="587" cy="239" r="5" style="fill:#000000" />
<circle cx="587" cy="239" r="2" style="fill:#000000" />
<line x1="495" y1="193" x2="415" y2="353" />
<polygon points="495,193 487,197 494,196 496,202 495,193 " style="fill:#ffffff" />
<circle cx="488" cy="205" r="5" style="fill:#ffffff" />
<circle cx="485" cy="211" r="2" style="fill:#ffffff" />
<line x1="490" y1="193" x2="295" y2="545" />
<circle cx="301" cy="532" r="5" style="fill:#ffffff" />
<line x1="529" y1="193" x2="481" y2="649" />
<circle cx="482" cy="635" r="5" style="fill:#ffffff" />
<line x1="451" y1="254" x2="183" y2="396" />
<circle cx="195" cy="389" r="5" style="fill:#ffffff" />
<line x1="500" y1="254" x2="528" y2="268" />
<circle cx="515" cy="261" r="5" style="fill:#ffffff" />
<line x1="183" y1="438" x2="271" y2="435" />
<circle cx="196" cy="437" r="5" style="fill:#ffffff" />
<circle cx="212" cy="436" r="5" style="fill:#ffffff" />
<circle cx="212" cy="436" r="2" style="fill:#000000" />
<polygon points="183,438 190,442 196,438 190,434 183,438 " style="fill:#000000" />
<line x1="116" y1="483" x2="141" y2="545" />
<circle cx="135" cy="532" r="5" style="fill:#ffffff" />
<circle cx="129" cy="517" r="5" style="fill:#000000" />
<circle cx="129" cy="517" r="2" style="fill:#000000" />
<polygon points="141,545 142,537 136,533 134,540 141,545 " style="fill:#000000" />
<line x1="528" y1="356" x2="481" y2="380" />
<circle cx="515" cy="362" r="5" style="fill:#ffffff" />
<circle cx="501" cy="369" r="5" style="fill:#ffffff" />
<circle cx="501" cy="369" r="2" style="fill:#000000" />
<polygon points="528,356 520,356 516,362 524,363 528,356 " style="fill:#000000" />
<line x1="569" y1="356" x2="374" y2="545" />
<circle cx="384" cy="535" r="5" style="fill:#ffffff" />
<line x1="618" y1="356" x2="637" y2="519" />
<circle cx="621" cy="385" r="5" style="fill:#ffffff" />
<circle cx="621" cy="385" r="2" style="fill:#ffffff" />
<polygon points="618,356 615,369 624,368 618,356 " style="fill:#ffffff" />
<line x1="598" y1="356" x2="484" y2="649" />
<circle cx="489" cy="635" r="5" style="fill:#ffffff" />
<line x1="327" y1="513" x2="306" y2="545" />
<circle cx="310" cy="538" r="5" style="fill:#ffffff" />
<circle cx="310" cy="538" r="2" style="fill:#ffffff" />
<polygon points="327,513 316,520 325,526 327,513 " style="fill:#ffffff" />
<circle cx="313" cy="533" r="5" style="fill:#ffffff" />
<line x1="481" y1="479" x2="571" y2="519" />
<circle cx="558" cy="513" r="5" style="fill:#ffffff" />
<line x1="391" y1="642" x2="560" y2="579" />
<circle cx="404" cy="637" r="5" style="fill:#ffffff" />
<circle cx="419" cy="631" r="5" style="fill:#000000" />
<circle cx="419" cy="631" r="2" style="fill:#000000" />
<polygon points="391,642 399,643 404,638 396,636 391,642 " style="fill:#000000" />
<line x1="596" y1="581" x2="498" y2="649" />
<circle cx="509" cy="641" r="5" style="fill:#ffffff" />
<circle cx="522" cy="631" r="5" style="fill:#000000" />
<circle cx="522" cy="631" r="2" style="fill:#000000" />
<polygon points="498,649 506,649 509,642 501,641 498,649 " style="fill:#000000" />
<line x1="535" y1="662" x2="622" y2="662" />
<circle cx="549" cy="662" r="5" style="fill:#ffffff" />
</g>
</svg>