<svg xmlns="http://www.w3.org/2000/svg" version="1.1" width="1035" height="1073">
<g  fill="#f5fff5" stroke="#000000" style="stroke-width:1">
<rect x="901" y="929" width="133" height="143" />
<line x1="901" y1="942" x2="1034" y2="942" />
<polygon points="1014,950 1026,955 1026,945 1014,950 " style="fill:#ffffff" />
<polygon points="1014,964 1021,968 1028,964 1021,960 1014,964 " style="fill:#ffffff" />
<polygon points="1014,978 1021,982 1028,978 1021,974 1014,978 " style="fill:#000000" />
<polygon points="1014,992 1022,997 1018,992 1022,987 1014,992 " style="fill:#ffffff" />
<circle cx="1014" cy="1006" r="5" style="fill:#ffffff" />
<circle cx="1014" cy="1020" r="5" style="fill:#ffffff" />
<circle cx="1021" cy="1020" r="2" style="fill:#ffffff" />
<circle cx="1014" cy="1034" r="5" style="fill:#ffffff" />
<circle cx="1014" cy="1034" r="2" style="fill:#ffffff" />
<circle cx="1014" cy="1048" r="5" style="fill:#ffffff" />
<circle cx="1014" cy="1048" r="2" style="fill:#000000" />
<circle cx="1014" cy="1062" r="5" style="fill:#000000" />
<circle cx="1014" cy="1062" r="2" style="fill:#000000" />
</g>
<g font-size="10.000000" stroke="none">
<text x="902" y="938">Relations Key</text>
<text x="902" y="952">Generalization</text>
<text x="902" y="966">Aggregation(reference)</text>
<text x="902" y="980">Composition(owned)</text>
<text x="902" y="994">Const</text>
<text x="902" y="1008">Method Variable</text>
<text x="902" y="1022">Method Parameter</text>
<text x="902" y="1036">Public</text>
<text x="902" y="1050">Protected</text>
<text x="902" y="1064">Private</text>
</g>
<g  fill="#f5fff5" stroke="#000000" style="stroke-width:1">
<rect x="675" y="406" width="238" height="89" />
<line x1="675" y1="427" x2="913" y2="427" />
<line x1="675" y1="439" x2="913" y2="439" />
</g>
<g font-size="10.000000" stroke="none">
<text x="676" y="415">Packages</text>
<text x="676" y="424">/oovCommon/</text>
<text x="676" y="436">#NameValueFile mFile</text>
<text x="676" y="448">+Package getPackage(OovStringRef name)</text>
<text x="676" y="457">+void removePackage(OovString name)</text>
<text x="676" y="466">+std::vector&lt;Package&gt; getPackages()</text>
<text x="676" y="475">+void read(OovStringRef fn)</text>
<text x="676" y="484">+void insertPackage(Package pkg)</text>
<text x="676" y="493">-bool addUndefinedPackage(OovStringRef name)</text>
</g>
<g  fill="#f5fff5" stroke="#000000" style="stroke-width:1">
<rect x="501" y="333" width="77" height="26" />
<line x1="501" y1="354" x2="578" y2="354" />
<line x1="501" y1="357" x2="578" y2="357" />
</g>
<g font-size="10.000000" stroke="none">
<text x="502" y="342">NameValueFile</text>
<text x="502" y="351">/oovCommon/</text>
</g>
<g  fill="#f5fff5" stroke="#000000" style="stroke-width:1">
<rect x="645" y="552" width="182" height="53" />
<line x1="645" y1="573" x2="827" y2="573" />
<line x1="645" y1="576" x2="827" y2="576" />
</g>
<g font-size="10.000000" stroke="none">
<text x="646" y="561">ProjectPackages</text>
<text x="646" y="570">/oovCommon/</text>
<text x="646" y="585">+void ProjectPackages(bool readNow)</text>
<text x="646" y="594">+bool read()</text>
<text x="646" y="603">+void savePackages()</text>
</g>
<g  fill="#f5fff5" stroke="#000000" style="stroke-width:1">
<rect x="729" y="236" width="208" height="62" />
<line x1="729" y1="257" x2="937" y2="257" />
<line x1="729" y1="269" x2="937" y2="269" />
</g>
<g font-size="10.000000" stroke="none">
<text x="730" y="245">AvailablePackages</text>
<text x="730" y="254">/oovCommon/</text>
<text x="730" y="266">+Packages mPackages</text>
<text x="730" y="278">+void AvailablePackages()</text>
<text x="730" y="287">+OovStringVec getAvailablePackages()</text>
<text x="730" y="296">+Package getPackage(OovStringRef name)</text>
</g>
<g  fill="#f5fff5" stroke="#000000" style="stroke-width:1">
<rect x="483" y="66" width="201" height="188" />
<line x1="483" y1="87" x2="684" y2="87" />
<line x1="483" y1="108" x2="684" y2="108" />
</g>
<g font-size="10.000000" stroke="none">
<text x="484" y="75">Package</text>
<text x="484" y="84">/oovCommon/</text>
<text x="484" y="96">-OovString mCompileArgs</text>
<text x="484" y="105">-OovString mLinkArgs</text>
<text x="484" y="117">+OovStringVec getCompileArgs()</text>
<text x="484" y="126">+OovStringVec getLinkArgs()</text>
<text x="484" y="135">+void loadFromMap(OovStringRef name</text>
<text x="484" y="144">   , NameValueFile file)</text>
<text x="484" y="153">+void saveToMap(NameValueFile file)</text>
<text x="484" y="162">+void Package()</text>
<text x="484" y="171">+void Package(OovStringRef pkgName, </text>
<text x="484" y="180">   OovStringRef rootDir)</text>
<text x="484" y="189">+void ~Package()</text>
<text x="484" y="198">+void setCompileInfo(OovStringRef incDir</text>
<text x="484" y="207">   , OovStringRef compileArgs)</text>
<text x="484" y="216">+void setLinkInfo(OovStringRef libDir</text>
<text x="484" y="225">   , OovStringRef libNames, OovStringRef </text>
<text x="484" y="234">   linkArgs)</text>
<text x="484" y="243">+OovStringRef getCompileArgsAsStr()</text>
<text x="484" y="252">+OovStringRef getLinkArgsAsStr()</text>
</g>
<g  fill="#f5fff5" stroke="#000000" style="stroke-width:1">
<rect x="503" y="433" width="83" height="26" />
<line x1="503" y1="454" x2="586" y2="454" />
<line x1="503" y1="457" x2="586" y2="457" />
</g>
<g font-size="10.000000" stroke="none">
<text x="504" y="442">CompoundValue</text>
<text x="504" y="451">/oovCommon/</text>
</g>
<g  fill="#f5fff5" stroke="#000000" style="stroke-width:1">
<rect x="763" y="691" width="177" height="80" />
<line x1="763" y1="712" x2="940" y2="712" />
<line x1="763" y1="733" x2="940" y2="733" />
</g>
<g font-size="10.000000" stroke="none">
<text x="764" y="700">AddPackageDialog</text>
<text x="764" y="709">/oovcde/</text>
<text x="764" y="721">-GuiList mAllPackagesList</text>
<text x="764" y="730">-AvailablePackages mAvailPackages</text>
<text x="764" y="742">+void AddPackageDialog()</text>
<text x="764" y="751">+Package getPackage()</text>
<text x="764" y="760">+void selectPackage()</text>
<text x="764" y="769">+void ~AddPackageDialog()</text>
</g>
<g  fill="#f5fff5" stroke="#000000" style="stroke-width:1">
<rect x="459" y="548" width="151" height="44" />
<line x1="459" y1="569" x2="610" y2="569" />
<line x1="459" y1="572" x2="610" y2="572" />
</g>
<g font-size="10.000000" stroke="none">
<text x="460" y="557">OovStringVec</text>
<text x="460" y="566">/oovCommon/</text>
<text x="460" y="581">+OovString getStr(size_t index)</text>
<text x="460" y="590">+void deleteEmptyStrings()</text>
</g>
<g  fill="#f5fff5" stroke="#000000" style="stroke-width:1">
<rect x="106" y="415" width="208" height="89" />
<line x1="106" y1="436" x2="314" y2="436" />
<line x1="106" y1="448" x2="314" y2="448" />
</g>
<g font-size="10.000000" stroke="none">
<text x="107" y="424">BuildPackages</text>
<text x="107" y="433">/oovCommon/</text>
<text x="107" y="445">#NameValueFile mFile</text>
<text x="107" y="457">+void BuildPackages(bool readNow)</text>
<text x="107" y="466">+bool read()</text>
<text x="107" y="475">+Package getPackage(OovStringRef name)</text>
<text x="107" y="484">+std::vector&lt;Package&gt; getPackages()</text>
<text x="107" y="493">+void insertPackage(Package pkg)</text>
<text x="107" y="502">+void savePackages()</text>
</g>
<g  fill="#f5fff5" stroke="#000000" style="stroke-width:1">
<rect x="481" y="705" width="243" height="179" />
<line x1="481" y1="726" x2="724" y2="726" />
<line x1="481" y1="774" x2="724" y2="774" />
</g>
<g font-size="10.000000" stroke="none">
<text x="482" y="714">ProjectPackagesDialog</text>
<text x="482" y="723">/oovcde/</text>
<text x="482" y="735">-GuiList mProjectPackagesList</text>
<text x="482" y="744">-ProjectPackages mProjectPackages</text>
<text x="482" y="753">-string mBaseBuildArgs</text>
<text x="482" y="762">-string mLastSelectedPackage</text>
<text x="482" y="771">-bool mAllowSelection</text>
<text x="482" y="783">+void ProjectPackagesDialog(string baseBuildArgs)</text>
<text x="482" y="792">+void selectPackage()</text>
<text x="482" y="801">+void displayAddPackageDialog()</text>
<text x="482" y="810">+void removePackage()</text>
<text x="482" y="819">+void winScanDirectories()</text>
<text x="482" y="828">+void winSetEnableScanning()</text>
<text x="482" y="837">-void beforeRun()</text>
<text x="482" y="846">-void afterRun(bool ok)</text>
<text x="482" y="855">-void savePackage(string pkgName)</text>
<text x="482" y="864">-void updatePackageList()</text>
<text x="482" y="873">-void clearPackageDisplay()</text>
<text x="482" y="882">+void ~ProjectPackagesDialog()</text>
</g>
<g  fill="#f5fff5" stroke="#000000" style="stroke-width:1">
<rect x="35" y="589" width="398" height="332" />
<line x1="35" y1="610" x2="433" y2="610" />
<line x1="35" y1="703" x2="433" y2="703" />
</g>
<g font-size="10.000000" stroke="none">
<text x="36" y="598">ProjectReader</text>
<text x="36" y="607">/oovCommon/</text>
<text x="36" y="619">-OovStringVec mCompileArgs</text>
<text x="36" y="628">-IndexedStringVec mLinkArgs</text>
<text x="36" y="637">-OovStringVec mExternalRootArgs</text>
<text x="36" y="646">-IndexedStringVec mExternalPackageNames</text>
<text x="36" y="655">-OovStringVec mPackageCrcCompileArgs</text>
<text x="36" y="664">-OovStringVec mPackageCrcLinkArgs</text>
<text x="36" y="673">-OovStringVec mPackageCrcNames</text>
<text x="36" y="682">-ProjectPackages mProjectPackages</text>
<text x="36" y="691">-BuildPackages mBuildPackages</text>
<text x="36" y="700">-bool mVerbose</text>
<text x="36" y="712">+bool miniReadOovProject(OovStringRef oovProjectDir)</text>
<text x="36" y="721">+bool readOovProject(OovStringRef oovProjectDir, OovStringRef buildConfigName)</text>
<text x="36" y="730">+int getExternalPackageLinkOrder(OovStringRef pkgName)</text>
<text x="36" y="739">+OovStringVec getAllCrcCompileArgs()</text>
<text x="36" y="748">+OovStringVec getAllCrcLinkArgs()</text>
<text x="36" y="757">+CompoundValue getProjectExcludeDirs()</text>
<text x="36" y="766">-void parseArgs(OovStringVec strs)</text>
<text x="36" y="775">-void handleExternalPackage(OovStringRef pkgName)</text>
<text x="36" y="784">+void ProjectReader()</text>
<text x="36" y="793">+ProjectPackages getProjectPackages()</text>
<text x="36" y="802">+BuildPackages getBuildPackages()</text>
<text x="36" y="811">+BuildPackages getBuildPackages()</text>
<text x="36" y="820">+OovStringVec getCompileArgs()</text>
<text x="36" y="829">+IndexedStringVec getLinkArgs()</text>
<text x="36" y="838">+OovStringVec getExternalArgs()</text>
<text x="36" y="847">+OovStringRef getSrcRootDirectory()</text>
<text x="36" y="856">+bool getVerbose()</text>
<text x="36" y="865">-void addCompileArg(OovStringRef str)</text>
<text x="36" y="874">-void addLinkArg(int linkOrderIndex, OovStringRef str)</text>
<text x="36" y="883">-void addExternalArg(OovStringRef str)</text>
<text x="36" y="892">-void addExternalPackageName(int linkOrderIndex, OovStringRef str)</text>
<text x="36" y="901">-void addPackageCrcName(OovStringRef pkgName)</text>
<text x="36" y="910">-void addPackageCrcCompileArg(OovStringRef str)</text>
<text x="36" y="919">-void addPackageCrcLinkArg(OovStringRef str)</text>
</g>
<g  fill="#f5fff5" stroke="#000000" style="stroke-width:1">
<rect x="486" y="26" width="221" height="17" />
<line x1="486" y1="38" x2="707" y2="38" />
<line x1="486" y1="41" x2="707" y2="41" />
</g>
<g font-size="10.000000" stroke="none">
<text x="487" y="35">std::vector&lt;Package,std::allocator&lt;Package&gt; &gt;</text>
</g>
<g  fill="#f5fff5" stroke="#000000" style="stroke-width:1">
<rect x="714" y="101" width="103" height="17" />
<line x1="714" y1="113" x2="817" y2="113" />
<line x1="714" y1="116" x2="817" y2="116" />
</g>
<g font-size="10.000000" stroke="none">
<text x="715" y="110">std::vector&lt;Package&gt;</text>
</g>
<g  fill="#f5fff5" stroke="#000000" style="stroke-width:1">
<rect x="24" y="20" width="404" height="314" />
<line x1="24" y1="41" x2="428" y2="41" />
<line x1="24" y1="107" x2="428" y2="107" />
</g>
<g font-size="10.000000" stroke="none">
<text x="25" y="29">RootDirPackage</text>
<text x="25" y="38">/oovCommon/</text>
<text x="25" y="50">#OovString mName</text>
<text x="25" y="59">#FilePath mRootDir</text>
<text x="25" y="68">#OovString mLibDir</text>
<text x="25" y="77">#OovString mLibNames</text>
<text x="25" y="86">#OovString mIncludeDir</text>
<text x="25" y="95">#OovString mExternalReferenceDir</text>
<text x="25" y="104">#OovString mScannedLibFilePaths</text>
<text x="25" y="116">+bool addUndefinedPackage(OovString pkgName, NameValueFile file)</text>
<text x="25" y="125">+void appendAbsoluteIncDir(OovStringRef dir)</text>
<text x="25" y="134">+void appendAbsoluteLibName(OovStringRef fn)</text>
<text x="25" y="143">+void setOrderedLibs(OovStringVec libDirs, OovStringVec libNames)</text>
<text x="25" y="152">+void setRootDirPackage(OovStringRef rootDir)</text>
<text x="25" y="161">+OovStringVec getExtRefDirs()</text>
<text x="25" y="170">+OovStringVec getLibraryNames()</text>
<text x="25" y="179">+OovStringVec getScannedLibraryFilePaths()</text>
<text x="25" y="188">+OovStringVec getIncludeDirs()</text>
<text x="25" y="197">+OovStringVec getLibraryDirs()</text>
<text x="25" y="206">+void loadFromMap(OovStringRef pkgName, NameValueFile file)</text>
<text x="25" y="215">+void saveToMap(NameValueFile file)</text>
<text x="25" y="224">#OovStringVec getValAddRootToVector(OovStringRef tagName, eFilePathTypes fpt)</text>
<text x="25" y="233">+void RootDirPackage()</text>
<text x="25" y="242">+void RootDirPackage(OovStringRef pkgName, OovStringRef rootDir)</text>
<text x="25" y="251">+void setRootDir(OovStringRef rootDir)</text>
<text x="25" y="260">+void setExternalReferenceDir(OovString extRefDir)</text>
<text x="25" y="269">+OovString getPkgName()</text>
<text x="25" y="278">+FilePath getRootDir()</text>
<text x="25" y="287">+OovString getIncludeDirsAsString()</text>
<text x="25" y="296">+OovString getLibraryDirsAsString()</text>
<text x="25" y="305">+OovString getLibraryNamesAsString()</text>
<text x="25" y="314">+OovString getExtRefDirsAsString()</text>
<text x="25" y="323">+bool needDirScan()</text>
<text x="25" y="332">+bool areLibraryNamesOrdered()</text>
</g>
<g  fill="#f5f5ff" stroke="#000000" style="stroke-width:1">
<line x1="687" y1="406" x2="570" y2="359" />
<circle cx="659" cy="394" r="5" style="fill:#ffffff" />
<circle cx="659" cy="394" r="2" style="fill:#000000" />
<polygon points="687,406 682,399 675,401 679,407 687,406 " style="fill:#000000" />
<line x1="775" y1="494" x2="747" y2="552" />
<circle cx="761" cy="521" r="5" style="fill:#ffffff" />
<circle cx="761" cy="521" r="2" style="fill:#ffffff" />
<polygon points="775,494 765,503 775,507 775,494 " style="fill:#ffffff" />
<line x1="803" y1="406" x2="827" y2="298" />
<circle cx="820" cy="327" r="5" style="fill:#ffffff" />
<circle cx="820" cy="327" r="2" style="fill:#ffffff" />
<polygon points="827,298 821,304 824,311 829,306 827,298 " style="fill:#000000" />
<line x1="762" y1="406" x2="651" y2="254" />
<polygon points="762,406 762,397 760,403 753,403 762,406 " style="fill:#ffffff" />
<circle cx="753" cy="394" r="5" style="fill:#ffffff" />
<circle cx="744" cy="381" r="5" style="fill:#000000" />
<circle cx="744" cy="381" r="2" style="fill:#000000" />
<line x1="675" y1="449" x2="585" y2="446" />
<circle cx="661" cy="448" r="5" style="fill:#ffffff" />
<line x1="542" y1="333" x2="561" y2="254" />
<polygon points="561,254 554,260 561,257 564,263 561,254 " style="fill:#ffffff" />
<circle cx="557" cy="267" r="5" style="fill:#ffffff" />
<circle cx="556" cy="274" r="2" style="fill:#ffffff" />
<line x1="502" y1="359" x2="314" y2="424" />
<circle cx="342" cy="414" r="5" style="fill:#ffffff" />
<circle cx="342" cy="414" r="2" style="fill:#000000" />
<polygon points="314,424 322,425 327,420 319,418 314,424 " style="fill:#000000" />
<line x1="530" y1="359" x2="357" y2="589" />
<circle cx="511" cy="382" r="5" style="fill:#ffffff" />
<circle cx="511" cy="382" r="2" style="fill:#ffffff" />
<polygon points="530,359 518,366 527,372 530,359 " style="fill:#ffffff" />
<line x1="515" y1="333" x2="428" y2="286" />
<circle cx="440" cy="292" r="5" style="fill:#ffffff" />
<circle cx="446" cy="295" r="2" style="fill:#ffffff" />
<line x1="720" y1="604" x2="657" y2="705" />
<circle cx="672" cy="679" r="5" style="fill:#000000" />
<circle cx="672" cy="679" r="2" style="fill:#000000" />
<polygon points="657,705 664,701 664,694 657,697 657,705 " style="fill:#000000" />
<line x1="663" y1="604" x2="433" y2="685" />
<circle cx="461" cy="675" r="5" style="fill:#000000" />
<circle cx="461" cy="675" r="2" style="fill:#000000" />
<polygon points="433,685 441,686 446,681 438,679 433,685 " style="fill:#000000" />
<line x1="834" y1="298" x2="850" y2="691" />
<circle cx="848" cy="661" r="5" style="fill:#000000" />
<circle cx="848" cy="661" r="2" style="fill:#000000" />
<polygon points="850,691 854,684 850,678 846,684 850,691 " style="fill:#000000" />
<line x1="803" y1="298" x2="555" y2="548" />
<circle cx="793" cy="307" r="5" style="fill:#ffffff" />
<line x1="483" y1="240" x2="264" y2="415" />
<polygon points="264,415 273,415 267,413 266,406 264,415 " style="fill:#ffffff" />
<circle cx="274" cy="406" r="5" style="fill:#ffffff" />
<circle cx="287" cy="396" r="5" style="fill:#000000" />
<circle cx="287" cy="396" r="2" style="fill:#000000" />
<line x1="585" y1="254" x2="600" y2="705" />
<circle cx="599" cy="691" r="5" style="fill:#ffffff" />
<line x1="528" y1="254" x2="331" y2="589" />
<circle cx="338" cy="576" r="5" style="fill:#ffffff" />
<line x1="592" y1="66" x2="596" y2="42" />
<line x1="683" y1="132" x2="737" y2="117" />
<line x1="483" y1="164" x2="428" y2="168" />
<circle cx="457" cy="165" r="5" style="fill:#ffffff" />
<circle cx="457" cy="165" r="2" style="fill:#ffffff" />
<polygon points="428,168 441,172 440,162 428,168 " style="fill:#ffffff" />
<line x1="543" y1="459" x2="535" y2="548" />
<polygon points="543,459 537,466 543,462 548,467 543,459 " style="fill:#ffffff" />
<circle cx="541" cy="472" r="5" style="fill:#ffffff" />
<circle cx="541" cy="479" r="2" style="fill:#ffffff" />
<circle cx="537" cy="518" r="5" style="fill:#ffffff" />
<circle cx="537" cy="518" r="2" style="fill:#ffffff" />
<polygon points="535,548 541,536 531,535 535,548 " style="fill:#ffffff" />
<line x1="503" y1="447" x2="314" y2="455" />
<circle cx="327" cy="454" r="5" style="fill:#ffffff" />
<line x1="531" y1="459" x2="400" y2="589" />
<circle cx="409" cy="579" r="5" style="fill:#ffffff" />
<line x1="529" y1="433" x2="411" y2="334" />
<circle cx="421" cy="342" r="5" style="fill:#ffffff" />
<line x1="763" y1="753" x2="723" y2="764" />
<circle cx="736" cy="760" r="5" style="fill:#ffffff" />
<line x1="540" y1="592" x2="575" y2="705" />
<circle cx="570" cy="691" r="5" style="fill:#ffffff" />
<line x1="499" y1="592" x2="433" y2="633" />
<circle cx="444" cy="625" r="5" style="fill:#ffffff" />
<circle cx="458" cy="617" r="5" style="fill:#000000" />
<circle cx="458" cy="617" r="2" style="fill:#000000" />
<polygon points="433,633 441,633 444,626 437,626 433,633 " style="fill:#000000" />
<line x1="517" y1="548" x2="349" y2="334" />
<polygon points="349,334 349,343 351,337 358,336 349,334 " style="fill:#ffffff" />
<circle cx="357" cy="345" r="5" style="fill:#ffffff" />
<circle cx="367" cy="357" r="5" style="fill:#000000" />
<circle cx="367" cy="357" r="2" style="fill:#000000" />
<line x1="213" y1="503" x2="221" y2="589" />
<circle cx="218" cy="559" r="5" style="fill:#000000" />
<circle cx="218" cy="559" r="2" style="fill:#000000" />
<polygon points="221,589 224,581 220,576 216,582 221,589 " style="fill:#000000" />
</g>
</svg>