<svg xmlns="http://www.w3.org/2000/svg" version="1.1"
 font-family="Arial, Helvetica, sans-serif" font-size="10.00" width="655" height="879">
<g stroke="none">
<g  fill="#f5f5ff" stroke="#000000" style="stroke-width:1">
<rect x="7" y="7" width="62" height="9" />
</g>
<text x="9" y="14">ClassDrawer</text>
</g>
<g stroke="none">
<g  fill="#f5f5ff" stroke="#000000" style="stroke-width:1">
<rect x="88" y="7" width="58" height="9" />
</g>
<text x="90" y="14">ClassGraph</text>
</g>
<g stroke="none">
<g  fill="#f5f5ff" stroke="#000000" style="stroke-width:1">
<rect x="153" y="7" width="177" height="18" />
</g>
<text x="155" y="14">std::vector&lt;ClassNode,std::allocator&lt;</text>
<text x="155" y="23">  ClassNode&gt; &gt;</text>
</g>
<g stroke="none">
<g  fill="#f5f5ff" stroke="#000000" style="stroke-width:1">
<rect x="337" y="7" width="60" height="9" />
</g>
<text x="339" y="14">GraphPoint</text>
</g>
<g stroke="none">
<g  fill="#f5f5ff" stroke="#000000" style="stroke-width:1">
<rect x="404" y="7" width="78" height="9" />
</g>
<text x="406" y="14">DiagramDrawer</text>
</g>
<g stroke="none">
<g  fill="#f5f5ff" stroke="#000000" style="stroke-width:1">
<rect x="489" y="7" width="31" height="9" />
</g>
<text x="491" y="14">Color</text>
</g>
<g stroke="none">
<g  fill="#f5f5ff" stroke="#000000" style="stroke-width:1">
<rect x="527" y="7" width="60" height="9" />
</g>
<text x="529" y="14">DrawnLines</text>
</g>
<g stroke="none">
<g  fill="#f5f5ff" stroke="#000000" style="stroke-width:1">
<rect x="594" y="7" width="54" height="9" />
</g>
<text x="596" y="14">ClassNode</text>
</g>
<g  fill="#f5f5ff" stroke="#000000" style="stroke-width:1">
<line x1="7" y1="38" x2="44" y2="38" />
<line x1="40" y1="34" x2="44" y2="38" />
<line x1="40" y1="42" x2="44" y2="38" />
<line x1="46" y1="59" x2="117" y2="59" style="stroke-dasharray: 4, 4 " />
<line x1="113" y1="55" x2="117" y2="59" />
<line x1="113" y1="63" x2="117" y2="59" />
<line x1="46" y1="73" x2="241" y2="73" />
<line x1="237" y1="69" x2="241" y2="73" />
<line x1="237" y1="77" x2="241" y2="73" />
<line x1="46" y1="87" x2="117" y2="87" style="stroke-dasharray: 4, 4 " />
<line x1="113" y1="83" x2="117" y2="87" />
<line x1="113" y1="91" x2="117" y2="87" />
<line x1="46" y1="101" x2="367" y2="101" style="stroke-dasharray: 4, 4 " />
<line x1="363" y1="97" x2="367" y2="101" />
<line x1="363" y1="105" x2="367" y2="101" />
<line x1="46" y1="115" x2="443" y2="115" />
<line x1="439" y1="111" x2="443" y2="115" />
<line x1="439" y1="119" x2="443" y2="115" />
<line x1="48" y1="143" x2="117" y2="143" style="stroke-dasharray: 4, 4 " />
<line x1="113" y1="139" x2="117" y2="143" />
<line x1="113" y1="147" x2="117" y2="143" />
<line x1="48" y1="157" x2="241" y2="157" />
<line x1="237" y1="153" x2="241" y2="157" />
<line x1="237" y1="161" x2="241" y2="157" />
<line x1="48" y1="171" x2="117" y2="171" style="stroke-dasharray: 4, 4 " />
<line x1="113" y1="167" x2="117" y2="171" />
<line x1="113" y1="175" x2="117" y2="171" />
<line x1="48" y1="185" x2="241" y2="185" />
<line x1="237" y1="181" x2="241" y2="185" />
<line x1="237" y1="189" x2="241" y2="185" />
<line x1="48" y1="199" x2="69" y2="199" />
<line x1="69" y1="199" x2="69" y2="202" />
<line x1="48" y1="202" x2="69" y2="202" />
<line x1="46" y1="216" x2="504" y2="216" />
<line x1="500" y1="212" x2="504" y2="216" />
<line x1="500" y1="220" x2="504" y2="216" />
<line x1="46" y1="230" x2="504" y2="230" />
<line x1="500" y1="226" x2="504" y2="230" />
<line x1="500" y1="234" x2="504" y2="230" />
<line x1="46" y1="244" x2="443" y2="244" />
<line x1="439" y1="240" x2="443" y2="244" />
<line x1="439" y1="248" x2="443" y2="244" />
<line x1="46" y1="258" x2="557" y2="258" />
<line x1="553" y1="254" x2="557" y2="258" />
<line x1="553" y1="262" x2="557" y2="258" />
<line x1="48" y1="286" x2="117" y2="286" style="stroke-dasharray: 4, 4 " />
<line x1="113" y1="282" x2="117" y2="286" />
<line x1="113" y1="290" x2="117" y2="286" />
<line x1="48" y1="300" x2="241" y2="300" />
<line x1="237" y1="296" x2="241" y2="300" />
<line x1="237" y1="304" x2="241" y2="300" />
<line x1="50" y1="328" x2="117" y2="328" style="stroke-dasharray: 4, 4 " />
<line x1="113" y1="324" x2="117" y2="328" />
<line x1="113" y1="332" x2="117" y2="328" />
<line x1="50" y1="342" x2="241" y2="342" />
<line x1="237" y1="338" x2="241" y2="342" />
<line x1="237" y1="346" x2="241" y2="342" />
<line x1="50" y1="356" x2="117" y2="356" style="stroke-dasharray: 4, 4 " />
<line x1="113" y1="352" x2="117" y2="356" />
<line x1="113" y1="360" x2="117" y2="356" />
<line x1="50" y1="370" x2="117" y2="370" style="stroke-dasharray: 4, 4 " />
<line x1="113" y1="366" x2="117" y2="370" />
<line x1="113" y1="374" x2="117" y2="370" />
<line x1="50" y1="384" x2="117" y2="384" style="stroke-dasharray: 4, 4 " />
<line x1="113" y1="380" x2="117" y2="384" />
<line x1="113" y1="388" x2="117" y2="384" />
<line x1="50" y1="398" x2="241" y2="398" />
<line x1="237" y1="394" x2="241" y2="398" />
<line x1="237" y1="402" x2="241" y2="398" />
<line x1="50" y1="412" x2="621" y2="412" style="stroke-dasharray: 4, 4 " />
<line x1="617" y1="408" x2="621" y2="412" />
<line x1="617" y1="416" x2="621" y2="412" />
<line x1="50" y1="426" x2="117" y2="426" style="stroke-dasharray: 4, 4 " />
<line x1="113" y1="422" x2="117" y2="426" />
<line x1="113" y1="430" x2="117" y2="426" />
<line x1="50" y1="440" x2="241" y2="440" />
<line x1="237" y1="436" x2="241" y2="440" />
<line x1="237" y1="444" x2="241" y2="440" />
<line x1="50" y1="454" x2="621" y2="454" style="stroke-dasharray: 4, 4 " />
<line x1="617" y1="450" x2="621" y2="454" />
<line x1="617" y1="458" x2="621" y2="454" />
<line x1="56" y1="510" x2="367" y2="510" />
<line x1="363" y1="506" x2="367" y2="510" />
<line x1="363" y1="514" x2="367" y2="510" />
<line x1="56" y1="524" x2="367" y2="524" />
<line x1="363" y1="520" x2="367" y2="524" />
<line x1="363" y1="528" x2="367" y2="524" />
<line x1="56" y1="538" x2="557" y2="538" />
<line x1="553" y1="534" x2="557" y2="538" />
<line x1="553" y1="542" x2="557" y2="538" />
<line x1="54" y1="566" x2="117" y2="566" style="stroke-dasharray: 4, 4 " />
<line x1="113" y1="562" x2="117" y2="566" />
<line x1="113" y1="570" x2="117" y2="566" />
<line x1="54" y1="580" x2="241" y2="580" />
<line x1="237" y1="576" x2="241" y2="580" />
<line x1="237" y1="584" x2="241" y2="580" />
<line x1="54" y1="594" x2="117" y2="594" style="stroke-dasharray: 4, 4 " />
<line x1="113" y1="590" x2="117" y2="594" />
<line x1="113" y1="598" x2="117" y2="594" />
<line x1="54" y1="608" x2="241" y2="608" />
<line x1="237" y1="604" x2="241" y2="608" />
<line x1="237" y1="612" x2="241" y2="608" />
<line x1="54" y1="622" x2="75" y2="622" />
<line x1="75" y1="622" x2="75" y2="625" />
<line x1="54" y1="625" x2="75" y2="625" />
<line x1="52" y1="653" x2="117" y2="653" style="stroke-dasharray: 4, 4 " />
<line x1="113" y1="649" x2="117" y2="653" />
<line x1="113" y1="657" x2="117" y2="653" />
<line x1="52" y1="667" x2="117" y2="667" style="stroke-dasharray: 4, 4 " />
<line x1="113" y1="663" x2="117" y2="667" />
<line x1="113" y1="671" x2="117" y2="667" />
<line x1="52" y1="681" x2="241" y2="681" />
<line x1="237" y1="677" x2="241" y2="681" />
<line x1="237" y1="685" x2="241" y2="681" />
<line x1="52" y1="695" x2="117" y2="695" style="stroke-dasharray: 4, 4 " />
<line x1="113" y1="691" x2="117" y2="695" />
<line x1="113" y1="699" x2="117" y2="695" />
<line x1="52" y1="709" x2="241" y2="709" />
<line x1="237" y1="705" x2="241" y2="709" />
<line x1="237" y1="713" x2="241" y2="709" />
<line x1="52" y1="723" x2="73" y2="723" />
<line x1="73" y1="723" x2="73" y2="726" />
<line x1="52" y1="726" x2="73" y2="726" />
<line x1="52" y1="754" x2="117" y2="754" style="stroke-dasharray: 4, 4 " />
<line x1="113" y1="750" x2="117" y2="754" />
<line x1="113" y1="758" x2="117" y2="754" />
<line x1="52" y1="768" x2="117" y2="768" style="stroke-dasharray: 4, 4 " />
<line x1="113" y1="764" x2="117" y2="768" />
<line x1="113" y1="772" x2="117" y2="768" />
<line x1="52" y1="782" x2="241" y2="782" />
<line x1="237" y1="778" x2="241" y2="782" />
<line x1="237" y1="786" x2="241" y2="782" />
<line x1="52" y1="796" x2="117" y2="796" style="stroke-dasharray: 4, 4 " />
<line x1="113" y1="792" x2="117" y2="796" />
<line x1="113" y1="800" x2="117" y2="796" />
<line x1="52" y1="810" x2="241" y2="810" />
<line x1="237" y1="806" x2="241" y2="810" />
<line x1="237" y1="814" x2="241" y2="810" />
<line x1="52" y1="824" x2="73" y2="824" />
<line x1="73" y1="824" x2="73" y2="827" />
<line x1="52" y1="827" x2="73" y2="827" />
<line x1="46" y1="841" x2="504" y2="841" />
<line x1="500" y1="837" x2="504" y2="841" />
<line x1="500" y1="845" x2="504" y2="841" />
<line x1="46" y1="855" x2="504" y2="855" />
<line x1="500" y1="851" x2="504" y2="855" />
<line x1="500" y1="859" x2="504" y2="855" />
<line x1="46" y1="869" x2="443" y2="869" />
<line x1="439" y1="865" x2="443" y2="869" />
<line x1="439" y1="873" x2="443" y2="869" />
<polygon points="44,48 46,48 46,132 48,132 48,205 46,205 46,275 48,275 48,317 50,317 50,471 52,471 52,485 54,485 54,499 56,499 56,541 54,541 54,541 52,541 52,555 54,555 54,628 52,628 52,628 50,628 50,642 52,642 52,729 50,729 50,743 52,743 52,830 50,830 50,830 48,830 48,830 46,830 46,872 44,872 44,872 42,872 42,830 40,830 40,830 38,830 38,830 36,830 36,743 38,743 38,729 36,729 36,642 38,642 38,628 36,628 36,628 34,628 34,555 36,555 36,541 34,541 34,541 32,541 32,499 34,499 34,485 36,485 36,471 38,471 38,317 40,317 40,275 42,275 42,205 40,205 40,132 42,132 42,48 44,48 " style="fill:#f5f5ff" />
<polygon points="" style="fill:#f5f5ff" />
<polygon points="" style="fill:#f5f5ff" />
<polygon points="" style="fill:#f5f5ff" />
<polygon points="" style="fill:#f5f5ff" />
<polygon points="" style="fill:#f5f5ff" />
<polygon points="" style="fill:#f5f5ff" />
<polygon points="" style="fill:#f5f5ff" />
</g>
<g stroke="none">
<text x="7" y="34">drawDiagram</text>
<text x="46" y="41">[ graph . getNodes ( ) . size ( ) &gt; 0 ]</text>
<text x="48" y="55">getNodes</text>
<text x="48" y="69">size</text>
<text x="48" y="83">getGraphSize</text>
<text x="48" y="97">getZoomed</text>
<text x="48" y="111">setDiagramSize</text>
<text x="48" y="125">*[ ni1 &lt; graph . getNodes ( ) . size ( ) ;]</text>
<text x="50" y="139">getNodes</text>
<text x="50" y="153">size</text>
<text x="50" y="167">getNodes</text>
<text x="50" y="181">operator[]</text>
<text x="50" y="198">drawNode</text>
<text x="48" y="212">Color</text>
<text x="48" y="226">Color</text>
<text x="48" y="240">groupShapes</text>
<text x="48" y="254">DrawnLines</text>
<text x="48" y="268">*[ ni1 &lt; graph . getNodes ( ) . size ( ) ;]</text>
<text x="50" y="282">getNodes</text>
<text x="50" y="296">size</text>
<text x="50" y="310">*[ ni2 &lt; graph . getNodes ( ) . size ( ) ;]</text>
<text x="52" y="324">getNodes</text>
<text x="52" y="338">size</text>
<text x="52" y="352">getNodeConnection</text>
<text x="52" y="366">getNodeConnection</text>
<text x="52" y="380">getNodes</text>
<text x="52" y="394">operator[]</text>
<text x="52" y="408">getPosition</text>
<text x="52" y="422">getNodes</text>
<text x="52" y="436">operator[]</text>
<text x="52" y="450">getPosition</text>
<text x="52" y="464">[ conn ]</text>
<text x="54" y="478">[ conn -&gt; mConnectType == ctTemplateDependency ]</text>
<text x="56" y="492">[ ! drawnDashedLines . addLine ( p1 , p2 ) ]</text>
<text x="58" y="506">GraphPoint</text>
<text x="58" y="520">GraphPoint</text>
<text x="58" y="534">addLine</text>
<text x="54" y="548">[ drawSolid || drawDashed ]</text>
<text x="56" y="562">getNodes</text>
<text x="56" y="576">operator[]</text>
<text x="56" y="590">getNodes</text>
<text x="56" y="604">operator[]</text>
<text x="56" y="621">drawConnectionLine</text>
<text x="52" y="635">[ ci1 ]</text>
<text x="54" y="649">getOptions</text>
<text x="54" y="663">getNodes</text>
<text x="54" y="677">operator[]</text>
<text x="54" y="691">getNodes</text>
<text x="54" y="705">operator[]</text>
<text x="54" y="722">drawConnectionSymbols</text>
<text x="52" y="736">[ ci2 ]</text>
<text x="54" y="750">getOptions</text>
<text x="54" y="764">getNodes</text>
<text x="54" y="778">operator[]</text>
<text x="54" y="792">getNodes</text>
<text x="54" y="806">operator[]</text>
<text x="54" y="823">drawConnectionSymbols</text>
<text x="48" y="837">Color</text>
<text x="48" y="851">Color</text>
<text x="48" y="865">groupShapes</text>
</g>
<g  fill="#f5f5ff" stroke="#000000" style="stroke-width:1">
<line x1="44" y1="16" x2="44" y2="879" />
<line x1="117" y1="16" x2="117" y2="879" />
<line x1="241" y1="25" x2="241" y2="879" />
<line x1="367" y1="16" x2="367" y2="879" />
<line x1="443" y1="16" x2="443" y2="879" />
<line x1="504" y1="16" x2="504" y2="879" />
<line x1="557" y1="16" x2="557" y2="879" />
<line x1="621" y1="16" x2="621" y2="879" />
</g>
</svg>