<svg xmlns="http://www.w3.org/2000/svg" version="1.1"
  font-family="Arial, Helvetica, sans-serif" font-size="10.000000" 
  width="591" height="772">
<g stroke="none">
<g  fill="#f5f5ff" stroke="#000000" style="stroke-width:1">
<rect x="7" y="7" width="57" height="9" />
</g>
<text x="9" y="14">ModelData</text>
</g>
<g stroke="none">
<g  fill="#f5f5ff" stroke="#000000" style="stroke-width:1">
<rect x="81" y="7" width="59" height="9" />
</g>
<text x="83" y="14">ModelType</text>
</g>
<g stroke="none">
<g  fill="#f5f5ff" stroke="#000000" style="stroke-width:1">
<rect x="147" y="7" width="78" height="9" />
</g>
<text x="149" y="14">ModelClassifier</text>
</g>
<g stroke="none">
<g  fill="#f5f5ff" stroke="#000000" style="stroke-width:1">
<rect x="232" y="7" width="76" height="9" />
</g>
<text x="234" y="14">ModelTypeRef</text>
</g>
<g stroke="none">
<g  fill="#f5f5ff" stroke="#000000" style="stroke-width:1">
<rect x="315" y="7" width="82" height="9" />
</g>
<text x="317" y="14">ModelOperation</text>
</g>
<g stroke="none">
<g  fill="#f5f5ff" stroke="#000000" style="stroke-width:1">
<rect x="404" y="7" width="88" height="9" />
</g>
<text x="406" y="14">ModelAssociation</text>
</g>
<g stroke="none">
<g  fill="#f5f5ff" stroke="#000000" style="stroke-width:1">
<rect x="499" y="7" width="85" height="9" />
</g>
<text x="501" y="14">ModelStatement</text>
</g>
<g  fill="#f5f5ff" stroke="#000000" style="stroke-width:1">
<line x1="7" y1="29" x2="40" y2="29" />
<line x1="36" y1="25" x2="40" y2="29" />
<line x1="36" y1="33" x2="40" y2="29" />
<line x1="44" y1="64" x2="110" y2="64" style="stroke-dasharray: 4, 4 "/>
<line x1="106" y1="60" x2="110" y2="64" />
<line x1="106" y1="68" x2="110" y2="64" />
<line x1="44" y1="78" x2="110" y2="78" />
<line x1="106" y1="74" x2="110" y2="78" />
<line x1="106" y1="82" x2="110" y2="78" />
<line x1="46" y1="106" x2="186" y2="106" />
<line x1="182" y1="102" x2="186" y2="106" />
<line x1="182" y1="110" x2="186" y2="106" />
<line x1="48" y1="134" x2="270" y2="134" style="stroke-dasharray: 4, 4 "/>
<line x1="266" y1="130" x2="270" y2="134" />
<line x1="266" y1="138" x2="270" y2="134" />
<line x1="48" y1="148" x2="270" y2="148" />
<line x1="266" y1="144" x2="270" y2="148" />
<line x1="266" y1="152" x2="270" y2="148" />
<line x1="46" y1="176" x2="186" y2="176" />
<line x1="182" y1="172" x2="186" y2="176" />
<line x1="182" y1="180" x2="186" y2="176" />
<line x1="48" y1="204" x2="356" y2="204" style="stroke-dasharray: 4, 4 "/>
<line x1="352" y1="200" x2="356" y2="204" />
<line x1="352" y1="208" x2="356" y2="204" />
<line x1="50" y1="232" x2="270" y2="232" style="stroke-dasharray: 4, 4 "/>
<line x1="266" y1="228" x2="270" y2="232" />
<line x1="266" y1="236" x2="270" y2="232" />
<line x1="50" y1="246" x2="270" y2="246" />
<line x1="266" y1="242" x2="270" y2="246" />
<line x1="266" y1="250" x2="270" y2="246" />
<line x1="48" y1="274" x2="356" y2="274" style="stroke-dasharray: 4, 4 "/>
<line x1="352" y1="270" x2="356" y2="274" />
<line x1="352" y1="278" x2="356" y2="274" />
<line x1="50" y1="302" x2="270" y2="302" style="stroke-dasharray: 4, 4 "/>
<line x1="266" y1="298" x2="270" y2="302" />
<line x1="266" y1="306" x2="270" y2="302" />
<line x1="50" y1="316" x2="270" y2="316" />
<line x1="266" y1="312" x2="270" y2="316" />
<line x1="266" y1="320" x2="270" y2="316" />
<line x1="48" y1="344" x2="356" y2="344" />
<line x1="352" y1="340" x2="356" y2="344" />
<line x1="352" y1="348" x2="356" y2="344" />
<line x1="48" y1="358" x2="270" y2="358" style="stroke-dasharray: 4, 4 "/>
<line x1="266" y1="354" x2="270" y2="358" />
<line x1="266" y1="362" x2="270" y2="358" />
<line x1="48" y1="372" x2="356" y2="372" />
<line x1="352" y1="368" x2="356" y2="372" />
<line x1="352" y1="376" x2="356" y2="372" />
<line x1="48" y1="386" x2="270" y2="386" />
<line x1="266" y1="382" x2="270" y2="386" />
<line x1="266" y1="390" x2="270" y2="386" />
<line x1="46" y1="400" x2="356" y2="400" />
<line x1="352" y1="396" x2="356" y2="400" />
<line x1="352" y1="404" x2="356" y2="400" />
<line x1="46" y1="414" x2="67" y2="414" />
<line x1="67" y1="414" x2="67" y2="417" />
<line x1="46" y1="417" x2="67" y2="417" />
<line x1="52" y1="461" x2="541" y2="461" style="stroke-dasharray: 4, 4 "/>
<line x1="537" y1="457" x2="541" y2="461" />
<line x1="537" y1="465" x2="541" y2="461" />
<line x1="52" y1="475" x2="541" y2="475" style="stroke-dasharray: 4, 4 "/>
<line x1="537" y1="471" x2="541" y2="475" />
<line x1="537" y1="479" x2="541" y2="475" />
<line x1="54" y1="503" x2="541" y2="503" />
<line x1="537" y1="499" x2="541" y2="503" />
<line x1="537" y1="507" x2="541" y2="503" />
<line x1="54" y1="517" x2="270" y2="517" style="stroke-dasharray: 4, 4 "/>
<line x1="266" y1="513" x2="270" y2="517" />
<line x1="266" y1="521" x2="270" y2="517" />
<line x1="54" y1="531" x2="541" y2="531" />
<line x1="537" y1="527" x2="541" y2="531" />
<line x1="537" y1="535" x2="541" y2="531" />
<line x1="54" y1="545" x2="270" y2="545" />
<line x1="266" y1="541" x2="270" y2="545" />
<line x1="266" y1="549" x2="270" y2="545" />
<line x1="54" y1="573" x2="541" y2="573" style="stroke-dasharray: 4, 4 "/>
<line x1="537" y1="569" x2="541" y2="573" />
<line x1="537" y1="577" x2="541" y2="573" />
<line x1="56" y1="601" x2="541" y2="601" />
<line x1="537" y1="597" x2="541" y2="601" />
<line x1="537" y1="605" x2="541" y2="601" />
<line x1="56" y1="615" x2="270" y2="615" style="stroke-dasharray: 4, 4 "/>
<line x1="266" y1="611" x2="270" y2="615" />
<line x1="266" y1="619" x2="270" y2="615" />
<line x1="56" y1="629" x2="541" y2="629" />
<line x1="537" y1="625" x2="541" y2="629" />
<line x1="537" y1="633" x2="541" y2="629" />
<line x1="56" y1="643" x2="270" y2="643" />
<line x1="266" y1="639" x2="270" y2="643" />
<line x1="266" y1="647" x2="270" y2="643" />
<line x1="44" y1="689" x2="448" y2="689" style="stroke-dasharray: 4, 4 "/>
<line x1="444" y1="685" x2="448" y2="689" />
<line x1="444" y1="693" x2="448" y2="689" />
<line x1="44" y1="703" x2="448" y2="703" />
<line x1="444" y1="699" x2="448" y2="703" />
<line x1="444" y1="707" x2="448" y2="703" />
<line x1="44" y1="731" x2="448" y2="731" style="stroke-dasharray: 4, 4 "/>
<line x1="444" y1="727" x2="448" y2="731" />
<line x1="444" y1="735" x2="448" y2="731" />
<line x1="44" y1="745" x2="448" y2="745" />
<line x1="444" y1="741" x2="448" y2="745" />
<line x1="444" y1="749" x2="448" y2="745" />
<line x1="40" y1="759" x2="61" y2="759" />
<line x1="61" y1="759" x2="61" y2="762" />
<line x1="40" y1="762" x2="61" y2="762" />
<polygon points="40,39 42,39 42,53 44,53 44,95 46,95 46,123 48,123 48,151 46,151 46,151 44,151 44,165 46,165 46,193 48,193 48,221 50,221 50,249 48,249 48,249 46,249 46,263 48,263 48,291 50,291 50,319 48,319 48,319 46,319 46,333 48,333 48,389 46,389 46,420 48,420 48,436 50,436 50,450 52,450 52,492 54,492 54,548 52,548 52,562 54,562 54,590 56,590 56,646 54,646 54,646 52,646 52,646 50,646 50,646 48,646 48,650 46,650 46,650 44,650 44,650 42,650 42,650 40,650 40,664 42,664 42,678 44,678 44,706 42,706 42,720 44,720 44,748 42,748 42,748 40,748 40,748 38,748 38,748 36,748 36,720 38,720 38,706 36,706 36,678 38,678 38,664 40,664 40,650 38,650 38,650 36,650 36,650 34,650 34,650 32,650 32,646 30,646 30,646 28,646 28,646 26,646 26,646 24,646 24,590 26,590 26,562 28,562 28,548 26,548 26,492 28,492 28,450 30,450 30,436 32,436 32,420 34,420 34,389 32,389 32,333 34,333 34,319 32,319 32,319 30,319 30,291 32,291 32,263 34,263 34,249 32,249 32,249 30,249 30,221 32,221 32,193 34,193 34,165 36,165 36,151 34,151 34,151 32,151 32,123 34,123 34,95 36,95 36,53 38,53 38,39 40,39 " style="fill:#f5f5ff" />
<polygon points="" style="fill:#f5f5ff" />
<polygon points="" style="fill:#f5f5ff" />
<polygon points="" style="fill:#f5f5ff" />
<polygon points="" style="fill:#f5f5ff" />
<polygon points="" style="fill:#f5f5ff" />
<polygon points="" style="fill:#f5f5ff" />
</g>
<g stroke="none">
<text x="7" y="25">replaceType</text>
<text x="42" y="32">*[ mTypes ]</text>
<text x="44" y="46">[ type -&gt; getDataType ( ) == DT_Class ]</text>
<text x="46" y="60">getDataType</text>
<text x="46" y="74">getClass</text>
<text x="46" y="88">*[ classifier -&gt; getAttributes ( ) ]</text>
<text x="48" y="102">getAttributes</text>
<text x="48" y="116">[ attr -&gt; getDeclType ( ) == existingType ]</text>
<text x="50" y="130">getDeclType</text>
<text x="50" y="144">setDeclType</text>
<text x="46" y="158">*[ classifier -&gt; getOperations ( ) ]</text>
<text x="48" y="172">getOperations</text>
<text x="48" y="186">*[ oper -&gt; getParams ( ) ]</text>
<text x="50" y="200">getParams</text>
<text x="50" y="214">[ parm -&gt; getDeclType ( ) == existingType ]</text>
<text x="52" y="228">getDeclType</text>
<text x="52" y="242">setDeclType</text>
<text x="48" y="256">*[ oper -&gt; getBodyVarDeclarators ( ) ]</text>
<text x="50" y="270">getBodyVarDeclarators</text>
<text x="50" y="284">[ vd -&gt; getDeclType ( ) == existingType ]</text>
<text x="52" y="298">getDeclType</text>
<text x="52" y="312">setDeclType</text>
<text x="48" y="326">[ oper -&gt; getReturnType ( ) . getDeclType ( ) == existingType ]</text>
<text x="50" y="340">getReturnType</text>
<text x="50" y="354">getDeclType</text>
<text x="50" y="368">getReturnType</text>
<text x="50" y="382">setDeclType</text>
<text x="48" y="396">getStatements</text>
<text x="48" y="413">replaceStatementType</text>
<text x="50" y="429">*[ stmts ]</text>
<text x="52" y="443">[ stmt . getStatementType ( ) == ST_Call || stmt . getStatementType ( ) == ST_VarRef ]</text>
<text x="54" y="457">getStatementType</text>
<text x="54" y="471">getStatementType</text>
<text x="54" y="485">[ stmt . getClassDecl ( ) . getDeclType ( ) == existingType ]</text>
<text x="56" y="499">getClassDecl</text>
<text x="56" y="513">getDeclType</text>
<text x="56" y="527">getClassDecl</text>
<text x="56" y="541">setDeclType</text>
<text x="54" y="555">[ stmt . getStatementType ( ) == ST_VarRef ]</text>
<text x="56" y="569">getStatementType</text>
<text x="56" y="583">[ stmt . getVarDecl ( ) . getDeclType ( ) == existingType ]</text>
<text x="58" y="597">getVarDecl</text>
<text x="58" y="611">getDeclType</text>
<text x="58" y="625">getVarDecl</text>
<text x="58" y="639">setDeclType</text>
<text x="42" y="657">*[ mAssociations ]</text>
<text x="44" y="671">[ assoc -&gt; getChild ( ) == existingType ]</text>
<text x="46" y="685">getChild</text>
<text x="46" y="699">setChildClass</text>
<text x="44" y="713">[ assoc -&gt; getParent ( ) == existingType ]</text>
<text x="46" y="727">getParent</text>
<text x="46" y="741">setParentClass</text>
<text x="42" y="758">eraseType</text>
</g>
<g  fill="#f5f5ff" stroke="#000000" style="stroke-width:1">
<line x1="40" y1="16" x2="40" y2="772" />
<line x1="110" y1="16" x2="110" y2="772" />
<line x1="186" y1="16" x2="186" y2="772" />
<line x1="270" y1="16" x2="270" y2="772" />
<line x1="356" y1="16" x2="356" y2="772" />
<line x1="448" y1="16" x2="448" y2="772" />
<line x1="541" y1="16" x2="541" y2="772" />
</g>
</svg>