<svg xmlns="http://www.w3.org/2000/svg" version="1.1" width="508" height="397">
<g  fill="#f5f5ff" stroke="#000000" style="stroke-width:1">
</g>
<g  fill="#f5f5ff" stroke="#ffb300" style="stroke-width:1">
<line x1="230" y1="21" x2="234" y2="21" />
<line x1="246" y1="29" x2="243" y2="26" />
<line x1="248" y1="34" x2="243" y2="26" />
<line x1="249" y1="42" x2="239" y2="23" />
<line x1="249" y1="42" x2="246" y2="29" />
<line x1="249" y1="42" x2="214" y2="29" />
<line x1="248" y1="46" x2="243" y2="26" />
<line x1="248" y1="46" x2="226" y2="21" />
<line x1="243" y1="54" x2="248" y2="46" />
<line x1="239" y1="57" x2="243" y2="54" />
<line x1="234" y1="59" x2="243" y2="26" />
<line x1="217" y1="54" x2="214" y2="29" />
<line x1="214" y1="51" x2="217" y2="54" />
<line x1="212" y1="46" x2="217" y2="54" />
<line x1="211" y1="42" x2="217" y2="54" />
<line x1="212" y1="34" x2="217" y2="54" />
<line x1="217" y1="26" x2="243" y2="26" />
</g>
<g  fill="#f5f5ff" stroke="#ff6800" style="stroke-width:1">
<line x1="345" y1="95" x2="234" y2="21" />
<line x1="349" y1="95" x2="248" y2="46" />
<line x1="354" y1="96" x2="66" y2="227" />
<line x1="354" y1="96" x2="96" y2="215" />
<line x1="354" y1="96" x2="359" y2="46" />
<line x1="354" y1="96" x2="248" y2="46" />
<line x1="359" y1="97" x2="430" y2="89" />
<line x1="368" y1="100" x2="248" y2="46" />
<line x1="368" y1="100" x2="336" y2="304" />
<line x1="368" y1="100" x2="226" y2="21" />
<line x1="376" y1="105" x2="379" y2="108" />
<line x1="376" y1="105" x2="372" y2="102" />
<line x1="383" y1="111" x2="51" y2="260" />
<line x1="383" y1="111" x2="423" y2="250" />
<line x1="389" y1="118" x2="243" y2="26" />
<line x1="389" y1="118" x2="425" y2="246" />
<line x1="389" y1="118" x2="432" y2="95" />
<line x1="389" y1="118" x2="304" y2="114" />
<line x1="389" y1="118" x2="360" y2="338" />
<line x1="397" y1="136" x2="135" y2="282" />
<line x1="397" y1="136" x2="100" y2="305" />
<line x1="397" y1="136" x2="100" y2="158" />
<line x1="397" y1="136" x2="118" y2="157" />
<line x1="397" y1="136" x2="164" y2="114" />
<line x1="397" y1="136" x2="359" y2="46" />
<line x1="397" y1="136" x2="243" y2="26" />
<line x1="398" y1="145" x2="347" y2="201" />
<line x1="398" y1="145" x2="356" y2="200" />
<line x1="398" y1="145" x2="396" y2="163" />
<line x1="398" y1="149" x2="48" y2="100" />
<line x1="398" y1="149" x2="80" y2="46" />
<line x1="398" y1="149" x2="370" y2="195" />
<line x1="398" y1="149" x2="160" y2="73" />
<line x1="398" y1="149" x2="398" y2="145" />
<line x1="397" y1="158" x2="425" y2="246" />
<line x1="397" y1="158" x2="166" y2="91" />
<line x1="397" y1="158" x2="423" y2="242" />
<line x1="397" y1="158" x2="347" y2="201" />
<line x1="393" y1="172" x2="352" y2="201" />
<line x1="390" y1="176" x2="356" y2="200" />
<line x1="390" y1="176" x2="352" y2="201" />
<line x1="390" y1="176" x2="347" y2="201" />
<line x1="390" y1="176" x2="52" y2="251" />
<line x1="390" y1="176" x2="398" y2="149" />
<line x1="390" y1="176" x2="396" y2="163" />
<line x1="390" y1="176" x2="388" y2="180" />
<line x1="385" y1="183" x2="374" y2="193" />
<line x1="385" y1="183" x2="142" y2="51" />
<line x1="385" y1="183" x2="347" y2="201" />
<line x1="385" y1="183" x2="425" y2="246" />
<line x1="385" y1="183" x2="388" y2="180" />
<line x1="374" y1="193" x2="57" y2="131" />
<line x1="370" y1="195" x2="425" y2="246" />
<line x1="370" y1="195" x2="162" y2="77" />
<line x1="370" y1="195" x2="388" y2="180" />
<line x1="370" y1="195" x2="53" y2="246" />
<line x1="365" y1="197" x2="412" y2="239" />
<line x1="365" y1="197" x2="84" y2="44" />
<line x1="365" y1="197" x2="59" y2="65" />
<line x1="365" y1="197" x2="135" y2="282" />
<line x1="365" y1="197" x2="56" y2="69" />
<line x1="365" y1="197" x2="48" y2="96" />
<line x1="365" y1="197" x2="416" y2="255" />
<line x1="365" y1="197" x2="107" y2="40" />
<line x1="365" y1="197" x2="87" y2="155" />
<line x1="365" y1="197" x2="100" y2="305" />
<line x1="365" y1="197" x2="149" y2="58" />
<line x1="365" y1="197" x2="53" y2="246" />
<line x1="356" y1="200" x2="361" y2="199" />
<line x1="356" y1="200" x2="374" y2="193" />
<line x1="356" y1="200" x2="398" y2="153" />
<line x1="356" y1="200" x2="395" y2="167" />
<line x1="352" y1="201" x2="370" y2="195" />
<line x1="352" y1="201" x2="347" y2="201" />
<line x1="347" y1="201" x2="63" y2="139" />
<line x1="347" y1="201" x2="425" y2="246" />
<line x1="347" y1="201" x2="166" y2="91" />
<line x1="347" y1="201" x2="48" y2="104" />
<line x1="343" y1="201" x2="341" y2="95" />
<line x1="343" y1="201" x2="420" y2="253" />
<line x1="343" y1="201" x2="397" y2="136" />
<line x1="343" y1="201" x2="318" y2="102" />
<line x1="343" y1="201" x2="356" y2="341" />
<line x1="343" y1="201" x2="314" y2="105" />
<line x1="343" y1="201" x2="301" y2="118" />
<line x1="343" y1="201" x2="299" y2="122" />
<line x1="343" y1="201" x2="234" y2="59" />
<line x1="343" y1="201" x2="345" y2="95" />
<line x1="343" y1="201" x2="349" y2="95" />
<line x1="343" y1="201" x2="354" y2="96" />
<line x1="338" y1="201" x2="343" y2="201" />
<line x1="334" y1="200" x2="51" y2="264" />
<line x1="320" y1="195" x2="300" y2="176" />
<line x1="316" y1="193" x2="358" y2="306" />
<line x1="316" y1="193" x2="92" y2="215" />
<line x1="316" y1="193" x2="309" y2="187" />
<line x1="316" y1="193" x2="226" y2="21" />
<line x1="316" y1="193" x2="217" y2="26" />
<line x1="316" y1="193" x2="246" y2="29" />
<line x1="316" y1="193" x2="294" y2="163" />
<line x1="312" y1="190" x2="320" y2="195" />
<line x1="305" y1="183" x2="302" y2="180" />
<line x1="305" y1="183" x2="300" y2="176" />
<line x1="305" y1="183" x2="366" y2="318" />
<line x1="305" y1="183" x2="92" y2="215" />
<line x1="302" y1="180" x2="309" y2="187" />
<line x1="300" y1="176" x2="100" y2="305" />
<line x1="300" y1="176" x2="366" y2="318" />
<line x1="297" y1="172" x2="293" y2="136" />
<line x1="295" y1="167" x2="82" y2="217" />
<line x1="295" y1="167" x2="146" y2="54" />
<line x1="295" y1="167" x2="135" y2="282" />
<line x1="295" y1="167" x2="100" y2="305" />
<line x1="293" y1="158" x2="249" y2="38" />
<line x1="293" y1="158" x2="226" y2="59" />
<line x1="293" y1="158" x2="334" y2="341" />
<line x1="292" y1="153" x2="334" y2="341" />
<line x1="292" y1="153" x2="334" y2="200" />
<line x1="292" y1="153" x2="293" y2="158" />
<line x1="292" y1="153" x2="226" y2="21" />
<line x1="292" y1="153" x2="239" y2="23" />
<line x1="292" y1="153" x2="248" y2="46" />
<line x1="292" y1="153" x2="239" y2="57" />
<line x1="292" y1="153" x2="211" y2="42" />
<line x1="292" y1="153" x2="341" y2="95" />
<line x1="292" y1="149" x2="80" y2="46" />
<line x1="292" y1="149" x2="324" y2="322" />
<line x1="292" y1="149" x2="309" y2="187" />
<line x1="292" y1="149" x2="118" y2="157" />
<line x1="292" y1="149" x2="72" y2="51" />
<line x1="292" y1="149" x2="246" y2="351" />
<line x1="292" y1="149" x2="109" y2="158" />
<line x1="292" y1="149" x2="139" y2="274" />
<line x1="292" y1="149" x2="343" y2="201" />
<line x1="292" y1="149" x2="139" y2="246" />
<line x1="292" y1="149" x2="234" y2="21" />
<line x1="292" y1="149" x2="390" y2="176" />
<line x1="292" y1="149" x2="52" y2="77" />
<line x1="292" y1="149" x2="48" y2="96" />
<line x1="292" y1="149" x2="395" y2="131" />
<line x1="292" y1="149" x2="230" y2="21" />
<line x1="292" y1="149" x2="389" y2="118" />
<line x1="292" y1="149" x2="211" y2="38" />
<line x1="292" y1="149" x2="74" y2="148" />
<line x1="292" y1="149" x2="49" y2="109" />
<line x1="292" y1="149" x2="249" y2="38" />
<line x1="292" y1="149" x2="358" y2="306" />
<line x1="292" y1="149" x2="423" y2="242" />
<line x1="292" y1="149" x2="336" y2="96" />
<line x1="292" y1="149" x2="82" y2="217" />
<line x1="292" y1="149" x2="322" y2="100" />
<line x1="292" y1="149" x2="163" y2="118" />
<line x1="292" y1="149" x2="107" y2="40" />
<line x1="292" y1="149" x2="366" y2="322" />
<line x1="292" y1="149" x2="51" y2="264" />
<line x1="292" y1="149" x2="330" y2="338" />
<line x1="292" y1="149" x2="82" y2="303" />
<line x1="292" y1="149" x2="341" y2="302" />
<line x1="292" y1="149" x2="304" y2="114" />
<line x1="292" y1="149" x2="324" y2="318" />
<line x1="292" y1="149" x2="334" y2="341" />
<line x1="292" y1="145" x2="386" y2="114" />
<line x1="292" y1="140" x2="293" y2="136" />
<line x1="296" y1="127" x2="293" y2="136" />
<line x1="301" y1="118" x2="359" y2="46" />
<line x1="304" y1="114" x2="322" y2="100" />
<line x1="307" y1="111" x2="55" y2="278" />
<line x1="307" y1="111" x2="341" y2="95" />
<line x1="311" y1="108" x2="53" y2="274" />
<line x1="314" y1="105" x2="311" y2="108" />
<line x1="314" y1="105" x2="307" y2="111" />
<line x1="318" y1="102" x2="359" y2="46" />
<line x1="318" y1="102" x2="341" y2="95" />
<line x1="322" y1="100" x2="248" y2="46" />
<line x1="341" y1="95" x2="248" y2="46" />
</g>
<g  fill="#f5f5ff" stroke="#a6bdd7" style="stroke-width:1">
<line x1="433" y1="91" x2="432" y2="95" />
</g>
<g  fill="#f5f5ff" stroke="#cea262" style="stroke-width:1">
<line x1="420" y1="239" x2="425" y2="246" />
<line x1="423" y1="242" x2="420" y2="239" />
<line x1="423" y1="250" x2="425" y2="246" />
<line x1="420" y1="253" x2="425" y2="246" />
<line x1="412" y1="239" x2="425" y2="246" />
</g>
<g  fill="#f5f5ff" stroke="#817066" style="stroke-width:1">
<line x1="349" y1="302" x2="341" y2="302" />
<line x1="349" y1="302" x2="358" y2="306" />
<line x1="354" y1="304" x2="341" y2="302" />
<line x1="358" y1="306" x2="366" y2="318" />
<line x1="364" y1="313" x2="358" y2="306" />
<line x1="366" y1="318" x2="354" y2="304" />
<line x1="366" y1="322" x2="358" y2="306" />
<line x1="366" y1="322" x2="361" y2="309" />
<line x1="365" y1="331" x2="360" y2="338" />
<line x1="363" y1="335" x2="341" y2="302" />
<line x1="356" y1="341" x2="341" y2="302" />
<line x1="356" y1="341" x2="363" y2="335" />
<line x1="352" y1="343" x2="360" y2="338" />
<line x1="347" y1="344" x2="352" y2="343" />
<line x1="338" y1="343" x2="352" y2="343" />
<line x1="334" y1="341" x2="338" y2="343" />
<line x1="327" y1="335" x2="338" y2="343" />
<line x1="324" y1="326" x2="338" y2="343" />
<line x1="324" y1="326" x2="334" y2="341" />
<line x1="324" y1="322" x2="334" y2="341" />
<line x1="329" y1="309" x2="352" y2="343" />
</g>
<g  fill="#f5f5ff" stroke="#007d34" style="stroke-width:1">
<line x1="238" y1="347" x2="87" y2="216" />
<line x1="238" y1="347" x2="135" y2="282" />
<line x1="238" y1="347" x2="228" y2="359" />
<line x1="238" y1="347" x2="341" y2="302" />
<line x1="238" y1="347" x2="363" y2="335" />
<line x1="248" y1="359" x2="230" y2="351" />
<line x1="248" y1="359" x2="246" y2="363" />
<line x1="246" y1="363" x2="96" y2="215" />
<line x1="246" y1="363" x2="66" y2="227" />
<line x1="246" y1="363" x2="132" y2="234" />
<line x1="246" y1="363" x2="341" y2="302" />
<line x1="242" y1="366" x2="238" y2="367" />
<line x1="230" y1="363" x2="228" y2="359" />
<line x1="230" y1="363" x2="51" y2="264" />
<line x1="230" y1="363" x2="332" y2="306" />
<line x1="230" y1="363" x2="53" y2="274" />
<line x1="230" y1="363" x2="55" y2="278" />
<line x1="230" y1="363" x2="60" y2="234" />
<line x1="228" y1="359" x2="82" y2="217" />
<line x1="228" y1="355" x2="92" y2="215" />
<line x1="230" y1="351" x2="137" y2="242" />
<line x1="230" y1="351" x2="347" y2="344" />
<line x1="230" y1="351" x2="60" y2="234" />
<line x1="230" y1="351" x2="110" y2="303" />
<line x1="230" y1="351" x2="53" y2="274" />
<line x1="230" y1="351" x2="55" y2="278" />
<line x1="230" y1="351" x2="57" y2="282" />
<line x1="230" y1="351" x2="122" y2="224" />
<line x1="230" y1="351" x2="87" y2="304" />
</g>
<g  fill="#f5f5ff" stroke="#f6768e" style="stroke-width:1">
<line x1="100" y1="215" x2="74" y2="221" />
<line x1="100" y1="215" x2="140" y2="269" />
<line x1="100" y1="215" x2="52" y2="269" />
<line x1="100" y1="215" x2="96" y2="305" />
<line x1="100" y1="215" x2="110" y2="217" />
<line x1="100" y1="215" x2="118" y2="221" />
<line x1="105" y1="216" x2="52" y2="269" />
<line x1="105" y1="216" x2="96" y2="305" />
<line x1="105" y1="216" x2="74" y2="221" />
<line x1="105" y1="216" x2="118" y2="221" />
<line x1="105" y1="216" x2="126" y2="227" />
<line x1="105" y1="216" x2="140" y2="269" />
<line x1="114" y1="219" x2="118" y2="221" />
<line x1="114" y1="219" x2="132" y2="286" />
<line x1="118" y1="221" x2="132" y2="286" />
<line x1="122" y1="224" x2="135" y2="238" />
<line x1="126" y1="227" x2="118" y2="299" />
<line x1="132" y1="234" x2="135" y2="238" />
<line x1="135" y1="238" x2="87" y2="216" />
<line x1="137" y1="242" x2="135" y2="238" />
<line x1="141" y1="264" x2="141" y2="256" />
<line x1="140" y1="269" x2="122" y2="296" />
<line x1="139" y1="274" x2="126" y2="293" />
<line x1="139" y1="274" x2="114" y2="301" />
<line x1="139" y1="274" x2="118" y2="299" />
<line x1="139" y1="274" x2="132" y2="286" />
<line x1="139" y1="274" x2="129" y2="290" />
<line x1="139" y1="274" x2="122" y2="296" />
<line x1="137" y1="278" x2="135" y2="282" />
<line x1="137" y1="278" x2="139" y2="274" />
<line x1="137" y1="278" x2="135" y2="238" />
<line x1="135" y1="282" x2="135" y2="238" />
<line x1="110" y1="303" x2="135" y2="238" />
<line x1="105" y1="304" x2="87" y2="216" />
<line x1="105" y1="304" x2="100" y2="305" />
<line x1="100" y1="305" x2="87" y2="216" />
<line x1="100" y1="305" x2="135" y2="238" />
<line x1="96" y1="305" x2="114" y2="301" />
<line x1="92" y1="305" x2="114" y2="301" />
<line x1="92" y1="305" x2="96" y2="305" />
<line x1="87" y1="304" x2="135" y2="238" />
<line x1="82" y1="303" x2="78" y2="301" />
<line x1="82" y1="303" x2="63" y2="290" />
<line x1="82" y1="303" x2="66" y2="293" />
<line x1="57" y1="282" x2="78" y2="219" />
<line x1="52" y1="269" x2="126" y2="293" />
<line x1="57" y1="238" x2="53" y2="246" />
<line x1="63" y1="230" x2="74" y2="221" />
<line x1="66" y1="227" x2="135" y2="238" />
<line x1="70" y1="224" x2="74" y2="221" />
<line x1="70" y1="224" x2="129" y2="290" />
<line x1="74" y1="221" x2="129" y2="290" />
<line x1="82" y1="217" x2="87" y2="216" />
<line x1="92" y1="215" x2="87" y2="216" />
</g>
<g  fill="#f5f5ff" stroke="#00538a" style="stroke-width:1">
<line x1="107" y1="40" x2="118" y2="221" />
<line x1="138" y1="49" x2="152" y2="61" />
<line x1="146" y1="54" x2="107" y2="40" />
<line x1="146" y1="54" x2="125" y2="43" />
<line x1="155" y1="65" x2="146" y2="54" />
<line x1="155" y1="65" x2="118" y2="221" />
<line x1="158" y1="69" x2="160" y2="73" />
<line x1="166" y1="100" x2="126" y2="227" />
<line x1="164" y1="114" x2="166" y2="100" />
<line x1="159" y1="127" x2="78" y2="151" />
<line x1="154" y1="135" x2="51" y2="256" />
<line x1="154" y1="135" x2="100" y2="215" />
<line x1="154" y1="135" x2="116" y2="40" />
<line x1="154" y1="135" x2="146" y2="54" />
<line x1="154" y1="135" x2="166" y2="104" />
<line x1="148" y1="142" x2="114" y2="158" />
<line x1="148" y1="142" x2="48" y2="91" />
<line x1="148" y1="142" x2="151" y2="139" />
<line x1="136" y1="151" x2="151" y2="139" />
<line x1="136" y1="151" x2="125" y2="43" />
<line x1="132" y1="153" x2="110" y2="217" />
<line x1="127" y1="155" x2="160" y2="73" />
<line x1="127" y1="155" x2="163" y2="118" />
<line x1="127" y1="155" x2="57" y2="131" />
<line x1="127" y1="155" x2="48" y2="100" />
<line x1="127" y1="155" x2="48" y2="104" />
<line x1="123" y1="156" x2="74" y2="148" />
<line x1="123" y1="156" x2="111" y2="40" />
<line x1="123" y1="156" x2="65" y2="58" />
<line x1="123" y1="156" x2="121" y2="41" />
<line x1="123" y1="156" x2="144" y2="145" />
<line x1="123" y1="156" x2="127" y2="155" />
<line x1="118" y1="157" x2="140" y2="269" />
<line x1="114" y1="158" x2="118" y2="157" />
<line x1="105" y1="158" x2="100" y2="158" />
<line x1="100" y1="158" x2="118" y2="157" />
<line x1="100" y1="158" x2="114" y2="158" />
<line x1="96" y1="157" x2="100" y2="158" />
<line x1="87" y1="155" x2="96" y2="305" />
<line x1="82" y1="153" x2="87" y2="155" />
<line x1="70" y1="145" x2="87" y2="155" />
<line x1="63" y1="139" x2="66" y2="142" />
<line x1="60" y1="135" x2="87" y2="155" />
<line x1="55" y1="127" x2="87" y2="155" />
<line x1="51" y1="118" x2="48" y2="104" />
<line x1="51" y1="118" x2="49" y2="109" />
<line x1="51" y1="118" x2="53" y2="123" />
<line x1="51" y1="118" x2="57" y2="131" />
<line x1="48" y1="104" x2="50" y2="114" />
<line x1="48" y1="104" x2="66" y2="142" />
<line x1="48" y1="96" x2="52" y2="269" />
<line x1="48" y1="91" x2="48" y2="96" />
<line x1="49" y1="87" x2="56" y2="69" />
<line x1="54" y1="73" x2="56" y2="69" />
<line x1="56" y1="69" x2="48" y2="91" />
<line x1="56" y1="69" x2="48" y2="96" />
<line x1="59" y1="65" x2="74" y2="221" />
<line x1="62" y1="61" x2="65" y2="58" />
<line x1="65" y1="58" x2="59" y2="65" />
<line x1="76" y1="49" x2="60" y2="234" />
<line x1="76" y1="49" x2="84" y2="44" />
<line x1="84" y1="44" x2="59" y2="65" />
<line x1="84" y1="44" x2="65" y2="58" />
<line x1="89" y1="43" x2="84" y2="44" />
<line x1="98" y1="40" x2="84" y2="44" />
</g>
<g  fill="#f5f5ff" stroke="#c10020" style="stroke-width:1">
</g>
<g  fill="#f5f5ff" stroke="#000000" style="stroke-width:1">
<circle cx="230" cy="21" r="1" style="fill:#ffffff" />
<circle cx="234" cy="21" r="1" style="fill:#ffffff" />
<circle cx="239" cy="23" r="1" style="fill:#ffffff" />
<circle cx="243" cy="26" r="1" style="fill:#ffffff" />
<circle cx="246" cy="29" r="1" style="fill:#ffffff" />
<circle cx="248" cy="34" r="1" style="fill:#ffffff" />
<circle cx="249" cy="38" r="1" style="fill:#ffffff" />
<circle cx="249" cy="42" r="1" style="fill:#ffffff" />
<circle cx="248" cy="46" r="1" style="fill:#ffffff" />
<circle cx="246" cy="51" r="1" style="fill:#ffffff" />
<circle cx="243" cy="54" r="1" style="fill:#ffffff" />
<circle cx="239" cy="57" r="1" style="fill:#ffffff" />
<circle cx="234" cy="59" r="1" style="fill:#ffffff" />
<circle cx="230" cy="59" r="1" style="fill:#ffffff" />
<circle cx="226" cy="59" r="1" style="fill:#ffffff" />
<circle cx="221" cy="57" r="1" style="fill:#ffffff" />
<circle cx="217" cy="54" r="1" style="fill:#ffffff" />
<circle cx="214" cy="51" r="1" style="fill:#ffffff" />
<circle cx="212" cy="46" r="1" style="fill:#ffffff" />
<circle cx="211" cy="42" r="1" style="fill:#ffffff" />
<circle cx="211" cy="38" r="1" style="fill:#ffffff" />
<circle cx="212" cy="34" r="1" style="fill:#ffffff" />
<circle cx="214" cy="29" r="1" style="fill:#ffffff" />
<circle cx="217" cy="26" r="1" style="fill:#ffffff" />
<circle cx="221" cy="23" r="1" style="fill:#ffffff" />
<circle cx="226" cy="21" r="1" style="fill:#ffffff" />
<circle cx="359" cy="46" r="1" style="fill:#ffffff" />
<circle cx="345" cy="95" r="1" style="fill:#ffffff" />
<circle cx="349" cy="95" r="1" style="fill:#ffffff" />
<circle cx="354" cy="96" r="1" style="fill:#ffffff" />
<circle cx="359" cy="97" r="1" style="fill:#ffffff" />
<circle cx="363" cy="98" r="1" style="fill:#ffffff" />
<circle cx="368" cy="100" r="1" style="fill:#ffffff" />
<circle cx="372" cy="102" r="1" style="fill:#ffffff" />
<circle cx="376" cy="105" r="1" style="fill:#ffffff" />
<circle cx="379" cy="108" r="1" style="fill:#ffffff" />
<circle cx="383" cy="111" r="1" style="fill:#ffffff" />
<circle cx="386" cy="114" r="1" style="fill:#ffffff" />
<circle cx="389" cy="118" r="1" style="fill:#ffffff" />
<circle cx="391" cy="122" r="1" style="fill:#ffffff" />
<circle cx="394" cy="127" r="1" style="fill:#ffffff" />
<circle cx="395" cy="131" r="1" style="fill:#ffffff" />
<circle cx="397" cy="136" r="1" style="fill:#ffffff" />
<circle cx="398" cy="140" r="1" style="fill:#ffffff" />
<circle cx="398" cy="145" r="1" style="fill:#ffffff" />
<circle cx="398" cy="149" r="1" style="fill:#ffffff" />
<circle cx="398" cy="153" r="1" style="fill:#ffffff" />
<circle cx="397" cy="158" r="1" style="fill:#ffffff" />
<circle cx="396" cy="163" r="1" style="fill:#ffffff" />
<circle cx="395" cy="167" r="1" style="fill:#ffffff" />
<circle cx="393" cy="172" r="1" style="fill:#ffffff" />
<circle cx="390" cy="176" r="1" style="fill:#ffffff" />
<circle cx="388" cy="180" r="1" style="fill:#ffffff" />
<circle cx="385" cy="183" r="1" style="fill:#ffffff" />
<circle cx="381" cy="187" r="1" style="fill:#ffffff" />
<circle cx="378" cy="190" r="1" style="fill:#ffffff" />
<circle cx="374" cy="193" r="1" style="fill:#ffffff" />
<circle cx="370" cy="195" r="1" style="fill:#ffffff" />
<circle cx="365" cy="197" r="1" style="fill:#ffffff" />
<circle cx="361" cy="199" r="1" style="fill:#ffffff" />
<circle cx="356" cy="200" r="1" style="fill:#ffffff" />
<circle cx="352" cy="201" r="1" style="fill:#ffffff" />
<circle cx="347" cy="201" r="1" style="fill:#ffffff" />
<circle cx="343" cy="201" r="1" style="fill:#ffffff" />
<circle cx="338" cy="201" r="1" style="fill:#ffffff" />
<circle cx="334" cy="200" r="1" style="fill:#ffffff" />
<circle cx="329" cy="199" r="1" style="fill:#ffffff" />
<circle cx="325" cy="197" r="1" style="fill:#ffffff" />
<circle cx="320" cy="195" r="1" style="fill:#ffffff" />
<circle cx="316" cy="193" r="1" style="fill:#ffffff" />
<circle cx="312" cy="190" r="1" style="fill:#ffffff" />
<circle cx="309" cy="187" r="1" style="fill:#ffffff" />
<circle cx="305" cy="183" r="1" style="fill:#ffffff" />
<circle cx="302" cy="180" r="1" style="fill:#ffffff" />
<circle cx="300" cy="176" r="1" style="fill:#ffffff" />
<circle cx="297" cy="172" r="1" style="fill:#ffffff" />
<circle cx="295" cy="167" r="1" style="fill:#ffffff" />
<circle cx="294" cy="163" r="1" style="fill:#ffffff" />
<circle cx="293" cy="158" r="1" style="fill:#ffffff" />
<circle cx="292" cy="153" r="1" style="fill:#ffffff" />
<circle cx="292" cy="149" r="1" style="fill:#ffffff" />
<circle cx="292" cy="145" r="1" style="fill:#ffffff" />
<circle cx="292" cy="140" r="1" style="fill:#ffffff" />
<circle cx="293" cy="136" r="1" style="fill:#ffffff" />
<circle cx="295" cy="131" r="1" style="fill:#ffffff" />
<circle cx="296" cy="127" r="1" style="fill:#ffffff" />
<circle cx="299" cy="122" r="1" style="fill:#ffffff" />
<circle cx="301" cy="118" r="1" style="fill:#ffffff" />
<circle cx="304" cy="114" r="1" style="fill:#ffffff" />
<circle cx="307" cy="111" r="1" style="fill:#ffffff" />
<circle cx="311" cy="108" r="1" style="fill:#ffffff" />
<circle cx="314" cy="105" r="1" style="fill:#ffffff" />
<circle cx="318" cy="102" r="1" style="fill:#ffffff" />
<circle cx="322" cy="100" r="1" style="fill:#ffffff" />
<circle cx="327" cy="98" r="1" style="fill:#ffffff" />
<circle cx="331" cy="97" r="1" style="fill:#ffffff" />
<circle cx="336" cy="96" r="1" style="fill:#ffffff" />
<circle cx="341" cy="95" r="1" style="fill:#ffffff" />
<circle cx="430" cy="89" r="1" style="fill:#ffffff" />
<circle cx="433" cy="91" r="1" style="fill:#ffffff" />
<circle cx="432" cy="95" r="1" style="fill:#ffffff" />
<circle cx="428" cy="95" r="1" style="fill:#ffffff" />
<circle cx="427" cy="91" r="1" style="fill:#ffffff" />
<circle cx="416" cy="237" r="1" style="fill:#ffffff" />
<circle cx="420" cy="239" r="1" style="fill:#ffffff" />
<circle cx="423" cy="242" r="1" style="fill:#ffffff" />
<circle cx="425" cy="246" r="1" style="fill:#ffffff" />
<circle cx="423" cy="250" r="1" style="fill:#ffffff" />
<circle cx="420" cy="253" r="1" style="fill:#ffffff" />
<circle cx="416" cy="255" r="1" style="fill:#ffffff" />
<circle cx="412" cy="253" r="1" style="fill:#ffffff" />
<circle cx="409" cy="250" r="1" style="fill:#ffffff" />
<circle cx="407" cy="246" r="1" style="fill:#ffffff" />
<circle cx="409" cy="242" r="1" style="fill:#ffffff" />
<circle cx="412" cy="239" r="1" style="fill:#ffffff" />
<circle cx="345" cy="302" r="1" style="fill:#ffffff" />
<circle cx="349" cy="302" r="1" style="fill:#ffffff" />
<circle cx="354" cy="304" r="1" style="fill:#ffffff" />
<circle cx="358" cy="306" r="1" style="fill:#ffffff" />
<circle cx="361" cy="309" r="1" style="fill:#ffffff" />
<circle cx="364" cy="313" r="1" style="fill:#ffffff" />
<circle cx="366" cy="318" r="1" style="fill:#ffffff" />
<circle cx="366" cy="322" r="1" style="fill:#ffffff" />
<circle cx="366" cy="326" r="1" style="fill:#ffffff" />
<circle cx="365" cy="331" r="1" style="fill:#ffffff" />
<circle cx="363" cy="335" r="1" style="fill:#ffffff" />
<circle cx="360" cy="338" r="1" style="fill:#ffffff" />
<circle cx="356" cy="341" r="1" style="fill:#ffffff" />
<circle cx="352" cy="343" r="1" style="fill:#ffffff" />
<circle cx="347" cy="344" r="1" style="fill:#ffffff" />
<circle cx="343" cy="344" r="1" style="fill:#ffffff" />
<circle cx="338" cy="343" r="1" style="fill:#ffffff" />
<circle cx="334" cy="341" r="1" style="fill:#ffffff" />
<circle cx="330" cy="338" r="1" style="fill:#ffffff" />
<circle cx="327" cy="335" r="1" style="fill:#ffffff" />
<circle cx="325" cy="331" r="1" style="fill:#ffffff" />
<circle cx="324" cy="326" r="1" style="fill:#ffffff" />
<circle cx="324" cy="322" r="1" style="fill:#ffffff" />
<circle cx="324" cy="318" r="1" style="fill:#ffffff" />
<circle cx="326" cy="313" r="1" style="fill:#ffffff" />
<circle cx="329" cy="309" r="1" style="fill:#ffffff" />
<circle cx="332" cy="306" r="1" style="fill:#ffffff" />
<circle cx="336" cy="304" r="1" style="fill:#ffffff" />
<circle cx="341" cy="302" r="1" style="fill:#ffffff" />
<circle cx="238" cy="347" r="1" style="fill:#ffffff" />
<circle cx="242" cy="348" r="1" style="fill:#ffffff" />
<circle cx="246" cy="351" r="1" style="fill:#ffffff" />
<circle cx="248" cy="355" r="1" style="fill:#ffffff" />
<circle cx="248" cy="359" r="1" style="fill:#ffffff" />
<circle cx="246" cy="363" r="1" style="fill:#ffffff" />
<circle cx="242" cy="366" r="1" style="fill:#ffffff" />
<circle cx="238" cy="367" r="1" style="fill:#ffffff" />
<circle cx="234" cy="366" r="1" style="fill:#ffffff" />
<circle cx="230" cy="363" r="1" style="fill:#ffffff" />
<circle cx="228" cy="359" r="1" style="fill:#ffffff" />
<circle cx="228" cy="355" r="1" style="fill:#ffffff" />
<circle cx="230" cy="351" r="1" style="fill:#ffffff" />
<circle cx="234" cy="348" r="1" style="fill:#ffffff" />
<circle cx="96" cy="215" r="1" style="fill:#ffffff" />
<circle cx="100" cy="215" r="1" style="fill:#ffffff" />
<circle cx="105" cy="216" r="1" style="fill:#ffffff" />
<circle cx="110" cy="217" r="1" style="fill:#ffffff" />
<circle cx="114" cy="219" r="1" style="fill:#ffffff" />
<circle cx="118" cy="221" r="1" style="fill:#ffffff" />
<circle cx="122" cy="224" r="1" style="fill:#ffffff" />
<circle cx="126" cy="227" r="1" style="fill:#ffffff" />
<circle cx="129" cy="230" r="1" style="fill:#ffffff" />
<circle cx="132" cy="234" r="1" style="fill:#ffffff" />
<circle cx="135" cy="238" r="1" style="fill:#ffffff" />
<circle cx="137" cy="242" r="1" style="fill:#ffffff" />
<circle cx="139" cy="246" r="1" style="fill:#ffffff" />
<circle cx="140" cy="251" r="1" style="fill:#ffffff" />
<circle cx="141" cy="256" r="1" style="fill:#ffffff" />
<circle cx="141" cy="260" r="1" style="fill:#ffffff" />
<circle cx="141" cy="264" r="1" style="fill:#ffffff" />
<circle cx="140" cy="269" r="1" style="fill:#ffffff" />
<circle cx="139" cy="274" r="1" style="fill:#ffffff" />
<circle cx="137" cy="278" r="1" style="fill:#ffffff" />
<circle cx="135" cy="282" r="1" style="fill:#ffffff" />
<circle cx="132" cy="286" r="1" style="fill:#ffffff" />
<circle cx="129" cy="290" r="1" style="fill:#ffffff" />
<circle cx="126" cy="293" r="1" style="fill:#ffffff" />
<circle cx="122" cy="296" r="1" style="fill:#ffffff" />
<circle cx="118" cy="299" r="1" style="fill:#ffffff" />
<circle cx="114" cy="301" r="1" style="fill:#ffffff" />
<circle cx="110" cy="303" r="1" style="fill:#ffffff" />
<circle cx="105" cy="304" r="1" style="fill:#ffffff" />
<circle cx="100" cy="305" r="1" style="fill:#ffffff" />
<circle cx="96" cy="305" r="1" style="fill:#ffffff" />
<circle cx="92" cy="305" r="1" style="fill:#ffffff" />
<circle cx="87" cy="304" r="1" style="fill:#ffffff" />
<circle cx="82" cy="303" r="1" style="fill:#ffffff" />
<circle cx="78" cy="301" r="1" style="fill:#ffffff" />
<circle cx="74" cy="299" r="1" style="fill:#ffffff" />
<circle cx="70" cy="296" r="1" style="fill:#ffffff" />
<circle cx="66" cy="293" r="1" style="fill:#ffffff" />
<circle cx="63" cy="290" r="1" style="fill:#ffffff" />
<circle cx="60" cy="286" r="1" style="fill:#ffffff" />
<circle cx="57" cy="282" r="1" style="fill:#ffffff" />
<circle cx="55" cy="278" r="1" style="fill:#ffffff" />
<circle cx="53" cy="274" r="1" style="fill:#ffffff" />
<circle cx="52" cy="269" r="1" style="fill:#ffffff" />
<circle cx="51" cy="264" r="1" style="fill:#ffffff" />
<circle cx="51" cy="260" r="1" style="fill:#ffffff" />
<circle cx="51" cy="256" r="1" style="fill:#ffffff" />
<circle cx="52" cy="251" r="1" style="fill:#ffffff" />
<circle cx="53" cy="246" r="1" style="fill:#ffffff" />
<circle cx="55" cy="242" r="1" style="fill:#ffffff" />
<circle cx="57" cy="238" r="1" style="fill:#ffffff" />
<circle cx="60" cy="234" r="1" style="fill:#ffffff" />
<circle cx="63" cy="230" r="1" style="fill:#ffffff" />
<circle cx="66" cy="227" r="1" style="fill:#ffffff" />
<circle cx="70" cy="224" r="1" style="fill:#ffffff" />
<circle cx="74" cy="221" r="1" style="fill:#ffffff" />
<circle cx="78" cy="219" r="1" style="fill:#ffffff" />
<circle cx="82" cy="217" r="1" style="fill:#ffffff" />
<circle cx="87" cy="216" r="1" style="fill:#ffffff" />
<circle cx="92" cy="215" r="1" style="fill:#ffffff" />
<circle cx="107" cy="40" r="1" style="fill:#ffffff" />
<circle cx="111" cy="40" r="1" style="fill:#ffffff" />
<circle cx="116" cy="40" r="1" style="fill:#ffffff" />
<circle cx="121" cy="41" r="1" style="fill:#ffffff" />
<circle cx="125" cy="43" r="1" style="fill:#ffffff" />
<circle cx="130" cy="44" r="1" style="fill:#ffffff" />
<circle cx="134" cy="46" r="1" style="fill:#ffffff" />
<circle cx="138" cy="49" r="1" style="fill:#ffffff" />
<circle cx="142" cy="51" r="1" style="fill:#ffffff" />
<circle cx="146" cy="54" r="1" style="fill:#ffffff" />
<circle cx="149" cy="58" r="1" style="fill:#ffffff" />
<circle cx="152" cy="61" r="1" style="fill:#ffffff" />
<circle cx="155" cy="65" r="1" style="fill:#ffffff" />
<circle cx="158" cy="69" r="1" style="fill:#ffffff" />
<circle cx="160" cy="73" r="1" style="fill:#ffffff" />
<circle cx="162" cy="77" r="1" style="fill:#ffffff" />
<circle cx="164" cy="82" r="1" style="fill:#ffffff" />
<circle cx="165" cy="87" r="1" style="fill:#ffffff" />
<circle cx="166" cy="91" r="1" style="fill:#ffffff" />
<circle cx="166" cy="96" r="1" style="fill:#ffffff" />
<circle cx="166" cy="100" r="1" style="fill:#ffffff" />
<circle cx="166" cy="104" r="1" style="fill:#ffffff" />
<circle cx="165" cy="109" r="1" style="fill:#ffffff" />
<circle cx="164" cy="114" r="1" style="fill:#ffffff" />
<circle cx="163" cy="118" r="1" style="fill:#ffffff" />
<circle cx="161" cy="123" r="1" style="fill:#ffffff" />
<circle cx="159" cy="127" r="1" style="fill:#ffffff" />
<circle cx="157" cy="131" r="1" style="fill:#ffffff" />
<circle cx="154" cy="135" r="1" style="fill:#ffffff" />
<circle cx="151" cy="139" r="1" style="fill:#ffffff" />
<circle cx="148" cy="142" r="1" style="fill:#ffffff" />
<circle cx="144" cy="145" r="1" style="fill:#ffffff" />
<circle cx="140" cy="148" r="1" style="fill:#ffffff" />
<circle cx="136" cy="151" r="1" style="fill:#ffffff" />
<circle cx="132" cy="153" r="1" style="fill:#ffffff" />
<circle cx="127" cy="155" r="1" style="fill:#ffffff" />
<circle cx="123" cy="156" r="1" style="fill:#ffffff" />
<circle cx="118" cy="157" r="1" style="fill:#ffffff" />
<circle cx="114" cy="158" r="1" style="fill:#ffffff" />
<circle cx="109" cy="158" r="1" style="fill:#ffffff" />
<circle cx="105" cy="158" r="1" style="fill:#ffffff" />
<circle cx="100" cy="158" r="1" style="fill:#ffffff" />
<circle cx="96" cy="157" r="1" style="fill:#ffffff" />
<circle cx="91" cy="156" r="1" style="fill:#ffffff" />
<circle cx="87" cy="155" r="1" style="fill:#ffffff" />
<circle cx="82" cy="153" r="1" style="fill:#ffffff" />
<circle cx="78" cy="151" r="1" style="fill:#ffffff" />
<circle cx="74" cy="148" r="1" style="fill:#ffffff" />
<circle cx="70" cy="145" r="1" style="fill:#ffffff" />
<circle cx="66" cy="142" r="1" style="fill:#ffffff" />
<circle cx="63" cy="139" r="1" style="fill:#ffffff" />
<circle cx="60" cy="135" r="1" style="fill:#ffffff" />
<circle cx="57" cy="131" r="1" style="fill:#ffffff" />
<circle cx="55" cy="127" r="1" style="fill:#ffffff" />
<circle cx="53" cy="123" r="1" style="fill:#ffffff" />
<circle cx="51" cy="118" r="1" style="fill:#ffffff" />
<circle cx="50" cy="114" r="1" style="fill:#ffffff" />
<circle cx="49" cy="109" r="1" style="fill:#ffffff" />
<circle cx="48" cy="104" r="1" style="fill:#ffffff" />
<circle cx="48" cy="100" r="1" style="fill:#ffffff" />
<circle cx="48" cy="96" r="1" style="fill:#ffffff" />
<circle cx="48" cy="91" r="1" style="fill:#ffffff" />
<circle cx="49" cy="87" r="1" style="fill:#ffffff" />
<circle cx="50" cy="82" r="1" style="fill:#ffffff" />
<circle cx="52" cy="77" r="1" style="fill:#ffffff" />
<circle cx="54" cy="73" r="1" style="fill:#ffffff" />
<circle cx="56" cy="69" r="1" style="fill:#ffffff" />
<circle cx="59" cy="65" r="1" style="fill:#ffffff" />
<circle cx="62" cy="61" r="1" style="fill:#ffffff" />
<circle cx="65" cy="58" r="1" style="fill:#ffffff" />
<circle cx="68" cy="54" r="1" style="fill:#ffffff" />
<circle cx="72" cy="51" r="1" style="fill:#ffffff" />
<circle cx="76" cy="49" r="1" style="fill:#ffffff" />
<circle cx="80" cy="46" r="1" style="fill:#ffffff" />
<circle cx="84" cy="44" r="1" style="fill:#ffffff" />
<circle cx="89" cy="43" r="1" style="fill:#ffffff" />
<circle cx="93" cy="41" r="1" style="fill:#ffffff" />
<circle cx="98" cy="40" r="1" style="fill:#ffffff" />
<circle cx="103" cy="40" r="1" style="fill:#ffffff" />
</g>
<g font-size="10.000000" stroke="none">
<text x="230" y="62">oovBuilder</text>
<text x="359" y="49">oovCMaker</text>
<text x="347" y="204">oovCommon</text>
<text x="432" y="98">oovCovInstr</text>
<text x="416" y="258">oovCppParser</text>
<text x="347" y="347">oovEdit</text>
<text x="160" y="370">oovGuiCommon</text>
<text x="61" y="308">oovcde</text>
<text x="51" y="161">oovcde/BLL</text>
</g>
</svg>