<svg xmlns="http://www.w3.org/2000/svg" version="1.1" width="1017" height="828">
<g  fill="#f5f5ff" stroke="#000000" style="stroke-width:1">
<line x1="507" y1="50" x2="507" y2="29" />
<line x1="510" y1="50" x2="510" y2="29" />
<line x1="566" y1="55" x2="569" y2="34" />
<line x1="747" y1="147" x2="761" y2="132" />
<line x1="753" y1="154" x2="768" y2="139" />
<line x1="760" y1="161" x2="775" y2="146" />
<line x1="766" y1="168" x2="782" y2="154" />
<line x1="770" y1="173" x2="787" y2="160" />
<line x1="773" y1="176" x2="789" y2="163" />
<line x1="820" y1="533" x2="839" y2="542" />
<line x1="794" y1="581" x2="811" y2="592" />
<line x1="765" y1="618" x2="781" y2="632" />
<line x1="745" y1="640" x2="759" y2="655" />
<line x1="725" y1="657" x2="738" y2="673" />
<line x1="714" y1="666" x2="727" y2="683" />
<line x1="709" y1="670" x2="721" y2="687" />
<line x1="698" y1="677" x2="710" y2="695" />
<line x1="695" y1="679" x2="707" y2="697" />
<line x1="694" y1="680" x2="706" y2="697" />
<line x1="683" y1="686" x2="694" y2="705" />
<line x1="679" y1="689" x2="690" y2="707" />
<line x1="295" y1="661" x2="282" y2="678" />
<line x1="293" y1="660" x2="280" y2="676" />
<line x1="292" y1="658" x2="278" y2="675" />
<line x1="288" y1="656" x2="275" y2="672" />
<line x1="198" y1="539" x2="179" y2="548" />
<line x1="184" y1="506" x2="164" y2="513" />
<line x1="184" y1="504" x2="164" y2="511" />
<line x1="178" y1="485" x2="157" y2="491" />
<line x1="167" y1="353" x2="146" y2="351" />
<line x1="168" y1="344" x2="148" y2="341" />
<line x1="170" y1="331" x2="150" y2="328" />
<line x1="183" y1="282" x2="164" y2="275" />
<line x1="185" y1="277" x2="165" y2="270" />
<line x1="209" y1="224" x2="191" y2="214" />
<line x1="224" y1="200" x2="207" y2="188" />
<line x1="225" y1="198" x2="208" y2="186" />
<line x1="227" y1="196" x2="209" y2="184" />
<line x1="251" y1="166" x2="235" y2="152" />
<line x1="260" y1="156" x2="245" y2="141" />
<line x1="280" y1="136" x2="266" y2="120" />
<line x1="291" y1="127" x2="278" y2="111" />
<line x1="386" y1="72" x2="379" y2="53" />
<line x1="485" y1="51" x2="484" y2="30" />
<line x1="501" y1="50" x2="501" y2="29" />
<line x1="506" y1="50" x2="506" y2="29" />
</g>
<g  fill="#f5f5ff" stroke="#803e75" style="stroke-width:1">
<line x1="538" y1="56" x2="240" y2="599" />
<line x1="538" y1="56" x2="753" y2="161" />
<line x1="538" y1="56" x2="661" y2="92" />
<line x1="538" y1="56" x2="842" y2="349" />
<line x1="538" y1="56" x2="339" y2="100" />
</g>
<g  fill="#f5f5ff" stroke="#ff6800" style="stroke-width:1">
<line x1="661" y1="92" x2="747" y2="154" />
<line x1="661" y1="92" x2="243" y2="183" />
<line x1="661" y1="92" x2="494" y2="55" />
<line x1="661" y1="92" x2="274" y2="149" />
<line x1="661" y1="92" x2="339" y2="100" />
<line x1="661" y1="92" x2="842" y2="349" />
</g>
<g  fill="#f5f5ff" stroke="#cea262" style="stroke-width:1">
<line x1="753" y1="161" x2="776" y2="597" />
<line x1="753" y1="161" x2="803" y2="556" />
<line x1="753" y1="161" x2="339" y2="100" />
<line x1="753" y1="161" x2="274" y2="149" />
<line x1="753" y1="161" x2="842" y2="349" />
<line x1="753" y1="161" x2="436" y2="63" />
<line x1="753" y1="161" x2="708" y2="664" />
<line x1="753" y1="161" x2="494" y2="55" />
<line x1="753" y1="161" x2="661" y2="92" />
</g>
<g  fill="#f5f5ff" stroke="#817066" style="stroke-width:1">
<line x1="759" y1="168" x2="765" y2="174" />
<line x1="759" y1="168" x2="181" y2="308" />
</g>
<g  fill="#f5f5ff" stroke="#f6768e" style="stroke-width:1">
<line x1="768" y1="178" x2="274" y2="149" />
<line x1="768" y1="178" x2="289" y2="135" />
<line x1="768" y1="178" x2="776" y2="597" />
</g>
<g  fill="#f5f5ff" stroke="#00538a" style="stroke-width:1">
<line x1="842" y1="349" x2="708" y2="664" />
<line x1="842" y1="349" x2="700" y2="670" />
</g>
<g  fill="#f5f5ff" stroke="#53377a" style="stroke-width:1">
<line x1="776" y1="597" x2="274" y2="149" />
<line x1="776" y1="597" x2="339" y2="100" />
<line x1="776" y1="597" x2="494" y2="55" />
</g>
<g  fill="#f5f5ff" stroke="#ff8e00" style="stroke-width:1">
<line x1="752" y1="626" x2="686" y2="679" />
<line x1="752" y1="626" x2="661" y2="92" />
<line x1="752" y1="626" x2="747" y2="154" />
<line x1="752" y1="626" x2="274" y2="149" />
<line x1="752" y1="626" x2="759" y2="168" />
<line x1="752" y1="626" x2="768" y2="178" />
<line x1="752" y1="626" x2="842" y2="349" />
<line x1="752" y1="626" x2="731" y2="645" />
<line x1="752" y1="626" x2="201" y2="252" />
<line x1="752" y1="626" x2="240" y2="599" />
<line x1="752" y1="626" x2="483" y2="729" />
</g>
<g  fill="#f5f5ff" stroke="#b32851" style="stroke-width:1">
<line x1="731" y1="645" x2="692" y2="675" />
<line x1="731" y1="645" x2="694" y2="674" />
<line x1="731" y1="645" x2="717" y2="657" />
<line x1="731" y1="645" x2="700" y2="670" />
<line x1="731" y1="645" x2="708" y2="664" />
</g>
<g  fill="#f5f5ff" stroke="#232c16" style="stroke-width:1">
<line x1="686" y1="679" x2="483" y2="729" />
</g>
<g  fill="#f5f5ff" stroke="#803e75" style="stroke-width:1">
<line x1="483" y1="729" x2="339" y2="100" />
<line x1="483" y1="729" x2="708" y2="664" />
<line x1="483" y1="729" x2="731" y2="645" />
<line x1="483" y1="729" x2="700" y2="670" />
<line x1="483" y1="729" x2="243" y2="183" />
<line x1="483" y1="729" x2="297" y2="656" />
<line x1="483" y1="729" x2="494" y2="55" />
<line x1="483" y1="729" x2="803" y2="556" />
<line x1="483" y1="729" x2="842" y2="349" />
<line x1="483" y1="729" x2="768" y2="178" />
<line x1="483" y1="729" x2="765" y2="174" />
<line x1="483" y1="729" x2="274" y2="149" />
<line x1="483" y1="729" x2="747" y2="154" />
<line x1="483" y1="729" x2="240" y2="599" />
<line x1="483" y1="729" x2="661" y2="92" />
</g>
<g  fill="#f5f5ff" stroke="#cea262" style="stroke-width:1">
<line x1="293" y1="653" x2="297" y2="656" />
</g>
<g  fill="#f5f5ff" stroke="#817066" style="stroke-width:1">
<line x1="240" y1="599" x2="803" y2="556" />
<line x1="240" y1="599" x2="188" y2="503" />
<line x1="240" y1="599" x2="195" y2="521" />
<line x1="240" y1="599" x2="731" y2="645" />
<line x1="240" y1="599" x2="842" y2="349" />
</g>
<g  fill="#f5f5ff" stroke="#ff7a5c" style="stroke-width:1">
<line x1="171" y1="419" x2="195" y2="521" />
</g>
<g  fill="#f5f5ff" stroke="#7f180d" style="stroke-width:1">
<line x1="201" y1="252" x2="221" y2="214" />
<line x1="201" y1="252" x2="240" y2="599" />
<line x1="201" y1="252" x2="753" y2="161" />
</g>
<g  fill="#f5f5ff" stroke="#93aa00" style="stroke-width:1">
<line x1="221" y1="214" x2="339" y2="100" />
<line x1="221" y1="214" x2="436" y2="63" />
<line x1="221" y1="214" x2="494" y2="55" />
<line x1="221" y1="214" x2="195" y2="521" />
<line x1="221" y1="214" x2="661" y2="92" />
<line x1="221" y1="214" x2="700" y2="670" />
<line x1="221" y1="214" x2="243" y2="183" />
<line x1="221" y1="214" x2="274" y2="149" />
</g>
<g  fill="#f5f5ff" stroke="#593315" style="stroke-width:1">
<line x1="229" y1="201" x2="494" y2="55" />
<line x1="229" y1="201" x2="483" y2="729" />
<line x1="229" y1="201" x2="274" y2="149" />
</g>
<g  fill="#f5f5ff" stroke="#ffb300" style="stroke-width:1">
<line x1="259" y1="164" x2="274" y2="149" />
<line x1="259" y1="164" x2="747" y2="154" />
<line x1="259" y1="164" x2="842" y2="349" />
<line x1="259" y1="164" x2="339" y2="100" />
<line x1="259" y1="164" x2="731" y2="645" />
<line x1="259" y1="164" x2="708" y2="664" />
<line x1="259" y1="164" x2="243" y2="183" />
<line x1="259" y1="164" x2="661" y2="92" />
<line x1="259" y1="164" x2="289" y2="135" />
<line x1="259" y1="164" x2="494" y2="55" />
</g>
<g  fill="#f5f5ff" stroke="#ff6800" style="stroke-width:1">
<line x1="289" y1="135" x2="494" y2="55" />
<line x1="289" y1="135" x2="436" y2="63" />
<line x1="289" y1="135" x2="765" y2="174" />
<line x1="289" y1="135" x2="339" y2="100" />
<line x1="289" y1="135" x2="274" y2="149" />
<line x1="289" y1="135" x2="243" y2="183" />
<line x1="289" y1="135" x2="293" y2="653" />
<line x1="289" y1="135" x2="700" y2="670" />
<line x1="289" y1="135" x2="708" y2="664" />
<line x1="289" y1="135" x2="731" y2="645" />
<line x1="289" y1="135" x2="842" y2="349" />
<line x1="289" y1="135" x2="747" y2="154" />
</g>
<g  fill="#f5f5ff" stroke="#cea262" style="stroke-width:1">
<line x1="436" y1="63" x2="293" y2="653" />
<line x1="436" y1="63" x2="842" y2="349" />
<line x1="436" y1="63" x2="243" y2="183" />
<line x1="436" y1="63" x2="339" y2="100" />
</g>
<g  fill="#f5f5ff" stroke="#c10020" style="stroke-width:1">
</g>
<g  fill="#f5f5ff" stroke="#000000" style="stroke-width:1">
<circle cx="509" cy="55" r="1" style="fill:#ffffff" />
<circle cx="538" cy="56" r="1" style="fill:#ffffff" />
<circle cx="661" cy="92" r="1" style="fill:#ffffff" />
<circle cx="747" cy="154" r="1" style="fill:#ffffff" />
<circle cx="753" cy="161" r="1" style="fill:#ffffff" />
<circle cx="759" cy="168" r="1" style="fill:#ffffff" />
<circle cx="765" cy="174" r="1" style="fill:#ffffff" />
<circle cx="768" cy="178" r="1" style="fill:#ffffff" />
<circle cx="842" cy="349" r="1" style="fill:#ffffff" />
<circle cx="803" cy="556" r="1" style="fill:#ffffff" />
<circle cx="776" cy="597" r="1" style="fill:#ffffff" />
<circle cx="752" cy="626" r="1" style="fill:#ffffff" />
<circle cx="731" cy="645" r="1" style="fill:#ffffff" />
<circle cx="717" cy="657" r="1" style="fill:#ffffff" />
<circle cx="708" cy="664" r="1" style="fill:#ffffff" />
<circle cx="700" cy="670" r="1" style="fill:#ffffff" />
<circle cx="694" cy="674" r="1" style="fill:#ffffff" />
<circle cx="692" cy="675" r="1" style="fill:#ffffff" />
<circle cx="686" cy="679" r="1" style="fill:#ffffff" />
<circle cx="678" cy="684" r="1" style="fill:#ffffff" />
<circle cx="483" cy="729" r="1" style="fill:#ffffff" />
<circle cx="297" cy="656" r="1" style="fill:#ffffff" />
<circle cx="295" cy="655" r="1" style="fill:#ffffff" />
<circle cx="293" cy="653" r="1" style="fill:#ffffff" />
<circle cx="240" cy="599" r="1" style="fill:#ffffff" />
<circle cx="195" cy="521" r="1" style="fill:#ffffff" />
<circle cx="188" cy="503" r="1" style="fill:#ffffff" />
<circle cx="185" cy="492" r="1" style="fill:#ffffff" />
<circle cx="171" cy="419" r="1" style="fill:#ffffff" />
<circle cx="173" cy="349" r="1" style="fill:#ffffff" />
<circle cx="174" cy="338" r="1" style="fill:#ffffff" />
<circle cx="181" cy="308" r="1" style="fill:#ffffff" />
<circle cx="189" cy="281" r="1" style="fill:#ffffff" />
<circle cx="201" cy="252" r="1" style="fill:#ffffff" />
<circle cx="221" cy="214" r="1" style="fill:#ffffff" />
<circle cx="229" cy="201" r="1" style="fill:#ffffff" />
<circle cx="230" cy="200" r="1" style="fill:#ffffff" />
<circle cx="243" cy="183" r="1" style="fill:#ffffff" />
<circle cx="259" cy="164" r="1" style="fill:#ffffff" />
<circle cx="274" cy="149" r="1" style="fill:#ffffff" />
<circle cx="289" cy="135" r="1" style="fill:#ffffff" />
<circle cx="339" cy="100" r="1" style="fill:#ffffff" />
<circle cx="436" cy="63" r="1" style="fill:#ffffff" />
<circle cx="494" cy="55" r="1" style="fill:#ffffff" />
<circle cx="504" cy="55" r="1" style="fill:#ffffff" />
<circle cx="506" cy="55" r="1" style="fill:#ffffff" />
</g>
<g font-size="10.000000" stroke="none">
<text x="514" y="19">include/llvm</text>
<text x="546" y="20">inc-lib/ADT</text>
<text x="682" y="60">inc-lib/Analysis</text>
<text x="777" y="129">inc-lib/Analysis/IPA</text>
<text x="784" y="136">inc-lib/AsmParser</text>
<text x="791" y="144">inc-lib/Bitcode</text>
<text x="797" y="151">inc-lib/Bitcode/Reader</text>
<text x="801" y="155">inc-lib/Bitcode/Writer</text>
<text x="883" y="344">inc-lib/CodeGen</text>
<text x="839" y="573">inc-lib/CodeGen/AsmPrinter</text>
<text x="810" y="619">inc-lib/CodeGen/SelectionDAG</text>
<text x="783" y="651">inc-lib/DebugInfo</text>
<text x="760" y="672">inc-lib/ExecutionEngine</text>
<text x="744" y="686">inc-lib/ExecutionEngine/IntelJITEvents</text>
<text x="734" y="693">inc-lib/ExecutionEngine/Interpreter</text>
<text x="726" y="699">inc-lib/ExecutionEngine/JIT</text>
<text x="719" y="704">inc-lib/ExecutionEngine/MCJIT</text>
<text x="717" y="705">inc-lib/ExecutionEngine/OProfileJIT</text>
<text x="710" y="710">inc-lib/ExecutionEngine/RuntimeDyld</text>
<text x="702" y="715">inc-lib/ExecutionEngine/RuntimeDyld/Targets</text>
<text x="432" y="765">inc-lib/IR</text>
<text x="215" y="684">inc-lib/LTO</text>
<text x="184" y="683">inc-lib/LineEditor</text>
<text x="203" y="681">inc-lib/Linker</text>
<text x="158" y="621">inc-lib/MC</text>
<text x="50" y="534">inc-lib/MC/MCAnalysis</text>
<text x="19" y="514">inc-lib/MC/MCDisassembler</text>
<text x="48" y="503">inc-lib/MC/MCParser</text>
<text x="65" y="421">inc-lib/Object</text>
<text x="67" y="344">inc-lib/Option</text>
<text x="48" y="332">inc-lib/ProfileData</text>
<text x="70" y="299">inc-lib/Support</text>
<text x="35" y="269">inc-lib/Support/Windows</text>
<text x="82" y="237">inc-lib/TableGen</text>
<text x="120" y="195">inc-lib/Target</text>
<text x="110" y="181">inc-lib/Transforms</text>
<text x="84" y="179">inc-lib/Transforms/Hello</text>
<text x="104" y="161">inc-lib/Transforms/IPO</text>
<text x="82" y="139">inc-lib/Transforms/InstCombine</text>
<text x="84" y="123">inc-lib/Transforms/Instrumentation</text>
<text x="129" y="108">inc-lib/Transforms/ObjCARC</text>
<text x="198" y="69">inc-lib/Transforms/Scalar</text>
<text x="315" y="27">inc-lib/Transforms/Utils</text>
<text x="356" y="19">inc-lib/Transforms/Vectorize</text>
<text x="431" y="19">include/llvm-c</text>
<text x="379" y="19">include/llvm-c/Transforms</text>
</g>
</svg>