<svg xmlns="http://www.w3.org/2000/svg" version="1.1"
 font-family="Arial, Helvetica, sans-serif" font-size="10.00" width="449" height="379" viewbox="0 0 449 379">
<g  fill="#f5f5ff" stroke="#000000" style="stroke-width:1">
</g>
<g  fill="#f5f5ff" stroke="#ffb300" style="stroke-width:1">
<line x1="230" y1="21" x2="232" y2="22" />
<line x1="239" y1="28" x2="236" y2="24" />
<line x1="240" y1="30" x2="236" y2="24" />
<line x1="240" y1="32" x2="234" y2="22" />
<line x1="240" y1="32" x2="239" y2="28" />
<line x1="240" y1="32" x2="220" y2="32" />
<line x1="238" y1="36" x2="234" y2="40" />
<line x1="234" y1="40" x2="232" y2="40" />
<line x1="232" y1="40" x2="226" y2="22" />
<line x1="232" y1="40" x2="224" y2="24" />
<line x1="232" y1="40" x2="236" y2="24" />
<line x1="230" y1="41" x2="236" y2="24" />
<line x1="230" y1="41" x2="226" y2="22" />
<line x1="224" y1="38" x2="221" y2="28" />
<line x1="222" y1="36" x2="221" y2="28" />
<line x1="221" y1="34" x2="221" y2="28" />
<line x1="220" y1="30" x2="221" y2="28" />
<line x1="221" y1="28" x2="220" y2="32" />
<line x1="222" y1="26" x2="236" y2="24" />
</g>
<g  fill="#f5f5ff" stroke="#ff6800" style="stroke-width:1">
<line x1="335" y1="84" x2="232" y2="22" />
<line x1="337" y1="85" x2="232" y2="40" />
<line x1="339" y1="85" x2="324" y2="35" />
<line x1="339" y1="85" x2="90" y2="255" />
<line x1="339" y1="85" x2="74" y2="260" />
<line x1="339" y1="85" x2="232" y2="40" />
<line x1="342" y1="85" x2="372" y2="217" />
<line x1="347" y1="87" x2="226" y2="22" />
<line x1="347" y1="87" x2="232" y2="40" />
<line x1="347" y1="87" x2="267" y2="295" />
<line x1="349" y1="88" x2="81" y2="257" />
<line x1="349" y1="88" x2="64" y2="277" />
<line x1="349" y1="88" x2="116" y2="281" />
<line x1="349" y1="88" x2="173" y2="274" />
<line x1="349" y1="88" x2="345" y2="244" />
<line x1="351" y1="89" x2="355" y2="92" />
<line x1="351" y1="89" x2="353" y2="90" />
<line x1="364" y1="101" x2="319" y2="89" />
<line x1="364" y1="101" x2="236" y2="24" />
<line x1="364" y1="101" x2="96" y2="306" />
<line x1="364" y1="101" x2="284" y2="312" />
<line x1="364" y1="101" x2="347" y2="246" />
<line x1="364" y1="101" x2="371" y2="219" />
<line x1="366" y1="105" x2="324" y2="35" />
<line x1="366" y1="105" x2="236" y2="24" />
<line x1="366" y1="105" x2="113" y2="293" />
<line x1="366" y1="105" x2="121" y2="73" />
<line x1="366" y1="105" x2="94" y2="124" />
<line x1="366" y1="105" x2="84" y2="126" />
<line x1="366" y1="105" x2="93" y2="307" />
<line x1="368" y1="112" x2="368" y2="115" />
<line x1="368" y1="112" x2="347" y2="246" />
<line x1="368" y1="112" x2="367" y2="126" />
<line x1="368" y1="112" x2="367" y2="128" />
<line x1="368" y1="112" x2="104" y2="49" />
<line x1="368" y1="115" x2="57" y2="118" />
<line x1="368" y1="115" x2="347" y2="246" />
<line x1="368" y1="115" x2="117" y2="64" />
<line x1="368" y1="115" x2="70" y2="124" />
<line x1="369" y1="117" x2="368" y2="115" />
<line x1="369" y1="117" x2="364" y2="135" />
<line x1="369" y1="119" x2="368" y2="115" />
<line x1="369" y1="119" x2="359" y2="141" />
<line x1="369" y1="119" x2="366" y2="131" />
<line x1="368" y1="121" x2="69" y2="44" />
<line x1="368" y1="121" x2="369" y2="119" />
<line x1="368" y1="121" x2="108" y2="262" />
<line x1="368" y1="121" x2="53" y2="115" />
<line x1="368" y1="121" x2="364" y2="135" />
<line x1="368" y1="121" x2="100" y2="47" />
<line x1="368" y1="124" x2="347" y2="249" />
<line x1="368" y1="124" x2="347" y2="246" />
<line x1="368" y1="124" x2="117" y2="64" />
<line x1="368" y1="124" x2="368" y2="115" />
<line x1="367" y1="128" x2="55" y2="117" />
<line x1="364" y1="135" x2="347" y2="246" />
<line x1="364" y1="135" x2="65" y2="275" />
<line x1="364" y1="135" x2="115" y2="60" />
<line x1="364" y1="135" x2="367" y2="126" />
<line x1="362" y1="137" x2="74" y2="43" />
<line x1="362" y1="137" x2="107" y2="117" />
<line x1="362" y1="137" x2="81" y2="42" />
<line x1="362" y1="137" x2="341" y2="244" />
<line x1="362" y1="137" x2="97" y2="46" />
<line x1="362" y1="137" x2="317" y2="272" />
<line x1="362" y1="137" x2="173" y2="274" />
<line x1="362" y1="137" x2="113" y2="293" />
<line x1="362" y1="137" x2="54" y2="52" />
<line x1="362" y1="137" x2="93" y2="307" />
<line x1="362" y1="137" x2="44" y2="103" />
<line x1="362" y1="137" x2="48" y2="109" />
<line x1="362" y1="137" x2="65" y2="275" />
<line x1="362" y1="137" x2="80" y2="126" />
<line x1="359" y1="141" x2="357" y2="143" />
<line x1="359" y1="141" x2="361" y2="139" />
<line x1="359" y1="141" x2="365" y2="133" />
<line x1="359" y1="141" x2="367" y2="128" />
<line x1="355" y1="144" x2="369" y2="117" />
<line x1="353" y1="146" x2="359" y2="141" />
<line x1="353" y1="146" x2="368" y2="115" />
<line x1="353" y1="146" x2="369" y2="117" />
<line x1="353" y1="146" x2="368" y2="121" />
<line x1="353" y1="146" x2="366" y2="131" />
<line x1="353" y1="146" x2="367" y2="126" />
<line x1="353" y1="146" x2="66" y2="272" />
<line x1="347" y1="149" x2="65" y2="286" />
<line x1="344" y1="150" x2="339" y2="151" />
<line x1="339" y1="151" x2="331" y2="85" />
<line x1="339" y1="151" x2="116" y2="281" />
<line x1="339" y1="151" x2="346" y2="251" />
<line x1="339" y1="151" x2="337" y2="85" />
<line x1="339" y1="151" x2="282" y2="313" />
<line x1="339" y1="151" x2="335" y2="84" />
<line x1="339" y1="151" x2="315" y2="92" />
<line x1="339" y1="151" x2="339" y2="85" />
<line x1="339" y1="151" x2="230" y2="41" />
<line x1="339" y1="151" x2="366" y2="105" />
<line x1="339" y1="151" x2="309" y2="97" />
<line x1="335" y1="152" x2="64" y2="277" />
<line x1="333" y1="151" x2="88" y2="255" />
<line x1="333" y1="151" x2="337" y2="151" />
<line x1="333" y1="151" x2="272" y2="293" />
<line x1="323" y1="149" x2="116" y2="277" />
<line x1="323" y1="149" x2="312" y2="268" />
<line x1="319" y1="147" x2="317" y2="146" />
<line x1="317" y1="146" x2="303" y2="128" />
<line x1="313" y1="143" x2="86" y2="255" />
<line x1="313" y1="143" x2="281" y2="295" />
<line x1="313" y1="143" x2="107" y2="117" />
<line x1="313" y1="143" x2="303" y2="128" />
<line x1="313" y1="143" x2="311" y2="141" />
<line x1="311" y1="141" x2="315" y2="144" />
<line x1="309" y1="139" x2="239" y2="28" />
<line x1="309" y1="139" x2="303" y2="126" />
<line x1="309" y1="139" x2="315" y2="144" />
<line x1="309" y1="139" x2="286" y2="303" />
<line x1="309" y1="139" x2="226" y2="22" />
<line x1="309" y1="139" x2="222" y2="26" />
<line x1="309" y1="139" x2="86" y2="255" />
<line x1="308" y1="137" x2="304" y2="131" />
<line x1="308" y1="137" x2="281" y2="315" />
<line x1="306" y1="135" x2="303" y2="108" />
<line x1="305" y1="133" x2="83" y2="256" />
<line x1="305" y1="133" x2="102" y2="48" />
<line x1="305" y1="133" x2="113" y2="293" />
<line x1="305" y1="133" x2="106" y2="260" />
<line x1="305" y1="133" x2="93" y2="307" />
<line x1="304" y1="131" x2="281" y2="315" />
<line x1="303" y1="128" x2="107" y2="117" />
<line x1="303" y1="128" x2="281" y2="295" />
<line x1="303" y1="128" x2="93" y2="307" />
<line x1="302" y1="124" x2="266" y2="313" />
<line x1="302" y1="124" x2="239" y2="34" />
<line x1="302" y1="124" x2="238" y2="26" />
<line x1="302" y1="121" x2="347" y2="149" />
<line x1="302" y1="121" x2="266" y2="313" />
<line x1="302" y1="121" x2="226" y2="22" />
<line x1="302" y1="121" x2="222" y2="36" />
<line x1="302" y1="121" x2="328" y2="85" />
<line x1="302" y1="121" x2="302" y2="124" />
<line x1="302" y1="121" x2="234" y2="22" />
<line x1="302" y1="121" x2="232" y2="40" />
<line x1="302" y1="121" x2="238" y2="36" />
<line x1="301" y1="117" x2="357" y2="93" />
<line x1="302" y1="115" x2="217" y2="322" />
<line x1="302" y1="115" x2="94" y2="124" />
<line x1="302" y1="115" x2="364" y2="101" />
<line x1="302" y1="115" x2="272" y2="293" />
<line x1="302" y1="115" x2="326" y2="86" />
<line x1="302" y1="115" x2="83" y2="256" />
<line x1="302" y1="115" x2="61" y2="121" />
<line x1="302" y1="115" x2="230" y2="21" />
<line x1="302" y1="115" x2="232" y2="22" />
<line x1="302" y1="115" x2="107" y2="117" />
<line x1="302" y1="115" x2="238" y2="26" />
<line x1="302" y1="115" x2="226" y2="40" />
<line x1="302" y1="115" x2="112" y2="111" />
<line x1="302" y1="115" x2="117" y2="105" />
<line x1="302" y1="115" x2="317" y2="270" />
<line x1="302" y1="115" x2="316" y2="268" />
<line x1="302" y1="115" x2="314" y2="268" />
<line x1="302" y1="115" x2="232" y2="40" />
<line x1="302" y1="115" x2="122" y2="78" />
<line x1="302" y1="115" x2="347" y2="249" />
<line x1="302" y1="115" x2="123" y2="87" />
<line x1="302" y1="115" x2="81" y2="42" />
<line x1="302" y1="115" x2="108" y2="299" />
<line x1="302" y1="115" x2="368" y2="115" />
<line x1="302" y1="115" x2="353" y2="146" />
<line x1="302" y1="115" x2="48" y2="109" />
<line x1="302" y1="115" x2="339" y2="151" />
<line x1="302" y1="115" x2="72" y2="299" />
<line x1="302" y1="115" x2="286" y2="303" />
<line x1="302" y1="115" x2="43" y2="101" />
<line x1="302" y1="115" x2="41" y2="96" />
<line x1="302" y1="115" x2="326" y2="150" />
<line x1="302" y1="115" x2="315" y2="144" />
<line x1="302" y1="115" x2="272" y2="317" />
<line x1="302" y1="115" x2="46" y2="62" />
<line x1="302" y1="115" x2="276" y2="293" />
<line x1="302" y1="115" x2="266" y2="313" />
<line x1="302" y1="115" x2="263" y2="301" />
<line x1="302" y1="115" x2="319" y2="89" />
<line x1="302" y1="115" x2="263" y2="309" />
<line x1="302" y1="115" x2="69" y2="44" />
<line x1="302" y1="115" x2="65" y2="46" />
<line x1="302" y1="115" x2="82" y2="126" />
<line x1="302" y1="115" x2="313" y2="93" />
<line x1="302" y1="115" x2="367" y2="108" />
<line x1="303" y1="110" x2="302" y2="112" />
<line x1="304" y1="105" x2="308" y2="99" />
<line x1="309" y1="97" x2="93" y2="307" />
<line x1="309" y1="97" x2="115" y2="288" />
<line x1="309" y1="97" x2="104" y2="259" />
<line x1="309" y1="97" x2="65" y2="288" />
<line x1="309" y1="97" x2="109" y2="264" />
<line x1="309" y1="97" x2="89" y2="307" />
<line x1="309" y1="97" x2="71" y2="264" />
<line x1="309" y1="97" x2="113" y2="293" />
<line x1="309" y1="97" x2="80" y2="305" />
<line x1="309" y1="97" x2="68" y2="295" />
<line x1="309" y1="97" x2="65" y2="286" />
<line x1="313" y1="93" x2="232" y2="40" />
<line x1="315" y1="92" x2="323" y2="87" />
<line x1="315" y1="92" x2="317" y2="90" />
<line x1="315" y1="92" x2="321" y2="88" />
<line x1="317" y1="90" x2="328" y2="85" />
<line x1="317" y1="90" x2="67" y2="293" />
<line x1="319" y1="89" x2="313" y2="93" />
<line x1="321" y1="88" x2="328" y2="85" />
<line x1="321" y1="88" x2="324" y2="35" />
<line x1="323" y1="87" x2="66" y2="291" />
<line x1="328" y1="85" x2="232" y2="40" />
<line x1="331" y1="85" x2="311" y2="95" />
<line x1="331" y1="85" x2="328" y2="85" />
<line x1="331" y1="85" x2="68" y2="295" />
<line x1="331" y1="85" x2="80" y2="305" />
<line x1="331" y1="85" x2="65" y2="286" />
<line x1="331" y1="85" x2="93" y2="307" />
<line x1="331" y1="85" x2="324" y2="35" />
<line x1="331" y1="85" x2="232" y2="40" />
</g>
<g  fill="#f5f5ff" stroke="#a6bdd7" style="stroke-width:1">
<line x1="371" y1="218" x2="371" y2="219" />
</g>
<g  fill="#f5f5ff" stroke="#cea262" style="stroke-width:1">
<line x1="345" y1="244" x2="347" y2="246" />
<line x1="348" y1="248" x2="347" y2="246" />
<line x1="347" y1="249" x2="348" y2="248" />
<line x1="346" y1="251" x2="347" y2="246" />
<line x1="341" y1="244" x2="347" y2="246" />
</g>
<g  fill="#f5f5ff" stroke="#817066" style="stroke-width:1">
<line x1="317" y1="270" x2="317" y2="272" />
<line x1="316" y1="274" x2="312" y2="274" />
<line x1="316" y1="274" x2="317" y2="270" />
<line x1="314" y1="274" x2="312" y2="268" />
<line x1="312" y1="274" x2="317" y2="270" />
<line x1="311" y1="272" x2="311" y2="270" />
<line x1="311" y1="270" x2="312" y2="274" />
<line x1="312" y1="268" x2="312" y2="274" />
</g>
<g  fill="#f5f5ff" stroke="#007d34" style="stroke-width:1">
<line x1="274" y1="293" x2="286" y2="303" />
<line x1="276" y1="293" x2="286" y2="303" />
<line x1="276" y1="293" x2="285" y2="301" />
<line x1="278" y1="294" x2="272" y2="293" />
<line x1="278" y1="294" x2="286" y2="303" />
<line x1="281" y1="295" x2="282" y2="297" />
<line x1="282" y1="297" x2="272" y2="293" />
<line x1="282" y1="297" x2="285" y2="309" />
<line x1="282" y1="297" x2="284" y2="312" />
<line x1="284" y1="298" x2="286" y2="303" />
<line x1="286" y1="303" x2="281" y2="295" />
<line x1="286" y1="307" x2="284" y2="312" />
<line x1="285" y1="309" x2="272" y2="293" />
<line x1="282" y1="313" x2="285" y2="309" />
<line x1="282" y1="313" x2="272" y2="293" />
<line x1="281" y1="315" x2="272" y2="293" />
<line x1="278" y1="316" x2="284" y2="312" />
<line x1="276" y1="317" x2="285" y2="309" />
<line x1="276" y1="317" x2="278" y2="316" />
<line x1="274" y1="317" x2="278" y2="316" />
<line x1="272" y1="317" x2="266" y2="313" />
<line x1="270" y1="316" x2="266" y2="313" />
<line x1="270" y1="316" x2="264" y2="312" />
<line x1="267" y1="315" x2="272" y2="317" />
<line x1="267" y1="315" x2="262" y2="303" />
<line x1="266" y1="313" x2="264" y2="312" />
<line x1="264" y1="312" x2="278" y2="316" />
<line x1="262" y1="307" x2="264" y2="312" />
<line x1="266" y1="297" x2="278" y2="316" />
</g>
<g  fill="#f5f5ff" stroke="#f6768e" style="stroke-width:1">
<line x1="221" y1="320" x2="113" y2="293" />
<line x1="221" y1="320" x2="285" y2="309" />
<line x1="221" y1="320" x2="272" y2="293" />
<line x1="221" y1="320" x2="220" y2="330" />
<line x1="221" y1="320" x2="88" y2="255" />
<line x1="223" y1="320" x2="222" y2="330" />
<line x1="225" y1="322" x2="86" y2="255" />
<line x1="226" y1="324" x2="84" y2="306" />
<line x1="226" y1="324" x2="98" y2="306" />
<line x1="226" y1="324" x2="274" y2="317" />
<line x1="226" y1="324" x2="115" y2="275" />
<line x1="226" y1="324" x2="114" y2="272" />
<line x1="226" y1="324" x2="68" y2="295" />
<line x1="226" y1="324" x2="67" y2="293" />
<line x1="226" y1="324" x2="69" y2="266" />
<line x1="226" y1="324" x2="66" y2="291" />
<line x1="226" y1="327" x2="69" y2="266" />
<line x1="226" y1="327" x2="270" y2="294" />
<line x1="226" y1="327" x2="220" y2="330" />
<line x1="226" y1="327" x2="65" y2="286" />
<line x1="226" y1="327" x2="108" y2="262" />
<line x1="226" y1="327" x2="66" y2="291" />
<line x1="226" y1="327" x2="67" y2="293" />
<line x1="220" y1="330" x2="106" y2="260" />
<line x1="220" y1="330" x2="219" y2="320" />
<line x1="220" y1="330" x2="83" y2="256" />
<line x1="218" y1="329" x2="216" y2="324" />
<line x1="218" y1="329" x2="226" y2="324" />
<line x1="216" y1="324" x2="108" y2="262" />
<line x1="216" y1="324" x2="90" y2="255" />
<line x1="216" y1="324" x2="272" y2="293" />
<line x1="216" y1="324" x2="112" y2="268" />
<line x1="216" y1="324" x2="74" y2="260" />
</g>
<g  fill="#f5f5ff" stroke="#53377a" style="stroke-width:1">
<line x1="182" y1="330" x2="165" y2="324" />
<line x1="182" y1="330" x2="165" y2="322" />
<line x1="184" y1="331" x2="165" y2="324" />
<line x1="184" y1="331" x2="164" y2="323" />
<line x1="185" y1="334" x2="184" y2="331" />
<line x1="183" y1="336" x2="185" y2="333" />
<line x1="183" y1="336" x2="181" y2="336" />
<line x1="183" y1="336" x2="179" y2="333" />
<line x1="183" y1="336" x2="165" y2="324" />
<line x1="179" y1="334" x2="184" y2="331" />
<line x1="179" y1="334" x2="183" y2="336" />
<line x1="180" y1="331" x2="183" y2="336" />
</g>
<g  fill="#f5f5ff" stroke="#b32851" style="stroke-width:1">
<line x1="94" y1="255" x2="109" y2="264" />
<line x1="94" y1="255" x2="104" y2="259" />
<line x1="94" y1="255" x2="97" y2="256" />
<line x1="94" y1="255" x2="115" y2="288" />
<line x1="94" y1="255" x2="71" y2="264" />
<line x1="94" y1="255" x2="89" y2="307" />
<line x1="94" y1="255" x2="65" y2="288" />
<line x1="99" y1="257" x2="104" y2="259" />
<line x1="99" y1="257" x2="109" y2="264" />
<line x1="99" y1="257" x2="65" y2="288" />
<line x1="99" y1="257" x2="89" y2="307" />
<line x1="99" y1="257" x2="71" y2="264" />
<line x1="99" y1="257" x2="115" y2="288" />
<line x1="101" y1="258" x2="104" y2="259" />
<line x1="101" y1="258" x2="112" y2="295" />
<line x1="104" y1="259" x2="112" y2="295" />
<line x1="106" y1="260" x2="104" y2="259" />
<line x1="109" y1="264" x2="114" y2="291" />
<line x1="112" y1="268" x2="113" y2="270" />
<line x1="113" y1="270" x2="88" y2="255" />
<line x1="114" y1="272" x2="113" y2="270" />
<line x1="115" y1="275" x2="113" y2="270" />
<line x1="116" y1="280" x2="116" y2="277" />
<line x1="115" y1="286" x2="88" y2="255" />
<line x1="115" y1="288" x2="100" y2="305" />
<line x1="113" y1="293" x2="113" y2="270" />
<line x1="110" y1="297" x2="113" y2="270" />
<line x1="110" y1="297" x2="113" y2="293" />
<line x1="110" y1="297" x2="108" y2="299" />
<line x1="108" y1="299" x2="114" y2="291" />
<line x1="108" y1="299" x2="112" y2="295" />
<line x1="108" y1="299" x2="107" y2="301" />
<line x1="108" y1="299" x2="105" y2="302" />
<line x1="108" y1="299" x2="103" y2="304" />
<line x1="108" y1="299" x2="100" y2="305" />
<line x1="98" y1="306" x2="113" y2="270" />
<line x1="93" y1="307" x2="88" y2="255" />
<line x1="93" y1="307" x2="113" y2="270" />
<line x1="91" y1="307" x2="93" y2="307" />
<line x1="91" y1="307" x2="88" y2="255" />
<line x1="89" y1="307" x2="103" y2="304" />
<line x1="87" y1="307" x2="103" y2="304" />
<line x1="87" y1="307" x2="89" y2="307" />
<line x1="84" y1="306" x2="113" y2="270" />
<line x1="72" y1="299" x2="82" y2="306" />
<line x1="72" y1="299" x2="73" y2="301" />
<line x1="72" y1="299" x2="75" y2="302" />
<line x1="68" y1="295" x2="79" y2="258" />
<line x1="65" y1="288" x2="105" y2="302" />
<line x1="67" y1="270" x2="65" y2="275" />
<line x1="71" y1="264" x2="107" y2="301" />
<line x1="72" y1="262" x2="107" y2="301" />
<line x1="72" y1="262" x2="71" y2="264" />
<line x1="74" y1="260" x2="113" y2="270" />
<line x1="76" y1="259" x2="71" y2="264" />
<line x1="83" y1="256" x2="88" y2="255" />
<line x1="86" y1="255" x2="88" y2="255" />
</g>
<g  fill="#f5f5ff" stroke="#f4c800" style="stroke-width:1">
<line x1="81" y1="42" x2="104" y2="259" />
<line x1="95" y1="45" x2="102" y2="48" />
<line x1="95" y1="45" x2="104" y2="259" />
<line x1="102" y1="48" x2="93" y2="44" />
<line x1="102" y1="48" x2="81" y2="42" />
<line x1="106" y1="51" x2="100" y2="47" />
<line x1="110" y1="54" x2="112" y2="56" />
<line x1="120" y1="68" x2="109" y2="264" />
<line x1="121" y1="73" x2="120" y2="68" />
<line x1="122" y1="75" x2="109" y2="264" />
<line x1="123" y1="83" x2="47" y2="107" />
<line x1="123" y1="83" x2="122" y2="94" />
<line x1="123" y1="83" x2="92" y2="124" />
<line x1="123" y1="84" x2="73" y2="125" />
<line x1="122" y1="92" x2="102" y2="48" />
<line x1="122" y1="92" x2="94" y2="255" />
<line x1="122" y1="92" x2="120" y2="70" />
<line x1="122" y1="92" x2="88" y2="43" />
<line x1="122" y1="92" x2="64" y2="277" />
<line x1="120" y1="99" x2="81" y2="42" />
<line x1="120" y1="99" x2="80" y2="126" />
<line x1="120" y1="99" x2="75" y2="125" />
<line x1="120" y1="99" x2="92" y2="124" />
<line x1="120" y1="99" x2="122" y2="92" />
<line x1="120" y1="99" x2="88" y2="43" />
<line x1="120" y1="99" x2="102" y2="48" />
<line x1="120" y1="99" x2="58" y2="49" />
<line x1="120" y1="99" x2="120" y2="70" />
<line x1="120" y1="99" x2="94" y2="124" />
<line x1="120" y1="99" x2="54" y2="52" />
<line x1="120" y1="99" x2="48" y2="109" />
<line x1="120" y1="99" x2="47" y2="107" />
<line x1="120" y1="99" x2="120" y2="68" />
<line x1="114" y1="109" x2="115" y2="107" />
<line x1="109" y1="115" x2="113" y2="270" />
<line x1="109" y1="115" x2="107" y2="117" />
<line x1="107" y1="117" x2="113" y2="270" />
<line x1="105" y1="118" x2="93" y2="44" />
<line x1="105" y1="118" x2="122" y2="94" />
<line x1="103" y1="119" x2="58" y2="49" />
<line x1="103" y1="119" x2="85" y2="42" />
<line x1="103" y1="119" x2="90" y2="43" />
<line x1="103" y1="119" x2="123" y2="87" />
<line x1="103" y1="119" x2="121" y2="96" />
<line x1="103" y1="119" x2="99" y2="122" />
<line x1="103" y1="119" x2="96" y2="123" />
<line x1="101" y1="121" x2="97" y2="256" />
<line x1="99" y1="122" x2="57" y2="118" />
<line x1="99" y1="122" x2="55" y2="117" />
<line x1="99" y1="122" x2="100" y2="47" />
<line x1="99" y1="122" x2="53" y2="115" />
<line x1="99" y1="122" x2="122" y2="78" />
<line x1="94" y1="124" x2="115" y2="288" />
<line x1="92" y1="124" x2="94" y2="124" />
<line x1="87" y1="125" x2="84" y2="126" />
<line x1="84" y1="126" x2="94" y2="124" />
<line x1="84" y1="126" x2="92" y2="124" />
<line x1="80" y1="126" x2="89" y2="307" />
<line x1="78" y1="126" x2="80" y2="126" />
<line x1="75" y1="125" x2="80" y2="126" />
<line x1="70" y1="124" x2="68" y2="124" />
<line x1="66" y1="123" x2="80" y2="126" />
<line x1="59" y1="119" x2="63" y2="122" />
<line x1="59" y1="119" x2="55" y2="117" />
<line x1="59" y1="119" x2="61" y2="121" />
<line x1="59" y1="119" x2="57" y2="118" />
<line x1="57" y1="118" x2="51" y2="113" />
<line x1="57" y1="118" x2="68" y2="124" />
<line x1="50" y1="111" x2="80" y2="126" />
<line x1="48" y1="109" x2="65" y2="288" />
<line x1="47" y1="107" x2="48" y2="109" />
<line x1="45" y1="105" x2="44" y2="103" />
<line x1="44" y1="103" x2="47" y2="107" />
<line x1="44" y1="103" x2="48" y2="109" />
<line x1="40" y1="94" x2="64" y2="284" />
<line x1="40" y1="78" x2="64" y2="284" />
<line x1="40" y1="75" x2="64" y2="284" />
<line x1="41" y1="73" x2="64" y2="284" />
<line x1="46" y1="62" x2="52" y2="54" />
<line x1="46" y1="62" x2="50" y2="56" />
<line x1="46" y1="62" x2="49" y2="58" />
<line x1="46" y1="62" x2="47" y2="60" />
<line x1="46" y1="62" x2="45" y2="64" />
<line x1="46" y1="62" x2="42" y2="68" />
<line x1="46" y1="62" x2="42" y2="70" />
<line x1="46" y1="62" x2="41" y2="73" />
<line x1="46" y1="62" x2="40" y2="75" />
<line x1="46" y1="62" x2="40" y2="78" />
<line x1="46" y1="62" x2="39" y2="80" />
<line x1="46" y1="62" x2="39" y2="83" />
<line x1="46" y1="62" x2="39" y2="84" />
<line x1="46" y1="62" x2="40" y2="94" />
<line x1="46" y1="62" x2="43" y2="66" />
<line x1="46" y1="62" x2="39" y2="87" />
<line x1="46" y1="62" x2="40" y2="92" />
<line x1="46" y1="62" x2="40" y2="89" />
<line x1="54" y1="52" x2="71" y2="264" />
<line x1="56" y1="51" x2="58" y2="49" />
<line x1="58" y1="49" x2="54" y2="52" />
<line x1="67" y1="45" x2="69" y2="266" />
<line x1="67" y1="45" x2="74" y2="43" />
<line x1="74" y1="43" x2="54" y2="52" />
<line x1="74" y1="43" x2="58" y2="49" />
<line x1="77" y1="42" x2="74" y2="43" />
<line x1="79" y1="42" x2="74" y2="43" />
</g>
<g  fill="#f5f5ff" stroke="#c10020" style="stroke-width:1">
</g>
<g  fill="#f5f5ff" stroke="#000000" style="stroke-width:1">
<circle cx="230" cy="21" r="1" style="fill:#ffffff" />
<circle cx="232" cy="22" r="1" style="fill:#ffffff" />
<circle cx="234" cy="22" r="1" style="fill:#ffffff" />
<circle cx="236" cy="24" r="1" style="fill:#ffffff" />
<circle cx="238" cy="26" r="1" style="fill:#ffffff" />
<circle cx="239" cy="28" r="1" style="fill:#ffffff" />
<circle cx="240" cy="30" r="1" style="fill:#ffffff" />
<circle cx="240" cy="32" r="1" style="fill:#ffffff" />
<circle cx="239" cy="34" r="1" style="fill:#ffffff" />
<circle cx="238" cy="36" r="1" style="fill:#ffffff" />
<circle cx="236" cy="38" r="1" style="fill:#ffffff" />
<circle cx="234" cy="40" r="1" style="fill:#ffffff" />
<circle cx="232" cy="40" r="1" style="fill:#ffffff" />
<circle cx="230" cy="41" r="1" style="fill:#ffffff" />
<circle cx="228" cy="40" r="1" style="fill:#ffffff" />
<circle cx="226" cy="40" r="1" style="fill:#ffffff" />
<circle cx="224" cy="38" r="1" style="fill:#ffffff" />
<circle cx="222" cy="36" r="1" style="fill:#ffffff" />
<circle cx="221" cy="34" r="1" style="fill:#ffffff" />
<circle cx="220" cy="32" r="1" style="fill:#ffffff" />
<circle cx="220" cy="30" r="1" style="fill:#ffffff" />
<circle cx="221" cy="28" r="1" style="fill:#ffffff" />
<circle cx="222" cy="26" r="1" style="fill:#ffffff" />
<circle cx="224" cy="24" r="1" style="fill:#ffffff" />
<circle cx="226" cy="22" r="1" style="fill:#ffffff" />
<circle cx="228" cy="22" r="1" style="fill:#ffffff" />
<circle cx="324" cy="35" r="1" style="fill:#ffffff" />
<circle cx="335" cy="84" r="1" style="fill:#ffffff" />
<circle cx="337" cy="85" r="1" style="fill:#ffffff" />
<circle cx="339" cy="85" r="1" style="fill:#ffffff" />
<circle cx="342" cy="85" r="1" style="fill:#ffffff" />
<circle cx="344" cy="86" r="1" style="fill:#ffffff" />
<circle cx="347" cy="87" r="1" style="fill:#ffffff" />
<circle cx="349" cy="88" r="1" style="fill:#ffffff" />
<circle cx="351" cy="89" r="1" style="fill:#ffffff" />
<circle cx="353" cy="90" r="1" style="fill:#ffffff" />
<circle cx="355" cy="92" r="1" style="fill:#ffffff" />
<circle cx="357" cy="93" r="1" style="fill:#ffffff" />
<circle cx="359" cy="95" r="1" style="fill:#ffffff" />
<circle cx="361" cy="97" r="1" style="fill:#ffffff" />
<circle cx="362" cy="99" r="1" style="fill:#ffffff" />
<circle cx="364" cy="101" r="1" style="fill:#ffffff" />
<circle cx="365" cy="103" r="1" style="fill:#ffffff" />
<circle cx="366" cy="105" r="1" style="fill:#ffffff" />
<circle cx="367" cy="108" r="1" style="fill:#ffffff" />
<circle cx="367" cy="110" r="1" style="fill:#ffffff" />
<circle cx="368" cy="112" r="1" style="fill:#ffffff" />
<circle cx="368" cy="115" r="1" style="fill:#ffffff" />
<circle cx="369" cy="117" r="1" style="fill:#ffffff" />
<circle cx="369" cy="119" r="1" style="fill:#ffffff" />
<circle cx="368" cy="121" r="1" style="fill:#ffffff" />
<circle cx="368" cy="124" r="1" style="fill:#ffffff" />
<circle cx="367" cy="126" r="1" style="fill:#ffffff" />
<circle cx="367" cy="128" r="1" style="fill:#ffffff" />
<circle cx="366" cy="131" r="1" style="fill:#ffffff" />
<circle cx="365" cy="133" r="1" style="fill:#ffffff" />
<circle cx="364" cy="135" r="1" style="fill:#ffffff" />
<circle cx="362" cy="137" r="1" style="fill:#ffffff" />
<circle cx="361" cy="139" r="1" style="fill:#ffffff" />
<circle cx="359" cy="141" r="1" style="fill:#ffffff" />
<circle cx="357" cy="143" r="1" style="fill:#ffffff" />
<circle cx="355" cy="144" r="1" style="fill:#ffffff" />
<circle cx="353" cy="146" r="1" style="fill:#ffffff" />
<circle cx="351" cy="147" r="1" style="fill:#ffffff" />
<circle cx="349" cy="148" r="1" style="fill:#ffffff" />
<circle cx="347" cy="149" r="1" style="fill:#ffffff" />
<circle cx="344" cy="150" r="1" style="fill:#ffffff" />
<circle cx="342" cy="151" r="1" style="fill:#ffffff" />
<circle cx="339" cy="151" r="1" style="fill:#ffffff" />
<circle cx="337" cy="151" r="1" style="fill:#ffffff" />
<circle cx="335" cy="152" r="1" style="fill:#ffffff" />
<circle cx="333" cy="151" r="1" style="fill:#ffffff" />
<circle cx="331" cy="151" r="1" style="fill:#ffffff" />
<circle cx="328" cy="151" r="1" style="fill:#ffffff" />
<circle cx="326" cy="150" r="1" style="fill:#ffffff" />
<circle cx="323" cy="149" r="1" style="fill:#ffffff" />
<circle cx="321" cy="148" r="1" style="fill:#ffffff" />
<circle cx="319" cy="147" r="1" style="fill:#ffffff" />
<circle cx="317" cy="146" r="1" style="fill:#ffffff" />
<circle cx="315" cy="144" r="1" style="fill:#ffffff" />
<circle cx="313" cy="143" r="1" style="fill:#ffffff" />
<circle cx="311" cy="141" r="1" style="fill:#ffffff" />
<circle cx="309" cy="139" r="1" style="fill:#ffffff" />
<circle cx="308" cy="137" r="1" style="fill:#ffffff" />
<circle cx="306" cy="135" r="1" style="fill:#ffffff" />
<circle cx="305" cy="133" r="1" style="fill:#ffffff" />
<circle cx="304" cy="131" r="1" style="fill:#ffffff" />
<circle cx="303" cy="128" r="1" style="fill:#ffffff" />
<circle cx="303" cy="126" r="1" style="fill:#ffffff" />
<circle cx="302" cy="124" r="1" style="fill:#ffffff" />
<circle cx="302" cy="121" r="1" style="fill:#ffffff" />
<circle cx="301" cy="119" r="1" style="fill:#ffffff" />
<circle cx="301" cy="117" r="1" style="fill:#ffffff" />
<circle cx="302" cy="115" r="1" style="fill:#ffffff" />
<circle cx="302" cy="112" r="1" style="fill:#ffffff" />
<circle cx="303" cy="110" r="1" style="fill:#ffffff" />
<circle cx="303" cy="108" r="1" style="fill:#ffffff" />
<circle cx="304" cy="105" r="1" style="fill:#ffffff" />
<circle cx="305" cy="103" r="1" style="fill:#ffffff" />
<circle cx="306" cy="101" r="1" style="fill:#ffffff" />
<circle cx="308" cy="99" r="1" style="fill:#ffffff" />
<circle cx="309" cy="97" r="1" style="fill:#ffffff" />
<circle cx="311" cy="95" r="1" style="fill:#ffffff" />
<circle cx="313" cy="93" r="1" style="fill:#ffffff" />
<circle cx="315" cy="92" r="1" style="fill:#ffffff" />
<circle cx="317" cy="90" r="1" style="fill:#ffffff" />
<circle cx="319" cy="89" r="1" style="fill:#ffffff" />
<circle cx="321" cy="88" r="1" style="fill:#ffffff" />
<circle cx="323" cy="87" r="1" style="fill:#ffffff" />
<circle cx="326" cy="86" r="1" style="fill:#ffffff" />
<circle cx="328" cy="85" r="1" style="fill:#ffffff" />
<circle cx="331" cy="85" r="1" style="fill:#ffffff" />
<circle cx="333" cy="85" r="1" style="fill:#ffffff" />
<circle cx="372" cy="217" r="1" style="fill:#ffffff" />
<circle cx="373" cy="218" r="1" style="fill:#ffffff" />
<circle cx="373" cy="219" r="1" style="fill:#ffffff" />
<circle cx="371" cy="219" r="1" style="fill:#ffffff" />
<circle cx="371" cy="218" r="1" style="fill:#ffffff" />
<circle cx="343" cy="243" r="1" style="fill:#ffffff" />
<circle cx="345" cy="244" r="1" style="fill:#ffffff" />
<circle cx="347" cy="246" r="1" style="fill:#ffffff" />
<circle cx="348" cy="248" r="1" style="fill:#ffffff" />
<circle cx="347" cy="249" r="1" style="fill:#ffffff" />
<circle cx="346" cy="251" r="1" style="fill:#ffffff" />
<circle cx="344" cy="252" r="1" style="fill:#ffffff" />
<circle cx="342" cy="252" r="1" style="fill:#ffffff" />
<circle cx="340" cy="251" r="1" style="fill:#ffffff" />
<circle cx="339" cy="249" r="1" style="fill:#ffffff" />
<circle cx="338" cy="248" r="1" style="fill:#ffffff" />
<circle cx="339" cy="246" r="1" style="fill:#ffffff" />
<circle cx="341" cy="244" r="1" style="fill:#ffffff" />
<circle cx="314" cy="268" r="1" style="fill:#ffffff" />
<circle cx="316" cy="268" r="1" style="fill:#ffffff" />
<circle cx="317" cy="270" r="1" style="fill:#ffffff" />
<circle cx="317" cy="272" r="1" style="fill:#ffffff" />
<circle cx="316" cy="274" r="1" style="fill:#ffffff" />
<circle cx="314" cy="274" r="1" style="fill:#ffffff" />
<circle cx="312" cy="274" r="1" style="fill:#ffffff" />
<circle cx="311" cy="272" r="1" style="fill:#ffffff" />
<circle cx="311" cy="270" r="1" style="fill:#ffffff" />
<circle cx="312" cy="268" r="1" style="fill:#ffffff" />
<circle cx="274" cy="293" r="1" style="fill:#ffffff" />
<circle cx="276" cy="293" r="1" style="fill:#ffffff" />
<circle cx="278" cy="294" r="1" style="fill:#ffffff" />
<circle cx="281" cy="295" r="1" style="fill:#ffffff" />
<circle cx="282" cy="297" r="1" style="fill:#ffffff" />
<circle cx="284" cy="298" r="1" style="fill:#ffffff" />
<circle cx="285" cy="301" r="1" style="fill:#ffffff" />
<circle cx="286" cy="303" r="1" style="fill:#ffffff" />
<circle cx="286" cy="305" r="1" style="fill:#ffffff" />
<circle cx="286" cy="307" r="1" style="fill:#ffffff" />
<circle cx="285" cy="309" r="1" style="fill:#ffffff" />
<circle cx="284" cy="312" r="1" style="fill:#ffffff" />
<circle cx="282" cy="313" r="1" style="fill:#ffffff" />
<circle cx="281" cy="315" r="1" style="fill:#ffffff" />
<circle cx="278" cy="316" r="1" style="fill:#ffffff" />
<circle cx="276" cy="317" r="1" style="fill:#ffffff" />
<circle cx="274" cy="317" r="1" style="fill:#ffffff" />
<circle cx="272" cy="317" r="1" style="fill:#ffffff" />
<circle cx="270" cy="316" r="1" style="fill:#ffffff" />
<circle cx="267" cy="315" r="1" style="fill:#ffffff" />
<circle cx="266" cy="313" r="1" style="fill:#ffffff" />
<circle cx="264" cy="312" r="1" style="fill:#ffffff" />
<circle cx="263" cy="309" r="1" style="fill:#ffffff" />
<circle cx="262" cy="307" r="1" style="fill:#ffffff" />
<circle cx="262" cy="305" r="1" style="fill:#ffffff" />
<circle cx="262" cy="303" r="1" style="fill:#ffffff" />
<circle cx="263" cy="301" r="1" style="fill:#ffffff" />
<circle cx="264" cy="298" r="1" style="fill:#ffffff" />
<circle cx="266" cy="297" r="1" style="fill:#ffffff" />
<circle cx="267" cy="295" r="1" style="fill:#ffffff" />
<circle cx="270" cy="294" r="1" style="fill:#ffffff" />
<circle cx="272" cy="293" r="1" style="fill:#ffffff" />
<circle cx="221" cy="320" r="1" style="fill:#ffffff" />
<circle cx="223" cy="320" r="1" style="fill:#ffffff" />
<circle cx="225" cy="322" r="1" style="fill:#ffffff" />
<circle cx="226" cy="324" r="1" style="fill:#ffffff" />
<circle cx="226" cy="325" r="1" style="fill:#ffffff" />
<circle cx="226" cy="327" r="1" style="fill:#ffffff" />
<circle cx="224" cy="329" r="1" style="fill:#ffffff" />
<circle cx="222" cy="330" r="1" style="fill:#ffffff" />
<circle cx="220" cy="330" r="1" style="fill:#ffffff" />
<circle cx="218" cy="329" r="1" style="fill:#ffffff" />
<circle cx="216" cy="327" r="1" style="fill:#ffffff" />
<circle cx="216" cy="325" r="1" style="fill:#ffffff" />
<circle cx="216" cy="324" r="1" style="fill:#ffffff" />
<circle cx="217" cy="322" r="1" style="fill:#ffffff" />
<circle cx="219" cy="320" r="1" style="fill:#ffffff" />
<circle cx="172" cy="273" r="1" style="fill:#ffffff" />
<circle cx="173" cy="274" r="1" style="fill:#ffffff" />
<circle cx="171" cy="274" r="1" style="fill:#ffffff" />
<circle cx="192" cy="349" r="1" style="fill:#ffffff" />
<circle cx="182" cy="330" r="1" style="fill:#ffffff" />
<circle cx="184" cy="331" r="1" style="fill:#ffffff" />
<circle cx="185" cy="333" r="1" style="fill:#ffffff" />
<circle cx="185" cy="334" r="1" style="fill:#ffffff" />
<circle cx="183" cy="336" r="1" style="fill:#ffffff" />
<circle cx="181" cy="336" r="1" style="fill:#ffffff" />
<circle cx="179" cy="334" r="1" style="fill:#ffffff" />
<circle cx="179" cy="333" r="1" style="fill:#ffffff" />
<circle cx="180" cy="331" r="1" style="fill:#ffffff" />
<circle cx="165" cy="322" r="1" style="fill:#ffffff" />
<circle cx="166" cy="323" r="1" style="fill:#ffffff" />
<circle cx="165" cy="324" r="1" style="fill:#ffffff" />
<circle cx="164" cy="323" r="1" style="fill:#ffffff" />
<circle cx="90" cy="255" r="1" style="fill:#ffffff" />
<circle cx="92" cy="255" r="1" style="fill:#ffffff" />
<circle cx="94" cy="255" r="1" style="fill:#ffffff" />
<circle cx="97" cy="256" r="1" style="fill:#ffffff" />
<circle cx="99" cy="257" r="1" style="fill:#ffffff" />
<circle cx="101" cy="258" r="1" style="fill:#ffffff" />
<circle cx="104" cy="259" r="1" style="fill:#ffffff" />
<circle cx="106" cy="260" r="1" style="fill:#ffffff" />
<circle cx="108" cy="262" r="1" style="fill:#ffffff" />
<circle cx="109" cy="264" r="1" style="fill:#ffffff" />
<circle cx="111" cy="266" r="1" style="fill:#ffffff" />
<circle cx="112" cy="268" r="1" style="fill:#ffffff" />
<circle cx="113" cy="270" r="1" style="fill:#ffffff" />
<circle cx="114" cy="272" r="1" style="fill:#ffffff" />
<circle cx="115" cy="275" r="1" style="fill:#ffffff" />
<circle cx="116" cy="277" r="1" style="fill:#ffffff" />
<circle cx="116" cy="280" r="1" style="fill:#ffffff" />
<circle cx="116" cy="281" r="1" style="fill:#ffffff" />
<circle cx="116" cy="284" r="1" style="fill:#ffffff" />
<circle cx="115" cy="286" r="1" style="fill:#ffffff" />
<circle cx="115" cy="288" r="1" style="fill:#ffffff" />
<circle cx="114" cy="291" r="1" style="fill:#ffffff" />
<circle cx="113" cy="293" r="1" style="fill:#ffffff" />
<circle cx="112" cy="295" r="1" style="fill:#ffffff" />
<circle cx="110" cy="297" r="1" style="fill:#ffffff" />
<circle cx="108" cy="299" r="1" style="fill:#ffffff" />
<circle cx="107" cy="301" r="1" style="fill:#ffffff" />
<circle cx="105" cy="302" r="1" style="fill:#ffffff" />
<circle cx="103" cy="304" r="1" style="fill:#ffffff" />
<circle cx="100" cy="305" r="1" style="fill:#ffffff" />
<circle cx="98" cy="306" r="1" style="fill:#ffffff" />
<circle cx="96" cy="306" r="1" style="fill:#ffffff" />
<circle cx="93" cy="307" r="1" style="fill:#ffffff" />
<circle cx="91" cy="307" r="1" style="fill:#ffffff" />
<circle cx="89" cy="307" r="1" style="fill:#ffffff" />
<circle cx="87" cy="307" r="1" style="fill:#ffffff" />
<circle cx="84" cy="306" r="1" style="fill:#ffffff" />
<circle cx="82" cy="306" r="1" style="fill:#ffffff" />
<circle cx="80" cy="305" r="1" style="fill:#ffffff" />
<circle cx="77" cy="304" r="1" style="fill:#ffffff" />
<circle cx="75" cy="302" r="1" style="fill:#ffffff" />
<circle cx="73" cy="301" r="1" style="fill:#ffffff" />
<circle cx="72" cy="299" r="1" style="fill:#ffffff" />
<circle cx="70" cy="297" r="1" style="fill:#ffffff" />
<circle cx="68" cy="295" r="1" style="fill:#ffffff" />
<circle cx="67" cy="293" r="1" style="fill:#ffffff" />
<circle cx="66" cy="291" r="1" style="fill:#ffffff" />
<circle cx="65" cy="288" r="1" style="fill:#ffffff" />
<circle cx="65" cy="286" r="1" style="fill:#ffffff" />
<circle cx="64" cy="284" r="1" style="fill:#ffffff" />
<circle cx="64" cy="281" r="1" style="fill:#ffffff" />
<circle cx="64" cy="280" r="1" style="fill:#ffffff" />
<circle cx="64" cy="277" r="1" style="fill:#ffffff" />
<circle cx="65" cy="275" r="1" style="fill:#ffffff" />
<circle cx="66" cy="272" r="1" style="fill:#ffffff" />
<circle cx="67" cy="270" r="1" style="fill:#ffffff" />
<circle cx="68" cy="268" r="1" style="fill:#ffffff" />
<circle cx="69" cy="266" r="1" style="fill:#ffffff" />
<circle cx="71" cy="264" r="1" style="fill:#ffffff" />
<circle cx="72" cy="262" r="1" style="fill:#ffffff" />
<circle cx="74" cy="260" r="1" style="fill:#ffffff" />
<circle cx="76" cy="259" r="1" style="fill:#ffffff" />
<circle cx="79" cy="258" r="1" style="fill:#ffffff" />
<circle cx="81" cy="257" r="1" style="fill:#ffffff" />
<circle cx="83" cy="256" r="1" style="fill:#ffffff" />
<circle cx="86" cy="255" r="1" style="fill:#ffffff" />
<circle cx="88" cy="255" r="1" style="fill:#ffffff" />
<circle cx="81" cy="42" r="1" style="fill:#ffffff" />
<circle cx="83" cy="42" r="1" style="fill:#ffffff" />
<circle cx="85" cy="42" r="1" style="fill:#ffffff" />
<circle cx="88" cy="43" r="1" style="fill:#ffffff" />
<circle cx="90" cy="43" r="1" style="fill:#ffffff" />
<circle cx="93" cy="44" r="1" style="fill:#ffffff" />
<circle cx="95" cy="45" r="1" style="fill:#ffffff" />
<circle cx="97" cy="46" r="1" style="fill:#ffffff" />
<circle cx="100" cy="47" r="1" style="fill:#ffffff" />
<circle cx="102" cy="48" r="1" style="fill:#ffffff" />
<circle cx="104" cy="49" r="1" style="fill:#ffffff" />
<circle cx="106" cy="51" r="1" style="fill:#ffffff" />
<circle cx="108" cy="52" r="1" style="fill:#ffffff" />
<circle cx="110" cy="54" r="1" style="fill:#ffffff" />
<circle cx="112" cy="56" r="1" style="fill:#ffffff" />
<circle cx="113" cy="58" r="1" style="fill:#ffffff" />
<circle cx="115" cy="60" r="1" style="fill:#ffffff" />
<circle cx="116" cy="62" r="1" style="fill:#ffffff" />
<circle cx="117" cy="64" r="1" style="fill:#ffffff" />
<circle cx="119" cy="66" r="1" style="fill:#ffffff" />
<circle cx="120" cy="68" r="1" style="fill:#ffffff" />
<circle cx="120" cy="70" r="1" style="fill:#ffffff" />
<circle cx="121" cy="73" r="1" style="fill:#ffffff" />
<circle cx="122" cy="75" r="1" style="fill:#ffffff" />
<circle cx="122" cy="78" r="1" style="fill:#ffffff" />
<circle cx="123" cy="80" r="1" style="fill:#ffffff" />
<circle cx="123" cy="83" r="1" style="fill:#ffffff" />
<circle cx="123" cy="84" r="1" style="fill:#ffffff" />
<circle cx="123" cy="87" r="1" style="fill:#ffffff" />
<circle cx="122" cy="89" r="1" style="fill:#ffffff" />
<circle cx="122" cy="92" r="1" style="fill:#ffffff" />
<circle cx="122" cy="94" r="1" style="fill:#ffffff" />
<circle cx="121" cy="96" r="1" style="fill:#ffffff" />
<circle cx="120" cy="99" r="1" style="fill:#ffffff" />
<circle cx="119" cy="101" r="1" style="fill:#ffffff" />
<circle cx="118" cy="103" r="1" style="fill:#ffffff" />
<circle cx="117" cy="105" r="1" style="fill:#ffffff" />
<circle cx="115" cy="107" r="1" style="fill:#ffffff" />
<circle cx="114" cy="109" r="1" style="fill:#ffffff" />
<circle cx="112" cy="111" r="1" style="fill:#ffffff" />
<circle cx="111" cy="113" r="1" style="fill:#ffffff" />
<circle cx="109" cy="115" r="1" style="fill:#ffffff" />
<circle cx="107" cy="117" r="1" style="fill:#ffffff" />
<circle cx="105" cy="118" r="1" style="fill:#ffffff" />
<circle cx="103" cy="119" r="1" style="fill:#ffffff" />
<circle cx="101" cy="121" r="1" style="fill:#ffffff" />
<circle cx="99" cy="122" r="1" style="fill:#ffffff" />
<circle cx="96" cy="123" r="1" style="fill:#ffffff" />
<circle cx="94" cy="124" r="1" style="fill:#ffffff" />
<circle cx="92" cy="124" r="1" style="fill:#ffffff" />
<circle cx="89" cy="125" r="1" style="fill:#ffffff" />
<circle cx="87" cy="125" r="1" style="fill:#ffffff" />
<circle cx="84" cy="126" r="1" style="fill:#ffffff" />
<circle cx="82" cy="126" r="1" style="fill:#ffffff" />
<circle cx="80" cy="126" r="1" style="fill:#ffffff" />
<circle cx="78" cy="126" r="1" style="fill:#ffffff" />
<circle cx="75" cy="125" r="1" style="fill:#ffffff" />
<circle cx="73" cy="125" r="1" style="fill:#ffffff" />
<circle cx="70" cy="124" r="1" style="fill:#ffffff" />
<circle cx="68" cy="124" r="1" style="fill:#ffffff" />
<circle cx="66" cy="123" r="1" style="fill:#ffffff" />
<circle cx="63" cy="122" r="1" style="fill:#ffffff" />
<circle cx="61" cy="121" r="1" style="fill:#ffffff" />
<circle cx="59" cy="119" r="1" style="fill:#ffffff" />
<circle cx="57" cy="118" r="1" style="fill:#ffffff" />
<circle cx="55" cy="117" r="1" style="fill:#ffffff" />
<circle cx="53" cy="115" r="1" style="fill:#ffffff" />
<circle cx="51" cy="113" r="1" style="fill:#ffffff" />
<circle cx="50" cy="111" r="1" style="fill:#ffffff" />
<circle cx="48" cy="109" r="1" style="fill:#ffffff" />
<circle cx="47" cy="107" r="1" style="fill:#ffffff" />
<circle cx="45" cy="105" r="1" style="fill:#ffffff" />
<circle cx="44" cy="103" r="1" style="fill:#ffffff" />
<circle cx="43" cy="101" r="1" style="fill:#ffffff" />
<circle cx="42" cy="99" r="1" style="fill:#ffffff" />
<circle cx="41" cy="96" r="1" style="fill:#ffffff" />
<circle cx="40" cy="94" r="1" style="fill:#ffffff" />
<circle cx="40" cy="92" r="1" style="fill:#ffffff" />
<circle cx="40" cy="89" r="1" style="fill:#ffffff" />
<circle cx="39" cy="87" r="1" style="fill:#ffffff" />
<circle cx="39" cy="84" r="1" style="fill:#ffffff" />
<circle cx="39" cy="83" r="1" style="fill:#ffffff" />
<circle cx="39" cy="80" r="1" style="fill:#ffffff" />
<circle cx="40" cy="78" r="1" style="fill:#ffffff" />
<circle cx="40" cy="75" r="1" style="fill:#ffffff" />
<circle cx="41" cy="73" r="1" style="fill:#ffffff" />
<circle cx="42" cy="70" r="1" style="fill:#ffffff" />
<circle cx="42" cy="68" r="1" style="fill:#ffffff" />
<circle cx="43" cy="66" r="1" style="fill:#ffffff" />
<circle cx="45" cy="64" r="1" style="fill:#ffffff" />
<circle cx="46" cy="62" r="1" style="fill:#ffffff" />
<circle cx="47" cy="60" r="1" style="fill:#ffffff" />
<circle cx="49" cy="58" r="1" style="fill:#ffffff" />
<circle cx="50" cy="56" r="1" style="fill:#ffffff" />
<circle cx="52" cy="54" r="1" style="fill:#ffffff" />
<circle cx="54" cy="52" r="1" style="fill:#ffffff" />
<circle cx="56" cy="51" r="1" style="fill:#ffffff" />
<circle cx="58" cy="49" r="1" style="fill:#ffffff" />
<circle cx="60" cy="48" r="1" style="fill:#ffffff" />
<circle cx="62" cy="47" r="1" style="fill:#ffffff" />
<circle cx="65" cy="46" r="1" style="fill:#ffffff" />
<circle cx="67" cy="45" r="1" style="fill:#ffffff" />
<circle cx="69" cy="44" r="1" style="fill:#ffffff" />
<circle cx="72" cy="43" r="1" style="fill:#ffffff" />
<circle cx="74" cy="43" r="1" style="fill:#ffffff" />
<circle cx="77" cy="42" r="1" style="fill:#ffffff" />
<circle cx="79" cy="42" r="1" style="fill:#ffffff" />
</g>
<g stroke="none">
<text x="230" y="44">oovBuilder</text>
<text x="324" y="38">oovCMaker</text>
<text x="335" y="155">oovCommon</text>
<text x="373" y="222">oovCovInstr</text>
<text x="344" y="255">oovCppParser</text>
<text x="314" y="277">oovDbWriter</text>
<text x="274" y="320">oovEdit</text>
<text x="222" y="333">oovGuiCommon</text>
<text x="173" y="277">oovJavaParser</text>
<text x="79" y="352">oovJavaParser/common</text>
<text x="81" y="339">oovJavaParser/model</text>
<text x="64" y="327">oovJavaParser/parser</text>
<text x="52" y="310">oovaide</text>
<text x="20" y="129">oovaide/BLL</text>
</g>
</svg>