<svg xmlns="http://www.w3.org/2000/svg" version="1.1" width="424" height="352">
<g  fill="#f5f5ff" stroke="#000000" style="stroke-width:1">
<line x1="273" y1="39" x2="284" y2="20" />
<line x1="276" y1="40" x2="287" y2="22" />
<line x1="330" y1="244" x2="349" y2="254" />
<line x1="322" y1="258" x2="339" y2="270" />
<line x1="296" y1="287" x2="309" y2="303" />
<line x1="210" y1="325" x2="212" y2="346" />
<line x1="165" y1="323" x2="161" y2="343" />
<line x1="40" y1="188" x2="20" y2="190" />
<line x1="193" y1="17" x2="193" y2="-4" />
</g>
<g  fill="#f5f5ff" stroke="#ffb300" style="stroke-width:1">
<line x1="194" y1="21" x2="197" y2="22" />
<line x1="206" y1="22" x2="203" y2="22" />
<line x1="209" y1="22" x2="203" y2="22" />
<line x1="216" y1="23" x2="200" y2="22" />
<line x1="216" y1="23" x2="206" y2="22" />
<line x1="216" y1="23" x2="261" y2="37" />
<line x1="219" y1="24" x2="203" y2="22" />
<line x1="219" y1="24" x2="269" y2="42" />
<line x1="225" y1="25" x2="219" y2="24" />
<line x1="228" y1="26" x2="225" y2="25" />
<line x1="231" y1="26" x2="203" y2="22" />
<line x1="243" y1="30" x2="261" y2="37" />
<line x1="246" y1="31" x2="243" y2="30" />
<line x1="249" y1="32" x2="243" y2="30" />
<line x1="252" y1="33" x2="243" y2="30" />
<line x1="258" y1="36" x2="243" y2="30" />
<line x1="264" y1="39" x2="203" y2="22" />
</g>
<g  fill="#f5f5ff" stroke="#ff6800" style="stroke-width:1">
<line x1="275" y1="45" x2="197" y2="22" />
<line x1="277" y1="47" x2="219" y2="24" />
<line x1="280" y1="49" x2="49" y2="207" />
<line x1="280" y1="49" x2="165" y2="317" />
<line x1="280" y1="49" x2="272" y2="44" />
<line x1="280" y1="49" x2="219" y2="24" />
<line x1="282" y1="51" x2="325" y2="243" />
<line x1="287" y1="55" x2="219" y2="24" />
<line x1="287" y1="55" x2="214" y2="319" />
<line x1="287" y1="55" x2="269" y2="42" />
<line x1="292" y1="59" x2="295" y2="61" />
<line x1="292" y1="59" x2="290" y2="57" />
<line x1="297" y1="63" x2="57" y2="231" />
<line x1="297" y1="63" x2="309" y2="266" />
<line x1="302" y1="67" x2="203" y2="22" />
<line x1="302" y1="67" x2="311" y2="264" />
<line x1="302" y1="67" x2="322" y2="248" />
<line x1="302" y1="67" x2="337" y2="214" />
<line x1="302" y1="67" x2="262" y2="304" />
<line x1="310" y1="77" x2="107" y2="292" />
<line x1="310" y1="77" x2="85" y2="273" />
<line x1="310" y1="77" x2="86" y2="67" />
<line x1="310" y1="77" x2="78" y2="77" />
<line x1="310" y1="77" x2="56" y2="115" />
<line x1="310" y1="77" x2="272" y2="44" />
<line x1="310" y1="77" x2="203" y2="22" />
<line x1="314" y1="82" x2="338" y2="133" />
<line x1="314" y1="82" x2="337" y2="127" />
<line x1="314" y1="82" x2="321" y2="92" />
<line x1="316" y1="84" x2="133" y2="35" />
<line x1="316" y1="84" x2="176" y2="23" />
<line x1="316" y1="84" x2="334" y2="118" />
<line x1="316" y1="84" x2="47" y2="142" />
<line x1="316" y1="84" x2="314" y2="82" />
<line x1="319" y1="90" x2="311" y2="264" />
<line x1="319" y1="90" x2="50" y2="130" />
<line x1="319" y1="90" x2="313" y2="261" />
<line x1="319" y1="90" x2="338" y2="133" />
<line x1="324" y1="98" x2="338" y2="130" />
<line x1="326" y1="101" x2="337" y2="127" />
<line x1="326" y1="101" x2="338" y2="130" />
<line x1="326" y1="101" x2="338" y2="133" />
<line x1="326" y1="101" x2="55" y2="226" />
<line x1="326" y1="101" x2="316" y2="84" />
<line x1="326" y1="101" x2="321" y2="92" />
<line x1="326" y1="101" x2="327" y2="103" />
<line x1="329" y1="106" x2="332" y2="115" />
<line x1="329" y1="106" x2="45" y2="161" />
<line x1="329" y1="106" x2="338" y2="133" />
<line x1="329" y1="106" x2="311" y2="264" />
<line x1="329" y1="106" x2="327" y2="103" />
<line x1="332" y1="115" x2="113" y2="45" />
<line x1="334" y1="118" x2="311" y2="264" />
<line x1="334" y1="118" x2="48" y2="139" />
<line x1="334" y1="118" x2="327" y2="103" />
<line x1="334" y1="118" x2="54" y2="223" />
<line x1="335" y1="121" x2="294" y2="282" />
<line x1="335" y1="121" x2="179" y2="22" />
<line x1="335" y1="121" x2="157" y2="26" />
<line x1="335" y1="121" x2="107" y2="292" />
<line x1="335" y1="121" x2="154" y2="27" />
<line x1="335" y1="121" x2="136" y2="33" />
<line x1="335" y1="121" x2="305" y2="271" />
<line x1="335" y1="121" x2="45" y2="186" />
<line x1="335" y1="121" x2="93" y2="61" />
<line x1="335" y1="121" x2="85" y2="273" />
<line x1="335" y1="121" x2="45" y2="155" />
<line x1="335" y1="121" x2="54" y2="223" />
<line x1="337" y1="127" x2="336" y2="124" />
<line x1="337" y1="127" x2="332" y2="115" />
<line x1="337" y1="127" x2="317" y2="87" />
<line x1="337" y1="127" x2="323" y2="95" />
<line x1="338" y1="130" x2="334" y2="118" />
<line x1="338" y1="130" x2="338" y2="133" />
<line x1="338" y1="133" x2="108" y2="49" />
<line x1="338" y1="133" x2="311" y2="264" />
<line x1="338" y1="133" x2="50" y2="130" />
<line x1="338" y1="133" x2="130" y2="36" />
<line x1="339" y1="136" x2="326" y2="240" />
<line x1="339" y1="136" x2="307" y2="269" />
<line x1="339" y1="136" x2="310" y2="77" />
<line x1="339" y1="136" x2="333" y2="226" />
<line x1="339" y1="136" x2="259" y2="305" />
<line x1="339" y1="136" x2="334" y2="223" />
<line x1="339" y1="136" x2="338" y2="210" />
<line x1="339" y1="136" x2="339" y2="207" />
<line x1="339" y1="136" x2="231" y2="26" />
<line x1="339" y1="136" x2="275" y2="45" />
<line x1="339" y1="136" x2="277" y2="47" />
<line x1="339" y1="136" x2="280" y2="49" />
<line x1="340" y1="139" x2="339" y2="136" />
<line x1="341" y1="142" x2="59" y2="234" />
<line x1="342" y1="152" x2="343" y2="171" />
<line x1="343" y1="155" x2="284" y2="290" />
<line x1="343" y1="155" x2="46" y2="189" />
<line x1="343" y1="155" x2="343" y2="161" />
<line x1="343" y1="155" x2="269" y2="42" />
<line x1="343" y1="155" x2="264" y2="39" />
<line x1="343" y1="155" x2="206" y2="22" />
<line x1="343" y1="155" x2="343" y2="179" />
<line x1="343" y1="158" x2="342" y2="152" />
<line x1="343" y1="164" x2="343" y2="168" />
<line x1="343" y1="164" x2="343" y2="171" />
<line x1="343" y1="164" x2="276" y2="296" />
<line x1="343" y1="164" x2="46" y2="189" />
<line x1="343" y1="168" x2="343" y2="161" />
<line x1="343" y1="171" x2="85" y2="273" />
<line x1="343" y1="171" x2="276" y2="296" />
<line x1="343" y1="173" x2="341" y2="198" />
<line x1="343" y1="176" x2="47" y2="195" />
<line x1="343" y1="176" x2="45" y2="158" />
<line x1="343" y1="176" x2="107" y2="292" />
<line x1="343" y1="176" x2="85" y2="273" />
<line x1="343" y1="182" x2="212" y2="23" />
<line x1="343" y1="182" x2="237" y2="28" />
<line x1="343" y1="182" x2="245" y2="311" />
<line x1="343" y1="186" x2="245" y2="311" />
<line x1="343" y1="186" x2="341" y2="142" />
<line x1="343" y1="186" x2="343" y2="182" />
<line x1="343" y1="186" x2="269" y2="42" />
<line x1="343" y1="186" x2="200" y2="22" />
<line x1="343" y1="186" x2="219" y2="24" />
<line x1="343" y1="186" x2="228" y2="26" />
<line x1="343" y1="186" x2="252" y2="33" />
<line x1="343" y1="186" x2="326" y2="240" />
<line x1="342" y1="189" x2="176" y2="23" />
<line x1="342" y1="189" x2="230" y2="316" />
<line x1="342" y1="189" x2="343" y2="161" />
<line x1="342" y1="189" x2="78" y2="77" />
<line x1="342" y1="189" x2="169" y2="24" />
<line x1="342" y1="189" x2="201" y2="320" />
<line x1="342" y1="189" x2="82" y2="72" />
<line x1="342" y1="189" x2="112" y2="296" />
<line x1="342" y1="189" x2="339" y2="136" />
<line x1="342" y1="189" x2="129" y2="305" />
<line x1="342" y1="189" x2="197" y2="22" />
<line x1="342" y1="189" x2="326" y2="101" />
<line x1="342" y1="189" x2="148" y2="29" />
<line x1="342" y1="189" x2="136" y2="33" />
<line x1="342" y1="189" x2="308" y2="74" />
<line x1="342" y1="189" x2="194" y2="21" />
<line x1="342" y1="189" x2="302" y2="67" />
<line x1="342" y1="189" x2="255" y2="35" />
<line x1="342" y1="189" x2="101" y2="55" />
<line x1="342" y1="189" x2="127" y2="37" />
<line x1="342" y1="189" x2="212" y2="23" />
<line x1="342" y1="189" x2="284" y2="290" />
<line x1="342" y1="189" x2="313" y2="261" />
<line x1="342" y1="189" x2="328" y2="237" />
<line x1="342" y1="189" x2="47" y2="195" />
<line x1="342" y1="189" x2="332" y2="228" />
<line x1="342" y1="189" x2="57" y2="112" />
<line x1="342" y1="189" x2="45" y2="186" />
<line x1="342" y1="189" x2="273" y2="298" />
<line x1="342" y1="189" x2="59" y2="234" />
<line x1="342" y1="189" x2="242" y2="313" />
<line x1="342" y1="189" x2="77" y2="264" />
<line x1="342" y1="189" x2="211" y2="319" />
<line x1="342" y1="189" x2="337" y2="214" />
<line x1="342" y1="189" x2="227" y2="317" />
<line x1="342" y1="189" x2="245" y2="311" />
<line x1="342" y1="192" x2="299" y2="65" />
<line x1="341" y1="195" x2="341" y2="198" />
<line x1="340" y1="204" x2="341" y2="198" />
<line x1="338" y1="210" x2="272" y2="44" />
<line x1="337" y1="214" x2="332" y2="228" />
<line x1="336" y1="217" x2="63" y2="243" />
<line x1="336" y1="217" x2="326" y2="240" />
<line x1="335" y1="220" x2="62" y2="240" />
<line x1="334" y1="223" x2="335" y2="220" />
<line x1="334" y1="223" x2="336" y2="217" />
<line x1="333" y1="226" x2="272" y2="44" />
<line x1="333" y1="226" x2="326" y2="240" />
<line x1="332" y1="228" x2="219" y2="24" />
<line x1="326" y1="240" x2="219" y2="24" />
</g>
<g  fill="#f5f5ff" stroke="#a6bdd7" style="stroke-width:1">
<line x1="323" y1="245" x2="322" y2="248" />
</g>
<g  fill="#f5f5ff" stroke="#cea262" style="stroke-width:1">
<line x1="315" y1="259" x2="311" y2="264" />
<line x1="313" y1="261" x2="315" y2="259" />
<line x1="309" y1="266" x2="311" y2="264" />
<line x1="307" y1="269" x2="311" y2="264" />
<line x1="294" y1="282" x2="311" y2="264" />
</g>
<g  fill="#f5f5ff" stroke="#817066" style="stroke-width:1">
<line x1="289" y1="286" x2="211" y2="319" />
<line x1="289" y1="286" x2="284" y2="290" />
<line x1="286" y1="288" x2="211" y2="319" />
<line x1="284" y1="290" x2="276" y2="296" />
<line x1="279" y1="294" x2="284" y2="290" />
<line x1="276" y1="296" x2="286" y2="288" />
<line x1="273" y1="298" x2="284" y2="290" />
<line x1="273" y1="298" x2="281" y2="292" />
<line x1="268" y1="301" x2="262" y2="304" />
<line x1="265" y1="302" x2="211" y2="319" />
<line x1="259" y1="305" x2="211" y2="319" />
<line x1="259" y1="305" x2="265" y2="302" />
<line x1="257" y1="307" x2="262" y2="304" />
<line x1="254" y1="308" x2="257" y2="307" />
<line x1="248" y1="310" x2="257" y2="307" />
<line x1="245" y1="311" x2="248" y2="310" />
<line x1="239" y1="313" x2="248" y2="310" />
<line x1="233" y1="315" x2="248" y2="310" />
<line x1="233" y1="315" x2="245" y2="311" />
<line x1="230" y1="316" x2="245" y2="311" />
<line x1="220" y1="318" x2="257" y2="307" />
</g>
<g  fill="#f5f5ff" stroke="#007d34" style="stroke-width:1">
<line x1="208" y1="320" x2="46" y2="192" />
<line x1="208" y1="320" x2="107" y2="292" />
<line x1="208" y1="320" x2="177" y2="319" />
<line x1="208" y1="320" x2="211" y2="319" />
<line x1="208" y1="320" x2="265" y2="302" />
<line x1="195" y1="320" x2="171" y2="319" />
<line x1="195" y1="320" x2="193" y2="320" />
<line x1="193" y1="320" x2="165" y2="317" />
<line x1="193" y1="320" x2="49" y2="207" />
<line x1="193" y1="320" x2="137" y2="309" />
<line x1="193" y1="320" x2="211" y2="319" />
<line x1="190" y1="320" x2="187" y2="320" />
<line x1="180" y1="320" x2="177" y2="319" />
<line x1="180" y1="320" x2="59" y2="234" />
<line x1="180" y1="320" x2="217" y2="319" />
<line x1="180" y1="320" x2="62" y2="240" />
<line x1="180" y1="320" x2="63" y2="243" />
<line x1="180" y1="320" x2="51" y2="214" />
<line x1="177" y1="319" x2="47" y2="195" />
<line x1="174" y1="319" x2="46" y2="189" />
<line x1="171" y1="319" x2="131" y2="307" />
<line x1="171" y1="319" x2="254" y2="308" />
<line x1="171" y1="319" x2="51" y2="214" />
<line x1="171" y1="319" x2="90" y2="278" />
<line x1="171" y1="319" x2="62" y2="240" />
<line x1="171" y1="319" x2="63" y2="243" />
<line x1="171" y1="319" x2="65" y2="246" />
<line x1="171" y1="319" x2="146" y2="313" />
<line x1="171" y1="319" x2="79" y2="266" />
</g>
<g  fill="#f5f5ff" stroke="#f6768e" style="stroke-width:1">
<line x1="161" y1="317" x2="48" y2="201" />
<line x1="161" y1="317" x2="115" y2="298" />
<line x1="161" y1="317" x2="60" y2="237" />
<line x1="161" y1="317" x2="83" y2="271" />
<line x1="161" y1="317" x2="155" y2="315" />
<line x1="161" y1="317" x2="149" y2="313" />
<line x1="158" y1="316" x2="60" y2="237" />
<line x1="158" y1="316" x2="83" y2="271" />
<line x1="158" y1="316" x2="48" y2="201" />
<line x1="158" y1="316" x2="149" y2="313" />
<line x1="158" y1="316" x2="143" y2="311" />
<line x1="158" y1="316" x2="115" y2="298" />
<line x1="152" y1="314" x2="149" y2="313" />
<line x1="152" y1="314" x2="104" y2="290" />
<line x1="149" y1="313" x2="104" y2="290" />
<line x1="146" y1="313" x2="134" y2="308" />
<line x1="143" y1="311" x2="94" y2="282" />
<line x1="137" y1="309" x2="134" y2="308" />
<line x1="134" y1="308" x2="46" y2="192" />
<line x1="131" y1="307" x2="134" y2="308" />
<line x1="117" y1="299" x2="123" y2="302" />
<line x1="115" y1="298" x2="97" y2="284" />
<line x1="112" y1="296" x2="99" y2="286" />
<line x1="112" y1="296" x2="92" y2="280" />
<line x1="112" y1="296" x2="94" y2="282" />
<line x1="112" y1="296" x2="104" y2="290" />
<line x1="112" y1="296" x2="102" y2="288" />
<line x1="112" y1="296" x2="97" y2="284" />
<line x1="109" y1="294" x2="107" y2="292" />
<line x1="109" y1="294" x2="112" y2="296" />
<line x1="109" y1="294" x2="134" y2="308" />
<line x1="107" y1="292" x2="134" y2="308" />
<line x1="90" y1="278" x2="134" y2="308" />
<line x1="88" y1="276" x2="46" y2="192" />
<line x1="88" y1="276" x2="85" y2="273" />
<line x1="85" y1="273" x2="46" y2="192" />
<line x1="85" y1="273" x2="134" y2="308" />
<line x1="83" y1="271" x2="92" y2="280" />
<line x1="81" y1="269" x2="92" y2="280" />
<line x1="81" y1="269" x2="83" y2="271" />
<line x1="79" y1="266" x2="134" y2="308" />
<line x1="77" y1="264" x2="75" y2="261" />
<line x1="77" y1="264" x2="68" y2="251" />
<line x1="77" y1="264" x2="70" y2="254" />
<line x1="65" y1="246" x2="47" y2="198" />
<line x1="60" y1="237" x2="99" y2="286" />
<line x1="52" y1="217" x2="54" y2="223" />
<line x1="50" y1="210" x2="48" y2="201" />
<line x1="49" y1="207" x2="134" y2="308" />
<line x1="48" y1="204" x2="48" y2="201" />
<line x1="48" y1="204" x2="102" y2="288" />
<line x1="48" y1="201" x2="102" y2="288" />
<line x1="47" y1="195" x2="46" y2="192" />
<line x1="46" y1="189" x2="46" y2="192" />
</g>
<g  fill="#f5f5ff" stroke="#00538a" style="stroke-width:1">
<line x1="45" y1="186" x2="149" y2="313" />
<line x1="45" y1="164" x2="46" y2="152" />
<line x1="45" y1="158" x2="45" y2="186" />
<line x1="45" y1="158" x2="45" y2="173" />
<line x1="46" y1="149" x2="45" y2="158" />
<line x1="46" y1="149" x2="149" y2="313" />
<line x1="47" y1="145" x2="47" y2="142" />
<line x1="52" y1="124" x2="143" y2="311" />
<line x1="56" y1="115" x2="52" y2="124" />
<line x1="59" y1="106" x2="98" y2="57" />
<line x1="62" y1="101" x2="56" y2="228" />
<line x1="62" y1="101" x2="161" y2="317" />
<line x1="62" y1="101" x2="45" y2="179" />
<line x1="62" y1="101" x2="45" y2="158" />
<line x1="62" y1="101" x2="53" y2="121" />
<line x1="65" y1="95" x2="80" y2="74" />
<line x1="65" y1="95" x2="139" y2="32" />
<line x1="65" y1="95" x2="64" y2="98" />
<line x1="71" y1="87" x2="64" y2="98" />
<line x1="71" y1="87" x2="45" y2="173" />
<line x1="72" y1="84" x2="155" y2="315" />
<line x1="74" y1="82" x2="47" y2="142" />
<line x1="74" y1="82" x2="57" y2="112" />
<line x1="74" y1="82" x2="113" y2="45" />
<line x1="74" y1="82" x2="133" y2="35" />
<line x1="74" y1="82" x2="130" y2="36" />
<line x1="76" y1="79" x2="101" y2="55" />
<line x1="76" y1="79" x2="45" y2="182" />
<line x1="76" y1="79" x2="163" y2="25" />
<line x1="76" y1="79" x2="45" y2="176" />
<line x1="76" y1="79" x2="67" y2="92" />
<line x1="76" y1="79" x2="74" y2="82" />
<line x1="78" y1="77" x2="115" y2="298" />
<line x1="80" y1="74" x2="78" y2="77" />
<line x1="84" y1="70" x2="86" y2="67" />
<line x1="86" y1="67" x2="78" y2="77" />
<line x1="86" y1="67" x2="80" y2="74" />
<line x1="89" y1="65" x2="86" y2="67" />
<line x1="93" y1="61" x2="83" y2="271" />
<line x1="96" y1="59" x2="93" y2="61" />
<line x1="103" y1="53" x2="93" y2="61" />
<line x1="108" y1="49" x2="106" y2="51" />
<line x1="111" y1="47" x2="93" y2="61" />
<line x1="116" y1="44" x2="93" y2="61" />
<line x1="122" y1="40" x2="130" y2="36" />
<line x1="122" y1="40" x2="127" y2="37" />
<line x1="122" y1="40" x2="119" y2="42" />
<line x1="122" y1="40" x2="113" y2="45" />
<line x1="130" y1="36" x2="124" y2="39" />
<line x1="130" y1="36" x2="106" y2="51" />
<line x1="136" y1="33" x2="60" y2="237" />
<line x1="139" y1="32" x2="136" y2="33" />
<line x1="142" y1="31" x2="154" y2="27" />
<line x1="151" y1="28" x2="154" y2="27" />
<line x1="154" y1="27" x2="139" y2="32" />
<line x1="154" y1="27" x2="136" y2="33" />
<line x1="157" y1="26" x2="48" y2="201" />
<line x1="160" y1="26" x2="163" y2="25" />
<line x1="163" y1="25" x2="157" y2="26" />
<line x1="172" y1="23" x2="51" y2="214" />
<line x1="172" y1="23" x2="179" y2="22" />
<line x1="179" y1="22" x2="157" y2="26" />
<line x1="179" y1="22" x2="163" y2="25" />
<line x1="182" y1="22" x2="179" y2="22" />
<line x1="188" y1="22" x2="179" y2="22" />
</g>
<g  fill="#f5f5ff" stroke="#c10020" style="stroke-width:1">
</g>
<g  fill="#f5f5ff" stroke="#000000" style="stroke-width:1">
<circle cx="194" cy="21" r="1" style="fill:#ffffff" />
<circle cx="197" cy="22" r="1" style="fill:#ffffff" />
<circle cx="200" cy="22" r="1" style="fill:#ffffff" />
<circle cx="203" cy="22" r="1" style="fill:#ffffff" />
<circle cx="206" cy="22" r="1" style="fill:#ffffff" />
<circle cx="209" cy="22" r="1" style="fill:#ffffff" />
<circle cx="212" cy="23" r="1" style="fill:#ffffff" />
<circle cx="216" cy="23" r="1" style="fill:#ffffff" />
<circle cx="219" cy="24" r="1" style="fill:#ffffff" />
<circle cx="222" cy="24" r="1" style="fill:#ffffff" />
<circle cx="225" cy="25" r="1" style="fill:#ffffff" />
<circle cx="228" cy="26" r="1" style="fill:#ffffff" />
<circle cx="231" cy="26" r="1" style="fill:#ffffff" />
<circle cx="234" cy="27" r="1" style="fill:#ffffff" />
<circle cx="237" cy="28" r="1" style="fill:#ffffff" />
<circle cx="240" cy="29" r="1" style="fill:#ffffff" />
<circle cx="243" cy="30" r="1" style="fill:#ffffff" />
<circle cx="246" cy="31" r="1" style="fill:#ffffff" />
<circle cx="249" cy="32" r="1" style="fill:#ffffff" />
<circle cx="252" cy="33" r="1" style="fill:#ffffff" />
<circle cx="255" cy="35" r="1" style="fill:#ffffff" />
<circle cx="258" cy="36" r="1" style="fill:#ffffff" />
<circle cx="261" cy="37" r="1" style="fill:#ffffff" />
<circle cx="264" cy="39" r="1" style="fill:#ffffff" />
<circle cx="266" cy="40" r="1" style="fill:#ffffff" />
<circle cx="269" cy="42" r="1" style="fill:#ffffff" />
<circle cx="272" cy="44" r="1" style="fill:#ffffff" />
<circle cx="275" cy="45" r="1" style="fill:#ffffff" />
<circle cx="277" cy="47" r="1" style="fill:#ffffff" />
<circle cx="280" cy="49" r="1" style="fill:#ffffff" />
<circle cx="282" cy="51" r="1" style="fill:#ffffff" />
<circle cx="285" cy="53" r="1" style="fill:#ffffff" />
<circle cx="287" cy="55" r="1" style="fill:#ffffff" />
<circle cx="290" cy="57" r="1" style="fill:#ffffff" />
<circle cx="292" cy="59" r="1" style="fill:#ffffff" />
<circle cx="295" cy="61" r="1" style="fill:#ffffff" />
<circle cx="297" cy="63" r="1" style="fill:#ffffff" />
<circle cx="299" cy="65" r="1" style="fill:#ffffff" />
<circle cx="302" cy="67" r="1" style="fill:#ffffff" />
<circle cx="304" cy="70" r="1" style="fill:#ffffff" />
<circle cx="306" cy="72" r="1" style="fill:#ffffff" />
<circle cx="308" cy="74" r="1" style="fill:#ffffff" />
<circle cx="310" cy="77" r="1" style="fill:#ffffff" />
<circle cx="312" cy="79" r="1" style="fill:#ffffff" />
<circle cx="314" cy="82" r="1" style="fill:#ffffff" />
<circle cx="316" cy="84" r="1" style="fill:#ffffff" />
<circle cx="317" cy="87" r="1" style="fill:#ffffff" />
<circle cx="319" cy="90" r="1" style="fill:#ffffff" />
<circle cx="321" cy="92" r="1" style="fill:#ffffff" />
<circle cx="323" cy="95" r="1" style="fill:#ffffff" />
<circle cx="324" cy="98" r="1" style="fill:#ffffff" />
<circle cx="326" cy="101" r="1" style="fill:#ffffff" />
<circle cx="327" cy="103" r="1" style="fill:#ffffff" />
<circle cx="329" cy="106" r="1" style="fill:#ffffff" />
<circle cx="330" cy="109" r="1" style="fill:#ffffff" />
<circle cx="331" cy="112" r="1" style="fill:#ffffff" />
<circle cx="332" cy="115" r="1" style="fill:#ffffff" />
<circle cx="334" cy="118" r="1" style="fill:#ffffff" />
<circle cx="335" cy="121" r="1" style="fill:#ffffff" />
<circle cx="336" cy="124" r="1" style="fill:#ffffff" />
<circle cx="337" cy="127" r="1" style="fill:#ffffff" />
<circle cx="338" cy="130" r="1" style="fill:#ffffff" />
<circle cx="338" cy="133" r="1" style="fill:#ffffff" />
<circle cx="339" cy="136" r="1" style="fill:#ffffff" />
<circle cx="340" cy="139" r="1" style="fill:#ffffff" />
<circle cx="341" cy="142" r="1" style="fill:#ffffff" />
<circle cx="341" cy="145" r="1" style="fill:#ffffff" />
<circle cx="342" cy="149" r="1" style="fill:#ffffff" />
<circle cx="342" cy="152" r="1" style="fill:#ffffff" />
<circle cx="343" cy="155" r="1" style="fill:#ffffff" />
<circle cx="343" cy="158" r="1" style="fill:#ffffff" />
<circle cx="343" cy="161" r="1" style="fill:#ffffff" />
<circle cx="343" cy="164" r="1" style="fill:#ffffff" />
<circle cx="343" cy="168" r="1" style="fill:#ffffff" />
<circle cx="343" cy="171" r="1" style="fill:#ffffff" />
<circle cx="343" cy="173" r="1" style="fill:#ffffff" />
<circle cx="343" cy="176" r="1" style="fill:#ffffff" />
<circle cx="343" cy="179" r="1" style="fill:#ffffff" />
<circle cx="343" cy="182" r="1" style="fill:#ffffff" />
<circle cx="343" cy="186" r="1" style="fill:#ffffff" />
<circle cx="342" cy="189" r="1" style="fill:#ffffff" />
<circle cx="342" cy="192" r="1" style="fill:#ffffff" />
<circle cx="341" cy="195" r="1" style="fill:#ffffff" />
<circle cx="341" cy="198" r="1" style="fill:#ffffff" />
<circle cx="340" cy="201" r="1" style="fill:#ffffff" />
<circle cx="340" cy="204" r="1" style="fill:#ffffff" />
<circle cx="339" cy="207" r="1" style="fill:#ffffff" />
<circle cx="338" cy="210" r="1" style="fill:#ffffff" />
<circle cx="337" cy="214" r="1" style="fill:#ffffff" />
<circle cx="336" cy="217" r="1" style="fill:#ffffff" />
<circle cx="335" cy="220" r="1" style="fill:#ffffff" />
<circle cx="334" cy="223" r="1" style="fill:#ffffff" />
<circle cx="333" cy="226" r="1" style="fill:#ffffff" />
<circle cx="332" cy="228" r="1" style="fill:#ffffff" />
<circle cx="331" cy="231" r="1" style="fill:#ffffff" />
<circle cx="329" cy="234" r="1" style="fill:#ffffff" />
<circle cx="328" cy="237" r="1" style="fill:#ffffff" />
<circle cx="326" cy="240" r="1" style="fill:#ffffff" />
<circle cx="325" cy="243" r="1" style="fill:#ffffff" />
<circle cx="323" cy="245" r="1" style="fill:#ffffff" />
<circle cx="322" cy="248" r="1" style="fill:#ffffff" />
<circle cx="320" cy="251" r="1" style="fill:#ffffff" />
<circle cx="318" cy="254" r="1" style="fill:#ffffff" />
<circle cx="317" cy="256" r="1" style="fill:#ffffff" />
<circle cx="315" cy="259" r="1" style="fill:#ffffff" />
<circle cx="313" cy="261" r="1" style="fill:#ffffff" />
<circle cx="311" cy="264" r="1" style="fill:#ffffff" />
<circle cx="309" cy="266" r="1" style="fill:#ffffff" />
<circle cx="307" cy="269" r="1" style="fill:#ffffff" />
<circle cx="305" cy="271" r="1" style="fill:#ffffff" />
<circle cx="303" cy="273" r="1" style="fill:#ffffff" />
<circle cx="300" cy="276" r="1" style="fill:#ffffff" />
<circle cx="298" cy="278" r="1" style="fill:#ffffff" />
<circle cx="296" cy="280" r="1" style="fill:#ffffff" />
<circle cx="294" cy="282" r="1" style="fill:#ffffff" />
<circle cx="291" cy="284" r="1" style="fill:#ffffff" />
<circle cx="289" cy="286" r="1" style="fill:#ffffff" />
<circle cx="286" cy="288" r="1" style="fill:#ffffff" />
<circle cx="284" cy="290" r="1" style="fill:#ffffff" />
<circle cx="281" cy="292" r="1" style="fill:#ffffff" />
<circle cx="279" cy="294" r="1" style="fill:#ffffff" />
<circle cx="276" cy="296" r="1" style="fill:#ffffff" />
<circle cx="273" cy="298" r="1" style="fill:#ffffff" />
<circle cx="271" cy="299" r="1" style="fill:#ffffff" />
<circle cx="268" cy="301" r="1" style="fill:#ffffff" />
<circle cx="265" cy="302" r="1" style="fill:#ffffff" />
<circle cx="262" cy="304" r="1" style="fill:#ffffff" />
<circle cx="259" cy="305" r="1" style="fill:#ffffff" />
<circle cx="257" cy="307" r="1" style="fill:#ffffff" />
<circle cx="254" cy="308" r="1" style="fill:#ffffff" />
<circle cx="251" cy="309" r="1" style="fill:#ffffff" />
<circle cx="248" cy="310" r="1" style="fill:#ffffff" />
<circle cx="245" cy="311" r="1" style="fill:#ffffff" />
<circle cx="242" cy="313" r="1" style="fill:#ffffff" />
<circle cx="239" cy="313" r="1" style="fill:#ffffff" />
<circle cx="236" cy="314" r="1" style="fill:#ffffff" />
<circle cx="233" cy="315" r="1" style="fill:#ffffff" />
<circle cx="230" cy="316" r="1" style="fill:#ffffff" />
<circle cx="227" cy="317" r="1" style="fill:#ffffff" />
<circle cx="223" cy="317" r="1" style="fill:#ffffff" />
<circle cx="220" cy="318" r="1" style="fill:#ffffff" />
<circle cx="217" cy="319" r="1" style="fill:#ffffff" />
<circle cx="214" cy="319" r="1" style="fill:#ffffff" />
<circle cx="211" cy="319" r="1" style="fill:#ffffff" />
<circle cx="208" cy="320" r="1" style="fill:#ffffff" />
<circle cx="205" cy="320" r="1" style="fill:#ffffff" />
<circle cx="201" cy="320" r="1" style="fill:#ffffff" />
<circle cx="198" cy="320" r="1" style="fill:#ffffff" />
<circle cx="195" cy="320" r="1" style="fill:#ffffff" />
<circle cx="193" cy="320" r="1" style="fill:#ffffff" />
<circle cx="190" cy="320" r="1" style="fill:#ffffff" />
<circle cx="187" cy="320" r="1" style="fill:#ffffff" />
<circle cx="183" cy="320" r="1" style="fill:#ffffff" />
<circle cx="180" cy="320" r="1" style="fill:#ffffff" />
<circle cx="177" cy="319" r="1" style="fill:#ffffff" />
<circle cx="174" cy="319" r="1" style="fill:#ffffff" />
<circle cx="171" cy="319" r="1" style="fill:#ffffff" />
<circle cx="168" cy="318" r="1" style="fill:#ffffff" />
<circle cx="165" cy="317" r="1" style="fill:#ffffff" />
<circle cx="161" cy="317" r="1" style="fill:#ffffff" />
<circle cx="158" cy="316" r="1" style="fill:#ffffff" />
<circle cx="155" cy="315" r="1" style="fill:#ffffff" />
<circle cx="152" cy="314" r="1" style="fill:#ffffff" />
<circle cx="149" cy="313" r="1" style="fill:#ffffff" />
<circle cx="146" cy="313" r="1" style="fill:#ffffff" />
<circle cx="143" cy="311" r="1" style="fill:#ffffff" />
<circle cx="140" cy="310" r="1" style="fill:#ffffff" />
<circle cx="137" cy="309" r="1" style="fill:#ffffff" />
<circle cx="134" cy="308" r="1" style="fill:#ffffff" />
<circle cx="131" cy="307" r="1" style="fill:#ffffff" />
<circle cx="129" cy="305" r="1" style="fill:#ffffff" />
<circle cx="126" cy="304" r="1" style="fill:#ffffff" />
<circle cx="123" cy="302" r="1" style="fill:#ffffff" />
<circle cx="120" cy="301" r="1" style="fill:#ffffff" />
<circle cx="117" cy="299" r="1" style="fill:#ffffff" />
<circle cx="115" cy="298" r="1" style="fill:#ffffff" />
<circle cx="112" cy="296" r="1" style="fill:#ffffff" />
<circle cx="109" cy="294" r="1" style="fill:#ffffff" />
<circle cx="107" cy="292" r="1" style="fill:#ffffff" />
<circle cx="104" cy="290" r="1" style="fill:#ffffff" />
<circle cx="102" cy="288" r="1" style="fill:#ffffff" />
<circle cx="99" cy="286" r="1" style="fill:#ffffff" />
<circle cx="97" cy="284" r="1" style="fill:#ffffff" />
<circle cx="94" cy="282" r="1" style="fill:#ffffff" />
<circle cx="92" cy="280" r="1" style="fill:#ffffff" />
<circle cx="90" cy="278" r="1" style="fill:#ffffff" />
<circle cx="88" cy="276" r="1" style="fill:#ffffff" />
<circle cx="85" cy="273" r="1" style="fill:#ffffff" />
<circle cx="83" cy="271" r="1" style="fill:#ffffff" />
<circle cx="81" cy="269" r="1" style="fill:#ffffff" />
<circle cx="79" cy="266" r="1" style="fill:#ffffff" />
<circle cx="77" cy="264" r="1" style="fill:#ffffff" />
<circle cx="75" cy="261" r="1" style="fill:#ffffff" />
<circle cx="73" cy="259" r="1" style="fill:#ffffff" />
<circle cx="71" cy="256" r="1" style="fill:#ffffff" />
<circle cx="70" cy="254" r="1" style="fill:#ffffff" />
<circle cx="68" cy="251" r="1" style="fill:#ffffff" />
<circle cx="66" cy="248" r="1" style="fill:#ffffff" />
<circle cx="65" cy="246" r="1" style="fill:#ffffff" />
<circle cx="63" cy="243" r="1" style="fill:#ffffff" />
<circle cx="62" cy="240" r="1" style="fill:#ffffff" />
<circle cx="60" cy="237" r="1" style="fill:#ffffff" />
<circle cx="59" cy="234" r="1" style="fill:#ffffff" />
<circle cx="57" cy="231" r="1" style="fill:#ffffff" />
<circle cx="56" cy="228" r="1" style="fill:#ffffff" />
<circle cx="55" cy="226" r="1" style="fill:#ffffff" />
<circle cx="54" cy="223" r="1" style="fill:#ffffff" />
<circle cx="53" cy="220" r="1" style="fill:#ffffff" />
<circle cx="52" cy="217" r="1" style="fill:#ffffff" />
<circle cx="51" cy="214" r="1" style="fill:#ffffff" />
<circle cx="50" cy="210" r="1" style="fill:#ffffff" />
<circle cx="49" cy="207" r="1" style="fill:#ffffff" />
<circle cx="48" cy="204" r="1" style="fill:#ffffff" />
<circle cx="48" cy="201" r="1" style="fill:#ffffff" />
<circle cx="47" cy="198" r="1" style="fill:#ffffff" />
<circle cx="47" cy="195" r="1" style="fill:#ffffff" />
<circle cx="46" cy="192" r="1" style="fill:#ffffff" />
<circle cx="46" cy="189" r="1" style="fill:#ffffff" />
<circle cx="45" cy="186" r="1" style="fill:#ffffff" />
<circle cx="45" cy="182" r="1" style="fill:#ffffff" />
<circle cx="45" cy="179" r="1" style="fill:#ffffff" />
<circle cx="45" cy="176" r="1" style="fill:#ffffff" />
<circle cx="45" cy="173" r="1" style="fill:#ffffff" />
<circle cx="45" cy="171" r="1" style="fill:#ffffff" />
<circle cx="45" cy="168" r="1" style="fill:#ffffff" />
<circle cx="45" cy="164" r="1" style="fill:#ffffff" />
<circle cx="45" cy="161" r="1" style="fill:#ffffff" />
<circle cx="45" cy="158" r="1" style="fill:#ffffff" />
<circle cx="45" cy="155" r="1" style="fill:#ffffff" />
<circle cx="46" cy="152" r="1" style="fill:#ffffff" />
<circle cx="46" cy="149" r="1" style="fill:#ffffff" />
<circle cx="47" cy="145" r="1" style="fill:#ffffff" />
<circle cx="47" cy="142" r="1" style="fill:#ffffff" />
<circle cx="48" cy="139" r="1" style="fill:#ffffff" />
<circle cx="49" cy="136" r="1" style="fill:#ffffff" />
<circle cx="50" cy="133" r="1" style="fill:#ffffff" />
<circle cx="50" cy="130" r="1" style="fill:#ffffff" />
<circle cx="51" cy="127" r="1" style="fill:#ffffff" />
<circle cx="52" cy="124" r="1" style="fill:#ffffff" />
<circle cx="53" cy="121" r="1" style="fill:#ffffff" />
<circle cx="54" cy="118" r="1" style="fill:#ffffff" />
<circle cx="56" cy="115" r="1" style="fill:#ffffff" />
<circle cx="57" cy="112" r="1" style="fill:#ffffff" />
<circle cx="58" cy="109" r="1" style="fill:#ffffff" />
<circle cx="59" cy="106" r="1" style="fill:#ffffff" />
<circle cx="61" cy="103" r="1" style="fill:#ffffff" />
<circle cx="62" cy="101" r="1" style="fill:#ffffff" />
<circle cx="64" cy="98" r="1" style="fill:#ffffff" />
<circle cx="65" cy="95" r="1" style="fill:#ffffff" />
<circle cx="67" cy="92" r="1" style="fill:#ffffff" />
<circle cx="69" cy="90" r="1" style="fill:#ffffff" />
<circle cx="71" cy="87" r="1" style="fill:#ffffff" />
<circle cx="72" cy="84" r="1" style="fill:#ffffff" />
<circle cx="74" cy="82" r="1" style="fill:#ffffff" />
<circle cx="76" cy="79" r="1" style="fill:#ffffff" />
<circle cx="78" cy="77" r="1" style="fill:#ffffff" />
<circle cx="80" cy="74" r="1" style="fill:#ffffff" />
<circle cx="82" cy="72" r="1" style="fill:#ffffff" />
<circle cx="84" cy="70" r="1" style="fill:#ffffff" />
<circle cx="86" cy="67" r="1" style="fill:#ffffff" />
<circle cx="89" cy="65" r="1" style="fill:#ffffff" />
<circle cx="91" cy="63" r="1" style="fill:#ffffff" />
<circle cx="93" cy="61" r="1" style="fill:#ffffff" />
<circle cx="96" cy="59" r="1" style="fill:#ffffff" />
<circle cx="98" cy="57" r="1" style="fill:#ffffff" />
<circle cx="101" cy="55" r="1" style="fill:#ffffff" />
<circle cx="103" cy="53" r="1" style="fill:#ffffff" />
<circle cx="106" cy="51" r="1" style="fill:#ffffff" />
<circle cx="108" cy="49" r="1" style="fill:#ffffff" />
<circle cx="111" cy="47" r="1" style="fill:#ffffff" />
<circle cx="113" cy="45" r="1" style="fill:#ffffff" />
<circle cx="116" cy="44" r="1" style="fill:#ffffff" />
<circle cx="119" cy="42" r="1" style="fill:#ffffff" />
<circle cx="122" cy="40" r="1" style="fill:#ffffff" />
<circle cx="124" cy="39" r="1" style="fill:#ffffff" />
<circle cx="127" cy="37" r="1" style="fill:#ffffff" />
<circle cx="130" cy="36" r="1" style="fill:#ffffff" />
<circle cx="133" cy="35" r="1" style="fill:#ffffff" />
<circle cx="136" cy="33" r="1" style="fill:#ffffff" />
<circle cx="139" cy="32" r="1" style="fill:#ffffff" />
<circle cx="142" cy="31" r="1" style="fill:#ffffff" />
<circle cx="145" cy="30" r="1" style="fill:#ffffff" />
<circle cx="148" cy="29" r="1" style="fill:#ffffff" />
<circle cx="151" cy="28" r="1" style="fill:#ffffff" />
<circle cx="154" cy="27" r="1" style="fill:#ffffff" />
<circle cx="157" cy="26" r="1" style="fill:#ffffff" />
<circle cx="160" cy="26" r="1" style="fill:#ffffff" />
<circle cx="163" cy="25" r="1" style="fill:#ffffff" />
<circle cx="166" cy="24" r="1" style="fill:#ffffff" />
<circle cx="169" cy="24" r="1" style="fill:#ffffff" />
<circle cx="172" cy="23" r="1" style="fill:#ffffff" />
<circle cx="176" cy="23" r="1" style="fill:#ffffff" />
<circle cx="179" cy="22" r="1" style="fill:#ffffff" />
<circle cx="182" cy="22" r="1" style="fill:#ffffff" />
<circle cx="185" cy="22" r="1" style="fill:#ffffff" />
<circle cx="188" cy="22" r="1" style="fill:#ffffff" />
<circle cx="191" cy="22" r="1" style="fill:#ffffff" />
</g>
<g font-size="10.000000" stroke="none">
<text x="236" y="22">oovBuilder</text>
<text x="275" y="39">oovCMaker</text>
<text x="343" y="132">oovCommon</text>
<text x="326" y="251">oovCovInstr</text>
<text x="308" y="274">oovCppParser</text>
<text x="256" y="312">oovEdit</text>
<text x="108" y="325">oovGuiCommon</text>
<text x="45" y="274">oovcde</text>
<text x="20" y="69">oovcde/BLL</text>
</g>
</svg>