<svg xmlns="http://www.w3.org/2000/svg" version="1.1" width="594" height="457">
<g  fill="#f5fff5" stroke="rgb(0,0,0)" style="stroke-width:1">
<rect x="35" y="313" width="133" height="143" />
<line x1="35" y1="326" x2="168" y2="326" />
<polygon points="148,334 160,339 160,329 148,334 " style="fill:#ffffff" />
<polygon points="148,348 155,352 162,348 155,344 148,348 " style="fill:#ffffff" />
<polygon points="148,362 155,366 162,362 155,358 148,362 " style="fill:#000000" />
<polygon points="148,376 156,381 152,376 156,371 148,376 " style="fill:#ffffff" />
<circle cx="148" cy="390" r="5" style="fill:#ffffff" />
<circle cx="148" cy="404" r="5" style="fill:#ffffff" />
<circle cx="155" cy="404" r="2" style="fill:#ffffff" />
<circle cx="148" cy="418" r="5" style="fill:#ffffff" />
<circle cx="148" cy="418" r="2" style="fill:#ffffff" />
<circle cx="148" cy="432" r="5" style="fill:#ffffff" />
<circle cx="148" cy="432" r="2" style="fill:#000000" />
<circle cx="148" cy="446" r="5" style="fill:#000000" />
<circle cx="148" cy="446" r="2" style="fill:#000000" />
</g>
<g font-size="10.000000">
<text x="36" y="322">Relations Key</text>
<text x="36" y="336">Generalization</text>
<text x="36" y="350">Aggregation(reference)</text>
<text x="36" y="364">Composition(owned)</text>
<text x="36" y="378">Const</text>
<text x="36" y="392">Method Variable</text>
<text x="36" y="406">Method Parameter</text>
<text x="36" y="420">Public</text>
<text x="36" y="434">Protected</text>
<text x="36" y="448">Private</text>
</g>
<g  fill="#f5fff5" stroke="rgb(0,0,0)" style="stroke-width:1">
<rect x="35" y="169" width="148" height="125" />
<line x1="35" y1="190" x2="183" y2="190" />
<line x1="35" y1="202" x2="183" y2="202" />
</g>
<g font-size="10.000000">
<text x="36" y="178">llvm::DIELabel</text>
<text x="36" y="187">/AsmPrinter/</text>
<text x="36" y="199">-llvm::MCSymbol Label</text>
<text x="36" y="211">+EmitValue(llvm::AsmPrinter </text>
<text x="36" y="220">   AP, llvm::dwarf::Form Fo</text>
<text x="36" y="229">   rm)</text>
<text x="36" y="238">+SizeOf(llvm::AsmPrinter AP</text>
<text x="36" y="247">   , llvm::dwarf::Form Form</text>
<text x="36" y="256">   )</text>
<text x="36" y="265">+print(llvm::raw_ostream O)</text>
<text x="36" y="274">+DIELabel(llvm::MCSymbol L)</text>
<text x="36" y="283">+getValue()</text>
<text x="36" y="292">+classof(llvm::DIEValue L)</text>
</g>
<g  fill="#f5fff5" stroke="rgb(0,0,0)" style="stroke-width:1">
<rect x="339" y="8" width="254" height="323" />
<line x1="339" y1="29" x2="593" y2="29" />
<line x1="339" y1="140" x2="593" y2="140" />
</g>
<g font-size="10.000000">
<text x="340" y="17">llvm::MCSymbol</text>
<text x="340" y="26">/MC/</text>
<text x="340" y="38">+llvm::MCSection AbsolutePseudoSection</text>
<text x="340" y="47">+llvm::StringRef Name</text>
<text x="340" y="56">+llvm::MCSection Section</text>
<text x="340" y="65">+llvm::MCExpr Value</text>
<text x="340" y="74">+unsigned int IsTemporary</text>
<text x="340" y="83">+unsigned int IsUsed</text>
<text x="340" y="92">+llvm::MCSection AbsolutePseudoSection</text>
<text x="340" y="101">+llvm::StringRef Name</text>
<text x="340" y="110">+llvm::MCSection Section</text>
<text x="340" y="119">+llvm::MCExpr Value</text>
<text x="340" y="128">+unsigned int IsTemporary</text>
<text x="340" y="137">+unsigned int IsUsed</text>
<text x="340" y="149">-MCSymbol(llvm::StringRef name, bool isTemporary)</text>
<text x="340" y="158">-MCSymbol(llvm::MCSymbol )</text>
<text x="340" y="167">-operator=(llvm::MCSymbol )</text>
<text x="340" y="176">+getName()</text>
<text x="340" y="185">+isTemporary()</text>
<text x="340" y="194">+isUsed()</text>
<text x="340" y="203">+setUsed(bool Value)</text>
<text x="340" y="212">+isDefined()</text>
<text x="340" y="221">+isInSection()</text>
<text x="340" y="230">+isUndefined()</text>
<text x="340" y="239">+isAbsolute()</text>
<text x="340" y="248">+getSection()</text>
<text x="340" y="257">+setSection(llvm::MCSection S)</text>
<text x="340" y="266">+setUndefined()</text>
<text x="340" y="275">+setAbsolute()</text>
<text x="340" y="284">+isVariable()</text>
<text x="340" y="293">+getVariableValue()</text>
<text x="340" y="302">+AliasedSymbol()</text>
<text x="340" y="311">+setVariableValue(llvm::MCExpr Value)</text>
<text x="340" y="320">+print(llvm::raw_ostream OS)</text>
<text x="340" y="329">+dump()</text>
</g>
<g  fill="#f5fff5" stroke="rgb(0,0,0)" style="stroke-width:1">
<rect x="33" y="9" width="275" height="107" />
<line x1="33" y1="30" x2="308" y2="30" />
<line x1="33" y1="42" x2="308" y2="42" />
</g>
<g font-size="10.000000">
<text x="34" y="18">llvm::DIEValue</text>
<text x="34" y="27">/AsmPrinter/</text>
<text x="34" y="39">#llvm::DIEValue::Type Ty</text>
<text x="34" y="51">-anchor()</text>
<text x="34" y="60">+dump()</text>
<text x="34" y="69">#DIEValue(llvm::DIEValue::Type T)</text>
<text x="34" y="78">#~DIEValue()</text>
<text x="34" y="87">+getType()</text>
<text x="34" y="96">+EmitValue(llvm::AsmPrinter AP, llvm::dwarf::Form Form)</text>
<text x="34" y="105">+SizeOf(llvm::AsmPrinter AP, llvm::dwarf::Form Form)</text>
<text x="34" y="114">+print(llvm::raw_ostream O)</text>
</g>
<g  fill="#f5fff5" stroke="rgb(0,0,0)" style="stroke-width:1">
<line x1="183" y1="219" x2="339" y2="191" />
<polygon points="183,219 192,223 186,219 189,212 183,219 " style="fill:#ffffff" />
<circle cx="196" cy="216" r="5" style="fill:#ffffff" />
<circle cx="212" cy="213" r="5" style="fill:#000000" />
<circle cx="212" cy="213" r="2" style="fill:#000000" />
<polygon points="183,219 191,222 196,217 189,214 183,219 " style="fill:#ffffff" />
<line x1="131" y1="169" x2="151" y2="115" />
<polygon points="131,169 139,164 132,166 129,160 131,169 " style="fill:#ffffff" />
<circle cx="135" cy="155" r="5" style="fill:#ffffff" />
<circle cx="138" cy="149" r="2" style="fill:#ffffff" />
<circle cx="140" cy="143" r="5" style="fill:#ffffff" />
<circle cx="140" cy="143" r="2" style="fill:#ffffff" />
<polygon points="151,115 142,125 151,128 151,115 " style="fill:#ffffff" />
</g>
</svg>