<svg xmlns="http://www.w3.org/2000/svg" version="1.1" width="537" height="441">
<g  fill="#f5f5ff" stroke="#000000" style="stroke-width:1">
</g>
<g  fill="#f5f5ff" stroke="#ffb300" style="stroke-width:1">
<line x1="170" y1="36" x2="175" y2="36" />
<line x1="191" y1="50" x2="185" y2="41" />
<line x1="192" y1="56" x2="185" y2="41" />
<line x1="192" y1="60" x2="180" y2="38" />
<line x1="192" y1="60" x2="192" y2="56" />
<line x1="192" y1="60" x2="148" y2="60" />
<line x1="188" y1="70" x2="185" y2="75" />
<line x1="185" y1="75" x2="165" y2="36" />
<line x1="185" y1="75" x2="185" y2="41" />
<line x1="180" y1="78" x2="185" y2="41" />
<line x1="170" y1="80" x2="188" y2="70" />
<line x1="155" y1="75" x2="149" y2="66" />
<line x1="149" y1="66" x2="148" y2="60" />
<line x1="148" y1="56" x2="149" y2="66" />
<line x1="149" y1="50" x2="149" y2="66" />
<line x1="152" y1="46" x2="149" y2="66" />
<line x1="155" y1="41" x2="185" y2="41" />
</g>
<g  fill="#f5f5ff" stroke="#ff6800" style="stroke-width:1">
<line x1="351" y1="116" x2="175" y2="36" />
<line x1="356" y1="117" x2="185" y2="75" />
<line x1="361" y1="117" x2="185" y2="75" />
<line x1="361" y1="117" x2="376" y2="44" />
<line x1="361" y1="117" x2="40" y2="193" />
<line x1="361" y1="117" x2="115" y2="154" />
<line x1="367" y1="119" x2="446" y2="107" />
<line x1="377" y1="123" x2="185" y2="75" />
<line x1="377" y1="123" x2="165" y2="36" />
<line x1="377" y1="123" x2="381" y2="336" />
<line x1="382" y1="126" x2="21" y2="249" />
<line x1="382" y1="126" x2="456" y2="291" />
<line x1="386" y1="129" x2="390" y2="133" />
<line x1="386" y1="129" x2="394" y2="137" />
<line x1="400" y1="146" x2="421" y2="360" />
<line x1="400" y1="146" x2="320" y2="126" />
<line x1="400" y1="146" x2="185" y2="41" />
<line x1="400" y1="146" x2="457" y2="296" />
<line x1="400" y1="146" x2="450" y2="110" />
<line x1="404" y1="156" x2="376" y2="44" />
<line x1="404" y1="156" x2="185" y2="41" />
<line x1="407" y1="172" x2="406" y2="182" />
<line x1="407" y1="172" x2="406" y2="167" />
<line x1="407" y1="172" x2="457" y2="296" />
<line x1="407" y1="172" x2="406" y2="177" />
<line x1="407" y1="172" x2="180" y2="181" />
<line x1="406" y1="177" x2="457" y2="296" />
<line x1="406" y1="177" x2="57" y2="321" />
<line x1="406" y1="177" x2="96" y2="340" />
<line x1="406" y1="177" x2="203" y2="217" />
<line x1="406" y1="182" x2="49" y2="314" />
<line x1="404" y1="188" x2="457" y2="296" />
<line x1="404" y1="188" x2="400" y2="198" />
<line x1="404" y1="188" x2="23" y2="233" />
<line x1="404" y1="188" x2="406" y2="167" />
<line x1="402" y1="193" x2="169" y2="324" />
<line x1="402" y1="193" x2="142" y2="158" />
<line x1="402" y1="193" x2="175" y2="177" />
<line x1="402" y1="193" x2="457" y2="296" />
<line x1="402" y1="193" x2="446" y2="304" />
<line x1="402" y1="193" x2="23" y2="233" />
<line x1="402" y1="193" x2="34" y2="202" />
<line x1="402" y1="193" x2="128" y2="341" />
<line x1="402" y1="193" x2="68" y2="167" />
<line x1="402" y1="193" x2="134" y2="340" />
<line x1="397" y1="203" x2="406" y2="182" />
<line x1="397" y1="203" x2="400" y2="198" />
<line x1="394" y1="207" x2="404" y2="188" />
<line x1="394" y1="207" x2="406" y2="177" />
<line x1="390" y1="211" x2="394" y2="207" />
<line x1="386" y1="215" x2="367" y2="225" />
<line x1="386" y1="215" x2="406" y2="167" />
<line x1="386" y1="215" x2="406" y2="177" />
<line x1="386" y1="215" x2="397" y2="203" />
<line x1="386" y1="215" x2="394" y2="207" />
<line x1="386" y1="215" x2="22" y2="239" />
<line x1="386" y1="215" x2="377" y2="221" />
<line x1="382" y1="218" x2="406" y2="177" />
<line x1="382" y1="218" x2="397" y2="203" />
<line x1="382" y1="218" x2="367" y2="225" />
<line x1="377" y1="221" x2="66" y2="327" />
<line x1="377" y1="221" x2="196" y2="202" />
<line x1="377" y1="221" x2="63" y2="170" />
<line x1="377" y1="221" x2="404" y2="188" />
<line x1="377" y1="221" x2="382" y2="218" />
<line x1="372" y1="223" x2="203" y2="217" />
<line x1="372" y1="223" x2="455" y2="301" />
<line x1="372" y1="223" x2="406" y2="177" />
<line x1="372" y1="223" x2="457" y2="296" />
<line x1="361" y1="227" x2="22" y2="254" />
<line x1="351" y1="228" x2="346" y2="227" />
<line x1="346" y1="227" x2="325" y2="123" />
<line x1="346" y1="227" x2="404" y2="156" />
<line x1="346" y1="227" x2="335" y2="119" />
<line x1="346" y1="227" x2="361" y2="117" />
<line x1="346" y1="227" x2="356" y2="117" />
<line x1="346" y1="227" x2="351" y2="116" />
<line x1="346" y1="227" x2="180" y2="78" />
<line x1="346" y1="227" x2="316" y2="129" />
<line x1="346" y1="227" x2="417" y2="370" />
<line x1="346" y1="227" x2="305" y2="141" />
<line x1="346" y1="227" x2="302" y2="146" />
<line x1="346" y1="227" x2="453" y2="287" />
<line x1="335" y1="225" x2="296" y2="162" />
<line x1="325" y1="221" x2="305" y2="203" />
<line x1="320" y1="218" x2="104" y2="155" />
<line x1="320" y1="218" x2="300" y2="193" />
<line x1="320" y1="218" x2="325" y2="221" />
<line x1="320" y1="218" x2="411" y2="336" />
<line x1="316" y1="215" x2="300" y2="193" />
<line x1="312" y1="211" x2="169" y2="324" />
<line x1="312" y1="211" x2="187" y2="189" />
<line x1="312" y1="211" x2="134" y2="340" />
<line x1="312" y1="211" x2="99" y2="156" />
<line x1="308" y1="207" x2="192" y2="56" />
<line x1="308" y1="207" x2="420" y2="350" />
<line x1="308" y1="207" x2="104" y2="155" />
<line x1="308" y1="207" x2="330" y2="223" />
<line x1="308" y1="207" x2="155" y2="41" />
<line x1="308" y1="207" x2="305" y2="203" />
<line x1="308" y1="207" x2="165" y2="36" />
<line x1="302" y1="198" x2="316" y2="215" />
<line x1="300" y1="193" x2="134" y2="340" />
<line x1="300" y1="193" x2="411" y2="336" />
<line x1="298" y1="188" x2="188" y2="46" />
<line x1="298" y1="188" x2="175" y2="80" />
<line x1="298" y1="188" x2="375" y2="370" />
<line x1="296" y1="182" x2="404" y2="380" />
<line x1="296" y1="182" x2="298" y2="188" />
<line x1="296" y1="182" x2="361" y2="227" />
<line x1="296" y1="182" x2="165" y2="36" />
<line x1="296" y1="182" x2="148" y2="56" />
<line x1="296" y1="182" x2="170" y2="80" />
<line x1="296" y1="182" x2="375" y2="370" />
<line x1="296" y1="182" x2="185" y2="75" />
<line x1="296" y1="182" x2="335" y2="119" />
<line x1="296" y1="182" x2="180" y2="38" />
<line x1="296" y1="177" x2="397" y2="141" />
<line x1="295" y1="172" x2="371" y2="360" />
<line x1="295" y1="172" x2="59" y2="173" />
<line x1="295" y1="172" x2="177" y2="317" />
<line x1="295" y1="172" x2="208" y2="254" />
<line x1="295" y1="172" x2="202" y2="281" />
<line x1="295" y1="172" x2="372" y2="350" />
<line x1="295" y1="172" x2="107" y2="341" />
<line x1="295" y1="172" x2="391" y2="332" />
<line x1="295" y1="172" x2="142" y2="158" />
<line x1="295" y1="172" x2="61" y2="324" />
<line x1="295" y1="172" x2="22" y2="254" />
<line x1="295" y1="172" x2="30" y2="286" />
<line x1="295" y1="172" x2="265" y2="389" />
<line x1="295" y1="172" x2="401" y2="332" />
<line x1="295" y1="172" x2="63" y2="170" />
<line x1="295" y1="172" x2="330" y2="121" />
<line x1="295" y1="172" x2="346" y2="117" />
<line x1="295" y1="172" x2="320" y2="126" />
<line x1="295" y1="172" x2="305" y2="203" />
<line x1="295" y1="172" x2="455" y2="301" />
<line x1="295" y1="172" x2="346" y2="227" />
<line x1="295" y1="172" x2="386" y2="215" />
<line x1="295" y1="172" x2="402" y2="151" />
<line x1="295" y1="172" x2="420" y2="350" />
<line x1="295" y1="172" x2="400" y2="146" />
<line x1="295" y1="172" x2="152" y2="70" />
<line x1="295" y1="172" x2="188" y2="46" />
<line x1="295" y1="172" x2="175" y2="36" />
<line x1="295" y1="172" x2="170" y2="36" />
<line x1="295" y1="172" x2="99" y2="156" />
<line x1="295" y1="172" x2="394" y2="381" />
<line x1="295" y1="172" x2="375" y2="370" />
<line x1="296" y1="167" x2="296" y2="162" />
<line x1="298" y1="156" x2="296" y2="162" />
<line x1="302" y1="146" x2="376" y2="44" />
<line x1="308" y1="137" x2="335" y2="119" />
<line x1="308" y1="137" x2="22" y2="260" />
<line x1="312" y1="133" x2="23" y2="265" />
<line x1="316" y1="129" x2="335" y2="119" />
<line x1="316" y1="129" x2="376" y2="44" />
<line x1="320" y1="126" x2="330" y2="121" />
<line x1="325" y1="123" x2="312" y2="133" />
<line x1="325" y1="123" x2="308" y2="137" />
<line x1="330" y1="121" x2="185" y2="75" />
<line x1="335" y1="119" x2="185" y2="75" />
</g>
<g  fill="#f5f5ff" stroke="#a6bdd7" style="stroke-width:1">
<line x1="442" y1="110" x2="450" y2="110" />
</g>
<g  fill="#f5f5ff" stroke="#cea262" style="stroke-width:1">
<line x1="453" y1="287" x2="457" y2="296" />
<line x1="456" y1="291" x2="457" y2="296" />
<line x1="455" y1="301" x2="450" y2="304" />
<line x1="450" y1="304" x2="457" y2="296" />
</g>
<g  fill="#f5f5ff" stroke="#817066" style="stroke-width:1">
<line x1="401" y1="332" x2="418" y2="345" />
<line x1="401" y1="332" x2="420" y2="350" />
<line x1="406" y1="333" x2="391" y2="332" />
<line x1="406" y1="333" x2="420" y2="350" />
<line x1="415" y1="340" x2="420" y2="350" />
<line x1="420" y1="350" x2="411" y2="336" />
<line x1="419" y1="365" x2="391" y2="332" />
<line x1="417" y1="370" x2="391" y2="332" />
<line x1="417" y1="370" x2="419" y2="365" />
<line x1="413" y1="374" x2="421" y2="360" />
<line x1="409" y1="377" x2="413" y2="374" />
<line x1="394" y1="381" x2="375" y2="370" />
<line x1="379" y1="374" x2="375" y2="370" />
<line x1="375" y1="370" x2="373" y2="365" />
<line x1="373" y1="365" x2="413" y2="374" />
<line x1="371" y1="355" x2="373" y2="365" />
<line x1="377" y1="340" x2="413" y2="374" />
</g>
<g  fill="#f5f5ff" stroke="#007d34" style="stroke-width:1">
<line x1="267" y1="367" x2="169" y2="324" />
<line x1="267" y1="367" x2="142" y2="158" />
<line x1="267" y1="367" x2="128" y2="341" />
<line x1="267" y1="367" x2="419" y2="365" />
<line x1="267" y1="367" x2="391" y2="332" />
<line x1="267" y1="367" x2="278" y2="377" />
<line x1="267" y1="367" x2="110" y2="155" />
<line x1="278" y1="377" x2="167" y2="170" />
<line x1="278" y1="377" x2="99" y2="156" />
<line x1="274" y1="386" x2="23" y2="265" />
<line x1="274" y1="386" x2="27" y2="217" />
<line x1="274" y1="386" x2="409" y2="377" />
<line x1="274" y1="386" x2="22" y2="260" />
<line x1="274" y1="386" x2="144" y2="337" />
<line x1="274" y1="386" x2="45" y2="309" />
<line x1="274" y1="386" x2="26" y2="276" />
<line x1="274" y1="386" x2="199" y2="207" />
<line x1="269" y1="389" x2="23" y2="265" />
<line x1="269" y1="389" x2="22" y2="254" />
<line x1="269" y1="389" x2="22" y2="260" />
<line x1="269" y1="389" x2="278" y2="377" />
<line x1="269" y1="389" x2="386" y2="333" />
<line x1="269" y1="389" x2="27" y2="217" />
<line x1="260" y1="386" x2="256" y2="377" />
<line x1="257" y1="382" x2="391" y2="332" />
<line x1="257" y1="382" x2="208" y2="260" />
<line x1="257" y1="382" x2="40" y2="193" />
<line x1="257" y1="382" x2="115" y2="154" />
<line x1="258" y1="372" x2="257" y2="382" />
<line x1="258" y1="372" x2="274" y2="386" />
</g>
<g  fill="#f5f5ff" stroke="#f6768e" style="stroke-width:1">
<line x1="120" y1="155" x2="31" y2="207" />
<line x1="126" y1="155" x2="120" y2="155" />
<line x1="131" y1="156" x2="31" y2="207" />
<line x1="131" y1="156" x2="187" y2="189" />
<line x1="136" y1="157" x2="142" y2="158" />
<line x1="136" y1="157" x2="150" y2="335" />
<line x1="142" y1="158" x2="150" y2="335" />
<line x1="187" y1="189" x2="142" y2="158" />
<line x1="187" y1="189" x2="162" y2="167" />
<line x1="194" y1="198" x2="196" y2="202" />
<line x1="199" y1="207" x2="110" y2="155" />
<line x1="206" y1="228" x2="155" y2="333" />
<line x1="208" y1="239" x2="206" y2="228" />
<line x1="208" y1="260" x2="110" y2="155" />
<line x1="206" y1="271" x2="22" y2="244" />
<line x1="206" y1="271" x2="207" y2="233" />
<line x1="206" y1="271" x2="43" y2="189" />
<line x1="206" y1="271" x2="126" y2="155" />
<line x1="206" y1="271" x2="152" y2="162" />
<line x1="206" y1="271" x2="102" y2="341" />
<line x1="195" y1="296" x2="198" y2="291" />
<line x1="192" y1="301" x2="162" y2="167" />
<line x1="189" y1="305" x2="49" y2="314" />
<line x1="189" y1="305" x2="208" y2="254" />
<line x1="189" y1="305" x2="57" y2="321" />
<line x1="189" y1="305" x2="66" y2="327" />
<line x1="189" y1="305" x2="196" y2="202" />
<line x1="185" y1="309" x2="120" y2="155" />
<line x1="181" y1="314" x2="107" y2="341" />
<line x1="181" y1="314" x2="147" y2="160" />
<line x1="181" y1="314" x2="43" y2="189" />
<line x1="181" y1="314" x2="189" y2="305" />
<line x1="181" y1="314" x2="157" y2="165" />
<line x1="177" y1="317" x2="164" y2="327" />
<line x1="177" y1="317" x2="160" y2="330" />
<line x1="177" y1="317" x2="155" y2="333" />
<line x1="177" y1="317" x2="150" y2="335" />
<line x1="173" y1="321" x2="169" y2="324" />
<line x1="173" y1="321" x2="177" y2="317" />
<line x1="173" y1="321" x2="110" y2="155" />
<line x1="169" y1="324" x2="110" y2="155" />
<line x1="144" y1="337" x2="110" y2="155" />
<line x1="139" y1="338" x2="110" y2="155" />
<line x1="139" y1="338" x2="134" y2="340" />
<line x1="134" y1="340" x2="110" y2="155" />
<line x1="128" y1="341" x2="160" y2="330" />
<line x1="123" y1="341" x2="160" y2="330" />
<line x1="123" y1="341" x2="128" y2="341" />
<line x1="117" y1="342" x2="128" y2="341" />
<line x1="96" y1="340" x2="91" y2="338" />
<line x1="86" y1="337" x2="128" y2="341" />
<line x1="80" y1="335" x2="128" y2="341" />
<line x1="57" y1="321" x2="91" y2="338" />
<line x1="57" y1="321" x2="70" y2="330" />
<line x1="53" y1="317" x2="75" y2="333" />
<line x1="53" y1="317" x2="61" y2="324" />
<line x1="53" y1="317" x2="57" y2="321" />
<line x1="53" y1="317" x2="49" y2="314" />
<line x1="45" y1="309" x2="110" y2="155" />
<line x1="30" y1="286" x2="38" y2="301" />
<line x1="30" y1="286" x2="41" y2="305" />
<line x1="30" y1="286" x2="32" y2="291" />
<line x1="26" y1="276" x2="88" y2="158" />
<line x1="24" y1="228" x2="23" y2="233" />
<line x1="29" y1="212" x2="34" y2="202" />
<line x1="31" y1="207" x2="34" y2="202" />
<line x1="34" y1="202" x2="164" y2="327" />
<line x1="36" y1="198" x2="164" y2="327" />
<line x1="36" y1="198" x2="34" y2="202" />
<line x1="40" y1="193" x2="110" y2="155" />
<line x1="43" y1="189" x2="31" y2="207" />
<line x1="43" y1="189" x2="34" y2="202" />
<line x1="47" y1="184" x2="43" y2="189" />
<line x1="55" y1="177" x2="27" y2="217" />
<line x1="55" y1="177" x2="68" y2="167" />
<line x1="68" y1="167" x2="34" y2="202" />
<line x1="68" y1="167" x2="43" y2="189" />
<line x1="73" y1="165" x2="68" y2="167" />
<line x1="83" y1="160" x2="68" y2="167" />
<line x1="99" y1="156" x2="110" y2="155" />
<line x1="104" y1="155" x2="110" y2="155" />
</g>
<g  fill="#f5f5ff" stroke="#c10020" style="stroke-width:1">
</g>
<g  fill="#f5f5ff" stroke="#000000" style="stroke-width:1">
<circle cx="170" cy="36" r="1" style="fill:#ffffff" />
<circle cx="175" cy="36" r="1" style="fill:#ffffff" />
<circle cx="180" cy="38" r="1" style="fill:#ffffff" />
<circle cx="185" cy="41" r="1" style="fill:#ffffff" />
<circle cx="188" cy="46" r="1" style="fill:#ffffff" />
<circle cx="191" cy="50" r="1" style="fill:#ffffff" />
<circle cx="192" cy="56" r="1" style="fill:#ffffff" />
<circle cx="192" cy="60" r="1" style="fill:#ffffff" />
<circle cx="191" cy="66" r="1" style="fill:#ffffff" />
<circle cx="188" cy="70" r="1" style="fill:#ffffff" />
<circle cx="185" cy="75" r="1" style="fill:#ffffff" />
<circle cx="180" cy="78" r="1" style="fill:#ffffff" />
<circle cx="175" cy="80" r="1" style="fill:#ffffff" />
<circle cx="170" cy="80" r="1" style="fill:#ffffff" />
<circle cx="165" cy="80" r="1" style="fill:#ffffff" />
<circle cx="160" cy="78" r="1" style="fill:#ffffff" />
<circle cx="155" cy="75" r="1" style="fill:#ffffff" />
<circle cx="152" cy="70" r="1" style="fill:#ffffff" />
<circle cx="149" cy="66" r="1" style="fill:#ffffff" />
<circle cx="148" cy="60" r="1" style="fill:#ffffff" />
<circle cx="148" cy="56" r="1" style="fill:#ffffff" />
<circle cx="149" cy="50" r="1" style="fill:#ffffff" />
<circle cx="152" cy="46" r="1" style="fill:#ffffff" />
<circle cx="155" cy="41" r="1" style="fill:#ffffff" />
<circle cx="160" cy="38" r="1" style="fill:#ffffff" />
<circle cx="165" cy="36" r="1" style="fill:#ffffff" />
<circle cx="376" cy="44" r="1" style="fill:#ffffff" />
<circle cx="351" cy="116" r="1" style="fill:#ffffff" />
<circle cx="356" cy="117" r="1" style="fill:#ffffff" />
<circle cx="361" cy="117" r="1" style="fill:#ffffff" />
<circle cx="367" cy="119" r="1" style="fill:#ffffff" />
<circle cx="372" cy="121" r="1" style="fill:#ffffff" />
<circle cx="377" cy="123" r="1" style="fill:#ffffff" />
<circle cx="382" cy="126" r="1" style="fill:#ffffff" />
<circle cx="386" cy="129" r="1" style="fill:#ffffff" />
<circle cx="390" cy="133" r="1" style="fill:#ffffff" />
<circle cx="394" cy="137" r="1" style="fill:#ffffff" />
<circle cx="397" cy="141" r="1" style="fill:#ffffff" />
<circle cx="400" cy="146" r="1" style="fill:#ffffff" />
<circle cx="402" cy="151" r="1" style="fill:#ffffff" />
<circle cx="404" cy="156" r="1" style="fill:#ffffff" />
<circle cx="406" cy="162" r="1" style="fill:#ffffff" />
<circle cx="406" cy="167" r="1" style="fill:#ffffff" />
<circle cx="407" cy="172" r="1" style="fill:#ffffff" />
<circle cx="406" cy="177" r="1" style="fill:#ffffff" />
<circle cx="406" cy="182" r="1" style="fill:#ffffff" />
<circle cx="404" cy="188" r="1" style="fill:#ffffff" />
<circle cx="402" cy="193" r="1" style="fill:#ffffff" />
<circle cx="400" cy="198" r="1" style="fill:#ffffff" />
<circle cx="397" cy="203" r="1" style="fill:#ffffff" />
<circle cx="394" cy="207" r="1" style="fill:#ffffff" />
<circle cx="390" cy="211" r="1" style="fill:#ffffff" />
<circle cx="386" cy="215" r="1" style="fill:#ffffff" />
<circle cx="382" cy="218" r="1" style="fill:#ffffff" />
<circle cx="377" cy="221" r="1" style="fill:#ffffff" />
<circle cx="372" cy="223" r="1" style="fill:#ffffff" />
<circle cx="367" cy="225" r="1" style="fill:#ffffff" />
<circle cx="361" cy="227" r="1" style="fill:#ffffff" />
<circle cx="356" cy="227" r="1" style="fill:#ffffff" />
<circle cx="351" cy="228" r="1" style="fill:#ffffff" />
<circle cx="346" cy="227" r="1" style="fill:#ffffff" />
<circle cx="341" cy="227" r="1" style="fill:#ffffff" />
<circle cx="335" cy="225" r="1" style="fill:#ffffff" />
<circle cx="330" cy="223" r="1" style="fill:#ffffff" />
<circle cx="325" cy="221" r="1" style="fill:#ffffff" />
<circle cx="320" cy="218" r="1" style="fill:#ffffff" />
<circle cx="316" cy="215" r="1" style="fill:#ffffff" />
<circle cx="312" cy="211" r="1" style="fill:#ffffff" />
<circle cx="308" cy="207" r="1" style="fill:#ffffff" />
<circle cx="305" cy="203" r="1" style="fill:#ffffff" />
<circle cx="302" cy="198" r="1" style="fill:#ffffff" />
<circle cx="300" cy="193" r="1" style="fill:#ffffff" />
<circle cx="298" cy="188" r="1" style="fill:#ffffff" />
<circle cx="296" cy="182" r="1" style="fill:#ffffff" />
<circle cx="296" cy="177" r="1" style="fill:#ffffff" />
<circle cx="295" cy="172" r="1" style="fill:#ffffff" />
<circle cx="296" cy="167" r="1" style="fill:#ffffff" />
<circle cx="296" cy="162" r="1" style="fill:#ffffff" />
<circle cx="298" cy="156" r="1" style="fill:#ffffff" />
<circle cx="300" cy="151" r="1" style="fill:#ffffff" />
<circle cx="302" cy="146" r="1" style="fill:#ffffff" />
<circle cx="305" cy="141" r="1" style="fill:#ffffff" />
<circle cx="308" cy="137" r="1" style="fill:#ffffff" />
<circle cx="312" cy="133" r="1" style="fill:#ffffff" />
<circle cx="316" cy="129" r="1" style="fill:#ffffff" />
<circle cx="320" cy="126" r="1" style="fill:#ffffff" />
<circle cx="325" cy="123" r="1" style="fill:#ffffff" />
<circle cx="330" cy="121" r="1" style="fill:#ffffff" />
<circle cx="335" cy="119" r="1" style="fill:#ffffff" />
<circle cx="341" cy="117" r="1" style="fill:#ffffff" />
<circle cx="346" cy="117" r="1" style="fill:#ffffff" />
<circle cx="446" cy="107" r="1" style="fill:#ffffff" />
<circle cx="450" cy="110" r="1" style="fill:#ffffff" />
<circle cx="448" cy="114" r="1" style="fill:#ffffff" />
<circle cx="444" cy="114" r="1" style="fill:#ffffff" />
<circle cx="442" cy="110" r="1" style="fill:#ffffff" />
<circle cx="448" cy="286" r="1" style="fill:#ffffff" />
<circle cx="453" cy="287" r="1" style="fill:#ffffff" />
<circle cx="456" cy="291" r="1" style="fill:#ffffff" />
<circle cx="457" cy="296" r="1" style="fill:#ffffff" />
<circle cx="455" cy="301" r="1" style="fill:#ffffff" />
<circle cx="450" cy="304" r="1" style="fill:#ffffff" />
<circle cx="446" cy="304" r="1" style="fill:#ffffff" />
<circle cx="441" cy="301" r="1" style="fill:#ffffff" />
<circle cx="439" cy="296" r="1" style="fill:#ffffff" />
<circle cx="440" cy="291" r="1" style="fill:#ffffff" />
<circle cx="443" cy="287" r="1" style="fill:#ffffff" />
<circle cx="396" cy="331" r="1" style="fill:#ffffff" />
<circle cx="401" cy="332" r="1" style="fill:#ffffff" />
<circle cx="406" cy="333" r="1" style="fill:#ffffff" />
<circle cx="411" cy="336" r="1" style="fill:#ffffff" />
<circle cx="415" cy="340" r="1" style="fill:#ffffff" />
<circle cx="418" cy="345" r="1" style="fill:#ffffff" />
<circle cx="420" cy="350" r="1" style="fill:#ffffff" />
<circle cx="421" cy="355" r="1" style="fill:#ffffff" />
<circle cx="421" cy="360" r="1" style="fill:#ffffff" />
<circle cx="419" cy="365" r="1" style="fill:#ffffff" />
<circle cx="417" cy="370" r="1" style="fill:#ffffff" />
<circle cx="413" cy="374" r="1" style="fill:#ffffff" />
<circle cx="409" cy="377" r="1" style="fill:#ffffff" />
<circle cx="404" cy="380" r="1" style="fill:#ffffff" />
<circle cx="398" cy="381" r="1" style="fill:#ffffff" />
<circle cx="394" cy="381" r="1" style="fill:#ffffff" />
<circle cx="388" cy="380" r="1" style="fill:#ffffff" />
<circle cx="383" cy="377" r="1" style="fill:#ffffff" />
<circle cx="379" cy="374" r="1" style="fill:#ffffff" />
<circle cx="375" cy="370" r="1" style="fill:#ffffff" />
<circle cx="373" cy="365" r="1" style="fill:#ffffff" />
<circle cx="371" cy="360" r="1" style="fill:#ffffff" />
<circle cx="371" cy="355" r="1" style="fill:#ffffff" />
<circle cx="372" cy="350" r="1" style="fill:#ffffff" />
<circle cx="374" cy="345" r="1" style="fill:#ffffff" />
<circle cx="377" cy="340" r="1" style="fill:#ffffff" />
<circle cx="381" cy="336" r="1" style="fill:#ffffff" />
<circle cx="386" cy="333" r="1" style="fill:#ffffff" />
<circle cx="391" cy="332" r="1" style="fill:#ffffff" />
<circle cx="267" cy="367" r="1" style="fill:#ffffff" />
<circle cx="272" cy="368" r="1" style="fill:#ffffff" />
<circle cx="276" cy="372" r="1" style="fill:#ffffff" />
<circle cx="278" cy="377" r="1" style="fill:#ffffff" />
<circle cx="277" cy="382" r="1" style="fill:#ffffff" />
<circle cx="274" cy="386" r="1" style="fill:#ffffff" />
<circle cx="269" cy="389" r="1" style="fill:#ffffff" />
<circle cx="265" cy="389" r="1" style="fill:#ffffff" />
<circle cx="260" cy="386" r="1" style="fill:#ffffff" />
<circle cx="257" cy="382" r="1" style="fill:#ffffff" />
<circle cx="256" cy="377" r="1" style="fill:#ffffff" />
<circle cx="258" cy="372" r="1" style="fill:#ffffff" />
<circle cx="262" cy="368" r="1" style="fill:#ffffff" />
<circle cx="115" cy="154" r="1" style="fill:#ffffff" />
<circle cx="120" cy="155" r="1" style="fill:#ffffff" />
<circle cx="126" cy="155" r="1" style="fill:#ffffff" />
<circle cx="131" cy="156" r="1" style="fill:#ffffff" />
<circle cx="136" cy="157" r="1" style="fill:#ffffff" />
<circle cx="142" cy="158" r="1" style="fill:#ffffff" />
<circle cx="147" cy="160" r="1" style="fill:#ffffff" />
<circle cx="152" cy="162" r="1" style="fill:#ffffff" />
<circle cx="157" cy="165" r="1" style="fill:#ffffff" />
<circle cx="162" cy="167" r="1" style="fill:#ffffff" />
<circle cx="167" cy="170" r="1" style="fill:#ffffff" />
<circle cx="171" cy="173" r="1" style="fill:#ffffff" />
<circle cx="175" cy="177" r="1" style="fill:#ffffff" />
<circle cx="180" cy="181" r="1" style="fill:#ffffff" />
<circle cx="183" cy="184" r="1" style="fill:#ffffff" />
<circle cx="187" cy="189" r="1" style="fill:#ffffff" />
<circle cx="190" cy="193" r="1" style="fill:#ffffff" />
<circle cx="194" cy="198" r="1" style="fill:#ffffff" />
<circle cx="196" cy="202" r="1" style="fill:#ffffff" />
<circle cx="199" cy="207" r="1" style="fill:#ffffff" />
<circle cx="201" cy="212" r="1" style="fill:#ffffff" />
<circle cx="203" cy="217" r="1" style="fill:#ffffff" />
<circle cx="205" cy="223" r="1" style="fill:#ffffff" />
<circle cx="206" cy="228" r="1" style="fill:#ffffff" />
<circle cx="207" cy="233" r="1" style="fill:#ffffff" />
<circle cx="208" cy="239" r="1" style="fill:#ffffff" />
<circle cx="208" cy="244" r="1" style="fill:#ffffff" />
<circle cx="209" cy="249" r="1" style="fill:#ffffff" />
<circle cx="208" cy="254" r="1" style="fill:#ffffff" />
<circle cx="208" cy="260" r="1" style="fill:#ffffff" />
<circle cx="207" cy="265" r="1" style="fill:#ffffff" />
<circle cx="206" cy="271" r="1" style="fill:#ffffff" />
<circle cx="204" cy="276" r="1" style="fill:#ffffff" />
<circle cx="202" cy="281" r="1" style="fill:#ffffff" />
<circle cx="200" cy="286" r="1" style="fill:#ffffff" />
<circle cx="198" cy="291" r="1" style="fill:#ffffff" />
<circle cx="195" cy="296" r="1" style="fill:#ffffff" />
<circle cx="192" cy="301" r="1" style="fill:#ffffff" />
<circle cx="189" cy="305" r="1" style="fill:#ffffff" />
<circle cx="185" cy="309" r="1" style="fill:#ffffff" />
<circle cx="181" cy="314" r="1" style="fill:#ffffff" />
<circle cx="177" cy="317" r="1" style="fill:#ffffff" />
<circle cx="173" cy="321" r="1" style="fill:#ffffff" />
<circle cx="169" cy="324" r="1" style="fill:#ffffff" />
<circle cx="164" cy="327" r="1" style="fill:#ffffff" />
<circle cx="160" cy="330" r="1" style="fill:#ffffff" />
<circle cx="155" cy="333" r="1" style="fill:#ffffff" />
<circle cx="150" cy="335" r="1" style="fill:#ffffff" />
<circle cx="144" cy="337" r="1" style="fill:#ffffff" />
<circle cx="139" cy="338" r="1" style="fill:#ffffff" />
<circle cx="134" cy="340" r="1" style="fill:#ffffff" />
<circle cx="128" cy="341" r="1" style="fill:#ffffff" />
<circle cx="123" cy="341" r="1" style="fill:#ffffff" />
<circle cx="117" cy="342" r="1" style="fill:#ffffff" />
<circle cx="113" cy="342" r="1" style="fill:#ffffff" />
<circle cx="107" cy="341" r="1" style="fill:#ffffff" />
<circle cx="102" cy="341" r="1" style="fill:#ffffff" />
<circle cx="96" cy="340" r="1" style="fill:#ffffff" />
<circle cx="91" cy="338" r="1" style="fill:#ffffff" />
<circle cx="86" cy="337" r="1" style="fill:#ffffff" />
<circle cx="80" cy="335" r="1" style="fill:#ffffff" />
<circle cx="75" cy="333" r="1" style="fill:#ffffff" />
<circle cx="70" cy="330" r="1" style="fill:#ffffff" />
<circle cx="66" cy="327" r="1" style="fill:#ffffff" />
<circle cx="61" cy="324" r="1" style="fill:#ffffff" />
<circle cx="57" cy="321" r="1" style="fill:#ffffff" />
<circle cx="53" cy="317" r="1" style="fill:#ffffff" />
<circle cx="49" cy="314" r="1" style="fill:#ffffff" />
<circle cx="45" cy="309" r="1" style="fill:#ffffff" />
<circle cx="41" cy="305" r="1" style="fill:#ffffff" />
<circle cx="38" cy="301" r="1" style="fill:#ffffff" />
<circle cx="35" cy="296" r="1" style="fill:#ffffff" />
<circle cx="32" cy="291" r="1" style="fill:#ffffff" />
<circle cx="30" cy="286" r="1" style="fill:#ffffff" />
<circle cx="28" cy="281" r="1" style="fill:#ffffff" />
<circle cx="26" cy="276" r="1" style="fill:#ffffff" />
<circle cx="24" cy="271" r="1" style="fill:#ffffff" />
<circle cx="23" cy="265" r="1" style="fill:#ffffff" />
<circle cx="22" cy="260" r="1" style="fill:#ffffff" />
<circle cx="22" cy="254" r="1" style="fill:#ffffff" />
<circle cx="21" cy="249" r="1" style="fill:#ffffff" />
<circle cx="22" cy="244" r="1" style="fill:#ffffff" />
<circle cx="22" cy="239" r="1" style="fill:#ffffff" />
<circle cx="23" cy="233" r="1" style="fill:#ffffff" />
<circle cx="24" cy="228" r="1" style="fill:#ffffff" />
<circle cx="25" cy="223" r="1" style="fill:#ffffff" />
<circle cx="27" cy="217" r="1" style="fill:#ffffff" />
<circle cx="29" cy="212" r="1" style="fill:#ffffff" />
<circle cx="31" cy="207" r="1" style="fill:#ffffff" />
<circle cx="34" cy="202" r="1" style="fill:#ffffff" />
<circle cx="36" cy="198" r="1" style="fill:#ffffff" />
<circle cx="40" cy="193" r="1" style="fill:#ffffff" />
<circle cx="43" cy="189" r="1" style="fill:#ffffff" />
<circle cx="47" cy="184" r="1" style="fill:#ffffff" />
<circle cx="50" cy="181" r="1" style="fill:#ffffff" />
<circle cx="55" cy="177" r="1" style="fill:#ffffff" />
<circle cx="59" cy="173" r="1" style="fill:#ffffff" />
<circle cx="63" cy="170" r="1" style="fill:#ffffff" />
<circle cx="68" cy="167" r="1" style="fill:#ffffff" />
<circle cx="73" cy="165" r="1" style="fill:#ffffff" />
<circle cx="78" cy="162" r="1" style="fill:#ffffff" />
<circle cx="83" cy="160" r="1" style="fill:#ffffff" />
<circle cx="88" cy="158" r="1" style="fill:#ffffff" />
<circle cx="94" cy="157" r="1" style="fill:#ffffff" />
<circle cx="99" cy="156" r="1" style="fill:#ffffff" />
<circle cx="104" cy="155" r="1" style="fill:#ffffff" />
<circle cx="110" cy="155" r="1" style="fill:#ffffff" />
</g>
<g font-size="10.000000" stroke="none">
<text x="170" y="105">oovBuilder</text>
<text x="376" y="69">oovCMaker</text>
<text x="351" y="253">oovCommon</text>
<text x="448" y="139">oovCovInstr</text>
<text x="450" y="329">oovCppParser</text>
<text x="398" y="406">oovEdit</text>
<text x="191" y="414">oovGuiCommon</text>
<text x="82" y="367">oovcde</text>
</g>
</svg>