<svg xmlns="http://www.w3.org/2000/svg" version="1.1" width="497" height="354">
<g  fill="#f5f5ff" stroke="rgb(0,0,0)" style="stroke-width:1">
<rect x="56" y="210" width="133" height="143" />
<line x1="56" y1="223" x2="189" y2="223" />
<polygon points="169,231 181,236 181,226 169,231 " style="fill:#ffffff" />
<polygon points="169,245 176,249 183,245 176,241 169,245 " style="fill:#ffffff" />
<polygon points="169,259 176,263 183,259 176,255 169,259 " style="fill:#000000" />
<polygon points="169,273 177,278 173,273 177,268 169,273 " style="fill:#ffffff" />
<circle cx="169" cy="287" r="5" style="fill:#ffffff" />
<circle cx="169" cy="301" r="5" style="fill:#ffffff" />
<circle cx="176" cy="301" r="2" style="fill:#ffffff" />
<circle cx="169" cy="315" r="5" style="fill:#ffffff" />
<circle cx="169" cy="315" r="2" style="fill:#ffffff" />
<circle cx="169" cy="329" r="5" style="fill:#ffffff" />
<circle cx="169" cy="329" r="2" style="fill:#000000" />
<circle cx="169" cy="343" r="5" style="fill:#000000" />
<circle cx="169" cy="343" r="2" style="fill:#000000" />
</g>
<g font-size="10.000000">
<text x="57" y="219">Relations Key</text>
<text x="57" y="233">Generalization</text>
<text x="57" y="247">Aggregation(reference)</text>
<text x="57" y="261">Composition(owned)</text>
<text x="57" y="275">Const</text>
<text x="57" y="289">Method Variable</text>
<text x="57" y="303">Method Parameter</text>
<text x="57" y="317">Public</text>
<text x="57" y="331">Protected</text>
<text x="57" y="345">Private</text>
</g>
<g  fill="#f5f5ff" stroke="rgb(0,0,0)" style="stroke-width:1">
<rect x="53" y="31" width="144" height="134" />
<line x1="53" y1="52" x2="197" y2="52" />
<line x1="53" y1="91" x2="197" y2="91" />
</g>
<g font-size="10.000000">
<text x="54" y="40">llvm::SrcLineInfo</text>
<text x="54" y="49">/AsmPrinter/</text>
<text x="54" y="61">-unsigned int Line</text>
<text x="54" y="70">-unsigned int Column</text>
<text x="54" y="79">-unsigned int SourceID</text>
<text x="54" y="88">-llvm::MCSymbol Label</text>
<text x="54" y="100">+SrcLineInfo(unsigned int </text>
<text x="54" y="109">   L, unsigned int C, unsigned </text>
<text x="54" y="118">   int S, llvm::MCSymbol </text>
<text x="54" y="127">   label)</text>
<text x="54" y="136">+getLine()</text>
<text x="54" y="145">+getColumn()</text>
<text x="54" y="154">+getSourceID()</text>
<text x="54" y="163">+getLabel()</text>
</g>
<g  fill="#f5f5ff" stroke="rgb(0,0,0)" style="stroke-width:1">
<rect x="242" y="30" width="254" height="323" />
<line x1="242" y1="51" x2="496" y2="51" />
<line x1="242" y1="162" x2="496" y2="162" />
</g>
<g font-size="10.000000">
<text x="243" y="39">llvm::MCSymbol</text>
<text x="243" y="48">/MC/</text>
<text x="243" y="60">+llvm::MCSection AbsolutePseudoSection</text>
<text x="243" y="69">+llvm::StringRef Name</text>
<text x="243" y="78">+llvm::MCSection Section</text>
<text x="243" y="87">+llvm::MCExpr Value</text>
<text x="243" y="96">+unsigned int IsTemporary</text>
<text x="243" y="105">+unsigned int IsUsed</text>
<text x="243" y="114">+llvm::MCSection AbsolutePseudoSection</text>
<text x="243" y="123">+llvm::StringRef Name</text>
<text x="243" y="132">+llvm::MCSection Section</text>
<text x="243" y="141">+llvm::MCExpr Value</text>
<text x="243" y="150">+unsigned int IsTemporary</text>
<text x="243" y="159">+unsigned int IsUsed</text>
<text x="243" y="171">-MCSymbol(llvm::StringRef name, bool isTemporary)</text>
<text x="243" y="180">-MCSymbol(llvm::MCSymbol )</text>
<text x="243" y="189">-operator=(llvm::MCSymbol )</text>
<text x="243" y="198">+getName()</text>
<text x="243" y="207">+isTemporary()</text>
<text x="243" y="216">+isUsed()</text>
<text x="243" y="225">+setUsed(bool Value)</text>
<text x="243" y="234">+isDefined()</text>
<text x="243" y="243">+isInSection()</text>
<text x="243" y="252">+isUndefined()</text>
<text x="243" y="261">+isAbsolute()</text>
<text x="243" y="270">+getSection()</text>
<text x="243" y="279">+setSection(llvm::MCSection S)</text>
<text x="243" y="288">+setUndefined()</text>
<text x="243" y="297">+setAbsolute()</text>
<text x="243" y="306">+isVariable()</text>
<text x="243" y="315">+getVariableValue()</text>
<text x="243" y="324">+AliasedSymbol()</text>
<text x="243" y="333">+setVariableValue(llvm::MCExpr Value)</text>
<text x="243" y="342">+print(llvm::raw_ostream OS)</text>
<text x="243" y="351">+dump()</text>
</g>
<g  fill="#f5f5ff" stroke="rgb(0,0,0)" style="stroke-width:1">
<line x1="197" y1="125" x2="242" y2="143" />
<circle cx="209" cy="130" r="5" style="fill:#ffffff" />
<circle cx="224" cy="136" r="5" style="fill:#000000" />
<circle cx="224" cy="136" r="2" style="fill:#000000" />
<polygon points="197,125 202,132 209,130 205,124 197,125 " style="fill:#ffffff" />
</g>
</svg>