<svg xmlns="http://www.w3.org/2000/svg" version="1.1" width="937" height="792">
<g  fill="#f5f5ff" stroke="#000000" style="stroke-width:1">
<line x1="457" y1="47" x2="457" y2="25" />
<line x1="479" y1="732" x2="481" y2="753" />
<line x1="417" y1="729" x2="414" y2="751" />
<line x1="338" y1="709" x2="330" y2="730" />
<line x1="121" y1="351" x2="99" y2="349" />
<line x1="176" y1="200" x2="158" y2="188" />
<line x1="360" y1="63" x2="353" y2="42" />
<line x1="377" y1="58" x2="371" y2="36" />
</g>
<g  fill="#f5f5ff" stroke="#ffb300" style="stroke-width:1">
<line x1="488" y1="54" x2="787" y2="478" />
<line x1="488" y1="54" x2="496" y2="62" />
<line x1="488" y1="54" x2="493" y2="64" />
<line x1="497" y1="55" x2="404" y2="721" />
<line x1="497" y1="55" x2="497" y2="66" />
<line x1="497" y1="55" x2="494" y2="66" />
<line x1="498" y1="54" x2="522" y2="58" />
<line x1="498" y1="54" x2="509" y2="54" />
<line x1="498" y1="54" x2="509" y2="58" />
<line x1="498" y1="54" x2="531" y2="59" />
<line x1="498" y1="54" x2="509" y2="54" />
<line x1="498" y1="54" x2="509" y2="57" />
<line x1="498" y1="54" x2="540" y2="61" />
<line x1="498" y1="54" x2="509" y2="54" />
<line x1="498" y1="54" x2="509" y2="58" />
<line x1="496" y1="54" x2="427" y2="54" />
<line x1="496" y1="54" x2="485" y2="56" />
<line x1="496" y1="54" x2="485" y2="52" />
<line x1="497" y1="55" x2="134" y2="470" />
<line x1="497" y1="55" x2="491" y2="65" />
<line x1="497" y1="55" x2="488" y2="62" />
<line x1="496" y1="54" x2="134" y2="313" />
<line x1="496" y1="54" x2="488" y2="62" />
<line x1="496" y1="54" x2="486" y2="59" />
<line x1="497" y1="55" x2="678" y2="647" />
<line x1="497" y1="55" x2="502" y2="65" />
<line x1="497" y1="55" x2="498" y2="66" />
<line x1="498" y1="54" x2="793" y2="330" />
<line x1="498" y1="54" x2="508" y2="60" />
<line x1="498" y1="54" x2="505" y2="63" />
<line x1="522" y1="58" x2="507" y2="55" />
<line x1="522" y1="58" x2="511" y2="58" />
<line x1="522" y1="58" x2="511" y2="54" />
<line x1="522" y1="58" x2="516" y2="56" />
<line x1="522" y1="58" x2="511" y2="57" />
<line x1="522" y1="58" x2="512" y2="53" />
<line x1="576" y1="72" x2="645" y2="107" />
<line x1="576" y1="72" x2="587" y2="75" />
<line x1="576" y1="72" x2="585" y2="79" />
<line x1="575" y1="73" x2="784" y2="487" />
<line x1="575" y1="73" x2="582" y2="82" />
<line x1="575" y1="73" x2="578" y2="84" />
<line x1="582" y1="75" x2="576" y2="72" />
<line x1="582" y1="75" x2="571" y2="72" />
<line x1="582" y1="75" x2="573" y2="68" />
<line x1="584" y1="75" x2="630" y2="98" />
<line x1="584" y1="75" x2="595" y2="78" />
<line x1="584" y1="75" x2="593" y2="82" />
<line x1="653" y1="113" x2="787" y2="478" />
<line x1="653" y1="113" x2="659" y2="123" />
<line x1="653" y1="113" x2="655" y2="124" />
<line x1="668" y1="123" x2="797" y2="426" />
<line x1="668" y1="123" x2="674" y2="132" />
<line x1="668" y1="123" x2="670" y2="134" />
<line x1="674" y1="128" x2="366" y2="66" />
<line x1="674" y1="128" x2="663" y2="128" />
<line x1="674" y1="128" x2="663" y2="124" />
<line x1="681" y1="135" x2="750" y2="213" />
<line x1="681" y1="135" x2="690" y2="142" />
<line x1="681" y1="135" x2="687" y2="145" />
<line x1="708" y1="159" x2="713" y2="164" />
<line x1="708" y1="159" x2="717" y2="165" />
<line x1="708" y1="159" x2="714" y2="168" />
<line x1="707" y1="159" x2="740" y2="198" />
<line x1="707" y1="159" x2="716" y2="166" />
<line x1="707" y1="159" x2="712" y2="169" />
<line x1="739" y1="199" x2="125" y2="401" />
<line x1="739" y1="199" x2="729" y2="204" />
<line x1="739" y1="199" x2="728" y2="200" />
<line x1="739" y1="199" x2="145" y2="505" />
<line x1="739" y1="199" x2="730" y2="206" />
<line x1="739" y1="199" x2="728" y2="202" />
<line x1="745" y1="206" x2="713" y2="166" />
<line x1="745" y1="206" x2="736" y2="199" />
<line x1="745" y1="206" x2="740" y2="196" />
<line x1="766" y1="246" x2="161" y2="238" />
<line x1="766" y1="246" x2="755" y2="248" />
<line x1="766" y1="246" x2="755" y2="244" />
<line x1="795" y1="340" x2="797" y2="426" />
<line x1="795" y1="340" x2="797" y2="351" />
<line x1="795" y1="340" x2="794" y2="351" />
<line x1="797" y1="355" x2="794" y2="331" />
<line x1="797" y1="355" x2="794" y2="344" />
<line x1="797" y1="355" x2="797" y2="344" />
<line x1="796" y1="356" x2="135" y2="471" />
<line x1="796" y1="356" x2="785" y2="360" />
<line x1="796" y1="356" x2="785" y2="356" />
<line x1="796" y1="356" x2="341" y2="75" />
<line x1="796" y1="356" x2="785" y2="352" />
<line x1="796" y1="356" x2="788" y2="348" />
<line x1="797" y1="355" x2="795" y2="340" />
<line x1="797" y1="355" x2="794" y2="344" />
<line x1="797" y1="355" x2="797" y2="344" />
<line x1="799" y1="402" x2="787" y2="478" />
<line x1="799" y1="402" x2="799" y2="413" />
<line x1="799" y1="402" x2="795" y2="413" />
<line x1="797" y1="428" x2="796" y2="435" />
<line x1="797" y1="428" x2="797" y2="439" />
<line x1="797" y1="428" x2="794" y2="439" />
<line x1="793" y1="452" x2="763" y2="239" />
<line x1="793" y1="452" x2="790" y2="441" />
<line x1="793" y1="452" x2="793" y2="441" />
<line x1="792" y1="453" x2="144" y2="278" />
<line x1="792" y1="453" x2="781" y2="453" />
<line x1="792" y1="453" x2="782" y2="448" />
<line x1="793" y1="454" x2="562" y2="711" />
<line x1="793" y1="454" x2="787" y2="464" />
<line x1="793" y1="454" x2="784" y2="461" />
<line x1="791" y1="461" x2="623" y2="94" />
<line x1="791" y1="461" x2="785" y2="452" />
<line x1="791" y1="461" x2="789" y2="450" />
<line x1="791" y1="463" x2="789" y2="470" />
<line x1="791" y1="463" x2="790" y2="474" />
<line x1="791" y1="463" x2="786" y2="473" />
<line x1="791" y1="461" x2="793" y2="454" />
<line x1="791" y1="461" x2="792" y2="450" />
<line x1="791" y1="461" x2="796" y2="451" />
<line x1="790" y1="462" x2="165" y2="230" />
<line x1="790" y1="462" x2="779" y2="460" />
<line x1="790" y1="462" x2="780" y2="456" />
<line x1="789" y1="470" x2="558" y2="67" />
<line x1="789" y1="470" x2="782" y2="461" />
<line x1="789" y1="470" x2="786" y2="459" />
<line x1="789" y1="470" x2="615" y2="90" />
<line x1="789" y1="470" x2="783" y2="461" />
<line x1="789" y1="470" x2="787" y2="459" />
<line x1="789" y1="470" x2="583" y2="76" />
<line x1="789" y1="470" x2="782" y2="461" />
<line x1="789" y1="470" x2="786" y2="459" />
<line x1="789" y1="470" x2="599" y2="82" />
<line x1="789" y1="470" x2="782" y2="461" />
<line x1="789" y1="470" x2="786" y2="459" />
<line x1="789" y1="470" x2="639" y2="103" />
<line x1="789" y1="470" x2="783" y2="460" />
<line x1="789" y1="470" x2="787" y2="459" />
<line x1="789" y1="470" x2="767" y2="247" />
<line x1="789" y1="470" x2="786" y2="459" />
<line x1="789" y1="470" x2="790" y2="459" />
<line x1="789" y1="470" x2="591" y2="79" />
<line x1="789" y1="470" x2="782" y2="461" />
<line x1="789" y1="470" x2="786" y2="459" />
<line x1="789" y1="470" x2="566" y2="70" />
<line x1="789" y1="470" x2="782" y2="461" />
<line x1="789" y1="470" x2="786" y2="459" />
<line x1="787" y1="478" x2="793" y2="454" />
<line x1="787" y1="478" x2="787" y2="467" />
<line x1="787" y1="478" x2="791" y2="468" />
<line x1="787" y1="478" x2="549" y2="65" />
<line x1="787" y1="478" x2="780" y2="469" />
<line x1="787" y1="478" x2="784" y2="467" />
<line x1="786" y1="479" x2="129" y2="339" />
<line x1="786" y1="479" x2="775" y2="479" />
<line x1="786" y1="479" x2="775" y2="475" />
<line x1="783" y1="488" x2="129" y2="339" />
<line x1="783" y1="488" x2="772" y2="488" />
<line x1="783" y1="488" x2="772" y2="484" />
<line x1="782" y1="495" x2="797" y2="428" />
<line x1="782" y1="495" x2="782" y2="484" />
<line x1="782" y1="495" x2="786" y2="484" />
<line x1="782" y1="495" x2="357" y2="70" />
<line x1="782" y1="495" x2="773" y2="489" />
<line x1="782" y1="495" x2="776" y2="486" />
<line x1="779" y1="504" x2="798" y2="410" />
<line x1="779" y1="504" x2="779" y2="493" />
<line x1="779" y1="504" x2="783" y2="493" />
<line x1="779" y1="504" x2="787" y2="480" />
<line x1="779" y1="504" x2="780" y2="493" />
<line x1="779" y1="504" x2="784" y2="494" />
<line x1="778" y1="505" x2="157" y2="246" />
<line x1="778" y1="505" x2="767" y2="503" />
<line x1="778" y1="505" x2="768" y2="499" />
<line x1="778" y1="505" x2="128" y2="347" />
<line x1="778" y1="505" x2="767" y2="505" />
<line x1="778" y1="505" x2="768" y2="501" />
<line x1="776" y1="514" x2="765" y2="536" />
<line x1="776" y1="514" x2="773" y2="525" />
<line x1="776" y1="514" x2="769" y2="523" />
<line x1="772" y1="522" x2="765" y2="536" />
<line x1="772" y1="522" x2="769" y2="533" />
<line x1="772" y1="522" x2="765" y2="531" />
<line x1="769" y1="530" x2="757" y2="552" />
<line x1="769" y1="530" x2="766" y2="541" />
<line x1="769" y1="530" x2="762" y2="539" />
<line x1="765" y1="536" x2="340" y2="76" />
<line x1="765" y1="536" x2="756" y2="529" />
<line x1="765" y1="536" x2="759" y2="526" />
<line x1="765" y1="538" x2="757" y2="552" />
<line x1="765" y1="538" x2="762" y2="549" />
<line x1="765" y1="538" x2="758" y2="547" />
<line x1="765" y1="536" x2="794" y2="331" />
<line x1="765" y1="536" x2="765" y2="525" />
<line x1="765" y1="536" x2="768" y2="525" />
<line x1="761" y1="546" x2="757" y2="552" />
<line x1="761" y1="546" x2="757" y2="557" />
<line x1="761" y1="546" x2="753" y2="554" />
<line x1="752" y1="560" x2="757" y2="554" />
<line x1="752" y1="560" x2="757" y2="550" />
<line x1="752" y1="560" x2="761" y2="553" />
<line x1="709" y1="618" x2="658" y2="665" />
<line x1="709" y1="618" x2="702" y2="627" />
<line x1="709" y1="618" x2="699" y2="624" />
<line x1="709" y1="618" x2="125" y2="392" />
<line x1="709" y1="618" x2="698" y2="616" />
<line x1="709" y1="618" x2="699" y2="612" />
<line x1="709" y1="618" x2="313" y2="692" />
<line x1="709" y1="618" x2="698" y2="622" />
<line x1="709" y1="618" x2="698" y2="618" />
<line x1="709" y1="619" x2="692" y2="636" />
<line x1="709" y1="619" x2="703" y2="628" />
<line x1="709" y1="619" x2="700" y2="625" />
<line x1="709" y1="619" x2="699" y2="629" />
<line x1="709" y1="619" x2="703" y2="628" />
<line x1="709" y1="619" x2="700" y2="625" />
<line x1="709" y1="619" x2="705" y2="623" />
<line x1="709" y1="619" x2="703" y2="628" />
<line x1="709" y1="619" x2="700" y2="625" />
<line x1="710" y1="617" x2="791" y2="463" />
<line x1="710" y1="617" x2="713" y2="606" />
<line x1="710" y1="617" x2="717" y2="608" />
<line x1="710" y1="617" x2="794" y2="446" />
<line x1="710" y1="617" x2="713" y2="606" />
<line x1="710" y1="617" x2="717" y2="608" />
<line x1="709" y1="618" x2="145" y2="505" />
<line x1="709" y1="618" x2="698" y2="618" />
<line x1="709" y1="618" x2="698" y2="614" />
<line x1="684" y1="643" x2="672" y2="654" />
<line x1="684" y1="643" x2="677" y2="652" />
<line x1="684" y1="643" x2="674" y2="649" />
<line x1="684" y1="643" x2="665" y2="659" />
<line x1="684" y1="643" x2="677" y2="652" />
<line x1="684" y1="643" x2="674" y2="648" />
<line x1="677" y1="648" x2="604" y2="696" />
<line x1="677" y1="648" x2="669" y2="656" />
<line x1="677" y1="648" x2="666" y2="652" />
<line x1="656" y1="665" x2="127" y2="427" />
<line x1="656" y1="665" x2="645" y2="663" />
<line x1="656" y1="665" x2="647" y2="659" />
<line x1="656" y1="665" x2="145" y2="505" />
<line x1="656" y1="665" x2="645" y2="664" />
<line x1="656" y1="665" x2="646" y2="660" />
<line x1="656" y1="665" x2="126" y2="418" />
<line x1="656" y1="665" x2="645" y2="662" />
<line x1="656" y1="665" x2="647" y2="659" />
<line x1="656" y1="665" x2="260" y2="659" />
<line x1="656" y1="665" x2="645" y2="667" />
<line x1="656" y1="665" x2="645" y2="663" />
<line x1="656" y1="665" x2="233" y2="637" />
<line x1="656" y1="665" x2="645" y2="666" />
<line x1="656" y1="665" x2="645" y2="663" />
<line x1="656" y1="665" x2="125" y2="392" />
<line x1="656" y1="665" x2="645" y2="662" />
<line x1="656" y1="665" x2="647" y2="658" />
<line x1="656" y1="665" x2="131" y2="453" />
<line x1="656" y1="665" x2="645" y2="663" />
<line x1="656" y1="665" x2="646" y2="659" />
<line x1="656" y1="665" x2="136" y2="304" />
<line x1="656" y1="665" x2="646" y2="661" />
<line x1="656" y1="665" x2="648" y2="657" />
<line x1="656" y1="665" x2="141" y2="287" />
<line x1="656" y1="665" x2="646" y2="660" />
<line x1="656" y1="665" x2="648" y2="657" />
<line x1="656" y1="665" x2="135" y2="471" />
<line x1="656" y1="665" x2="645" y2="663" />
<line x1="656" y1="665" x2="646" y2="659" />
<line x1="656" y1="665" x2="167" y2="553" />
<line x1="656" y1="665" x2="645" y2="665" />
<line x1="656" y1="665" x2="645" y2="661" />
<line x1="656" y1="665" x2="163" y2="545" />
<line x1="656" y1="665" x2="645" y2="665" />
<line x1="656" y1="665" x2="646" y2="661" />
<line x1="656" y1="665" x2="155" y2="529" />
<line x1="656" y1="665" x2="645" y2="665" />
<line x1="656" y1="665" x2="646" y2="660" />
<line x1="656" y1="665" x2="152" y2="521" />
<line x1="656" y1="665" x2="645" y2="664" />
<line x1="656" y1="665" x2="646" y2="660" />
<line x1="656" y1="665" x2="148" y2="513" />
<line x1="656" y1="665" x2="645" y2="664" />
<line x1="656" y1="665" x2="646" y2="660" />
<line x1="657" y1="664" x2="695" y2="146" />
<line x1="657" y1="664" x2="656" y2="653" />
<line x1="657" y1="664" x2="660" y2="653" />
<line x1="657" y1="664" x2="725" y2="179" />
<line x1="657" y1="664" x2="657" y2="653" />
<line x1="657" y1="664" x2="660" y2="653" />
<line x1="657" y1="664" x2="707" y2="159" />
<line x1="657" y1="664" x2="656" y2="653" />
<line x1="657" y1="664" x2="660" y2="653" />
<line x1="657" y1="664" x2="750" y2="215" />
<line x1="657" y1="664" x2="657" y2="653" />
<line x1="657" y1="664" x2="661" y2="653" />
<line x1="657" y1="664" x2="767" y2="247" />
<line x1="657" y1="664" x2="657" y2="653" />
<line x1="657" y1="664" x2="662" y2="654" />
<line x1="656" y1="665" x2="546" y2="717" />
<line x1="656" y1="665" x2="647" y2="672" />
<line x1="656" y1="665" x2="645" y2="668" />
<line x1="658" y1="665" x2="703" y2="624" />
<line x1="658" y1="665" x2="665" y2="656" />
<line x1="658" y1="665" x2="668" y2="659" />
<line x1="657" y1="664" x2="701" y2="153" />
<line x1="657" y1="664" x2="656" y2="653" />
<line x1="657" y1="664" x2="660" y2="653" />
<line x1="658" y1="665" x2="697" y2="630" />
<line x1="658" y1="665" x2="665" y2="656" />
<line x1="658" y1="665" x2="668" y2="659" />
<line x1="658" y1="665" x2="677" y2="648" />
<line x1="658" y1="665" x2="665" y2="656" />
<line x1="658" y1="665" x2="668" y2="659" />
<line x1="657" y1="664" x2="623" y2="94" />
<line x1="657" y1="664" x2="655" y2="653" />
<line x1="657" y1="664" x2="658" y2="653" />
<line x1="656" y1="665" x2="563" y2="712" />
<line x1="656" y1="665" x2="647" y2="672" />
<line x1="656" y1="665" x2="645" y2="668" />
<line x1="656" y1="665" x2="596" y2="699" />
<line x1="656" y1="665" x2="647" y2="672" />
<line x1="656" y1="665" x2="645" y2="668" />
<line x1="657" y1="664" x2="607" y2="86" />
<line x1="657" y1="664" x2="654" y2="653" />
<line x1="657" y1="664" x2="658" y2="653" />
<line x1="657" y1="664" x2="470" y2="53" />
<line x1="657" y1="664" x2="652" y2="654" />
<line x1="657" y1="664" x2="656" y2="653" />
<line x1="650" y1="669" x2="783" y2="288" />
<line x1="650" y1="669" x2="651" y2="658" />
<line x1="650" y1="669" x2="655" y2="659" />
<line x1="650" y1="669" x2="782" y2="497" />
<line x1="650" y1="669" x2="655" y2="659" />
<line x1="650" y1="669" x2="658" y2="661" />
<line x1="641" y1="675" x2="379" y2="717" />
<line x1="641" y1="675" x2="630" y2="679" />
<line x1="641" y1="675" x2="630" y2="675" />
<line x1="626" y1="684" x2="371" y2="714" />
<line x1="626" y1="684" x2="615" y2="687" />
<line x1="626" y1="684" x2="615" y2="684" />
<line x1="612" y1="692" x2="641" y2="675" />
<line x1="612" y1="692" x2="621" y2="685" />
<line x1="612" y1="692" x2="623" y2="688" />
<line x1="552" y1="714" x2="246" y2="648" />
<line x1="552" y1="714" x2="541" y2="714" />
<line x1="552" y1="714" x2="541" y2="710" />
<line x1="553" y1="713" x2="470" y2="53" />
<line x1="553" y1="713" x2="550" y2="702" />
<line x1="553" y1="713" x2="553" y2="702" />
<line x1="553" y1="713" x2="558" y2="67" />
<line x1="553" y1="713" x2="551" y2="702" />
<line x1="553" y1="713" x2="555" y2="702" />
<line x1="553" y1="713" x2="591" y2="79" />
<line x1="553" y1="713" x2="552" y2="702" />
<line x1="553" y1="713" x2="555" y2="702" />
<line x1="553" y1="713" x2="599" y2="82" />
<line x1="553" y1="713" x2="552" y2="702" />
<line x1="553" y1="713" x2="556" y2="702" />
<line x1="553" y1="713" x2="639" y2="103" />
<line x1="553" y1="713" x2="553" y2="702" />
<line x1="553" y1="713" x2="556" y2="702" />
<line x1="553" y1="713" x2="767" y2="247" />
<line x1="553" y1="713" x2="555" y2="702" />
<line x1="553" y1="713" x2="559" y2="704" />
<line x1="553" y1="713" x2="770" y2="255" />
<line x1="553" y1="713" x2="556" y2="702" />
<line x1="553" y1="713" x2="560" y2="704" />
<line x1="553" y1="713" x2="774" y2="263" />
<line x1="553" y1="713" x2="556" y2="702" />
<line x1="553" y1="713" x2="560" y2="704" />
<line x1="553" y1="713" x2="777" y2="271" />
<line x1="553" y1="713" x2="556" y2="702" />
<line x1="553" y1="713" x2="560" y2="704" />
<line x1="553" y1="713" x2="780" y2="279" />
<line x1="553" y1="713" x2="556" y2="702" />
<line x1="553" y1="713" x2="560" y2="704" />
<line x1="553" y1="713" x2="786" y2="296" />
<line x1="553" y1="713" x2="556" y2="702" />
<line x1="553" y1="713" x2="560" y2="704" />
<line x1="554" y1="714" x2="677" y2="648" />
<line x1="554" y1="714" x2="563" y2="707" />
<line x1="554" y1="714" x2="565" y2="711" />
<line x1="554" y1="714" x2="656" y2="665" />
<line x1="554" y1="714" x2="563" y2="707" />
<line x1="554" y1="714" x2="565" y2="711" />
<line x1="537" y1="719" x2="709" y2="618" />
<line x1="537" y1="719" x2="546" y2="712" />
<line x1="537" y1="719" x2="548" y2="715" />
<line x1="527" y1="720" x2="128" y2="347" />
<line x1="527" y1="720" x2="517" y2="714" />
<line x1="527" y1="720" x2="520" y2="711" />
<line x1="493" y1="725" x2="316" y2="86" />
<line x1="493" y1="725" x2="488" y2="715" />
<line x1="493" y1="725" x2="492" y2="714" />
</g>
<g  fill="#f5f5ff" stroke="#803e75" style="stroke-width:1">
<line x1="456" y1="727" x2="440" y2="726" />
<line x1="456" y1="727" x2="445" y2="728" />
<line x1="456" y1="727" x2="445" y2="725" />
<line x1="457" y1="726" x2="348" y2="73" />
<line x1="457" y1="726" x2="453" y2="715" />
<line x1="457" y1="726" x2="457" y2="715" />
<line x1="449" y1="727" x2="456" y2="727" />
<line x1="449" y1="727" x2="460" y2="725" />
<line x1="449" y1="727" x2="460" y2="729" />
<line x1="449" y1="727" x2="474" y2="727" />
<line x1="449" y1="727" x2="460" y2="725" />
<line x1="449" y1="727" x2="460" y2="729" />
<line x1="439" y1="725" x2="348" y2="73" />
<line x1="439" y1="725" x2="436" y2="714" />
<line x1="439" y1="725" x2="439" y2="714" />
<line x1="431" y1="726" x2="438" y2="726" />
<line x1="431" y1="726" x2="442" y2="724" />
<line x1="431" y1="726" x2="442" y2="728" />
<line x1="423" y1="725" x2="429" y2="726" />
<line x1="423" y1="725" x2="434" y2="725" />
<line x1="423" y1="725" x2="434" y2="729" />
<line x1="422" y1="724" x2="324" y2="82" />
<line x1="422" y1="724" x2="419" y2="713" />
<line x1="422" y1="724" x2="422" y2="713" />
<line x1="422" y1="724" x2="332" y2="79" />
<line x1="422" y1="724" x2="419" y2="713" />
<line x1="422" y1="724" x2="422" y2="713" />
<line x1="423" y1="725" x2="447" y2="727" />
<line x1="423" y1="725" x2="434" y2="724" />
<line x1="423" y1="725" x2="434" y2="728" />
</g>
<g  fill="#f5f5ff" stroke="#ff6800" style="stroke-width:1">
<line x1="413" y1="722" x2="426" y2="55" />
<line x1="413" y1="722" x2="412" y2="711" />
<line x1="413" y1="722" x2="415" y2="711" />
<line x1="404" y1="721" x2="417" y2="56" />
<line x1="404" y1="721" x2="403" y2="710" />
<line x1="404" y1="721" x2="406" y2="710" />
<line x1="404" y1="721" x2="426" y2="55" />
<line x1="404" y1="721" x2="403" y2="710" />
<line x1="404" y1="721" x2="406" y2="710" />
<line x1="388" y1="719" x2="641" y2="675" />
<line x1="388" y1="719" x2="399" y2="715" />
<line x1="388" y1="719" x2="399" y2="719" />
<line x1="378" y1="716" x2="426" y2="55" />
<line x1="378" y1="716" x2="377" y2="705" />
<line x1="378" y1="716" x2="381" y2="705" />
<line x1="377" y1="717" x2="354" y2="709" />
<line x1="377" y1="717" x2="366" y2="716" />
<line x1="377" y1="717" x2="367" y2="712" />
<line x1="371" y1="714" x2="403" y2="722" />
<line x1="371" y1="714" x2="382" y2="714" />
<line x1="371" y1="714" x2="381" y2="718" />
<line x1="353" y1="708" x2="426" y2="55" />
<line x1="353" y1="708" x2="353" y2="697" />
<line x1="353" y1="708" x2="356" y2="697" />
<line x1="353" y1="708" x2="435" y2="54" />
<line x1="353" y1="708" x2="353" y2="697" />
<line x1="353" y1="708" x2="356" y2="697" />
<line x1="353" y1="708" x2="444" y2="53" />
<line x1="353" y1="708" x2="353" y2="697" />
<line x1="353" y1="708" x2="356" y2="697" />
<line x1="353" y1="708" x2="453" y2="53" />
<line x1="353" y1="708" x2="353" y2="697" />
<line x1="353" y1="708" x2="356" y2="697" />
<line x1="354" y1="709" x2="641" y2="675" />
<line x1="354" y1="709" x2="365" y2="706" />
<line x1="354" y1="709" x2="365" y2="709" />
</g>
<g  fill="#f5f5ff" stroke="#a6bdd7" style="stroke-width:1">
<line x1="328" y1="698" x2="144" y2="506" />
<line x1="328" y1="698" x2="319" y2="691" />
<line x1="328" y1="698" x2="322" y2="688" />
<line x1="304" y1="687" x2="126" y2="357" />
<line x1="304" y1="687" x2="297" y2="678" />
<line x1="304" y1="687" x2="301" y2="676" />
<line x1="304" y1="687" x2="124" y2="384" />
<line x1="304" y1="687" x2="297" y2="678" />
<line x1="304" y1="687" x2="300" y2="676" />
<line x1="304" y1="687" x2="144" y2="506" />
<line x1="304" y1="687" x2="295" y2="680" />
<line x1="304" y1="687" x2="298" y2="677" />
<line x1="274" y1="670" x2="280" y2="675" />
<line x1="274" y1="670" x2="284" y2="675" />
<line x1="274" y1="670" x2="281" y2="679" />
<line x1="274" y1="670" x2="287" y2="679" />
<line x1="274" y1="670" x2="284" y2="674" />
<line x1="274" y1="670" x2="282" y2="678" />
<line x1="252" y1="653" x2="124" y2="393" />
<line x1="252" y1="653" x2="245" y2="644" />
<line x1="252" y1="653" x2="249" y2="642" />
<line x1="195" y1="596" x2="190" y2="591" />
<line x1="195" y1="596" x2="186" y2="590" />
<line x1="195" y1="596" x2="189" y2="587" />
<line x1="191" y1="591" x2="265" y2="665" />
<line x1="191" y1="591" x2="200" y2="597" />
<line x1="191" y1="591" x2="197" y2="600" />
<line x1="190" y1="589" x2="124" y2="393" />
<line x1="190" y1="589" x2="185" y2="579" />
<line x1="190" y1="589" x2="189" y2="578" />
<line x1="190" y1="589" x2="124" y2="402" />
<line x1="190" y1="589" x2="185" y2="579" />
<line x1="190" y1="589" x2="189" y2="578" />
<line x1="190" y1="591" x2="238" y2="642" />
<line x1="190" y1="591" x2="199" y2="598" />
<line x1="190" y1="591" x2="196" y2="601" />
<line x1="190" y1="591" x2="225" y2="629" />
<line x1="190" y1="591" x2="199" y2="598" />
<line x1="190" y1="591" x2="196" y2="601" />
<line x1="190" y1="589" x2="129" y2="446" />
<line x1="190" y1="589" x2="184" y2="580" />
<line x1="190" y1="589" x2="188" y2="578" />
<line x1="185" y1="584" x2="201" y2="603" />
<line x1="185" y1="584" x2="194" y2="591" />
<line x1="185" y1="584" x2="190" y2="594" />
<line x1="185" y1="584" x2="213" y2="617" />
<line x1="185" y1="584" x2="194" y2="591" />
<line x1="185" y1="584" x2="190" y2="594" />
<line x1="185" y1="584" x2="219" y2="623" />
<line x1="185" y1="584" x2="194" y2="591" />
<line x1="185" y1="584" x2="191" y2="594" />
<line x1="185" y1="584" x2="225" y2="629" />
<line x1="185" y1="584" x2="194" y2="591" />
<line x1="185" y1="584" x2="191" y2="594" />
<line x1="185" y1="584" x2="259" y2="658" />
<line x1="185" y1="584" x2="194" y2="590" />
<line x1="185" y1="584" x2="191" y2="593" />
<line x1="185" y1="584" x2="232" y2="636" />
<line x1="185" y1="584" x2="194" y2="591" />
<line x1="185" y1="584" x2="191" y2="594" />
<line x1="185" y1="584" x2="238" y2="642" />
<line x1="185" y1="584" x2="194" y2="591" />
<line x1="185" y1="584" x2="191" y2="594" />
<line x1="185" y1="584" x2="245" y2="647" />
<line x1="185" y1="584" x2="194" y2="591" />
<line x1="185" y1="584" x2="191" y2="594" />
<line x1="185" y1="584" x2="252" y2="653" />
<line x1="185" y1="584" x2="194" y2="590" />
<line x1="185" y1="584" x2="191" y2="593" />
<line x1="186" y1="584" x2="266" y2="664" />
<line x1="186" y1="584" x2="195" y2="590" />
<line x1="186" y1="584" x2="192" y2="593" />
<line x1="181" y1="576" x2="287" y2="679" />
<line x1="181" y1="576" x2="190" y2="582" />
<line x1="181" y1="576" x2="187" y2="585" />
<line x1="171" y1="560" x2="144" y2="506" />
<line x1="171" y1="560" x2="164" y2="551" />
<line x1="171" y1="560" x2="168" y2="549" />
<line x1="158" y1="536" x2="144" y2="506" />
<line x1="158" y1="536" x2="152" y2="527" />
<line x1="158" y1="536" x2="155" y2="525" />
<line x1="144" y1="504" x2="124" y2="393" />
<line x1="144" y1="504" x2="140" y2="493" />
<line x1="144" y1="504" x2="144" y2="493" />
<line x1="144" y1="504" x2="129" y2="446" />
<line x1="144" y1="504" x2="139" y2="494" />
<line x1="144" y1="504" x2="144" y2="493" />
<line x1="134" y1="472" x2="281" y2="674" />
<line x1="134" y1="472" x2="142" y2="480" />
<line x1="134" y1="472" x2="139" y2="482" />
<line x1="134" y1="472" x2="180" y2="575" />
<line x1="134" y1="472" x2="140" y2="481" />
<line x1="134" y1="472" x2="136" y2="483" />
<line x1="134" y1="470" x2="124" y2="393" />
<line x1="134" y1="470" x2="131" y2="459" />
<line x1="134" y1="470" x2="134" y2="459" />
<line x1="134" y1="470" x2="124" y2="384" />
<line x1="134" y1="470" x2="131" y2="459" />
<line x1="134" y1="470" x2="134" y2="459" />
<line x1="134" y1="470" x2="126" y2="357" />
<line x1="134" y1="470" x2="131" y2="459" />
<line x1="134" y1="470" x2="135" y2="459" />
<line x1="134" y1="470" x2="132" y2="463" />
<line x1="134" y1="470" x2="129" y2="460" />
<line x1="134" y1="470" x2="133" y2="459" />
<line x1="134" y1="472" x2="144" y2="504" />
<line x1="134" y1="472" x2="139" y2="482" />
<line x1="134" y1="472" x2="135" y2="483" />
<line x1="132" y1="463" x2="144" y2="504" />
<line x1="132" y1="463" x2="137" y2="473" />
<line x1="132" y1="463" x2="133" y2="474" />
<line x1="132" y1="461" x2="124" y2="393" />
<line x1="132" y1="461" x2="129" y2="450" />
<line x1="132" y1="461" x2="132" y2="450" />
<line x1="130" y1="454" x2="132" y2="461" />
<line x1="130" y1="454" x2="135" y2="464" />
<line x1="130" y1="454" x2="131" y2="465" />
<line x1="127" y1="437" x2="147" y2="512" />
<line x1="127" y1="437" x2="132" y2="447" />
<line x1="127" y1="437" x2="127" y2="448" />
<line x1="127" y1="435" x2="124" y2="402" />
<line x1="127" y1="435" x2="124" y2="424" />
<line x1="127" y1="435" x2="128" y2="424" />
<line x1="127" y1="437" x2="166" y2="552" />
<line x1="127" y1="437" x2="132" y2="447" />
<line x1="127" y1="437" x2="128" y2="448" />
<line x1="127" y1="437" x2="144" y2="504" />
<line x1="127" y1="437" x2="132" y2="447" />
<line x1="127" y1="437" x2="127" y2="448" />
<line x1="124" y1="402" x2="201" y2="603" />
<line x1="124" y1="402" x2="130" y2="412" />
<line x1="124" y1="402" x2="126" y2="413" />
<line x1="124" y1="393" x2="127" y2="435" />
<line x1="124" y1="393" x2="127" y2="404" />
<line x1="124" y1="393" x2="123" y2="404" />
<line x1="124" y1="393" x2="124" y2="400" />
<line x1="124" y1="393" x2="126" y2="404" />
<line x1="124" y1="393" x2="122" y2="404" />
<line x1="124" y1="384" x2="139" y2="487" />
<line x1="124" y1="384" x2="127" y2="395" />
<line x1="124" y1="384" x2="124" y2="395" />
<line x1="124" y1="384" x2="141" y2="495" />
<line x1="124" y1="384" x2="127" y2="395" />
<line x1="124" y1="384" x2="124" y2="395" />
<line x1="124" y1="384" x2="136" y2="478" />
<line x1="124" y1="384" x2="127" y2="395" />
<line x1="124" y1="384" x2="124" y2="395" />
</g>
<g  fill="#f5f5ff" stroke="#cea262" style="stroke-width:1">
<line x1="131" y1="322" x2="127" y2="346" />
<line x1="131" y1="322" x2="131" y2="333" />
<line x1="131" y1="322" x2="127" y2="333" />
<line x1="131" y1="322" x2="128" y2="338" />
<line x1="131" y1="322" x2="131" y2="333" />
<line x1="131" y1="322" x2="127" y2="333" />
<line x1="160" y1="237" x2="168" y2="223" />
<line x1="160" y1="237" x2="163" y2="226" />
<line x1="160" y1="237" x2="167" y2="228" />
<line x1="164" y1="231" x2="160" y2="237" />
<line x1="164" y1="231" x2="160" y2="242" />
<line x1="164" y1="231" x2="156" y2="239" />
<line x1="178" y1="208" x2="156" y2="245" />
<line x1="178" y1="208" x2="174" y2="219" />
<line x1="178" y1="208" x2="171" y2="217" />
</g>
<g  fill="#f5f5ff" stroke="#817066" style="stroke-width:1">
<line x1="278" y1="107" x2="291" y2="98" />
<line x1="278" y1="107" x2="286" y2="99" />
<line x1="278" y1="107" x2="288" y2="103" />
<line x1="285" y1="102" x2="331" y2="78" />
<line x1="285" y1="102" x2="294" y2="95" />
<line x1="285" y1="102" x2="296" y2="99" />
</g>
<g  fill="#f5f5ff" stroke="#f6768e" style="stroke-width:1">
<line x1="407" y1="56" x2="392" y2="59" />
<line x1="407" y1="56" x2="396" y2="60" />
<line x1="407" y1="56" x2="396" y2="56" />
</g>
<g  fill="#f5f5ff" stroke="#c10020" style="stroke-width:1">
</g>
<g  fill="#f5f5ff" stroke="#000000" style="stroke-width:1">
<circle cx="462" cy="52" r="2" style="fill:#ffffff" />
<circle cx="470" cy="52" r="2" style="fill:#ffffff" />
<circle cx="479" cy="52" r="2" style="fill:#ffffff" />
<circle cx="488" cy="53" r="2" style="fill:#ffffff" />
<circle cx="497" cy="54" r="2" style="fill:#ffffff" />
<circle cx="506" cy="55" r="2" style="fill:#ffffff" />
<circle cx="515" cy="56" r="2" style="fill:#ffffff" />
<circle cx="523" cy="58" r="2" style="fill:#ffffff" />
<circle cx="532" cy="59" r="2" style="fill:#ffffff" />
<circle cx="541" cy="61" r="2" style="fill:#ffffff" />
<circle cx="549" cy="64" r="2" style="fill:#ffffff" />
<circle cx="558" cy="66" r="2" style="fill:#ffffff" />
<circle cx="566" cy="69" r="2" style="fill:#ffffff" />
<circle cx="575" cy="72" r="2" style="fill:#ffffff" />
<circle cx="583" cy="75" r="2" style="fill:#ffffff" />
<circle cx="591" cy="78" r="2" style="fill:#ffffff" />
<circle cx="599" cy="81" r="2" style="fill:#ffffff" />
<circle cx="607" cy="85" r="2" style="fill:#ffffff" />
<circle cx="615" cy="89" r="2" style="fill:#ffffff" />
<circle cx="623" cy="93" r="2" style="fill:#ffffff" />
<circle cx="631" cy="98" r="2" style="fill:#ffffff" />
<circle cx="639" cy="102" r="2" style="fill:#ffffff" />
<circle cx="646" cy="107" r="2" style="fill:#ffffff" />
<circle cx="653" cy="112" r="2" style="fill:#ffffff" />
<circle cx="661" cy="117" r="2" style="fill:#ffffff" />
<circle cx="668" cy="122" r="2" style="fill:#ffffff" />
<circle cx="675" cy="128" r="2" style="fill:#ffffff" />
<circle cx="681" cy="134" r="2" style="fill:#ffffff" />
<circle cx="688" cy="139" r="2" style="fill:#ffffff" />
<circle cx="695" cy="145" r="2" style="fill:#ffffff" />
<circle cx="701" cy="152" r="2" style="fill:#ffffff" />
<circle cx="707" cy="158" r="2" style="fill:#ffffff" />
<circle cx="713" cy="165" r="2" style="fill:#ffffff" />
<circle cx="719" cy="171" r="2" style="fill:#ffffff" />
<circle cx="725" cy="178" r="2" style="fill:#ffffff" />
<circle cx="730" cy="185" r="2" style="fill:#ffffff" />
<circle cx="735" cy="192" r="2" style="fill:#ffffff" />
<circle cx="740" cy="199" r="2" style="fill:#ffffff" />
<circle cx="745" cy="207" r="2" style="fill:#ffffff" />
<circle cx="750" cy="214" r="2" style="fill:#ffffff" />
<circle cx="755" cy="222" r="2" style="fill:#ffffff" />
<circle cx="759" cy="230" r="2" style="fill:#ffffff" />
<circle cx="763" cy="238" r="2" style="fill:#ffffff" />
<circle cx="767" cy="246" r="2" style="fill:#ffffff" />
<circle cx="770" cy="254" r="2" style="fill:#ffffff" />
<circle cx="774" cy="262" r="2" style="fill:#ffffff" />
<circle cx="777" cy="270" r="2" style="fill:#ffffff" />
<circle cx="780" cy="278" r="2" style="fill:#ffffff" />
<circle cx="783" cy="287" r="2" style="fill:#ffffff" />
<circle cx="786" cy="295" r="2" style="fill:#ffffff" />
<circle cx="788" cy="304" r="2" style="fill:#ffffff" />
<circle cx="790" cy="313" r="2" style="fill:#ffffff" />
<circle cx="792" cy="321" r="2" style="fill:#ffffff" />
<circle cx="794" cy="330" r="2" style="fill:#ffffff" />
<circle cx="795" cy="339" r="2" style="fill:#ffffff" />
<circle cx="796" cy="347" r="2" style="fill:#ffffff" />
<circle cx="797" cy="356" r="2" style="fill:#ffffff" />
<circle cx="798" cy="365" r="2" style="fill:#ffffff" />
<circle cx="799" cy="374" r="2" style="fill:#ffffff" />
<circle cx="799" cy="383" r="2" style="fill:#ffffff" />
<circle cx="799" cy="392" r="2" style="fill:#ffffff" />
<circle cx="799" cy="401" r="2" style="fill:#ffffff" />
<circle cx="798" cy="409" r="2" style="fill:#ffffff" />
<circle cx="798" cy="418" r="2" style="fill:#ffffff" />
<circle cx="797" cy="427" r="2" style="fill:#ffffff" />
<circle cx="796" cy="436" r="2" style="fill:#ffffff" />
<circle cx="794" cy="445" r="2" style="fill:#ffffff" />
<circle cx="793" cy="453" r="2" style="fill:#ffffff" />
<circle cx="791" cy="462" r="2" style="fill:#ffffff" />
<circle cx="789" cy="471" r="2" style="fill:#ffffff" />
<circle cx="787" cy="479" r="2" style="fill:#ffffff" />
<circle cx="784" cy="488" r="2" style="fill:#ffffff" />
<circle cx="782" cy="496" r="2" style="fill:#ffffff" />
<circle cx="779" cy="505" r="2" style="fill:#ffffff" />
<circle cx="776" cy="513" r="2" style="fill:#ffffff" />
<circle cx="772" cy="521" r="2" style="fill:#ffffff" />
<circle cx="769" cy="529" r="2" style="fill:#ffffff" />
<circle cx="765" cy="537" r="2" style="fill:#ffffff" />
<circle cx="761" cy="545" r="2" style="fill:#ffffff" />
<circle cx="757" cy="553" r="2" style="fill:#ffffff" />
<circle cx="752" cy="561" r="2" style="fill:#ffffff" />
<circle cx="748" cy="568" r="2" style="fill:#ffffff" />
<circle cx="743" cy="576" r="2" style="fill:#ffffff" />
<circle cx="738" cy="583" r="2" style="fill:#ffffff" />
<circle cx="733" cy="590" r="2" style="fill:#ffffff" />
<circle cx="727" cy="597" r="2" style="fill:#ffffff" />
<circle cx="722" cy="604" r="2" style="fill:#ffffff" />
<circle cx="716" cy="611" r="2" style="fill:#ffffff" />
<circle cx="710" cy="618" r="2" style="fill:#ffffff" />
<circle cx="704" cy="624" r="2" style="fill:#ffffff" />
<circle cx="698" cy="630" r="2" style="fill:#ffffff" />
<circle cx="691" cy="637" r="2" style="fill:#ffffff" />
<circle cx="685" cy="643" r="2" style="fill:#ffffff" />
<circle cx="678" cy="648" r="2" style="fill:#ffffff" />
<circle cx="671" cy="654" r="2" style="fill:#ffffff" />
<circle cx="664" cy="659" r="2" style="fill:#ffffff" />
<circle cx="657" cy="665" r="2" style="fill:#ffffff" />
<circle cx="650" cy="670" r="2" style="fill:#ffffff" />
<circle cx="642" cy="675" r="2" style="fill:#ffffff" />
<circle cx="635" cy="679" r="2" style="fill:#ffffff" />
<circle cx="627" cy="684" r="2" style="fill:#ffffff" />
<circle cx="619" cy="688" r="2" style="fill:#ffffff" />
<circle cx="611" cy="692" r="2" style="fill:#ffffff" />
<circle cx="603" cy="696" r="2" style="fill:#ffffff" />
<circle cx="595" cy="699" r="2" style="fill:#ffffff" />
<circle cx="587" cy="703" r="2" style="fill:#ffffff" />
<circle cx="579" cy="706" r="2" style="fill:#ffffff" />
<circle cx="570" cy="709" r="2" style="fill:#ffffff" />
<circle cx="562" cy="712" r="2" style="fill:#ffffff" />
<circle cx="553" cy="714" r="2" style="fill:#ffffff" />
<circle cx="545" cy="717" r="2" style="fill:#ffffff" />
<circle cx="536" cy="719" r="2" style="fill:#ffffff" />
<circle cx="528" cy="720" r="2" style="fill:#ffffff" />
<circle cx="519" cy="722" r="2" style="fill:#ffffff" />
<circle cx="510" cy="723" r="2" style="fill:#ffffff" />
<circle cx="501" cy="725" r="2" style="fill:#ffffff" />
<circle cx="493" cy="726" r="2" style="fill:#ffffff" />
<circle cx="484" cy="726" r="2" style="fill:#ffffff" />
<circle cx="475" cy="727" r="2" style="fill:#ffffff" />
<circle cx="466" cy="727" r="2" style="fill:#ffffff" />
<circle cx="457" cy="727" r="2" style="fill:#ffffff" />
<circle cx="448" cy="727" r="2" style="fill:#ffffff" />
<circle cx="439" cy="726" r="2" style="fill:#ffffff" />
<circle cx="430" cy="726" r="2" style="fill:#ffffff" />
<circle cx="422" cy="725" r="2" style="fill:#ffffff" />
<circle cx="413" cy="723" r="2" style="fill:#ffffff" />
<circle cx="404" cy="722" r="2" style="fill:#ffffff" />
<circle cx="395" cy="720" r="2" style="fill:#ffffff" />
<circle cx="387" cy="719" r="2" style="fill:#ffffff" />
<circle cx="378" cy="717" r="2" style="fill:#ffffff" />
<circle cx="370" cy="714" r="2" style="fill:#ffffff" />
<circle cx="361" cy="712" r="2" style="fill:#ffffff" />
<circle cx="353" cy="709" r="2" style="fill:#ffffff" />
<circle cx="344" cy="706" r="2" style="fill:#ffffff" />
<circle cx="336" cy="703" r="2" style="fill:#ffffff" />
<circle cx="328" cy="699" r="2" style="fill:#ffffff" />
<circle cx="320" cy="696" r="2" style="fill:#ffffff" />
<circle cx="312" cy="692" r="2" style="fill:#ffffff" />
<circle cx="304" cy="688" r="2" style="fill:#ffffff" />
<circle cx="296" cy="684" r="2" style="fill:#ffffff" />
<circle cx="288" cy="679" r="2" style="fill:#ffffff" />
<circle cx="281" cy="675" r="2" style="fill:#ffffff" />
<circle cx="273" cy="670" r="2" style="fill:#ffffff" />
<circle cx="266" cy="665" r="2" style="fill:#ffffff" />
<circle cx="259" cy="659" r="2" style="fill:#ffffff" />
<circle cx="252" cy="654" r="2" style="fill:#ffffff" />
<circle cx="245" cy="648" r="2" style="fill:#ffffff" />
<circle cx="238" cy="643" r="2" style="fill:#ffffff" />
<circle cx="232" cy="637" r="2" style="fill:#ffffff" />
<circle cx="225" cy="630" r="2" style="fill:#ffffff" />
<circle cx="219" cy="624" r="2" style="fill:#ffffff" />
<circle cx="213" cy="618" r="2" style="fill:#ffffff" />
<circle cx="207" cy="611" r="2" style="fill:#ffffff" />
<circle cx="201" cy="604" r="2" style="fill:#ffffff" />
<circle cx="196" cy="597" r="2" style="fill:#ffffff" />
<circle cx="190" cy="590" r="2" style="fill:#ffffff" />
<circle cx="185" cy="583" r="2" style="fill:#ffffff" />
<circle cx="180" cy="576" r="2" style="fill:#ffffff" />
<circle cx="175" cy="568" r="2" style="fill:#ffffff" />
<circle cx="171" cy="561" r="2" style="fill:#ffffff" />
<circle cx="166" cy="553" r="2" style="fill:#ffffff" />
<circle cx="162" cy="545" r="2" style="fill:#ffffff" />
<circle cx="158" cy="537" r="2" style="fill:#ffffff" />
<circle cx="154" cy="529" r="2" style="fill:#ffffff" />
<circle cx="151" cy="521" r="2" style="fill:#ffffff" />
<circle cx="147" cy="513" r="2" style="fill:#ffffff" />
<circle cx="144" cy="505" r="2" style="fill:#ffffff" />
<circle cx="141" cy="496" r="2" style="fill:#ffffff" />
<circle cx="139" cy="488" r="2" style="fill:#ffffff" />
<circle cx="136" cy="479" r="2" style="fill:#ffffff" />
<circle cx="134" cy="471" r="2" style="fill:#ffffff" />
<circle cx="132" cy="462" r="2" style="fill:#ffffff" />
<circle cx="130" cy="453" r="2" style="fill:#ffffff" />
<circle cx="129" cy="445" r="2" style="fill:#ffffff" />
<circle cx="127" cy="436" r="2" style="fill:#ffffff" />
<circle cx="126" cy="427" r="2" style="fill:#ffffff" />
<circle cx="125" cy="418" r="2" style="fill:#ffffff" />
<circle cx="125" cy="409" r="2" style="fill:#ffffff" />
<circle cx="124" cy="401" r="2" style="fill:#ffffff" />
<circle cx="124" cy="392" r="2" style="fill:#ffffff" />
<circle cx="124" cy="383" r="2" style="fill:#ffffff" />
<circle cx="124" cy="374" r="2" style="fill:#ffffff" />
<circle cx="125" cy="365" r="2" style="fill:#ffffff" />
<circle cx="126" cy="356" r="2" style="fill:#ffffff" />
<circle cx="127" cy="347" r="2" style="fill:#ffffff" />
<circle cx="128" cy="339" r="2" style="fill:#ffffff" />
<circle cx="129" cy="330" r="2" style="fill:#ffffff" />
<circle cx="131" cy="321" r="2" style="fill:#ffffff" />
<circle cx="133" cy="313" r="2" style="fill:#ffffff" />
<circle cx="135" cy="304" r="2" style="fill:#ffffff" />
<circle cx="137" cy="295" r="2" style="fill:#ffffff" />
<circle cx="140" cy="287" r="2" style="fill:#ffffff" />
<circle cx="143" cy="278" r="2" style="fill:#ffffff" />
<circle cx="146" cy="270" r="2" style="fill:#ffffff" />
<circle cx="149" cy="262" r="2" style="fill:#ffffff" />
<circle cx="153" cy="254" r="2" style="fill:#ffffff" />
<circle cx="156" cy="246" r="2" style="fill:#ffffff" />
<circle cx="160" cy="238" r="2" style="fill:#ffffff" />
<circle cx="164" cy="230" r="2" style="fill:#ffffff" />
<circle cx="168" cy="222" r="2" style="fill:#ffffff" />
<circle cx="173" cy="214" r="2" style="fill:#ffffff" />
<circle cx="178" cy="207" r="2" style="fill:#ffffff" />
<circle cx="183" cy="199" r="2" style="fill:#ffffff" />
<circle cx="188" cy="192" r="2" style="fill:#ffffff" />
<circle cx="193" cy="185" r="2" style="fill:#ffffff" />
<circle cx="198" cy="178" r="2" style="fill:#ffffff" />
<circle cx="204" cy="171" r="2" style="fill:#ffffff" />
<circle cx="210" cy="165" r="2" style="fill:#ffffff" />
<circle cx="216" cy="158" r="2" style="fill:#ffffff" />
<circle cx="222" cy="152" r="2" style="fill:#ffffff" />
<circle cx="228" cy="145" r="2" style="fill:#ffffff" />
<circle cx="235" cy="139" r="2" style="fill:#ffffff" />
<circle cx="242" cy="134" r="2" style="fill:#ffffff" />
<circle cx="248" cy="128" r="2" style="fill:#ffffff" />
<circle cx="255" cy="122" r="2" style="fill:#ffffff" />
<circle cx="262" cy="117" r="2" style="fill:#ffffff" />
<circle cx="270" cy="112" r="2" style="fill:#ffffff" />
<circle cx="277" cy="107" r="2" style="fill:#ffffff" />
<circle cx="284" cy="102" r="2" style="fill:#ffffff" />
<circle cx="292" cy="98" r="2" style="fill:#ffffff" />
<circle cx="300" cy="93" r="2" style="fill:#ffffff" />
<circle cx="308" cy="89" r="2" style="fill:#ffffff" />
<circle cx="316" cy="85" r="2" style="fill:#ffffff" />
<circle cx="324" cy="81" r="2" style="fill:#ffffff" />
<circle cx="332" cy="78" r="2" style="fill:#ffffff" />
<circle cx="340" cy="75" r="2" style="fill:#ffffff" />
<circle cx="348" cy="72" r="2" style="fill:#ffffff" />
<circle cx="357" cy="69" r="2" style="fill:#ffffff" />
<circle cx="365" cy="66" r="2" style="fill:#ffffff" />
<circle cx="374" cy="64" r="2" style="fill:#ffffff" />
<circle cx="382" cy="61" r="2" style="fill:#ffffff" />
<circle cx="391" cy="59" r="2" style="fill:#ffffff" />
<circle cx="400" cy="58" r="2" style="fill:#ffffff" />
<circle cx="408" cy="56" r="2" style="fill:#ffffff" />
<circle cx="417" cy="55" r="2" style="fill:#ffffff" />
<circle cx="426" cy="54" r="2" style="fill:#ffffff" />
<circle cx="435" cy="53" r="2" style="fill:#ffffff" />
<circle cx="444" cy="52" r="2" style="fill:#ffffff" />
<circle cx="453" cy="52" r="2" style="fill:#ffffff" />
</g>
<g font-size="10.000000" stroke="none">
<text x="839" y="382">include/llvm/MC</text>
<text x="307" y="763">include/llvm/MC/MCAnalysis</text>
<text x="238" y="751">include/llvm/MC/MCParser</text>
<text x="20" y="579">lib/CodeGen/AsmPrinter</text>
<text x="76" y="257">lib/MC</text>
<text x="147" y="88">lib/MC/MCAnalysis</text>
<text x="247" y="29">lib/MC/MCDisassembler</text>
<text x="328" y="19">lib/MC/MCParser</text>
</g>
</svg>