<svg xmlns="http://www.w3.org/2000/svg" version="1.1" width="925" height="794">
<g  fill="#f5f5ff" stroke="rgb(0,0,0)" style="stroke-width:1">
<line x1="449" y1="54" x2="449" y2="42" />
<line x1="472" y1="738" x2="473" y2="750" />
<line x1="409" y1="735" x2="407" y2="747" />
<line x1="338" y1="718" x2="334" y2="730" />
<line x1="113" y1="362" x2="101" y2="361" />
<line x1="167" y1="209" x2="157" y2="203" />
<line x1="351" y1="69" x2="348" y2="58" />
<line x1="369" y1="64" x2="366" y2="53" />
<line x1="515" y1="64" x2="491" y2="60" />
<line x1="491" y1="60" x2="502" y2="60" />
<line x1="491" y1="60" x2="502" y2="64" />
<line x1="515" y1="64" x2="500" y2="61" />
<line x1="515" y1="64" x2="504" y2="64" />
<line x1="515" y1="64" x2="504" y2="60" />
<line x1="515" y1="64" x2="508" y2="63" />
<line x1="515" y1="64" x2="504" y2="64" />
<line x1="515" y1="64" x2="504" y2="61" />
<line x1="524" y1="66" x2="491" y2="60" />
<line x1="491" y1="60" x2="502" y2="60" />
<line x1="491" y1="60" x2="502" y2="64" />
<line x1="533" y1="68" x2="491" y2="60" />
<line x1="491" y1="60" x2="502" y2="60" />
<line x1="491" y1="60" x2="502" y2="64" />
<line x1="592" y1="88" x2="552" y2="73" />
<line x1="592" y1="88" x2="581" y2="86" />
<line x1="592" y1="88" x2="582" y2="82" />
<line x1="600" y1="92" x2="586" y2="85" />
<line x1="600" y1="92" x2="589" y2="89" />
<line x1="600" y1="92" x2="591" y2="85" />
<line x1="600" y1="92" x2="594" y2="88" />
<line x1="594" y1="88" x2="605" y2="92" />
<line x1="594" y1="88" x2="602" y2="96" />
<line x1="713" y1="179" x2="695" y2="161" />
<line x1="713" y1="179" x2="704" y2="173" />
<line x1="713" y1="179" x2="707" y2="170" />
<line x1="719" y1="186" x2="682" y2="148" />
<line x1="719" y1="186" x2="710" y2="180" />
<line x1="719" y1="186" x2="713" y2="177" />
<line x1="724" y1="193" x2="689" y2="154" />
<line x1="689" y1="154" x2="698" y2="161" />
<line x1="689" y1="154" x2="695" y2="164" />
<line x1="724" y1="193" x2="719" y2="188" />
<line x1="719" y1="188" x2="728" y2="194" />
<line x1="719" y1="188" x2="725" y2="197" />
<line x1="784" y1="332" x2="491" y2="60" />
<line x1="491" y1="60" x2="501" y2="66" />
<line x1="491" y1="60" x2="498" y2="69" />
<line x1="789" y1="357" x2="785" y2="333" />
<line x1="789" y1="357" x2="785" y2="346" />
<line x1="789" y1="357" x2="789" y2="346" />
<line x1="789" y1="357" x2="787" y2="341" />
<line x1="789" y1="357" x2="786" y2="346" />
<line x1="789" y1="357" x2="789" y2="346" />
<line x1="789" y1="437" x2="662" y2="131" />
<line x1="662" y1="131" x2="668" y2="141" />
<line x1="662" y1="131" x2="664" y2="142" />
<line x1="789" y1="437" x2="787" y2="341" />
<line x1="787" y1="341" x2="789" y2="352" />
<line x1="787" y1="341" x2="786" y2="352" />
<line x1="789" y1="437" x2="790" y2="430" />
<line x1="789" y1="437" x2="789" y2="426" />
<line x1="789" y1="437" x2="792" y2="426" />
<line x1="786" y1="455" x2="481" y2="61" />
<line x1="481" y1="61" x2="489" y2="68" />
<line x1="481" y1="61" x2="486" y2="71" />
<line x1="786" y1="455" x2="542" y2="71" />
<line x1="786" y1="455" x2="778" y2="447" />
<line x1="786" y1="455" x2="782" y2="444" />
<line x1="786" y1="455" x2="647" y2="120" />
<line x1="647" y1="120" x2="653" y2="130" />
<line x1="647" y1="120" x2="649" y2="131" />
<line x1="786" y1="455" x2="791" y2="395" />
<line x1="791" y1="395" x2="792" y2="406" />
<line x1="791" y1="395" x2="788" y2="406" />
<line x1="784" y1="464" x2="560" y2="76" />
<line x1="784" y1="464" x2="777" y2="455" />
<line x1="784" y1="464" x2="780" y2="453" />
<line x1="784" y1="464" x2="568" y2="79" />
<line x1="784" y1="464" x2="777" y2="455" />
<line x1="784" y1="464" x2="781" y2="453" />
<line x1="784" y1="464" x2="576" y2="82" />
<line x1="784" y1="464" x2="777" y2="455" />
<line x1="784" y1="464" x2="781" y2="453" />
<line x1="784" y1="464" x2="593" y2="89" />
<line x1="784" y1="464" x2="777" y2="455" />
<line x1="784" y1="464" x2="781" y2="453" />
<line x1="784" y1="464" x2="609" y2="97" />
<line x1="784" y1="464" x2="777" y2="455" />
<line x1="784" y1="464" x2="781" y2="453" />
<line x1="784" y1="464" x2="617" y2="101" />
<line x1="784" y1="464" x2="778" y2="455" />
<line x1="784" y1="464" x2="782" y2="453" />
<line x1="784" y1="464" x2="632" y2="110" />
<line x1="784" y1="464" x2="778" y2="455" />
<line x1="784" y1="464" x2="782" y2="453" />
<line x1="784" y1="464" x2="757" y2="248" />
<line x1="784" y1="464" x2="781" y2="453" />
<line x1="784" y1="464" x2="784" y2="453" />
<line x1="782" y1="473" x2="625" y2="106" />
<line x1="782" y1="473" x2="776" y2="464" />
<line x1="782" y1="473" x2="780" y2="462" />
<line x1="782" y1="473" x2="784" y2="466" />
<line x1="782" y1="473" x2="783" y2="462" />
<line x1="782" y1="473" x2="787" y2="463" />
<line x1="780" y1="481" x2="601" y2="93" />
<line x1="601" y1="93" x2="607" y2="102" />
<line x1="601" y1="93" x2="603" y2="104" />
<line x1="778" y1="490" x2="753" y2="240" />
<line x1="778" y1="490" x2="775" y2="479" />
<line x1="778" y1="490" x2="779" y2="479" />
<line x1="778" y1="490" x2="786" y2="457" />
<line x1="786" y1="457" x2="786" y2="468" />
<line x1="786" y1="457" x2="782" y2="467" />
<line x1="778" y1="490" x2="782" y2="475" />
<line x1="782" y1="475" x2="782" y2="486" />
<line x1="782" y1="475" x2="777" y2="485" />
<line x1="775" y1="498" x2="789" y2="439" />
<line x1="775" y1="498" x2="775" y2="487" />
<line x1="775" y1="498" x2="779" y2="488" />
<line x1="772" y1="507" x2="791" y2="422" />
<line x1="772" y1="507" x2="772" y2="496" />
<line x1="772" y1="507" x2="776" y2="496" />
<line x1="772" y1="507" x2="786" y2="457" />
<line x1="772" y1="507" x2="773" y2="496" />
<line x1="772" y1="507" x2="777" y2="497" />
<line x1="759" y1="540" x2="785" y2="333" />
<line x1="759" y1="540" x2="759" y2="529" />
<line x1="759" y1="540" x2="762" y2="529" />
<line x1="759" y1="540" x2="766" y2="526" />
<line x1="766" y1="526" x2="763" y2="537" />
<line x1="766" y1="526" x2="759" y2="535" />
<line x1="759" y1="540" x2="763" y2="534" />
<line x1="763" y1="534" x2="759" y2="545" />
<line x1="763" y1="534" x2="755" y2="542" />
<line x1="742" y1="571" x2="769" y2="517" />
<line x1="769" y1="517" x2="766" y2="528" />
<line x1="769" y1="517" x2="762" y2="526" />
<line x1="742" y1="571" x2="759" y2="542" />
<line x1="759" y1="542" x2="755" y2="553" />
<line x1="759" y1="542" x2="752" y2="551" />
<line x1="742" y1="571" x2="755" y2="550" />
<line x1="755" y1="550" x2="751" y2="561" />
<line x1="755" y1="550" x2="747" y2="558" />
<line x1="742" y1="571" x2="751" y2="558" />
<line x1="751" y1="558" x2="747" y2="568" />
<line x1="751" y1="558" x2="743" y2="566" />
<line x1="704" y1="621" x2="788" y2="448" />
<line x1="704" y1="621" x2="707" y2="610" />
<line x1="704" y1="621" x2="711" y2="612" />
<line x1="704" y1="621" x2="782" y2="475" />
<line x1="704" y1="621" x2="707" y2="610" />
<line x1="704" y1="621" x2="711" y2="612" />
<line x1="699" y1="628" x2="704" y2="623" />
<line x1="704" y1="623" x2="698" y2="632" />
<line x1="704" y1="623" x2="695" y2="629" />
<line x1="693" y1="634" x2="704" y2="623" />
<line x1="704" y1="623" x2="698" y2="632" />
<line x1="704" y1="623" x2="695" y2="629" />
<line x1="686" y1="641" x2="704" y2="623" />
<line x1="704" y1="623" x2="698" y2="632" />
<line x1="704" y1="623" x2="695" y2="629" />
<line x1="672" y1="653" x2="490" y2="61" />
<line x1="490" y1="61" x2="495" y2="71" />
<line x1="490" y1="61" x2="491" y2="72" />
<line x1="659" y1="665" x2="678" y2="648" />
<line x1="659" y1="665" x2="666" y2="656" />
<line x1="659" y1="665" x2="669" y2="659" />
<line x1="659" y1="664" x2="664" y2="659" />
<line x1="659" y1="664" x2="665" y2="655" />
<line x1="659" y1="664" x2="668" y2="658" />
<line x1="651" y1="669" x2="463" y2="60" />
<line x1="651" y1="669" x2="646" y2="659" />
<line x1="651" y1="669" x2="650" y2="658" />
<line x1="651" y1="669" x2="625" y2="106" />
<line x1="651" y1="669" x2="649" y2="658" />
<line x1="651" y1="669" x2="652" y2="658" />
<line x1="651" y1="669" x2="640" y2="115" />
<line x1="651" y1="669" x2="649" y2="658" />
<line x1="651" y1="669" x2="652" y2="658" />
<line x1="651" y1="669" x2="675" y2="142" />
<line x1="651" y1="669" x2="650" y2="658" />
<line x1="651" y1="669" x2="653" y2="658" />
<line x1="651" y1="669" x2="695" y2="161" />
<line x1="651" y1="669" x2="650" y2="658" />
<line x1="651" y1="669" x2="654" y2="658" />
<line x1="651" y1="669" x2="701" y2="167" />
<line x1="651" y1="669" x2="650" y2="658" />
<line x1="651" y1="669" x2="654" y2="658" />
<line x1="651" y1="669" x2="719" y2="188" />
<line x1="651" y1="669" x2="651" y2="658" />
<line x1="651" y1="669" x2="654" y2="658" />
<line x1="651" y1="669" x2="734" y2="209" />
<line x1="651" y1="669" x2="651" y2="658" />
<line x1="651" y1="669" x2="655" y2="658" />
<line x1="651" y1="669" x2="757" y2="248" />
<line x1="651" y1="669" x2="651" y2="658" />
<line x1="651" y1="669" x2="656" y2="659" />
<line x1="652" y1="670" x2="703" y2="622" />
<line x1="703" y1="622" x2="696" y2="631" />
<line x1="703" y1="622" x2="693" y2="628" />
<line x1="652" y1="670" x2="697" y2="629" />
<line x1="652" y1="670" x2="659" y2="661" />
<line x1="652" y1="670" x2="662" y2="664" />
<line x1="652" y1="670" x2="691" y2="635" />
<line x1="652" y1="670" x2="659" y2="661" />
<line x1="652" y1="670" x2="662" y2="664" />
<line x1="652" y1="670" x2="671" y2="654" />
<line x1="652" y1="670" x2="659" y2="661" />
<line x1="652" y1="670" x2="662" y2="665" />
<line x1="644" y1="674" x2="774" y2="289" />
<line x1="644" y1="674" x2="645" y2="663" />
<line x1="644" y1="674" x2="649" y2="664" />
<line x1="644" y1="674" x2="775" y2="500" />
<line x1="644" y1="674" x2="649" y2="664" />
<line x1="644" y1="674" x2="652" y2="666" />
<line x1="606" y1="698" x2="635" y2="680" />
<line x1="606" y1="698" x2="614" y2="690" />
<line x1="606" y1="698" x2="617" y2="694" />
<line x1="598" y1="702" x2="671" y2="654" />
<line x1="671" y1="654" x2="663" y2="662" />
<line x1="671" y1="654" x2="660" y2="658" />
<line x1="590" y1="705" x2="650" y2="670" />
<line x1="650" y1="670" x2="641" y2="677" />
<line x1="650" y1="670" x2="639" y2="674" />
<line x1="555" y1="717" x2="463" y2="60" />
<line x1="555" y1="717" x2="552" y2="706" />
<line x1="555" y1="717" x2="555" y2="706" />
<line x1="555" y1="717" x2="560" y2="76" />
<line x1="555" y1="717" x2="553" y2="706" />
<line x1="555" y1="717" x2="557" y2="706" />
<line x1="555" y1="717" x2="568" y2="79" />
<line x1="555" y1="717" x2="554" y2="706" />
<line x1="555" y1="717" x2="557" y2="706" />
<line x1="555" y1="717" x2="576" y2="82" />
<line x1="555" y1="717" x2="554" y2="706" />
<line x1="555" y1="717" x2="557" y2="706" />
<line x1="555" y1="717" x2="632" y2="110" />
<line x1="555" y1="717" x2="555" y2="706" />
<line x1="555" y1="717" x2="558" y2="706" />
<line x1="555" y1="717" x2="757" y2="248" />
<line x1="555" y1="717" x2="557" y2="706" />
<line x1="555" y1="717" x2="561" y2="708" />
<line x1="555" y1="717" x2="761" y2="256" />
<line x1="555" y1="717" x2="557" y2="706" />
<line x1="555" y1="717" x2="561" y2="708" />
<line x1="555" y1="717" x2="764" y2="264" />
<line x1="555" y1="717" x2="557" y2="706" />
<line x1="555" y1="717" x2="561" y2="708" />
<line x1="555" y1="717" x2="768" y2="273" />
<line x1="555" y1="717" x2="558" y2="706" />
<line x1="555" y1="717" x2="562" y2="708" />
<line x1="555" y1="717" x2="771" y2="281" />
<line x1="555" y1="717" x2="558" y2="706" />
<line x1="555" y1="717" x2="562" y2="708" />
<line x1="555" y1="717" x2="777" y2="298" />
<line x1="555" y1="717" x2="558" y2="706" />
<line x1="555" y1="717" x2="562" y2="708" />
<line x1="556" y1="718" x2="671" y2="654" />
<line x1="556" y1="718" x2="565" y2="711" />
<line x1="556" y1="718" x2="567" y2="715" />
<line x1="556" y1="718" x2="650" y2="670" />
<line x1="556" y1="718" x2="565" y2="711" />
<line x1="556" y1="718" x2="567" y2="715" />
<line x1="548" y1="720" x2="777" y2="491" />
<line x1="777" y1="491" x2="771" y2="500" />
<line x1="777" y1="491" x2="768" y2="497" />
<line x1="548" y1="721" x2="650" y2="670" />
<line x1="650" y1="670" x2="641" y2="677" />
<line x1="650" y1="670" x2="639" y2="673" />
<line x1="539" y1="723" x2="650" y2="670" />
<line x1="650" y1="670" x2="641" y2="677" />
<line x1="650" y1="670" x2="639" y2="673" />
<line x1="530" y1="725" x2="703" y2="622" />
<line x1="530" y1="725" x2="539" y2="718" />
<line x1="530" y1="725" x2="541" y2="721" />
<line x1="459" y1="733" x2="466" y2="733" />
<line x1="466" y1="733" x2="455" y2="735" />
<line x1="466" y1="733" x2="455" y2="731" />
<line x1="442" y1="733" x2="466" y2="733" />
<line x1="466" y1="733" x2="455" y2="735" />
<line x1="466" y1="733" x2="455" y2="731" />
<line x1="424" y1="732" x2="457" y2="733" />
<line x1="457" y1="733" x2="446" y2="734" />
<line x1="457" y1="733" x2="446" y2="731" />
<line x1="424" y1="732" x2="431" y2="733" />
<line x1="431" y1="733" x2="420" y2="733" />
<line x1="431" y1="733" x2="420" y2="730" />
<line x1="415" y1="731" x2="466" y2="733" />
<line x1="415" y1="731" x2="426" y2="730" />
<line x1="415" y1="731" x2="426" y2="733" />
<line x1="415" y1="731" x2="431" y2="733" />
<line x1="415" y1="731" x2="426" y2="731" />
<line x1="415" y1="731" x2="426" y2="734" />
<line x1="396" y1="728" x2="490" y2="61" />
<line x1="490" y1="61" x2="490" y2="72" />
<line x1="490" y1="61" x2="487" y2="72" />
<line x1="380" y1="725" x2="635" y2="680" />
<line x1="635" y1="680" x2="624" y2="684" />
<line x1="635" y1="680" x2="624" y2="680" />
<line x1="371" y1="723" x2="612" y2="694" />
<line x1="612" y1="694" x2="601" y2="697" />
<line x1="612" y1="694" x2="601" y2="694" />
<line x1="371" y1="723" x2="395" y2="729" />
<line x1="371" y1="723" x2="382" y2="723" />
<line x1="371" y1="723" x2="381" y2="727" />
<line x1="362" y1="721" x2="635" y2="680" />
<line x1="362" y1="721" x2="373" y2="718" />
<line x1="362" y1="721" x2="373" y2="721" />
<line x1="354" y1="718" x2="635" y2="680" />
<line x1="354" y1="718" x2="365" y2="715" />
<line x1="354" y1="718" x2="365" y2="718" />
<line x1="354" y1="718" x2="378" y2="725" />
<line x1="378" y1="725" x2="367" y2="724" />
<line x1="378" y1="725" x2="368" y2="720" />
<line x1="312" y1="702" x2="703" y2="622" />
<line x1="703" y1="622" x2="692" y2="626" />
<line x1="703" y1="622" x2="692" y2="622" />
<line x1="273" y1="680" x2="286" y2="689" />
<line x1="273" y1="680" x2="283" y2="684" />
<line x1="273" y1="680" x2="281" y2="688" />
<line x1="273" y1="680" x2="278" y2="685" />
<line x1="273" y1="680" x2="282" y2="686" />
<line x1="273" y1="680" x2="279" y2="689" />
<line x1="237" y1="654" x2="263" y2="675" />
<line x1="237" y1="654" x2="247" y2="659" />
<line x1="237" y1="654" x2="244" y2="663" />
<line x1="237" y1="654" x2="256" y2="670" />
<line x1="237" y1="654" x2="247" y2="659" />
<line x1="237" y1="654" x2="244" y2="663" />
<line x1="237" y1="654" x2="249" y2="665" />
<line x1="237" y1="654" x2="247" y2="660" />
<line x1="237" y1="654" x2="244" y2="663" />
<line x1="237" y1="654" x2="242" y2="659" />
<line x1="237" y1="654" x2="246" y2="660" />
<line x1="237" y1="654" x2="243" y2="663" />
<line x1="230" y1="649" x2="235" y2="654" />
<line x1="235" y1="654" x2="226" y2="648" />
<line x1="235" y1="654" x2="229" y2="645" />
<line x1="224" y1="642" x2="650" y2="670" />
<line x1="650" y1="670" x2="639" y2="671" />
<line x1="650" y1="670" x2="639" y2="668" />
<line x1="224" y1="643" x2="235" y2="654" />
<line x1="235" y1="654" x2="226" y2="648" />
<line x1="235" y1="654" x2="229" y2="645" />
<line x1="217" y1="635" x2="650" y2="670" />
<line x1="650" y1="670" x2="639" y2="671" />
<line x1="650" y1="670" x2="639" y2="667" />
<line x1="217" y1="636" x2="235" y2="654" />
<line x1="235" y1="654" x2="226" y2="648" />
<line x1="235" y1="654" x2="229" y2="645" />
<line x1="199" y1="616" x2="263" y2="675" />
<line x1="199" y1="616" x2="209" y2="622" />
<line x1="199" y1="616" x2="206" y2="625" />
<line x1="199" y1="617" x2="229" y2="647" />
<line x1="199" y1="617" x2="208" y2="623" />
<line x1="199" y1="617" x2="205" y2="626" />
<line x1="199" y1="617" x2="203" y2="621" />
<line x1="203" y1="621" x2="194" y2="615" />
<line x1="203" y1="621" x2="197" y2="612" />
<line x1="193" y1="610" x2="236" y2="653" />
<line x1="236" y1="653" x2="227" y2="647" />
<line x1="236" y1="653" x2="230" y2="644" />
<line x1="193" y1="610" x2="198" y2="615" />
<line x1="198" y1="615" x2="189" y2="609" />
<line x1="198" y1="615" x2="192" y2="606" />
<line x1="188" y1="602" x2="554" y2="718" />
<line x1="554" y1="718" x2="543" y2="717" />
<line x1="554" y1="718" x2="544" y2="713" />
<line x1="187" y1="603" x2="236" y2="653" />
<line x1="236" y1="653" x2="227" y2="647" />
<line x1="236" y1="653" x2="230" y2="644" />
<line x1="181" y1="596" x2="236" y2="653" />
<line x1="236" y1="653" x2="227" y2="647" />
<line x1="236" y1="653" x2="230" y2="643" />
<line x1="172" y1="580" x2="278" y2="685" />
<line x1="172" y1="580" x2="181" y2="586" />
<line x1="172" y1="580" x2="178" y2="589" />
<line x1="163" y1="565" x2="650" y2="670" />
<line x1="650" y1="670" x2="639" y2="670" />
<line x1="650" y1="670" x2="639" y2="666" />
<line x1="158" y1="557" x2="650" y2="670" />
<line x1="650" y1="670" x2="639" y2="670" />
<line x1="650" y1="670" x2="639" y2="666" />
<line x1="150" y1="541" x2="650" y2="670" />
<line x1="650" y1="670" x2="639" y2="670" />
<line x1="650" y1="670" x2="640" y2="665" />
<line x1="146" y1="533" x2="650" y2="670" />
<line x1="650" y1="670" x2="639" y2="670" />
<line x1="650" y1="670" x2="640" y2="665" />
<line x1="143" y1="525" x2="650" y2="670" />
<line x1="650" y1="670" x2="639" y2="669" />
<line x1="650" y1="670" x2="640" y2="665" />
<line x1="140" y1="516" x2="681" y2="147" />
<line x1="681" y1="147" x2="673" y2="155" />
<line x1="681" y1="147" x2="671" y2="151" />
<line x1="140" y1="516" x2="703" y2="622" />
<line x1="703" y1="622" x2="692" y2="622" />
<line x1="703" y1="622" x2="692" y2="618" />
<line x1="140" y1="516" x2="650" y2="670" />
<line x1="650" y1="670" x2="639" y2="669" />
<line x1="650" y1="670" x2="640" y2="665" />
<line x1="139" y1="517" x2="327" y2="708" />
<line x1="327" y1="708" x2="318" y2="702" />
<line x1="327" y1="708" x2="321" y2="699" />
<line x1="139" y1="517" x2="303" y2="697" />
<line x1="303" y1="697" x2="294" y2="690" />
<line x1="303" y1="697" x2="297" y2="687" />
<line x1="139" y1="517" x2="166" y2="571" />
<line x1="166" y1="571" x2="159" y2="562" />
<line x1="166" y1="571" x2="163" y2="560" />
<line x1="139" y1="517" x2="153" y2="548" />
<line x1="153" y1="548" x2="147" y2="539" />
<line x1="153" y1="548" x2="151" y2="537" />
<line x1="128" y1="481" x2="490" y2="61" />
<line x1="490" y1="61" x2="484" y2="71" />
<line x1="490" y1="61" x2="481" y2="68" />
<line x1="129" y1="482" x2="788" y2="358" />
<line x1="788" y1="358" x2="777" y2="362" />
<line x1="788" y1="358" x2="777" y2="358" />
<line x1="129" y1="482" x2="650" y2="670" />
<line x1="650" y1="670" x2="639" y2="669" />
<line x1="650" y1="670" x2="640" y2="664" />
<line x1="128" y1="483" x2="287" y2="688" />
<line x1="128" y1="483" x2="136" y2="490" />
<line x1="128" y1="483" x2="133" y2="493" />
<line x1="128" y1="483" x2="171" y2="579" />
<line x1="128" y1="483" x2="134" y2="492" />
<line x1="128" y1="483" x2="130" y2="494" />
<line x1="128" y1="483" x2="139" y2="515" />
<line x1="128" y1="483" x2="133" y2="493" />
<line x1="128" y1="483" x2="129" y2="494" />
<line x1="126" y1="475" x2="139" y2="515" />
<line x1="126" y1="475" x2="131" y2="485" />
<line x1="126" y1="475" x2="127" y2="486" />
<line x1="126" y1="475" x2="128" y2="481" />
<line x1="128" y1="481" x2="123" y2="471" />
<line x1="128" y1="481" x2="127" y2="470" />
<line x1="125" y1="465" x2="650" y2="670" />
<line x1="650" y1="670" x2="639" y2="668" />
<line x1="650" y1="670" x2="640" y2="664" />
<line x1="124" y1="466" x2="126" y2="473" />
<line x1="124" y1="466" x2="129" y2="476" />
<line x1="124" y1="466" x2="125" y2="477" />
<line x1="122" y1="457" x2="162" y2="564" />
<line x1="122" y1="457" x2="128" y2="467" />
<line x1="122" y1="457" x2="124" y2="468" />
<line x1="122" y1="457" x2="145" y2="532" />
<line x1="122" y1="457" x2="127" y2="467" />
<line x1="122" y1="457" x2="123" y2="468" />
<line x1="122" y1="457" x2="139" y2="515" />
<line x1="122" y1="457" x2="127" y2="467" />
<line x1="122" y1="457" x2="123" y2="468" />
<line x1="121" y1="447" x2="681" y2="147" />
<line x1="681" y1="147" x2="672" y2="154" />
<line x1="681" y1="147" x2="670" y2="150" />
<line x1="120" y1="448" x2="257" y2="669" />
<line x1="120" y1="448" x2="128" y2="456" />
<line x1="120" y1="448" x2="124" y2="459" />
<line x1="120" y1="448" x2="198" y2="615" />
<line x1="198" y1="615" x2="192" y2="606" />
<line x1="198" y1="615" x2="195" y2="604" />
<line x1="120" y1="448" x2="122" y2="455" />
<line x1="122" y1="455" x2="117" y2="445" />
<line x1="122" y1="455" x2="121" y2="444" />
<line x1="120" y1="438" x2="703" y2="622" />
<line x1="703" y1="622" x2="692" y2="621" />
<line x1="703" y1="622" x2="693" y2="617" />
<line x1="120" y1="438" x2="650" y2="670" />
<line x1="650" y1="670" x2="639" y2="668" />
<line x1="650" y1="670" x2="641" y2="664" />
<line x1="119" y1="439" x2="198" y2="615" />
<line x1="198" y1="615" x2="192" y2="606" />
<line x1="198" y1="615" x2="196" y2="604" />
<line x1="119" y1="439" x2="181" y2="594" />
<line x1="181" y1="594" x2="175" y2="584" />
<line x1="181" y1="594" x2="179" y2="583" />
<line x1="119" y1="439" x2="139" y2="515" />
<line x1="139" y1="515" x2="134" y2="505" />
<line x1="139" y1="515" x2="139" y2="504" />
<line x1="119" y1="439" x2="128" y2="481" />
<line x1="128" y1="481" x2="124" y2="470" />
<line x1="128" y1="481" x2="128" y2="470" />
<line x1="119" y1="439" x2="126" y2="473" />
<line x1="126" y1="473" x2="122" y2="462" />
<line x1="126" y1="473" x2="126" y2="462" />
<line x1="119" y1="439" x2="122" y2="455" />
<line x1="119" y1="439" x2="123" y2="450" />
<line x1="119" y1="439" x2="119" y2="450" />
<line x1="119" y1="439" x2="120" y2="446" />
<line x1="119" y1="439" x2="122" y2="450" />
<line x1="119" y1="439" x2="119" y2="450" />
<line x1="118" y1="430" x2="198" y2="615" />
<line x1="198" y1="615" x2="192" y2="606" />
<line x1="198" y1="615" x2="196" y2="604" />
<line x1="118" y1="430" x2="139" y2="515" />
<line x1="139" y1="515" x2="135" y2="505" />
<line x1="139" y1="515" x2="139" y2="504" />
<line x1="118" y1="421" x2="650" y2="670" />
<line x1="650" y1="670" x2="639" y2="667" />
<line x1="650" y1="670" x2="641" y2="664" />
<line x1="118" y1="412" x2="650" y2="670" />
<line x1="650" y1="670" x2="639" y2="667" />
<line x1="650" y1="670" x2="641" y2="663" />
<line x1="117" y1="395" x2="303" y2="697" />
<line x1="303" y1="697" x2="295" y2="689" />
<line x1="303" y1="697" x2="299" y2="686" />
<line x1="117" y1="395" x2="136" y2="507" />
<line x1="117" y1="395" x2="121" y2="406" />
<line x1="117" y1="395" x2="117" y2="406" />
<line x1="117" y1="395" x2="133" y2="498" />
<line x1="117" y1="395" x2="120" y2="406" />
<line x1="117" y1="395" x2="117" y2="406" />
<line x1="117" y1="395" x2="130" y2="490" />
<line x1="117" y1="395" x2="120" y2="406" />
<line x1="117" y1="395" x2="117" y2="406" />
<line x1="117" y1="395" x2="128" y2="481" />
<line x1="128" y1="481" x2="125" y2="470" />
<line x1="128" y1="481" x2="128" y2="470" />
<line x1="118" y1="368" x2="303" y2="697" />
<line x1="303" y1="697" x2="296" y2="688" />
<line x1="303" y1="697" x2="300" y2="686" />
<line x1="118" y1="368" x2="128" y2="481" />
<line x1="128" y1="481" x2="125" y2="470" />
<line x1="128" y1="481" x2="129" y2="470" />
<line x1="122" y1="340" x2="785" y2="456" />
<line x1="785" y1="456" x2="774" y2="456" />
<line x1="785" y1="456" x2="774" y2="452" />
<line x1="122" y1="340" x2="779" y2="482" />
<line x1="779" y1="482" x2="768" y2="482" />
<line x1="779" y1="482" x2="768" y2="478" />
<line x1="121" y1="341" x2="120" y2="348" />
<line x1="120" y1="348" x2="120" y2="337" />
<line x1="120" y1="348" x2="123" y2="337" />
<line x1="124" y1="332" x2="771" y2="508" />
<line x1="771" y1="508" x2="760" y2="508" />
<line x1="771" y1="508" x2="761" y2="503" />
<line x1="124" y1="332" x2="520" y2="727" />
<line x1="520" y1="727" x2="511" y2="721" />
<line x1="520" y1="727" x2="514" y2="718" />
<line x1="123" y1="333" x2="120" y2="348" />
<line x1="120" y1="348" x2="120" y2="337" />
<line x1="120" y1="348" x2="124" y2="337" />
<line x1="126" y1="323" x2="489" y2="60" />
<line x1="489" y1="60" x2="481" y2="68" />
<line x1="489" y1="60" x2="479" y2="65" />
<line x1="130" y1="305" x2="650" y2="670" />
<line x1="650" y1="670" x2="640" y2="666" />
<line x1="650" y1="670" x2="642" y2="662" />
<line x1="132" y1="297" x2="650" y2="670" />
<line x1="650" y1="670" x2="640" y2="665" />
<line x1="650" y1="670" x2="642" y2="662" />
<line x1="135" y1="288" x2="777" y2="491" />
<line x1="777" y1="491" x2="766" y2="490" />
<line x1="777" y1="491" x2="767" y2="486" />
<line x1="148" y1="255" x2="771" y2="508" />
<line x1="771" y1="508" x2="760" y2="506" />
<line x1="771" y1="508" x2="761" y2="502" />
<line x1="152" y1="247" x2="756" y2="247" />
<line x1="756" y1="247" x2="745" y2="249" />
<line x1="756" y1="247" x2="745" y2="245" />
<line x1="156" y1="239" x2="781" y2="474" />
<line x1="781" y1="474" x2="770" y2="472" />
<line x1="781" y1="474" x2="771" y2="468" />
<line x1="155" y1="240" x2="151" y2="246" />
<line x1="155" y1="240" x2="151" y2="251" />
<line x1="155" y1="240" x2="147" y2="248" />
<line x1="160" y1="232" x2="151" y2="246" />
<line x1="151" y1="246" x2="155" y2="235" />
<line x1="151" y1="246" x2="159" y2="238" />
<line x1="169" y1="217" x2="147" y2="254" />
<line x1="169" y1="217" x2="165" y2="228" />
<line x1="169" y1="217" x2="162" y2="226" />
<line x1="282" y1="105" x2="269" y2="114" />
<line x1="269" y1="114" x2="277" y2="106" />
<line x1="269" y1="114" x2="279" y2="110" />
<line x1="307" y1="93" x2="476" y2="732" />
<line x1="476" y1="732" x2="471" y2="722" />
<line x1="476" y1="732" x2="476" y2="721" />
<line x1="315" y1="89" x2="414" y2="730" />
<line x1="414" y1="730" x2="411" y2="719" />
<line x1="414" y1="730" x2="414" y2="719" />
<line x1="323" y1="86" x2="414" y2="730" />
<line x1="414" y1="730" x2="411" y2="719" />
<line x1="414" y1="730" x2="414" y2="719" />
<line x1="322" y1="85" x2="277" y2="109" />
<line x1="277" y1="109" x2="286" y2="102" />
<line x1="277" y1="109" x2="288" y2="106" />
<line x1="333" y1="81" x2="788" y2="358" />
<line x1="788" y1="358" x2="777" y2="354" />
<line x1="788" y1="358" x2="780" y2="350" />
<line x1="332" y1="82" x2="759" y2="540" />
<line x1="759" y1="540" x2="750" y2="533" />
<line x1="759" y1="540" x2="753" y2="530" />
<line x1="340" y1="79" x2="458" y2="732" />
<line x1="458" y1="732" x2="454" y2="721" />
<line x1="458" y1="732" x2="458" y2="721" />
<line x1="340" y1="79" x2="423" y2="731" />
<line x1="423" y1="731" x2="420" y2="720" />
<line x1="423" y1="731" x2="423" y2="720" />
<line x1="349" y1="75" x2="774" y2="499" />
<line x1="774" y1="499" x2="765" y2="493" />
<line x1="774" y1="499" x2="768" y2="490" />
<line x1="400" y1="63" x2="384" y2="66" />
<line x1="400" y1="63" x2="389" y2="67" />
<line x1="400" y1="63" x2="389" y2="63" />
<line x1="409" y1="62" x2="396" y2="728" />
<line x1="396" y1="728" x2="395" y2="717" />
<line x1="396" y1="728" x2="398" y2="717" />
<line x1="419" y1="60" x2="489" y2="60" />
<line x1="489" y1="60" x2="478" y2="62" />
<line x1="489" y1="60" x2="478" y2="58" />
<line x1="418" y1="61" x2="405" y2="729" />
<line x1="405" y1="729" x2="404" y2="718" />
<line x1="405" y1="729" x2="407" y2="718" />
<line x1="418" y1="61" x2="396" y2="728" />
<line x1="396" y1="728" x2="395" y2="717" />
<line x1="396" y1="728" x2="398" y2="717" />
<line x1="418" y1="61" x2="379" y2="724" />
<line x1="379" y1="724" x2="378" y2="713" />
<line x1="379" y1="724" x2="381" y2="713" />
<line x1="418" y1="61" x2="353" y2="717" />
<line x1="353" y1="717" x2="352" y2="706" />
<line x1="353" y1="717" x2="356" y2="706" />
<line x1="427" y1="61" x2="353" y2="717" />
<line x1="353" y1="717" x2="353" y2="706" />
<line x1="353" y1="717" x2="356" y2="706" />
<line x1="436" y1="60" x2="353" y2="717" />
<line x1="353" y1="717" x2="353" y2="706" />
<line x1="353" y1="717" x2="356" y2="706" />
<line x1="445" y1="60" x2="353" y2="717" />
<line x1="353" y1="717" x2="353" y2="706" />
<line x1="353" y1="717" x2="356" y2="706" />
<circle cx="454" cy="59" r="2" style="fill:#ffffff" />
<circle cx="463" cy="59" r="2" style="fill:#ffffff" />
<circle cx="472" cy="59" r="2" style="fill:#ffffff" />
<circle cx="481" cy="60" r="2" style="fill:#ffffff" />
<circle cx="490" cy="60" r="2" style="fill:#ffffff" />
<circle cx="499" cy="61" r="2" style="fill:#ffffff" />
<circle cx="507" cy="63" r="2" style="fill:#ffffff" />
<circle cx="516" cy="64" r="2" style="fill:#ffffff" />
<circle cx="525" cy="66" r="2" style="fill:#ffffff" />
<circle cx="534" cy="68" r="2" style="fill:#ffffff" />
<circle cx="542" cy="70" r="2" style="fill:#ffffff" />
<circle cx="551" cy="73" r="2" style="fill:#ffffff" />
<circle cx="560" cy="75" r="2" style="fill:#ffffff" />
<circle cx="568" cy="78" r="2" style="fill:#ffffff" />
<circle cx="576" cy="81" r="2" style="fill:#ffffff" />
<circle cx="585" cy="85" r="2" style="fill:#ffffff" />
<circle cx="593" cy="88" r="2" style="fill:#ffffff" />
<circle cx="601" cy="92" r="2" style="fill:#ffffff" />
<circle cx="609" cy="96" r="2" style="fill:#ffffff" />
<circle cx="617" cy="100" r="2" style="fill:#ffffff" />
<circle cx="625" cy="105" r="2" style="fill:#ffffff" />
<circle cx="632" cy="109" r="2" style="fill:#ffffff" />
<circle cx="640" cy="114" r="2" style="fill:#ffffff" />
<circle cx="647" cy="119" r="2" style="fill:#ffffff" />
<circle cx="655" cy="125" r="2" style="fill:#ffffff" />
<circle cx="662" cy="130" r="2" style="fill:#ffffff" />
<circle cx="669" cy="136" r="2" style="fill:#ffffff" />
<circle cx="675" cy="141" r="2" style="fill:#ffffff" />
<circle cx="682" cy="147" r="2" style="fill:#ffffff" />
<circle cx="689" cy="153" r="2" style="fill:#ffffff" />
<circle cx="695" cy="160" r="2" style="fill:#ffffff" />
<circle cx="701" cy="166" r="2" style="fill:#ffffff" />
<circle cx="707" cy="173" r="2" style="fill:#ffffff" />
<circle cx="713" cy="180" r="2" style="fill:#ffffff" />
<circle cx="719" cy="187" r="2" style="fill:#ffffff" />
<circle cx="724" cy="194" r="2" style="fill:#ffffff" />
<circle cx="729" cy="201" r="2" style="fill:#ffffff" />
<circle cx="734" cy="208" r="2" style="fill:#ffffff" />
<circle cx="739" cy="216" r="2" style="fill:#ffffff" />
<circle cx="744" cy="223" r="2" style="fill:#ffffff" />
<circle cx="748" cy="231" r="2" style="fill:#ffffff" />
<circle cx="753" cy="239" r="2" style="fill:#ffffff" />
<circle cx="757" cy="247" r="2" style="fill:#ffffff" />
<circle cx="761" cy="255" r="2" style="fill:#ffffff" />
<circle cx="764" cy="263" r="2" style="fill:#ffffff" />
<circle cx="768" cy="272" r="2" style="fill:#ffffff" />
<circle cx="771" cy="280" r="2" style="fill:#ffffff" />
<circle cx="774" cy="288" r="2" style="fill:#ffffff" />
<circle cx="777" cy="297" r="2" style="fill:#ffffff" />
<circle cx="779" cy="305" r="2" style="fill:#ffffff" />
<circle cx="781" cy="314" r="2" style="fill:#ffffff" />
<circle cx="783" cy="323" r="2" style="fill:#ffffff" />
<circle cx="785" cy="332" r="2" style="fill:#ffffff" />
<circle cx="787" cy="340" r="2" style="fill:#ffffff" />
<circle cx="788" cy="349" r="2" style="fill:#ffffff" />
<circle cx="789" cy="358" r="2" style="fill:#ffffff" />
<circle cx="790" cy="367" r="2" style="fill:#ffffff" />
<circle cx="791" cy="376" r="2" style="fill:#ffffff" />
<circle cx="791" cy="385" r="2" style="fill:#ffffff" />
<circle cx="791" cy="394" r="2" style="fill:#ffffff" />
<circle cx="791" cy="403" r="2" style="fill:#ffffff" />
<circle cx="791" cy="412" r="2" style="fill:#ffffff" />
<circle cx="791" cy="421" r="2" style="fill:#ffffff" />
<circle cx="790" cy="429" r="2" style="fill:#ffffff" />
<circle cx="789" cy="438" r="2" style="fill:#ffffff" />
<circle cx="788" cy="447" r="2" style="fill:#ffffff" />
<circle cx="786" cy="456" r="2" style="fill:#ffffff" />
<circle cx="784" cy="465" r="2" style="fill:#ffffff" />
<circle cx="782" cy="474" r="2" style="fill:#ffffff" />
<circle cx="780" cy="482" r="2" style="fill:#ffffff" />
<circle cx="778" cy="491" r="2" style="fill:#ffffff" />
<circle cx="775" cy="499" r="2" style="fill:#ffffff" />
<circle cx="772" cy="508" r="2" style="fill:#ffffff" />
<circle cx="769" cy="516" r="2" style="fill:#ffffff" />
<circle cx="766" cy="525" r="2" style="fill:#ffffff" />
<circle cx="763" cy="533" r="2" style="fill:#ffffff" />
<circle cx="759" cy="541" r="2" style="fill:#ffffff" />
<circle cx="755" cy="549" r="2" style="fill:#ffffff" />
<circle cx="751" cy="557" r="2" style="fill:#ffffff" />
<circle cx="746" cy="565" r="2" style="fill:#ffffff" />
<circle cx="742" cy="572" r="2" style="fill:#ffffff" />
<circle cx="737" cy="580" r="2" style="fill:#ffffff" />
<circle cx="732" cy="587" r="2" style="fill:#ffffff" />
<circle cx="727" cy="595" r="2" style="fill:#ffffff" />
<circle cx="721" cy="602" r="2" style="fill:#ffffff" />
<circle cx="716" cy="609" r="2" style="fill:#ffffff" />
<circle cx="710" cy="616" r="2" style="fill:#ffffff" />
<circle cx="704" cy="622" r="2" style="fill:#ffffff" />
<circle cx="698" cy="629" r="2" style="fill:#ffffff" />
<circle cx="692" cy="635" r="2" style="fill:#ffffff" />
<circle cx="685" cy="642" r="2" style="fill:#ffffff" />
<circle cx="679" cy="648" r="2" style="fill:#ffffff" />
<circle cx="672" cy="654" r="2" style="fill:#ffffff" />
<circle cx="665" cy="659" r="2" style="fill:#ffffff" />
<circle cx="658" cy="665" r="2" style="fill:#ffffff" />
<circle cx="651" cy="670" r="2" style="fill:#ffffff" />
<circle cx="644" cy="675" r="2" style="fill:#ffffff" />
<circle cx="636" cy="680" r="2" style="fill:#ffffff" />
<circle cx="629" cy="685" r="2" style="fill:#ffffff" />
<circle cx="621" cy="689" r="2" style="fill:#ffffff" />
<circle cx="613" cy="694" r="2" style="fill:#ffffff" />
<circle cx="605" cy="698" r="2" style="fill:#ffffff" />
<circle cx="597" cy="702" r="2" style="fill:#ffffff" />
<circle cx="589" cy="705" r="2" style="fill:#ffffff" />
<circle cx="581" cy="709" r="2" style="fill:#ffffff" />
<circle cx="572" cy="712" r="2" style="fill:#ffffff" />
<circle cx="564" cy="715" r="2" style="fill:#ffffff" />
<circle cx="555" cy="718" r="2" style="fill:#ffffff" />
<circle cx="547" cy="721" r="2" style="fill:#ffffff" />
<circle cx="538" cy="723" r="2" style="fill:#ffffff" />
<circle cx="529" cy="725" r="2" style="fill:#ffffff" />
<circle cx="521" cy="727" r="2" style="fill:#ffffff" />
<circle cx="512" cy="729" r="2" style="fill:#ffffff" />
<circle cx="503" cy="730" r="2" style="fill:#ffffff" />
<circle cx="494" cy="731" r="2" style="fill:#ffffff" />
<circle cx="485" cy="732" r="2" style="fill:#ffffff" />
<circle cx="476" cy="733" r="2" style="fill:#ffffff" />
<circle cx="467" cy="733" r="2" style="fill:#ffffff" />
<circle cx="458" cy="733" r="2" style="fill:#ffffff" />
<circle cx="450" cy="733" r="2" style="fill:#ffffff" />
<circle cx="441" cy="733" r="2" style="fill:#ffffff" />
<circle cx="432" cy="733" r="2" style="fill:#ffffff" />
<circle cx="423" cy="732" r="2" style="fill:#ffffff" />
<circle cx="414" cy="731" r="2" style="fill:#ffffff" />
<circle cx="405" cy="730" r="2" style="fill:#ffffff" />
<circle cx="396" cy="729" r="2" style="fill:#ffffff" />
<circle cx="387" cy="727" r="2" style="fill:#ffffff" />
<circle cx="379" cy="725" r="2" style="fill:#ffffff" />
<circle cx="370" cy="723" r="2" style="fill:#ffffff" />
<circle cx="361" cy="721" r="2" style="fill:#ffffff" />
<circle cx="353" cy="718" r="2" style="fill:#ffffff" />
<circle cx="344" cy="715" r="2" style="fill:#ffffff" />
<circle cx="336" cy="712" r="2" style="fill:#ffffff" />
<circle cx="327" cy="709" r="2" style="fill:#ffffff" />
<circle cx="319" cy="705" r="2" style="fill:#ffffff" />
<circle cx="311" cy="702" r="2" style="fill:#ffffff" />
<circle cx="303" cy="698" r="2" style="fill:#ffffff" />
<circle cx="295" cy="694" r="2" style="fill:#ffffff" />
<circle cx="287" cy="689" r="2" style="fill:#ffffff" />
<circle cx="279" cy="685" r="2" style="fill:#ffffff" />
<circle cx="272" cy="680" r="2" style="fill:#ffffff" />
<circle cx="264" cy="675" r="2" style="fill:#ffffff" />
<circle cx="257" cy="670" r="2" style="fill:#ffffff" />
<circle cx="250" cy="665" r="2" style="fill:#ffffff" />
<circle cx="243" cy="659" r="2" style="fill:#ffffff" />
<circle cx="236" cy="654" r="2" style="fill:#ffffff" />
<circle cx="229" cy="648" r="2" style="fill:#ffffff" />
<circle cx="223" cy="642" r="2" style="fill:#ffffff" />
<circle cx="216" cy="635" r="2" style="fill:#ffffff" />
<circle cx="210" cy="629" r="2" style="fill:#ffffff" />
<circle cx="204" cy="622" r="2" style="fill:#ffffff" />
<circle cx="198" cy="616" r="2" style="fill:#ffffff" />
<circle cx="192" cy="609" r="2" style="fill:#ffffff" />
<circle cx="187" cy="602" r="2" style="fill:#ffffff" />
<circle cx="181" cy="595" r="2" style="fill:#ffffff" />
<circle cx="176" cy="587" r="2" style="fill:#ffffff" />
<circle cx="171" cy="580" r="2" style="fill:#ffffff" />
<circle cx="166" cy="572" r="2" style="fill:#ffffff" />
<circle cx="162" cy="565" r="2" style="fill:#ffffff" />
<circle cx="157" cy="557" r="2" style="fill:#ffffff" />
<circle cx="153" cy="549" r="2" style="fill:#ffffff" />
<circle cx="149" cy="541" r="2" style="fill:#ffffff" />
<circle cx="145" cy="533" r="2" style="fill:#ffffff" />
<circle cx="142" cy="525" r="2" style="fill:#ffffff" />
<circle cx="139" cy="516" r="2" style="fill:#ffffff" />
<circle cx="136" cy="508" r="2" style="fill:#ffffff" />
<circle cx="133" cy="499" r="2" style="fill:#ffffff" />
<circle cx="130" cy="491" r="2" style="fill:#ffffff" />
<circle cx="128" cy="482" r="2" style="fill:#ffffff" />
<circle cx="126" cy="474" r="2" style="fill:#ffffff" />
<circle cx="124" cy="465" r="2" style="fill:#ffffff" />
<circle cx="122" cy="456" r="2" style="fill:#ffffff" />
<circle cx="120" cy="447" r="2" style="fill:#ffffff" />
<circle cx="119" cy="438" r="2" style="fill:#ffffff" />
<circle cx="118" cy="429" r="2" style="fill:#ffffff" />
<circle cx="117" cy="421" r="2" style="fill:#ffffff" />
<circle cx="117" cy="412" r="2" style="fill:#ffffff" />
<circle cx="117" cy="403" r="2" style="fill:#ffffff" />
<circle cx="117" cy="394" r="2" style="fill:#ffffff" />
<circle cx="117" cy="385" r="2" style="fill:#ffffff" />
<circle cx="117" cy="376" r="2" style="fill:#ffffff" />
<circle cx="118" cy="367" r="2" style="fill:#ffffff" />
<circle cx="119" cy="358" r="2" style="fill:#ffffff" />
<circle cx="120" cy="349" r="2" style="fill:#ffffff" />
<circle cx="121" cy="340" r="2" style="fill:#ffffff" />
<circle cx="123" cy="332" r="2" style="fill:#ffffff" />
<circle cx="125" cy="323" r="2" style="fill:#ffffff" />
<circle cx="127" cy="314" r="2" style="fill:#ffffff" />
<circle cx="129" cy="305" r="2" style="fill:#ffffff" />
<circle cx="131" cy="297" r="2" style="fill:#ffffff" />
<circle cx="134" cy="288" r="2" style="fill:#ffffff" />
<circle cx="137" cy="280" r="2" style="fill:#ffffff" />
<circle cx="140" cy="272" r="2" style="fill:#ffffff" />
<circle cx="144" cy="263" r="2" style="fill:#ffffff" />
<circle cx="147" cy="255" r="2" style="fill:#ffffff" />
<circle cx="151" cy="247" r="2" style="fill:#ffffff" />
<circle cx="155" cy="239" r="2" style="fill:#ffffff" />
<circle cx="160" cy="231" r="2" style="fill:#ffffff" />
<circle cx="164" cy="223" r="2" style="fill:#ffffff" />
<circle cx="169" cy="216" r="2" style="fill:#ffffff" />
<circle cx="174" cy="208" r="2" style="fill:#ffffff" />
<circle cx="179" cy="201" r="2" style="fill:#ffffff" />
<circle cx="184" cy="194" r="2" style="fill:#ffffff" />
<circle cx="189" cy="187" r="2" style="fill:#ffffff" />
<circle cx="195" cy="180" r="2" style="fill:#ffffff" />
<circle cx="201" cy="173" r="2" style="fill:#ffffff" />
<circle cx="207" cy="166" r="2" style="fill:#ffffff" />
<circle cx="213" cy="160" r="2" style="fill:#ffffff" />
<circle cx="219" cy="153" r="2" style="fill:#ffffff" />
<circle cx="226" cy="147" r="2" style="fill:#ffffff" />
<circle cx="233" cy="141" r="2" style="fill:#ffffff" />
<circle cx="239" cy="136" r="2" style="fill:#ffffff" />
<circle cx="246" cy="130" r="2" style="fill:#ffffff" />
<circle cx="253" cy="125" r="2" style="fill:#ffffff" />
<circle cx="261" cy="119" r="2" style="fill:#ffffff" />
<circle cx="268" cy="114" r="2" style="fill:#ffffff" />
<circle cx="276" cy="109" r="2" style="fill:#ffffff" />
<circle cx="283" cy="105" r="2" style="fill:#ffffff" />
<circle cx="291" cy="100" r="2" style="fill:#ffffff" />
<circle cx="299" cy="96" r="2" style="fill:#ffffff" />
<circle cx="307" cy="92" r="2" style="fill:#ffffff" />
<circle cx="315" cy="88" r="2" style="fill:#ffffff" />
<circle cx="323" cy="85" r="2" style="fill:#ffffff" />
<circle cx="332" cy="81" r="2" style="fill:#ffffff" />
<circle cx="340" cy="78" r="2" style="fill:#ffffff" />
<circle cx="348" cy="75" r="2" style="fill:#ffffff" />
<circle cx="357" cy="73" r="2" style="fill:#ffffff" />
<circle cx="366" cy="70" r="2" style="fill:#ffffff" />
<circle cx="374" cy="68" r="2" style="fill:#ffffff" />
<circle cx="383" cy="66" r="2" style="fill:#ffffff" />
<circle cx="392" cy="64" r="2" style="fill:#ffffff" />
<circle cx="401" cy="63" r="2" style="fill:#ffffff" />
<circle cx="409" cy="61" r="2" style="fill:#ffffff" />
<circle cx="418" cy="60" r="2" style="fill:#ffffff" />
<circle cx="427" cy="60" r="2" style="fill:#ffffff" />
<circle cx="436" cy="59" r="2" style="fill:#ffffff" />
<circle cx="445" cy="59" r="2" style="fill:#ffffff" />
</g>
<g font-size="10.000000">
<text x="827" y="377">include/llvm/MC</text>
<text x="303" y="760">include/llvm/MC/MCAnalysis</text>
<text x="234" y="751">include/llvm/MC/MCParser</text>
<text x="20" y="584">lib/CodeGen/AsmPrinter</text>
<text x="71" y="260">lib/MC</text>
<text x="142" y="87">lib/MC/MCAnalysis</text>
<text x="243" y="29">lib/MC/MCDisassembler</text>
<text x="324" y="19">lib/MC/MCParser</text>
</g>
</svg>