<svg xmlns="http://www.w3.org/2000/svg" version="1.1" width="512" height="433">
<g  fill="#f5f5ff" stroke="#000000" style="stroke-width:1">
<line x1="239" y1="41" x2="238" y2="20" />
<line x1="336" y1="74" x2="349" y2="57" />
<line x1="339" y1="76" x2="353" y2="60" />
<line x1="359" y1="296" x2="375" y2="309" />
<line x1="345" y1="310" x2="359" y2="325" />
<line x1="310" y1="334" x2="319" y2="353" />
<line x1="208" y1="347" x2="203" y2="367" />
<line x1="171" y1="334" x2="162" y2="353" />
</g>
<g  fill="#f5f5ff" stroke="#ffb300" style="stroke-width:1">
<line x1="241" y1="46" x2="244" y2="46" />
<line x1="252" y1="46" x2="263" y2="47" />
<line x1="256" y1="46" x2="263" y2="47" />
<line x1="267" y1="48" x2="248" y2="46" />
<line x1="267" y1="48" x2="252" y2="46" />
<line x1="267" y1="48" x2="306" y2="61" />
<line x1="270" y1="49" x2="263" y2="47" />
<line x1="270" y1="49" x2="329" y2="74" />
<line x1="285" y1="52" x2="270" y2="49" />
<line x1="289" y1="53" x2="263" y2="47" />
<line x1="292" y1="55" x2="285" y2="52" />
<line x1="299" y1="57" x2="303" y2="59" />
<line x1="303" y1="59" x2="306" y2="61" />
<line x1="309" y1="62" x2="303" y2="59" />
<line x1="316" y1="66" x2="303" y2="59" />
<line x1="319" y1="68" x2="303" y2="59" />
<line x1="322" y1="70" x2="263" y2="47" />
</g>
<g  fill="#f5f5ff" stroke="#ff6800" style="stroke-width:1">
<line x1="338" y1="81" x2="244" y2="46" />
<line x1="340" y1="84" x2="270" y2="49" />
<line x1="343" y1="86" x2="270" y2="49" />
<line x1="343" y1="86" x2="335" y2="79" />
<line x1="343" y1="86" x2="172" y2="329" />
<line x1="343" y1="86" x2="178" y2="59" />
<line x1="346" y1="89" x2="354" y2="294" />
<line x1="351" y1="94" x2="214" y2="343" />
<line x1="351" y1="94" x2="270" y2="49" />
<line x1="351" y1="94" x2="329" y2="74" />
<line x1="354" y1="97" x2="149" y2="76" />
<line x1="354" y1="97" x2="326" y2="319" />
<line x1="361" y1="106" x2="356" y2="100" />
<line x1="361" y1="106" x2="358" y2="103" />
<line x1="365" y1="112" x2="263" y2="47" />
<line x1="365" y1="112" x2="367" y2="276" />
<line x1="365" y1="112" x2="351" y2="297" />
<line x1="365" y1="112" x2="329" y2="317" />
<line x1="365" y1="112" x2="278" y2="341" />
<line x1="367" y1="115" x2="263" y2="47" />
<line x1="367" y1="115" x2="335" y2="79" />
<line x1="373" y1="125" x2="376" y2="132" />
<line x1="373" y1="125" x2="388" y2="167" />
<line x1="375" y1="128" x2="386" y2="160" />
<line x1="375" y1="128" x2="155" y2="72" />
<line x1="375" y1="128" x2="381" y2="142" />
<line x1="375" y1="128" x2="384" y2="153" />
<line x1="375" y1="128" x2="373" y2="125" />
<line x1="375" y1="128" x2="389" y2="171" />
<line x1="375" y1="128" x2="387" y2="164" />
<line x1="378" y1="135" x2="387" y2="164" />
<line x1="378" y1="135" x2="159" y2="70" />
<line x1="378" y1="135" x2="376" y2="132" />
<line x1="378" y1="135" x2="329" y2="317" />
<line x1="379" y1="139" x2="389" y2="171" />
<line x1="379" y1="139" x2="123" y2="288" />
<line x1="379" y1="139" x2="388" y2="167" />
<line x1="379" y1="139" x2="387" y2="164" />
<line x1="379" y1="139" x2="329" y2="317" />
<line x1="381" y1="142" x2="389" y2="171" />
<line x1="381" y1="142" x2="378" y2="135" />
<line x1="382" y1="146" x2="386" y2="160" />
<line x1="382" y1="146" x2="373" y2="125" />
<line x1="382" y1="146" x2="389" y2="171" />
<line x1="383" y1="149" x2="329" y2="317" />
<line x1="383" y1="149" x2="322" y2="321" />
<line x1="383" y1="149" x2="159" y2="70" />
<line x1="383" y1="149" x2="182" y2="57" />
<line x1="383" y1="149" x2="155" y2="319" />
<line x1="383" y1="149" x2="207" y2="49" />
<line x1="383" y1="149" x2="120" y2="285" />
<line x1="383" y1="149" x2="93" y2="167" />
<line x1="383" y1="149" x2="92" y2="171" />
<line x1="383" y1="149" x2="91" y2="186" />
<line x1="384" y1="153" x2="382" y2="146" />
<line x1="384" y1="153" x2="203" y2="50" />
<line x1="384" y1="153" x2="378" y2="135" />
<line x1="384" y1="153" x2="105" y2="132" />
<line x1="384" y1="153" x2="135" y2="302" />
<line x1="385" y1="156" x2="389" y2="171" />
<line x1="385" y1="156" x2="112" y2="273" />
<line x1="385" y1="156" x2="329" y2="317" />
<line x1="385" y1="156" x2="332" y2="315" />
<line x1="388" y1="167" x2="108" y2="125" />
<line x1="389" y1="171" x2="99" y2="146" />
<line x1="389" y1="171" x2="112" y2="273" />
<line x1="389" y1="171" x2="329" y2="317" />
<line x1="389" y1="171" x2="103" y2="135" />
<line x1="389" y1="175" x2="146" y2="79" />
<line x1="390" y1="182" x2="390" y2="186" />
<line x1="390" y1="186" x2="338" y2="81" />
<line x1="390" y1="186" x2="289" y2="53" />
<line x1="390" y1="186" x2="356" y2="291" />
<line x1="390" y1="186" x2="340" y2="84" />
<line x1="390" y1="186" x2="338" y2="310" />
<line x1="390" y1="186" x2="367" y2="115" />
<line x1="390" y1="186" x2="343" y2="86" />
<line x1="390" y1="186" x2="365" y2="279" />
<line x1="390" y1="186" x2="369" y2="273" />
<line x1="390" y1="186" x2="375" y2="263" />
<line x1="390" y1="186" x2="376" y2="259" />
<line x1="390" y1="186" x2="270" y2="342" />
<line x1="390" y1="194" x2="389" y2="220" />
<line x1="390" y1="194" x2="292" y2="336" />
<line x1="390" y1="194" x2="388" y2="224" />
<line x1="390" y1="194" x2="233" y2="46" />
<line x1="390" y1="205" x2="389" y2="216" />
<line x1="390" y1="209" x2="125" y2="291" />
<line x1="390" y1="209" x2="91" y2="186" />
<line x1="390" y1="209" x2="229" y2="46" />
<line x1="390" y1="209" x2="92" y2="171" />
<line x1="390" y1="212" x2="381" y2="249" />
<line x1="389" y1="216" x2="389" y2="220" />
<line x1="389" y1="220" x2="92" y2="171" />
<line x1="389" y1="220" x2="292" y2="336" />
<line x1="388" y1="224" x2="390" y2="201" />
<line x1="387" y1="227" x2="390" y2="201" />
<line x1="387" y1="227" x2="252" y2="46" />
<line x1="387" y1="227" x2="233" y2="46" />
<line x1="387" y1="227" x2="322" y2="70" />
<line x1="387" y1="227" x2="329" y2="74" />
<line x1="387" y1="227" x2="390" y2="197" />
<line x1="387" y1="227" x2="285" y2="339" />
<line x1="386" y1="231" x2="259" y2="47" />
<line x1="386" y1="231" x2="233" y2="345" />
<line x1="386" y1="231" x2="278" y2="50" />
<line x1="385" y1="235" x2="263" y2="344" />
<line x1="385" y1="235" x2="233" y2="345" />
<line x1="385" y1="235" x2="389" y2="175" />
<line x1="385" y1="235" x2="329" y2="74" />
<line x1="385" y1="235" x2="356" y2="291" />
<line x1="385" y1="235" x2="386" y2="231" />
<line x1="385" y1="235" x2="316" y2="66" />
<line x1="385" y1="235" x2="248" y2="46" />
<line x1="385" y1="235" x2="270" y2="49" />
<line x1="385" y1="235" x2="292" y2="55" />
<line x1="384" y1="238" x2="363" y2="109" />
<line x1="383" y1="242" x2="91" y2="194" />
<line x1="383" y1="242" x2="189" y2="336" />
<line x1="383" y1="242" x2="229" y2="345" />
<line x1="383" y1="242" x2="96" y2="235" />
<line x1="383" y1="242" x2="102" y2="252" />
<line x1="383" y1="242" x2="97" y2="153" />
<line x1="383" y1="242" x2="211" y2="342" />
<line x1="383" y1="242" x2="116" y2="112" />
<line x1="383" y1="242" x2="200" y2="51" />
<line x1="383" y1="242" x2="123" y2="103" />
<line x1="383" y1="242" x2="155" y2="319" />
<line x1="383" y1="242" x2="146" y2="79" />
<line x1="383" y1="242" x2="229" y2="46" />
<line x1="383" y1="242" x2="367" y2="276" />
<line x1="383" y1="242" x2="363" y2="282" />
<line x1="383" y1="242" x2="358" y2="288" />
<line x1="383" y1="242" x2="203" y2="50" />
<line x1="383" y1="242" x2="332" y2="315" />
<line x1="383" y1="242" x2="390" y2="201" />
<line x1="383" y1="242" x2="390" y2="186" />
<line x1="383" y1="242" x2="375" y2="128" />
<line x1="383" y1="242" x2="299" y2="334" />
<line x1="383" y1="242" x2="285" y2="339" />
<line x1="383" y1="242" x2="365" y2="112" />
<line x1="383" y1="242" x2="313" y2="64" />
<line x1="383" y1="242" x2="259" y2="47" />
<line x1="383" y1="242" x2="244" y2="46" />
<line x1="383" y1="242" x2="369" y2="118" />
<line x1="383" y1="242" x2="233" y2="345" />
<line x1="383" y1="242" x2="244" y2="345" />
<line x1="383" y1="242" x2="241" y2="46" />
<line x1="382" y1="245" x2="381" y2="249" />
<line x1="379" y1="252" x2="381" y2="249" />
<line x1="376" y1="259" x2="335" y2="79" />
<line x1="373" y1="266" x2="356" y2="291" />
<line x1="373" y1="266" x2="143" y2="81" />
<line x1="371" y1="269" x2="141" y2="84" />
<line x1="369" y1="273" x2="356" y2="291" />
<line x1="369" y1="273" x2="335" y2="79" />
<line x1="367" y1="276" x2="363" y2="282" />
<line x1="365" y1="279" x2="371" y2="269" />
<line x1="365" y1="279" x2="373" y2="266" />
<line x1="363" y1="282" x2="270" y2="49" />
<line x1="356" y1="291" x2="270" y2="49" />
</g>
<g  fill="#f5f5ff" stroke="#a6bdd7" style="stroke-width:1">
<line x1="349" y1="300" x2="351" y2="297" />
</g>
<g  fill="#f5f5ff" stroke="#cea262" style="stroke-width:1">
<line x1="338" y1="310" x2="329" y2="317" />
<line x1="335" y1="312" x2="329" y2="317" />
<line x1="332" y1="315" x2="335" y2="312" />
<line x1="326" y1="319" x2="329" y2="317" />
</g>
<g  fill="#f5f5ff" stroke="#817066" style="stroke-width:1">
<line x1="303" y1="332" x2="285" y2="339" />
<line x1="303" y1="332" x2="211" y2="342" />
<line x1="299" y1="334" x2="296" y2="335" />
<line x1="299" y1="334" x2="285" y2="339" />
<line x1="289" y1="338" x2="285" y2="339" />
<line x1="285" y1="339" x2="292" y2="336" />
<line x1="274" y1="342" x2="211" y2="342" />
<line x1="270" y1="342" x2="211" y2="342" />
<line x1="270" y1="342" x2="274" y2="342" />
<line x1="267" y1="343" x2="278" y2="341" />
<line x1="256" y1="345" x2="233" y2="345" />
<line x1="248" y1="345" x2="233" y2="345" />
<line x1="237" y1="345" x2="233" y2="345" />
<line x1="233" y1="345" x2="267" y2="343" />
<line x1="225" y1="345" x2="267" y2="343" />
</g>
<g  fill="#f5f5ff" stroke="#007d34" style="stroke-width:1">
<line x1="207" y1="342" x2="93" y2="167" />
<line x1="207" y1="342" x2="274" y2="342" />
<line x1="207" y1="342" x2="211" y2="342" />
<line x1="207" y1="342" x2="91" y2="186" />
<line x1="207" y1="342" x2="182" y2="334" />
<line x1="207" y1="342" x2="155" y2="319" />
<line x1="207" y1="342" x2="237" y2="46" />
<line x1="203" y1="341" x2="211" y2="342" />
<line x1="203" y1="341" x2="178" y2="59" />
<line x1="203" y1="341" x2="172" y2="329" />
<line x1="203" y1="341" x2="100" y2="249" />
<line x1="196" y1="339" x2="168" y2="64" />
<line x1="196" y1="339" x2="118" y2="282" />
<line x1="196" y1="339" x2="118" y2="109" />
<line x1="196" y1="339" x2="143" y2="81" />
<line x1="196" y1="339" x2="138" y2="86" />
<line x1="196" y1="339" x2="141" y2="84" />
<line x1="196" y1="339" x2="91" y2="179" />
<line x1="192" y1="338" x2="141" y2="84" />
<line x1="192" y1="338" x2="146" y2="79" />
<line x1="192" y1="338" x2="182" y2="334" />
<line x1="192" y1="338" x2="143" y2="81" />
<line x1="192" y1="338" x2="218" y2="344" />
<line x1="192" y1="338" x2="168" y2="64" />
<line x1="182" y1="334" x2="138" y2="305" />
<line x1="182" y1="334" x2="229" y2="46" />
<line x1="178" y1="332" x2="196" y2="339" />
<line x1="178" y1="332" x2="203" y2="341" />
</g>
<g  fill="#f5f5ff" stroke="#f6768e" style="stroke-width:1">
<line x1="168" y1="327" x2="172" y2="62" />
<line x1="165" y1="325" x2="172" y2="62" />
<line x1="162" y1="323" x2="168" y2="327" />
<line x1="159" y1="321" x2="91" y2="197" />
<line x1="159" y1="321" x2="155" y2="319" />
<line x1="155" y1="319" x2="91" y2="197" />
<line x1="132" y1="300" x2="135" y2="302" />
<line x1="125" y1="291" x2="155" y2="319" />
<line x1="125" y1="291" x2="143" y2="310" />
<line x1="118" y1="282" x2="237" y2="46" />
<line x1="110" y1="269" x2="91" y2="201" />
<line x1="106" y1="263" x2="110" y2="269" />
<line x1="100" y1="249" x2="237" y2="46" />
<line x1="98" y1="242" x2="152" y2="74" />
<line x1="98" y1="242" x2="98" y2="149" />
<line x1="98" y1="242" x2="108" y2="266" />
<line x1="98" y1="242" x2="149" y2="315" />
<line x1="98" y1="242" x2="162" y2="323" />
<line x1="98" y1="242" x2="185" y2="56" />
<line x1="94" y1="227" x2="93" y2="224" />
<line x1="92" y1="220" x2="143" y2="310" />
<line x1="92" y1="216" x2="102" y2="252" />
<line x1="92" y1="216" x2="135" y2="302" />
<line x1="92" y1="216" x2="108" y2="125" />
<line x1="92" y1="216" x2="105" y2="132" />
<line x1="92" y1="216" x2="103" y2="135" />
<line x1="91" y1="212" x2="168" y2="327" />
<line x1="91" y1="209" x2="185" y2="56" />
<line x1="91" y1="209" x2="152" y2="317" />
<line x1="91" y1="209" x2="146" y2="312" />
<line x1="91" y1="209" x2="92" y2="216" />
<line x1="91" y1="209" x2="97" y2="153" />
<line x1="91" y1="194" x2="91" y2="201" />
<line x1="91" y1="194" x2="91" y2="182" />
<line x1="91" y1="194" x2="91" y2="197" />
<line x1="91" y1="194" x2="91" y2="205" />
<line x1="91" y1="190" x2="91" y2="194" />
<line x1="91" y1="190" x2="91" y2="186" />
<line x1="91" y1="190" x2="237" y2="46" />
<line x1="91" y1="186" x2="237" y2="46" />
<line x1="91" y1="179" x2="237" y2="46" />
<line x1="92" y1="175" x2="237" y2="46" />
<line x1="92" y1="175" x2="92" y2="171" />
<line x1="92" y1="171" x2="237" y2="46" />
<line x1="93" y1="167" x2="91" y2="182" />
<line x1="94" y1="164" x2="91" y2="182" />
<line x1="94" y1="164" x2="93" y2="167" />
<line x1="95" y1="160" x2="93" y2="167" />
<line x1="99" y1="146" x2="100" y2="142" />
<line x1="103" y1="135" x2="102" y2="139" />
<line x1="103" y1="135" x2="100" y2="142" />
<line x1="106" y1="128" x2="93" y2="167" />
<line x1="110" y1="122" x2="93" y2="167" />
<line x1="112" y1="118" x2="116" y2="112" />
<line x1="112" y1="118" x2="114" y2="115" />
<line x1="112" y1="118" x2="108" y2="125" />
<line x1="112" y1="118" x2="103" y2="135" />
<line x1="118" y1="109" x2="237" y2="46" />
<line x1="123" y1="103" x2="127" y2="97" />
<line x1="123" y1="103" x2="125" y2="100" />
<line x1="123" y1="103" x2="130" y2="94" />
<line x1="138" y1="86" x2="222" y2="47" />
<line x1="165" y1="66" x2="159" y2="70" />
<line x1="172" y1="62" x2="182" y2="57" />
<line x1="175" y1="61" x2="91" y2="205" />
<line x1="175" y1="61" x2="182" y2="57" />
<line x1="178" y1="59" x2="237" y2="46" />
<line x1="182" y1="57" x2="91" y2="205" />
<line x1="185" y1="56" x2="172" y2="62" />
<line x1="189" y1="55" x2="185" y2="56" />
<line x1="196" y1="52" x2="168" y2="64" />
<line x1="196" y1="52" x2="207" y2="49" />
<line x1="207" y1="49" x2="185" y2="56" />
<line x1="207" y1="49" x2="182" y2="57" />
<line x1="211" y1="49" x2="207" y2="49" />
<line x1="214" y1="48" x2="207" y2="49" />
<line x1="229" y1="46" x2="237" y2="46" />
<line x1="233" y1="46" x2="237" y2="46" />
</g>
<g  fill="#f5f5ff" stroke="#c10020" style="stroke-width:1">
</g>
<g  fill="#f5f5ff" stroke="#000000" style="stroke-width:1">
<circle cx="241" cy="46" r="1" style="fill:#ffffff" />
<circle cx="244" cy="46" r="1" style="fill:#ffffff" />
<circle cx="248" cy="46" r="1" style="fill:#ffffff" />
<circle cx="252" cy="46" r="1" style="fill:#ffffff" />
<circle cx="256" cy="46" r="1" style="fill:#ffffff" />
<circle cx="259" cy="47" r="1" style="fill:#ffffff" />
<circle cx="263" cy="47" r="1" style="fill:#ffffff" />
<circle cx="267" cy="48" r="1" style="fill:#ffffff" />
<circle cx="270" cy="49" r="1" style="fill:#ffffff" />
<circle cx="274" cy="49" r="1" style="fill:#ffffff" />
<circle cx="278" cy="50" r="1" style="fill:#ffffff" />
<circle cx="281" cy="51" r="1" style="fill:#ffffff" />
<circle cx="285" cy="52" r="1" style="fill:#ffffff" />
<circle cx="289" cy="53" r="1" style="fill:#ffffff" />
<circle cx="292" cy="55" r="1" style="fill:#ffffff" />
<circle cx="296" cy="56" r="1" style="fill:#ffffff" />
<circle cx="299" cy="57" r="1" style="fill:#ffffff" />
<circle cx="303" cy="59" r="1" style="fill:#ffffff" />
<circle cx="306" cy="61" r="1" style="fill:#ffffff" />
<circle cx="309" cy="62" r="1" style="fill:#ffffff" />
<circle cx="313" cy="64" r="1" style="fill:#ffffff" />
<circle cx="316" cy="66" r="1" style="fill:#ffffff" />
<circle cx="319" cy="68" r="1" style="fill:#ffffff" />
<circle cx="322" cy="70" r="1" style="fill:#ffffff" />
<circle cx="326" cy="72" r="1" style="fill:#ffffff" />
<circle cx="329" cy="74" r="1" style="fill:#ffffff" />
<circle cx="332" cy="76" r="1" style="fill:#ffffff" />
<circle cx="335" cy="79" r="1" style="fill:#ffffff" />
<circle cx="338" cy="81" r="1" style="fill:#ffffff" />
<circle cx="340" cy="84" r="1" style="fill:#ffffff" />
<circle cx="343" cy="86" r="1" style="fill:#ffffff" />
<circle cx="346" cy="89" r="1" style="fill:#ffffff" />
<circle cx="349" cy="91" r="1" style="fill:#ffffff" />
<circle cx="351" cy="94" r="1" style="fill:#ffffff" />
<circle cx="354" cy="97" r="1" style="fill:#ffffff" />
<circle cx="356" cy="100" r="1" style="fill:#ffffff" />
<circle cx="358" cy="103" r="1" style="fill:#ffffff" />
<circle cx="361" cy="106" r="1" style="fill:#ffffff" />
<circle cx="363" cy="109" r="1" style="fill:#ffffff" />
<circle cx="365" cy="112" r="1" style="fill:#ffffff" />
<circle cx="367" cy="115" r="1" style="fill:#ffffff" />
<circle cx="369" cy="118" r="1" style="fill:#ffffff" />
<circle cx="371" cy="122" r="1" style="fill:#ffffff" />
<circle cx="373" cy="125" r="1" style="fill:#ffffff" />
<circle cx="375" cy="128" r="1" style="fill:#ffffff" />
<circle cx="376" cy="132" r="1" style="fill:#ffffff" />
<circle cx="378" cy="135" r="1" style="fill:#ffffff" />
<circle cx="379" cy="139" r="1" style="fill:#ffffff" />
<circle cx="381" cy="142" r="1" style="fill:#ffffff" />
<circle cx="382" cy="146" r="1" style="fill:#ffffff" />
<circle cx="383" cy="149" r="1" style="fill:#ffffff" />
<circle cx="384" cy="153" r="1" style="fill:#ffffff" />
<circle cx="385" cy="156" r="1" style="fill:#ffffff" />
<circle cx="386" cy="160" r="1" style="fill:#ffffff" />
<circle cx="387" cy="164" r="1" style="fill:#ffffff" />
<circle cx="388" cy="167" r="1" style="fill:#ffffff" />
<circle cx="389" cy="171" r="1" style="fill:#ffffff" />
<circle cx="389" cy="175" r="1" style="fill:#ffffff" />
<circle cx="390" cy="179" r="1" style="fill:#ffffff" />
<circle cx="390" cy="182" r="1" style="fill:#ffffff" />
<circle cx="390" cy="186" r="1" style="fill:#ffffff" />
<circle cx="390" cy="190" r="1" style="fill:#ffffff" />
<circle cx="390" cy="194" r="1" style="fill:#ffffff" />
<circle cx="390" cy="197" r="1" style="fill:#ffffff" />
<circle cx="390" cy="201" r="1" style="fill:#ffffff" />
<circle cx="390" cy="205" r="1" style="fill:#ffffff" />
<circle cx="390" cy="209" r="1" style="fill:#ffffff" />
<circle cx="390" cy="212" r="1" style="fill:#ffffff" />
<circle cx="389" cy="216" r="1" style="fill:#ffffff" />
<circle cx="389" cy="220" r="1" style="fill:#ffffff" />
<circle cx="388" cy="224" r="1" style="fill:#ffffff" />
<circle cx="387" cy="227" r="1" style="fill:#ffffff" />
<circle cx="386" cy="231" r="1" style="fill:#ffffff" />
<circle cx="385" cy="235" r="1" style="fill:#ffffff" />
<circle cx="384" cy="238" r="1" style="fill:#ffffff" />
<circle cx="383" cy="242" r="1" style="fill:#ffffff" />
<circle cx="382" cy="245" r="1" style="fill:#ffffff" />
<circle cx="381" cy="249" r="1" style="fill:#ffffff" />
<circle cx="379" cy="252" r="1" style="fill:#ffffff" />
<circle cx="378" cy="256" r="1" style="fill:#ffffff" />
<circle cx="376" cy="259" r="1" style="fill:#ffffff" />
<circle cx="375" cy="263" r="1" style="fill:#ffffff" />
<circle cx="373" cy="266" r="1" style="fill:#ffffff" />
<circle cx="371" cy="269" r="1" style="fill:#ffffff" />
<circle cx="369" cy="273" r="1" style="fill:#ffffff" />
<circle cx="367" cy="276" r="1" style="fill:#ffffff" />
<circle cx="365" cy="279" r="1" style="fill:#ffffff" />
<circle cx="363" cy="282" r="1" style="fill:#ffffff" />
<circle cx="361" cy="285" r="1" style="fill:#ffffff" />
<circle cx="358" cy="288" r="1" style="fill:#ffffff" />
<circle cx="356" cy="291" r="1" style="fill:#ffffff" />
<circle cx="354" cy="294" r="1" style="fill:#ffffff" />
<circle cx="351" cy="297" r="1" style="fill:#ffffff" />
<circle cx="349" cy="300" r="1" style="fill:#ffffff" />
<circle cx="346" cy="302" r="1" style="fill:#ffffff" />
<circle cx="343" cy="305" r="1" style="fill:#ffffff" />
<circle cx="340" cy="307" r="1" style="fill:#ffffff" />
<circle cx="338" cy="310" r="1" style="fill:#ffffff" />
<circle cx="335" cy="312" r="1" style="fill:#ffffff" />
<circle cx="332" cy="315" r="1" style="fill:#ffffff" />
<circle cx="329" cy="317" r="1" style="fill:#ffffff" />
<circle cx="326" cy="319" r="1" style="fill:#ffffff" />
<circle cx="322" cy="321" r="1" style="fill:#ffffff" />
<circle cx="319" cy="323" r="1" style="fill:#ffffff" />
<circle cx="316" cy="325" r="1" style="fill:#ffffff" />
<circle cx="313" cy="327" r="1" style="fill:#ffffff" />
<circle cx="309" cy="329" r="1" style="fill:#ffffff" />
<circle cx="306" cy="330" r="1" style="fill:#ffffff" />
<circle cx="303" cy="332" r="1" style="fill:#ffffff" />
<circle cx="299" cy="334" r="1" style="fill:#ffffff" />
<circle cx="296" cy="335" r="1" style="fill:#ffffff" />
<circle cx="292" cy="336" r="1" style="fill:#ffffff" />
<circle cx="289" cy="338" r="1" style="fill:#ffffff" />
<circle cx="285" cy="339" r="1" style="fill:#ffffff" />
<circle cx="281" cy="340" r="1" style="fill:#ffffff" />
<circle cx="278" cy="341" r="1" style="fill:#ffffff" />
<circle cx="274" cy="342" r="1" style="fill:#ffffff" />
<circle cx="270" cy="342" r="1" style="fill:#ffffff" />
<circle cx="267" cy="343" r="1" style="fill:#ffffff" />
<circle cx="263" cy="344" r="1" style="fill:#ffffff" />
<circle cx="259" cy="344" r="1" style="fill:#ffffff" />
<circle cx="256" cy="345" r="1" style="fill:#ffffff" />
<circle cx="252" cy="345" r="1" style="fill:#ffffff" />
<circle cx="248" cy="345" r="1" style="fill:#ffffff" />
<circle cx="244" cy="345" r="1" style="fill:#ffffff" />
<circle cx="241" cy="345" r="1" style="fill:#ffffff" />
<circle cx="237" cy="345" r="1" style="fill:#ffffff" />
<circle cx="233" cy="345" r="1" style="fill:#ffffff" />
<circle cx="229" cy="345" r="1" style="fill:#ffffff" />
<circle cx="225" cy="345" r="1" style="fill:#ffffff" />
<circle cx="222" cy="344" r="1" style="fill:#ffffff" />
<circle cx="218" cy="344" r="1" style="fill:#ffffff" />
<circle cx="214" cy="343" r="1" style="fill:#ffffff" />
<circle cx="211" cy="342" r="1" style="fill:#ffffff" />
<circle cx="207" cy="342" r="1" style="fill:#ffffff" />
<circle cx="203" cy="341" r="1" style="fill:#ffffff" />
<circle cx="200" cy="340" r="1" style="fill:#ffffff" />
<circle cx="196" cy="339" r="1" style="fill:#ffffff" />
<circle cx="192" cy="338" r="1" style="fill:#ffffff" />
<circle cx="189" cy="336" r="1" style="fill:#ffffff" />
<circle cx="185" cy="335" r="1" style="fill:#ffffff" />
<circle cx="182" cy="334" r="1" style="fill:#ffffff" />
<circle cx="178" cy="332" r="1" style="fill:#ffffff" />
<circle cx="175" cy="330" r="1" style="fill:#ffffff" />
<circle cx="172" cy="329" r="1" style="fill:#ffffff" />
<circle cx="168" cy="327" r="1" style="fill:#ffffff" />
<circle cx="165" cy="325" r="1" style="fill:#ffffff" />
<circle cx="162" cy="323" r="1" style="fill:#ffffff" />
<circle cx="159" cy="321" r="1" style="fill:#ffffff" />
<circle cx="155" cy="319" r="1" style="fill:#ffffff" />
<circle cx="152" cy="317" r="1" style="fill:#ffffff" />
<circle cx="149" cy="315" r="1" style="fill:#ffffff" />
<circle cx="146" cy="312" r="1" style="fill:#ffffff" />
<circle cx="143" cy="310" r="1" style="fill:#ffffff" />
<circle cx="141" cy="307" r="1" style="fill:#ffffff" />
<circle cx="138" cy="305" r="1" style="fill:#ffffff" />
<circle cx="135" cy="302" r="1" style="fill:#ffffff" />
<circle cx="132" cy="300" r="1" style="fill:#ffffff" />
<circle cx="130" cy="297" r="1" style="fill:#ffffff" />
<circle cx="127" cy="294" r="1" style="fill:#ffffff" />
<circle cx="125" cy="291" r="1" style="fill:#ffffff" />
<circle cx="123" cy="288" r="1" style="fill:#ffffff" />
<circle cx="120" cy="285" r="1" style="fill:#ffffff" />
<circle cx="118" cy="282" r="1" style="fill:#ffffff" />
<circle cx="116" cy="279" r="1" style="fill:#ffffff" />
<circle cx="114" cy="276" r="1" style="fill:#ffffff" />
<circle cx="112" cy="273" r="1" style="fill:#ffffff" />
<circle cx="110" cy="269" r="1" style="fill:#ffffff" />
<circle cx="108" cy="266" r="1" style="fill:#ffffff" />
<circle cx="106" cy="263" r="1" style="fill:#ffffff" />
<circle cx="105" cy="259" r="1" style="fill:#ffffff" />
<circle cx="103" cy="256" r="1" style="fill:#ffffff" />
<circle cx="102" cy="252" r="1" style="fill:#ffffff" />
<circle cx="100" cy="249" r="1" style="fill:#ffffff" />
<circle cx="99" cy="245" r="1" style="fill:#ffffff" />
<circle cx="98" cy="242" r="1" style="fill:#ffffff" />
<circle cx="97" cy="238" r="1" style="fill:#ffffff" />
<circle cx="96" cy="235" r="1" style="fill:#ffffff" />
<circle cx="95" cy="231" r="1" style="fill:#ffffff" />
<circle cx="94" cy="227" r="1" style="fill:#ffffff" />
<circle cx="93" cy="224" r="1" style="fill:#ffffff" />
<circle cx="92" cy="220" r="1" style="fill:#ffffff" />
<circle cx="92" cy="216" r="1" style="fill:#ffffff" />
<circle cx="91" cy="212" r="1" style="fill:#ffffff" />
<circle cx="91" cy="209" r="1" style="fill:#ffffff" />
<circle cx="91" cy="205" r="1" style="fill:#ffffff" />
<circle cx="91" cy="201" r="1" style="fill:#ffffff" />
<circle cx="91" cy="197" r="1" style="fill:#ffffff" />
<circle cx="91" cy="194" r="1" style="fill:#ffffff" />
<circle cx="91" cy="190" r="1" style="fill:#ffffff" />
<circle cx="91" cy="186" r="1" style="fill:#ffffff" />
<circle cx="91" cy="182" r="1" style="fill:#ffffff" />
<circle cx="91" cy="179" r="1" style="fill:#ffffff" />
<circle cx="92" cy="175" r="1" style="fill:#ffffff" />
<circle cx="92" cy="171" r="1" style="fill:#ffffff" />
<circle cx="93" cy="167" r="1" style="fill:#ffffff" />
<circle cx="94" cy="164" r="1" style="fill:#ffffff" />
<circle cx="95" cy="160" r="1" style="fill:#ffffff" />
<circle cx="96" cy="156" r="1" style="fill:#ffffff" />
<circle cx="97" cy="153" r="1" style="fill:#ffffff" />
<circle cx="98" cy="149" r="1" style="fill:#ffffff" />
<circle cx="99" cy="146" r="1" style="fill:#ffffff" />
<circle cx="100" cy="142" r="1" style="fill:#ffffff" />
<circle cx="102" cy="139" r="1" style="fill:#ffffff" />
<circle cx="103" cy="135" r="1" style="fill:#ffffff" />
<circle cx="105" cy="132" r="1" style="fill:#ffffff" />
<circle cx="106" cy="128" r="1" style="fill:#ffffff" />
<circle cx="108" cy="125" r="1" style="fill:#ffffff" />
<circle cx="110" cy="122" r="1" style="fill:#ffffff" />
<circle cx="112" cy="118" r="1" style="fill:#ffffff" />
<circle cx="114" cy="115" r="1" style="fill:#ffffff" />
<circle cx="116" cy="112" r="1" style="fill:#ffffff" />
<circle cx="118" cy="109" r="1" style="fill:#ffffff" />
<circle cx="120" cy="106" r="1" style="fill:#ffffff" />
<circle cx="123" cy="103" r="1" style="fill:#ffffff" />
<circle cx="125" cy="100" r="1" style="fill:#ffffff" />
<circle cx="127" cy="97" r="1" style="fill:#ffffff" />
<circle cx="130" cy="94" r="1" style="fill:#ffffff" />
<circle cx="132" cy="91" r="1" style="fill:#ffffff" />
<circle cx="135" cy="89" r="1" style="fill:#ffffff" />
<circle cx="138" cy="86" r="1" style="fill:#ffffff" />
<circle cx="141" cy="84" r="1" style="fill:#ffffff" />
<circle cx="143" cy="81" r="1" style="fill:#ffffff" />
<circle cx="146" cy="79" r="1" style="fill:#ffffff" />
<circle cx="149" cy="76" r="1" style="fill:#ffffff" />
<circle cx="152" cy="74" r="1" style="fill:#ffffff" />
<circle cx="155" cy="72" r="1" style="fill:#ffffff" />
<circle cx="159" cy="70" r="1" style="fill:#ffffff" />
<circle cx="162" cy="68" r="1" style="fill:#ffffff" />
<circle cx="165" cy="66" r="1" style="fill:#ffffff" />
<circle cx="168" cy="64" r="1" style="fill:#ffffff" />
<circle cx="172" cy="62" r="1" style="fill:#ffffff" />
<circle cx="175" cy="61" r="1" style="fill:#ffffff" />
<circle cx="178" cy="59" r="1" style="fill:#ffffff" />
<circle cx="182" cy="57" r="1" style="fill:#ffffff" />
<circle cx="185" cy="56" r="1" style="fill:#ffffff" />
<circle cx="189" cy="55" r="1" style="fill:#ffffff" />
<circle cx="192" cy="53" r="1" style="fill:#ffffff" />
<circle cx="196" cy="52" r="1" style="fill:#ffffff" />
<circle cx="200" cy="51" r="1" style="fill:#ffffff" />
<circle cx="203" cy="50" r="1" style="fill:#ffffff" />
<circle cx="207" cy="49" r="1" style="fill:#ffffff" />
<circle cx="211" cy="49" r="1" style="fill:#ffffff" />
<circle cx="214" cy="48" r="1" style="fill:#ffffff" />
<circle cx="218" cy="47" r="1" style="fill:#ffffff" />
<circle cx="222" cy="47" r="1" style="fill:#ffffff" />
<circle cx="225" cy="46" r="1" style="fill:#ffffff" />
<circle cx="229" cy="46" r="1" style="fill:#ffffff" />
<circle cx="233" cy="46" r="1" style="fill:#ffffff" />
<circle cx="237" cy="46" r="1" style="fill:#ffffff" />
</g>
<g font-size="10.000000" stroke="none">
<text x="305" y="19">oovBuilder</text>
<text x="362" y="51">oovCMaker</text>
<text x="431" y="179">oovCommon</text>
<text x="379" y="325">oovCovInstr</text>
<text x="351" y="349">oovCppParser</text>
<text x="269" y="380">oovEdit</text>
<text x="93" y="370">oovGuiCommon</text>
<text x="19" y="156">oovcde</text>
</g>
</svg>