<svg xmlns="http://www.w3.org/2000/svg" version="1.1"
 font-family="Arial, Helvetica, sans-serif" font-size="10.00" width="432" height="353" viewbox="0 0 432 353">
<g  fill="#f5f5ff" stroke="#000000" style="stroke-width:1">
<line x1="272" y1="31" x2="281" y2="12" />
<line x1="274" y1="33" x2="284" y2="14" />
<line x1="349" y1="228" x2="369" y2="236" />
<line x1="344" y1="241" x2="363" y2="250" />
<line x1="325" y1="270" x2="341" y2="283" />
<line x1="306" y1="289" x2="319" y2="305" />
<line x1="228" y1="324" x2="231" y2="345" />
<line x1="189" y1="325" x2="187" y2="345" />
<line x1="58" y1="216" x2="38" y2="222" />
<line x1="205" y1="17" x2="205" y2="-4" />
</g>
<g  fill="#f5f5ff" stroke="#ffb300" style="stroke-width:1">
<line x1="206" y1="21" x2="208" y2="22" />
<line x1="213" y1="22" x2="219" y2="22" />
<line x1="216" y1="22" x2="219" y2="22" />
<line x1="221" y1="22" x2="211" y2="22" />
<line x1="221" y1="22" x2="213" y2="22" />
<line x1="221" y1="22" x2="249" y2="28" />
<line x1="229" y1="23" x2="237" y2="25" />
<line x1="231" y1="24" x2="219" y2="22" />
<line x1="231" y1="24" x2="269" y2="35" />
<line x1="237" y1="25" x2="219" y2="22" />
<line x1="237" y1="25" x2="269" y2="35" />
<line x1="237" y1="25" x2="264" y2="33" />
<line x1="239" y1="25" x2="229" y2="23" />
<line x1="247" y1="27" x2="254" y2="30" />
<line x1="252" y1="29" x2="254" y2="30" />
<line x1="254" y1="30" x2="249" y2="28" />
<line x1="257" y1="30" x2="254" y2="30" />
<line x1="259" y1="31" x2="254" y2="30" />
<line x1="261" y1="32" x2="219" y2="22" />
</g>
<g  fill="#f5f5ff" stroke="#ff6800" style="stroke-width:1">
<line x1="273" y1="38" x2="208" y2="22" />
<line x1="276" y1="39" x2="70" y2="232" />
<line x1="276" y1="39" x2="237" y2="25" />
<line x1="276" y1="39" x2="188" y2="319" />
<line x1="276" y1="39" x2="271" y2="37" />
<line x1="278" y1="40" x2="237" y2="25" />
<line x1="280" y1="41" x2="344" y2="228" />
<line x1="285" y1="44" x2="269" y2="35" />
<line x1="285" y1="44" x2="237" y2="25" />
<line x1="285" y1="44" x2="231" y2="318" />
<line x1="291" y1="48" x2="67" y2="225" />
<line x1="291" y1="48" x2="78" y2="248" />
<line x1="291" y1="48" x2="146" y2="308" />
<line x1="291" y1="48" x2="336" y2="244" />
<line x1="293" y1="50" x2="289" y2="47" />
<line x1="293" y1="50" x2="287" y2="45" />
<line x1="303" y1="58" x2="278" y2="302" />
<line x1="303" y1="58" x2="338" y2="242" />
<line x1="303" y1="58" x2="341" y2="235" />
<line x1="303" y1="58" x2="115" y2="289" />
<line x1="303" y1="58" x2="349" y2="215" />
<line x1="303" y1="58" x2="219" y2="22" />
<line x1="307" y1="61" x2="219" y2="22" />
<line x1="307" y1="61" x2="271" y2="37" />
<line x1="307" y1="61" x2="111" y2="286" />
<line x1="307" y1="61" x2="83" y2="87" />
<line x1="307" y1="61" x2="78" y2="94" />
<line x1="307" y1="61" x2="134" y2="302" />
<line x1="307" y1="61" x2="57" y2="155" />
<line x1="313" y1="67" x2="338" y2="242" />
<line x1="313" y1="67" x2="97" y2="69" />
<line x1="313" y1="67" x2="94" y2="73" />
<line x1="313" y1="67" x2="57" y2="170" />
<line x1="317" y1="71" x2="76" y2="244" />
<line x1="317" y1="71" x2="332" y2="91" />
<line x1="317" y1="71" x2="323" y2="79" />
<line x1="317" y1="71" x2="320" y2="75" />
<line x1="317" y1="71" x2="315" y2="69" />
<line x1="317" y1="71" x2="313" y2="67" />
<line x1="317" y1="71" x2="339" y2="103" />
<line x1="318" y1="73" x2="320" y2="75" />
<line x1="320" y1="75" x2="328" y2="85" />
<line x1="320" y1="75" x2="313" y2="67" />
<line x1="323" y1="79" x2="329" y2="87" />
<line x1="323" y1="79" x2="325" y2="81" />
<line x1="323" y1="79" x2="331" y2="89" />
<line x1="323" y1="79" x2="322" y2="77" />
<line x1="326" y1="83" x2="134" y2="302" />
<line x1="326" y1="83" x2="193" y2="22" />
<line x1="326" y1="83" x2="175" y2="25" />
<line x1="326" y1="83" x2="121" y2="48" />
<line x1="326" y1="83" x2="115" y2="53" />
<line x1="326" y1="83" x2="322" y2="265" />
<line x1="326" y1="83" x2="315" y2="273" />
<line x1="326" y1="83" x2="89" y2="79" />
<line x1="326" y1="83" x2="70" y2="110" />
<line x1="326" y1="83" x2="57" y2="182" />
<line x1="326" y1="83" x2="63" y2="213" />
<line x1="326" y1="83" x2="111" y2="286" />
<line x1="326" y1="83" x2="77" y2="246" />
<line x1="328" y1="85" x2="338" y2="242" />
<line x1="328" y1="85" x2="77" y2="246" />
<line x1="328" y1="85" x2="332" y2="91" />
<line x1="328" y1="85" x2="57" y2="172" />
<line x1="331" y1="89" x2="113" y2="55" />
<line x1="336" y1="98" x2="338" y2="242" />
<line x1="336" y1="98" x2="335" y2="246" />
<line x1="336" y1="98" x2="57" y2="170" />
<line x1="336" y1="98" x2="313" y2="67" />
<line x1="338" y1="100" x2="313" y2="67" />
<line x1="338" y1="100" x2="338" y2="242" />
<line x1="338" y1="100" x2="331" y2="89" />
<line x1="338" y1="100" x2="59" y2="198" />
<line x1="338" y1="100" x2="332" y2="91" />
<line x1="339" y1="103" x2="57" y2="187" />
<line x1="339" y1="103" x2="328" y2="85" />
<line x1="339" y1="103" x2="99" y2="67" />
<line x1="339" y1="103" x2="170" y2="316" />
<line x1="339" y1="103" x2="186" y2="23" />
<line x1="339" y1="103" x2="340" y2="105" />
<line x1="340" y1="105" x2="315" y2="69" />
<line x1="340" y1="105" x2="313" y2="67" />
<line x1="340" y1="105" x2="323" y2="79" />
<line x1="342" y1="110" x2="84" y2="257" />
<line x1="343" y1="112" x2="278" y2="40" />
<line x1="343" y1="112" x2="332" y2="251" />
<line x1="343" y1="112" x2="146" y2="308" />
<line x1="343" y1="112" x2="307" y2="61" />
<line x1="343" y1="112" x2="352" y2="203" />
<line x1="343" y1="112" x2="347" y2="220" />
<line x1="343" y1="112" x2="231" y2="24" />
<line x1="343" y1="112" x2="276" y2="303" />
<line x1="343" y1="112" x2="273" y2="38" />
<line x1="343" y1="112" x2="353" y2="200" />
<line x1="343" y1="112" x2="276" y2="39" />
<line x1="344" y1="114" x2="343" y2="112" />
<line x1="346" y1="119" x2="78" y2="248" />
<line x1="347" y1="122" x2="345" y2="117" />
<line x1="347" y1="122" x2="63" y2="215" />
<line x1="347" y1="122" x2="229" y2="319" />
<line x1="350" y1="132" x2="151" y2="310" />
<line x1="350" y1="132" x2="305" y2="282" />
<line x1="351" y1="137" x2="134" y2="302" />
<line x1="351" y1="137" x2="59" y2="195" />
<line x1="351" y1="137" x2="64" y2="218" />
<line x1="351" y1="137" x2="175" y2="317" />
<line x1="351" y1="137" x2="111" y2="286" />
<line x1="352" y1="139" x2="273" y2="304" />
<line x1="353" y1="142" x2="355" y2="180" />
<line x1="353" y1="144" x2="213" y2="22" />
<line x1="353" y1="144" x2="261" y2="32" />
<line x1="353" y1="144" x2="295" y2="291" />
<line x1="353" y1="144" x2="269" y2="35" />
<line x1="353" y1="144" x2="355" y2="155" />
<line x1="353" y1="144" x2="355" y2="165" />
<line x1="353" y1="144" x2="65" y2="220" />
<line x1="353" y1="147" x2="111" y2="286" />
<line x1="353" y1="147" x2="70" y2="110" />
<line x1="353" y1="147" x2="293" y2="292" />
<line x1="354" y1="149" x2="273" y2="304" />
<line x1="354" y1="149" x2="352" y2="139" />
<line x1="354" y1="152" x2="353" y2="147" />
<line x1="355" y1="157" x2="355" y2="165" />
<line x1="355" y1="160" x2="354" y2="152" />
<line x1="355" y1="162" x2="70" y2="110" />
<line x1="355" y1="162" x2="355" y2="157" />
<line x1="355" y1="162" x2="293" y2="292" />
<line x1="355" y1="162" x2="65" y2="220" />
<line x1="355" y1="162" x2="353" y2="147" />
<line x1="355" y1="168" x2="247" y2="315" />
<line x1="355" y1="168" x2="224" y2="23" />
<line x1="355" y1="168" x2="234" y2="24" />
<line x1="355" y1="170" x2="109" y2="58" />
<line x1="355" y1="170" x2="313" y2="67" />
<line x1="355" y1="170" x2="247" y2="315" />
<line x1="355" y1="170" x2="242" y2="316" />
<line x1="355" y1="170" x2="62" y2="132" />
<line x1="355" y1="170" x2="64" y2="124" />
<line x1="355" y1="170" x2="229" y2="319" />
<line x1="355" y1="170" x2="219" y2="320" />
<line x1="355" y1="170" x2="68" y2="114" />
<line x1="355" y1="170" x2="58" y2="152" />
<line x1="355" y1="170" x2="70" y2="110" />
<line x1="355" y1="170" x2="78" y2="94" />
<line x1="355" y1="170" x2="81" y2="89" />
<line x1="355" y1="170" x2="101" y2="277" />
<line x1="355" y1="170" x2="63" y2="213" />
<line x1="355" y1="170" x2="64" y2="218" />
<line x1="355" y1="170" x2="115" y2="53" />
<line x1="355" y1="170" x2="119" y2="50" />
<line x1="355" y1="170" x2="130" y2="43" />
<line x1="355" y1="170" x2="146" y2="34" />
<line x1="355" y1="170" x2="132" y2="301" />
<line x1="355" y1="170" x2="186" y2="23" />
<line x1="355" y1="170" x2="191" y2="22" />
<line x1="355" y1="170" x2="309" y2="63" />
<line x1="355" y1="170" x2="287" y2="297" />
<line x1="355" y1="170" x2="349" y2="213" />
<line x1="355" y1="170" x2="303" y2="58" />
<line x1="355" y1="170" x2="349" y2="215" />
<line x1="355" y1="170" x2="345" y2="225" />
<line x1="355" y1="170" x2="244" y2="27" />
<line x1="355" y1="170" x2="237" y2="25" />
<line x1="355" y1="170" x2="224" y2="23" />
<line x1="355" y1="170" x2="208" y2="22" />
<line x1="355" y1="170" x2="206" y2="21" />
<line x1="355" y1="170" x2="355" y2="165" />
<line x1="355" y1="170" x2="335" y2="246" />
<line x1="355" y1="170" x2="320" y2="267" />
<line x1="355" y1="170" x2="318" y2="269" />
<line x1="355" y1="170" x2="317" y2="271" />
<line x1="355" y1="170" x2="295" y2="291" />
<line x1="355" y1="170" x2="317" y2="71" />
<line x1="355" y1="170" x2="343" y2="112" />
<line x1="355" y1="170" x2="349" y2="127" />
<line x1="355" y1="170" x2="264" y2="309" />
<line x1="355" y1="170" x2="259" y2="311" />
<line x1="355" y1="172" x2="269" y2="35" />
<line x1="355" y1="172" x2="346" y2="223" />
<line x1="355" y1="172" x2="252" y2="29" />
<line x1="355" y1="172" x2="239" y2="25" />
<line x1="355" y1="172" x2="237" y2="25" />
<line x1="355" y1="172" x2="211" y2="22" />
<line x1="355" y1="172" x2="247" y2="315" />
<line x1="355" y1="172" x2="355" y2="168" />
<line x1="355" y1="172" x2="342" y2="110" />
<line x1="355" y1="177" x2="301" y2="56" />
<line x1="355" y1="185" x2="355" y2="182" />
<line x1="354" y1="190" x2="355" y2="187" />
<line x1="353" y1="200" x2="107" y2="282" />
<line x1="353" y1="200" x2="94" y2="269" />
<line x1="353" y1="200" x2="90" y2="265" />
<line x1="353" y1="200" x2="111" y2="286" />
<line x1="353" y1="200" x2="86" y2="259" />
<line x1="353" y1="200" x2="84" y2="257" />
<line x1="353" y1="200" x2="134" y2="302" />
<line x1="353" y1="200" x2="139" y2="304" />
<line x1="353" y1="200" x2="165" y2="315" />
<line x1="353" y1="200" x2="68" y2="228" />
<line x1="353" y1="200" x2="173" y2="317" />
<line x1="352" y1="203" x2="350" y2="210" />
<line x1="352" y1="203" x2="351" y2="205" />
<line x1="352" y1="203" x2="351" y2="208" />
<line x1="351" y1="205" x2="346" y2="223" />
<line x1="351" y1="205" x2="271" y2="37" />
<line x1="351" y1="208" x2="89" y2="263" />
<line x1="351" y1="208" x2="346" y2="223" />
<line x1="350" y1="210" x2="87" y2="261" />
<line x1="349" y1="213" x2="237" y2="25" />
<line x1="349" y1="215" x2="349" y2="213" />
<line x1="347" y1="220" x2="84" y2="257" />
<line x1="347" y1="220" x2="90" y2="265" />
<line x1="347" y1="220" x2="111" y2="286" />
<line x1="347" y1="220" x2="237" y2="25" />
<line x1="347" y1="220" x2="271" y2="37" />
<line x1="347" y1="220" x2="353" y2="198" />
<line x1="347" y1="220" x2="94" y2="269" />
<line x1="347" y1="220" x2="346" y2="223" />
<line x1="346" y1="223" x2="237" y2="25" />
</g>
<g  fill="#f5f5ff" stroke="#a6bdd7" style="stroke-width:1">
<line x1="340" y1="237" x2="341" y2="235" />
</g>
<g  fill="#f5f5ff" stroke="#cea262" style="stroke-width:1">
<line x1="336" y1="244" x2="338" y2="242" />
<line x1="335" y1="246" x2="334" y2="248" />
<line x1="334" y1="248" x2="338" y2="242" />
<line x1="332" y1="251" x2="338" y2="242" />
<line x1="322" y1="265" x2="338" y2="242" />
</g>
<g  fill="#f5f5ff" stroke="#817066" style="stroke-width:1">
<line x1="317" y1="271" x2="315" y2="273" />
<line x1="313" y1="275" x2="311" y2="277" />
<line x1="311" y1="277" x2="317" y2="271" />
<line x1="309" y1="279" x2="305" y2="282" />
<line x1="307" y1="281" x2="311" y2="277" />
<line x1="307" y1="281" x2="317" y2="271" />
<line x1="305" y1="282" x2="311" y2="277" />
<line x1="303" y1="284" x2="313" y2="275" />
</g>
<g  fill="#f5f5ff" stroke="#007d34" style="stroke-width:1">
<line x1="301" y1="286" x2="295" y2="291" />
<line x1="299" y1="287" x2="295" y2="291" />
<line x1="295" y1="291" x2="293" y2="292" />
<line x1="293" y1="292" x2="291" y2="294" />
<line x1="291" y1="294" x2="278" y2="302" />
<line x1="291" y1="294" x2="229" y2="319" />
<line x1="291" y1="294" x2="280" y2="301" />
<line x1="289" y1="295" x2="229" y2="319" />
<line x1="289" y1="295" x2="295" y2="291" />
<line x1="287" y1="297" x2="295" y2="291" />
<line x1="287" y1="297" x2="297" y2="289" />
<line x1="282" y1="299" x2="278" y2="302" />
<line x1="280" y1="301" x2="229" y2="319" />
<line x1="276" y1="303" x2="229" y2="319" />
<line x1="276" y1="303" x2="280" y2="301" />
<line x1="273" y1="304" x2="229" y2="319" />
<line x1="269" y1="307" x2="266" y2="308" />
<line x1="269" y1="307" x2="280" y2="301" />
<line x1="266" y1="308" x2="271" y2="305" />
<line x1="266" y1="308" x2="278" y2="302" />
<line x1="261" y1="310" x2="244" y2="315" />
<line x1="261" y1="310" x2="247" y2="315" />
<line x1="259" y1="311" x2="247" y2="315" />
<line x1="257" y1="312" x2="259" y2="311" />
<line x1="257" y1="312" x2="249" y2="314" />
<line x1="252" y1="313" x2="244" y2="315" />
<line x1="247" y1="315" x2="244" y2="315" />
<line x1="244" y1="315" x2="266" y2="308" />
<line x1="239" y1="317" x2="266" y2="308" />
</g>
<g  fill="#f5f5ff" stroke="#f6768e" style="stroke-width:1">
<line x1="226" y1="319" x2="134" y2="302" />
<line x1="226" y1="319" x2="63" y2="215" />
<line x1="226" y1="319" x2="221" y2="320" />
<line x1="226" y1="319" x2="229" y2="319" />
<line x1="226" y1="319" x2="280" y2="301" />
<line x1="224" y1="319" x2="153" y2="311" />
<line x1="224" y1="319" x2="105" y2="281" />
<line x1="224" y1="319" x2="155" y2="312" />
<line x1="224" y1="319" x2="72" y2="237" />
<line x1="224" y1="319" x2="271" y2="305" />
<line x1="224" y1="319" x2="90" y2="265" />
<line x1="224" y1="319" x2="87" y2="261" />
<line x1="224" y1="319" x2="117" y2="291" />
<line x1="224" y1="319" x2="89" y2="263" />
<line x1="221" y1="320" x2="175" y2="317" />
<line x1="221" y1="320" x2="64" y2="218" />
<line x1="221" y1="320" x2="211" y2="320" />
<line x1="216" y1="320" x2="204" y2="320" />
<line x1="216" y1="320" x2="224" y2="319" />
<line x1="206" y1="321" x2="84" y2="257" />
<line x1="206" y1="321" x2="234" y2="318" />
<line x1="206" y1="321" x2="221" y2="320" />
<line x1="206" y1="321" x2="89" y2="263" />
<line x1="206" y1="321" x2="72" y2="237" />
<line x1="206" y1="321" x2="87" y2="261" />
<line x1="206" y1="321" x2="170" y2="316" />
<line x1="204" y1="320" x2="170" y2="316" />
<line x1="204" y1="320" x2="160" y2="313" />
<line x1="204" y1="320" x2="188" y2="319" />
<line x1="204" y1="320" x2="70" y2="232" />
<line x1="204" y1="320" x2="229" y2="319" />
<line x1="201" y1="320" x2="199" y2="320" />
<line x1="193" y1="320" x2="65" y2="220" />
</g>
<g  fill="#f5f5ff" stroke="#00538a" style="stroke-width:1">
<line x1="181" y1="318" x2="165" y2="315" />
<line x1="181" y1="318" x2="183" y2="319" />
<line x1="181" y1="318" x2="173" y2="317" />
<line x1="181" y1="318" x2="139" y2="304" />
<line x1="181" y1="318" x2="68" y2="228" />
<line x1="181" y1="318" x2="107" y2="282" />
<line x1="181" y1="318" x2="86" y2="259" />
<line x1="178" y1="318" x2="107" y2="282" />
<line x1="178" y1="318" x2="68" y2="228" />
<line x1="178" y1="318" x2="165" y2="315" />
<line x1="178" y1="318" x2="139" y2="304" />
<line x1="178" y1="318" x2="173" y2="317" />
<line x1="178" y1="318" x2="86" y2="259" />
<line x1="175" y1="317" x2="173" y2="317" />
<line x1="173" y1="317" x2="130" y2="299" />
<line x1="168" y1="315" x2="130" y2="299" />
<line x1="168" y1="315" x2="173" y2="317" />
<line x1="165" y1="315" x2="119" y2="292" />
<line x1="160" y1="313" x2="158" y2="312" />
<line x1="158" y1="312" x2="63" y2="215" />
<line x1="155" y1="312" x2="158" y2="312" />
<line x1="153" y1="311" x2="158" y2="312" />
<line x1="148" y1="309" x2="151" y2="310" />
<line x1="141" y1="305" x2="63" y2="215" />
<line x1="139" y1="304" x2="121" y2="294" />
<line x1="136" y1="303" x2="158" y2="312" />
<line x1="136" y1="303" x2="134" y2="302" />
<line x1="136" y1="303" x2="132" y2="301" />
<line x1="134" y1="302" x2="158" y2="312" />
<line x1="132" y1="301" x2="130" y2="299" />
<line x1="132" y1="301" x2="127" y2="298" />
<line x1="132" y1="301" x2="125" y2="297" />
<line x1="132" y1="301" x2="123" y2="295" />
<line x1="132" y1="301" x2="121" y2="294" />
<line x1="132" y1="301" x2="119" y2="292" />
<line x1="117" y1="291" x2="158" y2="312" />
<line x1="113" y1="287" x2="63" y2="215" />
<line x1="113" y1="287" x2="111" y2="286" />
<line x1="111" y1="286" x2="158" y2="312" />
<line x1="111" y1="286" x2="63" y2="215" />
<line x1="109" y1="284" x2="123" y2="295" />
<line x1="109" y1="284" x2="107" y2="282" />
<line x1="107" y1="282" x2="123" y2="295" />
<line x1="105" y1="281" x2="158" y2="312" />
<line x1="101" y1="277" x2="99" y2="275" />
<line x1="101" y1="277" x2="103" y2="279" />
<line x1="101" y1="277" x2="97" y2="273" />
<line x1="90" y1="265" x2="66" y2="223" />
<line x1="86" y1="259" x2="125" y2="297" />
<line x1="73" y1="239" x2="77" y2="246" />
<line x1="71" y1="235" x2="68" y2="228" />
<line x1="70" y1="232" x2="158" y2="312" />
<line x1="69" y1="230" x2="127" y2="298" />
<line x1="69" y1="230" x2="68" y2="228" />
<line x1="68" y1="228" x2="127" y2="298" />
<line x1="65" y1="220" x2="63" y2="215" />
<line x1="64" y1="218" x2="63" y2="215" />
</g>
<g  fill="#f5f5ff" stroke="#ff7a5c" style="stroke-width:1">
<line x1="63" y1="213" x2="173" y2="317" />
<line x1="59" y1="195" x2="63" y2="213" />
<line x1="59" y1="195" x2="59" y2="200" />
<line x1="58" y1="190" x2="57" y2="187" />
<line x1="57" y1="185" x2="173" y2="317" />
<line x1="57" y1="185" x2="59" y2="195" />
<line x1="57" y1="177" x2="57" y2="180" />
<line x1="57" y1="162" x2="165" y2="315" />
<line x1="57" y1="157" x2="165" y2="315" />
<line x1="57" y1="155" x2="57" y2="162" />
<line x1="59" y1="147" x2="80" y2="91" />
<line x1="59" y1="147" x2="78" y2="94" />
<line x1="59" y1="147" x2="92" y2="75" />
<line x1="59" y1="147" x2="89" y2="79" />
<line x1="59" y1="147" x2="59" y2="195" />
<line x1="59" y1="147" x2="175" y2="25" />
<line x1="59" y1="147" x2="61" y2="137" />
<line x1="59" y1="147" x2="115" y2="53" />
<line x1="59" y1="147" x2="117" y2="51" />
<line x1="59" y1="147" x2="57" y2="160" />
<line x1="59" y1="147" x2="178" y2="24" />
<line x1="59" y1="147" x2="63" y2="213" />
<line x1="59" y1="147" x2="61" y2="205" />
<line x1="59" y1="147" x2="57" y2="162" />
<line x1="59" y1="142" x2="60" y2="139" />
<line x1="59" y1="142" x2="80" y2="91" />
<line x1="59" y1="142" x2="117" y2="51" />
<line x1="61" y1="137" x2="181" y2="318" />
<line x1="61" y1="137" x2="78" y2="248" />
<line x1="61" y1="137" x2="61" y2="205" />
<line x1="61" y1="137" x2="59" y2="195" />
<line x1="61" y1="137" x2="57" y2="160" />
<line x1="63" y1="129" x2="90" y2="77" />
<line x1="65" y1="122" x2="67" y2="117" />
<line x1="70" y1="110" x2="158" y2="312" />
<line x1="71" y1="107" x2="70" y2="110" />
<line x1="71" y1="107" x2="158" y2="312" />
<line x1="72" y1="105" x2="59" y2="200" />
<line x1="72" y1="105" x2="60" y2="139" />
<line x1="73" y1="103" x2="97" y2="69" />
<line x1="73" y1="103" x2="99" y2="67" />
<line x1="73" y1="103" x2="57" y2="187" />
<line x1="73" y1="103" x2="58" y2="152" />
<line x1="73" y1="103" x2="113" y2="55" />
<line x1="74" y1="100" x2="183" y2="319" />
<line x1="77" y1="96" x2="178" y2="24" />
<line x1="77" y1="96" x2="76" y2="98" />
<line x1="77" y1="96" x2="73" y2="103" />
<line x1="77" y1="96" x2="62" y2="132" />
<line x1="77" y1="96" x2="59" y2="144" />
<line x1="77" y1="96" x2="60" y2="203" />
<line x1="77" y1="96" x2="61" y2="208" />
<line x1="78" y1="94" x2="139" y2="304" />
<line x1="80" y1="91" x2="78" y2="94" />
<line x1="83" y1="87" x2="78" y2="94" />
<line x1="83" y1="87" x2="80" y2="91" />
<line x1="84" y1="85" x2="83" y2="87" />
<line x1="87" y1="81" x2="89" y2="79" />
<line x1="89" y1="79" x2="107" y2="282" />
<line x1="92" y1="75" x2="89" y2="79" />
<line x1="94" y1="73" x2="95" y2="71" />
<line x1="97" y1="69" x2="101" y2="65" />
<line x1="97" y1="69" x2="95" y2="71" />
<line x1="103" y1="63" x2="89" y2="79" />
<line x1="105" y1="61" x2="89" y2="79" />
<line x1="111" y1="56" x2="97" y2="69" />
<line x1="111" y1="56" x2="107" y2="60" />
<line x1="111" y1="56" x2="109" y2="58" />
<line x1="111" y1="56" x2="113" y2="55" />
<line x1="115" y1="53" x2="86" y2="259" />
<line x1="117" y1="51" x2="115" y2="53" />
<line x1="121" y1="48" x2="115" y2="53" />
<line x1="121" y1="48" x2="117" y2="51" />
<line x1="123" y1="47" x2="121" y2="48" />
<line x1="130" y1="43" x2="134" y2="40" />
<line x1="130" y1="43" x2="173" y2="25" />
<line x1="130" y1="43" x2="170" y2="26" />
<line x1="130" y1="43" x2="168" y2="27" />
<line x1="130" y1="43" x2="165" y2="27" />
<line x1="130" y1="43" x2="163" y2="28" />
<line x1="130" y1="43" x2="160" y2="29" />
<line x1="130" y1="43" x2="158" y2="30" />
<line x1="130" y1="43" x2="136" y2="39" />
<line x1="130" y1="43" x2="139" y2="38" />
<line x1="130" y1="43" x2="132" y2="41" />
<line x1="130" y1="43" x2="141" y2="37" />
<line x1="130" y1="43" x2="143" y2="35" />
<line x1="130" y1="43" x2="127" y2="44" />
<line x1="130" y1="43" x2="148" y2="33" />
<line x1="130" y1="43" x2="151" y2="32" />
<line x1="130" y1="43" x2="153" y2="31" />
<line x1="130" y1="43" x2="155" y2="30" />
<line x1="141" y1="37" x2="81" y2="253" />
<line x1="143" y1="35" x2="81" y2="253" />
<line x1="155" y1="30" x2="81" y2="253" />
<line x1="160" y1="29" x2="81" y2="253" />
<line x1="175" y1="25" x2="68" y2="228" />
<line x1="178" y1="24" x2="175" y2="25" />
<line x1="181" y1="24" x2="178" y2="24" />
<line x1="188" y1="23" x2="72" y2="237" />
<line x1="188" y1="23" x2="193" y2="22" />
<line x1="193" y1="22" x2="175" y2="25" />
<line x1="193" y1="22" x2="178" y2="24" />
<line x1="196" y1="22" x2="193" y2="22" />
<line x1="204" y1="22" x2="193" y2="22" />
</g>
<g  fill="#f5f5ff" stroke="#c10020" style="stroke-width:1">
</g>
<g  fill="#f5f5ff" stroke="#000000" style="stroke-width:1">
<circle cx="206" cy="21" r="1" style="fill:#ffffff" />
<circle cx="208" cy="22" r="1" style="fill:#ffffff" />
<circle cx="211" cy="22" r="1" style="fill:#ffffff" />
<circle cx="213" cy="22" r="1" style="fill:#ffffff" />
<circle cx="216" cy="22" r="1" style="fill:#ffffff" />
<circle cx="219" cy="22" r="1" style="fill:#ffffff" />
<circle cx="221" cy="22" r="1" style="fill:#ffffff" />
<circle cx="224" cy="23" r="1" style="fill:#ffffff" />
<circle cx="226" cy="23" r="1" style="fill:#ffffff" />
<circle cx="229" cy="23" r="1" style="fill:#ffffff" />
<circle cx="231" cy="24" r="1" style="fill:#ffffff" />
<circle cx="234" cy="24" r="1" style="fill:#ffffff" />
<circle cx="237" cy="25" r="1" style="fill:#ffffff" />
<circle cx="239" cy="25" r="1" style="fill:#ffffff" />
<circle cx="242" cy="26" r="1" style="fill:#ffffff" />
<circle cx="244" cy="27" r="1" style="fill:#ffffff" />
<circle cx="247" cy="27" r="1" style="fill:#ffffff" />
<circle cx="249" cy="28" r="1" style="fill:#ffffff" />
<circle cx="252" cy="29" r="1" style="fill:#ffffff" />
<circle cx="254" cy="30" r="1" style="fill:#ffffff" />
<circle cx="257" cy="30" r="1" style="fill:#ffffff" />
<circle cx="259" cy="31" r="1" style="fill:#ffffff" />
<circle cx="261" cy="32" r="1" style="fill:#ffffff" />
<circle cx="264" cy="33" r="1" style="fill:#ffffff" />
<circle cx="266" cy="34" r="1" style="fill:#ffffff" />
<circle cx="269" cy="35" r="1" style="fill:#ffffff" />
<circle cx="271" cy="37" r="1" style="fill:#ffffff" />
<circle cx="273" cy="38" r="1" style="fill:#ffffff" />
<circle cx="276" cy="39" r="1" style="fill:#ffffff" />
<circle cx="278" cy="40" r="1" style="fill:#ffffff" />
<circle cx="280" cy="41" r="1" style="fill:#ffffff" />
<circle cx="282" cy="43" r="1" style="fill:#ffffff" />
<circle cx="285" cy="44" r="1" style="fill:#ffffff" />
<circle cx="287" cy="45" r="1" style="fill:#ffffff" />
<circle cx="289" cy="47" r="1" style="fill:#ffffff" />
<circle cx="291" cy="48" r="1" style="fill:#ffffff" />
<circle cx="293" cy="50" r="1" style="fill:#ffffff" />
<circle cx="295" cy="51" r="1" style="fill:#ffffff" />
<circle cx="297" cy="53" r="1" style="fill:#ffffff" />
<circle cx="299" cy="55" r="1" style="fill:#ffffff" />
<circle cx="301" cy="56" r="1" style="fill:#ffffff" />
<circle cx="303" cy="58" r="1" style="fill:#ffffff" />
<circle cx="305" cy="60" r="1" style="fill:#ffffff" />
<circle cx="307" cy="61" r="1" style="fill:#ffffff" />
<circle cx="309" cy="63" r="1" style="fill:#ffffff" />
<circle cx="311" cy="65" r="1" style="fill:#ffffff" />
<circle cx="313" cy="67" r="1" style="fill:#ffffff" />
<circle cx="315" cy="69" r="1" style="fill:#ffffff" />
<circle cx="317" cy="71" r="1" style="fill:#ffffff" />
<circle cx="318" cy="73" r="1" style="fill:#ffffff" />
<circle cx="320" cy="75" r="1" style="fill:#ffffff" />
<circle cx="322" cy="77" r="1" style="fill:#ffffff" />
<circle cx="323" cy="79" r="1" style="fill:#ffffff" />
<circle cx="325" cy="81" r="1" style="fill:#ffffff" />
<circle cx="326" cy="83" r="1" style="fill:#ffffff" />
<circle cx="328" cy="85" r="1" style="fill:#ffffff" />
<circle cx="329" cy="87" r="1" style="fill:#ffffff" />
<circle cx="331" cy="89" r="1" style="fill:#ffffff" />
<circle cx="332" cy="91" r="1" style="fill:#ffffff" />
<circle cx="334" cy="94" r="1" style="fill:#ffffff" />
<circle cx="335" cy="96" r="1" style="fill:#ffffff" />
<circle cx="336" cy="98" r="1" style="fill:#ffffff" />
<circle cx="338" cy="100" r="1" style="fill:#ffffff" />
<circle cx="339" cy="103" r="1" style="fill:#ffffff" />
<circle cx="340" cy="105" r="1" style="fill:#ffffff" />
<circle cx="341" cy="107" r="1" style="fill:#ffffff" />
<circle cx="342" cy="110" r="1" style="fill:#ffffff" />
<circle cx="343" cy="112" r="1" style="fill:#ffffff" />
<circle cx="344" cy="114" r="1" style="fill:#ffffff" />
<circle cx="345" cy="117" r="1" style="fill:#ffffff" />
<circle cx="346" cy="119" r="1" style="fill:#ffffff" />
<circle cx="347" cy="122" r="1" style="fill:#ffffff" />
<circle cx="348" cy="124" r="1" style="fill:#ffffff" />
<circle cx="349" cy="127" r="1" style="fill:#ffffff" />
<circle cx="349" cy="129" r="1" style="fill:#ffffff" />
<circle cx="350" cy="132" r="1" style="fill:#ffffff" />
<circle cx="351" cy="134" r="1" style="fill:#ffffff" />
<circle cx="351" cy="137" r="1" style="fill:#ffffff" />
<circle cx="352" cy="139" r="1" style="fill:#ffffff" />
<circle cx="353" cy="142" r="1" style="fill:#ffffff" />
<circle cx="353" cy="144" r="1" style="fill:#ffffff" />
<circle cx="353" cy="147" r="1" style="fill:#ffffff" />
<circle cx="354" cy="149" r="1" style="fill:#ffffff" />
<circle cx="354" cy="152" r="1" style="fill:#ffffff" />
<circle cx="355" cy="155" r="1" style="fill:#ffffff" />
<circle cx="355" cy="157" r="1" style="fill:#ffffff" />
<circle cx="355" cy="160" r="1" style="fill:#ffffff" />
<circle cx="355" cy="162" r="1" style="fill:#ffffff" />
<circle cx="355" cy="165" r="1" style="fill:#ffffff" />
<circle cx="355" cy="168" r="1" style="fill:#ffffff" />
<circle cx="355" cy="170" r="1" style="fill:#ffffff" />
<circle cx="355" cy="172" r="1" style="fill:#ffffff" />
<circle cx="355" cy="174" r="1" style="fill:#ffffff" />
<circle cx="355" cy="177" r="1" style="fill:#ffffff" />
<circle cx="355" cy="180" r="1" style="fill:#ffffff" />
<circle cx="355" cy="182" r="1" style="fill:#ffffff" />
<circle cx="355" cy="185" r="1" style="fill:#ffffff" />
<circle cx="355" cy="187" r="1" style="fill:#ffffff" />
<circle cx="354" cy="190" r="1" style="fill:#ffffff" />
<circle cx="354" cy="193" r="1" style="fill:#ffffff" />
<circle cx="353" cy="195" r="1" style="fill:#ffffff" />
<circle cx="353" cy="198" r="1" style="fill:#ffffff" />
<circle cx="353" cy="200" r="1" style="fill:#ffffff" />
<circle cx="352" cy="203" r="1" style="fill:#ffffff" />
<circle cx="351" cy="205" r="1" style="fill:#ffffff" />
<circle cx="351" cy="208" r="1" style="fill:#ffffff" />
<circle cx="350" cy="210" r="1" style="fill:#ffffff" />
<circle cx="349" cy="213" r="1" style="fill:#ffffff" />
<circle cx="349" cy="215" r="1" style="fill:#ffffff" />
<circle cx="348" cy="218" r="1" style="fill:#ffffff" />
<circle cx="347" cy="220" r="1" style="fill:#ffffff" />
<circle cx="346" cy="223" r="1" style="fill:#ffffff" />
<circle cx="345" cy="225" r="1" style="fill:#ffffff" />
<circle cx="344" cy="228" r="1" style="fill:#ffffff" />
<circle cx="343" cy="230" r="1" style="fill:#ffffff" />
<circle cx="342" cy="232" r="1" style="fill:#ffffff" />
<circle cx="341" cy="235" r="1" style="fill:#ffffff" />
<circle cx="340" cy="237" r="1" style="fill:#ffffff" />
<circle cx="339" cy="239" r="1" style="fill:#ffffff" />
<circle cx="338" cy="242" r="1" style="fill:#ffffff" />
<circle cx="336" cy="244" r="1" style="fill:#ffffff" />
<circle cx="335" cy="246" r="1" style="fill:#ffffff" />
<circle cx="334" cy="248" r="1" style="fill:#ffffff" />
<circle cx="332" cy="251" r="1" style="fill:#ffffff" />
<circle cx="331" cy="253" r="1" style="fill:#ffffff" />
<circle cx="329" cy="255" r="1" style="fill:#ffffff" />
<circle cx="328" cy="257" r="1" style="fill:#ffffff" />
<circle cx="326" cy="259" r="1" style="fill:#ffffff" />
<circle cx="325" cy="261" r="1" style="fill:#ffffff" />
<circle cx="323" cy="263" r="1" style="fill:#ffffff" />
<circle cx="322" cy="265" r="1" style="fill:#ffffff" />
<circle cx="320" cy="267" r="1" style="fill:#ffffff" />
<circle cx="318" cy="269" r="1" style="fill:#ffffff" />
<circle cx="317" cy="271" r="1" style="fill:#ffffff" />
<circle cx="315" cy="273" r="1" style="fill:#ffffff" />
<circle cx="313" cy="275" r="1" style="fill:#ffffff" />
<circle cx="311" cy="277" r="1" style="fill:#ffffff" />
<circle cx="309" cy="279" r="1" style="fill:#ffffff" />
<circle cx="307" cy="281" r="1" style="fill:#ffffff" />
<circle cx="305" cy="282" r="1" style="fill:#ffffff" />
<circle cx="303" cy="284" r="1" style="fill:#ffffff" />
<circle cx="301" cy="286" r="1" style="fill:#ffffff" />
<circle cx="299" cy="287" r="1" style="fill:#ffffff" />
<circle cx="297" cy="289" r="1" style="fill:#ffffff" />
<circle cx="295" cy="291" r="1" style="fill:#ffffff" />
<circle cx="293" cy="292" r="1" style="fill:#ffffff" />
<circle cx="291" cy="294" r="1" style="fill:#ffffff" />
<circle cx="289" cy="295" r="1" style="fill:#ffffff" />
<circle cx="287" cy="297" r="1" style="fill:#ffffff" />
<circle cx="285" cy="298" r="1" style="fill:#ffffff" />
<circle cx="282" cy="299" r="1" style="fill:#ffffff" />
<circle cx="280" cy="301" r="1" style="fill:#ffffff" />
<circle cx="278" cy="302" r="1" style="fill:#ffffff" />
<circle cx="276" cy="303" r="1" style="fill:#ffffff" />
<circle cx="273" cy="304" r="1" style="fill:#ffffff" />
<circle cx="271" cy="305" r="1" style="fill:#ffffff" />
<circle cx="269" cy="307" r="1" style="fill:#ffffff" />
<circle cx="266" cy="308" r="1" style="fill:#ffffff" />
<circle cx="264" cy="309" r="1" style="fill:#ffffff" />
<circle cx="261" cy="310" r="1" style="fill:#ffffff" />
<circle cx="259" cy="311" r="1" style="fill:#ffffff" />
<circle cx="257" cy="312" r="1" style="fill:#ffffff" />
<circle cx="254" cy="312" r="1" style="fill:#ffffff" />
<circle cx="252" cy="313" r="1" style="fill:#ffffff" />
<circle cx="249" cy="314" r="1" style="fill:#ffffff" />
<circle cx="247" cy="315" r="1" style="fill:#ffffff" />
<circle cx="244" cy="315" r="1" style="fill:#ffffff" />
<circle cx="242" cy="316" r="1" style="fill:#ffffff" />
<circle cx="239" cy="317" r="1" style="fill:#ffffff" />
<circle cx="237" cy="317" r="1" style="fill:#ffffff" />
<circle cx="234" cy="318" r="1" style="fill:#ffffff" />
<circle cx="231" cy="318" r="1" style="fill:#ffffff" />
<circle cx="229" cy="319" r="1" style="fill:#ffffff" />
<circle cx="226" cy="319" r="1" style="fill:#ffffff" />
<circle cx="224" cy="319" r="1" style="fill:#ffffff" />
<circle cx="221" cy="320" r="1" style="fill:#ffffff" />
<circle cx="219" cy="320" r="1" style="fill:#ffffff" />
<circle cx="216" cy="320" r="1" style="fill:#ffffff" />
<circle cx="213" cy="320" r="1" style="fill:#ffffff" />
<circle cx="211" cy="320" r="1" style="fill:#ffffff" />
<circle cx="208" cy="320" r="1" style="fill:#ffffff" />
<circle cx="206" cy="321" r="1" style="fill:#ffffff" />
<circle cx="204" cy="320" r="1" style="fill:#ffffff" />
<circle cx="201" cy="320" r="1" style="fill:#ffffff" />
<circle cx="199" cy="320" r="1" style="fill:#ffffff" />
<circle cx="196" cy="320" r="1" style="fill:#ffffff" />
<circle cx="193" cy="320" r="1" style="fill:#ffffff" />
<circle cx="191" cy="320" r="1" style="fill:#ffffff" />
<circle cx="188" cy="319" r="1" style="fill:#ffffff" />
<circle cx="186" cy="319" r="1" style="fill:#ffffff" />
<circle cx="183" cy="319" r="1" style="fill:#ffffff" />
<circle cx="181" cy="318" r="1" style="fill:#ffffff" />
<circle cx="178" cy="318" r="1" style="fill:#ffffff" />
<circle cx="175" cy="317" r="1" style="fill:#ffffff" />
<circle cx="173" cy="317" r="1" style="fill:#ffffff" />
<circle cx="170" cy="316" r="1" style="fill:#ffffff" />
<circle cx="168" cy="315" r="1" style="fill:#ffffff" />
<circle cx="165" cy="315" r="1" style="fill:#ffffff" />
<circle cx="163" cy="314" r="1" style="fill:#ffffff" />
<circle cx="160" cy="313" r="1" style="fill:#ffffff" />
<circle cx="158" cy="312" r="1" style="fill:#ffffff" />
<circle cx="155" cy="312" r="1" style="fill:#ffffff" />
<circle cx="153" cy="311" r="1" style="fill:#ffffff" />
<circle cx="151" cy="310" r="1" style="fill:#ffffff" />
<circle cx="148" cy="309" r="1" style="fill:#ffffff" />
<circle cx="146" cy="308" r="1" style="fill:#ffffff" />
<circle cx="143" cy="307" r="1" style="fill:#ffffff" />
<circle cx="141" cy="305" r="1" style="fill:#ffffff" />
<circle cx="139" cy="304" r="1" style="fill:#ffffff" />
<circle cx="136" cy="303" r="1" style="fill:#ffffff" />
<circle cx="134" cy="302" r="1" style="fill:#ffffff" />
<circle cx="132" cy="301" r="1" style="fill:#ffffff" />
<circle cx="130" cy="299" r="1" style="fill:#ffffff" />
<circle cx="127" cy="298" r="1" style="fill:#ffffff" />
<circle cx="125" cy="297" r="1" style="fill:#ffffff" />
<circle cx="123" cy="295" r="1" style="fill:#ffffff" />
<circle cx="121" cy="294" r="1" style="fill:#ffffff" />
<circle cx="119" cy="292" r="1" style="fill:#ffffff" />
<circle cx="117" cy="291" r="1" style="fill:#ffffff" />
<circle cx="115" cy="289" r="1" style="fill:#ffffff" />
<circle cx="113" cy="287" r="1" style="fill:#ffffff" />
<circle cx="111" cy="286" r="1" style="fill:#ffffff" />
<circle cx="109" cy="284" r="1" style="fill:#ffffff" />
<circle cx="107" cy="282" r="1" style="fill:#ffffff" />
<circle cx="105" cy="281" r="1" style="fill:#ffffff" />
<circle cx="103" cy="279" r="1" style="fill:#ffffff" />
<circle cx="101" cy="277" r="1" style="fill:#ffffff" />
<circle cx="99" cy="275" r="1" style="fill:#ffffff" />
<circle cx="97" cy="273" r="1" style="fill:#ffffff" />
<circle cx="95" cy="271" r="1" style="fill:#ffffff" />
<circle cx="94" cy="269" r="1" style="fill:#ffffff" />
<circle cx="92" cy="267" r="1" style="fill:#ffffff" />
<circle cx="90" cy="265" r="1" style="fill:#ffffff" />
<circle cx="89" cy="263" r="1" style="fill:#ffffff" />
<circle cx="87" cy="261" r="1" style="fill:#ffffff" />
<circle cx="86" cy="259" r="1" style="fill:#ffffff" />
<circle cx="84" cy="257" r="1" style="fill:#ffffff" />
<circle cx="83" cy="255" r="1" style="fill:#ffffff" />
<circle cx="81" cy="253" r="1" style="fill:#ffffff" />
<circle cx="80" cy="251" r="1" style="fill:#ffffff" />
<circle cx="78" cy="248" r="1" style="fill:#ffffff" />
<circle cx="77" cy="246" r="1" style="fill:#ffffff" />
<circle cx="76" cy="244" r="1" style="fill:#ffffff" />
<circle cx="74" cy="242" r="1" style="fill:#ffffff" />
<circle cx="73" cy="239" r="1" style="fill:#ffffff" />
<circle cx="72" cy="237" r="1" style="fill:#ffffff" />
<circle cx="71" cy="235" r="1" style="fill:#ffffff" />
<circle cx="70" cy="232" r="1" style="fill:#ffffff" />
<circle cx="69" cy="230" r="1" style="fill:#ffffff" />
<circle cx="68" cy="228" r="1" style="fill:#ffffff" />
<circle cx="67" cy="225" r="1" style="fill:#ffffff" />
<circle cx="66" cy="223" r="1" style="fill:#ffffff" />
<circle cx="65" cy="220" r="1" style="fill:#ffffff" />
<circle cx="64" cy="218" r="1" style="fill:#ffffff" />
<circle cx="63" cy="215" r="1" style="fill:#ffffff" />
<circle cx="63" cy="213" r="1" style="fill:#ffffff" />
<circle cx="62" cy="210" r="1" style="fill:#ffffff" />
<circle cx="61" cy="208" r="1" style="fill:#ffffff" />
<circle cx="61" cy="205" r="1" style="fill:#ffffff" />
<circle cx="60" cy="203" r="1" style="fill:#ffffff" />
<circle cx="59" cy="200" r="1" style="fill:#ffffff" />
<circle cx="59" cy="198" r="1" style="fill:#ffffff" />
<circle cx="59" cy="195" r="1" style="fill:#ffffff" />
<circle cx="58" cy="193" r="1" style="fill:#ffffff" />
<circle cx="58" cy="190" r="1" style="fill:#ffffff" />
<circle cx="57" cy="187" r="1" style="fill:#ffffff" />
<circle cx="57" cy="185" r="1" style="fill:#ffffff" />
<circle cx="57" cy="182" r="1" style="fill:#ffffff" />
<circle cx="57" cy="180" r="1" style="fill:#ffffff" />
<circle cx="57" cy="177" r="1" style="fill:#ffffff" />
<circle cx="57" cy="174" r="1" style="fill:#ffffff" />
<circle cx="57" cy="172" r="1" style="fill:#ffffff" />
<circle cx="57" cy="170" r="1" style="fill:#ffffff" />
<circle cx="57" cy="168" r="1" style="fill:#ffffff" />
<circle cx="57" cy="165" r="1" style="fill:#ffffff" />
<circle cx="57" cy="162" r="1" style="fill:#ffffff" />
<circle cx="57" cy="160" r="1" style="fill:#ffffff" />
<circle cx="57" cy="157" r="1" style="fill:#ffffff" />
<circle cx="57" cy="155" r="1" style="fill:#ffffff" />
<circle cx="58" cy="152" r="1" style="fill:#ffffff" />
<circle cx="58" cy="149" r="1" style="fill:#ffffff" />
<circle cx="59" cy="147" r="1" style="fill:#ffffff" />
<circle cx="59" cy="144" r="1" style="fill:#ffffff" />
<circle cx="59" cy="142" r="1" style="fill:#ffffff" />
<circle cx="60" cy="139" r="1" style="fill:#ffffff" />
<circle cx="61" cy="137" r="1" style="fill:#ffffff" />
<circle cx="61" cy="134" r="1" style="fill:#ffffff" />
<circle cx="62" cy="132" r="1" style="fill:#ffffff" />
<circle cx="63" cy="129" r="1" style="fill:#ffffff" />
<circle cx="63" cy="127" r="1" style="fill:#ffffff" />
<circle cx="64" cy="124" r="1" style="fill:#ffffff" />
<circle cx="65" cy="122" r="1" style="fill:#ffffff" />
<circle cx="66" cy="119" r="1" style="fill:#ffffff" />
<circle cx="67" cy="117" r="1" style="fill:#ffffff" />
<circle cx="68" cy="114" r="1" style="fill:#ffffff" />
<circle cx="69" cy="112" r="1" style="fill:#ffffff" />
<circle cx="70" cy="110" r="1" style="fill:#ffffff" />
<circle cx="71" cy="107" r="1" style="fill:#ffffff" />
<circle cx="72" cy="105" r="1" style="fill:#ffffff" />
<circle cx="73" cy="103" r="1" style="fill:#ffffff" />
<circle cx="74" cy="100" r="1" style="fill:#ffffff" />
<circle cx="76" cy="98" r="1" style="fill:#ffffff" />
<circle cx="77" cy="96" r="1" style="fill:#ffffff" />
<circle cx="78" cy="94" r="1" style="fill:#ffffff" />
<circle cx="80" cy="91" r="1" style="fill:#ffffff" />
<circle cx="81" cy="89" r="1" style="fill:#ffffff" />
<circle cx="83" cy="87" r="1" style="fill:#ffffff" />
<circle cx="84" cy="85" r="1" style="fill:#ffffff" />
<circle cx="86" cy="83" r="1" style="fill:#ffffff" />
<circle cx="87" cy="81" r="1" style="fill:#ffffff" />
<circle cx="89" cy="79" r="1" style="fill:#ffffff" />
<circle cx="90" cy="77" r="1" style="fill:#ffffff" />
<circle cx="92" cy="75" r="1" style="fill:#ffffff" />
<circle cx="94" cy="73" r="1" style="fill:#ffffff" />
<circle cx="95" cy="71" r="1" style="fill:#ffffff" />
<circle cx="97" cy="69" r="1" style="fill:#ffffff" />
<circle cx="99" cy="67" r="1" style="fill:#ffffff" />
<circle cx="101" cy="65" r="1" style="fill:#ffffff" />
<circle cx="103" cy="63" r="1" style="fill:#ffffff" />
<circle cx="105" cy="61" r="1" style="fill:#ffffff" />
<circle cx="107" cy="60" r="1" style="fill:#ffffff" />
<circle cx="109" cy="58" r="1" style="fill:#ffffff" />
<circle cx="111" cy="56" r="1" style="fill:#ffffff" />
<circle cx="113" cy="55" r="1" style="fill:#ffffff" />
<circle cx="115" cy="53" r="1" style="fill:#ffffff" />
<circle cx="117" cy="51" r="1" style="fill:#ffffff" />
<circle cx="119" cy="50" r="1" style="fill:#ffffff" />
<circle cx="121" cy="48" r="1" style="fill:#ffffff" />
<circle cx="123" cy="47" r="1" style="fill:#ffffff" />
<circle cx="125" cy="45" r="1" style="fill:#ffffff" />
<circle cx="127" cy="44" r="1" style="fill:#ffffff" />
<circle cx="130" cy="43" r="1" style="fill:#ffffff" />
<circle cx="132" cy="41" r="1" style="fill:#ffffff" />
<circle cx="134" cy="40" r="1" style="fill:#ffffff" />
<circle cx="136" cy="39" r="1" style="fill:#ffffff" />
<circle cx="139" cy="38" r="1" style="fill:#ffffff" />
<circle cx="141" cy="37" r="1" style="fill:#ffffff" />
<circle cx="143" cy="35" r="1" style="fill:#ffffff" />
<circle cx="146" cy="34" r="1" style="fill:#ffffff" />
<circle cx="148" cy="33" r="1" style="fill:#ffffff" />
<circle cx="151" cy="32" r="1" style="fill:#ffffff" />
<circle cx="153" cy="31" r="1" style="fill:#ffffff" />
<circle cx="155" cy="30" r="1" style="fill:#ffffff" />
<circle cx="158" cy="30" r="1" style="fill:#ffffff" />
<circle cx="160" cy="29" r="1" style="fill:#ffffff" />
<circle cx="163" cy="28" r="1" style="fill:#ffffff" />
<circle cx="165" cy="27" r="1" style="fill:#ffffff" />
<circle cx="168" cy="27" r="1" style="fill:#ffffff" />
<circle cx="170" cy="26" r="1" style="fill:#ffffff" />
<circle cx="173" cy="25" r="1" style="fill:#ffffff" />
<circle cx="175" cy="25" r="1" style="fill:#ffffff" />
<circle cx="178" cy="24" r="1" style="fill:#ffffff" />
<circle cx="181" cy="24" r="1" style="fill:#ffffff" />
<circle cx="183" cy="23" r="1" style="fill:#ffffff" />
<circle cx="186" cy="23" r="1" style="fill:#ffffff" />
<circle cx="188" cy="23" r="1" style="fill:#ffffff" />
<circle cx="191" cy="22" r="1" style="fill:#ffffff" />
<circle cx="193" cy="22" r="1" style="fill:#ffffff" />
<circle cx="196" cy="22" r="1" style="fill:#ffffff" />
<circle cx="199" cy="22" r="1" style="fill:#ffffff" />
<circle cx="201" cy="22" r="1" style="fill:#ffffff" />
<circle cx="204" cy="22" r="1" style="fill:#ffffff" />
</g>
<g stroke="none">
<text x="240" y="20">oovBuilder</text>
<text x="273" y="32">oovCMaker</text>
<text x="351" y="118">oovCommon</text>
<text x="347" y="234">oovCovInstr</text>
<text x="335" y="256">oovCppParser</text>
<text x="315" y="281">oovDbWriter</text>
<text x="268" y="312">oovEdit</text>
<text x="208" y="325">oovGuiCommon</text>
<text x="68" y="290">oovaide</text>
<text x="20" y="80">oovaide/BLL</text>
</g>
</svg>