<svg xmlns="http://www.w3.org/2000/svg" version="1.1" width="512" height="433">
<g  fill="#f5f5ff" stroke="#000000" style="stroke-width:1">
<line x1="239" y1="41" x2="238" y2="20" />
<line x1="336" y1="74" x2="349" y2="57" />
<line x1="339" y1="76" x2="353" y2="60" />
<line x1="359" y1="296" x2="375" y2="309" />
<line x1="345" y1="310" x2="359" y2="325" />
<line x1="310" y1="334" x2="319" y2="353" />
<line x1="208" y1="347" x2="203" y2="367" />
<line x1="171" y1="334" x2="162" y2="353" />
</g>
<g  fill="#f5f5ff" stroke="#ff6800" style="stroke-width:1">
<line x1="390" y1="182" x2="289" y2="53" />
<line x1="390" y1="182" x2="382" y2="175" />
<line x1="390" y1="182" x2="385" y2="172" />
<line x1="390" y1="182" x2="335" y2="79" />
<line x1="390" y1="182" x2="383" y2="173" />
<line x1="390" y1="182" x2="387" y2="171" />
<line x1="390" y1="182" x2="349" y2="300" />
<line x1="390" y1="182" x2="389" y2="193" />
<line x1="390" y1="182" x2="385" y2="192" />
<line x1="390" y1="182" x2="326" y2="319" />
<line x1="390" y1="182" x2="387" y2="193" />
<line x1="390" y1="182" x2="384" y2="191" />
<line x1="390" y1="182" x2="259" y2="344" />
<line x1="390" y1="182" x2="385" y2="192" />
<line x1="390" y1="182" x2="381" y2="189" />
<line x1="390" y1="182" x2="189" y2="336" />
<line x1="390" y1="182" x2="382" y2="190" />
<line x1="390" y1="182" x2="380" y2="187" />
<line x1="390" y1="182" x2="94" y2="164" />
<line x1="390" y1="182" x2="379" y2="183" />
<line x1="390" y1="182" x2="379" y2="180" />
</g>
<g  fill="#f5f5ff" stroke="#007d34" style="stroke-width:1">
<line x1="189" y1="336" x2="259" y2="344" />
<line x1="189" y1="336" x2="200" y2="336" />
<line x1="189" y1="336" x2="200" y2="339" />
<line x1="189" y1="336" x2="94" y2="164" />
<line x1="189" y1="336" x2="182" y2="327" />
<line x1="189" y1="336" x2="186" y2="325" />
</g>
<g  fill="#f5f5ff" stroke="#c10020" style="stroke-width:1">
</g>
<g  fill="#f5f5ff" stroke="#000000" style="stroke-width:1">
<circle cx="289" cy="53" r="1" style="fill:#ffffff" />
<circle cx="335" cy="79" r="1" style="fill:#ffffff" />
<circle cx="390" cy="182" r="1" style="fill:#ffffff" />
<circle cx="349" cy="300" r="1" style="fill:#ffffff" />
<circle cx="326" cy="319" r="1" style="fill:#ffffff" />
<circle cx="259" cy="344" r="1" style="fill:#ffffff" />
<circle cx="189" cy="336" r="1" style="fill:#ffffff" />
<circle cx="94" cy="164" r="1" style="fill:#ffffff" />
</g>
<g font-size="10.000000" stroke="none">
<text x="305" y="19">oovBuilder</text>
<text x="362" y="51">oovCMaker</text>
<text x="431" y="179">oovCommon</text>
<text x="379" y="325">oovCovInstr</text>
<text x="351" y="349">oovCppParser</text>
<text x="269" y="380">oovEdit</text>
<text x="93" y="370">oovGuiCommon</text>
<text x="19" y="156">oovcde</text>
</g>
</svg>