<svg xmlns="http://www.w3.org/2000/svg" version="1.1" width="1164" height="727">
<g  fill="#f5f5ff" stroke="rgb(0,0,0)" style="stroke-width:1">
<line x1="558" y1="19" x2="557" y2="5" />
<line x1="240" y1="472" x2="227" y2="476" />
<line x1="649" y1="35" x2="618" y2="27" />
<line x1="618" y1="27" x2="629" y2="27" />
<line x1="618" y1="27" x2="628" y2="32" />
<line x1="649" y1="35" x2="630" y2="29" />
<line x1="649" y1="35" x2="638" y2="34" />
<line x1="649" y1="35" x2="639" y2="30" />
<line x1="649" y1="34" x2="643" y2="32" />
<line x1="649" y1="34" x2="638" y2="33" />
<line x1="649" y1="34" x2="639" y2="29" />
<line x1="661" y1="39" x2="618" y2="27" />
<line x1="618" y1="27" x2="629" y2="28" />
<line x1="618" y1="27" x2="628" y2="32" />
<line x1="673" y1="43" x2="618" y2="27" />
<line x1="618" y1="27" x2="629" y2="28" />
<line x1="618" y1="27" x2="628" y2="32" />
<line x1="742" y1="75" x2="726" y2="64" />
<line x1="742" y1="75" x2="732" y2="71" />
<line x1="742" y1="75" x2="734" y2="67" />
<line x1="752" y1="82" x2="726" y2="64" />
<line x1="726" y1="64" x2="736" y2="68" />
<line x1="726" y1="64" x2="734" y2="72" />
<line x1="792" y1="113" x2="748" y2="78" />
<line x1="748" y1="78" x2="758" y2="83" />
<line x1="748" y1="78" x2="755" y2="87" />
<line x1="886" y1="261" x2="864" y2="208" />
<line x1="864" y1="208" x2="870" y2="218" />
<line x1="864" y1="208" x2="866" y2="219" />
<line x1="890" y1="273" x2="852" y2="186" />
<line x1="890" y1="273" x2="884" y2="264" />
<line x1="890" y1="273" x2="888" y2="262" />
<line x1="890" y1="273" x2="888" y2="267" />
<line x1="890" y1="273" x2="885" y2="263" />
<line x1="890" y1="273" x2="889" y2="262" />
<line x1="893" y1="286" x2="870" y2="220" />
<line x1="893" y1="286" x2="888" y2="276" />
<line x1="893" y1="286" x2="892" y2="275" />
<line x1="876" y1="485" x2="616" y2="30" />
<line x1="616" y1="30" x2="623" y2="39" />
<line x1="616" y1="30" x2="619" y2="41" />
<line x1="861" y1="519" x2="876" y2="491" />
<line x1="861" y1="519" x2="864" y2="508" />
<line x1="861" y1="519" x2="868" y2="510" />
<line x1="861" y1="519" x2="871" y2="503" />
<line x1="861" y1="519" x2="865" y2="508" />
<line x1="861" y1="519" x2="869" y2="511" />
<line x1="790" y1="609" x2="837" y2="165" />
<line x1="837" y1="165" x2="837" y2="176" />
<line x1="837" y1="165" x2="834" y2="176" />
<line x1="792" y1="609" x2="870" y2="503" />
<line x1="870" y1="503" x2="865" y2="513" />
<line x1="870" y1="503" x2="862" y2="511" />
<line x1="793" y1="609" x2="796" y2="606" />
<line x1="793" y1="609" x2="799" y2="600" />
<line x1="793" y1="609" x2="802" y2="603" />
<line x1="771" y1="625" x2="602" y2="29" />
<line x1="602" y1="29" x2="607" y2="39" />
<line x1="602" y1="29" x2="603" y2="40" />
<line x1="771" y1="625" x2="688" y2="50" />
<line x1="771" y1="625" x2="768" y2="614" />
<line x1="771" y1="625" x2="771" y2="614" />
<line x1="771" y1="625" x2="821" y2="145" />
<line x1="821" y1="145" x2="821" y2="156" />
<line x1="821" y1="145" x2="818" y2="156" />
<line x1="774" y1="625" x2="822" y2="577" />
<line x1="822" y1="577" x2="816" y2="586" />
<line x1="822" y1="577" x2="813" y2="583" />
<line x1="760" y1="633" x2="775" y2="101" />
<line x1="760" y1="633" x2="759" y2="622" />
<line x1="760" y1="633" x2="762" y2="622" />
<line x1="750" y1="640" x2="723" y2="66" />
<line x1="723" y1="66" x2="725" y2="77" />
<line x1="723" y1="66" x2="722" y2="77" />
<line x1="740" y1="647" x2="900" y2="354" />
<line x1="740" y1="647" x2="743" y2="636" />
<line x1="740" y1="647" x2="747" y2="638" />
<line x1="742" y1="648" x2="768" y2="630" />
<line x1="768" y1="630" x2="760" y2="638" />
<line x1="768" y1="630" x2="758" y2="634" />
<line x1="742" y1="648" x2="757" y2="638" />
<line x1="757" y1="638" x2="749" y2="646" />
<line x1="757" y1="638" x2="746" y2="642" />
<line x1="728" y1="653" x2="700" y2="55" />
<line x1="728" y1="653" x2="726" y2="642" />
<line x1="728" y1="653" x2="729" y2="642" />
<line x1="728" y1="653" x2="711" y2="60" />
<line x1="728" y1="653" x2="726" y2="642" />
<line x1="728" y1="653" x2="729" y2="642" />
<line x1="728" y1="653" x2="745" y2="79" />
<line x1="728" y1="653" x2="727" y2="642" />
<line x1="728" y1="653" x2="730" y2="642" />
<line x1="728" y1="653" x2="765" y2="93" />
<line x1="728" y1="653" x2="727" y2="642" />
<line x1="728" y1="653" x2="730" y2="642" />
<line x1="728" y1="653" x2="785" y2="109" />
<line x1="728" y1="653" x2="728" y2="642" />
<line x1="728" y1="653" x2="731" y2="642" />
<line x1="728" y1="653" x2="804" y2="126" />
<line x1="728" y1="653" x2="728" y2="642" />
<line x1="728" y1="653" x2="731" y2="642" />
<line x1="728" y1="653" x2="813" y2="136" />
<line x1="728" y1="653" x2="728" y2="642" />
<line x1="728" y1="653" x2="732" y2="642" />
<line x1="729" y1="653" x2="900" y2="367" />
<line x1="729" y1="653" x2="733" y2="642" />
<line x1="729" y1="653" x2="736" y2="644" />
<line x1="731" y1="655" x2="757" y2="637" />
<line x1="757" y1="637" x2="749" y2="645" />
<line x1="757" y1="637" x2="747" y2="641" />
<line x1="720" y1="660" x2="787" y2="614" />
<line x1="720" y1="660" x2="728" y2="652" />
<line x1="720" y1="660" x2="730" y2="656" />
<line x1="709" y1="665" x2="805" y2="596" />
<line x1="709" y1="665" x2="717" y2="657" />
<line x1="709" y1="665" x2="719" y2="660" />
<line x1="709" y1="666" x2="768" y2="629" />
<line x1="709" y1="666" x2="717" y2="658" />
<line x1="709" y1="666" x2="720" y2="662" />
<line x1="685" y1="676" x2="691" y2="674" />
<line x1="685" y1="676" x2="695" y2="671" />
<line x1="685" y1="676" x2="696" y2="675" />
<line x1="673" y1="680" x2="691" y2="674" />
<line x1="673" y1="680" x2="683" y2="675" />
<line x1="673" y1="680" x2="684" y2="679" />
<line x1="661" y1="684" x2="691" y2="674" />
<line x1="661" y1="684" x2="671" y2="679" />
<line x1="661" y1="684" x2="672" y2="683" />
<line x1="636" y1="689" x2="874" y2="490" />
<line x1="636" y1="689" x2="643" y2="680" />
<line x1="636" y1="689" x2="646" y2="684" />
<line x1="636" y1="691" x2="691" y2="673" />
<line x1="636" y1="691" x2="646" y2="686" />
<line x1="636" y1="691" x2="647" y2="690" />
<line x1="624" y1="693" x2="630" y2="691" />
<line x1="624" y1="693" x2="634" y2="688" />
<line x1="624" y1="693" x2="635" y2="692" />
<line x1="611" y1="696" x2="630" y2="691" />
<line x1="611" y1="696" x2="621" y2="691" />
<line x1="611" y1="696" x2="622" y2="696" />
<line x1="523" y1="696" x2="777" y2="620" />
<line x1="523" y1="696" x2="533" y2="691" />
<line x1="523" y1="696" x2="534" y2="695" />
<line x1="523" y1="696" x2="757" y2="636" />
<line x1="523" y1="696" x2="533" y2="691" />
<line x1="523" y1="696" x2="534" y2="696" />
<line x1="510" y1="694" x2="517" y2="696" />
<line x1="517" y1="696" x2="506" y2="695" />
<line x1="517" y1="696" x2="507" y2="691" />
<line x1="498" y1="691" x2="517" y2="696" />
<line x1="517" y1="696" x2="506" y2="696" />
<line x1="517" y1="696" x2="507" y2="691" />
<line x1="485" y1="688" x2="517" y2="696" />
<line x1="517" y1="696" x2="506" y2="696" />
<line x1="517" y1="696" x2="507" y2="692" />
<line x1="449" y1="678" x2="467" y2="684" />
<line x1="449" y1="678" x2="460" y2="679" />
<line x1="449" y1="678" x2="459" y2="683" />
<line x1="449" y1="678" x2="455" y2="680" />
<line x1="449" y1="678" x2="460" y2="679" />
<line x1="449" y1="678" x2="459" y2="683" />
<line x1="434" y1="670" x2="615" y2="30" />
<line x1="615" y1="30" x2="614" y2="41" />
<line x1="615" y1="30" x2="610" y2="40" />
<line x1="422" y1="664" x2="564" y2="27" />
<line x1="422" y1="664" x2="422" y2="653" />
<line x1="422" y1="664" x2="426" y2="653" />
<line x1="423" y1="664" x2="733" y2="72" />
<line x1="423" y1="664" x2="426" y2="653" />
<line x1="423" y1="664" x2="430" y2="655" />
<line x1="423" y1="664" x2="774" y2="101" />
<line x1="423" y1="664" x2="427" y2="653" />
<line x1="423" y1="664" x2="431" y2="656" />
<line x1="424" y1="664" x2="842" y2="176" />
<line x1="424" y1="664" x2="430" y2="654" />
<line x1="424" y1="664" x2="433" y2="657" />
<line x1="424" y1="664" x2="855" y2="197" />
<line x1="424" y1="664" x2="430" y2="654" />
<line x1="424" y1="664" x2="433" y2="657" />
<line x1="424" y1="664" x2="867" y2="220" />
<line x1="424" y1="664" x2="430" y2="655" />
<line x1="424" y1="664" x2="433" y2="658" />
<line x1="425" y1="665" x2="888" y2="278" />
<line x1="425" y1="665" x2="432" y2="656" />
<line x1="425" y1="665" x2="435" y2="660" />
<line x1="425" y1="665" x2="893" y2="303" />
<line x1="425" y1="665" x2="432" y2="657" />
<line x1="425" y1="665" x2="435" y2="660" />
<line x1="425" y1="666" x2="898" y2="365" />
<line x1="425" y1="666" x2="433" y2="658" />
<line x1="425" y1="666" x2="436" y2="662" />
<line x1="425" y1="667" x2="517" y2="696" />
<line x1="517" y1="696" x2="506" y2="695" />
<line x1="517" y1="696" x2="507" y2="691" />
<line x1="425" y1="667" x2="504" y2="694" />
<line x1="425" y1="667" x2="436" y2="668" />
<line x1="425" y1="667" x2="435" y2="672" />
<line x1="425" y1="668" x2="492" y2="691" />
<line x1="425" y1="668" x2="436" y2="669" />
<line x1="425" y1="668" x2="435" y2="673" />
<line x1="425" y1="668" x2="431" y2="672" />
<line x1="425" y1="668" x2="436" y2="672" />
<line x1="425" y1="668" x2="433" y2="676" />
<line x1="414" y1="661" x2="892" y2="428" />
<line x1="414" y1="661" x2="423" y2="654" />
<line x1="414" y1="661" x2="425" y2="658" />
<line x1="414" y1="662" x2="714" y2="662" />
<line x1="414" y1="662" x2="425" y2="660" />
<line x1="414" y1="662" x2="425" y2="664" />
<line x1="360" y1="630" x2="397" y2="655" />
<line x1="360" y1="630" x2="371" y2="634" />
<line x1="360" y1="630" x2="368" y2="638" />
<line x1="351" y1="621" x2="431" y2="672" />
<line x1="431" y1="672" x2="420" y2="668" />
<line x1="431" y1="672" x2="423" y2="664" />
<line x1="323" y1="596" x2="419" y2="665" />
<line x1="419" y1="665" x2="409" y2="660" />
<line x1="419" y1="665" x2="411" y2="657" />
<line x1="306" y1="575" x2="736" y2="650" />
<line x1="736" y1="650" x2="725" y2="650" />
<line x1="736" y1="650" x2="725" y2="646" />
<line x1="306" y1="577" x2="419" y2="665" />
<line x1="419" y1="665" x2="409" y2="660" />
<line x1="419" y1="665" x2="412" y2="657" />
<line x1="296" y1="562" x2="563" y2="27" />
<line x1="296" y1="562" x2="299" y2="551" />
<line x1="296" y1="562" x2="303" y2="553" />
<line x1="297" y1="562" x2="763" y2="93" />
<line x1="297" y1="562" x2="303" y2="553" />
<line x1="297" y1="562" x2="306" y2="556" />
<line x1="298" y1="563" x2="782" y2="108" />
<line x1="298" y1="563" x2="305" y2="554" />
<line x1="298" y1="563" x2="308" y2="557" />
<line x1="298" y1="563" x2="801" y2="125" />
<line x1="298" y1="563" x2="305" y2="554" />
<line x1="298" y1="563" x2="308" y2="557" />
<line x1="298" y1="563" x2="810" y2="135" />
<line x1="298" y1="563" x2="305" y2="554" />
<line x1="298" y1="563" x2="308" y2="558" />
<line x1="298" y1="564" x2="898" y2="364" />
<line x1="298" y1="564" x2="308" y2="559" />
<line x1="298" y1="564" x2="309" y2="563" />
<line x1="298" y1="565" x2="898" y2="377" />
<line x1="298" y1="565" x2="308" y2="560" />
<line x1="298" y1="565" x2="309" y2="564" />
<line x1="298" y1="565" x2="897" y2="390" />
<line x1="298" y1="565" x2="308" y2="560" />
<line x1="298" y1="565" x2="309" y2="564" />
<line x1="298" y1="565" x2="896" y2="402" />
<line x1="298" y1="565" x2="308" y2="560" />
<line x1="298" y1="565" x2="309" y2="565" />
<line x1="298" y1="565" x2="894" y2="415" />
<line x1="298" y1="565" x2="308" y2="560" />
<line x1="298" y1="565" x2="309" y2="565" />
<line x1="298" y1="565" x2="889" y2="440" />
<line x1="298" y1="565" x2="309" y2="561" />
<line x1="298" y1="565" x2="309" y2="565" />
<line x1="298" y1="567" x2="431" y2="671" />
<line x1="298" y1="567" x2="308" y2="572" />
<line x1="298" y1="567" x2="305" y2="575" />
<line x1="298" y1="567" x2="419" y2="665" />
<line x1="298" y1="567" x2="308" y2="572" />
<line x1="298" y1="567" x2="305" y2="576" />
<line x1="291" y1="557" x2="419" y2="665" />
<line x1="419" y1="665" x2="409" y2="660" />
<line x1="419" y1="665" x2="412" y2="656" />
<line x1="284" y1="545" x2="517" y2="695" />
<line x1="284" y1="545" x2="295" y2="549" />
<line x1="284" y1="545" x2="292" y2="553" />
<line x1="239" y1="442" x2="517" y2="694" />
<line x1="517" y1="694" x2="507" y2="688" />
<line x1="517" y1="694" x2="510" y2="685" />
<line x1="227" y1="367" x2="228" y2="387" />
<line x1="227" y1="367" x2="229" y2="378" />
<line x1="227" y1="367" x2="226" y2="378" />
<line x1="227" y1="367" x2="227" y2="374" />
<line x1="227" y1="367" x2="229" y2="378" />
<line x1="227" y1="367" x2="225" y2="378" />
<line x1="233" y1="304" x2="421" y2="664" />
<line x1="421" y1="664" x2="414" y2="655" />
<line x1="421" y1="664" x2="418" y2="653" />
<line x1="237" y1="279" x2="295" y2="562" />
<line x1="295" y1="562" x2="291" y2="551" />
<line x1="295" y1="562" x2="295" y2="551" />
<line x1="246" y1="255" x2="421" y2="664" />
<line x1="421" y1="664" x2="415" y2="655" />
<line x1="421" y1="664" x2="419" y2="653" />
<line x1="265" y1="208" x2="227" y2="348" />
<line x1="265" y1="208" x2="265" y2="219" />
<line x1="265" y1="208" x2="260" y2="218" />
<line x1="265" y1="208" x2="230" y2="311" />
<line x1="265" y1="208" x2="264" y2="219" />
<line x1="265" y1="208" x2="260" y2="218" />
<line x1="264" y1="208" x2="233" y2="298" />
<line x1="264" y1="208" x2="263" y2="219" />
<line x1="264" y1="208" x2="259" y2="218" />
<line x1="264" y1="208" x2="235" y2="286" />
<line x1="264" y1="208" x2="262" y2="219" />
<line x1="264" y1="208" x2="258" y2="218" />
<line x1="264" y1="208" x2="238" y2="273" />
<line x1="264" y1="208" x2="262" y2="219" />
<line x1="264" y1="208" x2="258" y2="218" />
<line x1="264" y1="208" x2="242" y2="261" />
<line x1="264" y1="208" x2="262" y2="219" />
<line x1="264" y1="208" x2="258" y2="218" />
<line x1="264" y1="208" x2="246" y2="249" />
<line x1="264" y1="208" x2="262" y2="219" />
<line x1="264" y1="208" x2="258" y2="217" />
<line x1="264" y1="208" x2="250" y2="237" />
<line x1="264" y1="208" x2="261" y2="219" />
<line x1="264" y1="208" x2="257" y2="217" />
<line x1="264" y1="208" x2="255" y2="225" />
<line x1="264" y1="208" x2="261" y2="219" />
<line x1="264" y1="208" x2="257" y2="217" />
<line x1="264" y1="208" x2="260" y2="214" />
<line x1="264" y1="208" x2="260" y2="219" />
<line x1="264" y1="208" x2="256" y2="216" />
<line x1="271" y1="197" x2="227" y2="348" />
<line x1="271" y1="197" x2="270" y2="208" />
<line x1="271" y1="197" x2="266" y2="207" />
<line x1="271" y1="197" x2="227" y2="336" />
<line x1="227" y1="336" x2="228" y2="325" />
<line x1="227" y1="336" x2="232" y2="326" />
<line x1="270" y1="197" x2="231" y2="311" />
<line x1="270" y1="197" x2="269" y2="208" />
<line x1="270" y1="197" x2="265" y2="207" />
<line x1="270" y1="197" x2="235" y2="286" />
<line x1="270" y1="197" x2="268" y2="208" />
<line x1="270" y1="197" x2="264" y2="207" />
<line x1="277" y1="186" x2="228" y2="387" />
<line x1="277" y1="186" x2="277" y2="197" />
<line x1="277" y1="186" x2="273" y2="196" />
<line x1="299" y1="155" x2="422" y2="664" />
<line x1="422" y1="664" x2="418" y2="654" />
<line x1="422" y1="664" x2="422" y2="653" />
<line x1="307" y1="145" x2="422" y2="664" />
<line x1="422" y1="664" x2="418" y2="653" />
<line x1="422" y1="664" x2="422" y2="653" />
<line x1="324" y1="126" x2="422" y2="664" />
<line x1="422" y1="664" x2="418" y2="653" />
<line x1="422" y1="664" x2="422" y2="653" />
<line x1="333" y1="118" x2="422" y2="664" />
<line x1="422" y1="664" x2="418" y2="653" />
<line x1="422" y1="664" x2="422" y2="653" />
<line x1="343" y1="109" x2="422" y2="664" />
<line x1="422" y1="664" x2="419" y2="653" />
<line x1="422" y1="664" x2="422" y2="653" />
<line x1="356" y1="98" x2="848" y2="183" />
<line x1="848" y1="183" x2="837" y2="183" />
<line x1="848" y1="183" x2="837" y2="179" />
<line x1="353" y1="101" x2="520" y2="693" />
<line x1="520" y1="693" x2="515" y2="683" />
<line x1="520" y1="693" x2="519" y2="682" />
<line x1="353" y1="101" x2="422" y2="664" />
<line x1="422" y1="664" x2="419" y2="653" />
<line x1="422" y1="664" x2="422" y2="653" />
<line x1="353" y1="101" x2="239" y2="449" />
<line x1="239" y1="449" x2="240" y2="438" />
<line x1="239" y1="449" x2="244" y2="439" />
<line x1="352" y1="101" x2="232" y2="412" />
<line x1="232" y1="412" x2="234" y2="401" />
<line x1="232" y1="412" x2="238" y2="402" />
<line x1="351" y1="101" x2="293" y2="159" />
<line x1="293" y1="159" x2="299" y2="150" />
<line x1="293" y1="159" x2="302" y2="153" />
<line x1="350" y1="100" x2="318" y2="131" />
<line x1="318" y1="131" x2="324" y2="122" />
<line x1="318" y1="131" x2="327" y2="125" />
<line x1="397" y1="69" x2="612" y2="27" />
<line x1="612" y1="27" x2="601" y2="31" />
<line x1="612" y1="27" x2="601" y2="27" />
<line x1="397" y1="71" x2="857" y2="520" />
<line x1="857" y1="520" x2="848" y2="514" />
<line x1="857" y1="520" x2="851" y2="511" />
<line x1="394" y1="72" x2="422" y2="664" />
<line x1="422" y1="664" x2="420" y2="653" />
<line x1="422" y1="664" x2="423" y2="653" />
<line x1="393" y1="72" x2="228" y2="374" />
<line x1="393" y1="72" x2="390" y2="83" />
<line x1="393" y1="72" x2="386" y2="81" />
<line x1="391" y1="71" x2="280" y2="181" />
<line x1="391" y1="71" x2="385" y2="80" />
<line x1="391" y1="71" x2="382" y2="77" />
<line x1="391" y1="71" x2="356" y2="96" />
<line x1="391" y1="71" x2="383" y2="79" />
<line x1="391" y1="71" x2="381" y2="76" />
<line x1="402" y1="65" x2="356" y2="96" />
<line x1="402" y1="65" x2="394" y2="73" />
<line x1="402" y1="65" x2="391" y2="69" />
<line x1="402" y1="64" x2="397" y2="68" />
<line x1="397" y1="68" x2="404" y2="59" />
<line x1="397" y1="68" x2="407" y2="63" />
<line x1="417" y1="60" x2="422" y2="664" />
<line x1="422" y1="664" x2="420" y2="653" />
<line x1="422" y1="664" x2="424" y2="653" />
<line x1="414" y1="58" x2="408" y2="62" />
<line x1="414" y1="58" x2="406" y2="66" />
<line x1="414" y1="58" x2="403" y2="62" />
<line x1="428" y1="55" x2="422" y2="664" />
<line x1="422" y1="664" x2="420" y2="653" />
<line x1="422" y1="664" x2="424" y2="653" />
<line x1="440" y1="50" x2="422" y2="664" />
<line x1="422" y1="664" x2="421" y2="653" />
<line x1="422" y1="664" x2="424" y2="653" />
<line x1="461" y1="41" x2="274" y2="192" />
<line x1="274" y1="192" x2="281" y2="183" />
<line x1="274" y1="192" x2="284" y2="187" />
<line x1="461" y1="40" x2="356" y2="97" />
<line x1="356" y1="97" x2="365" y2="90" />
<line x1="356" y1="97" x2="367" y2="94" />
<line x1="473" y1="37" x2="302" y2="151" />
<line x1="473" y1="37" x2="465" y2="45" />
<line x1="473" y1="37" x2="462" y2="41" />
<line x1="473" y1="36" x2="346" y2="105" />
<line x1="473" y1="36" x2="464" y2="43" />
<line x1="473" y1="36" x2="462" y2="39" />
<line x1="473" y1="36" x2="356" y2="97" />
<line x1="473" y1="36" x2="464" y2="43" />
<line x1="473" y1="36" x2="462" y2="39" />
<line x1="491" y1="33" x2="848" y2="182" />
<line x1="848" y1="182" x2="837" y2="180" />
<line x1="848" y1="182" x2="838" y2="176" />
<line x1="485" y1="34" x2="262" y2="215" />
<line x1="485" y1="34" x2="478" y2="43" />
<line x1="485" y1="34" x2="475" y2="39" />
<line x1="485" y1="34" x2="274" y2="192" />
<line x1="274" y1="192" x2="282" y2="184" />
<line x1="274" y1="192" x2="284" y2="187" />
<line x1="485" y1="33" x2="479" y2="35" />
<line x1="479" y1="35" x2="489" y2="30" />
<line x1="479" y1="35" x2="490" y2="34" />
<line x1="501" y1="32" x2="520" y2="693" />
<line x1="520" y1="693" x2="518" y2="682" />
<line x1="520" y1="693" x2="521" y2="682" />
<line x1="501" y1="32" x2="422" y2="664" />
<line x1="422" y1="664" x2="422" y2="653" />
<line x1="422" y1="664" x2="425" y2="653" />
<line x1="498" y1="31" x2="244" y2="262" />
<line x1="244" y1="262" x2="251" y2="253" />
<line x1="244" y1="262" x2="254" y2="256" />
<line x1="498" y1="31" x2="274" y2="192" />
<line x1="274" y1="192" x2="282" y2="184" />
<line x1="274" y1="192" x2="284" y2="187" />
<line x1="498" y1="30" x2="356" y2="97" />
<line x1="356" y1="97" x2="365" y2="90" />
<line x1="356" y1="97" x2="367" y2="94" />
<line x1="498" y1="30" x2="397" y2="68" />
<line x1="397" y1="68" x2="407" y2="62" />
<line x1="397" y1="68" x2="408" y2="66" />
<line x1="498" y1="30" x2="408" y2="62" />
<line x1="408" y1="62" x2="418" y2="56" />
<line x1="408" y1="62" x2="419" y2="61" />
<line x1="498" y1="29" x2="479" y2="35" />
<line x1="498" y1="29" x2="488" y2="34" />
<line x1="498" y1="29" x2="487" y2="30" />
<line x1="498" y1="29" x2="491" y2="32" />
<line x1="498" y1="29" x2="489" y2="35" />
<line x1="498" y1="29" x2="487" y2="31" />
<line x1="511" y1="30" x2="233" y2="412" />
<line x1="233" y1="412" x2="238" y2="402" />
<line x1="233" y1="412" x2="241" y2="404" />
<line x1="510" y1="28" x2="366" y2="89" />
<line x1="510" y1="28" x2="500" y2="34" />
<line x1="510" y1="28" x2="499" y2="30" />
<line x1="510" y1="28" x2="376" y2="82" />
<line x1="510" y1="28" x2="500" y2="34" />
<line x1="510" y1="28" x2="499" y2="30" />
<line x1="510" y1="28" x2="386" y2="75" />
<line x1="510" y1="28" x2="500" y2="34" />
<line x1="510" y1="28" x2="499" y2="30" />
<line x1="510" y1="28" x2="397" y2="68" />
<line x1="397" y1="68" x2="407" y2="63" />
<line x1="397" y1="68" x2="408" y2="67" />
<line x1="549" y1="27" x2="233" y2="412" />
<line x1="233" y1="412" x2="238" y2="402" />
<line x1="233" y1="412" x2="242" y2="405" />
<line x1="548" y1="24" x2="397" y2="69" />
<line x1="397" y1="69" x2="407" y2="64" />
<line x1="397" y1="69" x2="408" y2="68" />
<circle cx="564" cy="24" r="4" style="fill:#ffffff" />
<circle cx="577" cy="24" r="4" style="fill:#ffffff" />
<circle cx="589" cy="24" r="4" style="fill:#ffffff" />
<circle cx="602" cy="26" r="4" style="fill:#ffffff" />
<circle cx="615" cy="27" r="4" style="fill:#ffffff" />
<circle cx="627" cy="29" r="4" style="fill:#ffffff" />
<circle cx="640" cy="32" r="4" style="fill:#ffffff" />
<circle cx="652" cy="35" r="4" style="fill:#ffffff" />
<circle cx="664" cy="39" r="4" style="fill:#ffffff" />
<circle cx="676" cy="43" r="4" style="fill:#ffffff" />
<circle cx="688" cy="47" r="4" style="fill:#ffffff" />
<circle cx="700" cy="52" r="4" style="fill:#ffffff" />
<circle cx="711" cy="57" r="4" style="fill:#ffffff" />
<circle cx="723" cy="63" r="4" style="fill:#ffffff" />
<circle cx="734" cy="69" r="4" style="fill:#ffffff" />
<circle cx="745" cy="76" r="4" style="fill:#ffffff" />
<circle cx="755" cy="83" r="4" style="fill:#ffffff" />
<circle cx="765" cy="90" r="4" style="fill:#ffffff" />
<circle cx="775" cy="98" r="4" style="fill:#ffffff" />
<circle cx="785" cy="106" r="4" style="fill:#ffffff" />
<circle cx="795" cy="115" r="4" style="fill:#ffffff" />
<circle cx="804" cy="123" r="4" style="fill:#ffffff" />
<circle cx="813" cy="133" r="4" style="fill:#ffffff" />
<circle cx="821" cy="142" r="4" style="fill:#ffffff" />
<circle cx="829" cy="152" r="4" style="fill:#ffffff" />
<circle cx="837" cy="162" r="4" style="fill:#ffffff" />
<circle cx="844" cy="173" r="4" style="fill:#ffffff" />
<circle cx="851" cy="183" r="4" style="fill:#ffffff" />
<circle cx="857" cy="194" r="4" style="fill:#ffffff" />
<circle cx="863" cy="205" r="4" style="fill:#ffffff" />
<circle cx="869" cy="217" r="4" style="fill:#ffffff" />
<circle cx="874" cy="228" r="4" style="fill:#ffffff" />
<circle cx="879" cy="240" r="4" style="fill:#ffffff" />
<circle cx="883" cy="252" r="4" style="fill:#ffffff" />
<circle cx="887" cy="264" r="4" style="fill:#ffffff" />
<circle cx="891" cy="276" r="4" style="fill:#ffffff" />
<circle cx="894" cy="289" r="4" style="fill:#ffffff" />
<circle cx="896" cy="301" r="4" style="fill:#ffffff" />
<circle cx="898" cy="314" r="4" style="fill:#ffffff" />
<circle cx="900" cy="326" r="4" style="fill:#ffffff" />
<circle cx="901" cy="339" r="4" style="fill:#ffffff" />
<circle cx="901" cy="351" r="4" style="fill:#ffffff" />
<circle cx="901" cy="364" r="4" style="fill:#ffffff" />
<circle cx="901" cy="377" r="4" style="fill:#ffffff" />
<circle cx="900" cy="390" r="4" style="fill:#ffffff" />
<circle cx="899" cy="402" r="4" style="fill:#ffffff" />
<circle cx="897" cy="415" r="4" style="fill:#ffffff" />
<circle cx="895" cy="427" r="4" style="fill:#ffffff" />
<circle cx="892" cy="440" r="4" style="fill:#ffffff" />
<circle cx="889" cy="452" r="4" style="fill:#ffffff" />
<circle cx="885" cy="464" r="4" style="fill:#ffffff" />
<circle cx="881" cy="476" r="4" style="fill:#ffffff" />
<circle cx="877" cy="488" r="4" style="fill:#ffffff" />
<circle cx="872" cy="500" r="4" style="fill:#ffffff" />
<circle cx="866" cy="511" r="4" style="fill:#ffffff" />
<circle cx="860" cy="522" r="4" style="fill:#ffffff" />
<circle cx="854" cy="533" r="4" style="fill:#ffffff" />
<circle cx="847" cy="544" r="4" style="fill:#ffffff" />
<circle cx="840" cy="555" r="4" style="fill:#ffffff" />
<circle cx="833" cy="565" r="4" style="fill:#ffffff" />
<circle cx="825" cy="575" r="4" style="fill:#ffffff" />
<circle cx="817" cy="585" r="4" style="fill:#ffffff" />
<circle cx="808" cy="594" r="4" style="fill:#ffffff" />
<circle cx="799" cy="603" r="4" style="fill:#ffffff" />
<circle cx="790" cy="612" r="4" style="fill:#ffffff" />
<circle cx="780" cy="620" r="4" style="fill:#ffffff" />
<circle cx="771" cy="628" r="4" style="fill:#ffffff" />
<circle cx="760" cy="636" r="4" style="fill:#ffffff" />
<circle cx="750" cy="643" r="4" style="fill:#ffffff" />
<circle cx="739" cy="650" r="4" style="fill:#ffffff" />
<circle cx="728" cy="656" r="4" style="fill:#ffffff" />
<circle cx="717" cy="662" r="4" style="fill:#ffffff" />
<circle cx="706" cy="667" r="4" style="fill:#ffffff" />
<circle cx="694" cy="673" r="4" style="fill:#ffffff" />
<circle cx="682" cy="677" r="4" style="fill:#ffffff" />
<circle cx="670" cy="681" r="4" style="fill:#ffffff" />
<circle cx="658" cy="685" r="4" style="fill:#ffffff" />
<circle cx="646" cy="688" r="4" style="fill:#ffffff" />
<circle cx="633" cy="691" r="4" style="fill:#ffffff" />
<circle cx="621" cy="694" r="4" style="fill:#ffffff" />
<circle cx="608" cy="696" r="4" style="fill:#ffffff" />
<circle cx="596" cy="697" r="4" style="fill:#ffffff" />
<circle cx="583" cy="698" r="4" style="fill:#ffffff" />
<circle cx="570" cy="698" r="4" style="fill:#ffffff" />
<circle cx="558" cy="698" r="4" style="fill:#ffffff" />
<circle cx="545" cy="698" r="4" style="fill:#ffffff" />
<circle cx="532" cy="697" r="4" style="fill:#ffffff" />
<circle cx="520" cy="696" r="4" style="fill:#ffffff" />
<circle cx="507" cy="694" r="4" style="fill:#ffffff" />
<circle cx="495" cy="691" r="4" style="fill:#ffffff" />
<circle cx="482" cy="688" r="4" style="fill:#ffffff" />
<circle cx="470" cy="685" r="4" style="fill:#ffffff" />
<circle cx="458" cy="681" r="4" style="fill:#ffffff" />
<circle cx="446" cy="677" r="4" style="fill:#ffffff" />
<circle cx="434" cy="673" r="4" style="fill:#ffffff" />
<circle cx="422" cy="667" r="4" style="fill:#ffffff" />
<circle cx="411" cy="662" r="4" style="fill:#ffffff" />
<circle cx="400" cy="656" r="4" style="fill:#ffffff" />
<circle cx="389" cy="650" r="4" style="fill:#ffffff" />
<circle cx="378" cy="643" r="4" style="fill:#ffffff" />
<circle cx="368" cy="636" r="4" style="fill:#ffffff" />
<circle cx="357" cy="628" r="4" style="fill:#ffffff" />
<circle cx="348" cy="620" r="4" style="fill:#ffffff" />
<circle cx="338" cy="612" r="4" style="fill:#ffffff" />
<circle cx="329" cy="603" r="4" style="fill:#ffffff" />
<circle cx="320" cy="594" r="4" style="fill:#ffffff" />
<circle cx="311" cy="585" r="4" style="fill:#ffffff" />
<circle cx="303" cy="575" r="4" style="fill:#ffffff" />
<circle cx="295" cy="565" r="4" style="fill:#ffffff" />
<circle cx="288" cy="555" r="4" style="fill:#ffffff" />
<circle cx="281" cy="544" r="4" style="fill:#ffffff" />
<circle cx="274" cy="533" r="4" style="fill:#ffffff" />
<circle cx="268" cy="522" r="4" style="fill:#ffffff" />
<circle cx="262" cy="511" r="4" style="fill:#ffffff" />
<circle cx="256" cy="500" r="4" style="fill:#ffffff" />
<circle cx="251" cy="488" r="4" style="fill:#ffffff" />
<circle cx="247" cy="476" r="4" style="fill:#ffffff" />
<circle cx="243" cy="464" r="4" style="fill:#ffffff" />
<circle cx="239" cy="452" r="4" style="fill:#ffffff" />
<circle cx="236" cy="440" r="4" style="fill:#ffffff" />
<circle cx="233" cy="427" r="4" style="fill:#ffffff" />
<circle cx="231" cy="415" r="4" style="fill:#ffffff" />
<circle cx="229" cy="402" r="4" style="fill:#ffffff" />
<circle cx="228" cy="390" r="4" style="fill:#ffffff" />
<circle cx="227" cy="377" r="4" style="fill:#ffffff" />
<circle cx="227" cy="364" r="4" style="fill:#ffffff" />
<circle cx="227" cy="351" r="4" style="fill:#ffffff" />
<circle cx="227" cy="339" r="4" style="fill:#ffffff" />
<circle cx="228" cy="326" r="4" style="fill:#ffffff" />
<circle cx="230" cy="314" r="4" style="fill:#ffffff" />
<circle cx="232" cy="301" r="4" style="fill:#ffffff" />
<circle cx="234" cy="289" r="4" style="fill:#ffffff" />
<circle cx="237" cy="276" r="4" style="fill:#ffffff" />
<circle cx="241" cy="264" r="4" style="fill:#ffffff" />
<circle cx="245" cy="252" r="4" style="fill:#ffffff" />
<circle cx="249" cy="240" r="4" style="fill:#ffffff" />
<circle cx="254" cy="228" r="4" style="fill:#ffffff" />
<circle cx="259" cy="217" r="4" style="fill:#ffffff" />
<circle cx="265" cy="205" r="4" style="fill:#ffffff" />
<circle cx="271" cy="194" r="4" style="fill:#ffffff" />
<circle cx="277" cy="183" r="4" style="fill:#ffffff" />
<circle cx="284" cy="173" r="4" style="fill:#ffffff" />
<circle cx="291" cy="162" r="4" style="fill:#ffffff" />
<circle cx="299" cy="152" r="4" style="fill:#ffffff" />
<circle cx="307" cy="142" r="4" style="fill:#ffffff" />
<circle cx="315" cy="133" r="4" style="fill:#ffffff" />
<circle cx="324" cy="123" r="4" style="fill:#ffffff" />
<circle cx="333" cy="115" r="4" style="fill:#ffffff" />
<circle cx="343" cy="106" r="4" style="fill:#ffffff" />
<circle cx="353" cy="98" r="4" style="fill:#ffffff" />
<circle cx="363" cy="90" r="4" style="fill:#ffffff" />
<circle cx="373" cy="83" r="4" style="fill:#ffffff" />
<circle cx="383" cy="76" r="4" style="fill:#ffffff" />
<circle cx="394" cy="69" r="4" style="fill:#ffffff" />
<circle cx="405" cy="63" r="4" style="fill:#ffffff" />
<circle cx="417" cy="57" r="4" style="fill:#ffffff" />
<circle cx="428" cy="52" r="4" style="fill:#ffffff" />
<circle cx="440" cy="47" r="4" style="fill:#ffffff" />
<circle cx="452" cy="43" r="4" style="fill:#ffffff" />
<circle cx="464" cy="39" r="4" style="fill:#ffffff" />
<circle cx="476" cy="35" r="4" style="fill:#ffffff" />
<circle cx="488" cy="32" r="4" style="fill:#ffffff" />
<circle cx="501" cy="29" r="4" style="fill:#ffffff" />
<circle cx="513" cy="27" r="4" style="fill:#ffffff" />
<circle cx="526" cy="26" r="4" style="fill:#ffffff" />
<circle cx="539" cy="24" r="4" style="fill:#ffffff" />
<circle cx="551" cy="24" r="4" style="fill:#ffffff" />
</g>
<g font-size="10.000000">
<text x="870" y="568">include/llvm/MC</text>
<text x="138" y="145">lib/CodeGen/AsmPrinter</text>
<text x="566" y="24">llvm::ConstantPoolEntry</text>
<text x="579" y="24">llvm::ConstantPool</text>
<text x="591" y="24">llvm::AssemblerConstantPools</text>
<text x="604" y="26">llvm::MCAsmBackend</text>
<text x="617" y="27">llvm::MCAsmInfo</text>
<text x="629" y="29">llvm::MCAsmInfoMicrosoft</text>
<text x="642" y="32">llvm::MCAsmInfoGNUCOFF</text>
<text x="654" y="35">llvm::MCAsmInfoCOFF</text>
<text x="666" y="39">llvm::MCAsmInfoDarwin</text>
<text x="678" y="43">llvm::MCAsmInfoELF</text>
<text x="690" y="47">llvm::MCAsmLayout</text>
<text x="702" y="52">llvm::MCAlignFragment</text>
<text x="713" y="57">llvm::MCFillFragment</text>
<text x="725" y="63">llvm::MCEncodedFragmentWithFixups</text>
<text x="736" y="69">llvm::DataRegionData</text>
<text x="747" y="76">llvm::MCEncodedFragment</text>
<text x="757" y="83">llvm::MCRelaxableFragment</text>
<text x="767" y="90">llvm::MCDwarfLineAddrFragment</text>
<text x="777" y="98">llvm::IndirectSymbolData</text>
<text x="787" y="106">llvm::MCOrgFragment</text>
<text x="797" y="115">llvm::MCCompactEncodedInstFragment</text>
<text x="806" y="123">llvm::MCDwarfCallFrameFragment</text>
<text x="815" y="133">llvm::MCLEBFragment</text>
<text x="823" y="142">llvm::MCCodeEmitter</text>
<text x="831" y="152">llvm::MCCodeGenInfo</text>
<text x="839" y="162">llvm::MCDisassembler</text>
<text x="846" y="173">llvm::MCDwarfFrameInfo</text>
<text x="853" y="183">llvm::MCDwarfDwoLineTable</text>
<text x="859" y="194">llvm::MCCFIInstruction</text>
<text x="865" y="205">llvm::MCLineSection</text>
<text x="871" y="217">llvm::MCLineEntry</text>
<text x="876" y="228">llvm::MCDwarfFile</text>
<text x="881" y="240">llvm::MCDwarfFrameEmitter</text>
<text x="885" y="252">llvm::MCDwarfLineAddr</text>
<text x="889" y="264">llvm::MCDwarfLineTable</text>
<text x="893" y="276">llvm::MCDwarfLineTableHeader</text>
<text x="896" y="289">llvm::MCDwarfLoc</text>
<text x="898" y="301">llvm::MCGenDwarfLabelEntry</text>
<text x="900" y="314">llvm::MCGenDwarfInfo</text>
<text x="902" y="326">llvm::MCELF</text>
<text x="903" y="339">llvm::MCELFObjectTargetWriter</text>
<text x="903" y="351">llvm::MCELFStreamer</text>
<text x="903" y="364">llvm::MCSymbolData</text>
<text x="903" y="377">llvm::MCConstantExpr</text>
<text x="902" y="390">llvm::MCUnaryExpr</text>
<text x="901" y="402">llvm::MCTargetExpr</text>
<text x="899" y="415">llvm::MCBinaryExpr</text>
<text x="897" y="427">llvm::MCExternalSymbolizer</text>
<text x="894" y="440">llvm::MCFixup</text>
<text x="891" y="452">llvm::MCFixupKindInfo</text>
<text x="887" y="464">llvm::isPodLike&lt;llvm::MCOperand&gt;</text>
<text x="883" y="476">llvm::MCInstBuilder</text>
<text x="879" y="488">llvm::MCInstPrinter</text>
<text x="874" y="500">llvm::MCInstrAnalysis</text>
<text x="868" y="511">llvm::MCOperandInfo</text>
<text x="862" y="522">llvm::MCInstrInfo</text>
<text x="856" y="533">llvm::InstrStage</text>
<text x="849" y="544">llvm::InstrItinerary</text>
<text x="842" y="555">llvm::MCLabel</text>
<text x="835" y="565">llvm::MCLOHDirective</text>
<text x="827" y="575">llvm::MCLOHContainer</text>
<text x="819" y="585">llvm::MCMachObjectTargetWriter</text>
<text x="810" y="594">llvm::MachObjectWriter</text>
<text x="801" y="603">llvm::MCMachOObjectDisassembler</text>
<text x="792" y="612">llvm::MCObjectDisassembler</text>
<text x="782" y="620">llvm::MCObjectFileInfo</text>
<text x="773" y="628">llvm::MCAssembler</text>
<text x="762" y="636">llvm::MCSectionData</text>
<text x="752" y="643">llvm::MCDataFragment</text>
<text x="741" y="650">llvm::MCObjectStreamer</text>
<text x="730" y="656">llvm::MCFragment</text>
<text x="719" y="662">llvm::MCObjectSymbolizer</text>
<text x="708" y="667">llvm::MCObjectWriter</text>
<text x="696" y="673">llvm::MCRegAliasIterator</text>
<text x="684" y="677">llvm::MCRegUnitRootIterator</text>
<text x="672" y="681">llvm::MCRegUnitIterator</text>
<text x="660" y="685">llvm::MCSuperRegIterator</text>
<text x="648" y="688">llvm::MCSubRegIterator</text>
<text x="635" y="691">llvm::MCRegisterInfo</text>
<text x="623" y="694">llvm::MCRegisterDesc</text>
<text x="610" y="696">llvm::MCRegisterClass</text>
<text x="598" y="697">llvm::MCRelocationInfo</text>
<text x="585" y="698">llvm::MCSchedClassDesc</text>
<text x="572" y="698">llvm::MCReadAdvanceEntry</text>
<text x="426" y="698">llvm::MCWriteProcResEntry</text>
<text x="414" y="698">llvm::MCWriteLatencyEntry</text>
<text x="400" y="697">llvm::MCProcResourceDesc</text>
<text x="439" y="696">llvm::MCSection</text>
<text x="399" y="694">llvm::MCSectionCOFF</text>
<text x="395" y="691">llvm::MCSectionELF</text>
<text x="367" y="688">llvm::MCSectionMachO</text>
<text x="326" y="685">llvm::AArch64TargetStreamer</text>
<text x="331" y="681">llvm::ARMTargetStreamer</text>
<text x="326" y="677">llvm::MCTargetStreamer</text>
<text x="315" y="673">llvm::MCSymbolRefExpr</text>
<text x="341" y="667">llvm::MCSymbol</text>
<text x="312" y="662">llvm::MCSymbolizer</text>
<text x="274" y="656">llvm::MCTargetAsmParser</text>
<text x="311" y="650">llvm::AsmToken</text>
<text x="294" y="643">llvm::AsmRewrite</text>
<text x="247" y="636">llvm::ParseInstructionInfo</text>
<text x="244" y="628">llvm::MCTargetOptions</text>
<text x="275" y="620">llvm::MCValue</text>
<text x="211" y="612">llvm::Win64EH::Instruction</text>
<text x="170" y="603">llvm::MCWin64EHUnwindEmitter</text>
<text x="209" y="594">llvm::MCWinFrameInfo</text>
<text x="131" y="585">llvm::MCWinCOFFObjectTargetWriter</text>
<text x="169" y="575">llvm::MCWinCOFFStreamer</text>
<text x="228" y="565">llvm::MCExpr</text>
<text x="173" y="555">llvm::WinEH::Instruction</text>
<text x="194" y="544">llvm::SectionKind</text>
<text x="154" y="533">llvm::StringTableBuilder</text>
<text x="142" y="522">llvm::SubtargetFeatureKV</text>
<text x="146" y="511">llvm::SubtargetFeatures</text>
<text x="148" y="500">llvm::SubtargetInfoKV</text>
<text x="146" y="488">llvm::yaml::BinaryRef</text>
<text x="20" y="476">llvm::yaml::ScalarTraits&lt;llvm::yaml::BinaryRef&gt;</text>
<text x="202" y="464">MCExpr</text>
<text x="152" y="452">llvm::AddressPool</text>
<text x="54" y="440">(anonymous namespace)::SectionCPs</text>
<text x="69" y="427">(anonymous namespace)::Structor</text>
<text x="113" y="415">llvm::AsmPrinterHandler</text>
<text x="29" y="402">(anonymous namespace)::SrcMgrDiagInfo</text>
<text x="96" y="390">llvm::HashingByteStreamer</text>
<text x="119" y="377">llvm::APByteStreamer</text>
<text x="133" y="364">llvm::ByteStreamer</text>
<text x="163" y="351">llvm::DIELoc</text>
<text x="147" y="339">llvm::DIEAbbrev</text>
<text x="127" y="326">llvm::DIEAbbrevData</text>
<text x="158" y="314">llvm::DIEBlock</text>
<text x="161" y="301">llvm::DIEDelta</text>
<text x="163" y="289">llvm::DIEEntry</text>
<text x="169" y="276">llvm::DIEExpr</text>
<text x="161" y="264">llvm::DIEInteger</text>
<text x="172" y="252">llvm::DIELabel</text>
<text x="169" y="240">llvm::DIELocList</text>
<text x="180" y="228">llvm::DIEString</text>
<text x="143" y="217">llvm::DIETypeSignature</text>
<text x="191" y="205">llvm::DIEValue</text>
<text x="225" y="194">llvm::DIE</text>
<text x="208" y="183">llvm::DIEHash</text>
<text x="195" y="173">llvm::CompileUnit</text>
<text x="163" y="162">llvm::DbgValueHistoryMap</text>
<text x="197" y="152">llvm::DebugLocEntry</text>
<text x="213" y="142">llvm::DebugLocList</text>
<text x="206" y="133">llvm::DwarfAccelTable</text>
<text x="261" y="123">ArangeSpan</text>
<text x="250" y="115">llvm::SrcLineInfo</text>
<text x="264" y="106">llvm::SymbolCU</text>
<text x="267" y="98">llvm::DwarfDebug</text>
<text x="264" y="90">llvm::ARMException</text>
<text x="255" y="83">llvm::DwarfCFIException</text>
<text x="277" y="76">llvm::Win64Exception</text>
<text x="313" y="69">llvm::AsmPrinter</text>
<text x="332" y="63">llvm::DwarfFile</text>
<text x="312" y="57">llvm::DwarfStringPool</text>
<text x="343" y="52">llvm::RangeSpan</text>
<text x="338" y="47">llvm::RangeSpanList</text>
<text x="341" y="43">llvm::MachineLocation</text>
<text x="376" y="39">llvm::DbgVariable</text>
<text x="361" y="35">llvm::DwarfCompileUnit</text>
<text x="389" y="32">llvm::DwarfTypeUnit</text>
<text x="426" y="29">llvm::DwarfUnit</text>
<text x="426" y="27">llvm::EHStreamer</text>
<text x="321" y="26">(anonymous namespace)::ErlangGCPrinter</text>
<text x="289" y="24">(anonymous namespace)::OcamlGCMetadataPrinter</text>
<text x="402" y="24">llvm::WinCodeViewLineTables</text>
</g>
</svg>