<svg xmlns="http://www.w3.org/2000/svg" version="1.1" width="978" height="822">
<g  fill="#f5f5ff" stroke="rgb(0,0,0)" style="stroke-width:1">
<line x1="466" y1="57" x2="466" y2="46" />
<line x1="476" y1="57" x2="476" y2="46" />
<line x1="525" y1="62" x2="527" y2="51" />
<line x1="688" y1="138" x2="695" y2="129" />
<line x1="693" y1="143" x2="701" y2="135" />
<line x1="700" y1="149" x2="707" y2="141" />
<line x1="705" y1="154" x2="713" y2="146" />
<line x1="709" y1="158" x2="717" y2="150" />
<line x1="712" y1="161" x2="720" y2="153" />
<line x1="801" y1="470" x2="812" y2="472" />
<line x1="788" y1="517" x2="798" y2="520" />
<line x1="785" y1="525" x2="795" y2="529" />
<line x1="767" y1="562" x2="777" y2="567" />
<line x1="754" y1="585" x2="763" y2="591" />
<line x1="741" y1="603" x2="750" y2="609" />
<line x1="734" y1="613" x2="742" y2="620" />
<line x1="730" y1="617" x2="738" y2="624" />
<line x1="722" y1="626" x2="731" y2="633" />
<line x1="720" y1="628" x2="729" y2="636" />
<line x1="720" y1="629" x2="728" y2="636" />
<line x1="712" y1="637" x2="720" y2="645" />
<line x1="709" y1="640" x2="717" y2="648" />
<line x1="379" y1="730" x2="376" y2="741" />
<line x1="377" y1="730" x2="374" y2="740" />
<line x1="375" y1="729" x2="372" y2="740" />
<line x1="372" y1="728" x2="369" y2="739" />
<line x1="256" y1="670" x2="249" y2="678" />
<line x1="232" y1="649" x2="224" y2="657" />
<line x1="230" y1="648" x2="223" y2="656" />
<line x1="219" y1="636" x2="211" y2="644" />
<line x1="153" y1="539" x2="143" y2="543" />
<line x1="150" y1="532" x2="140" y2="536" />
<line x1="146" y1="521" x2="136" y2="525" />
<line x1="161" y1="243" x2="151" y2="238" />
<line x1="163" y1="239" x2="154" y2="234" />
<line x1="191" y1="195" x2="182" y2="189" />
<line x1="206" y1="176" x2="198" y2="169" />
<line x1="207" y1="174" x2="199" y2="167" />
<line x1="209" y1="173" x2="200" y2="166" />
<line x1="233" y1="148" x2="225" y2="140" />
<line x1="242" y1="140" x2="234" y2="132" />
<line x1="261" y1="125" x2="255" y2="116" />
<line x1="271" y1="117" x2="265" y2="108" />
<line x1="358" y1="74" x2="355" y2="63" />
<line x1="446" y1="57" x2="446" y2="46" />
<line x1="461" y1="57" x2="461" y2="46" />
<line x1="465" y1="57" x2="465" y2="46" />
<line x1="471" y1="62" x2="471" y2="62" />
<line x1="500" y1="63" x2="500" y2="63" />
<line x1="471" y1="62" x2="610" y2="94" />
<line x1="500" y1="63" x2="610" y2="94" />
<line x1="610" y1="94" x2="610" y2="94" />
<line x1="471" y1="62" x2="688" y2="144" />
<line x1="610" y1="94" x2="688" y2="144" />
<line x1="500" y1="63" x2="693" y2="149" />
<line x1="610" y1="94" x2="693" y2="149" />
<line x1="693" y1="149" x2="693" y2="149" />
<line x1="699" y1="155" x2="699" y2="155" />
<line x1="699" y1="155" x2="704" y2="160" />
<line x1="704" y1="160" x2="704" y2="160" />
<line x1="471" y1="62" x2="708" y2="163" />
<line x1="471" y1="62" x2="790" y2="306" />
<line x1="500" y1="63" x2="790" y2="306" />
<line x1="610" y1="94" x2="790" y2="306" />
<line x1="693" y1="149" x2="790" y2="306" />
<line x1="790" y1="306" x2="790" y2="306" />
<line x1="693" y1="149" x2="790" y2="493" />
<line x1="790" y1="306" x2="790" y2="493" />
<line x1="790" y1="493" x2="790" y2="493" />
<line x1="610" y1="94" x2="772" y2="542" />
<line x1="693" y1="149" x2="772" y2="542" />
<line x1="708" y1="163" x2="772" y2="542" />
<line x1="790" y1="306" x2="772" y2="542" />
<line x1="772" y1="542" x2="772" y2="542" />
<line x1="610" y1="94" x2="756" y2="571" />
<line x1="688" y1="144" x2="756" y2="571" />
<line x1="699" y1="155" x2="756" y2="571" />
<line x1="708" y1="163" x2="756" y2="571" />
<line x1="790" y1="306" x2="756" y2="571" />
<line x1="756" y1="571" x2="756" y2="571" />
<line x1="756" y1="571" x2="744" y2="591" />
<line x1="744" y1="591" x2="744" y2="591" />
<line x1="744" y1="591" x2="733" y2="605" />
<line x1="733" y1="605" x2="733" y2="605" />
<line x1="693" y1="149" x2="728" y2="612" />
<line x1="790" y1="306" x2="728" y2="612" />
<line x1="744" y1="591" x2="728" y2="612" />
<line x1="728" y1="612" x2="728" y2="612" />
<line x1="790" y1="306" x2="722" y2="619" />
<line x1="744" y1="591" x2="722" y2="619" />
<line x1="722" y1="619" x2="722" y2="619" />
<line x1="744" y1="591" x2="718" y2="624" />
<line x1="718" y1="624" x2="718" y2="624" />
<line x1="744" y1="591" x2="716" y2="625" />
<line x1="756" y1="571" x2="712" y2="630" />
<line x1="744" y1="591" x2="712" y2="630" />
<line x1="712" y1="630" x2="712" y2="630" />
<line x1="471" y1="62" x2="555" y2="725" />
<line x1="500" y1="63" x2="555" y2="725" />
<line x1="610" y1="94" x2="555" y2="725" />
<line x1="688" y1="144" x2="555" y2="725" />
<line x1="693" y1="149" x2="555" y2="725" />
<line x1="704" y1="160" x2="555" y2="725" />
<line x1="708" y1="163" x2="555" y2="725" />
<line x1="790" y1="306" x2="555" y2="725" />
<line x1="790" y1="493" x2="555" y2="725" />
<line x1="772" y1="542" x2="555" y2="725" />
<line x1="756" y1="571" x2="555" y2="725" />
<line x1="744" y1="591" x2="555" y2="725" />
<line x1="728" y1="612" x2="555" y2="725" />
<line x1="722" y1="619" x2="555" y2="725" />
<line x1="712" y1="630" x2="555" y2="725" />
<line x1="555" y1="725" x2="555" y2="725" />
<line x1="555" y1="725" x2="379" y2="725" />
<line x1="379" y1="725" x2="374" y2="724" />
<line x1="374" y1="724" x2="374" y2="724" />
<line x1="500" y1="63" x2="313" y2="700" />
<line x1="790" y1="306" x2="313" y2="700" />
<line x1="790" y1="493" x2="313" y2="700" />
<line x1="772" y1="542" x2="313" y2="700" />
<line x1="756" y1="571" x2="313" y2="700" />
<line x1="744" y1="591" x2="313" y2="700" />
<line x1="555" y1="725" x2="313" y2="700" />
<line x1="313" y1="700" x2="313" y2="700" />
<line x1="313" y1="700" x2="247" y2="656" />
<line x1="247" y1="656" x2="247" y2="656" />
<line x1="313" y1="700" x2="228" y2="638" />
<line x1="228" y1="638" x2="228" y2="638" />
<line x1="313" y1="700" x2="186" y2="587" />
<line x1="247" y1="656" x2="186" y2="587" />
<line x1="186" y1="587" x2="186" y2="587" />
<line x1="156" y1="533" x2="156" y2="533" />
<line x1="153" y1="524" x2="153" y2="524" />
<line x1="500" y1="63" x2="129" y2="381" />
<line x1="610" y1="94" x2="129" y2="381" />
<line x1="688" y1="144" x2="129" y2="381" />
<line x1="693" y1="149" x2="129" y2="381" />
<line x1="704" y1="160" x2="129" y2="381" />
<line x1="790" y1="306" x2="129" y2="381" />
<line x1="790" y1="493" x2="129" y2="381" />
<line x1="772" y1="542" x2="129" y2="381" />
<line x1="756" y1="571" x2="129" y2="381" />
<line x1="744" y1="591" x2="129" y2="381" />
<line x1="722" y1="619" x2="129" y2="381" />
<line x1="555" y1="725" x2="129" y2="381" />
<line x1="379" y1="725" x2="129" y2="381" />
<line x1="313" y1="700" x2="129" y2="381" />
<line x1="247" y1="656" x2="129" y2="381" />
<line x1="234" y1="644" x2="129" y2="381" />
<line x1="228" y1="638" x2="129" y2="381" />
<line x1="186" y1="587" x2="129" y2="381" />
<line x1="153" y1="524" x2="129" y2="381" />
<line x1="129" y1="381" x2="129" y2="381" />
<line x1="167" y1="243" x2="167" y2="243" />
<line x1="693" y1="149" x2="180" y2="219" />
<line x1="756" y1="571" x2="180" y2="219" />
<line x1="313" y1="700" x2="180" y2="219" />
<line x1="228" y1="638" x2="180" y2="219" />
<line x1="129" y1="381" x2="180" y2="219" />
<line x1="180" y1="219" x2="180" y2="219" />
<line x1="471" y1="62" x2="202" y2="188" />
<line x1="610" y1="94" x2="202" y2="188" />
<line x1="790" y1="306" x2="202" y2="188" />
<line x1="772" y1="542" x2="202" y2="188" />
<line x1="722" y1="619" x2="202" y2="188" />
<line x1="313" y1="700" x2="202" y2="188" />
<line x1="247" y1="656" x2="202" y2="188" />
<line x1="180" y1="219" x2="202" y2="188" />
<line x1="202" y1="188" x2="202" y2="188" />
<line x1="555" y1="725" x2="211" y2="178" />
<line x1="129" y1="381" x2="211" y2="178" />
<line x1="471" y1="62" x2="212" y2="177" />
<line x1="471" y1="62" x2="224" y2="163" />
<line x1="610" y1="94" x2="224" y2="163" />
<line x1="555" y1="725" x2="224" y2="163" />
<line x1="202" y1="188" x2="224" y2="163" />
<line x1="224" y1="163" x2="224" y2="163" />
<line x1="471" y1="62" x2="241" y2="148" />
<line x1="610" y1="94" x2="241" y2="148" />
<line x1="688" y1="144" x2="241" y2="148" />
<line x1="790" y1="306" x2="241" y2="148" />
<line x1="772" y1="542" x2="241" y2="148" />
<line x1="744" y1="591" x2="241" y2="148" />
<line x1="728" y1="612" x2="241" y2="148" />
<line x1="555" y1="725" x2="241" y2="148" />
<line x1="202" y1="188" x2="241" y2="148" />
<line x1="224" y1="163" x2="241" y2="148" />
<line x1="241" y1="148" x2="241" y2="148" />
<line x1="471" y1="62" x2="255" y2="136" />
<line x1="610" y1="94" x2="255" y2="136" />
<line x1="693" y1="149" x2="255" y2="136" />
<line x1="708" y1="163" x2="255" y2="136" />
<line x1="772" y1="542" x2="255" y2="136" />
<line x1="756" y1="571" x2="255" y2="136" />
<line x1="555" y1="725" x2="255" y2="136" />
<line x1="202" y1="188" x2="255" y2="136" />
<line x1="211" y1="178" x2="255" y2="136" />
<line x1="241" y1="148" x2="255" y2="136" />
<line x1="255" y1="136" x2="255" y2="136" />
<line x1="471" y1="62" x2="269" y2="125" />
<line x1="610" y1="94" x2="269" y2="125" />
<line x1="688" y1="144" x2="269" y2="125" />
<line x1="693" y1="149" x2="269" y2="125" />
<line x1="704" y1="160" x2="269" y2="125" />
<line x1="708" y1="163" x2="269" y2="125" />
<line x1="790" y1="306" x2="269" y2="125" />
<line x1="744" y1="591" x2="269" y2="125" />
<line x1="728" y1="612" x2="269" y2="125" />
<line x1="722" y1="619" x2="269" y2="125" />
<line x1="555" y1="725" x2="269" y2="125" />
<line x1="374" y1="724" x2="269" y2="125" />
<line x1="129" y1="381" x2="269" y2="125" />
<line x1="224" y1="163" x2="269" y2="125" />
<line x1="241" y1="148" x2="269" y2="125" />
<line x1="255" y1="136" x2="269" y2="125" />
<line x1="269" y1="125" x2="269" y2="125" />
<line x1="471" y1="62" x2="315" y2="97" />
<line x1="500" y1="63" x2="315" y2="97" />
<line x1="610" y1="94" x2="315" y2="97" />
<line x1="693" y1="149" x2="315" y2="97" />
<line x1="772" y1="542" x2="315" y2="97" />
<line x1="555" y1="725" x2="315" y2="97" />
<line x1="202" y1="188" x2="315" y2="97" />
<line x1="241" y1="148" x2="315" y2="97" />
<line x1="269" y1="125" x2="315" y2="97" />
<line x1="315" y1="97" x2="315" y2="97" />
<line x1="471" y1="62" x2="403" y2="68" />
<line x1="610" y1="94" x2="403" y2="68" />
<line x1="693" y1="149" x2="403" y2="68" />
<line x1="790" y1="306" x2="403" y2="68" />
<line x1="772" y1="542" x2="403" y2="68" />
<line x1="555" y1="725" x2="403" y2="68" />
<line x1="374" y1="724" x2="403" y2="68" />
<line x1="202" y1="188" x2="403" y2="68" />
<line x1="224" y1="163" x2="403" y2="68" />
<line x1="241" y1="148" x2="403" y2="68" />
<line x1="269" y1="125" x2="403" y2="68" />
<line x1="315" y1="97" x2="403" y2="68" />
<line x1="403" y1="68" x2="403" y2="68" />
<line x1="471" y1="62" x2="454" y2="62" />
<line x1="610" y1="94" x2="454" y2="62" />
<line x1="693" y1="149" x2="454" y2="62" />
<line x1="772" y1="542" x2="454" y2="62" />
<line x1="555" y1="725" x2="454" y2="62" />
<line x1="129" y1="381" x2="454" y2="62" />
<line x1="202" y1="188" x2="454" y2="62" />
<line x1="211" y1="178" x2="454" y2="62" />
<line x1="241" y1="148" x2="454" y2="62" />
<line x1="269" y1="125" x2="454" y2="62" />
<line x1="454" y1="62" x2="454" y2="62" />
<line x1="463" y1="62" x2="463" y2="62" />
<circle cx="471" cy="62" r="1" style="fill:#ffffff" />
<circle cx="500" cy="63" r="1" style="fill:#ffffff" />
<circle cx="610" cy="94" r="1" style="fill:#ffffff" />
<circle cx="688" cy="144" r="1" style="fill:#ffffff" />
<circle cx="693" cy="149" r="1" style="fill:#ffffff" />
<circle cx="699" cy="155" r="1" style="fill:#ffffff" />
<circle cx="704" cy="160" r="1" style="fill:#ffffff" />
<circle cx="708" cy="163" r="1" style="fill:#ffffff" />
<circle cx="790" cy="306" r="1" style="fill:#ffffff" />
<circle cx="790" cy="493" r="1" style="fill:#ffffff" />
<circle cx="782" cy="519" r="1" style="fill:#ffffff" />
<circle cx="772" cy="542" r="1" style="fill:#ffffff" />
<circle cx="756" cy="571" r="1" style="fill:#ffffff" />
<circle cx="744" cy="591" r="1" style="fill:#ffffff" />
<circle cx="733" cy="605" r="1" style="fill:#ffffff" />
<circle cx="728" cy="612" r="1" style="fill:#ffffff" />
<circle cx="722" cy="619" r="1" style="fill:#ffffff" />
<circle cx="718" cy="624" r="1" style="fill:#ffffff" />
<circle cx="716" cy="625" r="1" style="fill:#ffffff" />
<circle cx="712" cy="630" r="1" style="fill:#ffffff" />
<circle cx="707" cy="636" r="1" style="fill:#ffffff" />
<circle cx="555" cy="725" r="1" style="fill:#ffffff" />
<circle cx="379" cy="725" r="1" style="fill:#ffffff" />
<circle cx="377" cy="725" r="1" style="fill:#ffffff" />
<circle cx="374" cy="724" r="1" style="fill:#ffffff" />
<circle cx="313" cy="700" r="1" style="fill:#ffffff" />
<circle cx="247" cy="656" r="1" style="fill:#ffffff" />
<circle cx="234" cy="644" r="1" style="fill:#ffffff" />
<circle cx="228" cy="638" r="1" style="fill:#ffffff" />
<circle cx="186" cy="587" r="1" style="fill:#ffffff" />
<circle cx="156" cy="533" r="1" style="fill:#ffffff" />
<circle cx="153" cy="524" r="1" style="fill:#ffffff" />
<circle cx="129" cy="381" r="1" style="fill:#ffffff" />
<circle cx="167" cy="243" r="1" style="fill:#ffffff" />
<circle cx="180" cy="219" r="1" style="fill:#ffffff" />
<circle cx="202" cy="188" r="1" style="fill:#ffffff" />
<circle cx="211" cy="178" r="1" style="fill:#ffffff" />
<circle cx="212" cy="177" r="1" style="fill:#ffffff" />
<circle cx="224" cy="163" r="1" style="fill:#ffffff" />
<circle cx="241" cy="148" r="1" style="fill:#ffffff" />
<circle cx="255" cy="136" r="1" style="fill:#ffffff" />
<circle cx="269" cy="125" r="1" style="fill:#ffffff" />
<circle cx="315" cy="97" r="1" style="fill:#ffffff" />
<circle cx="403" cy="68" r="1" style="fill:#ffffff" />
<circle cx="454" cy="62" r="1" style="fill:#ffffff" />
<circle cx="463" cy="62" r="1" style="fill:#ffffff" />
<circle cx="465" cy="62" r="1" style="fill:#ffffff" />
</g>
<g font-size="10.000000">
<text x="471" y="19">include/llvm</text>
<text x="504" y="20">inc-lib/ADT</text>
<text x="625" y="52">inc-lib/Analysis</text>
<text x="711" y="108">inc-lib/Analysis/IPA</text>
<text x="717" y="116">inc-lib/AsmParser</text>
<text x="724" y="122">inc-lib/Bitcode</text>
<text x="730" y="127">inc-lib/Bitcode/Reader</text>
<text x="733" y="131">inc-lib/Bitcode/Writer</text>
<text x="825" y="289">inc-lib/CodeGen</text>
<text x="825" y="496">inc-lib/CodeGen/AsmPrinter</text>
<text x="815" y="525">inc-lib/CodeGen/PBQP</text>
<text x="805" y="550">inc-lib/CodeGen/SelectionDAG</text>
<text x="787" y="580">inc-lib/DebugInfo</text>
<text x="773" y="603">inc-lib/ExecutionEngine</text>
<text x="762" y="618">inc-lib/ExecutionEngine/IntelJITEvents</text>
<text x="755" y="626">inc-lib/ExecutionEngine/Interpreter</text>
<text x="749" y="633">inc-lib/ExecutionEngine/JIT</text>
<text x="744" y="639">inc-lib/ExecutionEngine/MCJIT</text>
<text x="743" y="640">inc-lib/ExecutionEngine/OProfileJIT</text>
<text x="738" y="646">inc-lib/ExecutionEngine/RuntimeDyld</text>
<text x="732" y="652">inc-lib/ExecutionEngine/RuntimeDyld/Targets</text>
<text x="564" y="752">inc-lib/IR</text>
<text x="316" y="753">inc-lib/LTO</text>
<text x="285" y="752">inc-lib/LineEditor</text>
<text x="303" y="751">inc-lib/Linker</text>
<text x="248" y="725">inc-lib/MC</text>
<text x="117" y="674">inc-lib/MC/MCAnalysis</text>
<text x="80" y="664">inc-lib/MC/MCDisassembler</text>
<text x="105" y="657">inc-lib/MC/MCParser</text>
<text x="91" y="598">inc-lib/Object</text>
<text x="58" y="538">inc-lib/Option</text>
<text x="33" y="530">inc-lib/ProfileData</text>
<text x="22" y="370">inc-lib/Support</text>
<text x="20" y="218">inc-lib/Support/Windows</text>
<text x="69" y="193">inc-lib/TableGen</text>
<text x="109" y="157">inc-lib/Target</text>
<text x="99" y="147">inc-lib/Transforms</text>
<text x="73" y="146">inc-lib/Transforms/Hello</text>
<text x="94" y="131">inc-lib/Transforms/IPO</text>
<text x="71" y="114">inc-lib/Transforms/InstCombine</text>
<text x="72" y="101">inc-lib/Transforms/Instrumentation</text>
<text x="116" y="87">inc-lib/Transforms/ObjCARC</text>
<text x="181" y="58">inc-lib/Transforms/Scalar</text>
<text x="288" y="25">inc-lib/Transforms/Utils</text>
<text x="321" y="19">inc-lib/Transforms/Vectorize</text>
<text x="395" y="19">include/llvm-c</text>
<text x="343" y="19">include/llvm-c/Transforms</text>
</g>
</svg>