<svg xmlns="http://www.w3.org/2000/svg" version="1.1" width="500" height="439">
<g  fill="#f5f5ff" stroke="rgb(0,0,0)" style="stroke-width:1">
<line x1="231" y1="47" x2="231" y2="36" />
<line x1="332" y1="82" x2="339" y2="74" />
<line x1="335" y1="85" x2="343" y2="76" />
<line x1="351" y1="303" x2="359" y2="310" />
<line x1="337" y1="317" x2="344" y2="325" />
<line x1="300" y1="342" x2="305" y2="351" />
<line x1="194" y1="351" x2="191" y2="362" />
<line x1="149" y1="332" x2="143" y2="341" />
<line x1="237" y1="52" x2="234" y2="52" />
<line x1="253" y1="53" x2="245" y2="52" />
<line x1="257" y1="53" x2="245" y2="52" />
<line x1="261" y1="54" x2="241" y2="52" />
<line x1="261" y1="54" x2="257" y2="53" />
<line x1="272" y1="57" x2="245" y2="52" />
<line x1="272" y1="57" x2="268" y2="56" />
<line x1="276" y1="58" x2="245" y2="52" />
<line x1="283" y1="60" x2="268" y2="56" />
<line x1="308" y1="71" x2="298" y2="66" />
<line x1="308" y1="71" x2="301" y2="68" />
<line x1="308" y1="71" x2="305" y2="70" />
<line x1="312" y1="73" x2="308" y2="71" />
<line x1="315" y1="76" x2="261" y2="54" />
<line x1="315" y1="76" x2="308" y2="71" />
<line x1="318" y1="78" x2="245" y2="52" />
<line x1="328" y1="85" x2="272" y2="57" />
<line x1="334" y1="90" x2="237" y2="52" />
<line x1="336" y1="92" x2="272" y2="57" />
<line x1="339" y1="95" x2="272" y2="57" />
<line x1="339" y1="95" x2="331" y2="87" />
<line x1="347" y1="104" x2="272" y2="57" />
<line x1="347" y1="104" x2="328" y2="85" />
<line x1="355" y1="113" x2="352" y2="110" />
<line x1="357" y1="116" x2="352" y2="110" />
<line x1="359" y1="119" x2="245" y2="52" />
<line x1="365" y1="129" x2="245" y2="52" />
<line x1="365" y1="129" x2="331" y2="87" />
<line x1="370" y1="140" x2="367" y2="133" />
<line x1="372" y1="143" x2="370" y2="140" />
<line x1="373" y1="147" x2="369" y2="136" />
<line x1="373" y1="147" x2="372" y2="143" />
<line x1="377" y1="158" x2="367" y2="133" />
<line x1="377" y1="158" x2="369" y2="136" />
<line x1="378" y1="162" x2="370" y2="140" />
<line x1="379" y1="166" x2="372" y2="143" />
<line x1="379" y1="166" x2="375" y2="151" />
<line x1="379" y1="166" x2="377" y2="158" />
<line x1="379" y1="166" x2="378" y2="162" />
<line x1="380" y1="169" x2="373" y2="147" />
<line x1="380" y1="169" x2="378" y2="162" />
<line x1="380" y1="169" x2="379" y2="166" />
<line x1="381" y1="173" x2="375" y2="151" />
<line x1="381" y1="173" x2="377" y2="158" />
<line x1="381" y1="173" x2="380" y2="169" />
<line x1="382" y1="177" x2="370" y2="140" />
<line x1="382" y1="177" x2="379" y2="166" />
<line x1="382" y1="177" x2="381" y2="173" />
<line x1="382" y1="181" x2="380" y2="169" />
<line x1="383" y1="197" x2="276" y2="58" />
<line x1="383" y1="197" x2="334" y2="90" />
<line x1="383" y1="197" x2="336" y2="92" />
<line x1="383" y1="197" x2="339" y2="95" />
<line x1="383" y1="197" x2="365" y2="129" />
<line x1="383" y1="197" x2="383" y2="193" />
<line x1="383" y1="212" x2="383" y2="208" />
<line x1="382" y1="220" x2="383" y2="212" />
<line x1="382" y1="224" x2="383" y2="204" />
<line x1="381" y1="228" x2="383" y2="204" />
<line x1="381" y1="228" x2="383" y2="208" />
<line x1="380" y1="232" x2="257" y2="53" />
<line x1="380" y1="232" x2="318" y2="78" />
<line x1="380" y1="232" x2="328" y2="85" />
<line x1="380" y1="232" x2="383" y2="216" />
<line x1="380" y1="232" x2="382" y2="220" />
<line x1="380" y1="235" x2="249" y2="52" />
<line x1="380" y1="235" x2="280" y2="59" />
<line x1="379" y1="239" x2="241" y2="52" />
<line x1="379" y1="239" x2="272" y2="57" />
<line x1="379" y1="239" x2="283" y2="60" />
<line x1="379" y1="239" x2="312" y2="73" />
<line x1="379" y1="239" x2="328" y2="85" />
<line x1="379" y1="239" x2="383" y2="189" />
<line x1="379" y1="239" x2="380" y2="235" />
<line x1="378" y1="243" x2="361" y2="123" />
<line x1="377" y1="247" x2="234" y2="52" />
<line x1="377" y1="247" x2="237" y2="52" />
<line x1="377" y1="247" x2="249" y2="52" />
<line x1="377" y1="247" x2="294" y2="64" />
<line x1="377" y1="247" x2="359" y2="119" />
<line x1="377" y1="247" x2="363" y2="126" />
<line x1="377" y1="247" x2="379" y2="166" />
<line x1="377" y1="247" x2="383" y2="197" />
<line x1="377" y1="247" x2="382" y2="220" />
<line x1="374" y1="254" x2="375" y2="250" />
<line x1="373" y1="258" x2="374" y2="254" />
<line x1="369" y1="265" x2="331" y2="87" />
<line x1="369" y1="265" x2="383" y2="197" />
<line x1="368" y1="268" x2="383" y2="197" />
<line x1="364" y1="275" x2="272" y2="57" />
<line x1="364" y1="275" x2="377" y2="247" />
<line x1="362" y1="279" x2="331" y2="87" />
<line x1="362" y1="279" x2="383" y2="197" />
<line x1="360" y1="282" x2="359" y2="119" />
<line x1="360" y1="282" x2="377" y2="247" />
<line x1="360" y1="282" x2="364" y2="275" />
<line x1="356" y1="289" x2="383" y2="197" />
<line x1="356" y1="289" x2="366" y2="272" />
<line x1="356" y1="289" x2="358" y2="285" />
<line x1="353" y1="292" x2="377" y2="247" />
<line x1="348" y1="298" x2="272" y2="57" />
<line x1="348" y1="298" x2="383" y2="197" />
<line x1="348" y1="298" x2="379" y2="239" />
<line x1="348" y1="298" x2="362" y2="279" />
<line x1="348" y1="298" x2="358" y2="285" />
<line x1="346" y1="301" x2="342" y2="98" />
<line x1="335" y1="312" x2="359" y2="119" />
<line x1="335" y1="312" x2="338" y2="309" />
<line x1="329" y1="317" x2="382" y2="181" />
<line x1="329" y1="317" x2="377" y2="247" />
<line x1="326" y1="320" x2="350" y2="107" />
<line x1="323" y1="322" x2="383" y2="197" />
<line x1="320" y1="324" x2="329" y2="317" />
<line x1="317" y1="326" x2="359" y2="119" />
<line x1="317" y1="326" x2="370" y2="140" />
<line x1="317" y1="326" x2="373" y2="147" />
<line x1="317" y1="326" x2="376" y2="154" />
<line x1="317" y1="326" x2="380" y2="169" />
<line x1="317" y1="326" x2="382" y2="181" />
<line x1="317" y1="326" x2="326" y2="320" />
<line x1="317" y1="326" x2="323" y2="322" />
<line x1="317" y1="326" x2="320" y2="324" />
<line x1="313" y1="329" x2="376" y2="154" />
<line x1="292" y1="339" x2="383" y2="208" />
<line x1="292" y1="339" x2="381" y2="228" />
<line x1="278" y1="345" x2="380" y2="232" />
<line x1="278" y1="345" x2="377" y2="247" />
<line x1="278" y1="345" x2="292" y2="339" />
<line x1="278" y1="345" x2="289" y2="341" />
<line x1="278" y1="345" x2="282" y2="344" />
<line x1="274" y1="346" x2="377" y2="247" />
<line x1="274" y1="346" x2="285" y2="342" />
<line x1="274" y1="346" x2="278" y2="345" />
<line x1="266" y1="348" x2="359" y2="119" />
<line x1="259" y1="349" x2="383" y2="197" />
<line x1="259" y1="349" x2="263" y2="349" />
<line x1="255" y1="350" x2="266" y2="348" />
<line x1="251" y1="350" x2="379" y2="239" />
<line x1="224" y1="351" x2="377" y2="247" />
<line x1="220" y1="351" x2="380" y2="235" />
<line x1="220" y1="351" x2="379" y2="239" />
<line x1="220" y1="351" x2="377" y2="247" />
<line x1="220" y1="351" x2="255" y2="350" />
<line x1="220" y1="351" x2="235" y2="351" />
<line x1="220" y1="351" x2="232" y2="351" />
<line x1="220" y1="351" x2="228" y2="351" />
<line x1="216" y1="350" x2="377" y2="247" />
<line x1="212" y1="350" x2="255" y2="350" />
<line x1="201" y1="348" x2="347" y2="104" />
<line x1="197" y1="347" x2="377" y2="247" />
<line x1="197" y1="347" x2="282" y2="344" />
<line x1="197" y1="347" x2="263" y2="349" />
<line x1="197" y1="347" x2="259" y2="349" />
<line x1="193" y1="346" x2="263" y2="349" />
<line x1="193" y1="346" x2="197" y2="347" />
<line x1="189" y1="345" x2="193" y2="346" />
<line x1="185" y1="344" x2="204" y2="349" />
<line x1="185" y1="344" x2="189" y2="345" />
<line x1="175" y1="339" x2="197" y2="347" />
<line x1="167" y1="336" x2="182" y2="342" />
<line x1="167" y1="336" x2="175" y2="339" />
<line x1="160" y1="333" x2="189" y2="345" />
<line x1="157" y1="331" x2="377" y2="247" />
<line x1="154" y1="329" x2="160" y2="333" />
<line x1="150" y1="326" x2="339" y2="95" />
<line x1="150" y1="326" x2="175" y2="339" />
<line x1="141" y1="320" x2="147" y2="324" />
<line x1="135" y1="315" x2="376" y2="154" />
<line x1="135" y1="315" x2="377" y2="247" />
<line x1="135" y1="315" x2="193" y2="346" />
<line x1="135" y1="315" x2="138" y2="317" />
<line x1="121" y1="301" x2="154" y2="329" />
<line x1="121" y1="301" x2="135" y2="315" />
<line x1="121" y1="301" x2="126" y2="307" />
<line x1="116" y1="295" x2="382" y2="177" />
<line x1="114" y1="292" x2="373" y2="147" />
<line x1="111" y1="289" x2="116" y2="295" />
<line x1="107" y1="282" x2="182" y2="342" />
<line x1="103" y1="275" x2="380" y2="169" />
<line x1="103" y1="275" x2="382" y2="181" />
<line x1="96" y1="261" x2="99" y2="268" />
<line x1="92" y1="250" x2="377" y2="247" />
<line x1="90" y1="247" x2="175" y2="339" />
<line x1="88" y1="239" x2="147" y2="324" />
<line x1="88" y1="239" x2="129" y2="309" />
<line x1="88" y1="239" x2="98" y2="265" />
<line x1="87" y1="232" x2="87" y2="235" />
<line x1="85" y1="224" x2="377" y2="247" />
<line x1="85" y1="220" x2="126" y2="307" />
<line x1="84" y1="216" x2="132" y2="312" />
<line x1="84" y1="216" x2="124" y2="304" />
<line x1="84" y1="212" x2="141" y2="320" />
<line x1="84" y1="208" x2="116" y2="295" />
<line x1="84" y1="208" x2="92" y2="250" />
<line x1="84" y1="208" x2="84" y2="216" />
<line x1="84" y1="197" x2="376" y2="154" />
<line x1="84" y1="197" x2="193" y2="346" />
<line x1="84" y1="193" x2="84" y2="197" />
<line x1="84" y1="189" x2="377" y2="247" />
<line x1="84" y1="189" x2="84" y2="204" />
<line x1="84" y1="189" x2="84" y2="201" />
<line x1="84" y1="189" x2="84" y2="193" />
<line x1="84" y1="185" x2="138" y2="317" />
<line x1="84" y1="185" x2="135" y2="315" />
<line x1="84" y1="185" x2="84" y2="189" />
<line x1="85" y1="181" x2="99" y2="268" />
<line x1="85" y1="181" x2="84" y2="189" />
<line x1="85" y1="177" x2="182" y2="342" />
<line x1="86" y1="173" x2="376" y2="154" />
<line x1="86" y1="173" x2="193" y2="346" />
<line x1="86" y1="173" x2="84" y2="204" />
<line x1="87" y1="169" x2="86" y2="173" />
<line x1="88" y1="166" x2="84" y2="204" />
<line x1="88" y1="166" x2="86" y2="173" />
<line x1="90" y1="158" x2="377" y2="247" />
<line x1="90" y1="158" x2="84" y2="216" />
<line x1="91" y1="154" x2="88" y2="239" />
<line x1="94" y1="147" x2="380" y2="169" />
<line x1="94" y1="147" x2="92" y2="151" />
<line x1="95" y1="143" x2="369" y2="136" />
<line x1="95" y1="143" x2="84" y2="208" />
<line x1="97" y1="140" x2="380" y2="169" />
<line x1="97" y1="140" x2="84" y2="208" />
<line x1="97" y1="140" x2="92" y2="151" />
<line x1="98" y1="136" x2="382" y2="177" />
<line x1="98" y1="136" x2="84" y2="208" />
<line x1="100" y1="133" x2="97" y2="140" />
<line x1="102" y1="129" x2="86" y2="173" />
<line x1="104" y1="126" x2="86" y2="173" />
<line x1="108" y1="119" x2="377" y2="247" />
<line x1="110" y1="116" x2="95" y2="143" />
<line x1="110" y1="116" x2="97" y2="140" />
<line x1="110" y1="116" x2="106" y2="123" />
<line x1="110" y1="116" x2="108" y2="119" />
<line x1="112" y1="113" x2="182" y2="342" />
<line x1="125" y1="98" x2="377" y2="247" />
<line x1="125" y1="98" x2="115" y2="110" />
<line x1="125" y1="98" x2="120" y2="104" />
<line x1="125" y1="98" x2="122" y2="101" />
<line x1="133" y1="90" x2="182" y2="342" />
<line x1="136" y1="87" x2="366" y2="272" />
<line x1="136" y1="87" x2="185" y2="344" />
<line x1="136" y1="87" x2="182" y2="342" />
<line x1="139" y1="85" x2="358" y2="285" />
<line x1="139" y1="85" x2="185" y2="344" />
<line x1="139" y1="85" x2="182" y2="342" />
<line x1="143" y1="82" x2="88" y2="239" />
<line x1="146" y1="80" x2="350" y2="107" />
<line x1="149" y1="78" x2="379" y2="166" />
<line x1="152" y1="76" x2="370" y2="140" />
<line x1="152" y1="76" x2="376" y2="154" />
<line x1="159" y1="71" x2="152" y2="76" />
<line x1="162" y1="70" x2="185" y2="344" />
<line x1="162" y1="70" x2="182" y2="342" />
<line x1="166" y1="68" x2="376" y2="154" />
<line x1="166" y1="68" x2="84" y2="201" />
<line x1="169" y1="66" x2="339" y2="95" />
<line x1="169" y1="66" x2="175" y2="339" />
<line x1="173" y1="64" x2="84" y2="201" />
<line x1="173" y1="64" x2="166" y2="68" />
<line x1="176" y1="63" x2="144" y2="322" />
<line x1="176" y1="63" x2="141" y2="320" />
<line x1="176" y1="63" x2="166" y2="68" />
<line x1="184" y1="60" x2="88" y2="239" />
<line x1="184" y1="60" x2="84" y2="216" />
<line x1="184" y1="60" x2="176" y2="63" />
<line x1="184" y1="60" x2="180" y2="61" />
<line x1="195" y1="57" x2="377" y2="247" />
<line x1="199" y1="56" x2="162" y2="70" />
<line x1="202" y1="55" x2="382" y2="177" />
<line x1="202" y1="55" x2="377" y2="247" />
<line x1="206" y1="54" x2="376" y2="154" />
<line x1="206" y1="54" x2="166" y2="68" />
<line x1="206" y1="54" x2="184" y2="60" />
<line x1="206" y1="54" x2="199" y2="56" />
<line x1="210" y1="53" x2="206" y2="54" />
<line x1="214" y1="53" x2="206" y2="54" />
<line x1="218" y1="52" x2="133" y2="90" />
<line x1="226" y1="52" x2="383" y2="208" />
<line x1="226" y1="52" x2="380" y2="232" />
<line x1="230" y1="52" x2="376" y2="154" />
<line x1="230" y1="52" x2="381" y2="228" />
<line x1="230" y1="52" x2="193" y2="346" />
<line x1="230" y1="52" x2="107" y2="282" />
<line x1="230" y1="52" x2="90" y2="247" />
<line x1="230" y1="52" x2="84" y2="197" />
<line x1="230" y1="52" x2="84" y2="193" />
<line x1="230" y1="52" x2="85" y2="177" />
<line x1="230" y1="52" x2="112" y2="113" />
<line x1="230" y1="52" x2="169" y2="66" />
<line x1="230" y1="52" x2="222" y2="52" />
<line x1="230" y1="52" x2="226" y2="52" />
<circle cx="234" cy="52" r="1" style="fill:#ffffff" />
<circle cx="237" cy="52" r="1" style="fill:#ffffff" />
<circle cx="241" cy="52" r="1" style="fill:#ffffff" />
<circle cx="245" cy="52" r="1" style="fill:#ffffff" />
<circle cx="249" cy="52" r="1" style="fill:#ffffff" />
<circle cx="253" cy="53" r="1" style="fill:#ffffff" />
<circle cx="257" cy="53" r="1" style="fill:#ffffff" />
<circle cx="261" cy="54" r="1" style="fill:#ffffff" />
<circle cx="265" cy="55" r="1" style="fill:#ffffff" />
<circle cx="268" cy="56" r="1" style="fill:#ffffff" />
<circle cx="272" cy="57" r="1" style="fill:#ffffff" />
<circle cx="276" cy="58" r="1" style="fill:#ffffff" />
<circle cx="280" cy="59" r="1" style="fill:#ffffff" />
<circle cx="283" cy="60" r="1" style="fill:#ffffff" />
<circle cx="287" cy="61" r="1" style="fill:#ffffff" />
<circle cx="291" cy="63" r="1" style="fill:#ffffff" />
<circle cx="294" cy="64" r="1" style="fill:#ffffff" />
<circle cx="298" cy="66" r="1" style="fill:#ffffff" />
<circle cx="301" cy="68" r="1" style="fill:#ffffff" />
<circle cx="305" cy="70" r="1" style="fill:#ffffff" />
<circle cx="308" cy="71" r="1" style="fill:#ffffff" />
<circle cx="312" cy="73" r="1" style="fill:#ffffff" />
<circle cx="315" cy="76" r="1" style="fill:#ffffff" />
<circle cx="318" cy="78" r="1" style="fill:#ffffff" />
<circle cx="321" cy="80" r="1" style="fill:#ffffff" />
<circle cx="324" cy="82" r="1" style="fill:#ffffff" />
<circle cx="328" cy="85" r="1" style="fill:#ffffff" />
<circle cx="331" cy="87" r="1" style="fill:#ffffff" />
<circle cx="334" cy="90" r="1" style="fill:#ffffff" />
<circle cx="336" cy="92" r="1" style="fill:#ffffff" />
<circle cx="339" cy="95" r="1" style="fill:#ffffff" />
<circle cx="342" cy="98" r="1" style="fill:#ffffff" />
<circle cx="345" cy="101" r="1" style="fill:#ffffff" />
<circle cx="347" cy="104" r="1" style="fill:#ffffff" />
<circle cx="350" cy="107" r="1" style="fill:#ffffff" />
<circle cx="352" cy="110" r="1" style="fill:#ffffff" />
<circle cx="355" cy="113" r="1" style="fill:#ffffff" />
<circle cx="357" cy="116" r="1" style="fill:#ffffff" />
<circle cx="359" cy="119" r="1" style="fill:#ffffff" />
<circle cx="361" cy="123" r="1" style="fill:#ffffff" />
<circle cx="363" cy="126" r="1" style="fill:#ffffff" />
<circle cx="365" cy="129" r="1" style="fill:#ffffff" />
<circle cx="367" cy="133" r="1" style="fill:#ffffff" />
<circle cx="369" cy="136" r="1" style="fill:#ffffff" />
<circle cx="370" cy="140" r="1" style="fill:#ffffff" />
<circle cx="372" cy="143" r="1" style="fill:#ffffff" />
<circle cx="373" cy="147" r="1" style="fill:#ffffff" />
<circle cx="375" cy="151" r="1" style="fill:#ffffff" />
<circle cx="376" cy="154" r="1" style="fill:#ffffff" />
<circle cx="377" cy="158" r="1" style="fill:#ffffff" />
<circle cx="378" cy="162" r="1" style="fill:#ffffff" />
<circle cx="379" cy="166" r="1" style="fill:#ffffff" />
<circle cx="380" cy="169" r="1" style="fill:#ffffff" />
<circle cx="381" cy="173" r="1" style="fill:#ffffff" />
<circle cx="382" cy="177" r="1" style="fill:#ffffff" />
<circle cx="382" cy="181" r="1" style="fill:#ffffff" />
<circle cx="383" cy="185" r="1" style="fill:#ffffff" />
<circle cx="383" cy="189" r="1" style="fill:#ffffff" />
<circle cx="383" cy="193" r="1" style="fill:#ffffff" />
<circle cx="383" cy="197" r="1" style="fill:#ffffff" />
<circle cx="383" cy="201" r="1" style="fill:#ffffff" />
<circle cx="383" cy="204" r="1" style="fill:#ffffff" />
<circle cx="383" cy="208" r="1" style="fill:#ffffff" />
<circle cx="383" cy="212" r="1" style="fill:#ffffff" />
<circle cx="383" cy="216" r="1" style="fill:#ffffff" />
<circle cx="382" cy="220" r="1" style="fill:#ffffff" />
<circle cx="382" cy="224" r="1" style="fill:#ffffff" />
<circle cx="381" cy="228" r="1" style="fill:#ffffff" />
<circle cx="380" cy="232" r="1" style="fill:#ffffff" />
<circle cx="380" cy="235" r="1" style="fill:#ffffff" />
<circle cx="379" cy="239" r="1" style="fill:#ffffff" />
<circle cx="378" cy="243" r="1" style="fill:#ffffff" />
<circle cx="377" cy="247" r="1" style="fill:#ffffff" />
<circle cx="375" cy="250" r="1" style="fill:#ffffff" />
<circle cx="374" cy="254" r="1" style="fill:#ffffff" />
<circle cx="373" cy="258" r="1" style="fill:#ffffff" />
<circle cx="371" cy="261" r="1" style="fill:#ffffff" />
<circle cx="369" cy="265" r="1" style="fill:#ffffff" />
<circle cx="368" cy="268" r="1" style="fill:#ffffff" />
<circle cx="366" cy="272" r="1" style="fill:#ffffff" />
<circle cx="364" cy="275" r="1" style="fill:#ffffff" />
<circle cx="362" cy="279" r="1" style="fill:#ffffff" />
<circle cx="360" cy="282" r="1" style="fill:#ffffff" />
<circle cx="358" cy="285" r="1" style="fill:#ffffff" />
<circle cx="356" cy="289" r="1" style="fill:#ffffff" />
<circle cx="353" cy="292" r="1" style="fill:#ffffff" />
<circle cx="351" cy="295" r="1" style="fill:#ffffff" />
<circle cx="348" cy="298" r="1" style="fill:#ffffff" />
<circle cx="346" cy="301" r="1" style="fill:#ffffff" />
<circle cx="343" cy="304" r="1" style="fill:#ffffff" />
<circle cx="341" cy="307" r="1" style="fill:#ffffff" />
<circle cx="338" cy="309" r="1" style="fill:#ffffff" />
<circle cx="335" cy="312" r="1" style="fill:#ffffff" />
<circle cx="332" cy="315" r="1" style="fill:#ffffff" />
<circle cx="329" cy="317" r="1" style="fill:#ffffff" />
<circle cx="326" cy="320" r="1" style="fill:#ffffff" />
<circle cx="323" cy="322" r="1" style="fill:#ffffff" />
<circle cx="320" cy="324" r="1" style="fill:#ffffff" />
<circle cx="317" cy="326" r="1" style="fill:#ffffff" />
<circle cx="313" cy="329" r="1" style="fill:#ffffff" />
<circle cx="310" cy="331" r="1" style="fill:#ffffff" />
<circle cx="307" cy="333" r="1" style="fill:#ffffff" />
<circle cx="303" cy="334" r="1" style="fill:#ffffff" />
<circle cx="300" cy="336" r="1" style="fill:#ffffff" />
<circle cx="296" cy="338" r="1" style="fill:#ffffff" />
<circle cx="292" cy="339" r="1" style="fill:#ffffff" />
<circle cx="289" cy="341" r="1" style="fill:#ffffff" />
<circle cx="285" cy="342" r="1" style="fill:#ffffff" />
<circle cx="282" cy="344" r="1" style="fill:#ffffff" />
<circle cx="278" cy="345" r="1" style="fill:#ffffff" />
<circle cx="274" cy="346" r="1" style="fill:#ffffff" />
<circle cx="270" cy="347" r="1" style="fill:#ffffff" />
<circle cx="266" cy="348" r="1" style="fill:#ffffff" />
<circle cx="263" cy="349" r="1" style="fill:#ffffff" />
<circle cx="259" cy="349" r="1" style="fill:#ffffff" />
<circle cx="255" cy="350" r="1" style="fill:#ffffff" />
<circle cx="251" cy="350" r="1" style="fill:#ffffff" />
<circle cx="247" cy="351" r="1" style="fill:#ffffff" />
<circle cx="243" cy="351" r="1" style="fill:#ffffff" />
<circle cx="239" cy="351" r="1" style="fill:#ffffff" />
<circle cx="235" cy="351" r="1" style="fill:#ffffff" />
<circle cx="232" cy="351" r="1" style="fill:#ffffff" />
<circle cx="228" cy="351" r="1" style="fill:#ffffff" />
<circle cx="224" cy="351" r="1" style="fill:#ffffff" />
<circle cx="220" cy="351" r="1" style="fill:#ffffff" />
<circle cx="216" cy="350" r="1" style="fill:#ffffff" />
<circle cx="212" cy="350" r="1" style="fill:#ffffff" />
<circle cx="208" cy="349" r="1" style="fill:#ffffff" />
<circle cx="204" cy="349" r="1" style="fill:#ffffff" />
<circle cx="201" cy="348" r="1" style="fill:#ffffff" />
<circle cx="197" cy="347" r="1" style="fill:#ffffff" />
<circle cx="193" cy="346" r="1" style="fill:#ffffff" />
<circle cx="189" cy="345" r="1" style="fill:#ffffff" />
<circle cx="185" cy="344" r="1" style="fill:#ffffff" />
<circle cx="182" cy="342" r="1" style="fill:#ffffff" />
<circle cx="178" cy="341" r="1" style="fill:#ffffff" />
<circle cx="175" cy="339" r="1" style="fill:#ffffff" />
<circle cx="171" cy="338" r="1" style="fill:#ffffff" />
<circle cx="167" cy="336" r="1" style="fill:#ffffff" />
<circle cx="164" cy="334" r="1" style="fill:#ffffff" />
<circle cx="160" cy="333" r="1" style="fill:#ffffff" />
<circle cx="157" cy="331" r="1" style="fill:#ffffff" />
<circle cx="154" cy="329" r="1" style="fill:#ffffff" />
<circle cx="150" cy="326" r="1" style="fill:#ffffff" />
<circle cx="147" cy="324" r="1" style="fill:#ffffff" />
<circle cx="144" cy="322" r="1" style="fill:#ffffff" />
<circle cx="141" cy="320" r="1" style="fill:#ffffff" />
<circle cx="138" cy="317" r="1" style="fill:#ffffff" />
<circle cx="135" cy="315" r="1" style="fill:#ffffff" />
<circle cx="132" cy="312" r="1" style="fill:#ffffff" />
<circle cx="129" cy="309" r="1" style="fill:#ffffff" />
<circle cx="126" cy="307" r="1" style="fill:#ffffff" />
<circle cx="124" cy="304" r="1" style="fill:#ffffff" />
<circle cx="121" cy="301" r="1" style="fill:#ffffff" />
<circle cx="119" cy="298" r="1" style="fill:#ffffff" />
<circle cx="116" cy="295" r="1" style="fill:#ffffff" />
<circle cx="114" cy="292" r="1" style="fill:#ffffff" />
<circle cx="111" cy="289" r="1" style="fill:#ffffff" />
<circle cx="109" cy="285" r="1" style="fill:#ffffff" />
<circle cx="107" cy="282" r="1" style="fill:#ffffff" />
<circle cx="105" cy="279" r="1" style="fill:#ffffff" />
<circle cx="103" cy="275" r="1" style="fill:#ffffff" />
<circle cx="101" cy="272" r="1" style="fill:#ffffff" />
<circle cx="99" cy="268" r="1" style="fill:#ffffff" />
<circle cx="98" cy="265" r="1" style="fill:#ffffff" />
<circle cx="96" cy="261" r="1" style="fill:#ffffff" />
<circle cx="94" cy="258" r="1" style="fill:#ffffff" />
<circle cx="93" cy="254" r="1" style="fill:#ffffff" />
<circle cx="92" cy="250" r="1" style="fill:#ffffff" />
<circle cx="90" cy="247" r="1" style="fill:#ffffff" />
<circle cx="89" cy="243" r="1" style="fill:#ffffff" />
<circle cx="88" cy="239" r="1" style="fill:#ffffff" />
<circle cx="87" cy="235" r="1" style="fill:#ffffff" />
<circle cx="87" cy="232" r="1" style="fill:#ffffff" />
<circle cx="86" cy="228" r="1" style="fill:#ffffff" />
<circle cx="85" cy="224" r="1" style="fill:#ffffff" />
<circle cx="85" cy="220" r="1" style="fill:#ffffff" />
<circle cx="84" cy="216" r="1" style="fill:#ffffff" />
<circle cx="84" cy="212" r="1" style="fill:#ffffff" />
<circle cx="84" cy="208" r="1" style="fill:#ffffff" />
<circle cx="84" cy="204" r="1" style="fill:#ffffff" />
<circle cx="84" cy="201" r="1" style="fill:#ffffff" />
<circle cx="84" cy="197" r="1" style="fill:#ffffff" />
<circle cx="84" cy="193" r="1" style="fill:#ffffff" />
<circle cx="84" cy="189" r="1" style="fill:#ffffff" />
<circle cx="84" cy="185" r="1" style="fill:#ffffff" />
<circle cx="85" cy="181" r="1" style="fill:#ffffff" />
<circle cx="85" cy="177" r="1" style="fill:#ffffff" />
<circle cx="86" cy="173" r="1" style="fill:#ffffff" />
<circle cx="87" cy="169" r="1" style="fill:#ffffff" />
<circle cx="88" cy="166" r="1" style="fill:#ffffff" />
<circle cx="89" cy="162" r="1" style="fill:#ffffff" />
<circle cx="90" cy="158" r="1" style="fill:#ffffff" />
<circle cx="91" cy="154" r="1" style="fill:#ffffff" />
<circle cx="92" cy="151" r="1" style="fill:#ffffff" />
<circle cx="94" cy="147" r="1" style="fill:#ffffff" />
<circle cx="95" cy="143" r="1" style="fill:#ffffff" />
<circle cx="97" cy="140" r="1" style="fill:#ffffff" />
<circle cx="98" cy="136" r="1" style="fill:#ffffff" />
<circle cx="100" cy="133" r="1" style="fill:#ffffff" />
<circle cx="102" cy="129" r="1" style="fill:#ffffff" />
<circle cx="104" cy="126" r="1" style="fill:#ffffff" />
<circle cx="106" cy="123" r="1" style="fill:#ffffff" />
<circle cx="108" cy="119" r="1" style="fill:#ffffff" />
<circle cx="110" cy="116" r="1" style="fill:#ffffff" />
<circle cx="112" cy="113" r="1" style="fill:#ffffff" />
<circle cx="115" cy="110" r="1" style="fill:#ffffff" />
<circle cx="117" cy="107" r="1" style="fill:#ffffff" />
<circle cx="120" cy="104" r="1" style="fill:#ffffff" />
<circle cx="122" cy="101" r="1" style="fill:#ffffff" />
<circle cx="125" cy="98" r="1" style="fill:#ffffff" />
<circle cx="128" cy="95" r="1" style="fill:#ffffff" />
<circle cx="131" cy="92" r="1" style="fill:#ffffff" />
<circle cx="133" cy="90" r="1" style="fill:#ffffff" />
<circle cx="136" cy="87" r="1" style="fill:#ffffff" />
<circle cx="139" cy="85" r="1" style="fill:#ffffff" />
<circle cx="143" cy="82" r="1" style="fill:#ffffff" />
<circle cx="146" cy="80" r="1" style="fill:#ffffff" />
<circle cx="149" cy="78" r="1" style="fill:#ffffff" />
<circle cx="152" cy="76" r="1" style="fill:#ffffff" />
<circle cx="155" cy="73" r="1" style="fill:#ffffff" />
<circle cx="159" cy="71" r="1" style="fill:#ffffff" />
<circle cx="162" cy="70" r="1" style="fill:#ffffff" />
<circle cx="166" cy="68" r="1" style="fill:#ffffff" />
<circle cx="169" cy="66" r="1" style="fill:#ffffff" />
<circle cx="173" cy="64" r="1" style="fill:#ffffff" />
<circle cx="176" cy="63" r="1" style="fill:#ffffff" />
<circle cx="180" cy="61" r="1" style="fill:#ffffff" />
<circle cx="184" cy="60" r="1" style="fill:#ffffff" />
<circle cx="187" cy="59" r="1" style="fill:#ffffff" />
<circle cx="191" cy="58" r="1" style="fill:#ffffff" />
<circle cx="195" cy="57" r="1" style="fill:#ffffff" />
<circle cx="199" cy="56" r="1" style="fill:#ffffff" />
<circle cx="202" cy="55" r="1" style="fill:#ffffff" />
<circle cx="206" cy="54" r="1" style="fill:#ffffff" />
<circle cx="210" cy="53" r="1" style="fill:#ffffff" />
<circle cx="214" cy="53" r="1" style="fill:#ffffff" />
<circle cx="218" cy="52" r="1" style="fill:#ffffff" />
<circle cx="222" cy="52" r="1" style="fill:#ffffff" />
<circle cx="226" cy="52" r="1" style="fill:#ffffff" />
<circle cx="230" cy="52" r="1" style="fill:#ffffff" />
</g>
<g font-size="10.000000">
<text x="295" y="19">oovBuilder</text>
<text x="354" y="53">oovCMaker</text>
<text x="419" y="184">oovCommon</text>
<text x="366" y="325">oovCovInstr</text>
<text x="336" y="347">oovCppParser</text>
<text x="250" y="380">oovEdit</text>
<text x="78" y="364">oovGuiCommon</text>
<text x="19" y="145">oovcde</text>
</g>
</svg>