<svg xmlns="http://www.w3.org/2000/svg" version="1.1" width="1167" height="834">
<g  fill="#f5f5ff" stroke="rgb(0,0,0)" style="stroke-width:1">
<line x1="574" y1="57" x2="574" y2="46" />
<line x1="582" y1="57" x2="582" y2="46" />
<line x1="621" y1="60" x2="623" y2="49" />
<line x1="756" y1="109" x2="762" y2="100" />
<line x1="761" y1="112" x2="768" y2="103" />
<line x1="767" y1="116" x2="773" y2="107" />
<line x1="772" y1="120" x2="779" y2="111" />
<line x1="776" y1="122" x2="783" y2="114" />
<line x1="779" y1="124" x2="785" y2="115" />
<line x1="913" y1="348" x2="924" y2="346" />
<line x1="916" y1="386" x2="927" y2="386" />
<line x1="916" y1="393" x2="927" y2="393" />
<line x1="915" y1="426" x2="926" y2="427" />
<line x1="913" y1="447" x2="924" y2="448" />
<line x1="910" y1="464" x2="921" y2="466" />
<line x1="908" y1="474" x2="919" y2="476" />
<line x1="907" y1="479" x2="918" y2="481" />
<line x1="905" y1="488" x2="915" y2="490" />
<line x1="904" y1="490" x2="915" y2="493" />
<line x1="904" y1="491" x2="915" y2="493" />
<line x1="901" y1="499" x2="912" y2="503" />
<line x1="901" y1="502" x2="911" y2="506" />
<line x1="717" y1="710" x2="721" y2="720" />
<line x1="715" y1="711" x2="720" y2="721" />
<line x1="714" y1="712" x2="718" y2="722" />
<line x1="711" y1="713" x2="715" y2="723" />
<line x1="611" y1="740" x2="612" y2="750" />
<line x1="586" y1="741" x2="586" y2="752" />
<line x1="584" y1="741" x2="584" y2="752" />
<line x1="571" y1="741" x2="571" y2="752" />
<line x1="478" y1="728" x2="475" y2="738" />
<line x1="472" y1="726" x2="469" y2="737" />
<line x1="464" y1="723" x2="460" y2="734" />
<line x1="286" y1="585" x2="277" y2="591" />
<line x1="284" y1="582" x2="275" y2="588" />
<line x1="265" y1="546" x2="255" y2="551" />
<line x1="256" y1="527" x2="246" y2="531" />
<line x1="247" y1="502" x2="237" y2="506" />
<line x1="247" y1="501" x2="236" y2="504" />
<line x1="247" y1="499" x2="236" y2="503" />
<line x1="246" y1="497" x2="235" y2="500" />
<line x1="244" y1="490" x2="233" y2="493" />
<line x1="241" y1="481" x2="231" y2="483" />
<line x1="234" y1="441" x2="223" y2="442" />
<line x1="234" y1="438" x2="223" y2="439" />
<line x1="233" y1="435" x2="222" y2="437" />
<line x1="233" y1="435" x2="222" y2="436" />
<line x1="232" y1="418" x2="221" y2="419" />
<line x1="232" y1="417" x2="221" y2="417" />
<line x1="232" y1="393" x2="221" y2="393" />
<line x1="232" y1="392" x2="221" y2="392" />
<line x1="232" y1="390" x2="221" y2="390" />
<line x1="232" y1="379" x2="221" y2="379" />
<line x1="232" y1="378" x2="221" y2="378" />
<line x1="232" y1="378" x2="221" y2="377" />
<line x1="238" y1="334" x2="227" y2="332" />
<line x1="238" y1="332" x2="227" y2="330" />
<line x1="239" y1="330" x2="228" y2="327" />
<line x1="239" y1="329" x2="228" y2="327" />
<line x1="240" y1="322" x2="230" y2="320" />
<line x1="246" y1="302" x2="235" y2="299" />
<line x1="246" y1="301" x2="235" y2="298" />
<line x1="246" y1="300" x2="235" y2="297" />
<line x1="254" y1="277" x2="244" y2="273" />
<line x1="254" y1="276" x2="244" y2="272" />
<line x1="255" y1="275" x2="245" y2="271" />
<line x1="255" y1="274" x2="245" y2="270" />
<line x1="259" y1="266" x2="248" y2="261" />
<line x1="275" y1="232" x2="266" y2="226" />
<line x1="275" y1="231" x2="266" y2="226" />
<line x1="279" y1="225" x2="269" y2="220" />
<line x1="287" y1="212" x2="278" y2="206" />
<line x1="288" y1="211" x2="279" y2="205" />
<line x1="288" y1="210" x2="279" y2="204" />
<line x1="289" y1="209" x2="280" y2="203" />
<line x1="291" y1="206" x2="282" y2="199" />
<line x1="305" y1="188" x2="296" y2="181" />
<line x1="306" y1="186" x2="297" y2="180" />
<line x1="306" y1="186" x2="297" y2="179" />
<line x1="306" y1="185" x2="298" y2="178" />
<line x1="308" y1="183" x2="300" y2="176" />
<line x1="325" y1="164" x2="317" y2="157" />
<line x1="328" y1="161" x2="320" y2="153" />
<line x1="330" y1="159" x2="322" y2="151" />
<line x1="331" y1="158" x2="323" y2="150" />
<line x1="343" y1="146" x2="335" y2="138" />
<line x1="354" y1="136" x2="347" y2="128" />
<line x1="355" y1="136" x2="348" y2="127" />
<line x1="356" y1="135" x2="349" y2="127" />
<line x1="357" y1="134" x2="350" y2="126" />
<line x1="358" y1="133" x2="351" y2="125" />
<line x1="359" y1="132" x2="352" y2="124" />
<line x1="381" y1="116" x2="375" y2="107" />
<line x1="389" y1="111" x2="383" y2="101" />
<line x1="406" y1="100" x2="401" y2="91" />
<line x1="415" y1="96" x2="410" y2="86" />
<line x1="487" y1="68" x2="485" y2="57" />
<line x1="558" y1="57" x2="558" y2="46" />
<line x1="570" y1="57" x2="570" y2="46" />
<line x1="573" y1="57" x2="573" y2="46" />
<line x1="578" y1="62" x2="578" y2="62" />
<line x1="601" y1="63" x2="601" y2="63" />
<line x1="578" y1="62" x2="690" y2="82" />
<line x1="601" y1="63" x2="690" y2="82" />
<line x1="690" y1="82" x2="690" y2="82" />
<line x1="578" y1="62" x2="757" y2="115" />
<line x1="690" y1="82" x2="757" y2="115" />
<line x1="601" y1="63" x2="762" y2="118" />
<line x1="690" y1="82" x2="762" y2="118" />
<line x1="762" y1="118" x2="762" y2="118" />
<line x1="767" y1="122" x2="767" y2="122" />
<line x1="767" y1="122" x2="772" y2="125" />
<line x1="772" y1="125" x2="772" y2="125" />
<line x1="578" y1="62" x2="775" y2="128" />
<line x1="578" y1="62" x2="863" y2="225" />
<line x1="601" y1="63" x2="863" y2="225" />
<line x1="690" y1="82" x2="863" y2="225" />
<line x1="762" y1="118" x2="863" y2="225" />
<line x1="863" y1="225" x2="863" y2="225" />
<line x1="762" y1="118" x2="910" y2="368" />
<line x1="863" y1="225" x2="910" y2="368" />
<line x1="910" y1="368" x2="910" y2="368" />
<line x1="690" y1="82" x2="911" y2="409" />
<line x1="762" y1="118" x2="911" y2="409" />
<line x1="775" y1="128" x2="911" y2="409" />
<line x1="863" y1="225" x2="911" y2="409" />
<line x1="911" y1="409" x2="911" y2="409" />
<line x1="690" y1="82" x2="909" y2="436" />
<line x1="757" y1="115" x2="909" y2="436" />
<line x1="767" y1="122" x2="909" y2="436" />
<line x1="775" y1="128" x2="909" y2="436" />
<line x1="863" y1="225" x2="909" y2="436" />
<line x1="909" y1="436" x2="909" y2="436" />
<line x1="909" y1="436" x2="907" y2="455" />
<line x1="907" y1="455" x2="907" y2="455" />
<line x1="907" y1="455" x2="904" y2="468" />
<line x1="904" y1="468" x2="904" y2="468" />
<line x1="762" y1="118" x2="903" y2="476" />
<line x1="863" y1="225" x2="903" y2="476" />
<line x1="907" y1="455" x2="903" y2="476" />
<line x1="903" y1="476" x2="903" y2="476" />
<line x1="863" y1="225" x2="901" y2="482" />
<line x1="907" y1="455" x2="901" y2="482" />
<line x1="901" y1="482" x2="901" y2="482" />
<line x1="907" y1="455" x2="900" y2="487" />
<line x1="900" y1="487" x2="900" y2="487" />
<line x1="907" y1="455" x2="899" y2="489" />
<line x1="909" y1="436" x2="898" y2="494" />
<line x1="907" y1="455" x2="898" y2="494" />
<line x1="898" y1="494" x2="898" y2="494" />
<line x1="578" y1="62" x2="827" y2="623" />
<line x1="601" y1="63" x2="827" y2="623" />
<line x1="690" y1="82" x2="827" y2="623" />
<line x1="757" y1="115" x2="827" y2="623" />
<line x1="762" y1="118" x2="827" y2="623" />
<line x1="772" y1="125" x2="827" y2="623" />
<line x1="775" y1="128" x2="827" y2="623" />
<line x1="863" y1="225" x2="827" y2="623" />
<line x1="910" y1="368" x2="827" y2="623" />
<line x1="911" y1="409" x2="827" y2="623" />
<line x1="909" y1="436" x2="827" y2="623" />
<line x1="907" y1="455" x2="827" y2="623" />
<line x1="903" y1="476" x2="827" y2="623" />
<line x1="901" y1="482" x2="827" y2="623" />
<line x1="898" y1="494" x2="827" y2="623" />
<line x1="827" y1="623" x2="827" y2="623" />
<line x1="827" y1="623" x2="714" y2="706" />
<line x1="714" y1="706" x2="710" y2="708" />
<line x1="710" y1="708" x2="710" y2="708" />
<line x1="601" y1="63" x2="661" y2="725" />
<line x1="863" y1="225" x2="661" y2="725" />
<line x1="910" y1="368" x2="661" y2="725" />
<line x1="911" y1="409" x2="661" y2="725" />
<line x1="909" y1="436" x2="661" y2="725" />
<line x1="907" y1="455" x2="661" y2="725" />
<line x1="827" y1="623" x2="661" y2="725" />
<line x1="661" y1="725" x2="661" y2="725" />
<line x1="661" y1="725" x2="598" y2="736" />
<line x1="598" y1="736" x2="598" y2="736" />
<line x1="661" y1="725" x2="577" y2="736" />
<line x1="577" y1="736" x2="577" y2="736" />
<line x1="661" y1="725" x2="524" y2="733" />
<line x1="598" y1="736" x2="524" y2="733" />
<line x1="524" y1="733" x2="524" y2="733" />
<line x1="476" y1="722" x2="476" y2="722" />
<line x1="469" y1="720" x2="469" y2="720" />
<line x1="601" y1="63" x2="366" y2="665" />
<line x1="690" y1="82" x2="366" y2="665" />
<line x1="757" y1="115" x2="366" y2="665" />
<line x1="762" y1="118" x2="366" y2="665" />
<line x1="772" y1="125" x2="366" y2="665" />
<line x1="863" y1="225" x2="366" y2="665" />
<line x1="910" y1="368" x2="366" y2="665" />
<line x1="911" y1="409" x2="366" y2="665" />
<line x1="909" y1="436" x2="366" y2="665" />
<line x1="907" y1="455" x2="366" y2="665" />
<line x1="901" y1="482" x2="366" y2="665" />
<line x1="827" y1="623" x2="366" y2="665" />
<line x1="714" y1="706" x2="366" y2="665" />
<line x1="661" y1="725" x2="366" y2="665" />
<line x1="598" y1="736" x2="366" y2="665" />
<line x1="584" y1="736" x2="366" y2="665" />
<line x1="577" y1="736" x2="366" y2="665" />
<line x1="524" y1="733" x2="366" y2="665" />
<line x1="469" y1="720" x2="366" y2="665" />
<line x1="366" y1="665" x2="366" y2="665" />
<line x1="290" y1="581" x2="290" y2="581" />
<line x1="762" y1="118" x2="278" y2="562" />
<line x1="909" y1="436" x2="278" y2="562" />
<line x1="661" y1="725" x2="278" y2="562" />
<line x1="577" y1="736" x2="278" y2="562" />
<line x1="366" y1="665" x2="278" y2="562" />
<line x1="278" y1="562" x2="278" y2="562" />
<line x1="578" y1="62" x2="265" y2="535" />
<line x1="690" y1="82" x2="265" y2="535" />
<line x1="863" y1="225" x2="265" y2="535" />
<line x1="911" y1="409" x2="265" y2="535" />
<line x1="901" y1="482" x2="265" y2="535" />
<line x1="661" y1="725" x2="265" y2="535" />
<line x1="598" y1="736" x2="265" y2="535" />
<line x1="278" y1="562" x2="265" y2="535" />
<line x1="265" y1="535" x2="265" y2="535" />
<line x1="578" y1="62" x2="256" y2="513" />
<line x1="601" y1="63" x2="256" y2="513" />
<line x1="690" y1="82" x2="256" y2="513" />
<line x1="863" y1="225" x2="256" y2="513" />
<line x1="910" y1="368" x2="256" y2="513" />
<line x1="827" y1="623" x2="256" y2="513" />
<line x1="265" y1="535" x2="256" y2="513" />
<line x1="256" y1="513" x2="256" y2="513" />
<line x1="661" y1="725" x2="252" y2="500" />
<line x1="577" y1="736" x2="252" y2="500" />
<line x1="278" y1="562" x2="252" y2="500" />
<line x1="661" y1="725" x2="251" y2="498" />
<line x1="661" y1="725" x2="251" y2="497" />
<line x1="251" y1="497" x2="251" y2="497" />
<line x1="661" y1="725" x2="249" y2="492" />
<line x1="249" y1="492" x2="249" y2="492" />
<line x1="247" y1="484" x2="247" y2="484" />
<line x1="578" y1="62" x2="242" y2="460" />
<line x1="601" y1="63" x2="242" y2="460" />
<line x1="690" y1="82" x2="242" y2="460" />
<line x1="863" y1="225" x2="242" y2="460" />
<line x1="910" y1="368" x2="242" y2="460" />
<line x1="907" y1="455" x2="242" y2="460" />
<line x1="901" y1="482" x2="242" y2="460" />
<line x1="827" y1="623" x2="242" y2="460" />
<line x1="714" y1="706" x2="242" y2="460" />
<line x1="661" y1="725" x2="242" y2="460" />
<line x1="265" y1="535" x2="242" y2="460" />
<line x1="242" y1="460" x2="242" y2="460" />
<line x1="661" y1="725" x2="239" y2="438" />
<line x1="577" y1="736" x2="239" y2="438" />
<line x1="278" y1="562" x2="239" y2="438" />
<line x1="239" y1="438" x2="239" y2="438" />
<line x1="661" y1="725" x2="239" y2="436" />
<line x1="239" y1="436" x2="239" y2="436" />
<line x1="661" y1="725" x2="238" y2="434" />
<line x1="661" y1="725" x2="238" y2="426" />
<line x1="366" y1="665" x2="238" y2="426" />
<line x1="238" y1="426" x2="238" y2="426" />
<line x1="578" y1="62" x2="237" y2="417" />
<line x1="366" y1="665" x2="237" y2="417" />
<line x1="578" y1="62" x2="237" y2="405" />
<line x1="863" y1="225" x2="237" y2="405" />
<line x1="910" y1="368" x2="237" y2="405" />
<line x1="911" y1="409" x2="237" y2="405" />
<line x1="827" y1="623" x2="237" y2="405" />
<line x1="661" y1="725" x2="237" y2="405" />
<line x1="265" y1="535" x2="237" y2="405" />
<line x1="237" y1="405" x2="237" y2="405" />
<line x1="661" y1="725" x2="237" y2="393" />
<line x1="911" y1="409" x2="237" y2="391" />
<line x1="661" y1="725" x2="237" y2="391" />
<line x1="598" y1="736" x2="237" y2="391" />
<line x1="265" y1="535" x2="237" y2="391" />
<line x1="863" y1="225" x2="237" y2="384" />
<line x1="910" y1="368" x2="237" y2="384" />
<line x1="827" y1="623" x2="237" y2="384" />
<line x1="265" y1="535" x2="237" y2="384" />
<line x1="237" y1="384" x2="237" y2="384" />
<line x1="661" y1="725" x2="237" y2="379" />
<line x1="661" y1="725" x2="237" y2="378" />
<line x1="578" y1="62" x2="239" y2="356" />
<line x1="601" y1="63" x2="239" y2="356" />
<line x1="762" y1="118" x2="239" y2="356" />
<line x1="863" y1="225" x2="239" y2="356" />
<line x1="910" y1="368" x2="239" y2="356" />
<line x1="911" y1="409" x2="239" y2="356" />
<line x1="827" y1="623" x2="239" y2="356" />
<line x1="661" y1="725" x2="239" y2="356" />
<line x1="366" y1="665" x2="239" y2="356" />
<line x1="265" y1="535" x2="239" y2="356" />
<line x1="252" y1="500" x2="239" y2="356" />
<line x1="242" y1="460" x2="239" y2="356" />
<line x1="239" y1="438" x2="239" y2="356" />
<line x1="238" y1="426" x2="239" y2="356" />
<line x1="237" y1="405" x2="239" y2="356" />
<line x1="239" y1="356" x2="239" y2="356" />
<line x1="661" y1="725" x2="243" y2="334" />
<line x1="577" y1="736" x2="243" y2="334" />
<line x1="278" y1="562" x2="243" y2="334" />
<line x1="239" y1="356" x2="243" y2="334" />
<line x1="243" y1="334" x2="243" y2="334" />
<line x1="661" y1="725" x2="243" y2="332" />
<line x1="243" y1="332" x2="243" y2="332" />
<line x1="661" y1="725" x2="244" y2="330" />
<line x1="863" y1="225" x2="244" y2="326" />
<line x1="910" y1="368" x2="244" y2="326" />
<line x1="909" y1="436" x2="244" y2="326" />
<line x1="900" y1="487" x2="244" y2="326" />
<line x1="661" y1="725" x2="244" y2="326" />
<line x1="577" y1="736" x2="244" y2="326" />
<line x1="524" y1="733" x2="244" y2="326" />
<line x1="366" y1="665" x2="244" y2="326" />
<line x1="265" y1="535" x2="244" y2="326" />
<line x1="256" y1="513" x2="244" y2="326" />
<line x1="252" y1="500" x2="244" y2="326" />
<line x1="249" y1="492" x2="244" y2="326" />
<line x1="238" y1="426" x2="244" y2="326" />
<line x1="237" y1="384" x2="244" y2="326" />
<line x1="239" y1="356" x2="244" y2="326" />
<line x1="244" y1="326" x2="244" y2="326" />
<line x1="578" y1="62" x2="248" y2="313" />
<line x1="601" y1="63" x2="248" y2="313" />
<line x1="863" y1="225" x2="248" y2="313" />
<line x1="910" y1="368" x2="248" y2="313" />
<line x1="827" y1="623" x2="248" y2="313" />
<line x1="661" y1="725" x2="248" y2="313" />
<line x1="265" y1="535" x2="248" y2="313" />
<line x1="248" y1="313" x2="248" y2="313" />
<line x1="661" y1="725" x2="250" y2="303" />
<line x1="661" y1="725" x2="251" y2="302" />
<line x1="578" y1="62" x2="255" y2="290" />
<line x1="601" y1="63" x2="255" y2="290" />
<line x1="690" y1="82" x2="255" y2="290" />
<line x1="863" y1="225" x2="255" y2="290" />
<line x1="910" y1="368" x2="255" y2="290" />
<line x1="827" y1="623" x2="255" y2="290" />
<line x1="661" y1="725" x2="255" y2="290" />
<line x1="265" y1="535" x2="255" y2="290" />
<line x1="255" y1="290" x2="255" y2="290" />
<line x1="661" y1="725" x2="259" y2="278" />
<line x1="577" y1="736" x2="259" y2="278" />
<line x1="278" y1="562" x2="259" y2="278" />
<line x1="239" y1="356" x2="259" y2="278" />
<line x1="661" y1="725" x2="259" y2="277" />
<line x1="661" y1="725" x2="260" y2="276" />
<line x1="661" y1="725" x2="262" y2="271" />
<line x1="366" y1="665" x2="262" y2="271" />
<line x1="244" y1="326" x2="262" y2="271" />
<line x1="255" y1="290" x2="262" y2="271" />
<line x1="262" y1="271" x2="262" y2="271" />
<line x1="578" y1="62" x2="271" y2="251" />
<line x1="690" y1="82" x2="271" y2="251" />
<line x1="863" y1="225" x2="271" y2="251" />
<line x1="910" y1="368" x2="271" y2="251" />
<line x1="911" y1="409" x2="271" y2="251" />
<line x1="907" y1="455" x2="271" y2="251" />
<line x1="898" y1="494" x2="271" y2="251" />
<line x1="827" y1="623" x2="271" y2="251" />
<line x1="584" y1="736" x2="271" y2="251" />
<line x1="265" y1="535" x2="271" y2="251" />
<line x1="256" y1="513" x2="271" y2="251" />
<line x1="242" y1="460" x2="271" y2="251" />
<line x1="237" y1="405" x2="271" y2="251" />
<line x1="239" y1="356" x2="271" y2="251" />
<line x1="244" y1="326" x2="271" y2="251" />
<line x1="255" y1="290" x2="271" y2="251" />
<line x1="262" y1="271" x2="271" y2="251" />
<line x1="271" y1="251" x2="271" y2="251" />
<line x1="661" y1="725" x2="280" y2="234" />
<line x1="661" y1="725" x2="282" y2="231" />
<line x1="244" y1="326" x2="282" y2="231" />
<line x1="282" y1="231" x2="282" y2="231" />
<line x1="863" y1="225" x2="287" y2="221" />
<line x1="910" y1="368" x2="287" y2="221" />
<line x1="661" y1="725" x2="287" y2="221" />
<line x1="366" y1="665" x2="287" y2="221" />
<line x1="265" y1="535" x2="287" y2="221" />
<line x1="287" y1="221" x2="287" y2="221" />
<line x1="661" y1="725" x2="292" y2="214" />
<line x1="577" y1="736" x2="292" y2="214" />
<line x1="278" y1="562" x2="292" y2="214" />
<line x1="239" y1="356" x2="292" y2="214" />
<line x1="661" y1="725" x2="292" y2="213" />
<line x1="661" y1="725" x2="293" y2="213" />
<line x1="239" y1="356" x2="293" y2="213" />
<line x1="661" y1="725" x2="294" y2="210" />
<line x1="244" y1="326" x2="294" y2="210" />
<line x1="271" y1="251" x2="294" y2="210" />
<line x1="294" y1="210" x2="294" y2="210" />
<line x1="601" y1="63" x2="302" y2="199" />
<line x1="762" y1="118" x2="302" y2="199" />
<line x1="863" y1="225" x2="302" y2="199" />
<line x1="910" y1="368" x2="302" y2="199" />
<line x1="911" y1="409" x2="302" y2="199" />
<line x1="827" y1="623" x2="302" y2="199" />
<line x1="661" y1="725" x2="302" y2="199" />
<line x1="265" y1="535" x2="302" y2="199" />
<line x1="256" y1="513" x2="302" y2="199" />
<line x1="242" y1="460" x2="302" y2="199" />
<line x1="237" y1="405" x2="302" y2="199" />
<line x1="237" y1="384" x2="302" y2="199" />
<line x1="239" y1="356" x2="302" y2="199" />
<line x1="244" y1="326" x2="302" y2="199" />
<line x1="248" y1="313" x2="302" y2="199" />
<line x1="255" y1="290" x2="302" y2="199" />
<line x1="271" y1="251" x2="302" y2="199" />
<line x1="287" y1="221" x2="302" y2="199" />
<line x1="302" y1="199" x2="302" y2="199" />
<line x1="661" y1="725" x2="309" y2="190" />
<line x1="577" y1="736" x2="309" y2="190" />
<line x1="278" y1="562" x2="309" y2="190" />
<line x1="239" y1="356" x2="309" y2="190" />
<line x1="661" y1="725" x2="310" y2="189" />
<line x1="661" y1="725" x2="310" y2="189" />
<line x1="661" y1="725" x2="312" y2="187" />
<line x1="244" y1="326" x2="312" y2="187" />
<line x1="578" y1="62" x2="320" y2="176" />
<line x1="601" y1="63" x2="320" y2="176" />
<line x1="690" y1="82" x2="320" y2="176" />
<line x1="863" y1="225" x2="320" y2="176" />
<line x1="910" y1="368" x2="320" y2="176" />
<line x1="827" y1="623" x2="320" y2="176" />
<line x1="661" y1="725" x2="320" y2="176" />
<line x1="265" y1="535" x2="320" y2="176" />
<line x1="242" y1="460" x2="320" y2="176" />
<line x1="237" y1="384" x2="320" y2="176" />
<line x1="239" y1="356" x2="320" y2="176" />
<line x1="244" y1="326" x2="320" y2="176" />
<line x1="271" y1="251" x2="320" y2="176" />
<line x1="302" y1="199" x2="320" y2="176" />
<line x1="320" y1="176" x2="320" y2="176" />
<line x1="661" y1="725" x2="330" y2="166" />
<line x1="577" y1="736" x2="330" y2="166" />
<line x1="278" y1="562" x2="330" y2="166" />
<line x1="239" y1="356" x2="330" y2="166" />
<line x1="330" y1="166" x2="330" y2="166" />
<line x1="661" y1="725" x2="333" y2="163" />
<line x1="333" y1="163" x2="333" y2="163" />
<line x1="661" y1="725" x2="334" y2="161" />
<line x1="661" y1="725" x2="340" y2="156" />
<line x1="244" y1="326" x2="340" y2="156" />
<line x1="340" y1="156" x2="340" y2="156" />
<line x1="578" y1="62" x2="352" y2="145" />
<line x1="690" y1="82" x2="352" y2="145" />
<line x1="863" y1="225" x2="352" y2="145" />
<line x1="910" y1="368" x2="352" y2="145" />
<line x1="911" y1="409" x2="352" y2="145" />
<line x1="901" y1="482" x2="352" y2="145" />
<line x1="900" y1="487" x2="352" y2="145" />
<line x1="827" y1="623" x2="352" y2="145" />
<line x1="714" y1="706" x2="352" y2="145" />
<line x1="661" y1="725" x2="352" y2="145" />
<line x1="265" y1="535" x2="352" y2="145" />
<line x1="242" y1="460" x2="352" y2="145" />
<line x1="237" y1="417" x2="352" y2="145" />
<line x1="237" y1="405" x2="352" y2="145" />
<line x1="239" y1="356" x2="352" y2="145" />
<line x1="244" y1="326" x2="352" y2="145" />
<line x1="255" y1="290" x2="352" y2="145" />
<line x1="271" y1="251" x2="352" y2="145" />
<line x1="287" y1="221" x2="352" y2="145" />
<line x1="302" y1="199" x2="352" y2="145" />
<line x1="320" y1="176" x2="352" y2="145" />
<line x1="352" y1="145" x2="352" y2="145" />
<line x1="661" y1="725" x2="358" y2="140" />
<line x1="661" y1="725" x2="358" y2="139" />
<line x1="661" y1="725" x2="360" y2="138" />
<line x1="366" y1="665" x2="360" y2="138" />
<line x1="352" y1="145" x2="360" y2="138" />
<line x1="827" y1="623" x2="361" y2="137" />
<line x1="366" y1="665" x2="361" y2="137" />
<line x1="578" y1="62" x2="362" y2="136" />
<line x1="578" y1="62" x2="373" y2="128" />
<line x1="690" y1="82" x2="373" y2="128" />
<line x1="827" y1="623" x2="373" y2="128" />
<line x1="265" y1="535" x2="373" y2="128" />
<line x1="248" y1="313" x2="373" y2="128" />
<line x1="373" y1="128" x2="373" y2="128" />
<line x1="578" y1="62" x2="388" y2="117" />
<line x1="690" y1="82" x2="388" y2="117" />
<line x1="757" y1="115" x2="388" y2="117" />
<line x1="863" y1="225" x2="388" y2="117" />
<line x1="911" y1="409" x2="388" y2="117" />
<line x1="907" y1="455" x2="388" y2="117" />
<line x1="903" y1="476" x2="388" y2="117" />
<line x1="827" y1="623" x2="388" y2="117" />
<line x1="265" y1="535" x2="388" y2="117" />
<line x1="256" y1="513" x2="388" y2="117" />
<line x1="242" y1="460" x2="388" y2="117" />
<line x1="237" y1="405" x2="388" y2="117" />
<line x1="237" y1="384" x2="388" y2="117" />
<line x1="239" y1="356" x2="388" y2="117" />
<line x1="248" y1="313" x2="388" y2="117" />
<line x1="255" y1="290" x2="388" y2="117" />
<line x1="271" y1="251" x2="388" y2="117" />
<line x1="287" y1="221" x2="388" y2="117" />
<line x1="302" y1="199" x2="388" y2="117" />
<line x1="320" y1="176" x2="388" y2="117" />
<line x1="352" y1="145" x2="388" y2="117" />
<line x1="373" y1="128" x2="388" y2="117" />
<line x1="388" y1="117" x2="388" y2="117" />
<line x1="578" y1="62" x2="401" y2="110" />
<line x1="690" y1="82" x2="401" y2="110" />
<line x1="762" y1="118" x2="401" y2="110" />
<line x1="775" y1="128" x2="401" y2="110" />
<line x1="911" y1="409" x2="401" y2="110" />
<line x1="909" y1="436" x2="401" y2="110" />
<line x1="827" y1="623" x2="401" y2="110" />
<line x1="265" y1="535" x2="401" y2="110" />
<line x1="248" y1="313" x2="401" y2="110" />
<line x1="361" y1="137" x2="401" y2="110" />
<line x1="388" y1="117" x2="401" y2="110" />
<line x1="401" y1="110" x2="401" y2="110" />
<line x1="578" y1="62" x2="413" y2="102" />
<line x1="690" y1="82" x2="413" y2="102" />
<line x1="757" y1="115" x2="413" y2="102" />
<line x1="762" y1="118" x2="413" y2="102" />
<line x1="772" y1="125" x2="413" y2="102" />
<line x1="775" y1="128" x2="413" y2="102" />
<line x1="863" y1="225" x2="413" y2="102" />
<line x1="907" y1="455" x2="413" y2="102" />
<line x1="903" y1="476" x2="413" y2="102" />
<line x1="901" y1="482" x2="413" y2="102" />
<line x1="827" y1="623" x2="413" y2="102" />
<line x1="710" y1="708" x2="413" y2="102" />
<line x1="366" y1="665" x2="413" y2="102" />
<line x1="256" y1="513" x2="413" y2="102" />
<line x1="242" y1="460" x2="413" y2="102" />
<line x1="237" y1="417" x2="413" y2="102" />
<line x1="239" y1="356" x2="413" y2="102" />
<line x1="248" y1="313" x2="413" y2="102" />
<line x1="271" y1="251" x2="413" y2="102" />
<line x1="320" y1="176" x2="413" y2="102" />
<line x1="373" y1="128" x2="413" y2="102" />
<line x1="388" y1="117" x2="413" y2="102" />
<line x1="401" y1="110" x2="413" y2="102" />
<line x1="413" y1="102" x2="413" y2="102" />
<line x1="578" y1="62" x2="452" y2="84" />
<line x1="601" y1="63" x2="452" y2="84" />
<line x1="690" y1="82" x2="452" y2="84" />
<line x1="762" y1="118" x2="452" y2="84" />
<line x1="911" y1="409" x2="452" y2="84" />
<line x1="827" y1="623" x2="452" y2="84" />
<line x1="265" y1="535" x2="452" y2="84" />
<line x1="320" y1="176" x2="452" y2="84" />
<line x1="388" y1="117" x2="452" y2="84" />
<line x1="413" y1="102" x2="452" y2="84" />
<line x1="452" y1="84" x2="452" y2="84" />
<line x1="578" y1="62" x2="523" y2="65" />
<line x1="690" y1="82" x2="523" y2="65" />
<line x1="762" y1="118" x2="523" y2="65" />
<line x1="863" y1="225" x2="523" y2="65" />
<line x1="911" y1="409" x2="523" y2="65" />
<line x1="827" y1="623" x2="523" y2="65" />
<line x1="710" y1="708" x2="523" y2="65" />
<line x1="265" y1="535" x2="523" y2="65" />
<line x1="248" y1="313" x2="523" y2="65" />
<line x1="373" y1="128" x2="523" y2="65" />
<line x1="388" y1="117" x2="523" y2="65" />
<line x1="413" y1="102" x2="523" y2="65" />
<line x1="452" y1="84" x2="523" y2="65" />
<line x1="523" y1="65" x2="523" y2="65" />
<line x1="578" y1="62" x2="564" y2="62" />
<line x1="690" y1="82" x2="564" y2="62" />
<line x1="762" y1="118" x2="564" y2="62" />
<line x1="911" y1="409" x2="564" y2="62" />
<line x1="827" y1="623" x2="564" y2="62" />
<line x1="366" y1="665" x2="564" y2="62" />
<line x1="265" y1="535" x2="564" y2="62" />
<line x1="361" y1="137" x2="564" y2="62" />
<line x1="388" y1="117" x2="564" y2="62" />
<line x1="413" y1="102" x2="564" y2="62" />
<line x1="564" y1="62" x2="564" y2="62" />
<line x1="572" y1="62" x2="572" y2="62" />
<circle cx="578" cy="62" r="1" style="fill:#ffffff" />
<circle cx="601" cy="63" r="1" style="fill:#ffffff" />
<circle cx="690" cy="82" r="1" style="fill:#ffffff" />
<circle cx="757" cy="115" r="1" style="fill:#ffffff" />
<circle cx="762" cy="118" r="1" style="fill:#ffffff" />
<circle cx="767" cy="122" r="1" style="fill:#ffffff" />
<circle cx="772" cy="125" r="1" style="fill:#ffffff" />
<circle cx="775" cy="128" r="1" style="fill:#ffffff" />
<circle cx="863" cy="225" r="1" style="fill:#ffffff" />
<circle cx="910" cy="368" r="1" style="fill:#ffffff" />
<circle cx="911" cy="390" r="1" style="fill:#ffffff" />
<circle cx="911" cy="409" r="1" style="fill:#ffffff" />
<circle cx="909" cy="436" r="1" style="fill:#ffffff" />
<circle cx="907" cy="455" r="1" style="fill:#ffffff" />
<circle cx="904" cy="468" r="1" style="fill:#ffffff" />
<circle cx="903" cy="476" r="1" style="fill:#ffffff" />
<circle cx="901" cy="482" r="1" style="fill:#ffffff" />
<circle cx="900" cy="487" r="1" style="fill:#ffffff" />
<circle cx="899" cy="489" r="1" style="fill:#ffffff" />
<circle cx="898" cy="494" r="1" style="fill:#ffffff" />
<circle cx="896" cy="500" r="1" style="fill:#ffffff" />
<circle cx="827" cy="623" r="1" style="fill:#ffffff" />
<circle cx="714" cy="706" r="1" style="fill:#ffffff" />
<circle cx="712" cy="707" r="1" style="fill:#ffffff" />
<circle cx="710" cy="708" r="1" style="fill:#ffffff" />
<circle cx="661" cy="725" r="1" style="fill:#ffffff" />
<circle cx="598" cy="736" r="1" style="fill:#ffffff" />
<circle cx="584" cy="736" r="1" style="fill:#ffffff" />
<circle cx="577" cy="736" r="1" style="fill:#ffffff" />
<circle cx="524" cy="733" r="1" style="fill:#ffffff" />
<circle cx="476" cy="722" r="1" style="fill:#ffffff" />
<circle cx="469" cy="720" r="1" style="fill:#ffffff" />
<circle cx="366" cy="665" r="1" style="fill:#ffffff" />
<circle cx="290" cy="581" r="1" style="fill:#ffffff" />
<circle cx="278" cy="562" r="1" style="fill:#ffffff" />
<circle cx="265" cy="535" r="1" style="fill:#ffffff" />
<circle cx="256" cy="513" r="1" style="fill:#ffffff" />
<circle cx="252" cy="500" r="1" style="fill:#ffffff" />
<circle cx="251" cy="498" r="1" style="fill:#ffffff" />
<circle cx="251" cy="497" r="1" style="fill:#ffffff" />
<circle cx="249" cy="492" r="1" style="fill:#ffffff" />
<circle cx="247" cy="484" r="1" style="fill:#ffffff" />
<circle cx="242" cy="460" r="1" style="fill:#ffffff" />
<circle cx="239" cy="438" r="1" style="fill:#ffffff" />
<circle cx="239" cy="436" r="1" style="fill:#ffffff" />
<circle cx="238" cy="434" r="1" style="fill:#ffffff" />
<circle cx="238" cy="426" r="1" style="fill:#ffffff" />
<circle cx="237" cy="417" r="1" style="fill:#ffffff" />
<circle cx="237" cy="405" r="1" style="fill:#ffffff" />
<circle cx="237" cy="393" r="1" style="fill:#ffffff" />
<circle cx="237" cy="391" r="1" style="fill:#ffffff" />
<circle cx="237" cy="384" r="1" style="fill:#ffffff" />
<circle cx="237" cy="379" r="1" style="fill:#ffffff" />
<circle cx="237" cy="378" r="1" style="fill:#ffffff" />
<circle cx="239" cy="356" r="1" style="fill:#ffffff" />
<circle cx="243" cy="334" r="1" style="fill:#ffffff" />
<circle cx="243" cy="332" r="1" style="fill:#ffffff" />
<circle cx="244" cy="330" r="1" style="fill:#ffffff" />
<circle cx="244" cy="326" r="1" style="fill:#ffffff" />
<circle cx="248" cy="313" r="1" style="fill:#ffffff" />
<circle cx="250" cy="303" r="1" style="fill:#ffffff" />
<circle cx="251" cy="302" r="1" style="fill:#ffffff" />
<circle cx="255" cy="290" r="1" style="fill:#ffffff" />
<circle cx="259" cy="278" r="1" style="fill:#ffffff" />
<circle cx="259" cy="277" r="1" style="fill:#ffffff" />
<circle cx="260" cy="276" r="1" style="fill:#ffffff" />
<circle cx="262" cy="271" r="1" style="fill:#ffffff" />
<circle cx="271" cy="251" r="1" style="fill:#ffffff" />
<circle cx="280" cy="234" r="1" style="fill:#ffffff" />
<circle cx="282" cy="231" r="1" style="fill:#ffffff" />
<circle cx="287" cy="221" r="1" style="fill:#ffffff" />
<circle cx="292" cy="214" r="1" style="fill:#ffffff" />
<circle cx="292" cy="213" r="1" style="fill:#ffffff" />
<circle cx="293" cy="213" r="1" style="fill:#ffffff" />
<circle cx="294" cy="210" r="1" style="fill:#ffffff" />
<circle cx="302" cy="199" r="1" style="fill:#ffffff" />
<circle cx="309" cy="190" r="1" style="fill:#ffffff" />
<circle cx="310" cy="189" r="1" style="fill:#ffffff" />
<circle cx="310" cy="189" r="1" style="fill:#ffffff" />
<circle cx="312" cy="187" r="1" style="fill:#ffffff" />
<circle cx="320" cy="176" r="1" style="fill:#ffffff" />
<circle cx="330" cy="166" r="1" style="fill:#ffffff" />
<circle cx="333" cy="163" r="1" style="fill:#ffffff" />
<circle cx="334" cy="161" r="1" style="fill:#ffffff" />
<circle cx="340" cy="156" r="1" style="fill:#ffffff" />
<circle cx="352" cy="145" r="1" style="fill:#ffffff" />
<circle cx="358" cy="140" r="1" style="fill:#ffffff" />
<circle cx="358" cy="139" r="1" style="fill:#ffffff" />
<circle cx="360" cy="138" r="1" style="fill:#ffffff" />
<circle cx="361" cy="137" r="1" style="fill:#ffffff" />
<circle cx="362" cy="136" r="1" style="fill:#ffffff" />
<circle cx="373" cy="128" r="1" style="fill:#ffffff" />
<circle cx="388" cy="117" r="1" style="fill:#ffffff" />
<circle cx="401" cy="110" r="1" style="fill:#ffffff" />
<circle cx="413" cy="102" r="1" style="fill:#ffffff" />
<circle cx="452" cy="84" r="1" style="fill:#ffffff" />
<circle cx="523" cy="65" r="1" style="fill:#ffffff" />
<circle cx="564" cy="62" r="1" style="fill:#ffffff" />
<circle cx="572" cy="62" r="1" style="fill:#ffffff" />
<circle cx="573" cy="62" r="1" style="fill:#ffffff" />
</g>
<g font-size="10.000000">
<text x="578" y="19">include/llvm</text>
<text x="604" y="20">inc-lib/ADT</text>
<text x="702" y="39">inc-lib/Analysis</text>
<text x="776" y="76">inc-lib/Analysis/IPA</text>
<text x="782" y="82">inc-lib/AsmParser</text>
<text x="788" y="86">inc-lib/Bitcode</text>
<text x="793" y="89">inc-lib/Bitcode/Reader</text>
<text x="796" y="92">inc-lib/Bitcode/Writer</text>
<text x="894" y="200">inc-lib/CodeGen</text>
<text x="946" y="357">inc-lib/CodeGen/AsmPrinter</text>
<text x="947" y="382">inc-lib/CodeGen/PBQP</text>
<text x="947" y="404">inc-lib/CodeGen/SelectionDAG</text>
<text x="945" y="431">inc-lib/DebugInfo</text>
<text x="942" y="452">inc-lib/ExecutionEngine</text>
<text x="940" y="467">inc-lib/ExecutionEngine/IntelJITEvents</text>
<text x="938" y="475">inc-lib/ExecutionEngine/Interpreter</text>
<text x="936" y="482">inc-lib/ExecutionEngine/JIT</text>
<text x="934" y="488">inc-lib/ExecutionEngine/MCJIT</text>
<text x="934" y="489">inc-lib/ExecutionEngine/OProfileJIT</text>
<text x="932" y="495">inc-lib/ExecutionEngine/RuntimeDyld</text>
<text x="930" y="501">inc-lib/ExecutionEngine/RuntimeDyld/Targets</text>
<text x="854" y="639">inc-lib/IR</text>
<text x="728" y="732">inc-lib/LTO</text>
<text x="727" y="733">inc-lib/LineEditor</text>
<text x="725" y="734">inc-lib/Linker</text>
<text x="670" y="753">inc-lib/MC</text>
<text x="600" y="763">inc-lib/MC/MCAnalysis</text>
<text x="585" y="765">inc-lib/MC/MCDisassembler</text>
<text x="578" y="765">inc-lib/MC/MCParser</text>
<text x="454" y="759">inc-lib/Object</text>
<text x="401" y="748">inc-lib/Option</text>
<text x="372" y="747">inc-lib/ProfileData</text>
<text x="273" y="684">inc-lib/Support</text>
<text x="144" y="591">inc-lib/Support/Windows</text>
<text x="166" y="572">inc-lib/TableGen</text>
<text x="167" y="540">inc-lib/Target</text>
<text x="114" y="516">inc-lib/Target/AArch64</text>
<text x="58" y="501">inc-lib/Target/AArch64/AsmParser</text>
<text x="45" y="500">inc-lib/Target/AArch64/Disassembler</text>
<text x="59" y="498">inc-lib/Target/AArch64/InstPrinter</text>
<text x="35" y="493">inc-lib/Target/AArch64/MCTargetDesc</text>
<text x="81" y="484">inc-lib/Target/AArch64/Utils</text>
<text x="117" y="457">inc-lib/Target/ARM</text>
<text x="60" y="433">inc-lib/Target/ARM/AsmParser</text>
<text x="48" y="431">inc-lib/Target/ARM/Disassembler</text>
<text x="62" y="429">inc-lib/Target/ARM/InstPrinter</text>
<text x="39" y="420">inc-lib/Target/ARM/MCTargetDesc</text>
<text x="75" y="410">inc-lib/Target/CppBackend</text>
<text x="92" y="397">inc-lib/Target/Hexagon</text>
<text x="41" y="383">inc-lib/Target/Hexagon/InstPrinter</text>
<text x="19" y="381">inc-lib/Target/Hexagon/MCTargetDesc</text>
<text x="93" y="374">inc-lib/Target/MSP430</text>
<text x="42" y="368">inc-lib/Target/MSP430/InstPrinter</text>
<text x="20" y="367">inc-lib/Target/MSP430/MCTargetDesc</text>
<text x="113" y="343">inc-lib/Target/Mips</text>
<text x="66" y="318">inc-lib/Target/Mips/AsmParser</text>
<text x="54" y="316">inc-lib/Target/Mips/Disassembler</text>
<text x="68" y="314">inc-lib/Target/Mips/InstPrinter</text>
<text x="47" y="310">inc-lib/Target/Mips/MCTargetDesc</text>
<text x="110" y="295">inc-lib/Target/NVPTX</text>
<text x="63" y="284">inc-lib/Target/NVPTX/InstPrinter</text>
<text x="41" y="283">inc-lib/Target/NVPTX/MCTargetDesc</text>
<text x="111" y="269">inc-lib/Target/PowerPC</text>
<text x="62" y="256">inc-lib/Target/PowerPC/AsmParser</text>
<text x="51" y="255">inc-lib/Target/PowerPC/Disassembler</text>
<text x="65" y="254">inc-lib/Target/PowerPC/InstPrinter</text>
<text x="45" y="249">inc-lib/Target/PowerPC/MCTargetDesc</text>
<text x="146" y="226">inc-lib/Target/R600</text>
<text x="105" y="207">inc-lib/Target/R600/InstPrinter</text>
<text x="85" y="204">inc-lib/Target/R600/MCTargetDesc</text>
<text x="162" y="193">inc-lib/Target/Sparc</text>
<text x="115" y="185">inc-lib/Target/Sparc/AsmParser</text>
<text x="103" y="184">inc-lib/Target/Sparc/Disassembler</text>
<text x="118" y="184">inc-lib/Target/Sparc/InstPrinter</text>
<text x="98" y="181">inc-lib/Target/Sparc/MCTargetDesc</text>
<text x="165" y="169">inc-lib/Target/SystemZ</text>
<text x="121" y="158">inc-lib/Target/SystemZ/AsmParser</text>
<text x="109" y="158">inc-lib/Target/SystemZ/Disassembler</text>
<text x="124" y="157">inc-lib/Target/SystemZ/InstPrinter</text>
<text x="104" y="155">inc-lib/Target/SystemZ/MCTargetDesc</text>
<text x="207" y="144">inc-lib/Target/X86</text>
<text x="165" y="132">inc-lib/Target/X86/AsmParser</text>
<text x="156" y="129">inc-lib/Target/X86/Disassembler</text>
<text x="172" y="127">inc-lib/Target/X86/InstPrinter</text>
<text x="156" y="121">inc-lib/Target/X86/MCTargetDesc</text>
<text x="232" y="109">inc-lib/Target/XCore</text>
<text x="174" y="103">inc-lib/Target/XCore/Disassembler</text>
<text x="188" y="103">inc-lib/Target/XCore/InstPrinter</text>
<text x="168" y="102">inc-lib/Target/XCore/MCTargetDesc</text>
<text x="253" y="102">inc-lib/Transforms</text>
<text x="227" y="101">inc-lib/Transforms/Hello</text>
<text x="247" y="92">inc-lib/Transforms/IPO</text>
<text x="222" y="80">inc-lib/Transforms/InstCombine</text>
<text x="222" y="72">inc-lib/Transforms/Instrumentation</text>
<text x="264" y="62">inc-lib/Transforms/ObjCARC</text>
<text x="321" y="44">inc-lib/Transforms/Scalar</text>
<text x="410" y="23">inc-lib/Transforms/Utils</text>
<text x="432" y="19">inc-lib/Transforms/Vectorize</text>
<text x="503" y="19">include/llvm-c</text>
<text x="451" y="19">include/llvm-c/Transforms</text>
</g>
</svg>