<svg xmlns="http://www.w3.org/2000/svg" version="1.1" width="1155" height="829">
<g  fill="#f5f5ff" stroke="#000000" style="stroke-width:1">
<line x1="576" y1="50" x2="576" y2="29" />
<line x1="579" y1="50" x2="579" y2="29" />
<line x1="622" y1="53" x2="625" y2="32" />
<line x1="770" y1="110" x2="782" y2="93" />
<line x1="776" y1="114" x2="788" y2="97" />
<line x1="782" y1="118" x2="795" y2="102" />
<line x1="788" y1="123" x2="801" y2="107" />
<line x1="792" y1="126" x2="805" y2="110" />
<line x1="795" y1="128" x2="808" y2="112" />
<line x1="919" y1="385" x2="940" y2="385" />
<line x1="917" y1="428" x2="938" y2="430" />
<line x1="911" y1="464" x2="932" y2="468" />
<line x1="906" y1="486" x2="926" y2="492" />
<line x1="900" y1="506" x2="920" y2="513" />
<line x1="896" y1="516" x2="916" y2="524" />
<line x1="894" y1="521" x2="914" y2="529" />
<line x1="890" y1="530" x2="909" y2="538" />
<line x1="889" y1="532" x2="908" y2="541" />
<line x1="889" y1="533" x2="908" y2="542" />
<line x1="884" y1="542" x2="903" y2="552" />
<line x1="883" y1="545" x2="902" y2="555" />
<line x1="637" y1="730" x2="641" y2="750" />
<line x1="636" y1="730" x2="639" y2="751" />
<line x1="634" y1="730" x2="637" y2="751" />
<line x1="631" y1="731" x2="634" y2="751" />
<line x1="516" y1="730" x2="512" y2="750" />
<line x1="488" y1="723" x2="483" y2="744" />
<line x1="487" y1="723" x2="481" y2="743" />
<line x1="472" y1="719" x2="466" y2="739" />
<line x1="380" y1="673" x2="368" y2="690" />
<line x1="374" y1="669" x2="362" y2="686" />
<line x1="366" y1="663" x2="353" y2="679" />
<line x1="336" y1="636" x2="321" y2="651" />
<line x1="333" y1="633" x2="318" y2="648" />
<line x1="304" y1="599" x2="287" y2="612" />
<line x1="290" y1="581" x2="273" y2="592" />
<line x1="276" y1="556" x2="257" y2="566" />
<line x1="275" y1="554" x2="256" y2="564" />
<line x1="274" y1="553" x2="255" y2="563" />
<line x1="273" y1="551" x2="254" y2="560" />
<line x1="269" y1="543" x2="250" y2="552" />
<line x1="265" y1="534" x2="245" y2="543" />
<line x1="249" y1="492" x2="229" y2="498" />
<line x1="248" y1="489" x2="228" y2="494" />
<line x1="247" y1="486" x2="227" y2="492" />
<line x1="247" y1="485" x2="227" y2="491" />
<line x1="242" y1="468" x2="222" y2="473" />
<line x1="242" y1="466" x2="222" y2="471" />
<line x1="237" y1="441" x2="217" y2="443" />
<line x1="237" y1="440" x2="216" y2="443" />
<line x1="237" y1="437" x2="216" y2="440" />
<line x1="236" y1="425" x2="215" y2="427" />
<line x1="235" y1="424" x2="215" y2="426" />
<line x1="235" y1="424" x2="215" y2="426" />
<line x1="234" y1="375" x2="213" y2="374" />
<line x1="235" y1="373" x2="214" y2="372" />
<line x1="235" y1="370" x2="214" y2="369" />
<line x1="235" y1="369" x2="214" y2="368" />
<line x1="235" y1="362" x2="214" y2="360" />
<line x1="238" y1="339" x2="217" y2="336" />
<line x1="238" y1="338" x2="218" y2="335" />
<line x1="238" y1="337" x2="218" y2="334" />
<line x1="244" y1="311" x2="224" y2="306" />
<line x1="244" y1="309" x2="224" y2="304" />
<line x1="245" y1="308" x2="224" y2="303" />
<line x1="245" y1="307" x2="224" y2="302" />
<line x1="247" y1="298" x2="227" y2="292" />
<line x1="261" y1="258" x2="242" y2="250" />
<line x1="262" y1="258" x2="242" y2="249" />
<line x1="265" y1="251" x2="246" y2="242" />
<line x1="272" y1="235" x2="253" y2="226" />
<line x1="273" y1="234" x2="254" y2="224" />
<line x1="273" y1="233" x2="255" y2="223" />
<line x1="274" y1="232" x2="255" y2="223" />
<line x1="276" y1="228" x2="258" y2="218" />
<line x1="289" y1="207" x2="271" y2="195" />
<line x1="290" y1="205" x2="272" y2="194" />
<line x1="290" y1="205" x2="273" y2="193" />
<line x1="291" y1="204" x2="273" y2="192" />
<line x1="292" y1="201" x2="275" y2="189" />
<line x1="309" y1="179" x2="292" y2="166" />
<line x1="312" y1="175" x2="296" y2="162" />
<line x1="314" y1="173" x2="298" y2="159" />
<line x1="315" y1="171" x2="299" y2="158" />
<line x1="327" y1="158" x2="312" y2="144" />
<line x1="339" y1="146" x2="324" y2="131" />
<line x1="339" y1="145" x2="325" y2="130" />
<line x1="340" y1="145" x2="326" y2="130" />
<line x1="341" y1="144" x2="327" y2="128" />
<line x1="342" y1="142" x2="328" y2="127" />
<line x1="344" y1="141" x2="329" y2="126" />
<line x1="367" y1="122" x2="354" y2="105" />
<line x1="375" y1="115" x2="363" y2="98" />
<line x1="393" y1="103" x2="382" y2="85" />
<line x1="403" y1="97" x2="392" y2="79" />
<line x1="481" y1="63" x2="476" y2="43" />
<line x1="559" y1="50" x2="558" y2="29" />
<line x1="572" y1="50" x2="572" y2="29" />
<line x1="575" y1="50" x2="575" y2="29" />
</g>
<g  fill="#f5f5ff" stroke="#803e75" style="stroke-width:1">
<line x1="600" y1="56" x2="698" y2="77" />
<line x1="600" y1="56" x2="443" y2="83" />
<line x1="600" y1="56" x2="239" y2="399" />
<line x1="600" y1="56" x2="242" y2="351" />
<line x1="600" y1="56" x2="246" y2="325" />
<line x1="600" y1="56" x2="261" y2="511" />
<line x1="600" y1="56" x2="287" y2="566" />
<line x1="600" y1="56" x2="880" y2="246" />
<line x1="600" y1="56" x2="305" y2="193" />
<line x1="600" y1="56" x2="287" y2="220" />
<line x1="600" y1="56" x2="776" y2="120" />
<line x1="600" y1="56" x2="573" y2="730" />
</g>
<g  fill="#f5f5ff" stroke="#ff6800" style="stroke-width:1">
<line x1="698" y1="77" x2="287" y2="566" />
<line x1="698" y1="77" x2="387" y2="113" />
<line x1="698" y1="77" x2="261" y2="511" />
<line x1="698" y1="77" x2="566" y2="55" />
<line x1="698" y1="77" x2="443" y2="83" />
<line x1="698" y1="77" x2="359" y2="135" />
<line x1="698" y1="77" x2="337" y2="155" />
<line x1="698" y1="77" x2="246" y2="325" />
<line x1="698" y1="77" x2="258" y2="279" />
<line x1="698" y1="77" x2="305" y2="193" />
<line x1="698" y1="77" x2="880" y2="246" />
<line x1="698" y1="77" x2="770" y2="116" />
</g>
<g  fill="#f5f5ff" stroke="#cea262" style="stroke-width:1">
<line x1="776" y1="120" x2="387" y2="113" />
<line x1="776" y1="120" x2="287" y2="220" />
<line x1="776" y1="120" x2="239" y2="399" />
<line x1="776" y1="120" x2="443" y2="83" />
<line x1="776" y1="120" x2="521" y2="60" />
<line x1="776" y1="120" x2="566" y2="55" />
<line x1="776" y1="120" x2="698" y2="77" />
<line x1="776" y1="120" x2="910" y2="445" />
<line x1="776" y1="120" x2="914" y2="407" />
<line x1="776" y1="120" x2="880" y2="246" />
<line x1="776" y1="120" x2="890" y2="517" />
</g>
<g  fill="#f5f5ff" stroke="#817066" style="stroke-width:1">
<line x1="782" y1="125" x2="787" y2="129" />
<line x1="782" y1="125" x2="354" y2="646" />
</g>
<g  fill="#f5f5ff" stroke="#f6768e" style="stroke-width:1">
<line x1="790" y1="131" x2="910" y2="445" />
<line x1="790" y1="131" x2="387" y2="113" />
<line x1="790" y1="131" x2="401" y2="104" />
</g>
<g  fill="#f5f5ff" stroke="#00538a" style="stroke-width:1">
<line x1="880" y1="246" x2="273" y2="245" />
<line x1="880" y1="246" x2="890" y2="517" />
<line x1="880" y1="246" x2="887" y2="524" />
<line x1="880" y1="246" x2="246" y2="325" />
<line x1="880" y1="246" x2="241" y2="430" />
<line x1="880" y1="246" x2="287" y2="566" />
</g>
<g  fill="#f5f5ff" stroke="#ff7a5c" style="stroke-width:1">
<line x1="914" y1="407" x2="244" y2="453" />
<line x1="914" y1="407" x2="242" y2="351" />
<line x1="914" y1="407" x2="239" y2="399" />
<line x1="914" y1="407" x2="287" y2="566" />
<line x1="914" y1="407" x2="261" y2="511" />
<line x1="914" y1="407" x2="246" y2="325" />
<line x1="914" y1="407" x2="241" y2="430" />
<line x1="914" y1="407" x2="273" y2="245" />
</g>
<g  fill="#f5f5ff" stroke="#53377a" style="stroke-width:1">
<line x1="910" y1="445" x2="242" y2="438" />
<line x1="910" y1="445" x2="566" y2="55" />
<line x1="910" y1="445" x2="244" y2="453" />
<line x1="910" y1="445" x2="387" y2="113" />
<line x1="910" y1="445" x2="443" y2="83" />
</g>
<g  fill="#f5f5ff" stroke="#ff8e00" style="stroke-width:1">
<line x1="904" y1="474" x2="698" y2="77" />
<line x1="904" y1="474" x2="779" y2="663" />
<line x1="904" y1="474" x2="387" y2="113" />
<line x1="904" y1="474" x2="882" y2="536" />
<line x1="904" y1="474" x2="898" y2="495" />
<line x1="904" y1="474" x2="240" y2="366" />
<line x1="904" y1="474" x2="880" y2="246" />
<line x1="904" y1="474" x2="790" y2="131" />
<line x1="904" y1="474" x2="573" y2="730" />
<line x1="904" y1="474" x2="782" y2="125" />
<line x1="904" y1="474" x2="770" y2="116" />
<line x1="904" y1="474" x2="322" y2="614" />
</g>
<g  fill="#f5f5ff" stroke="#b32851" style="stroke-width:1">
<line x1="898" y1="495" x2="884" y2="531" />
<line x1="898" y1="495" x2="885" y2="529" />
<line x1="898" y1="495" x2="887" y2="524" />
<line x1="898" y1="495" x2="890" y2="517" />
<line x1="898" y1="495" x2="893" y2="509" />
</g>
<g  fill="#f5f5ff" stroke="#232c16" style="stroke-width:1">
<line x1="882" y1="536" x2="779" y2="663" />
<line x1="882" y1="536" x2="258" y2="279" />
</g>
<g  fill="#f5f5ff" stroke="#803e75" style="stroke-width:1">
<line x1="779" y1="663" x2="241" y2="430" />
<line x1="779" y1="663" x2="914" y2="407" />
<line x1="779" y1="663" x2="443" y2="83" />
<line x1="779" y1="663" x2="239" y2="399" />
<line x1="779" y1="663" x2="387" y2="113" />
<line x1="779" y1="663" x2="359" y2="135" />
<line x1="779" y1="663" x2="344" y2="148" />
<line x1="779" y1="663" x2="337" y2="155" />
<line x1="779" y1="663" x2="242" y2="351" />
<line x1="779" y1="663" x2="246" y2="325" />
<line x1="779" y1="663" x2="251" y2="303" />
<line x1="779" y1="663" x2="258" y2="279" />
<line x1="779" y1="663" x2="273" y2="245" />
<line x1="779" y1="663" x2="287" y2="220" />
<line x1="779" y1="663" x2="635" y2="725" />
<line x1="779" y1="663" x2="890" y2="517" />
<line x1="779" y1="663" x2="698" y2="77" />
<line x1="779" y1="663" x2="887" y2="524" />
<line x1="779" y1="663" x2="573" y2="730" />
<line x1="779" y1="663" x2="261" y2="511" />
<line x1="779" y1="663" x2="898" y2="495" />
<line x1="779" y1="663" x2="287" y2="566" />
<line x1="779" y1="663" x2="880" y2="246" />
<line x1="779" y1="663" x2="770" y2="116" />
<line x1="779" y1="663" x2="249" y2="476" />
<line x1="779" y1="663" x2="566" y2="55" />
<line x1="779" y1="663" x2="244" y2="453" />
<line x1="779" y1="663" x2="247" y2="466" />
<line x1="779" y1="663" x2="787" y2="129" />
<line x1="779" y1="663" x2="790" y2="131" />
</g>
<g  fill="#f5f5ff" stroke="#cea262" style="stroke-width:1">
<line x1="631" y1="726" x2="635" y2="725" />
</g>
<g  fill="#f5f5ff" stroke="#817066" style="stroke-width:1">
<line x1="573" y1="730" x2="277" y2="237" />
<line x1="573" y1="730" x2="273" y2="245" />
<line x1="573" y1="730" x2="243" y2="339" />
<line x1="573" y1="730" x2="242" y2="438" />
<line x1="573" y1="730" x2="317" y2="177" />
<line x1="573" y1="730" x2="243" y2="339" />
<line x1="573" y1="730" x2="488" y2="718" />
<line x1="573" y1="730" x2="246" y2="325" />
<line x1="573" y1="730" x2="325" y2="168" />
<line x1="573" y1="730" x2="249" y2="311" />
<line x1="573" y1="730" x2="319" y2="175" />
<line x1="573" y1="730" x2="249" y2="310" />
<line x1="573" y1="730" x2="249" y2="309" />
<line x1="573" y1="730" x2="503" y2="722" />
<line x1="573" y1="730" x2="251" y2="303" />
<line x1="573" y1="730" x2="268" y2="256" />
<line x1="573" y1="730" x2="314" y2="180" />
<line x1="573" y1="730" x2="898" y2="495" />
<line x1="573" y1="730" x2="914" y2="407" />
<line x1="573" y1="730" x2="880" y2="246" />
<line x1="573" y1="730" x2="305" y2="193" />
<line x1="573" y1="730" x2="296" y2="205" />
<line x1="573" y1="730" x2="295" y2="207" />
<line x1="573" y1="730" x2="294" y2="208" />
<line x1="573" y1="730" x2="266" y2="260" />
<line x1="573" y1="730" x2="278" y2="550" />
<line x1="573" y1="730" x2="252" y2="486" />
<line x1="573" y1="730" x2="252" y2="484" />
<line x1="573" y1="730" x2="253" y2="488" />
<line x1="573" y1="730" x2="287" y2="220" />
<line x1="573" y1="730" x2="261" y2="511" />
<line x1="573" y1="730" x2="239" y2="374" />
<line x1="573" y1="730" x2="240" y2="424" />
<line x1="573" y1="730" x2="241" y2="424" />
<line x1="573" y1="730" x2="280" y2="232" />
<line x1="573" y1="730" x2="278" y2="235" />
<line x1="573" y1="730" x2="240" y2="372" />
<line x1="573" y1="730" x2="240" y2="370" />
<line x1="573" y1="730" x2="275" y2="544" />
<line x1="573" y1="730" x2="279" y2="551" />
<line x1="573" y1="730" x2="278" y2="236" />
<line x1="573" y1="730" x2="249" y2="476" />
<line x1="573" y1="730" x2="294" y2="208" />
<line x1="573" y1="730" x2="244" y2="453" />
<line x1="573" y1="730" x2="279" y2="552" />
<line x1="573" y1="730" x2="344" y2="148" />
<line x1="573" y1="730" x2="343" y2="149" />
<line x1="573" y1="730" x2="343" y2="149" />
<line x1="573" y1="730" x2="242" y2="439" />
<line x1="573" y1="730" x2="337" y2="155" />
<line x1="573" y1="730" x2="242" y2="351" />
</g>
<g  fill="#f5f5ff" stroke="#00538a" style="stroke-width:1">
<line x1="480" y1="716" x2="277" y2="237" />
<line x1="480" y1="716" x2="253" y2="488" />
<line x1="480" y1="716" x2="314" y2="180" />
<line x1="480" y1="716" x2="239" y2="374" />
<line x1="480" y1="716" x2="249" y2="311" />
<line x1="480" y1="716" x2="279" y2="552" />
<line x1="480" y1="716" x2="294" y2="208" />
</g>
<g  fill="#f5f5ff" stroke="#ff7a5c" style="stroke-width:1">
<line x1="426" y1="695" x2="503" y2="722" />
</g>
<g  fill="#f5f5ff" stroke="#7f180d" style="stroke-width:1">
<line x1="322" y1="614" x2="314" y2="180" />
<line x1="322" y1="614" x2="249" y2="311" />
<line x1="322" y1="614" x2="776" y2="120" />
<line x1="322" y1="614" x2="573" y2="730" />
<line x1="322" y1="614" x2="253" y2="488" />
<line x1="322" y1="614" x2="301" y2="587" />
<line x1="322" y1="614" x2="277" y2="237" />
<line x1="322" y1="614" x2="294" y2="208" />
<line x1="322" y1="614" x2="279" y2="552" />
<line x1="322" y1="614" x2="239" y2="374" />
</g>
<g  fill="#f5f5ff" stroke="#93aa00" style="stroke-width:1">
<line x1="301" y1="587" x2="359" y2="135" />
<line x1="301" y1="587" x2="258" y2="279" />
<line x1="301" y1="587" x2="443" y2="83" />
<line x1="301" y1="587" x2="387" y2="113" />
<line x1="301" y1="587" x2="287" y2="220" />
<line x1="301" y1="587" x2="521" y2="60" />
<line x1="301" y1="587" x2="566" y2="55" />
<line x1="301" y1="587" x2="305" y2="193" />
<line x1="301" y1="587" x2="242" y2="351" />
<line x1="301" y1="587" x2="246" y2="325" />
<line x1="301" y1="587" x2="698" y2="77" />
<line x1="301" y1="587" x2="887" y2="524" />
<line x1="301" y1="587" x2="503" y2="722" />
<line x1="301" y1="587" x2="287" y2="566" />
<line x1="301" y1="587" x2="261" y2="511" />
<line x1="301" y1="587" x2="273" y2="245" />
<line x1="301" y1="587" x2="242" y2="438" />
<line x1="301" y1="587" x2="241" y2="430" />
</g>
<g  fill="#f5f5ff" stroke="#a6bdd7" style="stroke-width:1">
<line x1="261" y1="511" x2="239" y2="399" />
<line x1="261" y1="511" x2="305" y2="193" />
<line x1="261" y1="511" x2="898" y2="495" />
<line x1="261" y1="511" x2="887" y2="524" />
<line x1="261" y1="511" x2="635" y2="725" />
</g>
<g  fill="#f5f5ff" stroke="#ff7a5c" style="stroke-width:1">
<line x1="244" y1="453" x2="239" y2="399" />
</g>
<g  fill="#f5f5ff" stroke="#ff8e00" style="stroke-width:1">
<line x1="242" y1="438" x2="503" y2="722" />
</g>
<g  fill="#f5f5ff" stroke="#93aa00" style="stroke-width:1">
<line x1="239" y1="399" x2="314" y2="180" />
<line x1="239" y1="399" x2="249" y2="311" />
<line x1="239" y1="399" x2="278" y2="235" />
<line x1="239" y1="399" x2="279" y2="552" />
<line x1="239" y1="399" x2="253" y2="488" />
<line x1="239" y1="399" x2="249" y2="476" />
<line x1="239" y1="399" x2="239" y2="374" />
<line x1="239" y1="399" x2="294" y2="208" />
<line x1="239" y1="399" x2="277" y2="237" />
<line x1="239" y1="399" x2="910" y2="445" />
</g>
<g  fill="#f5f5ff" stroke="#ffb300" style="stroke-width:1">
<line x1="240" y1="366" x2="249" y2="476" />
<line x1="240" y1="366" x2="337" y2="155" />
<line x1="240" y1="366" x2="280" y2="232" />
<line x1="240" y1="366" x2="275" y2="544" />
<line x1="240" y1="366" x2="241" y2="430" />
<line x1="240" y1="366" x2="279" y2="552" />
<line x1="240" y1="366" x2="287" y2="566" />
<line x1="240" y1="366" x2="301" y2="587" />
<line x1="240" y1="366" x2="426" y2="695" />
<line x1="240" y1="366" x2="480" y2="716" />
<line x1="240" y1="366" x2="880" y2="246" />
<line x1="240" y1="366" x2="914" y2="407" />
<line x1="240" y1="366" x2="885" y2="529" />
<line x1="240" y1="366" x2="239" y2="399" />
<line x1="240" y1="366" x2="296" y2="205" />
<line x1="240" y1="366" x2="258" y2="279" />
<line x1="240" y1="366" x2="268" y2="256" />
<line x1="240" y1="366" x2="251" y2="303" />
<line x1="240" y1="366" x2="325" y2="168" />
<line x1="240" y1="366" x2="287" y2="220" />
<line x1="240" y1="366" x2="305" y2="193" />
</g>
<g  fill="#f5f5ff" stroke="#803e75" style="stroke-width:1">
<line x1="242" y1="351" x2="359" y2="135" />
<line x1="242" y1="351" x2="521" y2="60" />
<line x1="242" y1="351" x2="387" y2="113" />
</g>
<g  fill="#f5f5ff" stroke="#cea262" style="stroke-width:1">
<line x1="246" y1="325" x2="251" y2="303" />
</g>
<g  fill="#f5f5ff" stroke="#ff7a5c" style="stroke-width:1">
<line x1="258" y1="279" x2="488" y2="718" />
<line x1="258" y1="279" x2="280" y2="232" />
<line x1="258" y1="279" x2="287" y2="566" />
<line x1="258" y1="279" x2="244" y2="453" />
<line x1="258" y1="279" x2="239" y2="399" />
<line x1="258" y1="279" x2="246" y2="325" />
<line x1="258" y1="279" x2="910" y2="445" />
<line x1="258" y1="279" x2="305" y2="193" />
<line x1="258" y1="279" x2="898" y2="495" />
<line x1="258" y1="279" x2="251" y2="303" />
</g>
<g  fill="#f5f5ff" stroke="#f13a13" style="stroke-width:1">
<line x1="287" y1="220" x2="273" y2="245" />
<line x1="287" y1="220" x2="246" y2="325" />
<line x1="287" y1="220" x2="337" y2="155" />
<line x1="287" y1="220" x2="242" y2="351" />
<line x1="287" y1="220" x2="239" y2="399" />
<line x1="287" y1="220" x2="241" y2="430" />
<line x1="287" y1="220" x2="244" y2="453" />
<line x1="287" y1="220" x2="287" y2="566" />
</g>
<g  fill="#f5f5ff" stroke="#a6bdd7" style="stroke-width:1">
<line x1="305" y1="193" x2="239" y2="399" />
<line x1="305" y1="193" x2="241" y2="430" />
<line x1="305" y1="193" x2="443" y2="83" />
</g>
<g  fill="#f5f5ff" stroke="#00538a" style="stroke-width:1">
<line x1="337" y1="155" x2="635" y2="725" />
<line x1="337" y1="155" x2="885" y2="529" />
<line x1="337" y1="155" x2="247" y2="466" />
<line x1="337" y1="155" x2="344" y2="148" />
<line x1="337" y1="155" x2="910" y2="445" />
<line x1="337" y1="155" x2="305" y2="193" />
<line x1="337" y1="155" x2="273" y2="245" />
<line x1="337" y1="155" x2="246" y2="325" />
<line x1="337" y1="155" x2="887" y2="524" />
<line x1="337" y1="155" x2="239" y2="399" />
<line x1="337" y1="155" x2="244" y2="453" />
</g>
<g  fill="#f5f5ff" stroke="#b32851" style="stroke-width:1">
<line x1="346" y1="146" x2="566" y2="55" />
<line x1="346" y1="146" x2="387" y2="113" />
<line x1="346" y1="146" x2="779" y2="663" />
</g>
<g  fill="#f5f5ff" stroke="#93aa00" style="stroke-width:1">
<line x1="374" y1="122" x2="566" y2="55" />
<line x1="374" y1="122" x2="443" y2="83" />
<line x1="374" y1="122" x2="401" y2="104" />
<line x1="374" y1="122" x2="287" y2="566" />
<line x1="374" y1="122" x2="239" y2="399" />
<line x1="374" y1="122" x2="273" y2="245" />
<line x1="374" y1="122" x2="287" y2="220" />
<line x1="374" y1="122" x2="305" y2="193" />
<line x1="374" y1="122" x2="337" y2="155" />
<line x1="374" y1="122" x2="359" y2="135" />
<line x1="374" y1="122" x2="387" y2="113" />
<line x1="374" y1="122" x2="258" y2="279" />
<line x1="374" y1="122" x2="246" y2="325" />
<line x1="374" y1="122" x2="242" y2="351" />
<line x1="374" y1="122" x2="241" y2="430" />
<line x1="374" y1="122" x2="244" y2="453" />
<line x1="374" y1="122" x2="261" y2="511" />
<line x1="374" y1="122" x2="890" y2="517" />
<line x1="374" y1="122" x2="898" y2="495" />
<line x1="374" y1="122" x2="880" y2="246" />
<line x1="374" y1="122" x2="770" y2="116" />
<line x1="374" y1="122" x2="698" y2="77" />
</g>
<g  fill="#f5f5ff" stroke="#f13a13" style="stroke-width:1">
<line x1="401" y1="104" x2="566" y2="55" />
<line x1="401" y1="104" x2="521" y2="60" />
<line x1="401" y1="104" x2="443" y2="83" />
<line x1="401" y1="104" x2="787" y2="129" />
<line x1="401" y1="104" x2="239" y2="399" />
<line x1="401" y1="104" x2="880" y2="246" />
<line x1="401" y1="104" x2="898" y2="495" />
<line x1="401" y1="104" x2="890" y2="517" />
<line x1="401" y1="104" x2="887" y2="524" />
<line x1="401" y1="104" x2="631" y2="726" />
<line x1="401" y1="104" x2="287" y2="566" />
<line x1="401" y1="104" x2="261" y2="511" />
<line x1="401" y1="104" x2="247" y2="466" />
<line x1="401" y1="104" x2="387" y2="113" />
<line x1="401" y1="104" x2="242" y2="351" />
<line x1="401" y1="104" x2="258" y2="279" />
<line x1="401" y1="104" x2="305" y2="193" />
<line x1="401" y1="104" x2="359" y2="135" />
<line x1="401" y1="104" x2="770" y2="116" />
</g>
<g  fill="#f5f5ff" stroke="#ffb300" style="stroke-width:1">
<line x1="521" y1="60" x2="443" y2="83" />
<line x1="521" y1="60" x2="359" y2="135" />
<line x1="521" y1="60" x2="631" y2="726" />
<line x1="521" y1="60" x2="880" y2="246" />
</g>
<g  fill="#f5f5ff" stroke="#c10020" style="stroke-width:1">
</g>
<g  fill="#f5f5ff" stroke="#000000" style="stroke-width:1">
<circle cx="577" cy="55" r="1" style="fill:#ffffff" />
<circle cx="600" cy="56" r="1" style="fill:#ffffff" />
<circle cx="698" cy="77" r="1" style="fill:#ffffff" />
<circle cx="770" cy="116" r="1" style="fill:#ffffff" />
<circle cx="776" cy="120" r="1" style="fill:#ffffff" />
<circle cx="782" cy="125" r="1" style="fill:#ffffff" />
<circle cx="787" cy="129" r="1" style="fill:#ffffff" />
<circle cx="790" cy="131" r="1" style="fill:#ffffff" />
<circle cx="880" cy="246" r="1" style="fill:#ffffff" />
<circle cx="914" cy="407" r="1" style="fill:#ffffff" />
<circle cx="910" cy="445" r="1" style="fill:#ffffff" />
<circle cx="904" cy="474" r="1" style="fill:#ffffff" />
<circle cx="898" cy="495" r="1" style="fill:#ffffff" />
<circle cx="893" cy="509" r="1" style="fill:#ffffff" />
<circle cx="890" cy="517" r="1" style="fill:#ffffff" />
<circle cx="887" cy="524" r="1" style="fill:#ffffff" />
<circle cx="885" cy="529" r="1" style="fill:#ffffff" />
<circle cx="884" cy="531" r="1" style="fill:#ffffff" />
<circle cx="882" cy="536" r="1" style="fill:#ffffff" />
<circle cx="879" cy="542" r="1" style="fill:#ffffff" />
<circle cx="779" cy="663" r="1" style="fill:#ffffff" />
<circle cx="635" cy="725" r="1" style="fill:#ffffff" />
<circle cx="634" cy="725" r="1" style="fill:#ffffff" />
<circle cx="631" cy="726" r="1" style="fill:#ffffff" />
<circle cx="573" cy="730" r="1" style="fill:#ffffff" />
<circle cx="503" cy="722" r="1" style="fill:#ffffff" />
<circle cx="488" cy="718" r="1" style="fill:#ffffff" />
<circle cx="480" cy="716" r="1" style="fill:#ffffff" />
<circle cx="426" cy="695" r="1" style="fill:#ffffff" />
<circle cx="379" cy="667" r="1" style="fill:#ffffff" />
<circle cx="373" cy="662" r="1" style="fill:#ffffff" />
<circle cx="354" cy="646" r="1" style="fill:#ffffff" />
<circle cx="338" cy="631" r="1" style="fill:#ffffff" />
<circle cx="322" cy="614" r="1" style="fill:#ffffff" />
<circle cx="301" cy="587" r="1" style="fill:#ffffff" />
<circle cx="287" cy="566" r="1" style="fill:#ffffff" />
<circle cx="279" cy="552" r="1" style="fill:#ffffff" />
<circle cx="279" cy="551" r="1" style="fill:#ffffff" />
<circle cx="278" cy="550" r="1" style="fill:#ffffff" />
<circle cx="275" cy="544" r="1" style="fill:#ffffff" />
<circle cx="271" cy="536" r="1" style="fill:#ffffff" />
<circle cx="261" cy="511" r="1" style="fill:#ffffff" />
<circle cx="253" cy="488" r="1" style="fill:#ffffff" />
<circle cx="252" cy="486" r="1" style="fill:#ffffff" />
<circle cx="252" cy="484" r="1" style="fill:#ffffff" />
<circle cx="249" cy="476" r="1" style="fill:#ffffff" />
<circle cx="247" cy="466" r="1" style="fill:#ffffff" />
<circle cx="244" cy="453" r="1" style="fill:#ffffff" />
<circle cx="242" cy="439" r="1" style="fill:#ffffff" />
<circle cx="242" cy="438" r="1" style="fill:#ffffff" />
<circle cx="241" cy="430" r="1" style="fill:#ffffff" />
<circle cx="241" cy="424" r="1" style="fill:#ffffff" />
<circle cx="240" cy="424" r="1" style="fill:#ffffff" />
<circle cx="239" cy="399" r="1" style="fill:#ffffff" />
<circle cx="239" cy="374" r="1" style="fill:#ffffff" />
<circle cx="240" cy="372" r="1" style="fill:#ffffff" />
<circle cx="240" cy="370" r="1" style="fill:#ffffff" />
<circle cx="240" cy="366" r="1" style="fill:#ffffff" />
<circle cx="242" cy="351" r="1" style="fill:#ffffff" />
<circle cx="243" cy="339" r="1" style="fill:#ffffff" />
<circle cx="243" cy="339" r="1" style="fill:#ffffff" />
<circle cx="246" cy="325" r="1" style="fill:#ffffff" />
<circle cx="249" cy="311" r="1" style="fill:#ffffff" />
<circle cx="249" cy="310" r="1" style="fill:#ffffff" />
<circle cx="249" cy="309" r="1" style="fill:#ffffff" />
<circle cx="251" cy="303" r="1" style="fill:#ffffff" />
<circle cx="258" cy="279" r="1" style="fill:#ffffff" />
<circle cx="266" cy="260" r="1" style="fill:#ffffff" />
<circle cx="268" cy="256" r="1" style="fill:#ffffff" />
<circle cx="273" cy="245" r="1" style="fill:#ffffff" />
<circle cx="277" cy="237" r="1" style="fill:#ffffff" />
<circle cx="278" cy="236" r="1" style="fill:#ffffff" />
<circle cx="278" cy="235" r="1" style="fill:#ffffff" />
<circle cx="280" cy="232" r="1" style="fill:#ffffff" />
<circle cx="287" cy="220" r="1" style="fill:#ffffff" />
<circle cx="294" cy="208" r="1" style="fill:#ffffff" />
<circle cx="294" cy="208" r="1" style="fill:#ffffff" />
<circle cx="295" cy="207" r="1" style="fill:#ffffff" />
<circle cx="296" cy="205" r="1" style="fill:#ffffff" />
<circle cx="305" cy="193" r="1" style="fill:#ffffff" />
<circle cx="314" cy="180" r="1" style="fill:#ffffff" />
<circle cx="317" cy="177" r="1" style="fill:#ffffff" />
<circle cx="319" cy="175" r="1" style="fill:#ffffff" />
<circle cx="325" cy="168" r="1" style="fill:#ffffff" />
<circle cx="337" cy="155" r="1" style="fill:#ffffff" />
<circle cx="343" cy="149" r="1" style="fill:#ffffff" />
<circle cx="343" cy="149" r="1" style="fill:#ffffff" />
<circle cx="344" cy="148" r="1" style="fill:#ffffff" />
<circle cx="346" cy="146" r="1" style="fill:#ffffff" />
<circle cx="347" cy="145" r="1" style="fill:#ffffff" />
<circle cx="359" cy="135" r="1" style="fill:#ffffff" />
<circle cx="374" cy="122" r="1" style="fill:#ffffff" />
<circle cx="387" cy="113" r="1" style="fill:#ffffff" />
<circle cx="401" cy="104" r="1" style="fill:#ffffff" />
<circle cx="443" cy="83" r="1" style="fill:#ffffff" />
<circle cx="521" cy="60" r="1" style="fill:#ffffff" />
<circle cx="566" cy="55" r="1" style="fill:#ffffff" />
<circle cx="574" cy="55" r="1" style="fill:#ffffff" />
<circle cx="576" cy="55" r="1" style="fill:#ffffff" />
</g>
<g font-size="10.000000" stroke="none">
<text x="582" y="19">include/llvm</text>
<text x="607" y="20">inc-lib/ADT</text>
<text x="715" y="44">inc-lib/Analysis</text>
<text x="796" y="87">inc-lib/Analysis/IPA</text>
<text x="802" y="91">inc-lib/AsmParser</text>
<text x="809" y="96">inc-lib/Bitcode</text>
<text x="815" y="101">inc-lib/Bitcode/Reader</text>
<text x="818" y="104">inc-lib/Bitcode/Writer</text>
<text x="918" y="230">inc-lib/CodeGen</text>
<text x="955" y="408">inc-lib/CodeGen/AsmPrinter</text>
<text x="950" y="451">inc-lib/CodeGen/SelectionDAG</text>
<text x="944" y="483">inc-lib/DebugInfo</text>
<text x="937" y="506">inc-lib/ExecutionEngine</text>
<text x="932" y="521">inc-lib/ExecutionEngine/IntelJITEvents</text>
<text x="929" y="530">inc-lib/ExecutionEngine/Interpreter</text>
<text x="926" y="538">inc-lib/ExecutionEngine/JIT</text>
<text x="923" y="544">inc-lib/ExecutionEngine/MCJIT</text>
<text x="922" y="545">inc-lib/ExecutionEngine/OProfileJIT</text>
<text x="920" y="551">inc-lib/ExecutionEngine/RuntimeDyld</text>
<text x="916" y="558">inc-lib/ExecutionEngine/RuntimeDyld/Targets</text>
<text x="806" y="691">inc-lib/IR</text>
<text x="646" y="760">inc-lib/LTO</text>
<text x="645" y="761">inc-lib/LineEditor</text>
<text x="642" y="761">inc-lib/Linker</text>
<text x="518" y="766">inc-lib/MC</text>
<text x="383" y="757">inc-lib/MC/MCAnalysis</text>
<text x="344" y="753">inc-lib/MC/MCDisassembler</text>
<text x="367" y="751">inc-lib/MC/MCParser</text>
<text x="340" y="727">inc-lib/Object</text>
<text x="288" y="696">inc-lib/Option</text>
<text x="260" y="690">inc-lib/ProfileData</text>
<text x="254" y="673">inc-lib/Support</text>
<text x="193" y="657">inc-lib/Support/Windows</text>
<text x="208" y="637">inc-lib/TableGen</text>
<text x="202" y="608">inc-lib/Target</text>
<text x="143" y="584">inc-lib/Target/AArch64</text>
<text x="83" y="570">inc-lib/Target/AArch64/AsmParser</text>
<text x="70" y="568">inc-lib/Target/AArch64/Disassembler</text>
<text x="83" y="566">inc-lib/Target/AArch64/InstPrinter</text>
<text x="58" y="561">inc-lib/Target/AArch64/MCTargetDesc</text>
<text x="102" y="551">inc-lib/Target/AArch64/Utils</text>
<text x="132" y="524">inc-lib/Target/ARM</text>
<text x="70" y="499">inc-lib/Target/ARM/AsmParser</text>
<text x="58" y="496">inc-lib/Target/ARM/Disassembler</text>
<text x="71" y="494">inc-lib/Target/ARM/InstPrinter</text>
<text x="46" y="484">inc-lib/Target/ARM/MCTargetDesc</text>
<text x="81" y="474">inc-lib/Target/CppBackend</text>
<text x="95" y="459">inc-lib/Target/Hexagon</text>
<text x="42" y="444">inc-lib/Target/Hexagon/InstPrinter</text>
<text x="19" y="443">inc-lib/Target/Hexagon/MCTargetDesc</text>
<text x="92" y="434">inc-lib/Target/MSP430</text>
<text x="41" y="428">inc-lib/Target/MSP430/InstPrinter</text>
<text x="19" y="427">inc-lib/Target/MSP430/MCTargetDesc</text>
<text x="108" y="400">inc-lib/Target/Mips</text>
<text x="57" y="372">inc-lib/Target/Mips/AsmParser</text>
<text x="45" y="370">inc-lib/Target/Mips/Disassembler</text>
<text x="59" y="368">inc-lib/Target/Mips/InstPrinter</text>
<text x="37" y="363">inc-lib/Target/Mips/MCTargetDesc</text>
<text x="98" y="347">inc-lib/Target/NVPTX</text>
<text x="50" y="334">inc-lib/Target/NVPTX/InstPrinter</text>
<text x="28" y="333">inc-lib/Target/NVPTX/MCTargetDesc</text>
<text x="96" y="317">inc-lib/Target/PowerPC</text>
<text x="46" y="302">inc-lib/Target/PowerPC/AsmParser</text>
<text x="34" y="301">inc-lib/Target/PowerPC/Disassembler</text>
<text x="49" y="300">inc-lib/Target/PowerPC/InstPrinter</text>
<text x="28" y="294">inc-lib/Target/PowerPC/MCTargetDesc</text>
<text x="128" y="267">inc-lib/Target/R600</text>
<text x="85" y="246">inc-lib/Target/R600/InstPrinter</text>
<text x="65" y="242">inc-lib/Target/R600/MCTargetDesc</text>
<text x="141" y="229">inc-lib/Target/Sparc</text>
<text x="93" y="220">inc-lib/Target/Sparc/AsmParser</text>
<text x="82" y="219">inc-lib/Target/Sparc/Disassembler</text>
<text x="96" y="218">inc-lib/Target/Sparc/InstPrinter</text>
<text x="76" y="215">inc-lib/Target/Sparc/MCTargetDesc</text>
<text x="143" y="201">inc-lib/Target/SystemZ</text>
<text x="98" y="189">inc-lib/Target/SystemZ/AsmParser</text>
<text x="87" y="188">inc-lib/Target/SystemZ/Disassembler</text>
<text x="101" y="187">inc-lib/Target/SystemZ/InstPrinter</text>
<text x="81" y="185">inc-lib/Target/SystemZ/MCTargetDesc</text>
<text x="185" y="171">inc-lib/Target/X86</text>
<text x="142" y="157">inc-lib/Target/X86/AsmParser</text>
<text x="133" y="154">inc-lib/Target/X86/Disassembler</text>
<text x="149" y="152">inc-lib/Target/X86/InstPrinter</text>
<text x="134" y="144">inc-lib/Target/X86/MCTargetDesc</text>
<text x="210" y="130">inc-lib/Target/XCore</text>
<text x="152" y="123">inc-lib/Target/XCore/Disassembler</text>
<text x="166" y="123">inc-lib/Target/XCore/InstPrinter</text>
<text x="146" y="121">inc-lib/Target/XCore/MCTargetDesc</text>
<text x="231" y="120">inc-lib/Transforms</text>
<text x="205" y="119">inc-lib/Transforms/Hello</text>
<text x="225" y="107">inc-lib/Transforms/IPO</text>
<text x="202" y="93">inc-lib/Transforms/InstCombine</text>
<text x="202" y="83">inc-lib/Transforms/Instrumentation</text>
<text x="245" y="74">inc-lib/Transforms/ObjCARC</text>
<text x="306" y="49">inc-lib/Transforms/Scalar</text>
<text x="402" y="24">inc-lib/Transforms/Utils</text>
<text x="428" y="19">inc-lib/Transforms/Vectorize</text>
<text x="501" y="19">include/llvm-c</text>
<text x="449" y="19">include/llvm-c/Transforms</text>
</g>
</svg>